<svg width="45" height="18" viewBox="0 0 45 18" fill="none" xmlns="http://www.w3.org/2000/svg">
<g clip-path="url(#clip0_2009_11168)">
<path fill-rule="evenodd" clip-rule="evenodd" d="M1.99135 10.5948C0.891557 10.5948 -3.55775e-07 9.70322 -4.03849e-07 8.60343L-6.88717e-07 2.08641C-7.3679e-07 0.986618 0.891557 0.0950584 1.99135 0.0950584C3.09114 0.0950583 3.9827 0.986618 3.9827 2.08641L3.9827 8.60343C3.9827 9.70322 3.09114 10.5948 1.99135 10.5948ZM7.40613 13.2265C6.62915 12.4482 6.63028 11.1873 7.40865 10.4103L9.34459 8.47784C8.08215 6.66528 7.34188 4.46257 7.34188 2.0864C7.34188 0.986608 8.23344 0.0950505 9.33323 0.0950504C10.433 0.0950504 11.3246 0.986608 11.3246 2.0864C11.3246 6.0732 14.5633 9.31146 18.566 9.31146C22.5682 9.31146 25.807 6.07326 25.807 2.0864C25.807 0.986607 26.6986 0.0950496 27.7984 0.0950496C28.8982 0.0950495 29.7897 0.986607 29.7897 2.0864C29.7897 4.46244 29.0495 6.66507 27.7872 8.47759L29.7234 10.4103C30.5018 11.1873 30.5029 12.4482 29.7259 13.2265C28.9489 14.0049 27.6881 14.006 26.9097 13.229L24.9694 11.2922C23.6717 12.1939 22.1744 12.829 20.5574 13.1182L20.5574 15.8511C20.5574 16.9508 19.6658 17.8424 18.566 17.8424C17.4662 17.8424 16.5747 16.9508 16.5747 15.8511L16.5747 13.1183C14.9576 12.8291 13.4603 12.194 12.1625 11.2923L10.2223 13.229C9.44396 14.006 8.18311 14.0049 7.40613 13.2265ZM40.4908 8.60343C40.4908 9.70322 41.3823 10.5948 42.4821 10.5948C43.5819 10.5948 44.4735 9.70322 44.4735 8.60343L44.4735 2.08641C44.4735 0.986616 43.5819 0.0950584 42.4821 0.0950585C41.3823 0.0950585 40.4908 0.986616 40.4908 2.08641L40.4908 8.60343ZM35.1402 10.5948C34.0405 10.5948 33.1489 9.70322 33.1489 8.60343L33.1489 2.08641C33.1489 0.986617 34.0405 0.0950589 35.1402 0.0950588C36.24 0.0950588 37.1316 0.986616 37.1316 2.08641L37.1316 8.60343C37.1316 9.70322 36.24 10.5948 35.1402 10.5948ZM22.6748 1.71601C22.6748 1.34739 22.6244 0.993817 22.5332 0.655288L14.5988 0.655288C14.5076 0.993818 14.4572 1.34739 14.4572 1.71601C14.4572 3.97907 16.299 5.81776 18.566 5.81776C20.8331 5.81776 22.6748 3.97907 22.6748 1.71601Z" fill="#FFA80F" fill-opacity="0.980392"/>
</g>
<defs>
<clipPath id="clip0_2009_11168">
<rect width="17.8425" height="44.5" fill="white" transform="translate(0 17.8425) rotate(-90)"/>
</clipPath>
</defs>
</svg>
