<svg width="349" height="463" viewBox="0 0 349 463" fill="none" xmlns="http://www.w3.org/2000/svg">
<path d="M348.994 238.657C348.994 236.776 347.759 234.907 345.278 233.471L337.956 229.242C332.993 226.37 324.947 226.37 319.973 229.242L253.629 267.55C251.147 268.986 249.901 270.889 249.912 272.748V360.395C249.912 362.276 251.147 364.168 253.629 365.604L260.951 369.822C265.914 372.694 273.959 372.694 278.922 369.822L345.278 331.514C347.759 330.078 348.994 328.175 348.994 326.327V238.657Z" fill="#E4960D" fill-opacity="0.980392"/>
<path opacity="0.3" d="M260.951 282.164L253.629 277.935C248.665 275.074 248.665 270.422 253.629 267.55L319.973 229.242C324.947 226.37 332.992 226.37 337.955 229.242L345.277 233.471C350.24 236.331 350.24 240.983 345.277 243.855L278.922 282.164C273.959 285.024 265.914 285.024 260.951 282.164Z" fill="white"/>
<path opacity="0.2" d="M269.953 284.312V371.97C266.822 372.039 263.726 371.303 260.961 369.834L253.628 365.593C251.135 364.168 249.889 362.254 249.911 360.384V272.748C249.911 274.629 251.135 276.499 253.628 277.935L260.961 282.175C263.728 283.64 266.823 284.375 269.953 284.312Z" fill="black"/>
<path d="M318.225 327.674L302.391 336.822L304.839 308.152C302.947 307.15 301.745 304.691 301.745 301.151C301.745 294.841 305.573 287.506 310.314 284.768C315.054 282.03 318.882 284.946 318.882 291.257C318.782 294.995 317.712 298.642 315.777 301.841L318.225 327.674Z" fill="#221A0B" fill-opacity="0.980392"/>
<path d="M318.237 327.662L303.882 319.382L302.391 336.811L318.237 327.662Z" fill="#5E400C" fill-opacity="0.980392"/>
<path d="M310.314 284.767C307.209 286.559 304.505 290.332 303.003 294.473L315.778 301.841C317.713 298.641 318.783 294.994 318.882 291.256C318.882 284.946 315.043 282.041 310.314 284.767Z" fill="#4D360E" fill-opacity="0.980392"/>
<path d="M331.067 242.809V205.557C331.067 194.706 326.972 186.102 319.817 181.973C312.996 178.033 304.55 178.567 296.048 183.476C280.469 192.502 268.229 214.506 268.229 233.56V268.808C268.29 269.438 268.518 270.04 268.89 270.553C269.262 271.066 269.763 271.47 270.343 271.724C271.91 272.525 273.646 272.943 275.406 272.943C277.166 272.943 278.902 272.525 280.469 271.724C281.048 271.47 281.549 271.066 281.918 270.553C282.288 270.04 282.514 269.438 282.572 268.808V233.582C282.572 219.636 292.053 202.419 303.259 195.896C307.087 193.671 310.525 193.147 312.695 194.394C315.244 195.874 316.779 200.048 316.779 205.524V242.775C316.843 243.402 317.071 244.001 317.44 244.511C317.809 245.021 318.307 245.424 318.882 245.68C320.452 246.476 322.186 246.891 323.946 246.891C325.705 246.891 327.44 246.476 329.009 245.68C329.584 245.424 330.082 245.021 330.451 244.511C330.82 244.001 331.048 243.402 331.112 242.775L331.067 242.809Z" fill="#F0F0F0"/>
<path d="M309.947 180.482C313.215 180.459 316.43 181.308 319.261 182.942C326.06 186.871 329.955 195.107 329.955 205.558V242.821C329.882 243.249 329.702 243.653 329.431 243.993C329.161 244.334 328.809 244.6 328.408 244.768C327.01 245.473 325.467 245.84 323.901 245.84C322.336 245.84 320.792 245.473 319.394 244.768C318.993 244.6 318.642 244.334 318.371 243.993C318.101 243.653 317.921 243.249 317.848 242.821V205.558C317.848 199.559 316.156 195.14 313.207 193.438C312.187 192.874 311.034 192.594 309.869 192.625C307.293 192.765 304.795 193.562 302.614 194.94C291.096 201.618 281.371 219.292 281.371 233.583V268.831C281.371 269.51 280.814 270.222 279.824 270.79C278.423 271.485 276.881 271.847 275.317 271.847C273.753 271.847 272.211 271.485 270.81 270.79C270.418 270.624 270.073 270.364 269.804 270.035C269.534 269.705 269.349 269.315 269.264 268.898V233.583C269.264 214.874 281.248 193.282 296.56 184.445C300.584 181.97 305.191 180.603 309.914 180.482M309.914 179.369C305 179.493 300.206 180.909 296.015 183.476C280.436 192.503 268.195 214.506 268.195 233.561V268.809C268.257 269.439 268.485 270.041 268.857 270.554C269.228 271.066 269.73 271.471 270.31 271.725C271.877 272.526 273.612 272.944 275.373 272.944C277.133 272.944 278.868 272.526 280.436 271.725C281.015 271.471 281.515 271.067 281.885 270.554C282.255 270.041 282.481 269.438 282.539 268.809V233.583C282.539 219.637 292.02 202.419 303.226 195.897C305.233 194.624 307.53 193.881 309.902 193.738C310.856 193.719 311.799 193.945 312.64 194.395C315.188 195.875 316.724 200.049 316.724 205.525V242.776C316.787 243.403 317.015 244.001 317.384 244.512C317.754 245.022 318.251 245.425 318.827 245.681C320.395 246.482 322.13 246.9 323.89 246.9C325.65 246.9 327.386 246.482 328.953 245.681C329.529 245.425 330.026 245.022 330.396 244.512C330.765 244.001 330.993 243.403 331.056 242.776V205.558C331.056 194.706 326.961 186.103 319.806 181.974C316.804 180.248 313.398 179.349 309.936 179.369H309.914Z" fill="#E0E0E0"/>
<path d="M302.603 180.57C301.861 180.926 301.119 181.327 300.377 181.772C284.798 190.787 272.557 212.813 272.557 231.857V267.082C272.614 267.714 272.839 268.319 273.209 268.834C273.579 269.349 274.08 269.755 274.661 270.01C276.709 271.087 279.05 271.477 281.337 271.123C281.08 271.359 280.797 271.565 280.492 271.735C278.923 272.538 277.185 272.956 275.423 272.956C273.66 272.956 271.923 272.538 270.354 271.735C269.771 271.483 269.268 271.078 268.898 270.562C268.527 270.047 268.304 269.44 268.251 268.808V233.582C268.251 214.505 280.492 192.49 296.071 183.497C298.126 182.27 300.318 181.287 302.603 180.57Z" fill="#E0E0E0"/>
<path d="M243.615 357.579V20.8463C243.615 12.1762 239.308 9.79439 235.48 7.57955C231.652 5.36472 225.376 4.04027 219.901 7.17888L80.9147 87.514C75.4844 90.6526 71.0889 98.2765 71.0889 104.543V441.231C71.0889 447.497 75.017 451.192 78.8783 453.407C82.7397 455.622 89.3608 458.026 94.7911 454.898L233.778 374.663C236.863 373.035 239.424 370.567 241.165 367.543C242.906 364.52 243.755 361.065 243.615 357.579Z" fill="#62481A" fill-opacity="0.980392"/>
<path d="M234.768 360.773L91.8085 443.323V105.132L73.9149 94.8037C72.1468 97.7332 71.1584 101.067 71.0439 104.487V441.231C71.0439 447.497 74.9721 451.192 78.8334 453.407C82.6948 455.622 89.3158 458.026 94.7462 454.898L233.777 374.663C237.637 372.59 240.648 369.231 242.29 365.169L241.734 364.847L234.768 360.773Z" fill="#FFA911" fill-opacity="0.980392"/>
<path d="M233.521 17.9303L94.0897 98.4546C92.0835 99.7642 90.4137 101.528 89.2152 103.602C88.0166 105.677 87.323 108.005 87.1904 110.397V444.392C87.1904 451.125 91.9754 453.886 97.8064 450.513L233.566 372.148C235.831 370.655 237.715 368.652 239.068 366.3C240.421 363.948 241.204 361.312 241.355 358.603V22.4824C241.344 17.474 237.817 15.4484 233.521 17.9303Z" fill="#1F1607" fill-opacity="0.980392"/>
<path d="M234.534 38.4087V350.623C234.399 353.207 233.657 355.723 232.367 357.966C231.077 360.209 229.277 362.117 227.111 363.533L101.423 436.089C97.3165 438.47 93.9893 436.556 93.9893 431.804V117.297C94.2211 113.031 96.0908 109.02 99.2082 106.1C99.4419 105.889 99.6645 105.666 99.9093 105.466C100.389 105.086 100.895 104.74 101.423 104.431L136.776 84.0187L139.079 82.6832C140.348 81.9486 141.383 82.5385 141.383 84.0187C141.383 85.499 142.495 86.0444 143.842 85.2542L185.015 61.4586C185.715 61.0191 186.302 60.4217 186.729 59.7142C187.156 59.0068 187.411 58.2091 187.474 57.3851C187.526 56.6267 187.742 55.8886 188.107 55.2218C188.472 54.555 188.978 53.9754 189.588 53.523L189.822 53.3783L224.407 33.4114L225.142 32.9885C230.316 29.9946 234.534 32.4431 234.534 38.4087Z" fill="black"/>
<path d="M216.295 355.165C218.456 353.752 220.254 351.85 221.543 349.612C222.833 347.375 223.578 344.866 223.717 342.288V33.791L189.778 53.3795L189.544 53.5242C188.941 53.981 188.444 54.5625 188.087 55.2291C187.73 55.8956 187.521 56.6314 187.474 57.3862C187.411 58.2102 187.156 59.008 186.729 59.7154C186.302 60.4228 185.715 61.0203 185.015 61.4598L143.842 85.2553C142.484 86.0456 141.383 85.4779 141.383 84.0199C141.383 82.5619 140.348 81.9498 139.079 82.6843L136.776 84.0199L101.423 104.432C100.895 104.741 100.389 105.087 99.9093 105.467C99.6645 105.667 99.4419 105.89 99.2082 106.102C96.0908 109.021 94.2211 113.033 93.9893 117.298V425.861L216.295 355.165Z" fill="#FFA911" fill-opacity="0.980392"/>
<path d="M150.096 72.6892L169.013 61.7819C170.126 61.1253 171.05 61.5927 171.05 62.817C170.993 63.4935 170.779 64.1473 170.425 64.7268C170.072 65.3064 169.588 65.7956 169.013 66.156L150.096 77.0632C148.983 77.7087 148.06 77.2524 148.06 76.0281C148.117 75.3517 148.33 74.6978 148.684 74.1183C149.037 73.5388 149.521 73.0495 150.096 72.6892Z" fill="#FFA911" fill-opacity="0.980392"/>
<path d="M178.683 55.2373C179.952 54.5139 180.976 55.1038 180.976 56.5729C180.933 57.3689 180.703 58.1437 180.305 58.8341C179.907 59.5245 179.351 60.1112 178.683 60.5463C177.415 61.2808 176.38 60.691 176.38 59.2218C176.425 58.4237 176.657 57.6474 177.058 56.9554C177.458 56.2634 178.014 55.6749 178.683 55.2373Z" fill="#FFA911" fill-opacity="0.980392"/>
<path d="M83.9855 144.888C83.9364 143.585 83.5815 142.311 82.9494 141.171C82.3173 140.03 81.4257 139.054 80.3467 138.322C79.9912 138.06 79.5702 137.901 79.1302 137.864C78.6903 137.827 78.2486 137.912 77.8541 138.11C77.3978 138.388 75.6285 139.39 75.1278 139.668C74.7348 139.966 74.4258 140.36 74.2307 140.812C74.0357 141.265 73.9613 141.76 74.015 142.25V169.685C74.0619 170.989 74.4147 172.264 75.0449 173.407C75.675 174.549 76.5649 175.528 77.6426 176.263C77.9878 176.508 78.3901 176.66 78.811 176.705C79.2319 176.75 79.6572 176.686 80.0463 176.519C80.547 176.252 82.3831 175.195 82.8505 174.905C83.2459 174.61 83.5569 174.216 83.7522 173.763C83.9475 173.31 84.0203 172.813 83.9633 172.323L83.9855 144.888Z" fill="white"/>
<path d="M81.2811 146.502V173.882C81.2811 176.353 79.6453 177.421 77.6423 176.264C76.5645 175.528 75.6747 174.55 75.0445 173.407C74.4144 172.265 74.0616 170.99 74.0146 169.686V142.251C74.0146 139.78 75.6393 138.712 77.6423 139.88C78.7287 140.618 79.6249 141.603 80.2574 142.754C80.8899 143.905 81.2407 145.19 81.2811 146.502Z" fill="black"/>
<path d="M83.9855 192.913C83.9364 191.609 83.5815 190.334 82.9495 189.191C82.3175 188.048 81.4259 187.07 80.3467 186.336C79.9891 186.078 79.5677 185.923 79.1283 185.888C78.6889 185.852 78.2483 185.938 77.8541 186.135C77.3978 186.414 75.6285 187.404 75.1278 187.694C74.7348 187.991 74.4258 188.385 74.2307 188.838C74.0357 189.29 73.9613 189.786 74.015 190.276V217.733C74.0628 219.037 74.416 220.311 75.046 221.454C75.6761 222.596 76.5655 223.575 77.6426 224.311C77.9878 224.556 78.3901 224.708 78.811 224.753C79.2319 224.798 79.6572 224.733 80.0463 224.567C80.547 224.3 82.3831 223.242 82.8505 222.953C83.2451 222.657 83.5554 222.263 83.7506 221.81C83.9458 221.357 84.0191 220.861 83.9633 220.371L83.9855 192.913Z" fill="white"/>
<path d="M81.2811 194.473V221.908C81.2811 224.378 79.6453 225.447 77.6423 224.289C76.5652 223.553 75.6758 222.575 75.0457 221.432C74.4156 220.29 74.0625 219.015 74.0146 217.712V190.277C74.0146 187.806 75.6393 186.737 77.6423 187.895C78.7209 188.63 79.612 189.608 80.244 190.751C80.8759 191.893 81.2312 193.168 81.2811 194.473Z" fill="black"/>
<path d="M251.76 39.8225C249.979 38.7986 247.531 38.9433 244.827 40.5015L244.059 40.9466L207.849 61.8485L207.604 62.0043C206.972 62.4808 206.451 63.0887 206.076 63.7862C205.702 64.4837 205.483 65.2541 205.434 66.0444C205.366 66.9058 205.099 67.7394 204.652 68.4793C204.206 69.2192 203.594 69.845 202.864 70.3071L159.732 95.2157H159.632C159.651 94.9313 159.596 94.647 159.473 94.3899C159.35 94.1327 159.164 93.9112 158.931 93.7465C158.497 93.5017 156.884 92.5557 156.439 92.3108C156.165 92.184 155.863 92.1336 155.563 92.1649C155.263 92.1963 154.977 92.3082 154.736 92.4889L152.321 93.8801L115.321 115.338C114.765 115.67 114.233 116.042 113.73 116.451L112.996 117.119C109.74 120.18 107.787 124.377 107.543 128.839V455.911C107.543 458.393 108.411 460.129 109.769 460.942L112.272 462.389C113.686 463.201 115.611 463.079 117.758 461.832L249.389 385.793C251.654 384.316 253.54 382.326 254.893 379.984C256.246 377.643 257.029 375.015 257.179 372.315V47.6134C257.179 44.4971 256.066 42.3045 254.308 41.2694L251.76 39.8225Z" fill="#FFA80F" fill-opacity="0.980392"/>
<path opacity="0.3" d="M118.549 460.742V461.388L117.803 461.811C115.667 463.057 113.73 463.169 112.317 462.367L109.813 460.92C108.411 460.097 107.588 458.372 107.588 455.89V128.762C107.704 125.801 108.632 122.928 110.27 120.459L113.241 122.162C111.659 124.554 110.759 127.332 110.637 130.198V457.325C110.576 458.665 110.968 459.987 111.75 461.076C112.069 461.477 112.475 461.798 112.939 462.016C113.402 462.234 113.909 462.343 114.42 462.334C115.557 462.284 116.662 461.939 117.625 461.332L118.549 460.742Z" fill="black"/>
<path opacity="0.3" d="M209.385 64.9644C208.847 65.696 208.541 66.5722 208.506 67.4797C208.463 68.5146 208.131 69.5168 207.549 70.3735L204.556 68.6484C205.1 67.8842 205.417 66.981 205.468 66.044C205.515 65.0356 205.851 64.062 206.436 63.2393L209.385 64.9644Z" fill="black"/>
<path d="M114.331 462.333C113.82 462.344 113.314 462.237 112.851 462.021C112.388 461.804 111.981 461.485 111.661 461.087C110.88 459.992 110.489 458.668 110.548 457.325V130.197C110.801 125.89 112.687 121.841 115.822 118.878L116.145 118.677L116.635 118.243C117.106 117.866 117.604 117.524 118.126 117.219L155.093 95.839C155.093 95.839 156.205 95.2046 157.507 94.4478C157.748 94.2955 158.024 94.2074 158.309 94.1918C159.01 94.1918 159.087 95.0043 159.087 95.3048C159.053 95.5801 159.077 95.8596 159.157 96.1251C159.238 96.3907 159.373 96.6363 159.555 96.8461C159.736 97.056 159.96 97.2254 160.211 97.3433C160.462 97.4613 160.735 97.5251 161.013 97.5308C161.541 97.5115 162.055 97.3542 162.504 97.0744L205.624 72.177C206.44 71.6767 207.127 70.9904 207.628 70.1742C208.129 69.358 208.43 68.4349 208.506 67.4802C208.551 66.7796 208.746 66.0968 209.078 65.4784C209.41 64.86 209.872 64.3204 210.431 63.8964L210.643 63.7629L246.842 42.8722L247.62 42.4159C248.854 41.6507 250.265 41.2175 251.715 41.1582C254.742 41.1582 256.634 43.629 256.634 47.6135V372.348C256.493 374.952 255.74 377.486 254.437 379.745C253.134 382.003 251.317 383.923 249.134 385.348L117.536 461.331C116.573 461.938 115.468 462.283 114.331 462.333Z" fill="#FAFAFA"/>
<path d="M251.693 41.1582C250.242 41.2175 248.832 41.6507 247.598 42.4159L246.819 42.8722L210.62 63.774C210.549 63.8065 210.481 63.8477 210.42 63.8964C209.861 64.3205 209.401 64.8603 209.071 65.4789C208.741 66.0975 208.548 66.7802 208.506 67.4802C208.443 68.4418 208.151 69.3744 207.656 70.2008C207.16 71.0273 206.475 71.7238 205.657 72.2327L162.526 97.1301C162.078 97.4113 161.563 97.5688 161.035 97.5864C160.757 97.5808 160.484 97.5169 160.233 97.399C159.982 97.281 159.758 97.1116 159.577 96.9018C159.395 96.6919 159.26 96.4463 159.18 96.1808C159.099 95.9153 159.075 95.6358 159.11 95.3605C159.11 95.0043 159.032 94.2475 158.331 94.2475C158.046 94.263 157.77 94.3511 157.529 94.5035L155.092 95.839L118.081 117.208C117.56 117.512 117.061 117.855 116.59 118.232L116.145 118.677L115.911 118.9C112.757 121.846 110.85 125.888 110.581 130.197V149.841L256.612 65.4435V47.6358C256.612 43.629 254.731 41.1582 251.693 41.1582Z" fill="#CE8B15" fill-opacity="0.980392"/>
<g opacity="0.3">
<path d="M249.258 40.9629C247.807 41.0222 246.396 41.4554 245.162 42.2206L244.384 42.6769L208.185 63.5787C208.113 63.6112 208.046 63.6523 207.984 63.7011C207.426 64.1252 206.966 64.665 206.635 65.2836C206.305 65.9021 206.112 66.5849 206.07 67.2849C206.007 68.2464 205.716 69.1791 205.22 70.0055C204.725 70.832 204.04 71.5285 203.222 72.0374L181.656 84.4861L160.09 96.9348C159.642 97.216 159.128 97.3734 158.599 97.3911C158.322 97.3855 158.049 97.3216 157.798 97.2036C157.546 97.0857 157.323 96.9163 157.141 96.7065C156.96 96.4966 156.825 96.251 156.744 95.9855C156.663 95.72 156.64 95.4405 156.674 95.1651C156.674 94.809 156.596 94.0522 155.895 94.0522C155.61 94.0677 155.335 94.1558 155.094 94.3081L152.657 95.6437L115.646 117.013C115.124 117.317 114.626 117.659 114.155 118.037L113.709 118.482L113.476 118.705C110.321 121.651 108.414 125.693 108.146 130.002V149.646L254.176 65.2482V47.4404C254.176 43.4337 252.295 40.9629 249.258 40.9629Z" fill="white"/>
</g>
<path d="M121.119 130.308C121.116 130.385 121.097 130.461 121.063 130.53C121.027 130.589 120.982 130.641 120.93 130.686L120.629 130.853C120.57 130.853 120.525 130.853 120.496 130.853C120.473 130.837 120.454 130.815 120.442 130.79C120.431 130.764 120.426 130.736 120.429 130.708V125.355L119.316 127.213C119.286 127.277 119.235 127.328 119.172 127.358C119.172 127.358 119.083 127.358 119.049 127.358L118.871 127.158C118.852 127.104 118.852 127.045 118.871 126.991C118.88 126.912 118.907 126.836 118.949 126.768L120.496 124.297C120.531 124.248 120.572 124.203 120.618 124.164L120.729 124.086L121.03 123.919C121.048 123.903 121.072 123.894 121.097 123.894C121.121 123.894 121.145 123.903 121.163 123.919C121.183 123.937 121.198 123.96 121.208 123.985C121.217 124.01 121.221 124.037 121.219 124.064L121.119 130.308Z" fill="#FAFAFA"/>
<path d="M124.157 128.55C124.177 128.623 124.177 128.7 124.157 128.773C124.128 128.836 124.082 128.89 124.023 128.928L123.723 129.095C123.723 129.095 123.623 129.095 123.589 129.095C123.556 129.095 123.589 129.018 123.589 128.951V123.642L122.421 125.5C122.388 125.562 122.338 125.612 122.276 125.645C122.257 125.66 122.234 125.667 122.21 125.667C122.185 125.667 122.162 125.66 122.143 125.645L121.965 125.445C121.952 125.419 121.945 125.39 121.945 125.361C121.945 125.332 121.952 125.304 121.965 125.278C121.971 125.2 121.994 125.124 122.031 125.055L123.578 122.584C123.613 122.535 123.654 122.49 123.701 122.451L123.812 122.373L124.112 122.206C124.172 122.206 124.216 122.206 124.246 122.206C124.246 122.206 124.246 122.284 124.246 122.351L124.157 128.55Z" fill="#FAFAFA"/>
<path d="M125.87 123.295C125.89 123.282 125.913 123.275 125.937 123.275C125.96 123.275 125.984 123.282 126.004 123.295C126.014 123.32 126.019 123.346 126.019 123.373C126.019 123.4 126.014 123.426 126.004 123.451V124.097C126.019 124.166 126.019 124.238 126.004 124.308C125.974 124.371 125.928 124.425 125.87 124.464L125.38 124.742C125.361 124.755 125.337 124.762 125.314 124.762C125.29 124.762 125.267 124.755 125.247 124.742C125.226 124.723 125.21 124.698 125.2 124.671C125.19 124.644 125.187 124.615 125.191 124.586V123.941C125.189 123.866 125.208 123.793 125.247 123.729C125.258 123.696 125.275 123.665 125.298 123.638C125.321 123.611 125.349 123.589 125.38 123.573L125.87 123.295ZM125.87 126.634C125.89 126.621 125.913 126.614 125.937 126.614C125.96 126.614 125.984 126.621 126.004 126.634C126.014 126.659 126.019 126.685 126.019 126.712C126.019 126.739 126.014 126.765 126.004 126.79V127.435C126.019 127.505 126.019 127.577 126.004 127.647C125.974 127.71 125.928 127.764 125.87 127.803L125.38 128.081C125.361 128.094 125.337 128.101 125.314 128.101C125.29 128.101 125.267 128.094 125.247 128.081C125.247 128.081 125.191 128.003 125.191 127.925V127.28C125.189 127.205 125.208 127.132 125.247 127.068C125.258 127.035 125.275 127.004 125.298 126.977C125.321 126.95 125.349 126.928 125.38 126.912L125.87 126.634Z" fill="#FAFAFA"/>
<path d="M127.539 125.111C127.554 125.222 127.601 125.326 127.674 125.411C127.747 125.496 127.844 125.558 127.951 125.589C128.207 125.635 128.47 125.579 128.686 125.434C128.852 125.335 129.005 125.215 129.142 125.077C129.281 124.939 129.401 124.781 129.498 124.61C129.608 124.429 129.694 124.234 129.754 124.031C129.812 123.813 129.842 123.589 129.843 123.363C129.847 123.174 129.817 122.986 129.754 122.807C129.706 122.68 129.616 122.573 129.498 122.506C129.383 122.467 129.257 122.467 129.142 122.506C128.981 122.536 128.827 122.592 128.686 122.673C128.526 122.768 128.38 122.884 128.252 123.018C128.152 123.117 128.063 123.225 127.985 123.341L127.795 123.619C127.747 123.699 127.683 123.767 127.606 123.82L127.239 124.031C127.223 124.042 127.203 124.048 127.183 124.048C127.164 124.048 127.144 124.042 127.128 124.031C127.118 124.012 127.113 123.991 127.113 123.97C127.113 123.949 127.118 123.928 127.128 123.909L127.339 120.57C127.325 120.5 127.325 120.428 127.339 120.358C127.372 120.294 127.422 120.24 127.484 120.203L130.032 118.733C130.032 118.733 130.132 118.733 130.166 118.733C130.199 118.733 130.166 118.811 130.166 118.878V119.223C130.185 119.296 130.185 119.373 130.166 119.446C130.137 119.509 130.09 119.563 130.032 119.602L127.929 120.815L127.806 122.54C127.896 122.451 128.007 122.328 128.151 122.206C128.309 122.058 128.485 121.931 128.674 121.827C128.892 121.694 129.134 121.607 129.387 121.572C129.589 121.534 129.798 121.569 129.976 121.672C130.156 121.788 130.293 121.96 130.366 122.161C130.474 122.438 130.523 122.733 130.511 123.03C130.513 123.376 130.464 123.721 130.366 124.053C130.28 124.385 130.149 124.703 129.976 124.999C129.812 125.285 129.614 125.551 129.387 125.79C129.179 126.01 128.938 126.198 128.674 126.346C128.465 126.481 128.23 126.572 127.985 126.613C127.795 126.664 127.595 126.664 127.406 126.613C127.24 126.536 127.101 126.412 127.005 126.257C126.9 126.054 126.847 125.829 126.849 125.6C126.835 125.542 126.835 125.481 126.849 125.422C126.878 125.374 126.916 125.333 126.961 125.3L127.295 125.111C127.312 125.101 127.331 125.096 127.35 125.096C127.37 125.096 127.389 125.101 127.406 125.111C127.427 125.1 127.449 125.094 127.473 125.094C127.496 125.094 127.519 125.1 127.539 125.111Z" fill="#FAFAFA"/>
<path d="M131.824 122.762C131.846 122.851 131.879 122.937 131.924 123.017C131.968 123.089 132.035 123.144 132.113 123.173C132.226 123.207 132.346 123.207 132.458 123.173C132.822 123.063 133.156 122.872 133.438 122.617C133.571 122.485 133.691 122.34 133.794 122.183C133.896 122.02 133.975 121.844 134.027 121.66C134.096 121.471 134.13 121.271 134.127 121.07C134.133 120.906 134.103 120.742 134.038 120.591C134.016 120.542 133.984 120.497 133.944 120.461C133.904 120.424 133.856 120.397 133.805 120.38C133.688 120.347 133.565 120.347 133.449 120.38C133.298 120.432 133.152 120.499 133.015 120.58L132.414 120.925C132.394 120.942 132.368 120.952 132.341 120.952C132.315 120.952 132.289 120.942 132.269 120.925C132.25 120.907 132.234 120.884 132.225 120.859C132.215 120.834 132.211 120.807 132.213 120.78V120.435C132.198 120.373 132.198 120.308 132.213 120.246C132.233 120.188 132.259 120.132 132.291 120.079L133.593 117.453L131.557 118.677C131.537 118.694 131.511 118.704 131.485 118.704C131.458 118.704 131.432 118.694 131.412 118.677C131.393 118.659 131.378 118.636 131.368 118.611C131.358 118.586 131.354 118.559 131.357 118.532V118.187C131.359 118.11 131.378 118.034 131.412 117.965C131.449 117.903 131.498 117.849 131.557 117.809L134.395 116.173C134.416 116.159 134.441 116.151 134.467 116.151C134.493 116.151 134.518 116.159 134.539 116.173C134.577 116.216 134.597 116.271 134.595 116.328V116.674C134.605 116.736 134.605 116.8 134.595 116.863C134.566 116.935 134.533 117.006 134.495 117.074L133.215 119.656C133.42 119.536 133.647 119.457 133.883 119.423C134.06 119.396 134.24 119.432 134.395 119.523C134.545 119.628 134.661 119.775 134.728 119.946C134.811 120.185 134.849 120.438 134.84 120.691C134.841 121.02 134.792 121.346 134.695 121.66C134.523 122.272 134.193 122.828 133.738 123.273C133.538 123.49 133.305 123.674 133.048 123.819C132.793 123.982 132.51 124.095 132.213 124.153C132.019 124.189 131.819 124.17 131.635 124.097C131.484 124.02 131.362 123.895 131.29 123.741C131.21 123.566 131.172 123.376 131.179 123.184C131.164 123.126 131.164 123.065 131.179 123.006C131.203 122.956 131.242 122.914 131.29 122.884L131.624 122.695C131.641 122.681 131.663 122.674 131.685 122.674C131.707 122.674 131.729 122.681 131.746 122.695C131.778 122.708 131.806 122.732 131.824 122.762Z" fill="#FAFAFA"/>
<path d="M143.096 111.41L140.871 119.012V115.673L138.4 117.142L143.108 111.41M143.108 110.853C143.008 110.854 142.911 110.885 142.829 110.942C142.787 110.97 142.749 111.003 142.718 111.043L138.022 116.763C137.955 116.846 137.913 116.946 137.901 117.052C137.888 117.158 137.905 117.265 137.95 117.361C137.996 117.457 138.067 117.539 138.156 117.597C138.246 117.654 138.35 117.686 138.456 117.687C138.553 117.686 138.648 117.664 138.734 117.62L140.37 116.674V119C140.369 119.135 140.417 119.266 140.505 119.369C140.593 119.471 140.715 119.538 140.849 119.557H140.938C141.059 119.556 141.178 119.516 141.274 119.441C141.371 119.367 141.44 119.263 141.472 119.145L143.697 111.599C143.714 111.53 143.714 111.457 143.697 111.388C143.697 111.314 143.683 111.24 143.654 111.172C143.625 111.104 143.583 111.042 143.53 110.99C143.478 110.938 143.415 110.898 143.346 110.87C143.277 110.843 143.204 110.83 143.13 110.831L143.108 110.853Z" fill="#FAFAFA"/>
<path d="M220.346 73.1896L219.133 73.8908V71.5313L220.346 70.8301V73.1896Z" fill="#FAFAFA"/>
<path d="M222.259 72.0885L221.058 72.7897V69.3951L222.259 68.7051V72.0885Z" fill="#FAFAFA"/>
<path d="M224.185 70.9749L222.972 71.6761V67.0127L224.185 66.3115V70.9749Z" fill="#FAFAFA"/>
<path d="M226.099 69.8728L224.886 70.574V64.6641L226.099 63.9629V69.8728Z" fill="#865F1C" fill-opacity="0.980392"/>
<path d="M234.523 58.9433C233.157 59.8306 232.054 61.0682 231.329 62.5271L232.13 63.1615C232.664 62.0632 233.493 61.1347 234.523 60.4792C234.871 60.2252 235.286 60.081 235.717 60.0651C236.147 60.0492 236.572 60.1624 236.938 60.3901L237.739 58.832C237.252 58.53 236.686 58.3794 236.114 58.3992C235.541 58.419 234.988 58.6084 234.523 58.9433ZM232.442 63.3952L233.165 63.9739C233.474 63.354 233.943 62.8277 234.523 62.4492C234.725 62.3128 234.963 62.2399 235.207 62.2399C235.451 62.2399 235.689 62.3128 235.892 62.4492L236.626 61.0134C236.308 60.8137 235.937 60.7143 235.562 60.7282C235.187 60.7421 234.825 60.8687 234.523 61.0913C233.629 61.661 232.909 62.4658 232.442 63.4175V63.3952ZM233.555 64.2522L234.567 65.0647L235.591 63.0613C235.44 62.9589 235.262 62.9042 235.079 62.9042C234.897 62.9042 234.718 62.9589 234.567 63.0613C234.103 63.3527 233.735 63.7748 233.51 64.2745L233.555 64.2522Z" fill="#FAFAFA"/>
<path d="M249.122 50.674C249.556 50.4291 249.912 50.674 249.912 51.2638V55.0814C249.907 55.3761 249.832 55.6654 249.695 55.9262C249.558 56.1871 249.362 56.4123 249.122 56.5839L242.323 60.5127C241.889 60.7576 241.533 60.5127 241.533 59.9117V56.1053C241.538 55.8105 241.612 55.5208 241.749 55.2598C241.886 54.9988 242.083 54.7738 242.323 54.6028L249.122 50.674ZM249.122 50.3512L242.323 54.28C242.009 54.5022 241.751 54.7953 241.571 55.1357C241.392 55.476 241.294 55.854 241.288 56.2389V60.0564C241.288 60.8132 241.755 61.1694 242.323 60.8355L249.122 56.9067C249.435 56.6809 249.692 56.3854 249.871 56.0436C250.051 55.7017 250.149 55.3228 250.157 54.9367V51.1303C250.157 50.3735 249.69 50.0173 249.122 50.3512Z" fill="#865F1C" fill-opacity="0.980392"/>
<path d="M246.34 57.2185L242.501 59.4444C242.334 59.5446 242.189 59.4444 242.189 59.1996V56.0387C242.192 55.9198 242.221 55.803 242.275 55.697C242.329 55.591 242.406 55.4986 242.501 55.4266L246.34 53.2006C246.507 53.1004 246.652 53.2006 246.652 53.4454V56.6063C246.651 56.7255 246.622 56.8429 246.568 56.9492C246.514 57.0554 246.436 57.1476 246.34 57.2185Z" fill="#FAFAFA"/>
<path d="M250.88 53.6449L250.613 53.8008V51.7417L250.88 51.5859C251.036 51.4969 251.159 51.8864 251.159 52.454C251.159 53.0217 251.036 53.5559 250.88 53.6449Z" fill="#865F1C" fill-opacity="0.980392"/>
<path d="M251.693 41.7038C254.419 41.7038 256.055 43.9298 256.055 47.6137V372.349C255.903 374.853 255.171 377.287 253.918 379.46C252.665 381.633 250.924 383.485 248.833 384.87L117.257 460.853C116.381 461.407 115.377 461.725 114.342 461.777C112.339 461.777 111.148 460.118 111.148 457.325V130.197C111.397 126.048 113.22 122.151 116.245 119.301L116.489 119.067L116.923 118.678C117.382 118.314 117.865 117.983 118.37 117.687L155.381 96.3179C155.381 96.3179 156.494 95.6835 157.796 94.9266C157.951 94.8203 158.131 94.7552 158.319 94.7374C158.542 94.7374 158.542 95.2939 158.542 95.3607C158.508 95.7088 158.546 96.0601 158.655 96.3924C158.764 96.7247 158.941 97.0308 159.174 97.2913C159.407 97.5518 159.692 97.761 160.01 97.9057C160.329 98.0505 160.673 98.1275 161.023 98.132C161.645 98.1163 162.252 97.9358 162.781 97.6089L205.924 72.7115C206.823 72.1503 207.575 71.3832 208.119 70.4736C208.662 69.564 208.982 68.538 209.051 67.4805C209.095 66.8687 209.268 66.2732 209.557 65.7324C209.847 65.1917 210.247 64.718 210.731 64.3419L210.898 64.2417L247.108 43.3399L247.876 42.8947C249.023 42.1724 250.338 41.7619 251.693 41.7038ZM251.693 40.5908C250.143 40.6476 248.636 41.108 247.319 41.9264L246.54 42.3716L210.342 63.2845L210.097 63.4404C209.454 63.9113 208.922 64.5168 208.538 65.2146C208.153 65.9124 207.926 66.6857 207.871 67.4805C207.805 68.3438 207.538 69.1796 207.091 69.9216C206.645 70.6635 206.032 71.2911 205.301 71.7543L162.169 96.6518C161.804 96.8806 161.386 97.011 160.956 97.0302C160.144 97.0302 159.588 96.418 159.588 95.3607C159.588 94.3034 159.042 93.6356 158.252 93.6356C157.857 93.6408 157.472 93.7564 157.139 93.9695L154.725 95.3607L117.714 116.73C117.162 117.065 116.634 117.436 116.133 117.843L115.399 118.511C112.143 121.571 110.19 125.768 109.946 130.23V457.325C109.946 460.853 111.693 462.89 114.242 462.89C115.477 462.835 116.676 462.451 117.714 461.777L249.389 385.794C251.654 384.316 253.539 382.326 254.893 379.985C256.246 377.643 257.029 375.016 257.179 372.315V47.6137C257.179 43.1618 254.953 40.602 251.715 40.602L251.693 40.5908Z" fill="#865F1C" fill-opacity="0.980392"/>
<path d="M240.565 125.534L126.627 191.323C125.681 191.868 124.902 191.323 124.902 190.009V189.664C124.906 189.011 125.064 188.368 125.364 187.788C125.664 187.208 126.097 186.707 126.627 186.325L240.565 120.537C241.522 119.981 242.29 120.537 242.29 121.839V122.184C242.287 122.839 242.129 123.484 241.829 124.066C241.53 124.649 241.096 125.152 240.565 125.534Z" fill="#E0E0E0"/>
<path d="M240.565 161.572L126.627 227.36C125.681 227.917 124.902 227.36 124.902 226.058V225.713C124.908 225.06 125.067 224.418 125.367 223.838C125.666 223.258 126.098 222.757 126.627 222.374L240.565 156.586C241.522 156.029 242.29 156.586 242.29 157.888V158.233C242.287 158.886 242.129 159.53 241.829 160.11C241.529 160.691 241.096 161.192 240.565 161.572Z" fill="#E0E0E0"/>
<path d="M240.565 177.32L126.627 243.108C125.681 243.665 124.902 243.109 124.902 241.806V241.461C124.908 240.808 125.067 240.166 125.367 239.586C125.666 239.006 126.098 238.505 126.627 238.122L240.565 172.334C241.522 171.777 242.29 172.334 242.29 173.636V173.981C242.285 174.634 242.127 175.277 241.827 175.857C241.527 176.437 241.095 176.938 240.565 177.32Z" fill="#E0E0E0"/>
<path d="M240.565 321.24L126.627 387.051C125.681 387.607 124.902 387.051 124.902 385.749V385.404C124.91 384.751 125.069 384.109 125.369 383.53C125.668 382.95 126.099 382.448 126.627 382.065L240.565 316.276C241.522 315.731 242.29 316.276 242.29 317.59V317.935C242.283 318.583 242.124 319.22 241.824 319.794C241.524 320.369 241.093 320.864 240.565 321.24Z" fill="#E0E0E0"/>
<path d="M240.565 337.01L126.627 402.799C125.681 403.355 124.902 402.799 124.902 401.497V401.152C124.91 400.499 125.069 399.857 125.369 399.278C125.668 398.698 126.099 398.196 126.627 397.813L240.565 332.024C241.522 331.479 242.29 332.024 242.29 333.338V333.683C242.287 334.334 242.129 334.976 241.829 335.555C241.529 336.134 241.096 336.632 240.565 337.01Z" fill="#E0E0E0"/>
<path d="M240.565 193.069L126.627 258.913C125.681 259.459 124.902 258.913 124.902 257.611V257.266C124.907 256.613 125.066 255.97 125.365 255.39C125.665 254.81 126.097 254.309 126.627 253.927L240.565 188.139C241.522 187.582 242.29 188.139 242.29 189.441V189.786C242.276 190.429 242.114 191.061 241.814 191.631C241.515 192.201 241.087 192.693 240.565 193.069Z" fill="#E0E0E0"/>
<path d="M229.438 146.001L137.755 198.957C136.798 199.502 136.02 198.957 136.02 197.643V197.298C136.023 196.644 136.182 196 136.484 195.419C136.786 194.838 137.222 194.338 137.755 193.96L229.438 141.004C230.395 140.458 231.174 141.004 231.174 142.317V142.662C231.17 143.317 231.011 143.961 230.709 144.542C230.407 145.122 229.971 145.623 229.438 146.001Z" fill="#E0E0E0"/>
<path d="M240.565 229.887L126.627 295.642C125.681 296.198 124.902 295.642 124.902 294.34V293.994C124.908 293.342 125.067 292.699 125.367 292.119C125.666 291.539 126.098 291.038 126.627 290.656L240.565 224.867C241.522 224.311 242.29 224.867 242.29 226.169V226.637C242.273 227.275 242.109 227.901 241.809 228.465C241.51 229.028 241.084 229.515 240.565 229.887Z" fill="#E0E0E0"/>
<path d="M240.565 245.981L126.627 311.769C125.681 312.314 124.902 311.769 124.902 310.467V310.111C124.908 309.458 125.067 308.816 125.367 308.235C125.666 307.655 126.098 307.154 126.627 306.772L240.565 240.983C241.522 240.427 242.29 240.983 242.29 242.286V242.631C242.289 243.286 242.132 243.931 241.832 244.514C241.532 245.096 241.098 245.599 240.565 245.981Z" fill="#E0E0E0"/>
<path d="M240.565 213.915L134.139 275.374C133.193 275.919 132.414 275.374 132.414 274.061V273.716C132.418 273.063 132.576 272.42 132.876 271.839C133.176 271.259 133.608 270.758 134.139 270.377L240.565 208.918C241.522 208.373 242.29 208.918 242.29 210.231V210.565C242.29 211.22 242.133 211.866 241.833 212.449C241.533 213.032 241.099 213.534 240.565 213.915Z" fill="#E0E0E0"/>
<path d="M126.505 279.76C125.626 280.272 124.902 279.76 124.902 278.547V277.89C124.913 277.29 125.063 276.701 125.341 276.17C125.619 275.638 126.018 275.179 126.505 274.829C127.384 274.317 128.107 274.829 128.107 276.042V276.721C128.093 277.317 127.942 277.902 127.663 278.429C127.385 278.956 126.989 279.412 126.505 279.76Z" fill="#865F1C" fill-opacity="0.980392"/>
<path d="M240.565 283.166L126.627 348.954C125.681 349.5 124.902 348.954 124.902 347.641V347.307C124.907 346.654 125.066 346.011 125.365 345.431C125.665 344.851 126.097 344.35 126.627 343.968L240.565 278.18C241.522 277.623 242.29 278.18 242.29 279.482V279.827C242.285 280.48 242.127 281.123 241.827 281.703C241.527 282.283 241.095 282.784 240.565 283.166Z" fill="#E0E0E0"/>
<path d="M240.565 299.258L126.627 365.047C125.681 365.592 124.902 365.047 124.902 363.733V363.388C124.906 362.735 125.064 362.092 125.364 361.512C125.664 360.932 126.097 360.431 126.627 360.05L240.565 294.306C241.522 293.749 242.29 294.306 242.29 295.608V295.953C242.28 296.6 242.119 297.236 241.819 297.81C241.52 298.384 241.09 298.88 240.565 299.258Z" fill="#E0E0E0"/>
<path d="M240.565 267.194L134.139 328.641C133.193 329.198 132.414 328.641 132.414 327.339V326.994C132.421 326.342 132.581 325.7 132.881 325.12C133.18 324.54 133.611 324.039 134.139 323.655L240.565 262.252C241.522 261.695 242.29 262.252 242.29 263.554V263.899C242.28 264.545 242.119 265.179 241.82 265.752C241.52 266.324 241.09 266.818 240.565 267.194Z" fill="#E0E0E0"/>
<path d="M126.505 333.026C125.626 333.538 124.902 333.026 124.902 331.824V331.156C124.914 330.558 125.065 329.972 125.344 329.442C125.622 328.913 126.019 328.456 126.505 328.107C127.384 327.595 128.107 328.107 128.107 329.309V329.977C128.098 330.575 127.948 331.163 127.669 331.692C127.391 332.222 126.992 332.679 126.505 333.026Z" fill="#865F1C" fill-opacity="0.980392"/>
<path d="M62.1079 21.0583C60.7886 20.3098 59.5309 19.4576 58.3467 18.5096C58.7584 17.4968 59.1034 16.5396 59.4595 15.627C61.8271 19.4257 65.0561 22.6132 68.8847 24.9315L62.1079 21.0583Z" fill="#A87214" fill-opacity="0.980392"/>
<path opacity="0.1" d="M62.1079 21.0583C60.7886 20.3098 59.5309 19.4576 58.3467 18.5096C58.7584 17.4968 59.1034 16.5396 59.4595 15.627C61.8271 19.4257 65.0561 22.6132 68.8847 24.9315L62.1079 21.0583Z" fill="black"/>
<path d="M109.112 30.5297C109.29 70.8086 109.624 125.133 63.9107 169.007L62.9204 169.953L61.5628 170.22C58.8148 170.772 56.0197 171.055 53.2169 171.066C46.1845 171.194 39.3244 168.885 33.7988 164.533C37.5847 165.996 41.6136 166.729 45.6722 166.692C48.4749 166.68 51.2699 166.396 54.0181 165.846L55.3534 165.59L56.3438 164.633C102.068 120.759 101.745 66.4346 101.545 26.1557C101.545 23.9965 101.545 21.9264 101.545 19.9453L109.079 14.002V23.607C109.079 25.7773 109.09 28.1034 109.112 30.5297Z" fill="#A87214" fill-opacity="0.980392"/>
<path opacity="0.2" d="M109.112 30.5297C109.29 70.8086 109.624 125.133 63.9107 169.007L62.9204 169.953L61.5628 170.22C58.8148 170.772 56.0197 171.055 53.2169 171.066C46.1845 171.194 39.3244 168.885 33.7988 164.533C37.5847 165.996 41.6136 166.729 45.6722 166.692C48.4749 166.68 51.2699 166.396 54.0181 165.846L55.3534 165.59L56.3438 164.633C102.068 120.759 101.745 66.4346 101.545 26.1557C101.545 23.9965 101.545 21.9264 101.545 19.9453L109.079 14.002V23.607C109.079 25.7773 109.09 28.1034 109.112 30.5297Z" fill="black"/>
<path opacity="0.1" d="M62.9203 169.953L63.9106 169.007C109.624 125.133 109.29 70.8195 109.112 30.5295C109.112 28.1032 109.112 25.7771 109.112 23.5845V13.9795L105.161 17.0958L101.578 19.9228V20.0119C101.578 21.9707 101.578 24.0186 101.578 26.1555C101.779 66.4344 102.101 120.759 56.3771 164.633L55.3867 165.59L62.9536 169.953H62.9203Z" fill="black"/>
<path d="M79.7901 23.8401C77.1083 23.8401 73.4028 22.7271 69.1074 19.0209C70.1206 19.3117 71.1691 19.4615 72.2232 19.4661C78.2879 19.4661 84.8088 16.8506 91.1405 11.8978L106.13 0L113.697 4.37402L98.6518 16.2829C92.3646 21.2135 85.8548 23.8401 79.7901 23.8401Z" fill="#A87214" fill-opacity="0.980392"/>
<path opacity="0.6" d="M79.7901 23.8401C77.1083 23.8401 73.4028 22.7271 69.1074 19.0209C70.1206 19.3117 71.1691 19.4615 72.2232 19.4661C78.2879 19.4661 84.8088 16.8506 91.1405 11.8978L106.13 0L113.697 4.37402L98.6518 16.2829C92.3646 21.2135 85.8548 23.8401 79.7901 23.8401Z" fill="#FFA80F" fill-opacity="0.980392"/>
<path d="M104.427 23.584L96.86 19.21C84.152 29.2268 71.8446 30.3398 63.0203 27.2457C62.1647 26.4987 61.3788 25.6754 60.6723 24.786L53.1165 20.412C46.0392 37.6521 28.1123 62.8611 9.31738 69.706C9.31738 100.725 7.09182 144.098 32.1072 158.555L39.6852 162.929C45.2491 166.135 52.1039 167.281 60.6278 165.612C107.687 120.514 104.427 61.481 104.427 23.584Z" fill="#030303" fill-opacity="0.980392"/>
<path d="M54.3628 74.6589L60.6723 24.7861L53.1165 20.4121C46.0392 37.6522 28.1123 62.8613 9.31738 69.7061L16.8843 74.069L54.3628 74.6589Z" fill="black"/>
<path d="M53.2283 164.543C49.9221 164.64 46.632 164.047 43.5669 162.804C40.5018 161.56 37.7287 159.693 35.4238 157.32C18.387 140.191 18.5873 109.851 18.732 81.1031C18.732 79.122 18.732 77.2077 18.732 75.3824C37.7383 67.6694 54.1519 43.5733 61.1847 28.1585C66.2784 32.7084 72.907 35.1582 79.7348 35.0145C87.3017 35.0145 95.1134 32.3434 102.513 27.2236C102.513 28.3366 102.513 29.4496 102.513 30.5626C102.792 69.7062 103.081 122.016 59.7826 163.92C57.6206 164.322 55.4272 164.53 53.2283 164.543Z" fill="#FAFAFA"/>
<path d="M100.722 30.6628C100.911 69.3723 101.178 120.814 58.8923 162.184C57.0215 162.508 55.1269 162.676 53.2282 162.685C50.1758 162.769 47.1392 162.219 44.3102 161.07C41.4812 159.92 38.9213 158.196 36.7924 156.007C20.301 139.435 20.5013 109.551 20.6348 81.092C20.6348 79.5561 20.6348 78.0647 20.6348 76.6401C38.7398 68.6266 54.3521 46.5895 61.8634 31.1636C67.0471 34.977 73.3338 36.9935 79.7681 36.9066C87.1795 36.7653 94.4138 34.615 100.7 30.685M104.405 23.6064C95.6697 30.4847 87.1236 33.1781 79.7681 33.1781C71.322 33.1781 64.4562 29.6388 60.6505 24.8085C53.5732 42.0263 35.6796 67.2354 16.9292 74.1581C16.9292 109.929 14.0249 166.469 53.2282 166.469C55.7288 166.457 58.2223 166.2 60.6727 165.701C107.688 120.569 104.427 61.5369 104.427 23.6398L104.405 23.6064Z" fill="#FFA80F" fill-opacity="0.980392"/>
<path d="M38.5388 137.91L87.0784 109.885L86.2772 102.896C85.7764 98.4437 84.0516 95.3719 81.4699 93.9139L74.7265 90.0184C72.2005 88.5604 68.9177 88.7162 65.368 90.7752L46.7511 101.516C39.6182 105.634 33.5758 116.118 32.5743 126.101L31.7842 134.015L38.5388 137.91Z" fill="#A87214" fill-opacity="0.980392"/>
<path opacity="0.3" d="M38.5388 137.91L87.0784 109.885L86.2772 102.896C85.7764 98.4437 84.0516 95.3719 81.4699 93.9139L74.7265 90.0184C72.2005 88.5604 68.9177 88.7162 65.368 90.7752L46.7511 101.516C39.6182 105.634 33.5758 116.118 32.5743 126.101L31.7842 134.015L38.5388 137.91Z" fill="black"/>
<path d="M86.2773 102.896C85.7765 98.4438 84.0517 95.3719 81.47 93.9139C78.8884 92.4559 75.6613 92.6117 72.1115 94.6708L53.4947 105.422C46.3729 109.529 40.3305 120.013 39.3623 130.008L38.5723 137.91L87.1119 109.885L86.2773 102.896Z" fill="#A87214" fill-opacity="0.980392"/>
<path d="M73.3135 64.1401C75.706 65.5202 77.1748 68.4807 77.1748 72.6989C77.1748 81.1242 71.266 91.3636 63.9661 95.5819C60.3273 97.6854 57.0223 97.8857 54.6299 96.5056L47.9532 92.677C45.5718 91.2969 44.0918 88.3363 44.0918 84.1181C44.0918 75.6929 50.0007 65.4534 57.3005 61.2463C60.9393 59.1317 64.2443 58.9313 66.6368 60.3114L73.3135 64.1401Z" fill="#A87214" fill-opacity="0.980392"/>
<path opacity="0.3" d="M73.3135 64.1401C75.706 65.5202 77.1748 68.4807 77.1748 72.6989C77.1748 81.1242 71.266 91.3636 63.9661 95.5819C60.3273 97.6854 57.0223 97.8857 54.6299 96.5056L47.9532 92.677C45.5718 91.2969 44.0918 88.3363 44.0918 84.1181C44.0918 75.6929 50.0007 65.4534 57.3005 61.2463C60.9393 59.1317 64.2443 58.9313 66.6368 60.3114L73.3135 64.1401Z" fill="black"/>
<path d="M63.9662 95.6057C60.3274 97.7093 57.0224 97.9096 54.6299 96.5295C52.2374 95.1494 50.7686 92.1889 50.7686 87.9707C50.7686 79.5454 56.6774 69.306 63.9773 65.0989C67.6161 62.9842 70.9211 62.7839 73.3135 64.164C75.706 65.5441 77.1749 68.5046 77.1749 72.7228C77.1972 81.1481 71.266 91.3875 63.9662 95.6057Z" fill="#A87214" fill-opacity="0.980392"/>
<path d="M50.5793 0.211914C46.0392 21.136 22.4704 55.004 6.15703 60.9919L0.0478516 63.2179L7.61478 67.5919L13.724 65.3659C30.0373 59.3892 53.5616 25.51 58.1462 4.58594L50.5793 0.211914Z" fill="#A87214" fill-opacity="0.980392"/>
<path opacity="0.6" d="M50.5793 0.211914C46.0392 21.136 22.4704 55.004 6.15703 60.9919L0.0478516 63.2179L7.61478 67.5919L13.724 65.3659C30.0373 59.3892 53.5616 25.51 58.1462 4.58594L50.5793 0.211914Z" fill="#FFA80F" fill-opacity="0.980392"/>
<path d="M27.5448 165.211C7.22542 144.788 7.44798 111.654 7.59264 81.0585C7.59264 78.6248 7.59264 76.3061 7.59264 74.1024V67.6025L0.0257166 63.2285V69.7061C0.0257166 71.932 0.0257166 74.2248 0.0257166 76.6511C-0.118945 107.258 -0.330374 140.38 19.9779 160.804C22.2122 163.064 24.7338 165.021 27.4781 166.625L34.4886 170.676C31.9599 169.144 29.628 167.309 27.5448 165.211Z" fill="#A87214" fill-opacity="0.980392"/>
<path opacity="0.1" d="M27.5448 165.211C7.22542 144.788 7.44798 111.654 7.59264 81.0585C7.59264 78.6248 7.59264 76.3061 7.59264 74.1024V67.6025L0.0257166 63.2285V69.7061C0.0257166 71.932 0.0257166 74.2248 0.0257166 76.6511C-0.118945 107.258 -0.330374 140.38 19.9779 160.804C22.2122 163.064 24.7338 165.021 27.4781 166.625L34.4886 170.676C31.9599 169.144 29.628 167.309 27.5448 165.211Z" fill="#FFA80F" fill-opacity="0.980392"/>
<path d="M113.764 30.4957C113.764 28.0768 113.764 25.773 113.764 23.5841V4.37402L98.6631 16.2829C92.3759 21.2468 85.8439 23.8624 79.7458 23.8624C74.9608 23.8624 66.9377 20.4344 58.1022 4.59662C53.5509 25.5096 30.0378 59.3776 13.7689 65.3543L7.65974 67.5803V74.158C7.65974 76.384 7.65974 78.6768 7.65974 81.1031C7.51508 111.71 7.29252 144.844 27.6119 165.267C30.9496 168.679 34.9498 171.372 39.3665 173.181C43.7833 174.989 48.5232 175.876 53.295 175.784C56.3963 175.765 59.4887 175.452 62.5311 174.85L65.2129 174.326L67.1936 172.423C114.287 127.103 113.919 71.5314 113.764 30.4957ZM63.8998 169.006L62.9094 169.952L61.5741 170.22C58.8259 170.77 56.0309 171.054 53.2282 171.065C49.071 171.151 44.9405 170.383 41.0916 168.81C37.2427 167.236 33.7571 164.89 30.8501 161.917C11.9328 142.874 12.1109 110.909 12.2555 81.0697C12.2555 78.6359 12.2555 76.3135 12.2555 74.1024V70.8191L15.3046 69.7061C33.0089 63.2174 54.252 31.3193 59.393 15.6152C64.2336 23.5841 73.3584 28.5257 79.7903 28.5257C86.901 28.5257 94.4234 25.5541 101.545 19.9447L109.079 14.0013V23.6064C109.079 25.8323 109.079 28.1436 109.079 30.5402C109.301 70.8191 109.624 125.122 63.8998 169.006Z" fill="#A87214" fill-opacity="0.980392"/>
</svg>
