        <svg width="38" height="38" viewBox="0 0 38 38" fill="none" xmlns="http://www.w3.org/2000/svg">
<mask id="mask0_1099_579" style="mask-type:alpha" maskUnits="userSpaceOnUse" x="0" y="0" width="38" height="38">
<rect width="38" height="38" fill="#D9D9D9"/>
</mask>
<g mask="url(#mask0_1099_579)">
<path d="M25.3333 21.375C26.0194 21.375 26.5868 21.1507 27.0354 20.7021C27.484 20.2535 27.7083 19.6861 27.7083 19C27.7083 18.3139 27.484 17.7465 27.0354 17.2979C26.5868 16.8493 26.0194 16.625 25.3333 16.625C24.6472 16.625 24.0799 16.8493 23.6313 17.2979C23.1826 17.7465 22.9583 18.3139 22.9583 19C22.9583 19.6861 23.1826 20.2535 23.6313 20.7021C24.0799 21.1507 24.6472 21.375 25.3333 21.375ZM20.5833 26.9167C19.7125 26.9167 18.967 26.6066 18.3469 25.9865C17.7267 25.3663 17.4167 24.6208 17.4167 23.75V14.25C17.4167 13.3792 17.7267 12.6337 18.3469 12.0135C18.967 11.3934 19.7125 11.0833 20.5833 11.0833H31.6667C32.5375 11.0833 33.283 11.3934 33.9031 12.0135C34.5233 12.6337 34.8333 13.3792 34.8333 14.25V23.75C34.8333 24.6208 34.5233 25.3663 33.9031 25.9865C33.283 26.6066 32.5375 26.9167 31.6667 26.9167H20.5833ZM7.91667 33.25C7.04583 33.25 6.30035 32.9399 5.68021 32.3198C5.06007 31.6997 4.75 30.9542 4.75 30.0833V7.91667C4.75 7.04583 5.06007 6.30035 5.68021 5.68021C6.30035 5.06007 7.04583 4.75 7.91667 4.75H30.0833C30.9542 4.75 31.6997 5.06007 32.3198 5.68021C32.9399 6.30035 33.25 7.04583 33.25 7.91667H20.5833C18.7097 7.91667 17.1858 8.50382 16.0115 9.67812C14.8372 10.8524 14.25 12.3764 14.25 14.25V23.75C14.25 25.6236 14.8372 27.1476 16.0115 28.3219C17.1858 29.4962 18.7097 30.0833 20.5833 30.0833H33.25C33.25 30.9542 32.9399 31.6997 32.3198 32.3198C31.6997 32.9399 30.9542 33.25 30.0833 33.25H7.91667Z" fill="white" fill-opacity="0.7"/>
</g>
</svg>