<svg width="37" height="37" viewBox="0 0 37 37" fill="none" xmlns="http://www.w3.org/2000/svg">
<path d="M27.7899 9.6377H9.53211C8.52725 9.6388 7.56385 10.0384 6.85328 10.749C6.1427 11.4595 5.74298 12.4229 5.74181 13.4277V24.1157C5.74291 25.1207 6.14262 26.0843 6.85324 26.795C7.56387 27.5056 8.52738 27.9054 9.53239 27.9066H27.7899C28.7949 27.9054 29.7584 27.5056 30.469 26.795C31.1797 26.0843 31.5794 25.1207 31.5805 24.1157V13.4277C31.5793 12.4228 31.1795 11.4594 30.4689 10.7489C29.7583 10.0383 28.7948 9.63872 27.7899 9.6377ZM20.9772 15.7753C21.3188 16.0385 21.6133 16.3578 21.8481 16.7195C21.8542 16.7301 21.8592 16.7412 21.8662 16.7512C22.2561 17.3703 22.4584 18.089 22.4489 18.8205C22.4393 19.5521 22.2182 20.2652 21.8123 20.8739L21.807 20.8811C21.5767 21.2237 21.2923 21.5265 20.965 21.7779C20.9054 21.8192 20.8568 21.8744 20.8232 21.9386C20.7896 22.0028 20.772 22.0742 20.7719 22.1467V27.0059H16.5503V22.1434C16.5503 22.0675 16.5311 21.9929 16.4944 21.9265C16.4577 21.8601 16.4048 21.8041 16.3407 21.7637C16.0231 21.5174 15.7465 21.2223 15.5211 20.8895C15.5142 20.8786 15.5064 20.8689 15.4986 20.8589C15.0995 20.2534 14.8825 19.546 14.8734 18.8208C14.8643 18.0956 15.0634 17.383 15.4472 16.7676C15.4648 16.7444 15.4801 16.7196 15.4928 16.6934C15.7234 16.3447 16.0099 16.0362 16.3407 15.7806C16.4048 15.7401 16.4577 15.6841 16.4944 15.6177C16.531 15.5513 16.5503 15.4768 16.5503 15.4009V10.5383H20.7717V15.3984C20.7715 15.4736 20.7902 15.5475 20.8261 15.6136C20.8619 15.6796 20.9138 15.7356 20.9769 15.7764L20.9772 15.7753ZM30.6796 20.6801H22.9401C23.2039 20.094 23.3433 19.4596 23.3494 18.817C23.3556 18.1744 23.2284 17.5374 22.9759 16.9464H30.6793L30.6796 20.6801ZM6.64273 16.9475H14.3461C14.0936 17.5385 13.9664 18.1755 13.9727 18.8181C13.9789 19.4608 14.1183 20.0952 14.3822 20.6812H6.64273V16.9475ZM9.531 10.5386H15.6497V15.1879C15.3489 15.4398 15.0808 15.7282 14.8515 16.0466H6.64273V13.4277C6.64353 12.6617 6.94821 11.9272 7.4899 11.3855C8.03159 10.8438 8.76605 10.5391 9.53211 10.5383L9.531 10.5386ZM6.64273 24.116V21.5821H14.9135C15.1287 21.8673 15.3757 22.127 15.6497 22.3564V27.0059H9.53211C8.76595 27.005 8.03145 26.7001 7.48977 26.1583C6.94809 25.6165 6.64346 24.8822 6.64273 24.116ZM27.7899 27.0059H21.6723V22.3569C21.9464 22.1274 22.1935 21.8675 22.4088 21.5821H30.6793V24.1157C30.6785 24.8819 30.3739 25.6165 29.8322 26.1583C29.2906 26.7001 28.5561 27.005 27.7899 27.0059ZM30.6782 16.0469H22.4705C22.2412 15.7285 21.9731 15.44 21.6723 15.1882V10.5383H27.7899C28.5556 10.5394 29.2896 10.8441 29.831 11.3855C30.3724 11.9269 30.6771 12.6609 30.6782 13.4266V16.0469Z" fill="white" fill-opacity="0.8"/>
</svg>
