<svg width="48" height="48" viewBox="0 0 48 48" fill="none" xmlns="http://www.w3.org/2000/svg">
<g id="Cryptocurrency">
<path id="Shape" opacity="0.2" d="M47.28 29.8062C44.0745 42.6634 31.0515 50.4874 18.1928 47.2819C5.34 44.0765 -2.48475 31.0534 0.721501 18.1969C3.9255 5.3382 16.9478 -2.4873 29.8028 0.718197C42.6608 3.9237 50.4848 16.9482 47.2793 29.8062H47.28Z" fill="#F7931A"/>
<path id="Shape_2" fill-rule="evenodd" clip-rule="evenodd" d="M31.2282 21.2115C31.5518 19.0451 29.9023 17.8805 27.6468 17.1036L28.3785 14.1689L26.5916 13.7237L25.8793 16.581C25.4102 16.464 24.9279 16.3536 24.4486 16.2442L25.166 13.368L23.3806 12.9229L22.6485 15.8565C22.2598 15.768 21.8782 15.6805 21.5078 15.5884L21.5098 15.5792L19.0463 14.9641L18.5711 16.8721C18.5711 16.8721 19.8964 17.1758 19.8685 17.1946C20.592 17.3753 20.7232 17.854 20.7008 18.2336L19.8674 21.5768C19.9173 21.5896 19.9819 21.6079 20.0532 21.6364L19.8649 21.5896L18.6962 26.273C18.6077 26.4928 18.3833 26.8225 17.8776 26.6973C17.8954 26.7232 16.5791 26.3732 16.5791 26.3732L15.6923 28.4185L18.0175 28.998C18.28 29.0638 18.5393 29.1315 18.7958 29.1984L18.796 29.1984C18.962 29.2418 19.1268 29.2847 19.2905 29.3267L18.5512 32.2955L20.3355 32.7407L21.0682 29.804C21.5551 29.9363 22.0283 30.0584 22.4913 30.1733L21.7617 33.0963L23.548 33.5415L24.2873 30.5789C27.3334 31.1553 29.6245 30.9228 30.5876 28.1682C31.3646 25.9499 30.5495 24.6703 28.9468 23.8354C30.1139 23.5652 30.9931 22.7974 31.2277 21.2115H31.2282ZM27.1462 26.9349C26.6391 28.9709 23.4515 28.1285 21.9944 27.7434L21.9943 27.7433C21.8638 27.7089 21.7472 27.6781 21.6477 27.6533L22.6286 23.7209C22.7503 23.7513 22.899 23.7846 23.0675 23.8224C24.5749 24.1607 27.6643 24.8539 27.1467 26.9349H27.1462ZM23.3705 21.9976C24.5863 22.322 27.2365 23.029 27.6982 21.1795C28.1702 19.2873 25.5931 18.717 24.3345 18.4385C24.193 18.4072 24.0682 18.3796 23.9663 18.3542L23.0769 21.9208C23.161 21.9418 23.2598 21.9681 23.3705 21.9976Z" fill="#F7931A"/>
</g>
</svg>
