<svg width="48" height="48" viewBox="0 0 48 48" fill="none" xmlns="http://www.w3.org/2000/svg">
<g opacity="0.5">
<path d="M47.8698 24.0004C47.8698 37.1854 37.1814 47.874 23.9965 47.874C10.8115 47.874 0.122971 37.1854 0.122971 24.0004C0.122971 10.8154 10.8115 0.126953 23.9965 0.126953C37.1813 0.126953 47.8698 10.8154 47.8698 24.0004Z" fill="#3D3D3D"/>
<g opacity="0.8">
<path d="M23.9202 12.9229L23.7727 13.4241V27.9677L23.9202 28.1149L30.6712 24.1244L23.9202 12.9229Z" fill="white"/>
<path d="M23.9202 12.9229L17.1692 24.1244L23.9202 28.1149V21.0559V12.9229Z" fill="white"/>
<path d="M23.9202 30.3112L23.8371 30.4125V35.5933L23.9202 35.836L30.6752 26.3228L23.9202 30.3112Z" fill="white"/>
<path d="M23.9202 35.836V30.3112L17.1692 26.3228L23.9202 35.836Z" fill="white"/>
<path d="M23.9202 28.1151L30.6711 24.1247L23.9202 21.0562V28.1151Z" fill="white"/>
<path d="M17.1692 24.1242L23.9201 28.1147V21.0557L17.1692 24.1242Z" fill="white"/>
</g>
</g>
</svg>
