<svg width="48" height="48" viewBox="0 0 48 48" fill="none" xmlns="http://www.w3.org/2000/svg">
<path d="M24 40.6155C33.1764 40.6155 40.6154 33.1766 40.6154 24.0001C40.6154 14.8237 33.1764 7.38477 24 7.38477C14.8236 7.38477 7.38461 14.8237 7.38461 24.0001C7.38461 33.1766 14.8236 40.6155 24 40.6155Z" fill="white"/>
<path d="M37.8493 32.9029H31.2919V24L24 31.1948L16.7081 24V32.9029H10.1507H9.94083C12.8786 37.5097 18.0721 40.6154 24 40.6154C29.9279 40.6154 35.1214 37.5615 38.0592 32.9029H37.8493Z" fill="#4C4C4C"/>
<path d="M13.255 29.1126V15.4225L24 26.0531L34.745 15.4225V29.1126H39.7243C40.3009 27.4532 40.6154 25.6901 40.6154 23.8232C40.6154 14.7484 33.1725 7.38477 24 7.38477C14.8275 7.38477 7.38461 14.7484 7.38461 23.8232C7.38461 25.6901 7.6991 27.4532 8.27566 29.1126H13.255Z" fill="#FF6B01"/>
<path opacity="0.1" d="M47.8698 24.0004C47.8698 37.1854 37.1814 47.874 23.9965 47.874C10.8115 47.874 0.122971 37.1854 0.122971 24.0004C0.122971 10.8154 10.8115 0.126953 23.9965 0.126953C37.1813 0.126953 47.8698 10.8154 47.8698 24.0004Z" fill="#BEBEBE"/>
</svg>
