<svg width="48" height="48" viewBox="0 0 48 48" fill="none" xmlns="http://www.w3.org/2000/svg">
<path opacity="0.2" d="M47.8698 24.0004C47.8698 37.1854 37.1814 47.874 23.9965 47.874C10.8115 47.874 0.122986 37.1854 0.122986 24.0004C0.122986 10.8154 10.8115 0.126953 23.9965 0.126953C37.1813 0.126953 47.8698 10.8154 47.8698 24.0004Z" fill="#00A478"/>
<path d="M21.5484 23.5826V19.4061H15.8837V15.7451H31.7131V19.4576H26.0484V23.5826H21.5484Z" fill="#00A478"/>
<path fill-rule="evenodd" clip-rule="evenodd" d="M13.4484 24.0466C13.4484 22.6544 18.0014 21.52 23.6661 21.52C29.3308 21.52 33.8837 22.6544 33.8837 24.0466C33.8837 25.4388 29.3308 26.5731 23.6661 26.5731C18.0014 26.5731 13.4484 25.4388 13.4484 24.0466ZM33.0367 24.0466C32.6661 23.531 29.5955 21.9325 23.6661 21.9325C17.7367 21.9325 14.6661 23.4794 14.2955 24.0466C14.6661 24.5622 17.7367 25.3356 23.6661 25.3356C29.6484 25.3356 32.6661 24.5622 33.0367 24.0466Z" fill="#00A478"/>
<path d="M26.0484 24.8715V21.984C25.3073 21.9324 24.5131 21.8809 23.719 21.8809C22.9778 21.8809 22.2896 21.8809 21.6014 21.9324V24.8199C22.2367 24.8199 22.9778 24.8715 23.719 24.8715C24.5131 24.923 25.3073 24.923 26.0484 24.8715Z" fill="#00A478"/>
<path d="M23.6661 26.5729C22.9249 26.5729 22.2367 26.5729 21.5484 26.5213V34.2041H25.9955V26.4697C25.2543 26.5213 24.4602 26.5729 23.6661 26.5729Z" fill="#00A478"/>
</svg>
