<svg width="1180" height="447" viewBox="0 0 1180 447" fill="none" xmlns="http://www.w3.org/2000/svg">
<g style="mix-blend-mode:lighten" filter="url(#filter0_f_1132_749)">
<path d="M608.652 18L617.088 69.216L668.304 77.6521L617.088 86.0882L608.652 137.304L600.216 86.0882L549 77.6521L600.216 69.216L608.652 18Z" fill="#DDC057"/>
<path d="M608.652 18L617.088 69.216L668.304 77.6521L617.088 86.0882L608.652 137.304L600.216 86.0882L549 77.6521L600.216 69.216L608.652 18Z" fill="#DDC057"/>
<path d="M608.652 18L617.088 69.216L668.304 77.6521L617.088 86.0882L608.652 137.304L600.216 86.0882L549 77.6521L600.216 69.216L608.652 18Z" fill="#DDC057"/>
</g>
<g style="mix-blend-mode:lighten" filter="url(#filter1_f_1132_749)">
<path d="M608.652 54.709L611.68 73.0942L630.066 76.1226L611.68 79.1509L608.652 97.5361L605.624 79.1509L587.238 76.1226L605.624 73.0942L608.652 54.709Z" fill="#FBECD3" fill-opacity="0.980392"/>
</g>
<g style="mix-blend-mode:lighten" filter="url(#filter2_f_1132_749)">
<path d="M614.601 70.174L610.335 76.1225L614.601 82.071L608.652 77.805L602.704 82.071L606.97 76.1225L602.704 70.174L608.652 74.44L614.601 70.174Z" fill="#FBECD3" fill-opacity="0.980392"/>
</g>
<g style="mix-blend-mode:lighten" filter="url(#filter3_f_1132_749)">
<path d="M998.344 259L1005.46 302.224L1048.69 309.344L1005.46 316.464L998.344 359.688L991.224 316.464L948 309.344L991.224 302.224L998.344 259Z" fill="#DDC057"/>
<path d="M998.344 259L1005.46 302.224L1048.69 309.344L1005.46 316.464L998.344 359.688L991.224 316.464L948 309.344L991.224 302.224L998.344 259Z" fill="#DDC057"/>
<path d="M998.344 259L1005.46 302.224L1048.69 309.344L1005.46 316.464L998.344 359.688L991.224 316.464L948 309.344L991.224 302.224L998.344 259Z" fill="#DDC057"/>
</g>
<g style="mix-blend-mode:lighten" filter="url(#filter4_f_1132_749)">
<path d="M998.344 289.981L1000.9 305.497L1016.42 308.053L1000.9 310.609L998.344 326.125L995.788 310.609L980.272 308.053L995.788 305.497L998.344 289.981Z" fill="#FBECD3" fill-opacity="0.980392"/>
</g>
<g style="mix-blend-mode:lighten" filter="url(#filter5_f_1132_749)">
<path d="M1003.36 303.033L999.764 308.053L1003.36 313.074L998.344 309.473L993.324 313.074L996.924 308.053L993.324 303.033L998.344 306.633L1003.36 303.033Z" fill="#FBECD3" fill-opacity="0.980392"/>
</g>
<g style="mix-blend-mode:lighten" filter="url(#filter6_f_1132_749)">
<path d="M297.944 15L303.027 45.8609L333.888 50.9442L303.027 56.0275L297.944 86.8884L292.861 56.0275L262 50.9442L292.861 45.8609L297.944 15Z" fill="#DDC057"/>
<path d="M297.944 15L303.027 45.8609L333.888 50.9442L303.027 56.0275L297.944 86.8884L292.861 56.0275L262 50.9442L292.861 45.8609L297.944 15Z" fill="#DDC057"/>
<path d="M297.944 15L303.027 45.8609L333.888 50.9442L303.027 56.0275L297.944 86.8884L292.861 56.0275L262 50.9442L292.861 45.8609L297.944 15Z" fill="#DDC057"/>
</g>
<g style="mix-blend-mode:lighten" filter="url(#filter7_f_1132_749)">
<path d="M297.944 37.1195L299.769 48.1978L310.847 50.0226L299.769 51.8473L297.944 62.9256L296.119 51.8473L285.041 50.0226L296.119 48.1978L297.944 37.1195Z" fill="#FBECD3" fill-opacity="0.980392"/>
</g>
<g style="mix-blend-mode:lighten" filter="url(#filter8_f_1132_749)">
<path d="M301.529 46.4381L298.958 50.0225L301.529 53.6068L297.944 51.0363L294.36 53.6068L296.93 50.0225L294.36 46.4381L297.944 49.0087L301.529 46.4381Z" fill="#FBECD3" fill-opacity="0.980392"/>
</g>
<g style="mix-blend-mode:lighten" filter="url(#filter9_f_1132_749)">
<path d="M268.944 360L274.027 390.861L304.888 395.944L274.027 401.027L268.944 431.888L263.861 401.027L233 395.944L263.861 390.861L268.944 360Z" fill="#DDC057"/>
<path d="M268.944 360L274.027 390.861L304.888 395.944L274.027 401.027L268.944 431.888L263.861 401.027L233 395.944L263.861 390.861L268.944 360Z" fill="#DDC057"/>
<path d="M268.944 360L274.027 390.861L304.888 395.944L274.027 401.027L268.944 431.888L263.861 401.027L233 395.944L263.861 390.861L268.944 360Z" fill="#DDC057"/>
</g>
<g style="mix-blend-mode:lighten" filter="url(#filter10_f_1132_749)">
<path d="M268.944 382.12L270.769 393.198L281.847 395.023L270.769 396.847L268.944 407.926L267.119 396.847L256.041 395.023L267.119 393.198L268.944 382.12Z" fill="#FBECD3" fill-opacity="0.980392"/>
</g>
<g style="mix-blend-mode:lighten" filter="url(#filter11_f_1132_749)">
<path d="M272.529 391.438L269.958 395.022L272.529 398.607L268.944 396.036L265.36 398.607L267.93 395.022L265.36 391.438L268.944 394.009L272.529 391.438Z" fill="#FBECD3" fill-opacity="0.980392"/>
</g>
<path d="M192.277 117.672H195.925L196.453 141.672H191.749L192.277 117.672ZM197.173 110.904C197.173 112.584 195.877 113.88 194.293 113.88C192.613 113.88 191.317 112.584 191.317 110.904C191.317 109.224 192.613 107.928 194.293 107.928C195.877 107.928 197.173 109.224 197.173 110.904ZM204.03 122.664V101.544H208.398V122.712C208.398 128.856 211.71 131.496 216.654 131.496C221.598 131.496 224.862 128.856 224.862 122.712V101.544H229.23V122.664C229.23 131.352 223.518 135.336 216.606 135.336C209.694 135.336 204.03 131.352 204.03 122.664ZM239.925 113.544C241.509 110.76 244.965 108.264 249.765 108.264C256.821 108.264 262.245 113.544 262.245 121.752C262.245 129.912 256.821 135.432 249.765 135.432C244.965 135.432 241.557 132.84 239.925 130.152V147.48H235.557V108.696H239.925V113.544ZM257.781 121.752C257.781 115.56 253.701 112.056 248.853 112.056C244.101 112.056 239.925 115.704 239.925 121.8C239.925 127.992 244.101 131.592 248.853 131.592C253.701 131.592 257.781 127.944 257.781 121.752ZM285.946 127.848C285.946 132.168 282.154 135.432 276.346 135.432C270.202 135.432 265.882 132.072 265.594 127.272H270.106C270.346 129.816 272.602 131.736 276.298 131.736C279.754 131.736 281.674 130.008 281.674 127.848C281.674 121.992 266.122 125.4 266.122 115.608C266.122 111.576 269.914 108.264 275.77 108.264C281.578 108.264 285.418 111.384 285.706 116.52H281.338C281.146 113.88 279.13 111.96 275.626 111.96C272.41 111.96 270.49 113.496 270.49 115.608C270.49 121.848 285.754 118.44 285.946 127.848ZM292.641 125.544L292.113 101.544H296.817L296.289 125.544H292.641ZM297.537 132.312C297.537 133.992 296.241 135.288 294.657 135.288C292.977 135.288 291.681 133.992 291.681 132.312C291.681 130.632 292.977 129.336 294.657 129.336C296.241 129.336 297.537 130.632 297.537 132.312ZM320.694 117.432H327.126C332.118 117.432 334.23 115.08 334.23 111.336C334.23 107.448 332.118 105.144 327.126 105.144H320.694V117.432ZM338.694 111.336C338.694 116.424 335.43 121.032 327.126 121.032H320.694V135H316.326V101.544H327.126C334.998 101.544 338.694 105.864 338.694 111.336ZM341.531 121.752C341.531 113.544 346.955 108.264 354.011 108.264C358.907 108.264 362.267 110.76 363.803 113.496V108.696H368.219V135H363.803V130.104C362.219 132.936 358.811 135.432 353.963 135.432C346.955 135.432 341.531 129.912 341.531 121.752ZM363.803 121.8C363.803 115.704 359.675 112.056 354.875 112.056C350.075 112.056 345.995 115.56 345.995 121.752C345.995 127.944 350.075 131.592 354.875 131.592C359.675 131.592 363.803 127.992 363.803 121.8ZM379.009 120.696V135H374.641V108.696H379.009V112.968C380.497 110.04 383.329 108.216 387.505 108.216V112.728H386.353C382.177 112.728 379.009 114.6 379.009 120.696ZM402.771 111.96C398.499 111.96 394.947 114.792 394.467 119.928H411.075C411.123 114.792 407.283 111.96 402.771 111.96ZM415.059 126.888C413.715 131.688 409.491 135.432 402.963 135.432C395.475 135.432 389.955 130.152 389.955 121.8C389.955 113.496 395.283 108.264 402.963 108.264C410.595 108.264 415.587 113.64 415.587 120.84C415.587 121.8 415.539 122.568 415.443 123.48H394.419C394.755 128.808 398.499 131.736 402.963 131.736C406.899 131.736 409.395 129.72 410.355 126.888H415.059ZM418.761 121.8C418.761 113.544 424.089 108.264 431.577 108.264C438.105 108.264 442.377 111.624 443.721 117.144H439.017C438.105 113.976 435.465 111.96 431.577 111.96C426.777 111.96 423.225 115.368 423.225 121.8C423.225 128.328 426.777 131.736 431.577 131.736C435.465 131.736 438.057 129.864 439.017 126.552H443.721C442.377 131.784 438.105 135.432 431.577 135.432C424.089 135.432 418.761 130.152 418.761 121.8ZM459.773 111.96C455.501 111.96 451.949 114.792 451.469 119.928H468.077C468.125 114.792 464.285 111.96 459.773 111.96ZM472.061 126.888C470.717 131.688 466.493 135.432 459.965 135.432C452.477 135.432 446.957 130.152 446.957 121.8C446.957 113.496 452.285 108.264 459.965 108.264C467.597 108.264 472.589 113.64 472.589 120.84C472.589 121.8 472.541 122.568 472.445 123.48H451.421C451.757 128.808 455.501 131.736 459.965 131.736C463.901 131.736 466.397 129.72 467.357 126.888H472.061ZM487.599 121.752C487.599 113.544 493.023 108.264 500.127 108.264C504.927 108.264 508.383 110.76 509.871 113.496V108.696H514.287V147.48H509.871V130.152C508.383 132.84 504.879 135.432 499.983 135.432C493.023 135.432 487.599 129.912 487.599 121.752ZM509.871 121.8C509.871 115.704 505.743 112.056 500.943 112.056C496.143 112.056 492.063 115.56 492.063 121.752C492.063 127.944 496.143 131.592 500.943 131.592C505.743 131.592 509.871 127.992 509.871 121.8ZM544.037 108.696V135H539.669V131.112C537.989 133.848 534.773 135.384 531.269 135.384C525.221 135.384 520.469 131.64 520.469 124.104V108.696H524.789V123.528C524.789 128.856 527.717 131.592 532.133 131.592C536.645 131.592 539.669 128.808 539.669 123.144V108.696H544.037ZM561.636 111.96C557.364 111.96 553.812 114.792 553.332 119.928H569.94C569.988 114.792 566.148 111.96 561.636 111.96ZM573.924 126.888C572.58 131.688 568.356 135.432 561.828 135.432C554.34 135.432 548.82 130.152 548.82 121.8C548.82 113.496 554.148 108.264 561.828 108.264C569.46 108.264 574.452 113.64 574.452 120.84C574.452 121.8 574.404 122.568 574.308 123.48H553.284C553.62 128.808 557.364 131.736 561.828 131.736C565.764 131.736 568.26 129.72 569.22 126.888H573.924ZM592.054 127.8V112.296H588.646V108.696H592.054V102.072H596.422V108.696H603.286V112.296H596.422V127.8C596.422 130.392 597.382 131.304 600.07 131.304H603.286V135H599.35C594.694 135 592.054 133.08 592.054 127.8ZM618.803 111.96C614.531 111.96 610.979 114.792 610.499 119.928H627.107C627.155 114.792 623.315 111.96 618.803 111.96ZM631.091 126.888C629.747 131.688 625.523 135.432 618.995 135.432C611.507 135.432 605.987 130.152 605.987 121.8C605.987 113.496 611.315 108.264 618.995 108.264C626.627 108.264 631.619 113.64 631.619 120.84C631.619 121.8 631.571 122.568 631.475 123.48H610.451C610.787 128.808 614.531 131.736 618.995 131.736C622.931 131.736 625.427 129.72 626.387 126.888H631.091ZM648.261 135V99.48H652.629V112.488C654.357 109.704 657.621 108.216 661.317 108.216C667.173 108.216 671.829 111.96 671.829 119.496V135H667.509V120.12C667.509 114.744 664.581 112.008 660.165 112.008C655.701 112.008 652.629 114.792 652.629 120.456V135H648.261ZM676.372 121.752C676.372 113.544 681.796 108.264 688.852 108.264C693.748 108.264 697.108 110.76 698.644 113.496V108.696H703.06V135H698.644V130.104C697.06 132.936 693.652 135.432 688.804 135.432C681.796 135.432 676.372 129.912 676.372 121.752ZM698.644 121.8C698.644 115.704 694.516 112.056 689.716 112.056C684.916 112.056 680.836 115.56 680.836 121.752C680.836 127.944 684.916 131.592 689.716 131.592C694.516 131.592 698.644 127.992 698.644 121.8ZM728.394 127.848C728.394 132.168 724.602 135.432 718.794 135.432C712.65 135.432 708.33 132.072 708.042 127.272H712.554C712.794 129.816 715.05 131.736 718.746 131.736C722.202 131.736 724.122 130.008 724.122 127.848C724.122 121.992 708.57 125.4 708.57 115.608C708.57 111.576 712.362 108.264 718.218 108.264C724.026 108.264 727.866 111.384 728.154 116.52H723.786C723.594 113.88 721.578 111.96 718.074 111.96C714.858 111.96 712.938 113.496 712.938 115.608C712.938 121.848 728.202 118.44 728.394 127.848ZM749.805 113.544C751.389 110.76 754.845 108.264 759.645 108.264C766.701 108.264 772.125 113.544 772.125 121.752C772.125 129.912 766.701 135.432 759.645 135.432C754.845 135.432 751.437 132.84 749.805 130.152V147.48H745.437V108.696H749.805V113.544ZM767.661 121.752C767.661 115.56 763.581 112.056 758.733 112.056C753.981 112.056 749.805 115.704 749.805 121.8C749.805 127.992 753.981 131.592 758.733 131.592C763.581 131.592 767.661 127.944 767.661 121.752ZM788.098 111.96C783.826 111.96 780.274 114.792 779.794 119.928H796.402C796.45 114.792 792.61 111.96 788.098 111.96ZM800.386 126.888C799.042 131.688 794.818 135.432 788.29 135.432C780.802 135.432 775.282 130.152 775.282 121.8C775.282 113.496 780.61 108.264 788.29 108.264C795.922 108.264 800.914 113.64 800.914 120.84C800.914 121.8 800.866 122.568 800.77 123.48H779.746C780.082 128.808 783.826 131.736 788.29 131.736C792.226 131.736 794.722 129.72 795.682 126.888H800.386ZM810.088 120.696V135H805.72V108.696H810.088V112.968C811.576 110.04 814.408 108.216 818.584 108.216V112.728H817.432C813.256 112.728 810.088 114.6 810.088 120.696ZM821.034 121.752C821.034 113.544 826.458 108.264 833.562 108.264C837.69 108.264 841.482 110.376 843.306 113.4V99.48H847.722V135H843.306V130.056C841.722 132.984 838.314 135.432 833.514 135.432C826.458 135.432 821.034 129.912 821.034 121.752ZM843.306 121.8C843.306 115.704 839.178 112.056 834.378 112.056C829.578 112.056 825.498 115.56 825.498 121.752C825.498 127.944 829.578 131.592 834.378 131.592C839.178 131.592 843.306 127.992 843.306 121.8ZM854.144 135V108.696H858.512V135H854.144ZM856.4 104.424C854.72 104.424 853.424 103.128 853.424 101.448C853.424 99.768 854.72 98.472 856.4 98.472C857.984 98.472 859.28 99.768 859.28 101.448C859.28 103.128 857.984 104.424 856.4 104.424ZM863.364 121.752C863.364 113.544 868.788 108.264 875.892 108.264C880.02 108.264 883.812 110.376 885.636 113.4V99.48H890.052V135H885.636V130.056C884.052 132.984 880.644 135.432 875.844 135.432C868.788 135.432 863.364 129.912 863.364 121.752ZM885.636 121.8C885.636 115.704 881.508 112.056 876.708 112.056C871.908 112.056 867.828 115.56 867.828 121.752C867.828 127.944 871.908 131.592 876.708 131.592C881.508 131.592 885.636 127.992 885.636 121.8ZM921.434 121.8C921.434 130.152 915.434 135.432 907.946 135.432C900.506 135.432 894.842 130.152 894.842 121.8C894.842 113.496 900.698 108.264 908.138 108.264C915.626 108.264 921.434 113.496 921.434 121.8ZM899.306 121.8C899.306 128.472 903.386 131.592 907.946 131.592C912.506 131.592 916.97 128.472 916.97 121.8C916.97 115.176 912.602 112.056 908.09 112.056C903.482 112.056 899.306 115.176 899.306 121.8ZM949.238 111.96C944.966 111.96 941.414 114.792 940.934 119.928H957.542C957.59 114.792 953.75 111.96 949.238 111.96ZM961.526 126.888C960.182 131.688 955.958 135.432 949.43 135.432C941.942 135.432 936.422 130.152 936.422 121.8C936.422 113.496 941.75 108.264 949.43 108.264C957.062 108.264 962.054 113.64 962.054 120.84C962.054 121.8 962.006 122.568 961.91 123.48H940.886C941.222 128.808 944.966 131.736 949.43 131.736C953.366 131.736 955.862 129.72 956.822 126.888H961.526ZM986.107 135V120.12C986.107 114.744 983.179 112.008 978.763 112.008C974.299 112.008 971.227 114.792 971.227 120.456V135H966.859V108.696H971.227V112.44C972.955 109.704 976.123 108.216 979.675 108.216C985.771 108.216 990.427 111.96 990.427 119.496V135H986.107ZM484.841 171.96C480.569 171.96 477.017 174.792 476.537 179.928H493.145C493.193 174.792 489.353 171.96 484.841 171.96ZM497.129 186.888C495.785 191.688 491.561 195.432 485.033 195.432C477.545 195.432 472.025 190.152 472.025 181.8C472.025 173.496 477.353 168.264 485.033 168.264C492.665 168.264 497.657 173.64 497.657 180.84C497.657 181.8 497.609 182.568 497.513 183.48H476.489C476.825 188.808 480.569 191.736 485.033 191.736C488.969 191.736 491.465 189.72 492.425 186.888H497.129ZM502.462 195V159.48H506.83V195H502.462ZM523.52 181.8C523.52 173.544 528.848 168.264 536.336 168.264C542.864 168.264 547.136 171.624 548.48 177.144H543.776C542.864 173.976 540.224 171.96 536.336 171.96C531.536 171.96 527.984 175.368 527.984 181.8C527.984 188.328 531.536 191.736 536.336 191.736C540.224 191.736 542.816 189.864 543.776 186.552H548.48C547.136 191.784 542.864 195.432 536.336 195.432C528.848 195.432 523.52 190.152 523.52 181.8ZM551.716 181.752C551.716 173.544 557.14 168.264 564.196 168.264C569.092 168.264 572.452 170.76 573.988 173.496V168.696H578.404V195H573.988V190.104C572.404 192.936 568.996 195.432 564.148 195.432C557.14 195.432 551.716 189.912 551.716 181.752ZM573.988 181.8C573.988 175.704 569.86 172.056 565.06 172.056C560.26 172.056 556.18 175.56 556.18 181.752C556.18 187.944 560.26 191.592 565.06 191.592C569.86 191.592 573.988 187.992 573.988 181.8ZM622.793 195V180.12C622.793 174.744 619.913 172.008 615.593 172.008C611.177 172.008 608.153 174.84 608.153 180.504V195H603.833V180.12C603.833 174.744 600.953 172.008 596.633 172.008C592.217 172.008 589.193 174.84 589.193 180.504V195H584.825V168.696H589.193V172.488C590.921 169.704 594.041 168.216 597.497 168.216C601.817 168.216 605.417 170.136 607.145 174.072C608.681 170.28 612.425 168.216 616.457 168.216C622.457 168.216 627.113 171.96 627.113 179.496V195H622.793ZM633.318 195V168.696H637.686V195H633.318ZM635.574 164.424C633.894 164.424 632.598 163.128 632.598 161.448C632.598 159.768 633.894 158.472 635.574 158.472C637.158 158.472 638.454 159.768 638.454 161.448C638.454 163.128 637.158 164.424 635.574 164.424ZM663.419 195V180.12C663.419 174.744 660.491 172.008 656.075 172.008C651.611 172.008 648.539 174.792 648.539 180.456V195H644.171V168.696H648.539V172.44C650.267 169.704 653.435 168.216 656.987 168.216C663.083 168.216 667.739 171.96 667.739 179.496V195H663.419ZM698.874 181.8C698.874 190.152 692.874 195.432 685.386 195.432C677.946 195.432 672.282 190.152 672.282 181.8C672.282 173.496 678.138 168.264 685.578 168.264C693.066 168.264 698.874 173.496 698.874 181.8ZM676.746 181.8C676.746 188.472 680.826 191.592 685.386 191.592C689.946 191.592 694.41 188.472 694.41 181.8C694.41 175.176 690.042 172.056 685.53 172.056C680.922 172.056 676.746 175.176 676.746 181.8ZM707.929 192.312C707.929 193.992 706.633 195.288 705.049 195.288C703.369 195.288 702.073 193.992 702.073 192.312C702.073 190.632 703.369 189.336 705.049 189.336C706.633 189.336 707.929 190.632 707.929 192.312Z" fill="white"/>
<path d="M327.747 255.224H333.603V257H325.563V240.272H327.747V255.224ZM335.106 250.376C335.106 249.032 335.378 247.856 335.922 246.848C336.466 245.824 337.21 245.032 338.154 244.472C339.114 243.912 340.178 243.632 341.346 243.632C342.498 243.632 343.498 243.88 344.346 244.376C345.194 244.872 345.826 245.496 346.242 246.248V243.848H348.45V257H346.242V254.552C345.81 255.32 345.162 255.96 344.298 256.472C343.45 256.968 342.458 257.216 341.322 257.216C340.154 257.216 339.098 256.928 338.154 256.352C337.21 255.776 336.466 254.968 335.922 253.928C335.378 252.888 335.106 251.704 335.106 250.376ZM346.242 250.4C346.242 249.408 346.042 248.544 345.642 247.808C345.242 247.072 344.698 246.512 344.01 246.128C343.338 245.728 342.594 245.528 341.778 245.528C340.962 245.528 340.218 245.72 339.546 246.104C338.874 246.488 338.338 247.048 337.938 247.784C337.538 248.52 337.338 249.384 337.338 250.376C337.338 251.384 337.538 252.264 337.938 253.016C338.338 253.752 338.874 254.32 339.546 254.72C340.218 255.104 340.962 255.296 341.778 255.296C342.594 255.296 343.338 255.104 344.01 254.72C344.698 254.32 345.242 253.752 345.642 253.016C346.042 252.264 346.242 251.392 346.242 250.4ZM360.723 246.272C361.155 245.52 361.795 244.896 362.643 244.4C363.507 243.888 364.507 243.632 365.643 243.632C366.811 243.632 367.867 243.912 368.811 244.472C369.771 245.032 370.523 245.824 371.067 246.848C371.611 247.856 371.883 249.032 371.883 250.376C371.883 251.704 371.611 252.888 371.067 253.928C370.523 254.968 369.771 255.776 368.811 256.352C367.867 256.928 366.811 257.216 365.643 257.216C364.523 257.216 363.531 256.968 362.667 256.472C361.819 255.96 361.171 255.328 360.723 254.576V263.24H358.539V243.848H360.723V246.272ZM369.651 250.376C369.651 249.384 369.451 248.52 369.051 247.784C368.651 247.048 368.107 246.488 367.419 246.104C366.747 245.72 366.003 245.528 365.187 245.528C364.387 245.528 363.643 245.728 362.955 246.128C362.283 246.512 361.739 247.08 361.323 247.832C360.923 248.568 360.723 249.424 360.723 250.4C360.723 251.392 360.923 252.264 361.323 253.016C361.739 253.752 362.283 254.32 362.955 254.72C363.643 255.104 364.387 255.296 365.187 255.296C366.003 255.296 366.747 255.104 367.419 254.72C368.107 254.32 368.651 253.752 369.051 253.016C369.451 252.264 369.651 251.384 369.651 250.376ZM373.942 250.376C373.942 249.032 374.214 247.856 374.758 246.848C375.302 245.824 376.046 245.032 376.99 244.472C377.95 243.912 379.014 243.632 380.182 243.632C381.334 243.632 382.334 243.88 383.182 244.376C384.03 244.872 384.662 245.496 385.078 246.248V243.848H387.286V257H385.078V254.552C384.646 255.32 383.998 255.96 383.134 256.472C382.286 256.968 381.294 257.216 380.158 257.216C378.99 257.216 377.934 256.928 376.99 256.352C376.046 255.776 375.302 254.968 374.758 253.928C374.214 252.888 373.942 251.704 373.942 250.376ZM385.078 250.4C385.078 249.408 384.878 248.544 384.478 247.808C384.078 247.072 383.534 246.512 382.846 246.128C382.174 245.728 381.43 245.528 380.614 245.528C379.798 245.528 379.054 245.72 378.382 246.104C377.71 246.488 377.174 247.048 376.774 247.784C376.374 248.52 376.174 249.384 376.174 250.376C376.174 251.384 376.374 252.264 376.774 253.016C377.174 253.752 377.71 254.32 378.382 254.72C379.054 255.104 379.798 255.296 380.614 255.296C381.43 255.296 382.174 255.104 382.846 254.72C383.534 254.32 384.078 253.752 384.478 253.016C384.878 252.264 385.078 251.392 385.078 250.4ZM383.374 240.128L378.262 242.864V241.232L383.374 238.232V240.128ZM396.401 243.632C397.537 243.632 398.529 243.88 399.377 244.376C400.241 244.872 400.881 245.496 401.297 246.248V243.848H403.505V257.288C403.505 258.488 403.249 259.552 402.737 260.48C402.225 261.424 401.489 262.16 400.529 262.688C399.585 263.216 398.481 263.48 397.217 263.48C395.489 263.48 394.049 263.072 392.897 262.256C391.745 261.44 391.065 260.328 390.857 258.92H393.017C393.257 259.72 393.753 260.36 394.505 260.84C395.257 261.336 396.161 261.584 397.217 261.584C398.417 261.584 399.393 261.208 400.145 260.456C400.913 259.704 401.297 258.648 401.297 257.288V254.528C400.865 255.296 400.225 255.936 399.377 256.448C398.529 256.96 397.537 257.216 396.401 257.216C395.233 257.216 394.169 256.928 393.209 256.352C392.265 255.776 391.521 254.968 390.977 253.928C390.433 252.888 390.161 251.704 390.161 250.376C390.161 249.032 390.433 247.856 390.977 246.848C391.521 245.824 392.265 245.032 393.209 244.472C394.169 243.912 395.233 243.632 396.401 243.632ZM401.297 250.4C401.297 249.408 401.097 248.544 400.697 247.808C400.297 247.072 399.753 246.512 399.065 246.128C398.393 245.728 397.649 245.528 396.833 245.528C396.017 245.528 395.273 245.72 394.601 246.104C393.929 246.488 393.393 247.048 392.993 247.784C392.593 248.52 392.393 249.384 392.393 250.376C392.393 251.384 392.593 252.264 392.993 253.016C393.393 253.752 393.929 254.32 394.601 254.72C395.273 255.104 396.017 255.296 396.833 255.296C397.649 255.296 398.393 255.104 399.065 254.72C399.753 254.32 400.297 253.752 400.697 253.016C401.097 252.264 401.297 251.392 401.297 250.4ZM408.324 241.712C407.908 241.712 407.556 241.568 407.268 241.28C406.98 240.992 406.836 240.64 406.836 240.224C406.836 239.808 406.98 239.456 407.268 239.168C407.556 238.88 407.908 238.736 408.324 238.736C408.724 238.736 409.06 238.88 409.332 239.168C409.62 239.456 409.764 239.808 409.764 240.224C409.764 240.64 409.62 240.992 409.332 241.28C409.06 241.568 408.724 241.712 408.324 241.712ZM409.38 243.848V257H407.196V243.848H409.38ZM419.51 243.608C421.11 243.608 422.406 244.096 423.398 245.072C424.39 246.032 424.886 247.424 424.886 249.248V257H422.726V249.56C422.726 248.248 422.398 247.248 421.742 246.56C421.086 245.856 420.19 245.504 419.054 245.504C417.902 245.504 416.982 245.864 416.294 246.584C415.622 247.304 415.286 248.352 415.286 249.728V257H413.102V243.848H415.286V245.72C415.718 245.048 416.302 244.528 417.038 244.16C417.79 243.792 418.614 243.608 419.51 243.608ZM427.637 250.376C427.637 249.032 427.909 247.856 428.453 246.848C428.997 245.824 429.741 245.032 430.685 244.472C431.645 243.912 432.709 243.632 433.877 243.632C435.029 243.632 436.029 243.88 436.877 244.376C437.725 244.872 438.357 245.496 438.773 246.248V243.848H440.981V257H438.773V254.552C438.341 255.32 437.693 255.96 436.829 256.472C435.981 256.968 434.989 257.216 433.853 257.216C432.685 257.216 431.629 256.928 430.685 256.352C429.741 255.776 428.997 254.968 428.453 253.928C427.909 252.888 427.637 251.704 427.637 250.376ZM438.773 250.4C438.773 249.408 438.573 248.544 438.173 247.808C437.773 247.072 437.229 246.512 436.541 246.128C435.869 245.728 435.125 245.528 434.309 245.528C433.493 245.528 432.749 245.72 432.077 246.104C431.405 246.488 430.869 247.048 430.469 247.784C430.069 248.52 429.869 249.384 429.869 250.376C429.869 251.384 430.069 252.264 430.469 253.016C430.869 253.752 431.405 254.32 432.077 254.72C432.749 255.104 433.493 255.296 434.309 255.296C435.125 255.296 435.869 255.104 436.541 254.72C437.229 254.32 437.773 253.752 438.173 253.016C438.573 252.264 438.773 251.392 438.773 250.4ZM450.255 250.376C450.255 249.032 450.527 247.856 451.071 246.848C451.615 245.824 452.359 245.032 453.303 244.472C454.263 243.912 455.335 243.632 456.519 243.632C457.655 243.632 458.647 243.888 459.495 244.4C460.359 244.896 460.991 245.512 461.391 246.248V243.848H463.599V263.24H461.391V254.576C460.975 255.312 460.335 255.936 459.471 256.448C458.607 256.96 457.599 257.216 456.447 257.216C455.295 257.216 454.247 256.928 453.303 256.352C452.359 255.776 451.615 254.968 451.071 253.928C450.527 252.888 450.255 251.704 450.255 250.376ZM461.391 250.4C461.391 249.408 461.191 248.544 460.791 247.808C460.391 247.072 459.847 246.512 459.159 246.128C458.487 245.728 457.743 245.528 456.927 245.528C456.111 245.528 455.367 245.72 454.695 246.104C454.023 246.488 453.487 247.048 453.087 247.784C452.687 248.52 452.487 249.384 452.487 250.376C452.487 251.384 452.687 252.264 453.087 253.016C453.487 253.752 454.023 254.32 454.695 254.72C455.367 255.104 456.111 255.296 456.927 255.296C457.743 255.296 458.487 255.104 459.159 254.72C459.847 254.32 460.391 253.752 460.791 253.016C461.191 252.264 461.391 251.392 461.391 250.4ZM478.953 243.848V257H476.769V255.056C476.353 255.728 475.769 256.256 475.017 256.64C474.281 257.008 473.465 257.192 472.569 257.192C471.545 257.192 470.625 256.984 469.809 256.568C468.993 256.136 468.345 255.496 467.865 254.648C467.401 253.8 467.169 252.768 467.169 251.552V243.848H469.329V251.264C469.329 252.56 469.657 253.56 470.313 254.264C470.969 254.952 471.865 255.296 473.001 255.296C474.169 255.296 475.089 254.936 475.761 254.216C476.433 253.496 476.769 252.448 476.769 251.072V243.848H478.953ZM494.641 249.92C494.641 250.336 494.617 250.776 494.569 251.24H484.057C484.137 252.536 484.577 253.552 485.377 254.288C486.193 255.008 487.177 255.368 488.329 255.368C489.273 255.368 490.057 255.152 490.681 254.72C491.321 254.272 491.769 253.68 492.025 252.944H494.377C494.025 254.208 493.321 255.24 492.265 256.04C491.209 256.824 489.897 257.216 488.329 257.216C487.081 257.216 485.961 256.936 484.969 256.376C483.993 255.816 483.225 255.024 482.665 254C482.105 252.96 481.825 251.76 481.825 250.4C481.825 249.04 482.097 247.848 482.641 246.824C483.185 245.8 483.945 245.016 484.921 244.472C485.913 243.912 487.049 243.632 488.329 243.632C489.577 243.632 490.681 243.904 491.641 244.448C492.601 244.992 493.337 245.744 493.849 246.704C494.377 247.648 494.641 248.72 494.641 249.92ZM492.385 249.464C492.385 248.632 492.201 247.92 491.833 247.328C491.465 246.72 490.961 246.264 490.321 245.96C489.697 245.64 489.001 245.48 488.233 245.48C487.129 245.48 486.185 245.832 485.401 246.536C484.633 247.24 484.193 248.216 484.081 249.464H492.385ZM506.106 246.296C506.554 245.512 507.21 244.872 508.074 244.376C508.938 243.88 509.922 243.632 511.026 243.632C512.21 243.632 513.274 243.912 514.218 244.472C515.162 245.032 515.906 245.824 516.45 246.848C516.994 247.856 517.266 249.032 517.266 250.376C517.266 251.704 516.994 252.888 516.45 253.928C515.906 254.968 515.154 255.776 514.194 256.352C513.25 256.928 512.194 257.216 511.026 257.216C509.89 257.216 508.89 256.968 508.026 256.472C507.178 255.976 506.538 255.344 506.106 254.576V257H503.922V239.24H506.106V246.296ZM515.034 250.376C515.034 249.384 514.834 248.52 514.434 247.784C514.034 247.048 513.49 246.488 512.802 246.104C512.13 245.72 511.386 245.528 510.57 245.528C509.77 245.528 509.026 245.728 508.338 246.128C507.666 246.512 507.122 247.08 506.706 247.832C506.306 248.568 506.106 249.424 506.106 250.4C506.106 251.392 506.306 252.264 506.706 253.016C507.122 253.752 507.666 254.32 508.338 254.72C509.026 255.104 509.77 255.296 510.57 255.296C511.386 255.296 512.13 255.104 512.802 254.72C513.49 254.32 514.034 253.752 514.434 253.016C514.834 252.264 515.034 251.384 515.034 250.376ZM531.805 243.848V257H529.621V255.056C529.205 255.728 528.621 256.256 527.869 256.64C527.133 257.008 526.317 257.192 525.421 257.192C524.397 257.192 523.477 256.984 522.661 256.568C521.845 256.136 521.197 255.496 520.717 254.648C520.253 253.8 520.021 252.768 520.021 251.552V243.848H522.181V251.264C522.181 252.56 522.509 253.56 523.165 254.264C523.821 254.952 524.717 255.296 525.853 255.296C527.021 255.296 527.941 254.936 528.613 254.216C529.285 253.496 529.621 252.448 529.621 251.072V243.848H531.805ZM540.149 257.216C539.141 257.216 538.237 257.048 537.437 256.712C536.637 256.36 536.005 255.88 535.541 255.272C535.077 254.648 534.821 253.936 534.773 253.136H537.029C537.093 253.792 537.397 254.328 537.941 254.744C538.501 255.16 539.229 255.368 540.125 255.368C540.957 255.368 541.613 255.184 542.093 254.816C542.573 254.448 542.813 253.984 542.813 253.424C542.813 252.848 542.557 252.424 542.045 252.152C541.533 251.864 540.741 251.584 539.669 251.312C538.693 251.056 537.893 250.8 537.269 250.544C536.661 250.272 536.133 249.88 535.685 249.368C535.253 248.84 535.037 248.152 535.037 247.304C535.037 246.632 535.237 246.016 535.637 245.456C536.037 244.896 536.605 244.456 537.341 244.136C538.077 243.8 538.917 243.632 539.861 243.632C541.317 243.632 542.493 244 543.389 244.736C544.285 245.472 544.765 246.48 544.829 247.76H542.645C542.597 247.072 542.317 246.52 541.805 246.104C541.309 245.688 540.637 245.48 539.789 245.48C539.005 245.48 538.381 245.648 537.917 245.984C537.453 246.32 537.221 246.76 537.221 247.304C537.221 247.736 537.357 248.096 537.629 248.384C537.917 248.656 538.269 248.88 538.685 249.056C539.117 249.216 539.709 249.4 540.461 249.608C541.405 249.864 542.173 250.12 542.765 250.376C543.357 250.616 543.861 250.984 544.277 251.48C544.709 251.976 544.933 252.624 544.949 253.424C544.949 254.144 544.749 254.792 544.349 255.368C543.949 255.944 543.381 256.4 542.645 256.736C541.925 257.056 541.093 257.216 540.149 257.216ZM547.216 250.4C547.216 249.04 547.488 247.856 548.032 246.848C548.576 245.824 549.328 245.032 550.288 244.472C551.264 243.912 552.376 243.632 553.624 243.632C555.24 243.632 556.568 244.024 557.608 244.808C558.664 245.592 559.36 246.68 559.696 248.072H557.344C557.12 247.272 556.68 246.64 556.024 246.176C555.384 245.712 554.584 245.48 553.624 245.48C552.376 245.48 551.368 245.912 550.6 246.776C549.832 247.624 549.448 248.832 549.448 250.4C549.448 251.984 549.832 253.208 550.6 254.072C551.368 254.936 552.376 255.368 553.624 255.368C554.584 255.368 555.384 255.144 556.024 254.696C556.664 254.248 557.104 253.608 557.344 252.776H559.696C559.344 254.12 558.64 255.2 557.584 256.016C556.528 256.816 555.208 257.216 553.624 257.216C552.376 257.216 551.264 256.936 550.288 256.376C549.328 255.816 548.576 255.024 548.032 254C547.488 252.976 547.216 251.776 547.216 250.4ZM561.794 250.376C561.794 249.032 562.066 247.856 562.61 246.848C563.154 245.824 563.898 245.032 564.842 244.472C565.802 243.912 566.866 243.632 568.034 243.632C569.186 243.632 570.186 243.88 571.034 244.376C571.882 244.872 572.514 245.496 572.93 246.248V243.848H575.138V257H572.93V254.552C572.498 255.32 571.85 255.96 570.986 256.472C570.138 256.968 569.146 257.216 568.01 257.216C566.842 257.216 565.786 256.928 564.842 256.352C563.898 255.776 563.154 254.968 562.61 253.928C562.066 252.888 561.794 251.704 561.794 250.376ZM572.93 250.4C572.93 249.408 572.73 248.544 572.33 247.808C571.93 247.072 571.386 246.512 570.698 246.128C570.026 245.728 569.282 245.528 568.466 245.528C567.65 245.528 566.906 245.72 566.234 246.104C565.562 246.488 565.026 247.048 564.626 247.784C564.226 248.52 564.026 249.384 564.026 250.376C564.026 251.384 564.226 252.264 564.626 253.016C565.026 253.752 565.562 254.32 566.234 254.72C566.906 255.104 567.65 255.296 568.466 255.296C569.282 255.296 570.026 255.104 570.698 254.72C571.386 254.32 571.93 253.752 572.33 253.016C572.73 252.264 572.93 251.392 572.93 250.4ZM583.484 257.216C582.476 257.216 581.572 257.048 580.772 256.712C579.972 256.36 579.34 255.88 578.876 255.272C578.412 254.648 578.156 253.936 578.108 253.136H580.364C580.428 253.792 580.732 254.328 581.276 254.744C581.836 255.16 582.564 255.368 583.46 255.368C584.292 255.368 584.948 255.184 585.428 254.816C585.908 254.448 586.148 253.984 586.148 253.424C586.148 252.848 585.892 252.424 585.38 252.152C584.868 251.864 584.076 251.584 583.004 251.312C582.028 251.056 581.228 250.8 580.604 250.544C579.996 250.272 579.468 249.88 579.02 249.368C578.588 248.84 578.372 248.152 578.372 247.304C578.372 246.632 578.572 246.016 578.972 245.456C579.372 244.896 579.94 244.456 580.676 244.136C581.412 243.8 582.252 243.632 583.196 243.632C584.652 243.632 585.828 244 586.724 244.736C587.62 245.472 588.1 246.48 588.164 247.76H585.98C585.932 247.072 585.652 246.52 585.14 246.104C584.644 245.688 583.972 245.48 583.124 245.48C582.34 245.48 581.716 245.648 581.252 245.984C580.788 246.32 580.556 246.76 580.556 247.304C580.556 247.736 580.692 248.096 580.964 248.384C581.252 248.656 581.604 248.88 582.02 249.056C582.452 249.216 583.044 249.4 583.796 249.608C584.74 249.864 585.508 250.12 586.1 250.376C586.692 250.616 587.196 250.984 587.612 251.48C588.044 251.976 588.268 252.624 588.284 253.424C588.284 254.144 588.084 254.792 587.684 255.368C587.284 255.944 586.716 256.4 585.98 256.736C585.26 257.056 584.428 257.216 583.484 257.216ZM604.174 243.608C605.774 243.608 607.07 244.096 608.062 245.072C609.054 246.032 609.55 247.424 609.55 249.248V257H607.39V249.56C607.39 248.248 607.062 247.248 606.406 246.56C605.75 245.856 604.854 245.504 603.718 245.504C602.566 245.504 601.646 245.864 600.958 246.584C600.286 247.304 599.95 248.352 599.95 249.728V257H597.766V243.848H599.95V245.72C600.382 245.048 600.966 244.528 601.702 244.16C602.454 243.792 603.278 243.608 604.174 243.608ZM618.854 257.216C617.622 257.216 616.502 256.936 615.494 256.376C614.502 255.816 613.718 255.024 613.142 254C612.582 252.96 612.302 251.76 612.302 250.4C612.302 249.056 612.59 247.872 613.166 246.848C613.758 245.808 614.558 245.016 615.566 244.472C616.574 243.912 617.702 243.632 618.95 243.632C620.198 243.632 621.326 243.912 622.334 244.472C623.342 245.016 624.134 245.8 624.71 246.824C625.302 247.848 625.598 249.04 625.598 250.4C625.598 251.76 625.294 252.96 624.686 254C624.094 255.024 623.286 255.816 622.262 256.376C621.238 256.936 620.102 257.216 618.854 257.216ZM618.854 255.296C619.638 255.296 620.374 255.112 621.062 254.744C621.75 254.376 622.302 253.824 622.718 253.088C623.15 252.352 623.366 251.456 623.366 250.4C623.366 249.344 623.158 248.448 622.742 247.712C622.326 246.976 621.782 246.432 621.11 246.08C620.438 245.712 619.71 245.528 618.926 245.528C618.126 245.528 617.39 245.712 616.718 246.08C616.062 246.432 615.534 246.976 615.134 247.712C614.734 248.448 614.534 249.344 614.534 250.4C614.534 251.472 614.726 252.376 615.11 253.112C615.51 253.848 616.038 254.4 616.694 254.768C617.35 255.12 618.07 255.296 618.854 255.296ZM639.524 257.216C638.516 257.216 637.612 257.048 636.812 256.712C636.012 256.36 635.38 255.88 634.916 255.272C634.452 254.648 634.196 253.936 634.148 253.136H636.404C636.468 253.792 636.772 254.328 637.316 254.744C637.876 255.16 638.604 255.368 639.5 255.368C640.332 255.368 640.988 255.184 641.468 254.816C641.948 254.448 642.188 253.984 642.188 253.424C642.188 252.848 641.932 252.424 641.42 252.152C640.908 251.864 640.116 251.584 639.044 251.312C638.068 251.056 637.268 250.8 636.644 250.544C636.036 250.272 635.508 249.88 635.06 249.368C634.628 248.84 634.412 248.152 634.412 247.304C634.412 246.632 634.612 246.016 635.012 245.456C635.412 244.896 635.98 244.456 636.716 244.136C637.452 243.8 638.292 243.632 639.236 243.632C640.692 243.632 641.868 244 642.764 244.736C643.66 245.472 644.14 246.48 644.204 247.76H642.02C641.972 247.072 641.692 246.52 641.18 246.104C640.684 245.688 640.012 245.48 639.164 245.48C638.38 245.48 637.756 245.648 637.292 245.984C636.828 246.32 636.596 246.76 636.596 247.304C636.596 247.736 636.732 248.096 637.004 248.384C637.292 248.656 637.644 248.88 638.06 249.056C638.492 249.216 639.084 249.4 639.836 249.608C640.78 249.864 641.548 250.12 642.14 250.376C642.732 250.616 643.236 250.984 643.652 251.48C644.084 251.976 644.308 252.624 644.324 253.424C644.324 254.144 644.124 254.792 643.724 255.368C643.324 255.944 642.756 256.4 642.02 256.736C641.3 257.056 640.468 257.216 639.524 257.216ZM659.407 249.92C659.407 250.336 659.383 250.776 659.335 251.24H648.823C648.903 252.536 649.343 253.552 650.143 254.288C650.959 255.008 651.943 255.368 653.095 255.368C654.039 255.368 654.823 255.152 655.447 254.72C656.087 254.272 656.535 253.68 656.791 252.944H659.143C658.791 254.208 658.087 255.24 657.031 256.04C655.975 256.824 654.663 257.216 653.095 257.216C651.847 257.216 650.727 256.936 649.735 256.376C648.759 255.816 647.991 255.024 647.431 254C646.871 252.96 646.591 251.76 646.591 250.4C646.591 249.04 646.863 247.848 647.407 246.824C647.951 245.8 648.711 245.016 649.687 244.472C650.679 243.912 651.815 243.632 653.095 243.632C654.343 243.632 655.447 243.904 656.407 244.448C657.367 244.992 658.103 245.744 658.615 246.704C659.143 247.648 659.407 248.72 659.407 249.92ZM657.151 249.464C657.151 248.632 656.967 247.92 656.599 247.328C656.231 246.72 655.727 246.264 655.087 245.96C654.463 245.64 653.767 245.48 652.999 245.48C651.895 245.48 650.951 245.832 650.167 246.536C649.399 247.24 648.959 248.216 648.847 249.464H657.151ZM680.688 249.92C680.688 250.336 680.664 250.776 680.616 251.24H670.104C670.184 252.536 670.624 253.552 671.424 254.288C672.24 255.008 673.224 255.368 674.376 255.368C675.32 255.368 676.104 255.152 676.728 254.72C677.368 254.272 677.816 253.68 678.072 252.944H680.424C680.072 254.208 679.368 255.24 678.312 256.04C677.256 256.824 675.944 257.216 674.376 257.216C673.128 257.216 672.008 256.936 671.016 256.376C670.04 255.816 669.272 255.024 668.712 254C668.152 252.96 667.872 251.76 667.872 250.4C667.872 249.04 668.144 247.848 668.688 246.824C669.232 245.8 669.992 245.016 670.968 244.472C671.96 243.912 673.096 243.632 674.376 243.632C675.624 243.632 676.728 243.904 677.688 244.448C678.648 244.992 679.384 245.744 679.896 246.704C680.424 247.648 680.688 248.72 680.688 249.92ZM678.432 249.464C678.432 248.632 678.248 247.92 677.88 247.328C677.512 246.72 677.008 246.264 676.368 245.96C675.744 245.64 675.048 245.48 674.28 245.48C673.176 245.48 672.232 245.832 671.448 246.536C670.68 247.24 670.24 248.216 670.128 249.464H678.432ZM689.979 243.608C691.579 243.608 692.875 244.096 693.867 245.072C694.859 246.032 695.355 247.424 695.355 249.248V257H693.195V249.56C693.195 248.248 692.867 247.248 692.211 246.56C691.555 245.856 690.659 245.504 689.523 245.504C688.371 245.504 687.451 245.864 686.763 246.584C686.091 247.304 685.755 248.352 685.755 249.728V257H683.571V243.848H685.755V245.72C686.187 245.048 686.771 244.528 687.507 244.16C688.259 243.792 689.083 243.608 689.979 243.608ZM698.106 250.4C698.106 249.04 698.378 247.856 698.922 246.848C699.466 245.824 700.218 245.032 701.178 244.472C702.154 243.912 703.266 243.632 704.514 243.632C706.13 243.632 707.458 244.024 708.498 244.808C709.554 245.592 710.25 246.68 710.586 248.072H708.234C708.01 247.272 707.57 246.64 706.914 246.176C706.274 245.712 705.474 245.48 704.514 245.48C703.266 245.48 702.258 245.912 701.49 246.776C700.722 247.624 700.338 248.832 700.338 250.4C700.338 251.984 700.722 253.208 701.49 254.072C702.258 254.936 703.266 255.368 704.514 255.368C705.474 255.368 706.274 255.144 706.914 254.696C707.554 254.248 707.994 253.608 708.234 252.776H710.586C710.234 254.12 709.53 255.2 708.474 256.016C707.418 256.816 706.098 257.216 704.514 257.216C703.266 257.216 702.154 256.936 701.178 256.376C700.218 255.816 699.466 255.024 698.922 254C698.378 252.976 698.106 251.776 698.106 250.4ZM725.164 243.848V257H722.98V255.056C722.564 255.728 721.98 256.256 721.228 256.64C720.492 257.008 719.676 257.192 718.78 257.192C717.756 257.192 716.836 256.984 716.02 256.568C715.204 256.136 714.556 255.496 714.076 254.648C713.612 253.8 713.38 252.768 713.38 251.552V243.848H715.54V251.264C715.54 252.56 715.868 253.56 716.524 254.264C717.18 254.952 718.076 255.296 719.212 255.296C720.38 255.296 721.3 254.936 721.972 254.216C722.644 253.496 722.98 252.448 722.98 251.072V243.848H725.164ZM740.852 249.92C740.852 250.336 740.828 250.776 740.78 251.24H730.268C730.348 252.536 730.788 253.552 731.588 254.288C732.404 255.008 733.388 255.368 734.54 255.368C735.484 255.368 736.268 255.152 736.892 254.72C737.532 254.272 737.98 253.68 738.236 252.944H740.588C740.236 254.208 739.532 255.24 738.476 256.04C737.42 256.824 736.108 257.216 734.54 257.216C733.292 257.216 732.172 256.936 731.18 256.376C730.204 255.816 729.436 255.024 728.876 254C728.316 252.96 728.036 251.76 728.036 250.4C728.036 249.04 728.308 247.848 728.852 246.824C729.396 245.8 730.156 245.016 731.132 244.472C732.124 243.912 733.26 243.632 734.54 243.632C735.788 243.632 736.892 243.904 737.852 244.448C738.812 244.992 739.548 245.744 740.06 246.704C740.588 247.648 740.852 248.72 740.852 249.92ZM738.596 249.464C738.596 248.632 738.412 247.92 738.044 247.328C737.676 246.72 737.172 246.264 736.532 245.96C735.908 245.64 735.212 245.48 734.444 245.48C733.34 245.48 732.396 245.832 731.612 246.536C730.844 247.24 730.404 248.216 730.292 249.464H738.596ZM750.143 243.608C751.743 243.608 753.039 244.096 754.031 245.072C755.023 246.032 755.519 247.424 755.519 249.248V257H753.359V249.56C753.359 248.248 753.031 247.248 752.375 246.56C751.719 245.856 750.823 245.504 749.687 245.504C748.535 245.504 747.615 245.864 746.927 246.584C746.255 247.304 745.919 248.352 745.919 249.728V257H743.735V243.848H745.919V245.72C746.351 245.048 746.935 244.528 747.671 244.16C748.423 243.792 749.247 243.608 750.143 243.608ZM761.75 245.648V253.4C761.75 254.04 761.886 254.496 762.158 254.768C762.43 255.024 762.902 255.152 763.574 255.152H765.182V257H763.214C761.998 257 761.086 256.72 760.478 256.16C759.87 255.6 759.566 254.68 759.566 253.4V245.648H757.862V243.848H759.566V240.536H761.75V243.848H765.182V245.648H761.75ZM770.012 245.984C770.396 245.232 770.94 244.648 771.644 244.232C772.364 243.816 773.236 243.608 774.26 243.608V245.864H773.684C771.236 245.864 770.012 247.192 770.012 249.848V257H767.828V243.848H770.012V245.984ZM775.966 250.376C775.966 249.032 776.238 247.856 776.782 246.848C777.326 245.824 778.07 245.032 779.014 244.472C779.974 243.912 781.038 243.632 782.206 243.632C783.358 243.632 784.358 243.88 785.206 244.376C786.054 244.872 786.686 245.496 787.102 246.248V243.848H789.31V257H787.102V254.552C786.67 255.32 786.022 255.96 785.158 256.472C784.31 256.968 783.318 257.216 782.182 257.216C781.014 257.216 779.958 256.928 779.014 256.352C778.07 255.776 777.326 254.968 776.782 253.928C776.238 252.888 775.966 251.704 775.966 250.376ZM787.102 250.4C787.102 249.408 786.902 248.544 786.502 247.808C786.102 247.072 785.558 246.512 784.87 246.128C784.198 245.728 783.454 245.528 782.638 245.528C781.822 245.528 781.078 245.72 780.406 246.104C779.734 246.488 779.198 247.048 778.798 247.784C778.398 248.52 778.198 249.384 778.198 250.376C778.198 251.384 778.398 252.264 778.798 253.016C779.198 253.752 779.734 254.32 780.406 254.72C781.078 255.104 781.822 255.296 782.638 255.296C783.454 255.296 784.198 255.104 784.87 254.72C785.558 254.32 786.102 253.752 786.502 253.016C786.902 252.264 787.102 251.392 787.102 250.4ZM798.583 250.376C798.583 249.032 798.855 247.856 799.399 246.848C799.943 245.824 800.687 245.032 801.631 244.472C802.591 243.912 803.655 243.632 804.823 243.632C805.975 243.632 806.975 243.88 807.823 244.376C808.671 244.872 809.303 245.496 809.719 246.248V243.848H811.927V257H809.719V254.552C809.287 255.32 808.639 255.96 807.775 256.472C806.927 256.968 805.935 257.216 804.799 257.216C803.631 257.216 802.575 256.928 801.631 256.352C800.687 255.776 799.943 254.968 799.399 253.928C798.855 252.888 798.583 251.704 798.583 250.376ZM809.719 250.4C809.719 249.408 809.519 248.544 809.119 247.808C808.719 247.072 808.175 246.512 807.487 246.128C806.815 245.728 806.071 245.528 805.255 245.528C804.439 245.528 803.695 245.72 803.023 246.104C802.351 246.488 801.815 247.048 801.415 247.784C801.015 248.52 800.815 249.384 800.815 250.376C800.815 251.384 801.015 252.264 801.415 253.016C801.815 253.752 802.351 254.32 803.023 254.72C803.695 255.104 804.439 255.296 805.255 255.296C806.071 255.296 806.815 255.104 807.487 254.72C808.175 254.32 808.719 253.752 809.119 253.016C809.519 252.264 809.719 251.392 809.719 250.4ZM814.802 250.376C814.802 249.032 815.074 247.856 815.618 246.848C816.162 245.824 816.906 245.032 817.85 244.472C818.81 243.912 819.882 243.632 821.066 243.632C822.202 243.632 823.194 243.888 824.042 244.4C824.906 244.896 825.538 245.512 825.938 246.248V243.848H828.146V263.24H825.938V254.576C825.522 255.312 824.882 255.936 824.018 256.448C823.154 256.96 822.146 257.216 820.994 257.216C819.842 257.216 818.794 256.928 817.85 256.352C816.906 255.776 816.162 254.968 815.618 253.928C815.074 252.888 814.802 251.704 814.802 250.376ZM825.938 250.4C825.938 249.408 825.738 248.544 825.338 247.808C824.938 247.072 824.394 246.512 823.706 246.128C823.034 245.728 822.29 245.528 821.474 245.528C820.658 245.528 819.914 245.72 819.242 246.104C818.57 246.488 818.034 247.048 817.634 247.784C817.234 248.52 817.034 249.384 817.034 250.376C817.034 251.384 817.234 252.264 817.634 253.016C818.034 253.752 818.57 254.32 819.242 254.72C819.914 255.104 820.658 255.296 821.474 255.296C822.29 255.296 823.034 255.104 823.706 254.72C824.394 254.32 824.938 253.752 825.338 253.016C825.738 252.264 825.938 251.392 825.938 250.4ZM843.5 243.848V257H841.316V255.056C840.9 255.728 840.316 256.256 839.564 256.64C838.828 257.008 838.012 257.192 837.116 257.192C836.092 257.192 835.172 256.984 834.356 256.568C833.54 256.136 832.892 255.496 832.412 254.648C831.948 253.8 831.716 252.768 831.716 251.552V243.848H833.876V251.264C833.876 252.56 834.204 253.56 834.86 254.264C835.516 254.952 836.412 255.296 837.548 255.296C838.716 255.296 839.636 254.936 840.308 254.216C840.98 253.496 841.316 252.448 841.316 251.072V243.848H843.5ZM849.372 243.848V257H847.188V243.848H849.372ZM850.62 240.128L845.508 242.864V241.232L850.62 238.232V240.128ZM853.79 257.144C853.374 257.144 853.022 257 852.734 256.712C852.446 256.424 852.302 256.072 852.302 255.656C852.302 255.24 852.446 254.888 852.734 254.6C853.022 254.312 853.374 254.168 853.79 254.168C854.19 254.168 854.526 254.312 854.798 254.6C855.086 254.888 855.23 255.24 855.23 255.656C855.23 256.072 855.086 256.424 854.798 256.712C854.526 257 854.19 257.144 853.79 257.144Z" fill="#FFA80F" fill-opacity="0.980392"/>
<rect x="439" y="291" width="302" height="56" rx="12" fill="#FFA80F" fill-opacity="0.980392"/>
<path d="M490.536 313.768L486.552 325H483.128L479.144 313.768H482.056L484.84 322.248L487.64 313.768H490.536ZM495.744 325.128C494.869 325.128 494.08 324.941 493.376 324.568C492.682 324.195 492.133 323.661 491.728 322.968C491.333 322.275 491.136 321.464 491.136 320.536C491.136 319.619 491.338 318.813 491.743 318.12C492.149 317.416 492.704 316.877 493.408 316.504C494.112 316.131 494.901 315.944 495.776 315.944C496.65 315.944 497.44 316.131 498.144 316.504C498.848 316.877 499.402 317.416 499.808 318.12C500.213 318.813 500.416 319.619 500.416 320.536C500.416 321.453 500.208 322.264 499.792 322.968C499.386 323.661 498.826 324.195 498.112 324.568C497.408 324.941 496.618 325.128 495.744 325.128ZM495.744 322.76C496.266 322.76 496.709 322.568 497.072 322.184C497.445 321.8 497.632 321.251 497.632 320.536C497.632 319.821 497.45 319.272 497.088 318.888C496.736 318.504 496.298 318.312 495.776 318.312C495.242 318.312 494.8 318.504 494.448 318.888C494.096 319.261 493.92 319.811 493.92 320.536C493.92 321.251 494.09 321.8 494.432 322.184C494.784 322.568 495.221 322.76 495.744 322.76ZM504.603 313.16V325H501.867V313.16H504.603ZM510.602 322.44L512.538 316.072H515.45L512.282 325H508.906L505.738 316.072H508.666L510.602 322.44ZM525.017 320.392C525.017 320.648 525.001 320.915 524.969 321.192H518.777C518.82 321.747 518.996 322.173 519.305 322.472C519.625 322.76 520.015 322.904 520.473 322.904C521.156 322.904 521.631 322.616 521.897 322.04H524.809C524.66 322.627 524.388 323.155 523.993 323.624C523.609 324.093 523.124 324.461 522.537 324.728C521.951 324.995 521.295 325.128 520.569 325.128C519.695 325.128 518.916 324.941 518.233 324.568C517.551 324.195 517.017 323.661 516.633 322.968C516.249 322.275 516.057 321.464 516.057 320.536C516.057 319.608 516.244 318.797 516.617 318.104C517.001 317.411 517.535 316.877 518.217 316.504C518.9 316.131 519.684 315.944 520.569 315.944C521.433 315.944 522.201 316.125 522.873 316.488C523.545 316.851 524.068 317.368 524.441 318.04C524.825 318.712 525.017 319.496 525.017 320.392ZM522.217 319.672C522.217 319.203 522.057 318.829 521.737 318.552C521.417 318.275 521.017 318.136 520.537 318.136C520.079 318.136 519.689 318.269 519.369 318.536C519.06 318.803 518.868 319.181 518.793 319.672H522.217ZM529.197 317.56C529.517 317.069 529.917 316.685 530.397 316.408C530.877 316.12 531.41 315.976 531.997 315.976V318.872H531.245C530.562 318.872 530.05 319.021 529.709 319.32C529.367 319.608 529.197 320.12 529.197 320.856V325H526.461V316.072H529.197V317.56ZM536.151 320.52C536.151 319.603 536.322 318.797 536.663 318.104C537.015 317.411 537.49 316.877 538.087 316.504C538.684 316.131 539.351 315.944 540.087 315.944C540.716 315.944 541.266 316.072 541.735 316.328C542.215 316.584 542.583 316.92 542.839 317.336V316.072H545.575V325H542.839V323.736C542.572 324.152 542.199 324.488 541.719 324.744C541.25 325 540.7 325.128 540.071 325.128C539.346 325.128 538.684 324.941 538.087 324.568C537.49 324.184 537.015 323.645 536.663 322.952C536.322 322.248 536.151 321.437 536.151 320.52ZM542.839 320.536C542.839 319.853 542.647 319.315 542.263 318.92C541.89 318.525 541.431 318.328 540.887 318.328C540.343 318.328 539.879 318.525 539.495 318.92C539.122 319.304 538.935 319.837 538.935 320.52C538.935 321.203 539.122 321.747 539.495 322.152C539.879 322.547 540.343 322.744 540.887 322.744C541.431 322.744 541.89 322.547 542.263 322.152C542.647 321.757 542.839 321.219 542.839 320.536ZM553.681 313.16V325H550.945V313.16H553.681ZM555.12 320.52C555.12 319.603 555.291 318.797 555.632 318.104C555.984 317.411 556.459 316.877 557.056 316.504C557.653 316.131 558.32 315.944 559.056 315.944C559.685 315.944 560.235 316.072 560.704 316.328C561.184 316.584 561.552 316.92 561.808 317.336V316.072H564.544V325H561.808V323.736C561.541 324.152 561.168 324.488 560.688 324.744C560.219 325 559.669 325.128 559.04 325.128C558.315 325.128 557.653 324.941 557.056 324.568C556.459 324.184 555.984 323.645 555.632 322.952C555.291 322.248 555.12 321.437 555.12 320.52ZM561.808 320.536C561.808 319.853 561.616 319.315 561.232 318.92C560.859 318.525 560.4 318.328 559.856 318.328C559.312 318.328 558.848 318.525 558.464 318.92C558.091 319.304 557.904 319.837 557.904 320.52C557.904 321.203 558.091 321.747 558.464 322.152C558.848 322.547 559.312 322.744 559.856 322.744C560.4 322.744 560.859 322.547 561.232 322.152C561.616 321.757 561.808 321.219 561.808 320.536ZM572.65 317.336C572.917 316.92 573.285 316.584 573.754 316.328C574.223 316.072 574.773 315.944 575.402 315.944C576.138 315.944 576.805 316.131 577.402 316.504C577.999 316.877 578.469 317.411 578.81 318.104C579.162 318.797 579.338 319.603 579.338 320.52C579.338 321.437 579.162 322.248 578.81 322.952C578.469 323.645 577.999 324.184 577.402 324.568C576.805 324.941 576.138 325.128 575.402 325.128C574.783 325.128 574.234 325 573.754 324.744C573.285 324.488 572.917 324.157 572.65 323.752V329.256H569.914V316.072H572.65V317.336ZM576.554 320.52C576.554 319.837 576.362 319.304 575.978 318.92C575.605 318.525 575.141 318.328 574.586 318.328C574.042 318.328 573.578 318.525 573.194 318.92C572.821 319.315 572.634 319.853 572.634 320.536C572.634 321.219 572.821 321.757 573.194 322.152C573.578 322.547 574.042 322.744 574.586 322.744C575.13 322.744 575.594 322.547 575.978 322.152C576.362 321.747 576.554 321.203 576.554 320.52ZM580.229 320.52C580.229 319.603 580.4 318.797 580.741 318.104C581.093 317.411 581.568 316.877 582.165 316.504C582.763 316.131 583.429 315.944 584.165 315.944C584.795 315.944 585.344 316.072 585.813 316.328C586.293 316.584 586.661 316.92 586.917 317.336V316.072H589.653V325H586.917V323.736C586.651 324.152 586.277 324.488 585.797 324.744C585.328 325 584.779 325.128 584.149 325.128C583.424 325.128 582.763 324.941 582.165 324.568C581.568 324.184 581.093 323.645 580.741 322.952C580.4 322.248 580.229 321.437 580.229 320.52ZM586.917 320.536C586.917 319.853 586.725 319.315 586.341 318.92C585.968 318.525 585.509 318.328 584.965 318.328C584.421 318.328 583.957 318.525 583.573 318.92C583.2 319.304 583.013 319.837 583.013 320.52C583.013 321.203 583.2 321.747 583.573 322.152C583.957 322.547 584.421 322.744 584.965 322.744C585.509 322.744 585.968 322.547 586.341 322.152C586.725 321.757 586.917 321.219 586.917 320.536ZM595.025 315.944C595.654 315.944 596.203 316.072 596.673 316.328C597.153 316.584 597.521 316.92 597.777 317.336V316.072H600.513V324.984C600.513 325.805 600.347 326.547 600.017 327.208C599.697 327.88 599.201 328.413 598.529 328.808C597.867 329.203 597.041 329.4 596.049 329.4C594.726 329.4 593.654 329.085 592.833 328.456C592.011 327.837 591.542 326.995 591.425 325.928H594.129C594.214 326.269 594.417 326.536 594.737 326.728C595.057 326.931 595.451 327.032 595.921 327.032C596.486 327.032 596.934 326.867 597.265 326.536C597.606 326.216 597.777 325.699 597.777 324.984V323.72C597.51 324.136 597.142 324.477 596.673 324.744C596.203 325 595.654 325.128 595.025 325.128C594.289 325.128 593.622 324.941 593.025 324.568C592.427 324.184 591.953 323.645 591.601 322.952C591.259 322.248 591.089 321.437 591.089 320.52C591.089 319.603 591.259 318.797 591.601 318.104C591.953 317.411 592.427 316.877 593.025 316.504C593.622 316.131 594.289 315.944 595.025 315.944ZM597.777 320.536C597.777 319.853 597.585 319.315 597.201 318.92C596.827 318.525 596.369 318.328 595.825 318.328C595.281 318.328 594.817 318.525 594.433 318.92C594.059 319.304 593.873 319.837 593.873 320.52C593.873 321.203 594.059 321.747 594.433 322.152C594.817 322.547 595.281 322.744 595.825 322.744C596.369 322.744 596.827 322.547 597.201 322.152C597.585 321.757 597.777 321.219 597.777 320.536ZM603.868 315.144C603.388 315.144 602.993 315.005 602.684 314.728C602.385 314.44 602.236 314.088 602.236 313.672C602.236 313.245 602.385 312.893 602.684 312.616C602.993 312.328 603.388 312.184 603.868 312.184C604.337 312.184 604.721 312.328 605.02 312.616C605.329 312.893 605.484 313.245 605.484 313.672C605.484 314.088 605.329 314.44 605.02 314.728C604.721 315.005 604.337 315.144 603.868 315.144ZM605.228 316.072V325H602.492V316.072H605.228ZM612.651 315.976C613.696 315.976 614.528 316.317 615.147 317C615.776 317.672 616.091 318.6 616.091 319.784V325H613.371V320.152C613.371 319.555 613.216 319.091 612.907 318.76C612.597 318.429 612.181 318.264 611.659 318.264C611.136 318.264 610.72 318.429 610.411 318.76C610.101 319.091 609.947 319.555 609.947 320.152V325H607.211V316.072H609.947V317.256C610.224 316.861 610.597 316.552 611.067 316.328C611.536 316.093 612.064 315.976 612.651 315.976ZM617.448 320.52C617.448 319.603 617.619 318.797 617.96 318.104C618.312 317.411 618.787 316.877 619.384 316.504C619.981 316.131 620.648 315.944 621.384 315.944C622.013 315.944 622.563 316.072 623.032 316.328C623.512 316.584 623.88 316.92 624.136 317.336V316.072H626.872V325H624.136V323.736C623.869 324.152 623.496 324.488 623.016 324.744C622.547 325 621.997 325.128 621.368 325.128C620.643 325.128 619.981 324.941 619.384 324.568C618.787 324.184 618.312 323.645 617.96 322.952C617.619 322.248 617.448 321.437 617.448 320.52ZM624.136 320.536C624.136 319.853 623.944 319.315 623.56 318.92C623.187 318.525 622.728 318.328 622.184 318.328C621.64 318.328 621.176 318.525 620.792 318.92C620.419 319.304 620.232 319.837 620.232 320.52C620.232 321.203 620.419 321.747 620.792 322.152C621.176 322.547 621.64 322.744 622.184 322.744C622.728 322.744 623.187 322.547 623.56 322.152C623.944 321.757 624.136 321.219 624.136 320.536ZM631.698 320.52C631.698 319.603 631.869 318.797 632.21 318.104C632.562 317.411 633.037 316.877 633.634 316.504C634.231 316.131 634.898 315.944 635.634 315.944C636.221 315.944 636.754 316.067 637.234 316.312C637.725 316.557 638.109 316.888 638.386 317.304V313.16H641.122V325H638.386V323.72C638.13 324.147 637.762 324.488 637.282 324.744C636.813 325 636.263 325.128 635.634 325.128C634.898 325.128 634.231 324.941 633.634 324.568C633.037 324.184 632.562 323.645 632.21 322.952C631.869 322.248 631.698 321.437 631.698 320.52ZM638.386 320.536C638.386 319.853 638.194 319.315 637.81 318.92C637.437 318.525 636.978 318.328 636.434 318.328C635.89 318.328 635.426 318.525 635.042 318.92C634.669 319.304 634.482 319.837 634.482 320.52C634.482 321.203 634.669 321.747 635.042 322.152C635.426 322.547 635.89 322.744 636.434 322.744C636.978 322.744 637.437 322.547 637.81 322.152C638.194 321.757 638.386 321.219 638.386 320.536ZM651.517 320.392C651.517 320.648 651.501 320.915 651.469 321.192H645.277C645.32 321.747 645.496 322.173 645.805 322.472C646.125 322.76 646.515 322.904 646.973 322.904C647.656 322.904 648.131 322.616 648.397 322.04H651.309C651.16 322.627 650.888 323.155 650.493 323.624C650.109 324.093 649.624 324.461 649.037 324.728C648.451 324.995 647.795 325.128 647.069 325.128C646.195 325.128 645.416 324.941 644.733 324.568C644.051 324.195 643.517 323.661 643.133 322.968C642.749 322.275 642.557 321.464 642.557 320.536C642.557 319.608 642.744 318.797 643.117 318.104C643.501 317.411 644.035 316.877 644.717 316.504C645.4 316.131 646.184 315.944 647.069 315.944C647.933 315.944 648.701 316.125 649.373 316.488C650.045 316.851 650.568 317.368 650.941 318.04C651.325 318.712 651.517 319.496 651.517 320.392ZM648.717 319.672C648.717 319.203 648.557 318.829 648.237 318.552C647.917 318.275 647.517 318.136 647.037 318.136C646.579 318.136 646.189 318.269 645.869 318.536C645.56 318.803 645.368 319.181 645.293 319.672H648.717ZM657.727 315.144C657.247 315.144 656.853 315.005 656.543 314.728C656.245 314.44 656.095 314.088 656.095 313.672C656.095 313.245 656.245 312.893 656.543 312.616C656.853 312.328 657.247 312.184 657.727 312.184C658.197 312.184 658.581 312.328 658.879 312.616C659.189 312.893 659.343 313.245 659.343 313.672C659.343 314.088 659.189 314.44 658.879 314.728C658.581 315.005 658.197 315.144 657.727 315.144ZM659.087 316.072V325H656.351V316.072H659.087ZM666.51 315.976C667.555 315.976 668.387 316.317 669.006 317C669.635 317.672 669.95 318.6 669.95 319.784V325H667.23V320.152C667.23 319.555 667.075 319.091 666.766 318.76C666.457 318.429 666.041 318.264 665.518 318.264C664.995 318.264 664.579 318.429 664.27 318.76C663.961 319.091 663.806 319.555 663.806 320.152V325H661.07V316.072H663.806V317.256C664.083 316.861 664.457 316.552 664.926 316.328C665.395 316.093 665.923 315.976 666.51 315.976ZM673.227 315.144C672.747 315.144 672.353 315.005 672.043 314.728C671.745 314.44 671.595 314.088 671.595 313.672C671.595 313.245 671.745 312.893 672.043 312.616C672.353 312.328 672.747 312.184 673.227 312.184C673.697 312.184 674.081 312.328 674.379 312.616C674.689 312.893 674.843 313.245 674.843 313.672C674.843 314.088 674.689 314.44 674.379 314.728C674.081 315.005 673.697 315.144 673.227 315.144ZM674.587 316.072V325H671.851V316.072H674.587ZM676.026 320.536C676.026 319.608 676.213 318.797 676.586 318.104C676.97 317.411 677.498 316.877 678.17 316.504C678.853 316.131 679.631 315.944 680.506 315.944C681.626 315.944 682.559 316.237 683.306 316.824C684.063 317.411 684.559 318.237 684.794 319.304H681.882C681.637 318.621 681.162 318.28 680.458 318.28C679.957 318.28 679.557 318.477 679.258 318.872C678.959 319.256 678.81 319.811 678.81 320.536C678.81 321.261 678.959 321.821 679.258 322.216C679.557 322.6 679.957 322.792 680.458 322.792C681.162 322.792 681.637 322.451 681.882 321.768H684.794C684.559 322.813 684.063 323.635 683.306 324.232C682.549 324.829 681.615 325.128 680.506 325.128C679.631 325.128 678.853 324.941 678.17 324.568C677.498 324.195 676.97 323.661 676.586 322.968C676.213 322.275 676.026 321.464 676.026 320.536ZM687.634 315.144C687.154 315.144 686.759 315.005 686.45 314.728C686.151 314.44 686.002 314.088 686.002 313.672C686.002 313.245 686.151 312.893 686.45 312.616C686.759 312.328 687.154 312.184 687.634 312.184C688.103 312.184 688.487 312.328 688.786 312.616C689.095 312.893 689.25 313.245 689.25 313.672C689.25 314.088 689.095 314.44 688.786 314.728C688.487 315.005 688.103 315.144 687.634 315.144ZM688.994 316.072V325H686.258V316.072H688.994ZM695.04 325.128C694.166 325.128 693.376 324.941 692.672 324.568C691.979 324.195 691.43 323.661 691.024 322.968C690.63 322.275 690.432 321.464 690.432 320.536C690.432 319.619 690.635 318.813 691.04 318.12C691.446 317.416 692 316.877 692.704 316.504C693.408 316.131 694.198 315.944 695.072 315.944C695.947 315.944 696.736 316.131 697.44 316.504C698.144 316.877 698.699 317.416 699.104 318.12C699.51 318.813 699.712 319.619 699.712 320.536C699.712 321.453 699.504 322.264 699.088 322.968C698.683 323.661 698.123 324.195 697.408 324.568C696.704 324.941 695.915 325.128 695.04 325.128ZM695.04 322.76C695.563 322.76 696.006 322.568 696.368 322.184C696.742 321.8 696.928 321.251 696.928 320.536C696.928 319.821 696.747 319.272 696.384 318.888C696.032 318.504 695.595 318.312 695.072 318.312C694.539 318.312 694.096 318.504 693.744 318.888C693.392 319.261 693.216 319.811 693.216 320.536C693.216 321.251 693.387 321.8 693.728 322.184C694.08 322.568 694.518 322.76 695.04 322.76Z" fill="white" fill-opacity="0.980392"/>
<defs>
<filter id="filter0_f_1132_749" x="534.469" y="3.46937" width="148.365" height="148.365" filterUnits="userSpaceOnUse" color-interpolation-filters="sRGB">
<feFlood flood-opacity="0" result="BackgroundImageFix"/>
<feBlend mode="normal" in="SourceGraphic" in2="BackgroundImageFix" result="shape"/>
<feGaussianBlur stdDeviation="7.26532" result="effect1_foregroundBlur_1132_749"/>
</filter>
<filter id="filter1_f_1132_749" x="581.12" y="48.5908" width="55.0634" height="55.0635" filterUnits="userSpaceOnUse" color-interpolation-filters="sRGB">
<feFlood flood-opacity="0" result="BackgroundImageFix"/>
<feBlend mode="normal" in="SourceGraphic" in2="BackgroundImageFix" result="shape"/>
<feGaussianBlur stdDeviation="3.05908" result="effect1_foregroundBlur_1132_749"/>
</filter>
<filter id="filter2_f_1132_749" x="601.174" y="68.6444" width="14.9561" height="14.9562" filterUnits="userSpaceOnUse" color-interpolation-filters="sRGB">
<feFlood flood-opacity="0" result="BackgroundImageFix"/>
<feBlend mode="normal" in="SourceGraphic" in2="BackgroundImageFix" result="shape"/>
<feGaussianBlur stdDeviation="0.76477" result="effect1_foregroundBlur_1132_749"/>
</filter>
<filter id="filter3_f_1132_749" x="933.469" y="244.469" width="129.749" height="129.75" filterUnits="userSpaceOnUse" color-interpolation-filters="sRGB">
<feFlood flood-opacity="0" result="BackgroundImageFix"/>
<feBlend mode="normal" in="SourceGraphic" in2="BackgroundImageFix" result="shape"/>
<feGaussianBlur stdDeviation="7.26532" result="effect1_foregroundBlur_1132_749"/>
</filter>
<filter id="filter4_f_1132_749" x="974.154" y="283.863" width="48.3808" height="48.3809" filterUnits="userSpaceOnUse" color-interpolation-filters="sRGB">
<feFlood flood-opacity="0" result="BackgroundImageFix"/>
<feBlend mode="normal" in="SourceGraphic" in2="BackgroundImageFix" result="shape"/>
<feGaussianBlur stdDeviation="3.05908" result="effect1_foregroundBlur_1132_749"/>
</filter>
<filter id="filter5_f_1132_749" x="991.794" y="301.503" width="13.0997" height="13.0997" filterUnits="userSpaceOnUse" color-interpolation-filters="sRGB">
<feFlood flood-opacity="0" result="BackgroundImageFix"/>
<feBlend mode="normal" in="SourceGraphic" in2="BackgroundImageFix" result="shape"/>
<feGaussianBlur stdDeviation="0.76477" result="effect1_foregroundBlur_1132_749"/>
</filter>
<filter id="filter6_f_1132_749" x="247.469" y="0.469366" width="100.95" height="100.95" filterUnits="userSpaceOnUse" color-interpolation-filters="sRGB">
<feFlood flood-opacity="0" result="BackgroundImageFix"/>
<feBlend mode="normal" in="SourceGraphic" in2="BackgroundImageFix" result="shape"/>
<feGaussianBlur stdDeviation="7.26532" result="effect1_foregroundBlur_1132_749"/>
</filter>
<filter id="filter7_f_1132_749" x="278.923" y="31.0013" width="38.0424" height="38.0425" filterUnits="userSpaceOnUse" color-interpolation-filters="sRGB">
<feFlood flood-opacity="0" result="BackgroundImageFix"/>
<feBlend mode="normal" in="SourceGraphic" in2="BackgroundImageFix" result="shape"/>
<feGaussianBlur stdDeviation="3.05908" result="effect1_foregroundBlur_1132_749"/>
</filter>
<filter id="filter8_f_1132_749" x="292.83" y="44.9086" width="10.2278" height="10.2278" filterUnits="userSpaceOnUse" color-interpolation-filters="sRGB">
<feFlood flood-opacity="0" result="BackgroundImageFix"/>
<feBlend mode="normal" in="SourceGraphic" in2="BackgroundImageFix" result="shape"/>
<feGaussianBlur stdDeviation="0.76477" result="effect1_foregroundBlur_1132_749"/>
</filter>
<filter id="filter9_f_1132_749" x="218.469" y="345.469" width="100.95" height="100.95" filterUnits="userSpaceOnUse" color-interpolation-filters="sRGB">
<feFlood flood-opacity="0" result="BackgroundImageFix"/>
<feBlend mode="normal" in="SourceGraphic" in2="BackgroundImageFix" result="shape"/>
<feGaussianBlur stdDeviation="7.26532" result="effect1_foregroundBlur_1132_749"/>
</filter>
<filter id="filter10_f_1132_749" x="249.923" y="376.001" width="38.0424" height="38.0425" filterUnits="userSpaceOnUse" color-interpolation-filters="sRGB">
<feFlood flood-opacity="0" result="BackgroundImageFix"/>
<feBlend mode="normal" in="SourceGraphic" in2="BackgroundImageFix" result="shape"/>
<feGaussianBlur stdDeviation="3.05908" result="effect1_foregroundBlur_1132_749"/>
</filter>
<filter id="filter11_f_1132_749" x="263.83" y="389.909" width="10.2278" height="10.2278" filterUnits="userSpaceOnUse" color-interpolation-filters="sRGB">
<feFlood flood-opacity="0" result="BackgroundImageFix"/>
<feBlend mode="normal" in="SourceGraphic" in2="BackgroundImageFix" result="shape"/>
<feGaussianBlur stdDeviation="0.76477" result="effect1_foregroundBlur_1132_749"/>
</filter>
</defs>
</svg>
