<svg width="184" height="40" viewBox="0 0 184 40" fill="none" xmlns="http://www.w3.org/2000/svg">
<path d="M49.4138 20.5493L51.8534 30.6807L53.6526 30.284L51.091 19.6643C50.7556 20.2136 50.1152 20.5798 49.4138 20.5493Z" fill="#FAFAFA"/>
<path d="M45.8154 19.2981L48.7124 31.3521L50.5116 30.9554L47.8891 20.0915L45.8154 19.2981Z" fill="#FAFAFA"/>
<path d="M52.7988 15.3921L51.579 15.0869L51.5485 15.6057L55.0249 30.0095L56.8241 29.6127L53.4392 15.4836C53.1952 15.4531 53.0122 15.4531 52.7988 15.3921Z" fill="#FAFAFA"/>
<path d="M50.5726 18.7793L50.8471 14.1103L52.9817 14.6596C53.3172 14.7511 53.7136 14.6596 53.9881 14.446L56.7326 12.2488L57.617 13.2558L59.0807 8.92249L54.4455 9.65488L55.2994 10.6314L52.9817 12.4624L50.1457 11.73C49.4748 11.5469 48.7735 12.0046 48.7125 12.676L48.438 17.223L44.9616 15.9107L45.5715 18.3826L49.0479 19.6948C49.8103 19.9999 50.5726 19.5117 50.5726 18.7793Z" fill="#FAFAFA"/>
<path d="M69.876 31.6268L62.9536 2.88028C62.6182 1.47652 61.3374 0.530516 59.9346 0.5H59.8431C59.6297 0.5 59.4162 0.53052 59.2027 0.561037L40.1739 4.74178C38.4967 5.10798 37.4599 6.75587 37.8563 8.37324L44.7786 37.1197C45.1141 38.5235 46.4254 39.5 47.8586 39.5C48.0721 39.5 48.316 39.4695 48.5295 39.439L67.5583 35.2582C69.2661 34.8615 70.2724 33.2747 69.876 31.6268ZM55.8483 36.3568L55.2994 34.0681L59.0503 33.2441L59.5992 35.5329L55.8483 36.3568ZM65.9726 30.0704C65.9726 30.223 65.8811 30.3451 65.7591 30.4366H65.7286L48.1331 34.3122C47.9196 34.3732 47.6757 34.2207 47.6452 34.007L41.4852 8.37324C41.4242 8.15962 41.5767 7.94601 41.7901 7.88498C47.6452 6.60329 53.5307 5.29108 59.3857 4.00939C59.5992 3.94836 59.8431 4.10094 59.8736 4.31455L66.0336 29.9484L65.9726 30.0704Z" fill="#FAFAFA"/>
<path d="M57.9524 14.7207L61.3068 28.6057L63.106 28.1785L59.0807 11.4249L57.9524 14.7207Z" fill="#FAFAFA"/>
<path d="M54.6895 14.8732L58.1354 29.277L59.9651 28.8803L56.2752 13.5916L54.6895 14.8732Z" fill="#FAFAFA"/>
<path d="M0.5 10.9672H9.55699C11.9966 10.9672 15.9304 12.0657 15.9304 15.7582C15.9304 18.9625 13.2469 19.7864 13.2469 19.7864C13.2469 19.7864 16.5708 20.3052 16.6013 24.1197C16.6013 26.9578 14.5277 29.3686 10.3194 29.3686H0.5V27.1714L2.51266 26.8052V13.561L0.5 13.1643V10.9672ZM17.9126 16.6737C17.9126 16.6737 17.8211 10.723 24.3165 10.723C30.1106 10.723 30.507 15.1479 30.507 16.0329C30.507 17.1315 29.9886 18.8099 29.3787 19.5423C28.3724 20.7324 23.0662 26.5916 23.0662 26.5916H28.0674L28.2199 24.7606H31.0254V29.338H18.2175V26.9273L24.1641 20.7629C24.1641 20.7629 26.8781 18.0165 26.7561 16.0939C26.7256 15.3005 26.3597 13.5305 24.286 13.5305C22.2124 13.5305 21.6025 15.2395 21.6025 16.6737H17.9126ZM10.4108 26.5611C10.4108 26.5611 12.9114 26.4085 12.9114 24.0892C12.9114 21.77 11.2342 21.2207 10.5938 21.2207H6.26354V26.5916H10.4108V26.5611ZM9.46551 13.7747H6.26354V18.6878C6.26354 18.6878 9.61798 18.6878 9.77046 18.6878C9.92293 18.6878 12.1796 18.5047 12.1796 16.277C12.1491 13.8662 9.46551 13.7747 9.46551 13.7747Z" fill="#FAFAFA"/>
<path d="M91.9849 21.2511C92.7168 22.1056 93.0827 23.0821 93.0827 24.1807C93.0827 25.7981 92.5338 27.0798 91.436 27.9342C90.3382 28.8192 89.0269 29.2464 87.1972 29.2464H78.4757V28.1478L80.5188 27.9647V12.1267L78.4452 12.0047V10.9671L86.1604 10.9366C88.1425 10.9366 89.5148 11.3333 90.6126 12.1267C91.7105 12.9201 92.2594 14.1408 92.2594 15.7277C92.2594 16.6737 91.9849 17.4976 91.436 18.169C90.8871 18.8708 90.3077 19.3591 89.3623 19.6032C90.4907 19.8779 91.2835 20.3967 91.9849 21.2511ZM90.4602 26.9577C91.253 26.2863 91.6495 25.3709 91.6495 24.1807C91.6495 23.0821 91.2835 22.1971 90.5516 21.4953C89.8198 20.7934 88.7829 20.4577 87.3802 20.4577H82.0436V27.9953H87.1362C88.5695 27.9647 89.6673 27.6291 90.4602 26.9577ZM82.0741 12.2488V19.176H86.5263C87.8986 19.176 88.9659 18.8708 89.6978 18.291C90.4602 17.7112 90.8261 16.8568 90.8261 15.7277C90.8261 14.568 90.4297 13.7136 89.6368 13.1338C88.8439 12.5539 87.6851 12.2488 86.1299 12.2488H82.0741ZM181.975 27.7206C182.341 28.1173 183.043 28.1173 183.5 28.1173V29.2159H181.884C181.335 29.0023 180.054 28.453 180.054 26.2863V24.4554C180.054 23.3262 179.688 22.4413 179.017 21.8004C178.316 21.1596 177.34 20.8239 176.09 20.8239H171.119V28.0563L173.315 28.1784V29.2464H171.119H169.655H167.521V28.1784L169.655 28.0563V12.2183L167.551 12.0352V10.9366H170.875H175.663C177.554 10.9366 179.017 11.3638 180.024 12.2183C181.03 13.0727 181.548 14.3239 181.548 15.9718C181.548 16.9483 181.274 17.8028 180.725 18.5962C180.176 19.3591 179.414 19.7558 178.438 20.122C179.536 20.3967 180.481 21.068 180.969 21.8004C181.457 22.5328 181.64 23.4788 181.64 24.5774V26.3169C181.579 26.8967 181.731 27.4765 181.975 27.7206ZM175.419 19.6948C177.005 19.6948 178.194 19.3591 178.926 18.6878C179.658 18.0164 180.024 17.1314 180.024 16.0023C180.024 14.7816 179.658 13.8662 178.926 13.2253C178.194 12.5845 177.096 12.2488 175.602 12.2488H171.058V19.7253L175.419 19.6948ZM110.007 27.7206C110.373 28.1173 111.075 28.1173 111.532 28.1173V29.2159H109.916C109.367 29.0023 108.086 28.453 108.086 26.2863V24.4554C108.086 23.3262 107.751 22.4413 107.049 21.8004C106.348 21.1596 105.372 20.8239 104.122 20.8239H99.1512V28.0563L101.347 28.1784V29.2464H99.1512H97.6875H95.5833V28.1784L97.6875 28.0563V12.2183L95.5833 12.0352V10.9366H98.9073H103.695C105.586 10.9366 107.049 11.3638 108.056 12.2183C109.062 13.0727 109.58 14.3239 109.58 15.9718C109.58 16.9483 109.306 17.8028 108.757 18.5962C108.208 19.3591 107.446 19.7558 106.47 20.122C107.568 20.3967 108.513 21.068 109.001 21.8004C109.489 22.5328 109.672 23.4788 109.672 24.5774V26.3169C109.611 26.8967 109.763 27.4765 110.007 27.7206ZM103.451 19.6948C105.037 19.6948 106.226 19.3591 106.958 18.6878C107.69 18.0164 108.056 17.1314 108.056 16.0023C108.056 14.7816 107.69 13.8662 106.958 13.2253C106.226 12.5845 105.128 12.2488 103.634 12.2488H99.0902V19.7253L103.451 19.6948ZM164.776 14.9342L163.373 14.9037L163.221 12.1877H154.438V19.0845H162.123V20.3662H154.469V27.9647H163.343L163.465 25.1877H164.776V28.1173V29.277H154.256H150.81V28.1173L152.914 27.9647V12.0962L150.749 11.9741V10.9061H153.493H164.807L164.776 14.9342ZM148.98 28.1173V29.1854H143.704V28.1173H145.625L138.703 20.5798H136.111V27.9953L138.246 28.1478V29.2159H132.482V28.1173L134.556 27.9647V12.2183L132.482 12.0657V10.9976H138.246V12.0657L136.111 12.1877V19.3896H138.703L145.229 12.0657H143.216V10.9976H148.461V12.0657H147.028L140.075 19.9694L147.547 28.1173H148.98ZM127.694 12.8896C129.158 14.3544 129.89 16.2464 129.89 18.5657V21.5258C129.89 23.8755 129.158 25.7676 127.725 27.2018C126.261 28.6361 124.34 29.3685 121.9 29.3685C119.491 29.3685 117.57 28.6361 116.167 27.2018C114.734 25.7676 114.033 23.8755 114.033 21.5258V18.5657C114.033 16.2464 114.734 14.3239 116.167 12.8896C117.601 11.4248 119.491 10.723 121.9 10.723C124.31 10.6924 126.261 11.4248 127.694 12.8896ZM128.518 21.5258V18.5352C128.518 16.5821 127.938 14.9953 126.749 13.8051C125.59 12.615 123.944 12.0047 121.87 12.0047C119.827 12.0047 118.241 12.615 117.113 13.8051C115.984 14.9953 115.405 16.5821 115.405 18.5352V21.5258C115.405 23.5093 115.984 25.0962 117.113 26.2863C118.272 27.4765 119.857 28.0868 121.9 28.0868C124.005 28.0868 125.621 27.4765 126.78 26.2863C127.908 25.0962 128.518 23.5093 128.518 21.5258Z" fill="#FAFAFA"/>
</svg>
