<svg width="98" height="60" viewBox="0 0 98 60" fill="none" xmlns="http://www.w3.org/2000/svg">
<g clip-path="url(#clip0_1007_753)">
<path d="M11.2829 11.8835C10.8148 11.4175 10.3468 11.068 9.76182 10.7184C9.29381 10.4854 8.59179 10.3689 7.88977 10.3689C7.18776 10.3689 6.48574 10.4854 6.01773 10.7184C5.43272 10.9515 4.96471 11.301 4.6137 11.767C4.26269 12.233 4.02869 12.8155 3.79468 13.3981C3.56067 13.9806 3.56067 14.5631 3.56067 15.2621C3.56067 15.9612 3.67768 16.5437 3.91168 17.1262C4.14569 17.7087 4.37969 18.1748 4.8477 18.6408C5.31572 19.1068 5.66672 19.4563 6.25174 19.6893C6.83675 19.9223 7.42176 20.0388 8.12378 20.0388C8.8258 20.0388 9.52781 19.9223 9.99582 19.6893C10.4638 19.4563 11.0488 18.9903 11.3999 18.5243L13.2719 20.3883C12.5699 21.0874 11.7509 21.6699 10.9318 22.0194C9.99582 22.3689 9.0598 22.4854 8.00678 22.4854C6.95375 22.4854 5.90073 22.3689 5.08171 21.9029C4.26269 21.5534 3.44367 21.0874 2.74166 20.3883C2.03964 19.6893 1.57163 18.9903 1.22062 18.1748C0.869612 17.2427 0.752609 16.1942 0.752609 15.1456C0.752609 14.0971 0.986615 13.0485 1.22062 12.233C1.57163 11.301 2.03964 10.6019 2.74166 9.90291C3.44367 9.20388 4.14569 8.73786 5.08171 8.38835C6.01773 8.03883 6.95375 7.80582 8.00678 7.80582C9.0598 7.80582 9.99582 8.03883 10.9318 8.38835C11.8679 8.73786 12.6869 9.32039 13.3889 10.0194L11.2829 11.8835ZM16.08 0H18.654V10.3689H18.771C19.122 9.6699 19.707 9.08738 20.5261 8.62136C21.3451 8.15534 22.2811 7.92233 23.3341 7.92233C24.0361 7.92233 24.6212 8.03883 25.2062 8.27184C25.7912 8.50485 26.3762 8.73786 26.8442 9.20388C27.3122 9.6699 27.6632 10.1359 27.8972 10.835C28.1312 11.534 28.3652 12.3495 28.3652 13.165V22.0194H25.7912V13.8641C25.7912 13.165 25.6742 12.699 25.5572 12.233C25.4402 11.767 25.0892 11.4175 24.8552 11.1845C24.3872 10.835 24.1532 10.6019 23.6851 10.4854C23.3341 10.3689 22.8661 10.2524 22.5151 10.2524C21.9301 10.2524 21.4621 10.3689 20.9941 10.4854C20.5261 10.6019 20.0581 10.9515 19.8241 11.301C19.473 11.6505 19.239 12.1165 19.005 12.699C18.771 13.2816 18.771 13.9806 18.771 14.7961V21.9029H16.197L16.08 0ZM32.9284 9.90291C33.6304 9.20388 34.5664 8.73786 35.5024 8.38835C36.4384 8.03883 37.3745 7.92233 38.4275 7.92233C39.4805 7.92233 40.2995 8.03883 41.0015 8.27184C41.7036 8.50485 42.2886 8.85437 42.7566 9.32039C43.2246 9.78641 43.5756 10.2524 43.8096 10.835C44.0436 11.4175 44.1606 12 44.1606 12.5825V20.9709C44.1606 21.3204 44.1606 21.7864 44.2776 22.1359H41.9376C41.9376 21.4369 41.8206 20.7379 41.8206 20.0388C41.2355 20.9709 40.5335 21.5534 39.7145 21.9029C38.8955 22.2524 37.9595 22.4854 36.9064 22.4854C36.3214 22.4854 35.6194 22.3689 35.0344 22.2524C34.4494 22.1359 33.9814 21.7864 33.5134 21.4369C33.0454 21.0874 32.6944 20.6214 32.4603 20.1553C32.2263 19.6893 32.1093 18.9903 32.1093 18.4078C32.1093 17.4757 32.3433 16.7767 32.6943 16.1942C33.0454 15.6116 33.6304 15.1456 34.3324 14.6796C35.0344 14.3301 35.8534 13.9806 36.7894 13.8641C37.7255 13.7476 38.6615 13.6311 39.7145 13.6311H41.7036V13.0485C41.7036 12.3495 41.3526 11.534 40.8845 11.068C40.6505 10.7184 40.2995 10.6019 39.8315 10.3689C39.4805 10.2524 38.8955 10.1359 38.4275 10.1359C37.9595 10.1359 37.4915 10.1359 37.1405 10.2524C36.7894 10.3689 36.3214 10.3689 36.0874 10.4854C35.7364 10.6019 35.5024 10.835 35.2684 10.9515C35.0344 11.1845 34.8004 11.301 34.5664 11.534L32.9284 9.90291ZM40.2995 15.3786C39.7145 15.3786 39.0125 15.3786 38.4275 15.4951L36.6724 15.8447C36.2044 15.9612 35.7364 16.3107 35.3854 16.6602C35.0344 17.0097 34.9174 17.4757 34.9174 17.9417C34.9174 18.7573 35.1514 19.3398 35.7364 19.6893C36.3214 20.0388 37.0234 20.2718 37.9595 20.2718C38.6615 20.2718 39.2465 20.1553 39.8315 19.9223C40.2995 19.6893 40.7675 19.3398 41.0015 18.9903C41.3526 18.6408 41.5866 18.1748 41.7036 17.7087C41.8206 17.2427 41.9376 16.7767 41.9376 16.3107V15.3786H40.2995ZM48.4897 8.27184H51.0638V10.3689C51.4148 9.6699 51.9998 9.08738 52.8188 8.62136C53.6378 8.15534 54.5739 7.92233 55.6269 7.92233C56.3289 7.92233 56.9139 8.03883 57.4989 8.27184C58.0839 8.50485 58.669 8.73786 59.137 9.20388C59.605 9.6699 59.956 10.1359 60.19 10.835C60.424 11.534 60.541 12.3495 60.541 13.165V22.0194H57.9669V13.8641C57.9669 13.165 57.8499 12.699 57.7329 12.233C57.4989 11.767 57.3819 11.4175 57.0309 11.1845C56.9139 10.835 56.5629 10.6019 56.2119 10.4854C55.8609 10.3689 55.3929 10.2524 55.0419 10.2524C54.4569 10.2524 53.9888 10.3689 53.5208 10.4854C53.0528 10.6019 52.5848 10.9515 52.3508 11.301C51.9998 11.6505 51.7658 12.1165 51.5318 12.699C51.2978 13.2816 51.2978 13.9806 51.2978 14.7961V21.9029H48.7237L48.4897 8.27184ZM79.2614 21.9029C79.2614 22.9515 79.0274 23.8835 78.6764 24.8155C78.3254 25.6311 77.8574 26.4466 77.1554 27.0291C76.4534 27.6117 75.7514 28.1942 74.8153 28.5437C73.8793 28.8932 72.8263 29.1262 71.6562 29.1262C70.3692 29.1262 69.0822 28.8932 68.0292 28.5437C66.9761 28.1942 65.9231 27.4951 64.8701 26.6796L66.6251 24.466C67.3272 25.165 68.0292 25.7476 68.8482 26.0971C69.6672 26.4466 70.6032 26.6796 71.5393 26.6796C72.4753 26.6796 73.2943 26.5631 73.9963 26.2136C74.5813 25.9806 75.1663 25.5146 75.5173 25.165C75.8684 24.8155 76.2194 24.233 76.3364 23.6505C76.4534 23.068 76.5704 22.4854 76.5704 21.9029V19.8058H76.4534C75.9854 20.6214 75.2833 21.3204 74.3473 21.6699C73.5283 22.0194 72.5923 22.2524 71.6562 22.2524C70.6032 22.2524 69.6672 22.0194 68.8482 21.6699C68.0292 21.3204 67.2102 20.8544 66.6251 20.1553C66.0401 19.4563 65.4551 18.7573 65.2211 17.9417C64.8701 17.0097 64.6361 16.0777 64.6361 15.1456C64.6361 14.0971 64.7531 13.165 65.1041 12.3495C65.4551 11.534 65.9231 10.7184 66.5081 10.0194C67.0931 9.32039 67.9122 8.85437 68.7312 8.50485C69.5502 8.15534 70.6032 7.92233 71.6562 7.92233C72.5923 7.92233 73.5283 8.15534 74.3473 8.50485C75.2833 8.85437 75.9854 9.43689 76.4534 10.2524H76.5704V8.27184H79.1444L79.2614 21.9029ZM72.0073 10.2524C71.3052 10.2524 70.7202 10.3689 70.1352 10.6019C69.5502 10.835 69.0822 11.1845 68.7312 11.6505C68.3802 12.1165 68.0292 12.5825 67.7952 13.165C67.5612 13.7476 67.4442 14.4466 67.4442 15.1456C67.4442 16.5437 67.7952 17.7087 68.6142 18.5243C69.4332 19.3398 70.6032 19.8058 71.8903 19.8058C73.2943 19.8058 74.4643 19.3398 75.1663 18.5243C75.9854 17.7087 76.3364 16.5437 76.3364 15.1456C76.3364 14.4466 76.2194 13.7476 75.9854 13.165C75.7514 12.5825 75.5173 12.1165 75.0493 11.6505C74.6983 11.1845 74.1133 10.835 73.6453 10.6019C73.2943 10.4854 72.7093 10.2524 72.0073 10.2524ZM85.6966 16.0777C85.6966 16.6602 85.8136 17.2427 86.0476 17.7087C86.2816 18.1748 86.6326 18.6408 87.1006 18.9903C87.5686 19.3398 88.0366 19.5728 88.6216 19.8058C89.2067 20.0388 89.7917 20.0388 90.3767 20.0388C91.1957 20.0388 91.8977 19.8058 92.4827 19.4563C93.0677 19.1068 93.6528 18.5243 94.1208 17.9417L96.1098 19.4563C94.7058 21.3204 92.5997 22.2524 90.0257 22.2524C88.9727 22.2524 87.9196 22.0194 87.1006 21.6699C86.2816 21.3204 85.4626 20.8544 84.8776 20.1553C84.2925 19.4563 83.8245 18.7573 83.4735 17.8252C83.1225 16.8932 83.0055 15.9612 83.0055 14.9126C83.0055 13.8641 83.2395 12.932 83.5905 12C83.9415 11.1845 84.4095 10.3689 85.1116 9.6699C85.6966 8.97087 86.5156 8.50485 87.3346 8.15534C88.2706 7.80582 89.2067 7.57281 90.1427 7.57281C91.4297 7.57281 92.3657 7.80582 93.3018 8.27184C94.2378 8.73786 94.8228 9.20388 95.4078 9.90291C95.9928 10.6019 96.3438 11.4175 96.5778 12.233C96.8118 13.0485 96.9288 13.9806 96.9288 14.9126V15.8447H85.6966V16.0777ZM94.0038 13.9806C94.0038 13.3981 93.8868 12.932 93.7698 12.3495C93.6528 11.8835 93.3018 11.4175 93.0677 11.068C92.7167 10.7184 92.2487 10.3689 91.7807 10.2524C91.3127 10.0194 90.7277 9.90291 90.0257 9.90291C88.2706 9.90291 86.7496 10.9515 86.0476 12.466C85.8136 12.932 85.6966 13.3981 85.6966 13.8641H94.0038V13.9806Z" fill="#FAFAFA"/>
<path d="M45.5644 60C43.5754 60 41.7033 59.6505 39.9483 58.9515C38.1933 58.2524 36.7892 57.3204 35.6192 56.0388C34.4492 54.7573 33.3961 53.2427 32.8111 51.6117C32.1091 49.8641 31.7581 48.1165 31.7581 46.1359C31.7581 44.1553 32.1091 42.2913 32.8111 40.6602C33.5131 38.9126 34.4492 37.5146 35.6192 36.233C36.7892 34.9515 38.3103 34.0194 39.9483 33.3204C41.7033 32.6214 43.4584 32.2719 45.5644 32.2719C47.5535 32.2719 49.4255 32.6214 51.1806 33.3204C52.9356 34.0194 54.3396 34.9515 55.5097 36.233C56.6797 37.5146 57.6157 38.9126 58.3177 40.6602C59.0197 42.4078 59.3707 44.1553 59.3707 46.1359C59.3707 48.1165 59.0197 49.9806 58.3177 51.6117C57.6157 53.3592 56.6797 54.7573 55.5097 56.0388C54.3396 57.3204 52.8186 58.2524 51.1806 58.9515C49.5425 59.6505 47.5535 60 45.5644 60ZM45.5644 56.6214C47.0855 56.6214 48.4895 56.3884 49.6595 55.8058C50.8295 55.2233 51.8826 54.5243 52.8186 53.5922C53.7546 52.6602 54.3396 51.4951 54.8076 50.2136C55.2757 48.932 55.5097 47.534 55.5097 46.1359C55.5097 44.7379 55.2757 43.3398 54.8076 42.0583C54.3396 40.7767 53.6376 39.7282 52.8186 38.6796C51.8826 37.7476 50.8295 36.932 49.6595 36.466C48.4895 35.8835 47.0855 35.6505 45.5644 35.6505C44.0434 35.6505 42.6394 35.8835 41.4693 36.466C40.2993 37.0485 39.2463 37.7476 38.3103 38.6796C37.3742 39.6117 36.7892 40.7767 36.3212 42.0583C35.8532 43.3398 35.6192 44.7379 35.6192 46.1359C35.6192 47.534 35.8532 48.932 36.3212 50.2136C36.7892 51.4951 37.4912 52.5437 38.3103 53.5922C39.2463 54.5243 40.2993 55.3398 41.4693 55.8058C42.6394 56.3884 44.0434 56.6214 45.5644 56.6214ZM2.85843 32.8544H7.53854L22.1639 54.5243H22.2809V32.8544H25.908V59.301H21.3449L6.48551 37.6311V59.301H2.85843M61.8278 32.8544H65.5719L71.422 53.9418H71.539L77.7402 32.8544H81.8353L88.0364 53.9418H88.1534L94.0035 32.8544H97.7476L90.0255 59.301H86.2814L79.8462 37.7476H79.7292L73.2941 59.301H69.55" fill="#FAFAFA" fill-opacity="0.666667"/>
</g>
<defs>
<clipPath id="clip0_1007_753">
<rect width="97" height="60" fill="white" transform="translate(0.75)"/>
</clipPath>
</defs>
</svg>
