<svg width="144" height="40" viewBox="0 0 144 40" fill="none" xmlns="http://www.w3.org/2000/svg">
<g clip-path="url(#clip0_1007_738)">
<path d="M32.55 0H3.85C1.85 0 0.25 1.6 0.25 3.6V36.4C0.25 38.4 1.85 40 3.85 40H32.55C34.55 40 36.15 38.4 36.15 36.4V3.6C36.15 1.6 34.55 0 32.55 0ZM34.15 36.4C34.15 37.3 33.45 38 32.55 38H3.85C2.95 38 2.25 37.3 2.25 36.4V3.6C2.25 2.7 2.95 2 3.85 2H32.55C33.45 2 34.15 2.7 34.15 3.6V36.4ZM9.25 34L13.75 30L9.25 26V34ZM25.45 17.8C24.65 17 23.15 16 20.65 16C17.95 16 15.15 16.7 13.15 17.4V6H9.15V23.3L11.95 22C11.95 22 16.55 19.9 20.55 19.9C22.55 19.9 23.05 21 23.05 22V34H27.05V22C27.15 21.7 27.15 19.5 25.45 17.8ZM20.15 12.5H24.15C25.95 10.4 26.85 8.3 27.15 6H23.15C22.75 8.3 21.75 10.4 20.15 12.5ZM130.65 21.9V13.1H134.65V21.9C134.65 23.9 135.35 24.9 136.95 24.9C138.55 24.9 139.15 24 139.15 21.9V13.1H143.05V22C143.05 25.9 141.15 28.2 136.85 28.2C132.55 28.1 130.65 25.8 130.65 21.9ZM113.85 13.1H117.85V18.5L121.95 13.1H126.55L121.55 18.9L126.95 27.9H122.45L118.95 22L117.85 23.3V27.9H113.85V13.1ZM94.85 20.4C94.85 15 98.55 12.7 102.15 12.7C105.75 12.7 109.45 15 109.45 20.4C109.45 25.8 105.75 28.1 102.15 28.1C98.55 28.1 94.85 25.9 94.85 20.4ZM105.35 20.4C105.35 17.7 104.15 16 102.05 16C99.95 16 98.75 17.7 98.75 20.4C98.75 23.1 99.95 24.9 102.05 24.9C104.15 24.9 105.35 23.2 105.35 20.4ZM78.75 13.1H84.55C88.35 13.1 90.65 14.4 90.65 17.9C90.65 20.2 89.65 21.6 87.75 22.2L90.85 27.9H86.65L83.75 22.8H82.65V27.9H78.75V13.1ZM84.45 19.7C86.05 19.7 86.85 19.2 86.85 18C86.85 16.8 86.15 16.3 84.45 16.3H82.75V19.7H84.45ZM63.45 13.1H74.05V16.4H67.45V18.8H72.15V21.9H67.45V24.6H74.35V27.8H63.45V13.1ZM45.35 13.1H49.35V18.6H54.25V13.1H58.25V27.9H54.25V21.9H49.35V27.9H45.35V13.1Z" fill="#FAFAFA"/>
</g>
<defs>
<clipPath id="clip0_1007_738">
<rect width="143" height="40" fill="white" transform="translate(0.25)"/>
</clipPath>
</defs>
</svg>
