<svg width="147" height="32" viewBox="0 0 147 32" fill="none" xmlns="http://www.w3.org/2000/svg">
<path d="M28.7413 14.7855C28.9091 14.1167 29.0766 13.3364 29.1326 12.5004C29.1326 13.225 28.9928 14.0052 28.7413 14.7855Z" fill="#FAFAFA"/>
<path d="M4.4571 18.8535C4.23354 18.0175 4.14972 17.2093 4.14972 16.457C4.23354 17.8782 4.4571 18.7978 4.4571 18.8535Z" fill="#FAFAFA"/>
<path d="M4.4571 18.8554C4.42916 18.7996 4.20561 17.88 4.14972 16.4587V16.4309C4.14972 15.6507 4.23354 14.9261 4.40121 14.2294C4.12177 16.5982 4.42916 18.6882 4.4571 18.8554Z" fill="#FAFAFA"/>
<path d="M8.5477 22.8178C7.70161 24.9014 6.90479 27.2268 6.41938 28.6997C6.12693 29.587 5.29427 30.1952 4.3512 30.1952C3.52085 30.1952 3.26734 29.517 4.04119 29.219C4.25326 29.1375 4.40531 29.0881 4.42664 29.0813C4.42893 29.0805 4.42934 29.0805 4.43158 29.0796C4.50175 29.0532 6.09862 28.3396 4.4851 18.8533C7.19564 20.2467 8.15649 20.7278 8.5477 22.8178Z" fill="#FAFAFA"/>
<path d="M4.4571 18.8535C4.23354 18.0175 4.14972 17.2093 4.14972 16.457C4.23354 17.8782 4.4571 18.7978 4.4571 18.8535Z" fill="#FAFAFA"/>
<path d="M10.3557 19.5206C8.6511 19.437 6.53817 19.5727 4.45953 18.8519C4.54337 18.6847 5.91055 15.5078 7.72691 11.69C8.59317 11.3556 9.73839 10.9664 11.0776 11.4958C11.0776 11.4958 11.0528 11.5264 11.1367 11.5543C11.4731 14.1269 11.0766 16.8899 10.3557 19.5206Z" fill="#FAFAFA"/>
<path d="M10.3557 19.5221C9.90858 21.3614 9.29381 23.0892 8.70699 24.5661C8.28784 22.476 7.17009 20.2189 4.45953 18.8533C6.69504 19.2435 8.6511 19.4386 10.3557 19.5221Z" fill="#FAFAFA"/>
<path d="M12.2267 19.5806C11.5891 23.9401 10.8403 28.2256 10.1767 29.98C9.97092 30.5239 9.42075 30.7552 8.83388 30.7552H8.63115C7.83149 30.7552 7.17312 30.4961 7.81624 30.0257C8.0513 29.8538 8.66143 29.3187 8.71253 29.034C8.85453 28.2427 9.07699 26.4817 8.70573 24.5688C9.29255 23.0918 9.9073 21.3641 10.3544 19.5249C11.0251 19.5806 11.6398 19.5806 12.2267 19.5806Z" fill="#FAFAFA"/>
<path d="M13.7323 7.81173C13.2294 7.70026 12.7823 7.61666 12.3352 7.56092C11.6645 7.47733 11.0497 7.47733 10.4908 7.50519C10.4908 7.50519 10.4908 7.53305 10.5188 7.53305C10.9659 8.4248 13.4808 9.95747 13.4808 9.95747C13.4808 11.7967 11.5786 11.5805 11.0756 11.5248C11.2432 14.2558 10.9528 17.1193 10.3381 19.5994C11.0087 19.6274 12.2258 19.5933 12.8126 19.5654C13.6509 13.7412 13.7603 7.81173 13.7323 7.81173C13.7603 7.81173 13.7603 7.81173 13.7323 7.81173Z" fill="#FAFAFA"/>
<path d="M7.75408 11.6923C5.93774 15.5101 4.54055 18.6869 4.45672 18.854C4.45672 18.5754 4.34494 13.0578 7.75408 11.6923Z" fill="#FAFAFA"/>
<path d="M10.4945 7.45885C10.243 7.48671 9.99149 7.51458 9.76794 7.54245C9.90765 7.2359 10.0753 6.92937 10.243 6.59497C10.3268 6.8179 10.4945 7.40311 10.4945 7.45885Z" fill="#FAFAFA"/>
<path d="M10.2437 6.59497C10.0761 6.90151 9.93633 7.20804 9.76866 7.54245C9.3495 7.59818 8.93035 7.70965 8.56708 7.84897C9.51717 7.04085 10.2437 6.59497 10.2437 6.59497Z" fill="#FAFAFA"/>
<path d="M13.4841 9.90879C13.4841 11.748 11.5782 11.5821 11.0752 11.5263C10.9913 10.133 10.9132 8.84985 10.522 7.48438C10.9412 8.37612 13.4841 9.90879 13.4841 9.90879Z" fill="#FAFAFA"/>
<path d="M8.56639 7.84778C7.08538 9.10178 5.10136 11.3033 4.40277 14.2572C4.71015 11.7213 5.71613 8.87885 8.56639 7.84778Z" fill="#FAFAFA"/>
<path d="M9.76636 7.53796C9.06777 8.93131 8.39712 10.3525 7.75441 11.6901C4.31733 13.0556 4.45704 18.5733 4.45704 18.8519C4.4291 18.6847 4.12172 16.5947 4.37322 14.2538C5.07181 11.2721 7.08376 9.09852 8.53684 7.8445C8.92805 7.70517 9.34721 7.5937 9.76636 7.53796Z" fill="#FAFAFA"/>
<path d="M11.0782 11.5254C10.9944 11.5254 10.9896 11.5254 10.9896 11.5254C9.64832 11.191 8.62383 11.3283 7.75757 11.6627C8.40027 10.3251 9.07093 8.90383 9.76953 7.51048C9.99307 7.48262 10.2446 7.45475 10.4961 7.42688C10.4961 7.42688 10.4961 7.45475 10.524 7.45475C10.9152 8.84809 10.9944 10.1599 11.0782 11.5254Z" fill="#FAFAFA"/>
<path d="M25.8724 24.608C26.0324 24.9989 26.0699 25.4344 25.9402 25.8362L24.8798 29.1175C24.6668 29.7771 24.0472 30.2249 23.3475 30.2249H23.1847C22.126 30.2249 21.773 29.4433 22.7467 29.0318C22.8703 28.9795 22.9478 28.9502 22.9478 28.9502C22.9478 28.9502 24.9589 26.2433 21.0291 21.5582C20.0232 20.5829 19.3525 19.3846 18.9053 18.1028C19.5481 17.7127 20.0711 17.1738 20.4345 16.7001C20.5462 16.923 20.7391 17.1323 20.7888 17.3722C20.8167 17.4 20.8773 17.4332 20.8773 17.4889C21.4921 18.4364 22.2641 19.3106 23.298 20.1187C24.0804 20.7317 24.6828 21.3464 25.1578 21.9595C25.2942 23.0474 25.6306 24.017 25.8724 24.608Z" fill="#FAFAFA"/>
<path d="M20.3859 16.7338C19.6593 15.4519 19.1563 13.9193 18.9327 12.08C19.1284 13.5569 19.5475 15.1732 20.3859 16.7338Z" fill="#FAFAFA" fill-opacity="0.980392"/>
<path d="M28.7139 14.8142C28.4904 15.5666 28.2668 16.124 28.183 16.3191C28.2668 15.9567 28.4065 15.5945 28.5462 15.2323C28.6301 15.0929 28.686 14.9535 28.7139 14.8142Z" fill="#FAFAFA" fill-opacity="0.980392"/>
<path d="M29.1034 12.4723C29.0195 9.32334 26.253 6.78746 21.4467 6.84319C21.5585 6.84319 21.6703 6.84319 21.782 6.84319C21.9497 6.84319 22.1173 6.84319 22.313 6.84319C23.5705 6.84319 24.6044 7.01039 25.4427 7.26119H25.4706C28.5165 8.18079 29.1871 10.438 29.1034 12.4723Z" fill="#FAFAFA" fill-opacity="0.980392"/>
<path d="M29.4188 24.0876C29.6307 24.4743 29.7204 24.9236 29.6254 25.3534L28.7094 29.5025C28.5479 30.2337 27.8938 30.7548 27.1377 30.7548H26.5829C25.5625 30.7548 25.2583 30.0539 26.2174 29.7086C26.2405 29.7004 26.2533 29.696 26.2533 29.696C26.2533 29.696 29.8643 28.1546 25.1355 22.1036C25.1075 21.8807 25.1355 21.531 25.1355 21.308C26.393 22.0047 27.6784 22.4505 28.7961 22.7571C29.0151 23.3094 29.24 23.7612 29.4188 24.0876Z" fill="#FAFAFA"/>
<path d="M25.3587 22.5012C24.7151 21.2273 24.0445 20.7502 23.29 20.1371C22.2561 19.3289 21.4736 18.4094 20.8309 17.4619C22.0046 19.2175 24.5544 19.8738 25.1343 21.3353C25.1343 21.5584 27.4502 24.8897 25.3587 22.5012Z" fill="#FAFAFA"/>
<path d="M28.7674 22.7544C27.6496 22.4478 26.3643 22.002 25.1068 21.3052C25.1068 19.6054 25.7495 17.6548 28.1526 16.3728C28.1526 16.3728 28.1526 16.3449 28.1805 16.3171C27.5099 18.8251 28.1247 21.1938 28.7674 22.7544Z" fill="#FAFAFA"/>
<path d="M29.1034 12.4723C29.0755 13.3362 28.9079 14.1165 28.7121 14.7853C28.7121 14.7853 28.7121 14.7853 28.7121 14.813C28.6563 14.9525 28.6005 15.0918 28.5445 15.2311C28.3769 15.5933 28.2651 15.9557 28.1813 16.3179C28.1533 16.3736 28.1533 16.3736 28.1533 16.3736C25.7501 17.6556 25.1074 19.6062 25.1354 21.334C23.5705 20.4701 22.0057 19.2439 20.832 17.4604C20.8041 17.4326 20.7762 17.4047 20.7762 17.349C20.6364 17.1539 20.5246 16.931 20.4129 16.708C23.0396 13.0296 19.0456 7.08551 19.0456 7.08551C19.0456 7.08551 19.1274 7.03826 19.2672 7.03826C19.2951 7.03826 19.351 7.03825 19.379 7.01039C20.1055 6.92679 20.7762 6.87105 21.4189 6.84319H21.4468C26.2531 6.78746 29.0195 9.32334 29.1034 12.4723Z" fill="#FAFAFA"/>
<path d="M18.933 18.1016C17.5358 18.9655 15.4122 19.5506 12.2545 19.5785C13.1208 13.7265 13.7331 7.81609 13.7331 7.81609C15.1022 7.95542 16.8931 7.79079 19.0448 7.09412C18.933 7.40065 17.2844 13.3363 18.933 18.1016Z" fill="#FAFAFA"/>
<path d="M20.4328 16.7277C20.0696 17.2292 19.5404 17.7108 18.8977 18.1009C17.2491 13.3357 18.932 7.42116 19.0158 7.11462C18.9879 7.30969 18.5686 9.3787 18.904 12.026V12.0539C19.1555 13.921 19.7343 15.4457 20.4328 16.7277Z" fill="#FAFAFA"/>
<path d="M18.7883 11.973C18.453 9.29776 18.9562 7.28999 19.0447 7.08545C19.0447 7.08545 23.3161 13.3634 20.3732 16.7569C19.6745 15.475 19.0119 13.8122 18.7883 11.973Z" fill="#FAFAFA"/>
<path d="M28.5736 15.2028C28.6296 15.0635 28.6854 14.9241 28.7413 14.7848C28.5178 15.5373 28.2942 16.0945 28.2104 16.2897C28.2942 15.9552 28.406 15.593 28.5736 15.2028Z" fill="#FAFAFA" fill-opacity="0.686275"/>
<path d="M29.1052 12.5004C29.1331 13.225 28.9934 14.0052 28.7139 14.7855C28.9096 14.1446 29.0772 13.3364 29.1052 12.5004Z" fill="#FAFAFA"/>
<path d="M31.9775 23.0652C32.0437 23.1807 31.9543 23.3303 31.8205 23.3189C31.286 23.2737 30.1491 23.1431 28.7687 22.784C28.126 21.2235 27.5112 18.8549 28.1818 16.3189C28.2657 16.1239 28.4892 15.5666 28.7128 14.8142C28.7128 14.8142 28.7128 14.8142 28.7128 14.7863C28.9922 14.006 29.104 13.2257 29.104 12.5012V12.4733C29.1879 10.439 28.5172 8.18181 25.4714 7.26221C27.8745 7.93102 30.0541 9.54729 30.0541 13.17C30.0541 19.184 31.4762 22.1918 31.9775 23.0652Z" fill="#FAFAFA" fill-opacity="0.686275"/>
<path d="M29.102 12.4734C29.0181 9.32446 26.2518 6.78857 21.4455 6.84431H21.4174C20.8027 6.87218 20.1041 6.92792 19.3776 7.01151C19.4894 6.98364 19.6012 6.98364 19.7409 6.95578C19.7967 6.95578 19.8247 6.95578 19.8805 6.92792C19.9365 6.92792 20.0202 6.92792 20.1041 6.90004C20.2718 6.87218 20.4674 6.87218 20.691 6.84431C20.7747 6.84431 20.8586 6.84431 20.9424 6.81644C20.9983 6.81644 21.0263 6.81644 21.0821 6.81644C21.3057 6.81644 21.5292 6.78857 21.7527 6.78857C21.9205 6.78857 22.0882 6.78857 22.2837 6.78857C23.2617 6.81644 24.3796 6.92792 25.4134 7.20658H25.4413C28.5152 8.18192 29.1859 10.4391 29.102 12.4734Z" fill="#FAFAFA" fill-opacity="0.686275"/>
<path fill-rule="evenodd" clip-rule="evenodd" d="M10.2142 1.26999C10.2142 1.26999 8.84499 1.68799 8.23026 2.57972C8.25816 2.49613 8.48172 1.54866 8.17439 1.24212C8.14641 1.21425 0.182434 3.13707 0.182434 8.98913C0.182434 15.928 4.29017 18.7425 4.45783 18.854C-3.71636 6.79056 8.41167 4.58179 9.12455 4.45197L9.12718 4.4515L9.13344 4.46212C4.48442 8.22306 3.98298 13.4519 4.12251 16.4575C4.12251 15.6772 4.20633 14.9526 4.374 14.2559C4.68138 11.7201 5.68736 8.87761 8.53766 7.84658C9.48769 7.03843 10.1863 6.62043 10.1863 6.62043H10.2142C9.87471 5.73491 9.21788 4.60597 9.13344 4.46212L9.15238 4.44681C9.1476 4.44777 9.13914 4.44931 9.12718 4.4515L9.12442 4.44681C9.12442 4.44681 10.5216 2.6076 10.2142 1.26999ZM5.57578 3.74996C5.57578 3.74996 6.72151 2.05008 7.97893 1.60421C8.00691 1.60421 8.20249 3.63849 5.57578 3.74996ZM9.90703 1.77151C8.95693 2.27312 8.59365 3.30419 8.59365 3.30419C9.37213 3.09246 9.75231 2.14587 9.8687 1.85609C9.89017 1.80262 9.90266 1.77151 9.90703 1.77151Z" fill="#FAFAFA" fill-opacity="0.686275"/>
<path d="M4.15183 16.4562C4.15183 17.2365 4.26361 18.0168 4.45921 18.8528C-3.86803 6.56343 8.87433 4.50128 9.15376 4.44556C4.5151 8.20758 3.98418 13.4187 4.15183 16.4562Z" fill="#FAFAFA" fill-opacity="0.686275"/>
<path d="M4.4571 18.8535C4.23354 18.0175 4.14972 17.2093 4.14972 16.457C4.23354 17.8782 4.4571 18.7978 4.4571 18.8535Z" fill="#FAFAFA"/>
<path d="M5.57367 3.74988C5.57367 3.74988 6.71937 2.05 7.97684 1.60413C8.00478 1.60413 8.20039 3.6384 5.57367 3.74988Z" fill="#FAFAFA"/>
<path d="M9.87848 1.76892C9.87848 1.76892 9.48727 3.07867 8.56512 3.3016C8.59306 3.3016 8.95634 2.27052 9.87848 1.76892Z" fill="#FAFAFA"/>
<path d="M58.264 7.91199V25H56.44V12.304L50.896 25H49.504L43.912 12.4L43.936 25H42.112V7.91199H43.744L50.224 22.648L56.632 7.91199H58.264ZM72.3432 18.904H63.4872C63.5032 20.44 63.8552 21.6 64.5432 22.384C65.2472 23.168 66.2632 23.56 67.5912 23.56C68.9992 23.56 70.2952 23.088 71.4792 22.144L72.1272 23.56C71.5992 24.056 70.9192 24.448 70.0872 24.736C69.2712 25.024 68.4312 25.168 67.5672 25.168C65.6792 25.168 64.1992 24.616 63.1272 23.512C62.0552 22.392 61.5192 20.864 61.5192 18.928C61.5192 17.696 61.7592 16.608 62.2392 15.664C62.7192 14.704 63.3912 13.96 64.2552 13.432C65.1192 12.904 66.1032 12.64 67.2072 12.64C68.8072 12.64 70.0632 13.168 70.9752 14.224C71.8872 15.264 72.3432 16.704 72.3432 18.544V18.904ZM67.2312 14.152C66.2232 14.152 65.3992 14.456 64.7592 15.064C64.1352 15.672 63.7352 16.528 63.5592 17.632H70.5912C70.4952 16.496 70.1592 15.632 69.5832 15.04C69.0232 14.448 68.2392 14.152 67.2312 14.152ZM77.8156 14.464V21.064C77.8156 21.96 77.9996 22.592 78.3676 22.96C78.7356 23.312 79.2556 23.488 79.9276 23.488C80.3756 23.488 80.8076 23.416 81.2236 23.272V24.928C80.7276 25.088 80.1676 25.168 79.5436 25.168C78.3916 25.168 77.4876 24.848 76.8316 24.208C76.1916 23.552 75.8716 22.592 75.8716 21.328V14.464H73.5196V12.928H75.8716V9.83199L77.8156 9.13599V12.928H81.2716V14.464H77.8156ZM94.2462 12.928V25H92.3262V22.816C91.9742 23.568 91.4382 24.152 90.7182 24.568C90.0142 24.968 89.1902 25.168 88.2462 25.168C87.1742 25.168 86.2302 24.912 85.4142 24.4C84.6142 23.888 83.9902 23.168 83.5422 22.24C83.1102 21.296 82.8942 20.2 82.8942 18.952C82.8942 17.704 83.1182 16.608 83.5662 15.664C84.0142 14.704 84.6382 13.96 85.4382 13.432C86.2542 12.904 87.1902 12.64 88.2462 12.64C89.1902 12.64 90.0142 12.848 90.7182 13.264C91.4222 13.68 91.9582 14.264 92.3262 15.016V12.928H94.2462ZM88.6302 23.56C89.8142 23.56 90.7262 23.16 91.3662 22.36C92.0062 21.544 92.3262 20.392 92.3262 18.904C92.3262 17.416 92.0062 16.272 91.3662 15.472C90.7262 14.672 89.8142 14.272 88.6302 14.272C87.4462 14.272 86.5182 14.688 85.8462 15.52C85.1902 16.336 84.8622 17.48 84.8622 18.952C84.8622 20.424 85.1902 21.56 85.8462 22.36C86.5022 23.16 87.4302 23.56 88.6302 23.56ZM114.805 7.91199V25H111.493V15.664L107.557 25H105.133L101.173 15.784V25H97.8848V7.91199H100.861L106.381 20.512L111.853 7.91199H114.805ZM130.203 12.832V25H126.627V23.2C126.259 23.824 125.739 24.312 125.067 24.664C124.395 25.016 123.635 25.192 122.787 25.192C121.731 25.192 120.795 24.936 119.979 24.424C119.179 23.912 118.547 23.184 118.083 22.24C117.635 21.28 117.411 20.176 117.411 18.928C117.411 17.68 117.635 16.568 118.083 15.592C118.547 14.616 119.187 13.864 120.003 13.336C120.819 12.792 121.747 12.52 122.787 12.52C123.635 12.52 124.395 12.704 125.067 13.072C125.739 13.44 126.259 13.936 126.627 14.56V12.832H130.203ZM123.843 22.432C124.739 22.432 125.427 22.128 125.907 21.52C126.387 20.912 126.627 20.032 126.627 18.88C126.627 17.728 126.387 16.848 125.907 16.24C125.427 15.616 124.739 15.304 123.843 15.304C122.947 15.304 122.251 15.624 121.755 16.264C121.259 16.904 121.011 17.792 121.011 18.928C121.011 20.064 121.251 20.936 121.731 21.544C122.227 22.136 122.931 22.432 123.843 22.432ZM140.568 12.52C141.608 12.52 142.536 12.792 143.352 13.336C144.168 13.864 144.8 14.616 145.248 15.592C145.712 16.568 145.944 17.68 145.944 18.928C145.944 20.176 145.72 21.28 145.272 22.24C144.824 23.184 144.192 23.912 143.376 24.424C142.56 24.936 141.624 25.192 140.568 25.192C139.72 25.192 138.96 25.016 138.288 24.664C137.616 24.312 137.104 23.824 136.752 23.2V30.184H133.128V16.312C133.128 15.016 133.064 13.856 132.936 12.832H136.344L136.584 14.848C136.904 14.128 137.416 13.56 138.12 13.144C138.84 12.728 139.656 12.52 140.568 12.52ZM139.536 22.432C140.432 22.432 141.12 22.136 141.6 21.544C142.08 20.936 142.32 20.064 142.32 18.928C142.32 17.792 142.072 16.904 141.576 16.264C141.096 15.624 140.416 15.304 139.536 15.304C138.64 15.304 137.944 15.616 137.448 16.24C136.968 16.848 136.728 17.728 136.728 18.88C136.728 20.032 136.968 20.912 137.448 21.52C137.944 22.128 138.64 22.432 139.536 22.432Z" fill="#FAFAFA" fill-opacity="0.686275"/>
</svg>
