<svg width="159" height="42" viewBox="0 0 159 42" fill="none" xmlns="http://www.w3.org/2000/svg">
<g clip-path="url(#clip0_1007_756)">
<path d="M12.3252 4.29636C10.7103 2.37687 9.31969 0.427388 9.0356 0.0224941C9.00569 -0.00749802 8.96082 -0.00749802 8.93092 0.0224941C8.64682 0.427388 7.25623 2.37687 5.64133 4.29636C-8.21977 22.0066 7.82443 33.9585 7.82443 33.9585L7.959 34.0485C8.07861 35.8929 8.37767 38.5473 8.37767 38.5473H8.97578H9.57388C9.57388 38.5473 9.87294 35.9079 9.99257 34.0485L10.1271 33.9435C10.1421 33.9585 26.1863 22.0066 12.3252 4.29636ZM8.97578 33.6885C8.97578 33.6885 8.25806 33.0737 8.06367 32.7589V32.7288L8.93092 13.444C8.93092 13.384 9.02065 13.384 9.02065 13.444L9.88789 32.7288V32.7589C9.69351 33.0737 8.97578 33.6885 8.97578 33.6885Z" fill="#FAFAFA"/>
<path d="M39.0016 29.7533L32.3158 13.3943L32.3008 13.3491H27.099V14.4488H27.9385C28.1933 14.4488 28.4332 14.5542 28.6131 14.735C28.7929 14.9157 28.8829 15.1568 28.8829 15.4128L28.733 31.8773C28.733 32.3894 28.3134 32.8112 27.8036 32.8263L26.9492 32.8413V33.9259H32.016V32.8413L31.4913 32.8263C30.9817 32.8112 30.5618 32.3894 30.5618 31.8773V16.3618L37.8474 33.9259C37.9522 34.1819 38.192 34.3477 38.462 34.3477C38.7318 34.3477 38.9716 34.1819 39.0766 33.9259L46.1971 16.7534L46.3021 31.8773C46.3021 32.4045 45.8823 32.8263 45.3577 32.8413H44.8179V33.9259H50.7542V32.8413H49.9447C49.4351 32.8413 49.0153 32.4045 49.0003 31.8923L48.9554 15.4278C48.9554 14.9007 49.375 14.4789 49.8848 14.4638L50.7542 14.4488V13.3491H45.6874L39.0016 29.7533ZM85.6188 32.5547C85.4534 32.3888 85.3632 32.1625 85.3632 31.8908V23.8028C85.3632 22.2637 84.9124 21.0565 84.0105 20.1964C83.1239 19.3363 81.8914 18.8987 80.3585 18.8987C78.2091 18.8987 76.5109 19.7739 75.3235 21.4942C75.3085 21.5243 75.2635 21.5394 75.2184 21.5394C75.1732 21.5394 75.1432 21.5092 75.1432 21.464L74.587 19.3061H73.6552L71.2655 20.6793V21.4337H71.8818C72.1673 21.4337 72.4077 21.5091 72.5732 21.6602C72.7385 21.8111 72.8286 22.0374 72.8286 22.3542V31.8757C72.8286 32.1473 72.7385 32.3736 72.5732 32.5397C72.4077 32.7056 72.1824 32.7962 71.9119 32.7962H71.3106V33.8977H76.8114V32.7962H76.2103C75.9397 32.7962 75.7142 32.7056 75.549 32.5397C75.3837 32.3736 75.2934 32.1473 75.2934 31.8757V25.5683C75.2934 24.7686 75.4738 23.9688 75.8045 23.1841C76.1501 22.4146 76.6611 21.7658 77.3375 21.2678C78.0138 20.7699 78.8254 20.5284 79.7572 20.5284C80.8093 20.5284 81.6059 20.8603 82.1018 21.5243C82.5978 22.1883 82.8534 23.0483 82.8534 24.0744V31.8607C82.8534 32.1322 82.7631 32.3585 82.5978 32.5245C82.4325 32.6906 82.2071 32.781 81.9365 32.781H81.3354V33.8825H86.8362V32.781H86.235C86.0096 32.8113 85.7991 32.7207 85.6188 32.5547ZM135.876 14.5808C134.355 13.7697 132.656 13.3491 130.822 13.3491H123.667V14.4456H124.367C124.636 14.4456 124.874 14.5508 125.113 14.7911C125.336 15.0164 125.455 15.2718 125.455 15.5421V31.7047C125.455 31.975 125.336 32.2304 125.113 32.4557C124.889 32.681 124.636 32.8011 124.367 32.8011H123.667V33.8977H130.822C132.656 33.8977 134.355 33.4771 135.876 32.666C137.396 31.8548 138.633 30.6531 139.528 29.1211C140.422 27.589 140.884 25.7414 140.884 23.6384C140.884 21.5355 140.422 19.703 139.528 18.1558C138.618 16.5937 137.396 15.407 135.876 14.5808ZM138.007 23.6084C138.007 25.5311 137.664 27.1533 136.993 28.4601C136.323 29.767 135.428 30.7433 134.325 31.3743C133.222 32.0051 132 32.3205 130.688 32.3205H129.242C128.974 32.3205 128.735 32.2154 128.497 31.975C128.273 31.7497 128.154 31.4944 128.154 31.224V15.9778C128.154 15.7074 128.258 15.4671 128.497 15.2267C128.72 15.0014 128.974 14.8812 129.242 14.8812H130.688C132 14.8812 133.222 15.1967 134.325 15.8275C135.428 16.4584 136.323 17.4348 136.993 18.7415C137.664 20.0634 138.007 21.7007 138.007 23.6084ZM157.798 24.705C157.136 23.9388 155.859 23.293 154.357 22.9474C156.431 21.911 157.497 20.454 157.497 18.5764C157.497 17.555 157.227 16.6387 156.685 15.8575C156.145 15.0766 155.378 14.4456 154.402 14.01C153.425 13.5744 152.282 13.3491 150.99 13.3491H142.891V14.4456H143.537C143.807 14.4456 144.048 14.5508 144.288 14.7911C144.514 15.0164 144.634 15.2718 144.634 15.5421V31.7047C144.634 31.975 144.514 32.2304 144.288 32.4557C144.063 32.681 143.807 32.8011 143.537 32.8011H142.831V33.8977H151.622C152.959 33.8977 154.206 33.6724 155.333 33.2217C156.461 32.7711 157.362 32.1103 158.009 31.239C158.669 30.3678 159 29.3013 159 28.0695C158.985 26.7477 158.594 25.6211 157.798 24.705ZM147.714 31.99C147.489 31.7647 147.369 31.5094 147.369 31.239V23.9838H151.547C153.019 23.9838 154.146 24.3594 154.928 25.1104C155.709 25.8615 156.1 26.8378 156.1 28.0395C156.1 28.7605 155.919 29.4665 155.589 30.1124C155.244 30.7734 154.732 31.2991 154.041 31.7047C153.365 32.1103 152.523 32.3205 151.547 32.3205H148.466C148.195 32.3205 147.955 32.2154 147.714 31.99ZM147.384 22.4367V15.9928C147.384 15.7224 147.489 15.4821 147.729 15.2417C147.955 15.0164 148.21 14.8963 148.481 14.8963H150.465C151.891 14.8963 152.944 15.2568 153.606 15.9477C154.266 16.6537 154.597 17.555 154.597 18.6665C154.597 19.8081 154.281 20.7244 153.666 21.4153C153.049 22.0913 152.117 22.4367 150.885 22.4367H147.384ZM64.6778 19.8569C63.5295 19.2281 62.247 18.8987 60.8602 18.8987C59.5098 18.8987 58.2442 19.1968 57.1323 19.8067L57.0425 19.8569C55.8942 20.4855 54.9845 21.3986 54.3135 22.5513C53.6424 23.7039 53.2994 25.0513 53.2994 26.5482C53.2994 28.0451 53.6424 29.3925 54.3135 30.5451C54.9845 31.6978 55.8942 32.6109 57.0425 33.2397C58.1909 33.8683 59.4733 34.1977 60.8602 34.1977C62.2105 34.1977 63.4761 33.8996 64.588 33.2898L64.6778 33.2397C65.8262 32.6109 66.7358 31.6978 67.4069 30.5451C68.0779 29.3925 68.4209 28.0451 68.4209 26.5482C68.4209 25.0513 68.0779 23.7039 67.4069 22.5513C66.7358 21.3986 65.8262 20.4855 64.6778 19.8569ZM65.7814 26.5482C65.7814 28.3895 65.334 29.8864 64.4392 30.9642C63.5594 32.042 62.3515 32.5959 60.8602 32.5959C59.3956 32.5959 58.2042 32.0616 57.3286 31.0214L57.2812 30.9642C56.3863 29.8864 55.939 28.3895 55.939 26.5482C55.939 24.7404 56.3702 23.2646 57.2328 22.1914L57.2812 22.1322C58.1609 21.0544 59.369 20.5005 60.8602 20.5005C62.3515 20.5005 63.5594 21.0544 64.4392 22.1322C65.334 23.21 65.7814 24.7069 65.7814 26.5482ZM117.528 19.8569C116.38 19.2281 115.097 18.8987 113.71 18.8987C112.36 18.8987 111.095 19.1968 109.983 19.8067L109.893 19.8569C108.744 20.4855 107.835 21.3986 107.164 22.5513C106.493 23.7039 106.15 25.0513 106.15 26.5482C106.15 28.0451 106.493 29.3925 107.164 30.5451C107.835 31.6978 108.744 32.6109 109.893 33.2397C111.041 33.8683 112.324 34.1977 113.71 34.1977C115.061 34.1977 116.326 33.8996 117.438 33.2898L117.528 33.2397C118.676 32.6109 119.586 31.6978 120.257 30.5451C120.928 29.3925 121.271 28.0451 121.271 26.5482C121.271 25.0513 120.928 23.7039 120.257 22.5513C119.586 21.3986 118.661 20.4855 117.528 19.8569ZM118.632 26.5482C118.632 28.3895 118.184 29.8864 117.289 30.9642C116.41 32.042 115.202 32.5959 113.71 32.5959C112.246 32.5959 111.054 32.0616 110.179 31.0214L110.131 30.9642C109.237 29.8864 108.789 28.3895 108.789 26.5482C108.789 24.7257 109.22 23.264 110.083 22.1914L110.131 22.1322C111.011 21.0544 112.219 20.5005 113.71 20.5005C115.202 20.5005 116.41 21.0544 117.289 22.1322C118.169 23.21 118.632 24.7069 118.632 26.5482ZM96.2145 18.8987C95.0128 18.8987 93.9166 19.1543 92.9253 19.6656C91.9341 20.1769 91.1531 20.8688 90.5974 21.756C90.0418 22.6282 89.7564 23.6059 89.7564 24.6435C89.7564 25.5758 89.9666 26.433 90.4021 27.2001C90.8227 27.937 91.3934 28.5534 92.1143 29.0647L89.9666 31.9823C89.6962 32.3432 89.6663 32.8244 89.8615 33.2154C90.0717 33.6214 90.4622 33.8621 90.9128 33.8621H91.5286C90.9528 34.2512 90.4875 34.7094 90.1589 35.2498L90.1168 35.3208C89.7263 35.9674 89.5311 36.6441 89.5311 37.3359C89.5311 38.6062 90.0816 39.6588 91.1683 40.4511L91.2281 40.4941C92.3396 41.2911 93.9015 41.6971 95.8689 41.6971C97.2357 41.6971 98.5423 41.4716 99.7288 41.0354C100.896 40.6118 101.85 39.9894 102.565 39.1823L102.627 39.1106C103.363 38.2684 103.739 37.2458 103.739 36.0727C103.739 34.8396 103.288 33.9673 102.237 33.1252C101.336 32.4183 99.924 32.0425 98.1668 32.0425H92.1594C92.1504 32.0425 92.1413 32.037 92.1356 32.0326L92.1293 32.0273L92.1267 32.021C92.1232 32.0114 92.1186 31.993 92.1293 31.9823L93.6913 29.8769C94.1118 30.0724 94.5023 30.1926 94.8477 30.2678C95.2081 30.3431 95.6137 30.3731 96.0642 30.3731C97.3258 30.3731 98.4673 30.1175 99.4584 29.6062C100.45 29.0949 101.246 28.4031 101.816 27.5158C102.387 26.6436 102.672 25.6661 102.672 24.6285C102.672 23.5156 102.132 21.4853 100.66 20.4477C100.66 20.4387 100.665 20.4351 100.67 20.4336L100.675 20.4327L103.904 20.7936V19.3048H98.7375C97.9265 19.0492 97.0855 18.8987 96.2145 18.8987ZM98.0166 28.3128C97.4459 28.6136 96.8301 28.779 96.2145 28.779C95.2082 28.779 94.322 28.4181 93.5711 27.7114C92.8202 27.0045 92.4447 25.9668 92.4447 24.6435C92.4447 23.3201 92.8202 22.2823 93.5711 21.5756C94.322 20.8688 95.2082 20.5078 96.2145 20.5078C96.8189 20.5078 97.3958 20.646 97.9451 20.9354L98.0166 20.974C98.5873 21.2749 99.053 21.741 99.4285 22.3576C99.7888 22.9742 99.9841 23.7411 99.9841 24.6435C99.9841 25.5608 99.8038 26.3277 99.4285 26.9293C99.0679 27.5459 98.5873 28.0121 98.0166 28.3128ZM93.9465 33.847H98.0166C99.1431 33.847 99.864 34.0726 100.345 34.5539C100.825 35.0351 101.065 35.6817 101.065 36.4337C101.065 37.5315 100.63 38.4338 99.7589 39.1106C98.8877 39.7873 97.7163 40.1332 96.2745 40.1332C95.0128 40.1332 93.9615 39.8475 93.1956 39.306C92.4296 38.7647 92.0391 37.9375 92.0391 36.8849C92.0391 36.2231 92.2194 35.6065 92.5799 35.0652C92.9403 34.5237 93.3758 34.1327 93.9465 33.847Z" fill="#FAFAFA"/>
</g>
<defs>
<clipPath id="clip0_1007_756">
<rect width="159" height="42" fill="white"/>
</clipPath>
</defs>
</svg>
