<svg width="1311" height="536" viewBox="0 0 1311 536" fill="none" xmlns="http://www.w3.org/2000/svg">
<g filter="url(#filter0_f_969_778)">
<path fill-rule="evenodd" clip-rule="evenodd" d="M181.5 624.284H1130C1103.19 386.112 901.086 201 655.75 201C410.414 201 208.313 386.112 181.5 624.284Z" fill="url(#paint0_linear_969_778)"/>
</g>
<g filter="url(#filter1_f_969_778)">
<path fill-rule="evenodd" clip-rule="evenodd" d="M425.5 570.439H886.15C850.601 477.897 760.883 412.212 655.825 412.212C550.766 412.212 461.049 477.897 425.5 570.439Z" fill="#FF910F" fill-opacity="0.980392"/>
</g>
<circle cx="656" cy="559" r="558.5" stroke="#FFA80F" stroke-opacity="0.980392"/>
<circle cx="656" cy="559" r="558.5" stroke="#FFA80F" stroke-opacity="0.980392"/>
<circle cx="656" cy="559" r="467.5" stroke="#FFA80F" stroke-opacity="0.980392"/>
<circle cx="656" cy="559" r="467.5" stroke="#FFA80F" stroke-opacity="0.980392"/>
<circle cx="656" cy="559" r="368.5" stroke="#FFA80F" stroke-opacity="0.980392"/>
<circle cx="656" cy="559" r="368.5" stroke="#FFA80F" stroke-opacity="0.980392"/>
<circle cx="656" cy="559" r="278.5" stroke="#FFA80F" stroke-opacity="0.980392"/>
<circle cx="656" cy="559" r="278.5" stroke="#FFA80F" stroke-opacity="0.980392"/>
<circle cx="656" cy="559" r="193.5" stroke="#FFA80F" stroke-opacity="0.980392"/>
<circle cx="656" cy="559" r="193.5" stroke="#FFA80F" stroke-opacity="0.980392"/>
<defs>
<filter id="filter0_f_969_778" x="0.5" y="20" width="1310.5" height="785.284" filterUnits="userSpaceOnUse" color-interpolation-filters="sRGB">
<feFlood flood-opacity="0" result="BackgroundImageFix"/>
<feBlend mode="normal" in="SourceGraphic" in2="BackgroundImageFix" result="shape"/>
<feGaussianBlur stdDeviation="90.5" result="effect1_foregroundBlur_969_778"/>
</filter>
<filter id="filter1_f_969_778" x="318.5" y="305.212" width="674.65" height="372.227" filterUnits="userSpaceOnUse" color-interpolation-filters="sRGB">
<feFlood flood-opacity="0" result="BackgroundImageFix"/>
<feBlend mode="normal" in="SourceGraphic" in2="BackgroundImageFix" result="shape"/>
<feGaussianBlur stdDeviation="53.5" result="effect1_foregroundBlur_969_778"/>
</filter>
<linearGradient id="paint0_linear_969_778" x1="656.18" y1="187.341" x2="656.18" y2="816.808" gradientUnits="userSpaceOnUse">
<stop stop-color="#FEB705"/>
<stop offset="1" stop-color="#FEB705" stop-opacity="0.48"/>
</linearGradient>
</defs>
</svg>
