<svg width="29" height="29" viewBox="0 0 29 29" fill="none" xmlns="http://www.w3.org/2000/svg">
<g filter="url(#filter0_d_1132_1626)">
<path d="M13.5489 7.42705C13.8483 6.50574 15.1517 6.50574 15.4511 7.42705L16.6329 11.0643C16.7668 11.4764 17.1507 11.7553 17.5839 11.7553H21.4084C22.3771 11.7553 22.7799 12.9949 21.9962 13.5643L18.9021 15.8123C18.5516 16.0669 18.405 16.5183 18.5389 16.9303L19.7207 20.5676C20.02 21.4889 18.9656 22.2551 18.1818 21.6857L15.0878 19.4377C14.7373 19.1831 14.2627 19.1831 13.9122 19.4377L10.8182 21.6857C10.0344 22.2551 8.97996 21.4889 9.27931 20.5676L10.4611 16.9303C10.595 16.5183 10.4484 16.0669 10.0979 15.8123L7.00381 13.5643C6.22009 12.9949 6.62287 11.7553 7.59159 11.7553H11.4161C11.8493 11.7553 12.2332 11.4764 12.3671 11.0643L13.5489 7.42705Z" fill="#FFA80F" fill-opacity="0.980392" shape-rendering="crispEdges"/>
<path d="M15.6888 7.3498C15.3146 6.19816 13.6854 6.19816 13.3112 7.3498L12.1294 10.9871C12.0289 11.2961 11.741 11.5053 11.4161 11.5053H7.59159C6.38069 11.5053 5.87722 13.0548 6.85686 13.7666L9.95092 16.0146C10.2138 16.2055 10.3238 16.5441 10.2234 16.8531L9.04155 20.4904C8.66736 21.642 9.98546 22.5997 10.9651 21.8879L14.0592 19.6399C14.322 19.449 14.678 19.449 14.9408 19.6399L18.0349 21.8879C19.0145 22.5997 20.3326 21.642 19.9585 20.4904L18.7766 16.8531C18.6762 16.5441 18.7862 16.2055 19.0491 16.0146L22.1431 13.7666C23.1228 13.0548 22.6193 11.5053 21.4084 11.5053H17.5839C17.259 11.5053 16.9711 11.2961 16.8706 10.9871L15.6888 7.3498Z" stroke="url(#paint0_linear_1132_1626)" stroke-opacity="0.8" stroke-width="0.5" shape-rendering="crispEdges"/>
<path d="M15.6888 7.3498C15.3146 6.19816 13.6854 6.19816 13.3112 7.3498L12.1294 10.9871C12.0289 11.2961 11.741 11.5053 11.4161 11.5053H7.59159C6.38069 11.5053 5.87722 13.0548 6.85686 13.7666L9.95092 16.0146C10.2138 16.2055 10.3238 16.5441 10.2234 16.8531L9.04155 20.4904C8.66736 21.642 9.98546 22.5997 10.9651 21.8879L14.0592 19.6399C14.322 19.449 14.678 19.449 14.9408 19.6399L18.0349 21.8879C19.0145 22.5997 20.3326 21.642 19.9585 20.4904L18.7766 16.8531C18.6762 16.5441 18.7862 16.2055 19.0491 16.0146L22.1431 13.7666C23.1228 13.0548 22.6193 11.5053 21.4084 11.5053H17.5839C17.259 11.5053 16.9711 11.2961 16.8706 10.9871L15.6888 7.3498Z" stroke="url(#paint1_linear_1132_1626)" stroke-opacity="0.8" stroke-width="0.5" shape-rendering="crispEdges"/>
</g>
<defs>
<filter id="filter0_d_1132_1626" x="0.0887451" y="0.236053" width="28.8226" height="28.1474" filterUnits="userSpaceOnUse" color-interpolation-filters="sRGB">
<feFlood flood-opacity="0" result="BackgroundImageFix"/>
<feColorMatrix in="SourceAlpha" type="matrix" values="0 0 0 0 0 0 0 0 0 0 0 0 0 0 0 0 0 0 127 0" result="hardAlpha"/>
<feOffset/>
<feGaussianBlur stdDeviation="3"/>
<feComposite in2="hardAlpha" operator="out"/>
<feColorMatrix type="matrix" values="0 0 0 0 1 0 0 0 0 0.658824 0 0 0 0 0.0588235 0 0 0 0.980392 0"/>
<feBlend mode="normal" in2="BackgroundImageFix" result="effect1_dropShadow_1132_1626"/>
<feBlend mode="normal" in="SourceGraphic" in2="effect1_dropShadow_1132_1626" result="shape"/>
</filter>
<linearGradient id="paint0_linear_1132_1626" x1="3.43197" y1="3.4959" x2="12.0912" y2="7.21456" gradientUnits="userSpaceOnUse">
<stop stop-color="#FFA80F"/>
<stop offset="1" stop-color="white"/>
</linearGradient>
<linearGradient id="paint1_linear_1132_1626" x1="25" y1="25.5" x2="16.7302" y2="21.7853" gradientUnits="userSpaceOnUse">
<stop stop-color="#FFA80F"/>
<stop offset="1" stop-color="#D5D5D5" stop-opacity="0.34"/>
</linearGradient>
</defs>
</svg>
