<svg width="488" height="487" viewBox="0 0 488 487" fill="none" xmlns="http://www.w3.org/2000/svg">
<path style="mix-blend-mode:color-dodge" d="M487 243.5C487 291.66 472.719 338.738 445.963 378.781C419.207 418.825 381.177 450.035 336.683 468.465C292.19 486.895 243.23 491.717 195.996 482.321C148.761 472.926 105.374 449.734 71.3196 415.68C37.2655 381.626 14.0744 338.239 4.67889 291.004C-4.71661 243.77 0.105501 194.81 18.5354 150.317C36.9654 105.823 68.1754 67.7933 108.219 41.0371C148.262 14.281 195.34 0 243.5 0C308.08 0 370.015 25.6544 415.681 71.3195C461.346 116.985 487 178.92 487 243.5Z" fill="url(#paint0_radial_1838_24789)"/>
<g style="mix-blend-mode:color-dodge">
<path d="M137.01 27.1421C137.01 27.1421 136.848 27.1421 136.685 27.1421C136.179 27.3264 135.69 27.5546 135.224 27.8239L133.698 29.0576C133.698 29.0576 133.698 29.0577 133.698 29.2525C133.698 29.4473 134.38 29.5446 136.393 28.1486C137.367 27.1421 137.237 27.1421 137.01 27.1421Z" fill="url(#paint1_radial_1838_24789)"/>
<path d="M133.795 25.7136L132.562 26.2655C132.562 26.2655 132.302 26.5252 132.334 26.5577C132.587 26.5387 132.832 26.4609 133.049 26.3304C133.311 26.1415 133.56 25.9354 133.795 25.7136Z" fill="url(#paint2_radial_1838_24789)"/>
<path d="M139.639 23.0838C140.046 23.0132 140.44 22.8818 140.808 22.6942C141.294 22.5115 141.762 22.2832 142.204 22.0124C142.595 21.8301 142.975 21.6241 143.341 21.3955C143.341 21.3955 143.341 21.3955 143.113 21.3955C140.773 22.2415 138.495 23.2505 136.295 24.4149L138.114 23.7006C138.602 23.4486 139.113 23.2421 139.639 23.0838Z" fill="url(#paint3_radial_1838_24789)"/>
<path d="M135.906 25.2266C135.906 25.2266 135.906 25.2266 137.334 24.5448L138.763 23.9279C138.763 23.9279 138.763 23.9279 138.925 23.9279H138.666C136.017 24.7607 133.518 26.0101 131.263 27.6291C132.874 27.0356 134.437 26.3192 135.938 25.4863C135.938 25.4863 135.906 25.2915 135.906 25.2266Z" fill="url(#paint4_radial_1838_24789)"/>
<path d="M139.802 24.8695L140.029 24.6746C140.164 24.5725 140.284 24.4523 140.386 24.3175L141.101 23.7007C141.263 23.7007 141.263 23.7007 141.263 23.7007C140.461 24.0578 139.708 24.516 139.023 25.0642C139.023 25.0642 139.023 25.0642 138.795 25.6162C138.795 25.4538 139.802 24.8695 139.802 24.8695Z" fill="url(#paint5_radial_1838_24789)"/>
<path d="M130.127 31.9796H129.867C129.642 32.0426 129.424 32.1297 129.218 32.2394C128.478 32.6183 127.782 33.0755 127.14 33.603C128.056 33.2832 128.938 32.8698 129.769 32.3692C130.062 32.2394 130.321 32.0121 130.127 31.9796Z" fill="url(#paint6_radial_1838_24789)"/>
<path d="M131.88 35.973C131.88 35.973 131.685 35.973 131.166 35.973H130.874L128.341 36.4601C126.602 37.0051 124.966 37.8392 123.504 38.9275C123.763 38.9275 124.088 38.9275 124.348 38.9275C124.607 38.9275 124.64 39.382 124.543 39.5119C123.614 40.3346 122.614 41.0734 121.556 41.7196C121.328 41.7196 121.296 41.7196 121.166 41.7196C120.971 41.0703 121.783 40.8431 121.783 40.2911C120.745 40.6454 119.809 41.2471 119.056 42.0443C119.056 42.0443 119.056 42.0443 119.056 42.2391C119.056 42.4339 119.445 43.1482 119.543 43.6676C119.64 44.1871 119.543 44.0248 119.543 44.2196C119.543 44.4144 119.315 44.9014 119.543 45.291C119.529 45.3551 119.529 45.4216 119.543 45.4858C120.16 46.1351 125.809 42.8235 127.335 41.2976C127.659 40.9404 128.633 38.9925 128.016 39.0249C127.33 39.1328 126.656 39.3068 126.004 39.5444C127.335 38.6678 128.796 38.0509 130.127 37.1743C130.192 37.499 131.848 36.0704 131.88 35.973Z" fill="url(#paint7_radial_1838_24789)"/>
<path d="M115.712 35.7133C118.179 34.6419 120.224 32.8887 122.627 31.7199C121.747 32.215 120.901 32.7681 120.095 33.3757L128.309 28.7005C128.553 28.5653 128.772 28.3897 128.958 28.181C128.852 28.1485 128.739 28.1485 128.633 28.181C123.182 30.893 117.892 33.9175 112.79 37.2392C114.023 37.0769 114.802 36.0704 115.841 35.5834L115.712 35.7133Z" fill="url(#paint8_radial_1838_24789)"/>
<path d="M115.744 53.1154C115.535 53.1746 115.345 53.2864 115.192 53.4401C114.232 54.3785 113.224 55.2671 112.173 56.1024C110.225 57.2712 109.673 57.6283 109.575 57.9205C109.833 57.9689 110.097 57.9689 110.354 57.9205C111.069 57.9205 111.166 57.9205 111.296 57.9205C111.426 57.9205 111.491 58.5049 111.848 58.6348C112.236 58.6774 112.628 58.6774 113.017 58.6348C114.737 58.4161 116.365 57.7312 117.724 56.6543C118.081 56.1998 117.172 54.479 117.172 54.479C116.883 53.862 116.374 53.3756 115.744 53.1154Z" fill="url(#paint9_radial_1838_24789)"/>
<path d="M120.419 38.9924C120.225 38.9649 120.028 38.9649 119.835 38.9924C118.609 39.2415 117.482 39.839 116.588 40.7132C116.75 40.7132 116.945 40.7132 117.107 40.7132C117.27 40.7132 117.107 40.7132 117.107 41.2002C117.107 41.6872 116.75 42.0118 117.107 41.882C118.028 41.4007 118.889 40.8122 119.672 40.1288C120.549 39.3496 120.776 39.0249 120.419 38.9924Z" fill="url(#paint10_radial_1838_24789)"/>
<path d="M199.735 6.72057C198.014 8.13808 195.957 9.08847 193.762 9.48024C190.74 10.3001 187.77 11.2975 184.866 12.4672C182.528 15.7139 188.405 16.5904 188.469 16.5904C203.015 15.519 203.209 15.6814 204.248 16.5904C204.248 16.5904 211.099 24.1876 208.891 28.2784C207.982 29.9342 207.982 29.9992 208.047 30.2264C208.209 31.103 209.248 31.168 209.573 31.9147C209.897 32.6614 209.573 34.3497 210.19 35.4536C212.105 34.999 213.664 33.0186 215.936 34.025C216.453 34.1312 216.935 34.3615 217.343 34.6961C217.75 35.0307 218.07 35.4594 218.275 35.9453C218.479 36.4312 218.563 36.9596 218.517 37.4849C218.472 38.0101 218.299 38.5164 218.014 38.96C216.423 40.843 213.501 40.7456 212.04 42.8884C211.004 44.8143 210.66 47.0379 211.066 49.187C211.358 50.096 222.722 69.3488 228.176 71.1994C225.449 31.1355 223.436 12.7594 220.676 4.28557C223.176 11.8828 225.157 26.8174 228.176 71.1994C241.812 73.7967 242.104 73.472 242.981 72.498C244.409 70.8747 246.877 58.44 246.877 58.3101C247.234 56.492 246.293 54.544 247.332 52.7583C247.883 51.8492 247.948 51.8168 251.357 50.7778C262.104 47.5312 262.104 47.5312 262.364 45.4858C262.623 43.4404 262.818 42.2391 264.766 41.2651C269.441 38.895 274.831 38.5379 279.506 36.1354C281.494 35.3143 283.425 34.3597 285.285 33.2783C285.285 33.2783 286.194 32.5965 285.09 31.2004C283.499 29.1226 281.064 27.9538 279.538 25.811C278.849 24.3644 278.305 22.8526 277.915 21.2981C277.136 19.5774 277.493 19.1228 278.435 18.0514C279.376 16.98 278.857 16.1684 276.129 14.5451C267.201 9.28545 267.136 9.18805 266.389 8.05172C266.402 7.93298 266.402 7.81332 266.389 7.69458L266.844 7.49978C264.247 4.96738 258.955 6.98031 257.688 2.14278L256.812 1.68824C256.846 1.44286 256.912 1.20284 257.007 0.973974H257.364C256.195 0.973974 252.818 0.584377 252.786 0.584377C250.882 0.544811 248.978 0.697088 247.104 1.03891C245.156 1.39604 243.5 0.129844 241.617 0.0649109C238.988 0.0649109 233.209 0.0649109 230.871 0.0649109C226.618 0.292178 226.618 0.292179 226.131 0.649312C223.842 0.640229 221.558 0.857736 219.313 1.29865C220.492 1.32542 221.667 1.46676 222.819 1.72071C221.738 1.78169 220.654 1.78169 219.573 1.72071C218.491 1.65661 217.407 1.65661 216.326 1.72071C209.879 2.41025 203.561 4.00604 197.56 6.46085C198.177 6.72058 198.177 6.72057 199.735 6.72057Z" fill="url(#paint11_radial_1838_24789)"/>
<path d="M158.632 52.6609C159.184 51.1999 158.957 50.5181 157.918 50.6804C157.918 50.6804 154.672 51.4921 154.217 52.8882C153.892 53.6998 155.191 55.7452 155.678 56.1348C156.944 56.8816 158.632 52.6934 158.632 52.6609Z" fill="url(#paint12_radial_1838_24789)"/>
<path d="M180.71 8.76597C180.028 9.05817 179.314 9.28546 178.599 9.54519C180.84 9.02572 188.047 7.04525 189.183 6.72058C185.024 8.1968 180.786 9.44324 176.489 10.4543C175.9 10.5307 175.347 10.7792 174.898 11.1685C174.765 12.0128 174.393 12.8013 173.827 13.4412C171.684 12.7918 166.1 16.0385 165.872 16.2333C166.403 16.3283 166.925 16.4695 167.431 16.6554V16.8826C168.552 16.6908 169.644 16.3525 170.678 15.8762C166.587 18.1164 166.1 17.5644 165.775 17.2398C162.528 17.2398 162.528 18.4735 162.528 19.0579C160.775 20.2267 158.47 20.3566 156.912 21.8825V22.1098C158.295 22.09 159.669 21.8936 161.002 21.5254C163.405 21.0384 165.548 19.3501 168.178 19.9345C167.983 20.389 167.983 20.3891 167.431 20.8111C169.184 21.1683 174.768 18.441 174.249 17.045H173.632C175.124 15.7307 176.797 14.6373 178.599 13.7983C183.599 12.597 185.352 10.714 185.385 10.2919H185.125C187.982 9.79008 190.75 8.87121 193.339 7.56472C192.94 7.52023 192.537 7.52023 192.138 7.56472L203.177 4.12325C200.482 4.51285 200.32 4.54532 199.281 4.61026C201.878 3.92846 204.54 3.53886 207.17 2.85706C204.638 2.85706 200.449 3.40898 200.417 3.40898C200.384 3.40898 190.255 5.12972 188.08 5.97385C188.186 6.10789 188.318 6.21845 188.469 6.29853C187.873 6.45391 187.247 6.45391 186.651 6.29853C183.08 6.87301 179.613 7.96682 176.359 9.54519C176.846 9.70752 176.944 9.73997 180.71 8.76597Z" fill="url(#paint13_radial_1838_24789)"/>
<path d="M140.224 26.2006C140.059 26.5044 139.874 26.7972 139.672 27.0772C139.241 27.5388 138.762 27.9525 138.243 28.3109C138.243 28.0187 138.503 27.694 138.6 27.4018C138.614 27.2724 138.614 27.1417 138.6 27.0122C138.234 27.0267 137.876 27.1214 137.55 27.2897C137.225 27.4581 136.94 27.6958 136.717 27.9863H137.009C135.881 28.6724 134.684 29.2383 133.438 29.6745C133.6 29.6745 133.795 29.6745 133.957 29.6745C134.12 29.6745 133.957 29.9667 133.957 30.0316C133.957 30.0966 134.185 30.0316 137.529 28.9927C136.457 29.5771 133.665 31.1355 133.438 31.8498C133.438 31.8498 137.237 30.4537 137.691 30.194C138.567 29.5791 139.392 28.8951 140.159 28.1486C140.196 28.2536 140.196 28.3682 140.159 28.4733C141.281 27.392 142.463 26.3732 143.697 25.4214C144.249 24.9668 144.282 24.9344 144.379 24.772H143.99C143.99 24.772 140.743 25.7785 140.321 25.9733L140.224 26.2006Z" fill="url(#paint14_radial_1838_24789)"/>
<path d="M176.716 52.9206C178.275 52.9206 181.716 57.0764 181.748 57.1413C182.56 58.2127 183.404 59.3166 184.183 59.1542C186.326 58.7646 189.54 50.5506 189.573 50.4856C189.604 50.1943 189.604 49.9004 189.573 49.609L173.891 46.0702C175.312 45.0795 176.863 44.2926 178.502 43.7326C180.158 42.9858 181.002 42.6287 180.937 42.1742C178.907 39.1397 176.011 36.7866 172.625 35.4211C171.411 35.4703 170.197 35.339 169.021 35.0315C167.82 34.4146 167.95 32.4342 166.294 32.3043C163.794 32.6265 161.354 33.3157 159.054 34.3497C156.587 35.2588 156.587 35.2588 156.197 35.2263C155.765 33.8191 155.6 32.3436 155.71 30.8758C154.039 30.6953 152.349 30.7941 150.71 31.168C145.97 32.3043 131.912 44.1546 134.477 45.8753C137.042 47.5961 146.132 45.8754 147.464 45.226C147.269 44.4793 147.139 43.9923 151.1 43.5702C154.347 43.1806 154.931 42.369 155.256 41.8495C156.303 42.5487 157.301 43.3188 158.243 44.1546C159.379 45.3884 159.866 47.0441 160.937 48.3103C162.009 49.5765 165.385 49.7713 165.418 52.7258C165.418 52.7258 164.768 59.4464 155.483 62.2385C152.615 62.635 149.797 63.3314 147.074 64.3164C146.631 64.6275 146.305 65.0773 146.146 65.5946C145.987 66.112 146.005 66.6676 146.197 67.1735C146.684 67.628 148.34 67.8553 153.21 66.1995C156.944 64.9333 156.944 64.9333 163.567 67.8553C163.015 68.4072 163.015 68.4072 160.32 69.4137C161.781 70.7123 173.112 73.05 175.417 71.7838C175.417 71.4266 175.417 71.4266 174.736 71.1344C172.836 69.6651 171.055 68.0475 169.411 66.2969C172.067 66.346 174.647 67.1946 176.813 68.7319C177.268 69.0241 177.56 69.2513 177.787 69.1864C179.054 68.7968 181.034 64.0567 180.125 62.9853C177.95 60.7126 173.827 61.0048 172.593 57.4335C171.619 54.479 176.684 52.9206 176.716 52.9206Z" fill="url(#paint15_radial_1838_24789)"/>
<path d="M125.484 30.5836C126.111 30.464 126.701 30.1969 127.205 29.8044C127.368 29.726 127.52 29.6278 127.659 29.5122C126.896 29.7864 126.166 30.1458 125.484 30.5836Z" fill="url(#paint16_radial_1838_24789)"/>
<path d="M212.235 39.4145L214.638 38.9275C214.965 38.7753 215.237 38.5259 215.417 38.2133C215.477 38.1157 215.509 38.0033 215.509 37.8886C215.509 37.7739 215.477 37.6615 215.417 37.5639C215.222 37.2068 214.8 37.0769 214.54 36.7847C214.416 36.6398 214.347 36.4559 214.345 36.2652C213.976 36.1461 213.579 36.1461 213.209 36.2652C212.138 36.4925 209.053 38.2782 210.742 39.3171C211.219 39.4954 211.739 39.5293 212.235 39.4145Z" fill="url(#paint17_radial_1838_24789)"/>
<path d="M165.288 31.1355C163.42 30.2087 161.318 29.8584 159.249 30.129C157.107 30.4862 157.756 31.9472 158.275 32.3693C159.931 33.6355 165.126 31.168 165.288 31.1355Z" fill="url(#paint18_radial_1838_24789)"/>
<path d="M148.47 19.902C147.769 20.16 147.086 20.4637 146.425 20.8111H146.717C147.425 20.6194 148.163 20.5643 148.892 20.6488C148.892 21.0059 148.275 21.0059 148.21 21.3955C148.145 21.7851 150.126 20.8436 150.256 20.7787C151.318 20.1042 152.252 19.2468 153.016 18.2463C152.723 18.2463 152.529 18.2463 152.236 18.2463C152.496 17.7917 153.08 17.8242 153.373 17.4346H153.178C151.561 17.9743 149.987 18.6363 148.47 19.4151C148.892 19.4151 149.282 19.2203 149.671 19.2527C150.061 19.2852 149.444 19.5449 148.47 19.902Z" fill="url(#paint19_radial_1838_24789)"/>
<path d="M139.38 29.9018C138.925 30.2264 138.763 30.3238 139.38 30.7784C139.967 30.8855 140.572 30.8436 141.14 30.6564C141.707 30.4692 142.218 30.1428 142.626 29.707C143.373 29.0576 144.899 27.4992 144.217 27.4343H143.925C142.349 28.1387 140.829 28.9636 139.38 29.9018Z" fill="url(#paint20_radial_1838_24789)"/>
<path d="M159.963 18.6358H159.606C158.632 18.928 157.691 19.3177 156.717 19.6099C155.743 19.9021 154.477 20.1618 153.47 20.5189C152.978 20.6457 152.5 20.8197 152.042 21.0384C153.829 20.8735 155.599 20.5585 157.334 20.0969C158.228 19.8483 159.066 19.4294 159.801 18.8631L159.963 18.6358Z" fill="url(#paint21_radial_1838_24789)"/>
<path d="M151.879 20.3566C152.237 20.3566 155.581 18.8956 156.522 18.4735C156.944 18.2463 157.042 18.1813 157.042 17.9865C157.042 17.7917 156.749 17.9865 156.717 17.6943C156.684 17.4021 156.717 17.4995 156.717 17.4021C156.555 17.4021 156.49 17.4021 156.262 17.4021C156.085 17.4713 155.92 17.5701 155.775 17.6943C155.029 18.1813 154.542 19.0255 153.665 19.3501C152.788 19.6748 152.139 19.8371 151.879 20.3566Z" fill="url(#paint22_radial_1838_24789)"/>
<path d="M159.639 15.3243C160.483 14.9898 161.289 14.5653 162.042 14.0581L161.879 14.1555C161.879 14.1555 159.509 14.9022 158.827 15.2269C158.146 15.5515 158.308 15.9087 158.308 15.9087C158.786 15.8054 159.239 15.6067 159.639 15.3243Z" fill="url(#paint23_radial_1838_24789)"/>
<path d="M164.703 14.1554C165.71 13.8308 166.035 13.7658 166.359 13.8957C165.834 14.1664 165.278 14.3735 164.703 14.5126C163.483 14.8589 162.29 15.2929 161.132 15.8112C160.515 16.2008 160.45 16.9151 160.71 17.045C160.97 17.1748 160.71 17.045 162.528 16.558C163.21 16.3632 163.957 16.558 164.671 16.2658C166.359 15.6814 167.918 14.5775 169.411 13.8308C170.418 13.4087 171.554 13.2788 172.658 12.7594H172.885C172.885 12.7594 172.885 12.7594 172.073 12.5321C172.233 12.4201 172.408 12.3325 172.593 12.2724C173.989 11.623 173.989 11.5581 174.021 11.3958C174.054 11.2334 173.697 11.3958 173.567 11.3958C173.437 11.3958 174.314 11.0062 174.216 10.4867C174.119 9.96725 174.995 10.0322 175.255 9.64258H174.866C172 10.5561 169.192 11.6403 166.457 12.8892C166.758 12.9389 167.065 12.9389 167.366 12.8892C166.664 13.2637 165.908 13.5266 165.126 13.6684C164.066 13.9006 163.089 14.4169 162.301 15.1619C163.131 14.9013 163.935 14.5644 164.703 14.1554Z" fill="url(#paint24_radial_1838_24789)"/>
<path d="M145.289 29.9992C145.289 29.9992 162.496 28.246 167.041 23.7331C168.243 22.5318 165.223 22.3695 165.191 22.3695C161.497 23.1263 157.879 24.2129 154.379 25.6162C152.951 26.1681 151.847 24.8695 152.139 24.5123C152.431 24.1552 152.496 24.285 153.016 24.1227C155.775 23.3435 154.412 22.4669 154.12 22.4669C153.438 22.5684 152.766 22.7204 152.107 22.9214C151.295 22.9214 150.516 22.7266 149.704 22.9214C149.18 22.9786 148.66 23.0653 148.146 23.1812C147.724 23.1812 146.36 24.7396 146.393 25.0967C146.755 25.0995 147.113 25.0101 147.432 24.837C148.211 24.5772 149.25 24.2201 149.477 24.3824C149.704 24.5448 148.535 26.3954 148.47 26.4603C147.626 27.2395 146.458 27.5317 145.711 28.4083C144.185 29.9992 144.802 29.9992 145.289 29.9992Z" fill="url(#paint25_radial_1838_24789)"/>
<path d="M487 240.903C486.611 234.117 486.286 225.026 485.604 218.176C485.279 216.131 485.02 214.28 484.76 212.527C483.137 207.137 482.974 206.293 479.793 187.268V187.495C472.001 161.522 472.001 161.522 471.871 160.353C469.71 153.877 467.117 147.554 464.111 141.425L455.767 125.191C453.342 121.912 450.325 119.115 446.871 116.945C450.356 119.074 453.381 121.877 455.767 125.191C452.521 119.932 448.43 112.822 445.021 107.724C430.378 87.7249 430.086 87.3353 420.995 77.5628L411.255 67.8228L410.152 66.8489C411.685 68.6127 413.345 70.262 415.119 71.7838C414.411 71.323 413.728 70.8244 413.074 70.2903C414.419 72.1279 416.027 73.7578 417.846 75.1278L417.489 75.3876C410.704 69.8682 404.924 63.245 398.009 57.7906C401.107 60.318 404.36 62.6493 407.749 64.771C402.323 59.1588 396.24 54.2208 389.633 50.0636C387.517 48.9533 385.516 47.6375 383.659 46.1351C383.968 46.2237 384.272 46.3321 384.568 46.4598C383.87 45.9077 383.132 45.4085 382.36 44.9663L382.003 45.2585C380.391 44.5357 378.866 43.6316 377.458 42.5638L378.432 42.8884C377.88 41.5898 371.938 38.8301 371.419 38.7002C371.712 39.4039 372.156 40.0354 372.718 40.5508C370.607 39.8366 369.471 37.6288 367.49 36.8821C367.88 37.8236 368.919 38.2782 369.309 39.2197C368.562 40.8755 368.562 40.8755 368.692 41.882C370.154 45.3459 371.846 48.7083 373.756 51.9466C377.36 57.4984 377.23 59.414 377.198 59.6412C376.484 64.771 376.484 64.771 373.659 66.7839C372.62 67.5306 372.653 67.9202 373.205 69.2514C373.205 69.4462 380.834 87.1405 387.815 83.8939C390.055 82.8549 388.951 79.1537 388.399 77.4005C393.937 82.6168 399.091 88.2265 403.821 94.1858C404.924 96.0364 405.963 97.7896 407.879 97.7896C408.425 95.1652 408.211 92.4396 407.262 89.9326C404.47 84.7704 405.119 84.186 406.515 82.8874C406.515 81.6536 406.515 81.1991 402.814 78.7966C400.282 77.1408 400.282 77.1408 396.873 71.6214C395.574 69.5436 397.749 66.8813 395.801 64.9008C393.971 63.1671 392.247 61.324 390.639 59.3815L390.379 58.7322L390.607 58.3426C393.834 59.7697 396.748 61.8221 399.178 64.3814H398.886C403.723 75.1928 403.723 75.1928 408.269 79.4459C412.262 83.1471 418.333 82.6926 422.359 86.2639C421.695 86.0997 421.053 85.86 420.444 85.5496L420.054 85.7769C420.304 86.2499 420.586 86.7055 420.898 87.1405C418.627 86.2884 416.293 85.6153 413.918 85.1276C416.58 88.7638 420.411 91.6209 422.424 95.6143C419.827 95.6143 419.632 91.7183 416.807 91.9456L416.548 92.3676C416.548 92.3676 419.794 98.2116 420.054 98.6012C420.314 98.9908 422.586 101.848 422.456 103.082C421.822 102.981 421.175 102.981 420.541 103.082C420.314 103.601 420.249 104.121 420.021 104.64L420.314 104.997C412.944 104.478 412.944 104.478 412.911 105.192L411.905 105.809C410.171 104.913 408.309 104.288 406.385 103.958L409.957 104.575C408.515 103.46 406.708 102.927 404.892 103.082C403.918 103.082 403.691 103.082 400.931 99.835C398.585 97.5539 397.086 94.5427 396.678 91.2962C396.678 90.095 394.925 85.0951 393.594 84.8029C393.431 84.8029 389.633 84.8029 390.347 86.6535C392.763 91.444 395.622 95.9983 398.886 100.257C400.314 101.88 400.379 102.075 400.412 102.205C400.444 102.335 400.184 102.432 399.145 102.627L396.678 103.049L395.964 104.056C392.068 104.056 392.068 104.056 390.996 104.965C391.381 107.207 391.957 109.411 392.717 111.555L392.1 112.659C390.377 112.387 388.612 112.601 387.003 113.276C387.363 114.516 387.83 115.721 388.399 116.88C387.558 117.452 386.64 117.9 385.672 118.211C385.64 119.116 385.442 120.008 385.087 120.841C382.936 121.031 380.794 120.379 379.113 119.023C379.569 119.818 380.068 120.587 380.607 121.328C380.607 121.685 380.315 122.172 380.217 122.529C379.377 122.9 378.508 123.204 377.62 123.438C375.802 122.269 375.802 122.269 372.88 122.204C372.687 122.574 372.514 122.953 372.36 123.341L374.795 125.484L373.789 126.23C391.386 131.1 388.626 148.762 388.529 148.957C380.315 148.373 372.295 145.938 364.276 145.093C364.732 145.87 365.265 146.599 365.867 147.269C365.867 147.496 366.776 169.346 369.568 169.995C369.403 172.456 369.1 174.906 368.659 177.333C371.743 176.803 374.894 176.803 377.977 177.333C378.218 178.665 378.554 179.978 378.984 181.261L392.327 176.846C395.996 176.391 396.938 171.716 394.925 168.567C397.068 159.801 397.165 159.768 402.652 157.593C402.652 150.515 402.652 150.515 403.334 150.028C405.866 147.918 407.846 151.295 410.249 151.295C412.392 147.464 414.21 144.964 417.586 148.048C417.781 148.048 436.385 169.573 438.203 175.547C439.599 180.093 438.95 180.19 431.093 181.261C432.949 183.738 435.072 186.002 437.424 188.014C438.105 185.872 436.774 183.826 437.164 181.716H438.333C439.339 180.255 439.729 178.469 440.638 177.008C439.889 175.253 439.503 173.365 439.501 171.456L440.703 171.164C441.157 171.814 441.807 172.658 442.294 173.307C441.904 171.391 441.904 171.391 435.605 163.827C435.605 163.47 435.8 162.983 435.898 162.626C432.911 161.294 430.573 160.255 422.684 144.119C423.147 143.47 423.774 142.954 424.502 142.626L442.391 163.632C442.391 163.632 442.391 163.632 447.78 179.086L453.462 192.073C453.563 191.232 453.617 190.387 453.624 189.54C453.321 186.513 452.723 183.523 451.839 180.612C449.891 170.872 449.891 170.872 450.832 170.255C452.188 170.63 453.441 171.306 454.498 172.234C455.556 173.161 456.389 174.316 456.936 175.612C457.342 174.872 457.689 174.101 457.975 173.307H459.241C460.41 164.509 454.144 157.074 455.248 148.145C455.983 147.885 456.785 147.885 457.52 148.145L457.001 149.217C457.774 150.209 458.748 151.028 459.858 151.619C460.237 152.912 460.237 154.287 459.858 155.58C460.821 156.983 461.709 158.435 462.52 159.931C466.741 157.463 460.442 153.145 461.676 149.574C463.559 149.184 463.884 149.801 464.436 151.262C464.241 151.587 464.014 152.041 463.819 152.399C464.468 153.437 464.468 153.437 465.442 157.236L464.761 158.242C467.812 165.775 474.695 171.619 474.501 180.58L473.429 181.164C469.793 178.729 469.988 170.645 464.046 172.203C463.97 172.988 463.665 173.733 463.17 174.346C462.455 174.119 461.481 173.826 460.767 173.664C460.975 174.418 461.365 175.109 461.903 175.677C460.54 176.846 458.657 176.132 457.261 176.878C457.125 177.77 457.07 178.672 457.098 179.573L458.235 179.898C458.819 184.378 459.923 192.884 465.442 197.43L466.319 196.553C466.319 196.196 466.319 195.709 466.319 195.352C468.137 196.845 468.721 199.378 470.832 200.644C471.081 199.848 471.265 199.034 471.384 198.209C471.945 198.792 472.619 199.256 473.364 199.573C474.273 216.585 474.436 219.053 472.553 223.793C470.118 223.598 469.728 223.046 468.949 220.546C468.174 220.581 467.436 220.892 466.871 221.423C458.722 220.806 459.468 208.988 450.962 208.858C449.404 211.683 450.637 214.929 449.566 217.851L448.397 218.306C446.644 217.007 427.976 200.06 426.645 197.852C426.223 197.138 426.807 195.904 427.229 195.222C428.236 193.599 428.235 193.599 427.456 183.566C426.274 182.755 425.049 182.007 423.788 181.326C422.164 182.592 422.164 182.592 415.346 181.034C414.705 181.647 414.139 182.334 413.658 183.079C404.795 179.606 397.619 189.313 388.821 186.326H387.522C385.022 186.846 384.276 187.008 381.451 183.761L380.964 183.437C380.559 183.729 380.188 184.066 379.86 184.443C378.204 186.456 379.438 189.346 377.815 191.359C375.802 193.923 372.036 193.858 370.153 196.618C369.601 197.43 369.86 198.891 369.828 199.865C369.244 210.546 369.244 210.546 366.387 211.942C363.596 213.424 361.036 215.305 358.789 217.527C357.166 220.124 345.381 240.61 345.381 240.61C344.894 246.097 348.627 250.708 348.627 256.065C348.627 260.545 342.134 262.558 344.342 267.882C347.361 275.674 351.582 282.915 355.186 290.447C356.679 293.693 368.172 304.44 370.185 304.245C380.867 303.239 391.191 299.213 402.132 300.382C402.518 300.479 402.875 300.668 403.171 300.933C405.152 302.589 403.756 305.576 405.671 307.427C407.587 309.277 410.022 308.238 412.165 308.92C412.884 310.207 413.232 311.669 413.169 313.143C413.106 314.616 412.635 316.043 411.807 317.264C430.216 320.511 441.807 323.758 450.183 327.848C441.936 323.822 430.021 320.641 411.807 317.264C406.97 328.66 406.97 328.66 407.717 331.907C408.885 337.036 410.476 344.082 403.918 359.536C400.866 366.646 395.087 371.873 390.931 378.302C386.776 384.73 386.808 391.58 383.367 397.782C370.023 421.547 369.633 421.937 367.49 424.144C365.804 425.753 364.515 427.731 363.724 429.924C370.542 432.034 378.594 426.677 381.256 424.729L391.84 417.262L405.249 406.58C408.301 403.333 410.087 399.307 413.333 396.321C416.58 393.334 421.969 391.223 425.638 387.749C434.372 379.373 442.488 362.783 443.333 360.705C446.579 352.458 458.267 339.829 461.709 336.16C467.098 330.186 474.338 314.505 476.124 308.336C474.76 307.914 474.76 307.914 472.358 308.336C471.806 307.589 471.806 307.589 472.942 297.752C473.023 294.13 472.86 290.508 472.455 286.908C472.455 277.525 474.111 268.175 473.267 258.759L470.767 229.085C471.384 230.026 471.384 230.026 472.001 234.312C472.67 233.659 473.133 232.823 473.332 231.909C479.435 254.311 472.975 276.746 473.689 299.148C476.156 298.011 476.156 298.012 477.26 298.239C483.754 284.246 483.754 284.246 484.046 282.428C484.046 282.85 484.046 283.369 483.851 283.759C483.851 283.044 484.176 282.038 484.273 281.324V280.479L484.987 275.317C485.279 272.947 485.637 269.993 486.189 261.941C486.189 262.363 486.189 262.753 486.189 263.142C486.546 256.292 487.033 247.591 487 240.903ZM485.474 266.876C484.987 265.869 484.987 265.87 485.474 257.461C485.247 260.123 485.247 260.123 485.085 261.292C484.468 243.045 484.727 241.39 485.085 239.084C486.156 240.675 486.611 254.181 486.448 261.811C486.305 263.519 485.979 265.206 485.474 266.844V266.876Z" fill="url(#paint26_radial_1838_24789)"/>
<path d="M480.052 187.138C480.052 187.43 480.247 187.852 480.312 188.144L481.513 193.599C481.532 193.513 481.532 193.425 481.513 193.339C481.935 196.586 482.584 199.832 483.234 203.079C482.092 194.837 480.312 186.696 477.909 178.729C477.422 177.171 476.935 175.742 476.513 174.378C479.37 184.118 479.468 184.54 480.669 189.67C480.572 188.761 480.377 187.949 480.052 187.138Z" fill="url(#paint27_radial_1838_24789)"/>
<path d="M475.832 171.716L476.189 172.658C475.768 171.509 475.41 170.339 475.117 169.151L475.507 170.288L472.617 161.716C472.471 161.268 472.286 160.834 472.065 160.418C473.202 163.664 474.598 168.08 476.546 174.119L475.832 171.716Z" fill="url(#paint28_radial_1838_24789)"/>
<path d="M484.987 213.403C484.63 209.864 483.948 206.391 483.299 202.949C483.688 205.611 484.175 208.793 484.76 212.689C484.825 212.884 484.89 213.111 484.987 213.403Z" fill="url(#paint29_radial_1838_24789)"/>
<path d="M346.095 98.9259C346.109 99.001 346.109 99.0781 346.095 99.1532C345.365 100.829 344.832 102.583 344.504 104.38C344.277 105.744 344.504 106.393 344.796 106.945C345.088 107.497 349.212 107.497 351.874 105.809C352.509 105.339 353.17 104.905 353.854 104.51C354.666 104.121 355.802 104.51 356.419 103.504C357.036 102.497 356.647 101.848 355.997 100.03C355.727 99.2831 355.344 98.5823 354.861 97.9519C354.543 97.6326 354.342 97.216 354.289 96.7686C354.236 96.3213 354.334 95.8691 354.569 95.4844C354.908 94.8246 355.011 94.0683 354.861 93.3416C354.603 92.5298 354.061 91.8382 353.335 91.3936C353.018 91.1783 352.681 90.9935 352.328 90.8417C351.484 90.4196 350.575 90.2248 349.731 89.8352C349.376 89.7194 349.061 89.5056 348.822 89.2184C348.792 89.2039 348.758 89.1964 348.725 89.1964C348.691 89.1964 348.658 89.2039 348.627 89.2184C348.4 89.2184 342.913 90.6469 346.387 92.465C346.626 92.6267 346.911 92.7065 347.199 92.6923C347.052 92.813 346.887 92.9114 346.712 92.9845C345.495 93.5001 344.392 94.2503 343.465 95.1922C343.205 95.4515 343.013 95.7707 342.905 96.1217C342.798 96.4727 342.778 96.8448 342.848 97.2052C342.958 97.4921 343.124 97.7545 343.336 97.9774C343.547 98.2002 343.801 98.3791 344.082 98.5038C344.733 98.7277 345.409 98.8694 346.095 98.9259Z" fill="url(#paint30_radial_1838_24789)"/>
<path d="M118.309 34.5445C117.757 34.8367 113.406 37.3691 113.179 37.7912C112.952 38.2132 113.666 37.6288 118.309 34.5445Z" fill="url(#paint31_radial_1838_24789)"/>
<path d="M461.774 202.202L459.696 199.475C459.446 199.215 459.132 199.025 458.787 198.923C458.099 198.828 457.416 198.698 456.741 198.534C456.328 198.33 455.892 198.177 455.443 198.079C454.923 198.079 454.761 198.566 455.085 199.118C456.887 200.895 459.253 201.986 461.774 202.202Z" fill="url(#paint32_radial_1838_24789)"/>
<path d="M417.619 169.476C418.041 169.963 418.95 169.736 419.112 170.547C419.275 171.359 419.112 172.073 419.112 172.82C419.152 173.012 419.247 173.187 419.386 173.326C419.524 173.464 419.7 173.559 419.892 173.599C420.379 173.599 422.943 172.885 422.976 170.84C422.992 170.591 422.992 170.341 422.976 170.093C422.976 169.249 422.521 168.437 422.391 167.593C422.262 166.749 422.391 165.742 422.197 164.866C421.969 163.405 421.482 163.242 420.963 163.177C420.262 163.26 419.587 163.491 418.982 163.855C418.378 164.219 417.858 164.707 417.457 165.288C416.988 166.655 417.046 168.149 417.619 169.476Z" fill="url(#paint33_radial_1838_24789)"/>
<path d="M404.957 169.086C404.957 169.086 405.996 167.918 405.996 167.885C405.996 167.853 405.379 167.106 404.113 166.976C402.847 166.846 400.541 167.138 401.386 168.112C402.247 168.82 403.296 169.26 404.405 169.379C404.513 169.375 404.619 169.347 404.715 169.296C404.81 169.245 404.893 169.174 404.957 169.086Z" fill="url(#paint34_radial_1838_24789)"/>
<path d="M417.586 157.593C417.457 157.68 417.357 157.804 417.299 157.949C417.241 158.094 417.228 158.253 417.262 158.405C417.335 158.653 417.456 158.885 417.619 159.087C417.619 159.087 419.599 161.424 419.729 161.489C419.859 161.554 419.729 157.755 419.404 155.97C419.186 154.913 418.837 153.888 418.365 152.918C418.36 153.015 418.36 153.113 418.365 153.21C418.285 154.085 418.285 154.965 418.365 155.84C418.408 156.175 418.358 156.516 418.221 156.825C418.083 157.134 417.864 157.4 417.586 157.593Z" fill="url(#paint35_radial_1838_24789)"/>
<path d="M469.922 208.436C470.343 208.489 470.768 208.489 471.189 208.436C471.41 207.508 471.552 206.563 471.611 205.611V205.709C471.611 205.417 471.611 205.384 471.611 205.384C471.611 205.384 470.994 205.611 470.637 205.611C470.383 205.578 470.139 205.489 469.922 205.352C469.63 205.352 469.435 204.865 469.111 204.702C469.05 204.643 468.968 204.609 468.884 204.609C468.799 204.609 468.717 204.643 468.656 204.702C468.561 205.27 468.584 205.852 468.724 206.41C468.863 206.969 469.117 207.493 469.468 207.949C469.572 208.15 469.729 208.318 469.922 208.436Z" fill="url(#paint36_radial_1838_24789)"/>
<path d="M93.6991 52.8882C93.7956 52.9066 93.8948 52.9066 93.9913 52.8882C95.3874 51.9142 96.5887 50.7129 97.9847 49.6415C100.485 47.8883 103.212 46.3948 105.679 44.6092C106.264 44.1871 106.264 44.1871 106.978 42.8235C106.168 43.1013 105.402 43.495 104.705 43.9923C105.355 43.4404 105.355 43.4404 105.452 43.0183H105.16C102.076 44.317 102.076 44.317 88.4395 55.518C87.0371 56.471 85.9159 57.7828 85.1929 59.3166C88.2612 57.5007 91.1147 55.3443 93.6991 52.8882Z" fill="url(#paint37_radial_1838_24789)"/>
<path d="M112.822 39.934C113.707 39.6803 114.549 39.2974 115.322 38.7976C119.51 36.4276 121.815 35.551 121.815 35.551C123.198 35.1136 124.554 34.5932 125.874 33.9926C126.913 33.4406 130.809 30.7459 130.841 30.7459C131.588 30.2264 131.653 30.1291 131.75 29.9667C131.33 29.9797 130.919 30.0909 130.549 30.2914C129.348 30.9732 128.341 31.9147 127.14 32.5965C128.601 31.1355 130.387 29.9667 131.783 28.4408H131.62C131.62 28.4408 126.685 30.9732 126.555 31.6874C126.426 32.4017 125.776 33.4082 122.043 34.2848C122.122 34.1619 122.221 34.0523 122.335 33.9601C122.854 33.4082 124.575 33.0835 123.861 32.2718C123.861 32.2718 113.796 37.1094 113.731 38.5054C115.379 37.7168 116.983 36.8389 118.536 35.8756C118.049 36.6873 117.173 36.947 116.491 37.499C116.491 37.499 116.653 37.499 117.822 36.8496C118.501 36.4925 119.206 36.1886 119.932 35.9406C117.84 37.228 115.671 38.3881 113.439 39.4145C112.433 39.4794 112.433 39.9015 112.822 39.934Z" fill="url(#paint38_radial_1838_24789)"/>
<path d="M85.0955 64.6411C85.8098 64.8359 86.3617 64.1866 87.0435 64.219C86.7188 65.0632 85.9071 65.5826 85.4851 66.3618C89.5967 65.0176 93.4661 63.0226 96.9458 60.4529C97.6689 59.7808 98.4899 59.2224 99.3808 58.7971C99.2278 59.0166 99.1075 59.2572 99.0237 59.5114C99.9507 59.9117 100.92 60.2058 101.913 60.388C104.283 59.5763 104.283 59.5763 106.621 57.1413C106.621 57.1413 106.361 57.1413 104.153 58.2776C104.617 57.5813 105.231 56.9981 105.95 56.571C106.67 56.144 107.476 55.8839 108.309 55.8102C108.601 55.9259 108.926 55.9259 109.218 55.8102C109.218 55.8102 110.419 54.7063 110.225 53.6998C108.991 52.9856 108.471 51.5895 109.121 50.7778C111.175 48.3962 113.052 45.8679 114.738 43.2131C114.496 43.1071 114.246 43.0202 113.991 42.9534V42.7261C111.942 45.1031 109.67 47.2776 107.205 49.2194C106.913 48.0506 108.114 47.6935 108.439 46.8818C108.439 46.8818 108.439 46.8818 108.244 46.8818C107.201 47.4609 106.116 47.9601 104.998 48.3753C105.322 47.8558 105.874 47.5312 106.166 46.9792C104.608 47.4662 103.439 48.6675 101.946 49.2519C102.887 47.9532 104.413 47.4013 105.452 46.265C104.511 46.265 92.2706 54.2518 92.4654 55.7452L92.9524 56.005C92.6927 56.3946 92.6927 56.3946 91.2317 57.2712C88.7967 58.7646 88.6993 59.0568 88.6993 59.414C88.8491 59.4465 89.0041 59.4465 89.1538 59.414C90.5174 59.1542 91.6213 58.2452 92.9849 57.953C94.3485 57.6608 94.868 58.1478 95.842 57.953C94.3342 59.0067 92.6527 59.787 90.8746 60.2581C84.576 61.5243 83.9592 64.3489 85.0955 64.6411Z" fill="url(#paint39_radial_1838_24789)"/>
<path d="M141.133 76.2642C141.328 75.7122 140.776 75.7447 140.354 75.8096C139.518 75.9399 138.72 76.2501 138.016 76.7187C137.766 77.0239 137.611 77.3959 137.571 77.7884C137.53 78.1809 137.606 78.5767 137.789 78.9264C138.503 79.5108 140.841 77.0109 141.133 76.2642Z" fill="url(#paint40_radial_1838_24789)"/>
<path d="M137.983 71.7838C138.164 71.7072 138.321 71.5839 138.438 71.4266C138.495 71.1875 138.493 70.9379 138.43 70.7001C138.368 70.4622 138.248 70.2434 138.081 70.063C137.691 69.6734 137.139 69.4787 136.75 69.0566C136.219 68.2502 135.622 67.4899 134.964 66.7839L134.542 66.4917C133.795 66.0372 132.821 66.1021 132.042 65.6476C131.263 65.193 131.555 64.6411 131.068 64.3489H130.841C129.625 65.5063 128.536 66.7907 127.594 68.18C127.24 68.6465 126.914 69.1345 126.62 69.641L123.99 73.8616C125.549 73.8616 125.549 73.8616 125.679 74.7707C125.808 75.6798 125.679 75.7772 125.971 75.7447C126.512 75.468 127.005 75.1063 127.432 74.6733C128.986 73.1459 130.947 72.0978 133.081 71.6539C134.769 71.4591 136.36 72.3357 137.983 71.7838Z" fill="url(#paint41_radial_1838_24789)"/>
<path d="M133.698 74.6408C132.105 74.9697 130.564 75.5159 129.12 76.2642C128.471 76.7836 128.373 78.2446 128.73 78.5044C129.087 78.7641 133.763 76.459 134.542 75.2577C134.802 74.9006 134.867 74.4785 133.698 74.6408Z" fill="url(#paint42_radial_1838_24789)"/>
<path d="M124.899 267.688C123.601 268.207 124.315 270.252 125.127 270.545C125.938 270.837 129.088 271.389 128.99 269.96C128.609 269.22 128.017 268.61 127.289 268.205C126.561 267.801 125.729 267.621 124.899 267.688Z" fill="url(#paint43_radial_1838_24789)"/>
<path d="M361.873 98.0168C361.646 98.0168 361.679 98.0168 361.873 98.4389H363.529C363.014 98.1813 362.449 98.0374 361.873 98.0168Z" fill="url(#paint44_radial_1838_24789)"/>
<path d="M202.69 115.419C204.248 113.374 204.93 112.172 204.735 111.361H204.443C202.552 112.519 200.89 114.016 199.541 115.776C197.43 118.406 195.969 121.49 193.859 124.12C192.755 125.549 191.197 126.555 190.158 128.016C189.736 128.6 190.158 128.763 190.158 128.828C192.289 129.301 194.468 129.529 196.651 129.509C199.729 129.664 202.785 130.121 205.774 130.873C206.123 130.99 206.482 131.077 206.846 131.133C207.885 131.133 208.924 130.159 210.092 131.133C210.526 131.747 210.732 132.493 210.677 133.243C210.677 133.925 211.066 133.99 211.229 133.99C212.268 133.99 213.501 131.912 213.631 130.256C213.417 126.919 212.065 123.756 209.8 121.295C208.761 120.159 208.761 120.159 205.027 120.971C203.891 121.198 203.664 120.971 203.404 120.029C202.917 118.244 202.463 117.919 201.781 117.562C201.099 117.205 201.424 117.27 201.586 116.912C201.906 116.381 202.275 115.88 202.69 115.419Z" fill="url(#paint45_radial_1838_24789)"/>
<path d="M350.738 82.3354C350.933 83.6341 349.959 84.8354 350.446 86.1665C350.868 86.1665 351.679 86.1665 353.465 84.8678C354.114 84.3808 354.666 83.9588 355.088 84.2185C356.907 85.225 354.796 87.173 355.413 88.569C355.731 89.5664 356.322 90.4544 357.12 91.1318C357.918 91.8091 358.89 92.2486 359.926 92.4001C362.848 93.1468 363.173 93.2442 363.757 93.6338C364.341 94.0234 363.595 94.5754 363.757 95.0299C364.569 96.426 365.932 97.3675 366.647 98.8609C367.361 100.354 365.153 99.4778 363.822 98.8609C363.238 98.6012 363.238 98.6012 361.582 98.4714C362.264 100.387 364.406 101.296 364.828 103.374C365.056 104.478 364.017 105.062 362.523 105.776C362.134 105.971 361.549 106.263 361.777 106.718C362.004 107.172 362.523 107.692 366.095 107.594C367.588 107.594 370.737 107.594 370.835 108.504C370.932 109.413 370.185 109.413 369.114 109.413C368.786 109.362 368.45 109.396 368.138 109.509C367.826 109.623 367.548 109.813 367.328 110.062C366.549 110.744 366.452 111.815 365.77 112.562C365.088 113.309 363.822 114.088 362.978 114.997C362.978 114.997 362.978 115.192 362.978 115.289C365.421 115.295 367.859 115.044 370.25 114.542C373.497 114.12 377.133 114.542 380.575 113.893L386.451 111.88C386.451 111.88 386.451 111.88 386.451 111.685C385.25 110.484 383.692 111.685 382.328 111.068C381.711 109.315 383.367 107.822 382.685 105.906C381.484 102.66 380.218 102.66 379.211 102.854C376.939 102.854 375.38 99.6077 375.38 99.6077C375.38 99.6077 375.38 99.6077 377.328 99.9648C378.107 100.225 379.244 100.614 379.146 100.225C378.875 99.8616 378.558 99.5343 378.205 99.2506C375.155 97.5327 372.216 95.6242 369.406 93.5364C368.36 92.1812 367.161 90.9503 365.835 89.8677C364.016 88.6908 361.926 87.9979 359.764 87.8547C361.257 86.5236 363.238 79.9004 359.179 79.7381C358.488 79.6826 357.793 79.6826 357.101 79.7381C354.537 80.0628 354.082 80.1277 354.05 79.4784C354.05 78.1148 356.29 75.6148 354.439 75.5174C354.439 75.5174 349.407 75.5174 348.692 77.368C348.644 77.5708 348.644 77.7821 348.692 77.9849C349.407 79.5758 350.478 80.842 350.738 82.3354Z" fill="url(#paint46_radial_1838_24789)"/>
<path d="M22.0448 147.269C22.6942 145.775 23.0513 144.022 23.6357 142.691C23.9929 141.782 24.4149 140.905 24.7396 139.996V139.639C24.7396 139.639 24.9994 138.795 24.5773 138.892H24.3824C22.8819 141.494 21.9937 144.403 21.7852 147.399C21.8844 147.387 21.9764 147.341 22.0448 147.269Z" fill="url(#paint47_radial_1838_24789)"/>
<path d="M318.206 49.2519C318.206 49.2519 318.206 49.0571 318.206 48.9922C317.726 48.1918 317.012 47.5573 316.161 47.174L315.609 46.9792C314.138 46.8534 312.674 46.6474 311.226 46.3624C310.219 45.9403 309.472 44.9663 308.271 45.0313C307.07 45.0962 305.576 45.9403 304.213 46.265C302.837 46.4104 301.471 46.6381 300.122 46.9468C299.278 47.2065 299.895 48.2779 299.245 48.6351C298.596 48.9922 297.784 48.2779 297.07 48.6351L296.713 48.8623C296.453 50.0311 297.525 51.3947 296.226 52.4661C294.744 51.4682 293.419 50.2534 292.298 48.8623C291.467 47.7676 290.325 46.9494 289.022 46.5148C287.718 46.0803 286.314 46.0498 284.993 46.4273C285.382 47.5312 286.713 47.3039 287.298 48.0831C286.941 49.674 285.058 49.4142 284.278 50.5506C285.206 50.7751 286.175 50.7751 287.103 50.5506C288.596 50.2584 293.304 51.9142 290.674 54.0895C291.811 55.4531 293.304 54.2842 294.57 54.6414C295.836 54.9985 295.901 55.518 295.901 56.6868C296.226 56.9465 296.486 57.0439 299.148 56.6868C300.093 56.5407 301.049 56.4756 302.005 56.492C303.271 56.492 304.473 57.1413 305.706 57.2063H306.258C307.797 57.0569 309.319 56.7634 310.804 56.3296C314.05 55.5504 318.823 52.044 318.596 51.0051C318.368 49.9662 317.849 49.9012 317.654 49.2519C317.719 49.2519 317.719 49.2519 318.206 49.2519Z" fill="url(#paint48_radial_1838_24789)"/>
<path d="M129.185 262.006C130.581 263.824 139.25 264.473 139.412 263.467C139.574 262.46 128.341 250.058 128.243 249.993C126.649 248.9 124.836 248.166 122.931 247.841C121.025 247.516 119.072 247.608 117.205 248.11C114.921 248.876 112.836 250.14 111.101 251.811C113.013 252.077 114.956 251.626 116.555 250.545C119.802 248.695 121.912 249.734 122.14 250.318C122.367 250.902 121.523 251.065 120.484 250.318C120.484 251.876 123.179 252.526 124.899 252.948C128.146 253.759 128.146 254.409 128.893 256.422C129.133 257.303 129.541 258.13 130.094 258.857C130.469 259.228 130.747 259.685 130.906 260.188C130.906 261.486 129.704 261.454 129.185 262.006Z" fill="url(#paint49_radial_1838_24789)"/>
<path d="M143.016 272.655C143.925 273.174 143.211 274.83 144.477 274.96C146.717 275.187 146.457 272.2 148.373 272.006C148.729 271.958 149.089 271.958 149.444 272.006C152.524 272.424 155.623 272.673 158.73 272.752C159.022 272.752 159.184 272.752 159.217 272.395C159.217 271.421 158.438 270.577 158.697 269.571C159.509 266.324 143.341 264.993 142.302 265.155C142.153 265.171 142.014 265.24 141.912 265.35C141.912 265.61 141.912 265.61 142.139 265.805C142.842 266.385 143.358 267.159 143.624 268.031C143.889 268.903 143.893 269.833 143.633 270.707C142.547 270.866 141.44 270.788 140.386 270.48C139.162 270.138 137.888 270.007 136.62 270.09C136.62 270.09 136.62 270.09 136.62 270.285C138.601 271.584 141.003 271.519 143.016 272.655Z" fill="url(#paint50_radial_1838_24789)"/>
<path d="M175.612 122.334C174.216 122.854 177.398 124.38 178.047 124.704C182.235 126.652 183.696 124.704 183.696 124.51C184.216 123.373 177.138 122.075 175.612 122.334Z" fill="url(#paint51_radial_1838_24789)"/>
<path d="M437.067 382.587C432.489 388.528 432.359 388.561 429.372 389.632C426.905 390.509 426.125 391.613 422.424 397.002C421.309 398.833 419.828 400.414 418.074 401.645C413.051 405.964 408.599 410.907 404.827 416.352C406.84 416.352 406.84 416.352 414.567 409.08C420.801 403.106 426.288 396.418 432.261 390.184C432.261 390.379 432.261 390.379 431.709 391.223C431.937 391.223 431.937 391.223 432.521 390.347C435.001 387.322 437.176 384.059 439.014 380.607H438.852L437.067 382.587Z" fill="url(#paint52_radial_1838_24789)"/>
<path d="M282.006 339.244C281.681 337.556 283.954 335.218 281.778 334.114C280.253 333.368 278.759 334.504 277.233 334.114C272.298 333.043 269.052 328.757 264.246 327.296C257.201 325.121 249.929 323.887 242.786 322.102C238.63 320.576 238.273 315.608 235.708 313.011C231.358 310.186 228.111 305.576 223.533 302.979C217.592 299.57 210.254 300.739 204.346 297.167C199.67 294.31 196.554 289.505 191.521 287.103C190.712 286.712 189.846 286.449 188.956 286.323C164.736 282.655 145.581 279.83 143.503 298.985C136.328 293.888 117.854 301.972 119.543 290.025C120.178 285.722 119.451 281.329 117.465 277.46C111.848 274.635 106.134 277.46 100.485 277.2C102.335 270.999 102.335 270.999 100.972 268.11C102.683 264.691 103.782 260.999 104.218 257.201C103.147 256.259 93.6991 248.63 91.6862 269.96C88.4395 269.733 86.3292 274.311 82.5955 272.168C76.6208 269.092 72.0706 263.821 69.901 257.461C68.6673 253.337 72.1412 250.091 72.0763 246.195C72.0763 243.695 68.6349 242.493 69.5115 239.701C71.9412 235.182 75.1887 231.153 79.0891 227.819C81.9462 225.611 93.0173 228.111 93.1147 228.143L94.0887 227.332C93.2446 226.39 92.0108 226.098 91.0368 225.319C91.0368 224.961 91.2316 224.474 91.2966 224.117C93.5043 222.819 111.134 221.293 111.199 221.325C118.731 225.351 114.121 235.968 121.361 240.156C129.899 231.13 116.198 223.143 117.724 214.183C119.25 205.222 128.666 202.624 133.958 196.651L133.211 195.774C133.211 195.449 133.211 194.995 133.211 194.67L134.315 194.345C134.315 193.923 134.315 193.371 134.315 192.982L133.211 192.592L134.964 175.385C134.964 177.917 134.964 185.677 134.964 185.677C135.776 185.157 135.776 185.157 136.49 173.826C137.341 174.906 138.02 176.111 138.503 177.398C140.029 174.736 139.542 171.262 141.75 168.924C141.75 168.924 151.944 163.372 152.691 163.437C153.633 154.541 153.633 154.541 158.6 149.899C159.444 149.899 159.444 149.899 173.892 141.555C173.892 141.847 173.567 142.269 173.405 142.561C174.234 142.887 175.112 143.073 176.002 143.113V144.022C167.658 149.963 167.658 149.963 167.528 151.717C173.21 151.717 190.645 141.652 187.528 133.795C185.125 135.418 185.028 138.373 183.599 140.548L178.957 139.217C179.85 138.932 180.626 138.362 181.164 137.594C181.164 137.594 181.164 137.594 180.71 137.594C179.374 137.899 177.977 137.774 176.716 137.237C176.293 137.082 175.939 136.781 175.718 136.388C175.498 135.995 175.426 135.536 175.515 135.094C175.515 134.737 175.515 134.704 175.515 134.672C175.275 135.175 175.137 135.721 175.109 136.279C175.081 136.836 175.164 137.393 175.353 137.918C173.177 136.879 172.788 135.776 172.106 133.146C170.061 132.399 169.931 132.237 169.054 131.165C172.106 130.321 174.314 129.737 174.963 126.652C173.405 125.126 173.405 125.126 151.587 138.762C166.619 123.146 166.619 123.146 182.041 118.471C185.547 120.873 201.294 113.049 203.696 108.731C202.917 106.815 202.917 106.815 204.053 104.023C203.859 103.666 203.566 103.244 203.371 102.919L199.573 102.108H198.469C195.848 102.48 193.366 103.52 191.261 105.127C191.261 104.802 190.904 104.38 190.774 104.056C192.041 102.27 192.625 102.043 197.268 100.225C188.21 101.004 179.379 101.783 169.671 102.757C178.599 101.815 186.359 101.101 197.333 100.225C197.613 100.101 197.866 99.9248 198.079 99.7051C197.152 98.527 195.888 97.6597 194.455 97.2188C193.022 96.7779 191.489 96.7845 190.06 97.2376C189.021 97.4973 189.021 97.4973 188.469 97.2376C188.177 96.361 188.891 95.387 188.242 94.5104C187.593 93.6338 185.677 93.6663 184.801 92.4975C184.443 92.0105 184.801 91.5884 185.385 90.6469C185.969 89.7054 186.391 89.2184 184.184 85.2899C178.632 75.5499 178.632 75.5499 175.905 80.5822C175.483 81.3939 176.554 82.2056 175.905 83.0172C175.255 83.8289 173.665 83.0172 172.885 84.1211C171.165 86.4912 171.165 86.4912 170.678 86.621C167.658 87.5626 165.548 85.0951 162.918 84.5107C162.731 81.842 163.502 79.194 165.093 77.0434C163.567 76.5239 161.847 77.2706 160.418 76.6862C160.061 76.6862 159.834 76.3291 159.347 75.5174C159.184 75.2252 158.795 74.5759 155.029 73.3422C154.496 73.1175 153.913 73.039 153.34 73.1149C149.866 74.0564 146.165 73.3097 142.756 74.7058C143.373 77.9524 139.51 80.8095 142.074 84.186C141.587 85.7444 139.51 86.2964 139.412 88.147C139.315 89.9976 141.458 91.3936 141.522 93.6014C141.522 93.6014 141.685 101.978 136.912 103.082C135.873 103.309 133.471 104.088 133.99 105.841C133.6 106.278 133.152 106.661 132.659 106.978C131.393 111.783 134.575 117.789 129.088 121.62C127.367 118.99 124.315 118.373 121.945 116.523C122.463 115.444 122.732 114.262 122.732 113.065C122.732 111.868 122.463 110.686 121.945 109.607L123.276 108.504C123.276 108.309 123.276 107.919 123.276 107.692C122.812 107.643 122.344 107.643 121.88 107.692C119.607 105.517 116.88 107.465 114.478 106.815C112.075 106.166 110.744 103.569 108.374 102.822C107.922 102.657 107.454 102.538 106.978 102.465C104.835 102.108 103.277 103.698 101.394 104.218C100.744 103.698 100.744 103.698 99.9327 98.7635C99.6405 97.0428 99.6405 97.0428 95.5822 96.7182C94.6731 91.4586 107.465 81.9458 112.919 77.8875C112.303 76.2317 110.484 76.9459 109.413 76.1343C120.062 74.2512 120.062 74.2512 126.133 67.7904C124.76 68.2911 123.287 68.458 121.836 68.2774C120.385 68.0967 118.998 67.5737 117.789 66.7514C121.75 65.3229 126.848 67.8228 129.867 63.1801C129.512 62.9638 129.112 62.8306 128.698 62.7905C128.698 62.7905 130.679 60.388 132.757 61.6866C139.672 59.1867 139.672 59.1867 141.458 57.5958C141.903 57.226 142.286 56.7876 142.594 56.2972C143.341 55.031 142.107 53.6998 142.789 52.4336C143.47 51.1674 144.867 51.3947 145.678 50.5506C146.006 49.9224 146.288 49.2714 146.522 48.6026C146.522 48.6026 140.646 42.5962 138.698 51.0051C135.094 53.083 132.529 61.4594 128.179 57.4984C128.568 54.9336 133.795 53.2453 131.425 50.7129C128.666 51.7518 127.529 54.544 125.484 56.3296C124.997 54.9336 127.822 51.2648 127.854 51.2324C126.98 51.1366 126.098 51.1366 125.224 51.2324C129.51 44.3494 129.51 44.3494 129.51 43.5053L128.861 43.0183C131.328 39.2522 131.328 39.2522 142.756 32.5316C142.072 32.38 141.363 32.38 140.678 32.5316C131.523 34.6744 119.153 51.8168 119.088 52.0116C119.172 52.2339 119.269 52.4507 119.38 52.6609C120.354 52.6609 121.328 52.4336 122.302 52.3687C122.302 52.5635 122.302 52.7908 122.302 52.9856C121.095 53.4603 119.992 54.1661 119.056 55.0634V55.5504H119.64C117.692 58.7971 113.439 60.0308 111.848 63.732C110.354 62.1736 110.355 62.1736 113.147 59.1867C111.523 58.7646 111.523 58.7646 106.329 62.8879C106.036 63.1152 104.316 64.219 97.8873 63.8944C97.4652 63.31 97.5302 62.4983 97.1081 61.8814C91.9135 63.245 90.3551 66.2644 87.3681 72.2708C86.7837 70.7448 88.1148 69.4786 87.9525 68.0176C85.1604 68.4722 82.8553 70.7773 79.8034 70.3228C81.0696 69.0566 83.05 68.602 83.6344 66.5242L83.0825 66.232C82.4007 66.6216 82.3033 66.6865 80.2904 66.4592C80.0443 66.1055 79.7614 65.779 79.4463 65.4852C78.0177 65.7774 77.2061 66.9787 76.1996 67.7579C76.421 67.3237 76.6818 66.9107 76.9788 66.5242C76.2577 67.0484 75.5841 67.635 74.9658 68.2774C75.617 66.8787 76.5069 65.6043 77.5956 64.5112C74.349 67.7579 74.349 67.7579 67.8556 72.8876C69.8361 71.0046 71.9465 69.3163 73.9269 67.4982C70.4065 70.2105 67.0763 73.1611 63.9596 76.3291C64.1711 75.9549 64.4099 75.5968 64.6739 75.2577L53.2781 88.0496C38.5058 107.302 38.2136 107.692 31.6878 118.536C31.8173 118.381 31.9366 118.219 32.0449 118.049C27.6619 129.055 27.6619 129.055 27.11 132.074C26.8503 132.951 26.4606 134.087 26.1684 134.964C26.3632 135.289 26.623 135.743 26.8503 136.068C25.5656 139.944 24.5993 143.918 23.9607 147.951C23.6756 149.66 23.8782 151.416 24.5451 153.015L23.4413 152.821C23.3698 152.853 23.2923 152.87 23.214 152.87C23.1356 152.87 23.0581 152.853 22.9867 152.821C22.9867 152.821 22.9867 152.821 22.727 152.171C22.4673 151.522 22.3699 151.002 22.1426 150.97C21.7947 152.52 21.7947 154.128 22.1426 155.678C22.6296 157.431 23.8633 157.171 23.8958 157.171C24.0852 157.09 24.2554 156.971 24.3953 156.82C24.5352 156.668 24.6416 156.49 24.7075 156.294C24.8322 155.951 24.8981 155.589 24.9023 155.223C24.9344 154.932 24.9344 154.638 24.9023 154.346C25.6063 155.989 25.9813 157.754 26.0061 159.541L23.9932 158.502C16.6233 167.658 14.0584 213.696 18.9608 222.299C19.5777 222.299 19.5777 222.299 30.2593 244.279H27.7268C29.0255 246.974 38.4408 259.149 38.5382 259.246C39.3824 258.013 40.2915 256.714 35.9409 250.545C33.9605 247.753 31.7527 244.571 27.9866 229.28C29.5423 230.177 30.8756 231.414 31.8874 232.898C32.8991 234.382 33.5634 236.075 33.8306 237.851C34.1524 239.859 34.7763 241.808 35.6812 243.63C37.6292 246.682 39.9668 249.474 42.1745 252.461C44.8043 256.324 49.3497 258.5 51.5899 262.753C53.3755 266.194 52.5314 270.772 56.2001 273.369C56.7954 273.726 57.4266 274.02 58.0832 274.246C59.1221 274.635 60.4533 275.382 61.5571 275.674C65.3557 276.648 69.2517 277.265 73.0828 278.174C76.9138 279.083 81.1345 276.876 84.9656 279.051C93.764 284.083 93.7641 284.083 96.8484 284.408L98.3743 284.603C112.173 286.518 117.854 303.596 132.984 303.044C139.704 291.843 143.86 305.284 145.354 311.583C145.808 313.595 145.808 313.595 142.107 321.874C142.107 321.874 138.406 336.971 139.997 339.764C140.224 340.218 140.549 340.835 140.841 341.29C145.808 348.627 166.165 368.756 166.327 368.886C171.294 373.172 178.015 374.146 183.242 377.912C187.904 381.975 190.898 387.618 191.651 393.756C191.651 394.113 199.54 429.079 213.079 448.17C230.286 472.39 246.942 469.695 247.104 469.663C231.066 461.384 231.066 461.384 232.591 454.598C230.351 452.228 230.351 452.228 226.098 440.67C226.78 440.443 226.78 440.443 229.799 440.67C229.799 440.345 229.799 440.345 226.098 435.281C228.923 432.781 228.923 432.781 228.728 430.8L229.41 430.346C234.41 431.872 235.903 427.781 234.767 425.898L233.306 423.82C244.637 423.528 249.539 396.126 249.539 395.866C251.295 392.95 254 390.726 257.201 389.567C261.227 387.912 261.26 383.074 264.117 380.607C264.536 380.187 265.049 379.871 265.613 379.685C266.176 379.499 266.776 379.448 267.363 379.535C269.019 379.762 269.149 379.763 269.376 378.204C269.831 374.763 269.376 371.321 269.668 367.88C269.668 365.964 268.629 363.984 269.928 362.101C271.227 360.218 271.941 359.114 270.902 357.685C270.689 357.389 270.524 357.06 270.415 356.711C273.423 355.445 276.133 353.563 278.369 351.187C280.606 348.81 282.32 345.992 283.402 342.913C283.418 342.783 283.418 342.653 283.402 342.523C283.272 341.225 282.33 340.38 282.006 339.244ZM44.5121 125.256C47.7588 124.152 51.395 123.114 55.0313 122.01C51.4924 123.114 48.0185 124.152 44.642 125.256H44.5121ZM152.139 320.608C156.425 320.056 160.775 319.537 165.353 319.017L152.139 320.608ZM248.111 380.574C247.916 378.886 247.364 373.432 246.487 363.821C247.007 369.438 247.559 375.022 248.143 380.931C248.046 380.801 248.013 380.672 248.013 380.574H248.111Z" fill="url(#paint53_radial_1838_24789)"/>
<path d="M164.411 273.889C163.113 274.765 164.801 276.421 166.392 276.713C168.058 276.823 169.729 276.58 171.294 275.999C171.294 275.999 171.1 275.382 168.437 274.538C165.775 273.694 165.126 273.889 164.411 273.889Z" fill="url(#paint54_radial_1838_24789)"/>
</g>
<defs>
<radialGradient id="paint0_radial_1838_24789" cx="0" cy="0" r="1" gradientUnits="userSpaceOnUse" gradientTransform="translate(243.37 239.409) scale(249.312 249.311)">
<stop offset="0.69"/>
<stop offset="0.73" stop-color="#040404"/>
<stop offset="0.77" stop-color="#101010"/>
<stop offset="0.81" stop-color="#252525"/>
<stop offset="0.85" stop-color="#414141"/>
<stop offset="0.89" stop-color="#666666"/>
<stop offset="0.92" stop-color="#939393"/>
<stop offset="0.96" stop-color="#C7C7C7"/>
<stop offset="1" stop-color="white"/>
</radialGradient>
<radialGradient id="paint1_radial_1838_24789" cx="0" cy="0" r="1" gradientUnits="userSpaceOnUse" gradientTransform="translate(293.01 102.952) scale(791.139 791.148)">
<stop offset="0.07" stop-color="#B0B0B0"/>
<stop offset="1"/>
</radialGradient>
<radialGradient id="paint2_radial_1838_24789" cx="0" cy="0" r="1" gradientUnits="userSpaceOnUse" gradientTransform="translate(293.049 102.952) scale(791.234 791.219)">
<stop offset="0.07" stop-color="#B0B0B0"/>
<stop offset="1"/>
</radialGradient>
<radialGradient id="paint3_radial_1838_24789" cx="0" cy="0" r="1" gradientUnits="userSpaceOnUse" gradientTransform="translate(293.012 102.952) scale(791.114 791.115)">
<stop offset="0.07" stop-color="#B0B0B0"/>
<stop offset="1"/>
</radialGradient>
<radialGradient id="paint4_radial_1838_24789" cx="0" cy="0" r="1" gradientUnits="userSpaceOnUse" gradientTransform="translate(293.011 102.952) scale(791.11 791.115)">
<stop offset="0.07" stop-color="#B0B0B0"/>
<stop offset="1"/>
</radialGradient>
<radialGradient id="paint5_radial_1838_24789" cx="0" cy="0" r="1" gradientUnits="userSpaceOnUse" gradientTransform="translate(293.011 102.951) scale(791.109 791.11)">
<stop offset="0.07" stop-color="#B0B0B0"/>
<stop offset="1"/>
</radialGradient>
<radialGradient id="paint6_radial_1838_24789" cx="0" cy="0" r="1" gradientUnits="userSpaceOnUse" gradientTransform="translate(293.044 102.952) scale(791.178 791.18)">
<stop offset="0.07" stop-color="#B0B0B0"/>
<stop offset="1"/>
</radialGradient>
<radialGradient id="paint7_radial_1838_24789" cx="0" cy="0" r="1" gradientUnits="userSpaceOnUse" gradientTransform="translate(293.012 102.952) scale(791.147 791.148)">
<stop offset="0.07" stop-color="#B0B0B0"/>
<stop offset="1"/>
</radialGradient>
<radialGradient id="paint8_radial_1838_24789" cx="0" cy="0" r="1" gradientUnits="userSpaceOnUse" gradientTransform="translate(293.012 102.952) scale(791.147 791.148)">
<stop offset="0.07" stop-color="#B0B0B0"/>
<stop offset="1"/>
</radialGradient>
<radialGradient id="paint9_radial_1838_24789" cx="0" cy="0" r="1" gradientUnits="userSpaceOnUse" gradientTransform="translate(293.011 102.952) scale(791.113 791.114)">
<stop offset="0.07" stop-color="#B0B0B0"/>
<stop offset="1"/>
</radialGradient>
<radialGradient id="paint10_radial_1838_24789" cx="0" cy="0" r="1" gradientUnits="userSpaceOnUse" gradientTransform="translate(293.043 102.952) scale(791.176 791.18)">
<stop offset="0.07" stop-color="#B0B0B0"/>
<stop offset="1"/>
</radialGradient>
<radialGradient id="paint11_radial_1838_24789" cx="0" cy="0" r="1" gradientUnits="userSpaceOnUse" gradientTransform="translate(293.012 102.952) scale(791.147 791.148)">
<stop offset="0.07" stop-color="#855500" stop-opacity="0.980392"/>
<stop offset="1"/>
</radialGradient>
<radialGradient id="paint12_radial_1838_24789" cx="0" cy="0" r="1" gradientUnits="userSpaceOnUse" gradientTransform="translate(293.012 102.952) scale(791.148 791.148)">
<stop offset="0.07" stop-color="#B0B0B0"/>
<stop offset="1"/>
</radialGradient>
<radialGradient id="paint13_radial_1838_24789" cx="0" cy="0" r="1" gradientUnits="userSpaceOnUse" gradientTransform="translate(293.012 102.952) scale(791.147 791.147)">
<stop offset="0.07" stop-color="#B0B0B0"/>
<stop offset="1"/>
</radialGradient>
<radialGradient id="paint14_radial_1838_24789" cx="0" cy="0" r="1" gradientUnits="userSpaceOnUse" gradientTransform="translate(293.044 102.952) scale(791.146 791.148)">
<stop offset="0.07" stop-color="#B0B0B0"/>
<stop offset="1"/>
</radialGradient>
<radialGradient id="paint15_radial_1838_24789" cx="0" cy="0" r="1" gradientUnits="userSpaceOnUse" gradientTransform="translate(293.012 102.952) scale(791.115 791.115)">
<stop offset="0.07" stop-color="#8C5900" stop-opacity="0.980392"/>
<stop offset="1" stop-color="#DE9006"/>
</radialGradient>
<radialGradient id="paint16_radial_1838_24789" cx="0" cy="0" r="1" gradientUnits="userSpaceOnUse" gradientTransform="translate(293.015 102.95) scale(791.163 791.134)">
<stop offset="0.07" stop-color="#B0B0B0"/>
<stop offset="1"/>
</radialGradient>
<radialGradient id="paint17_radial_1838_24789" cx="0" cy="0" r="1" gradientUnits="userSpaceOnUse" gradientTransform="translate(293.012 102.952) scale(791.115 791.116)">
<stop offset="0.07" stop-color="#B0B0B0"/>
<stop offset="1"/>
</radialGradient>
<radialGradient id="paint18_radial_1838_24789" cx="0" cy="0" r="1" gradientUnits="userSpaceOnUse" gradientTransform="translate(293.012 102.952) scale(791.116 791.117)">
<stop offset="0.07" stop-color="#B0B0B0"/>
<stop offset="1"/>
</radialGradient>
<radialGradient id="paint19_radial_1838_24789" cx="0" cy="0" r="1" gradientUnits="userSpaceOnUse" gradientTransform="translate(293.012 102.952) scale(791.115 791.116)">
<stop offset="0.07" stop-color="#B0B0B0"/>
<stop offset="1"/>
</radialGradient>
<radialGradient id="paint20_radial_1838_24789" cx="0" cy="0" r="1" gradientUnits="userSpaceOnUse" gradientTransform="translate(293.043 102.952) scale(791.143 791.151)">
<stop offset="0.07" stop-color="#B0B0B0"/>
<stop offset="1"/>
</radialGradient>
<radialGradient id="paint21_radial_1838_24789" cx="0" cy="0" r="1" gradientUnits="userSpaceOnUse" gradientTransform="translate(293.044 102.952) scale(791.181 791.186)">
<stop offset="0.07" stop-color="#B0B0B0"/>
<stop offset="1"/>
</radialGradient>
<radialGradient id="paint22_radial_1838_24789" cx="0" cy="0" r="1" gradientUnits="userSpaceOnUse" gradientTransform="translate(293.012 102.952) scale(791.146 791.151)">
<stop offset="0.07" stop-color="#B0B0B0"/>
<stop offset="1"/>
</radialGradient>
<radialGradient id="paint23_radial_1838_24789" cx="0" cy="0" r="1" gradientUnits="userSpaceOnUse" gradientTransform="translate(293.013 102.952) scale(791.153 791.147)">
<stop offset="0.07" stop-color="#B0B0B0"/>
<stop offset="1"/>
</radialGradient>
<radialGradient id="paint24_radial_1838_24789" cx="0" cy="0" r="1" gradientUnits="userSpaceOnUse" gradientTransform="translate(293.012 102.952) scale(791.114 791.115)">
<stop offset="0.07" stop-color="#B0B0B0"/>
<stop offset="1"/>
</radialGradient>
<radialGradient id="paint25_radial_1838_24789" cx="0" cy="0" r="1" gradientUnits="userSpaceOnUse" gradientTransform="translate(293.012 102.952) scale(791.147 791.147)">
<stop offset="0.07" stop-color="#B0B0B0"/>
<stop offset="1"/>
</radialGradient>
<radialGradient id="paint26_radial_1838_24789" cx="0" cy="0" r="1" gradientUnits="userSpaceOnUse" gradientTransform="translate(293.012 102.952) scale(791.115 791.115)">
<stop offset="0.07" stop-color="#AF853A" stop-opacity="0.980392"/>
<stop offset="1" stop-color="#140D01"/>
</radialGradient>
<radialGradient id="paint27_radial_1838_24789" cx="0" cy="0" r="1" gradientUnits="userSpaceOnUse" gradientTransform="translate(293.011 102.952) scale(791.118 791.116)">
<stop offset="0.07" stop-color="#B0B0B0"/>
<stop offset="1"/>
</radialGradient>
<radialGradient id="paint28_radial_1838_24789" cx="0" cy="0" r="1" gradientUnits="userSpaceOnUse" gradientTransform="translate(293.011 102.952) scale(791.118 791.114)">
<stop offset="0.07" stop-color="#B0B0B0"/>
<stop offset="1"/>
</radialGradient>
<radialGradient id="paint29_radial_1838_24789" cx="0" cy="0" r="1" gradientUnits="userSpaceOnUse" gradientTransform="translate(293.016 102.952) scale(791.131 791.148)">
<stop offset="0.07" stop-color="#B0B0B0"/>
<stop offset="1"/>
</radialGradient>
<radialGradient id="paint30_radial_1838_24789" cx="0" cy="0" r="1" gradientUnits="userSpaceOnUse" gradientTransform="translate(293.012 102.952) scale(791.146 791.148)">
<stop offset="0.07" stop-color="#B0B0B0"/>
<stop offset="1"/>
</radialGradient>
<radialGradient id="paint31_radial_1838_24789" cx="0" cy="0" r="1" gradientUnits="userSpaceOnUse" gradientTransform="translate(293.045 102.952) scale(791.148 791.148)">
<stop offset="0.07" stop-color="#B0B0B0"/>
<stop offset="1"/>
</radialGradient>
<radialGradient id="paint32_radial_1838_24789" cx="0" cy="0" r="1" gradientUnits="userSpaceOnUse" gradientTransform="translate(293.045 102.952) scale(791.113 791.113)">
<stop offset="0.07" stop-color="#B0B0B0"/>
<stop offset="1"/>
</radialGradient>
<radialGradient id="paint33_radial_1838_24789" cx="0" cy="0" r="1" gradientUnits="userSpaceOnUse" gradientTransform="translate(293.011 102.952) scale(791.155 791.147)">
<stop offset="0.07" stop-color="#B0B0B0"/>
<stop offset="1"/>
</radialGradient>
<radialGradient id="paint34_radial_1838_24789" cx="0" cy="0" r="1" gradientUnits="userSpaceOnUse" gradientTransform="translate(293.012 102.952) scale(791.147 791.145)">
<stop offset="0.07" stop-color="#B0B0B0"/>
<stop offset="1"/>
</radialGradient>
<radialGradient id="paint35_radial_1838_24789" cx="0" cy="0" r="1" gradientUnits="userSpaceOnUse" gradientTransform="translate(293.01 102.952) scale(791.192 791.18)">
<stop offset="0.07" stop-color="#B0B0B0"/>
<stop offset="1"/>
</radialGradient>
<radialGradient id="paint36_radial_1838_24789" cx="0" cy="0" r="1" gradientUnits="userSpaceOnUse" gradientTransform="translate(293.011 102.952) scale(791.117 791.112)">
<stop offset="0.07" stop-color="#B0B0B0"/>
<stop offset="1"/>
</radialGradient>
<radialGradient id="paint37_radial_1838_24789" cx="0" cy="0" r="1" gradientUnits="userSpaceOnUse" gradientTransform="translate(293.012 102.952) scale(791.114 791.115)">
<stop offset="0.07" stop-color="#B0B0B0"/>
<stop offset="1"/>
</radialGradient>
<radialGradient id="paint38_radial_1838_24789" cx="0" cy="0" r="1" gradientUnits="userSpaceOnUse" gradientTransform="translate(293.012 102.952) scale(791.147 791.148)">
<stop offset="0.07" stop-color="#B0B0B0"/>
<stop offset="1"/>
</radialGradient>
<radialGradient id="paint39_radial_1838_24789" cx="0" cy="0" r="1" gradientUnits="userSpaceOnUse" gradientTransform="translate(293.012 102.952) scale(791.147 791.148)">
<stop offset="0.07" stop-color="#B0B0B0"/>
<stop offset="1"/>
</radialGradient>
<radialGradient id="paint40_radial_1838_24789" cx="0" cy="0" r="1" gradientUnits="userSpaceOnUse" gradientTransform="translate(293.012 102.952) scale(791.115 791.115)">
<stop offset="0.07" stop-color="#B0B0B0"/>
<stop offset="1"/>
</radialGradient>
<radialGradient id="paint41_radial_1838_24789" cx="0" cy="0" r="1" gradientUnits="userSpaceOnUse" gradientTransform="translate(293.012 102.952) scale(791.147 791.148)">
<stop offset="0.07" stop-color="#B0B0B0"/>
<stop offset="1"/>
</radialGradient>
<radialGradient id="paint42_radial_1838_24789" cx="0" cy="0" r="1" gradientUnits="userSpaceOnUse" gradientTransform="translate(293.012 102.952) scale(791.15 791.149)">
<stop offset="0.07" stop-color="#B0B0B0"/>
<stop offset="1"/>
</radialGradient>
<radialGradient id="paint43_radial_1838_24789" cx="0" cy="0" r="1" gradientUnits="userSpaceOnUse" gradientTransform="translate(293.011 102.952) scale(791.146 791.148)">
<stop offset="0.07" stop-color="#B0B0B0"/>
<stop offset="1"/>
</radialGradient>
<radialGradient id="paint44_radial_1838_24789" cx="0" cy="0" r="1" gradientUnits="userSpaceOnUse" gradientTransform="translate(293.012 102.952) scale(791.172 791.163)">
<stop offset="0.07" stop-color="#B0B0B0"/>
<stop offset="1"/>
</radialGradient>
<radialGradient id="paint45_radial_1838_24789" cx="0" cy="0" r="1" gradientUnits="userSpaceOnUse" gradientTransform="translate(293.012 102.952) scale(791.115 791.115)">
<stop offset="0.07" stop-color="#B0B0B0"/>
<stop offset="1"/>
</radialGradient>
<radialGradient id="paint46_radial_1838_24789" cx="0" cy="0" r="1" gradientUnits="userSpaceOnUse" gradientTransform="translate(293.012 102.952) scale(791.115 791.115)">
<stop offset="0.07" stop-color="#B0B0B0"/>
<stop offset="1"/>
</radialGradient>
<radialGradient id="paint47_radial_1838_24789" cx="0" cy="0" r="1" gradientUnits="userSpaceOnUse" gradientTransform="translate(293.01 102.952) scale(791.111 791.116)">
<stop offset="0.07" stop-color="#B0B0B0"/>
<stop offset="1"/>
</radialGradient>
<radialGradient id="paint48_radial_1838_24789" cx="0" cy="0" r="1" gradientUnits="userSpaceOnUse" gradientTransform="translate(293.012 102.952) scale(791.116 791.115)">
<stop offset="0.07" stop-color="#C9AD7B" stop-opacity="0.980392"/>
<stop offset="1" stop-color="#EE9802" stop-opacity="0.980392"/>
</radialGradient>
<radialGradient id="paint49_radial_1838_24789" cx="0" cy="0" r="1" gradientUnits="userSpaceOnUse" gradientTransform="translate(293.012 102.952) scale(791.148 791.147)">
<stop offset="0.07" stop-color="#AA8646" stop-opacity="0.980392"/>
<stop offset="1" stop-color="#FFA80F" stop-opacity="0.980392"/>
</radialGradient>
<radialGradient id="paint50_radial_1838_24789" cx="0" cy="0" r="1" gradientUnits="userSpaceOnUse" gradientTransform="translate(293.012 102.952) scale(791.114 791.116)">
<stop offset="0.07" stop-color="#B0B0B0"/>
<stop offset="1" stop-color="#FFA80F" stop-opacity="0.980392"/>
</radialGradient>
<radialGradient id="paint51_radial_1838_24789" cx="0" cy="0" r="1" gradientUnits="userSpaceOnUse" gradientTransform="translate(293.012 102.952) scale(791.117 791.117)">
<stop offset="0.07" stop-color="#B0B0B0"/>
<stop offset="1" stop-color="#FFA80F" stop-opacity="0.980392"/>
</radialGradient>
<radialGradient id="paint52_radial_1838_24789" cx="0" cy="0" r="1" gradientUnits="userSpaceOnUse" gradientTransform="translate(293.012 102.952) scale(791.146 791.148)">
<stop offset="0.07" stop-color="#CCC2B2" stop-opacity="0.980392"/>
<stop offset="1" stop-color="#FFA80F" stop-opacity="0.980392"/>
</radialGradient>
<radialGradient id="paint53_radial_1838_24789" cx="0" cy="0" r="1" gradientUnits="userSpaceOnUse" gradientTransform="translate(293.012 102.952) scale(791.148 791.148)">
<stop offset="0.07" stop-color="#ADABA6"/>
<stop offset="1" stop-color="#FFA609" stop-opacity="0.980392"/>
</radialGradient>
<radialGradient id="paint54_radial_1838_24789" cx="0" cy="0" r="1" gradientUnits="userSpaceOnUse" gradientTransform="translate(293.012 102.953) scale(791.113 791.111)">
<stop offset="0.07" stop-color="#9D8B6B" stop-opacity="0.980392"/>
<stop offset="1" stop-color="#D88C08"/>
</radialGradient>
</defs>
</svg>
