<svg width="38" height="38" viewBox="0 0 38 38" fill="none" xmlns="http://www.w3.org/2000/svg">
<mask id="mask0_1132_11595" style="mask-type:alpha" maskUnits="userSpaceOnUse" x="0" y="0" width="38" height="38">
<rect width="38" height="38" fill="#D9D9D9"/>
</mask>
<g mask="url(#mask0_1132_11595)">
<rect x="11.083" y="17.417" width="15.8333" height="3.16667" fill="#FAFAFA"/>
<path d="M19.0003 34.8337C16.81 34.8337 14.7517 34.418 12.8253 33.5868C10.8989 32.7555 9.22324 31.6274 7.79824 30.2024C6.37324 28.7774 5.24512 27.1017 4.41387 25.1753C3.58262 23.2489 3.16699 21.1906 3.16699 19.0003C3.16699 16.81 3.58262 14.7517 4.41387 12.8253C5.24512 10.8989 6.37324 9.22324 7.79824 7.79824C9.22324 6.37324 10.8989 5.24512 12.8253 4.41387C14.7517 3.58262 16.81 3.16699 19.0003 3.16699C21.1906 3.16699 23.2489 3.58262 25.1753 4.41387C27.1017 5.24512 28.7774 6.37324 30.2024 7.79824C31.6274 9.22324 32.7555 10.8989 33.5868 12.8253C34.418 14.7517 34.8337 16.81 34.8337 19.0003C34.8337 21.1906 34.418 23.2489 33.5868 25.1753C32.7555 27.1017 31.6274 28.7774 30.2024 30.2024C28.7774 31.6274 27.1017 32.7555 25.1753 33.5868C23.2489 34.418 21.1906 34.8337 19.0003 34.8337ZM19.0003 31.667C22.5364 31.667 25.5316 30.4399 27.9857 27.9857C30.4399 25.5316 31.667 22.5364 31.667 19.0003C31.667 15.4642 30.4399 12.4691 27.9857 10.0149C25.5316 7.56074 22.5364 6.33366 19.0003 6.33366C15.4642 6.33366 12.4691 7.56074 10.0149 10.0149C7.56074 12.4691 6.33366 15.4642 6.33366 19.0003C6.33366 22.5364 7.56074 25.5316 10.0149 27.9857C12.4691 30.4399 15.4642 31.667 19.0003 31.667Z" fill="#FAFAFA"/>
</g>
</svg>
