<svg width="38" height="38" viewBox="0 0 38 38" fill="none" xmlns="http://www.w3.org/2000/svg">
<mask id="mask0_1132_11604" style="mask-type:alpha" maskUnits="userSpaceOnUse" x="0" y="0" width="38" height="38">
<rect width="38" height="38" fill="#D9D9D9"/>
</mask>
<g mask="url(#mask0_1132_11604)">
<path d="M17.4165 26.917H20.5832V20.5837H26.9165V17.417H20.5832V11.0837H17.4165V17.417H11.0832V20.5837H17.4165V26.917ZM18.9998 34.8337C16.8096 34.8337 14.7512 34.418 12.8248 33.5868C10.8984 32.7555 9.22275 31.6274 7.79775 30.2024C6.37275 28.7774 5.24463 27.1017 4.41338 25.1753C3.58213 23.2489 3.1665 21.1906 3.1665 19.0003C3.1665 16.81 3.58213 14.7517 4.41338 12.8253C5.24463 10.8989 6.37275 9.22324 7.79775 7.79824C9.22275 6.37324 10.8984 5.24512 12.8248 4.41387C14.7512 3.58262 16.8096 3.16699 18.9998 3.16699C21.1901 3.16699 23.2484 3.58262 25.1748 4.41387C27.1012 5.24512 28.7769 6.37324 30.2019 7.79824C31.6269 9.22324 32.755 10.8989 33.5863 12.8253C34.4175 14.7517 34.8332 16.81 34.8332 19.0003C34.8332 21.1906 34.4175 23.2489 33.5863 25.1753C32.755 27.1017 31.6269 28.7774 30.2019 30.2024C28.7769 31.6274 27.1012 32.7555 25.1748 33.5868C23.2484 34.418 21.1901 34.8337 18.9998 34.8337ZM18.9998 31.667C22.5359 31.667 25.5311 30.4399 27.9853 27.9857C30.4394 25.5316 31.6665 22.5364 31.6665 19.0003C31.6665 15.4642 30.4394 12.4691 27.9853 10.0149C25.5311 7.56074 22.5359 6.33366 18.9998 6.33366C15.4637 6.33366 12.4686 7.56074 10.0144 10.0149C7.56025 12.4691 6.33317 15.4642 6.33317 19.0003C6.33317 22.5364 7.56025 25.5316 10.0144 27.9857C12.4686 30.4399 15.4637 31.667 18.9998 31.667Z" fill="#FAFAFA"/>
</g>
</svg>
