<svg width="786" height="1243" viewBox="0 0 786 1243" fill="none" xmlns="http://www.w3.org/2000/svg">
<path d="M186.041 472.04L274.329 560.971C280.591 567.279 281.928 577.636 277.672 586.955L211.867 731.132C204.47 747.336 184.695 752.316 174.597 740.518L84.7608 635.538C78.9648 628.75 78.2743 618.231 83.0518 609.143L150.404 481.015C158.09 466.405 175.981 461.899 186.041 472.04ZM-30.2298 625.823C-35.0073 634.912 -34.3296 645.434 -28.5205 652.218L190.801 908.523C200.899 920.321 220.674 915.34 228.071 899.137L388.722 547.139C392.978 537.82 391.655 527.46 385.392 521.153L330.615 465.985L393.9 361.446C399.453 352.286 399.232 341.173 393.378 333.927C383.753 321.996 364.286 326.113 356.283 341.772L305.639 440.825L276.613 411.587L338.49 309.373C344.601 299.276 343.655 286.959 336.235 279.982L333.282 277.198C322.701 267.257 304.507 272.677 297.445 287.877L251.637 386.426L224.644 359.238L285.159 259.271C291.083 249.482 290.405 237.554 283.5 230.46L282.976 229.921C272.789 219.442 254.4 224.231 246.881 239.322L199.669 334.078L169.836 304.036C159.777 293.893 141.886 298.399 134.2 313.01L108.489 361.932L56.8659 293.859C48.7177 283.11 32.2223 284.316 22.5621 296.365L16.7931 303.565C8.27688 314.185 8.59764 328.984 17.5118 336.621L89.4362 398.18L68.8439 437.352L0.625444 378.962C-8.28858 371.326 -22.4266 373.746 -30.9429 384.364L-32.8454 386.743C-42.0363 398.202 -40.8232 414.277 -30.2502 421.204L49.7909 473.6L27.648 515.725L-40.8055 457.135C-49.7195 449.499 -63.8575 451.919 -72.3738 462.537L-77.6497 469.115C-87.1292 480.94 -85.485 497.567 -74.1938 504.105L8.58224 551.977L-30.2298 625.823Z" fill="#2E2516"/>
<path d="M275.124 882.744L316.592 899.394C326.882 903.529 339.589 897.472 344.961 885.872C349.149 876.824 347.73 866.731 341.439 860.817L323.943 844.38C317.652 838.471 316.233 828.382 320.408 819.34L391.305 666.116C395.392 657.288 403.929 651.366 412.693 651.289L429.709 651.143C438.298 651.07 446.695 645.376 450.874 636.796L451.256 635.995C456.866 624.489 453.167 611.602 442.987 607.212L409.757 592.864C399.422 588.4 386.428 594.432 380.967 606.226L266.21 854.268C260.839 865.868 264.834 878.614 275.124 882.744Z" fill="#2E2516"/>
<path d="M-77.6996 768.562C-72.3914 775.328 -63.1655 777.244 -54.5928 773.366L-29.2237 761.894C-20.651 758.016 -11.4387 759.93 -6.13119 766.69L82.7209 879.795C87.7671 886.224 88.2841 895.781 84.0421 904.127L74.1607 923.536C70.0098 931.706 70.4126 941.058 75.2028 947.49L75.9152 948.442C82.6915 957.558 96.0011 958.023 105.622 949.483L136.139 922.411C145.922 913.731 148.117 899.129 140.995 890.067L-6.25287 702.61C-13.2526 693.695 -26.6118 693.557 -36.0786 702.296L-73.2146 736.576C-82.6943 745.32 -84.7 759.641 -77.6996 768.562Z" fill="#2E2516"/>
<path d="M496.156 508.59C496.292 509.998 495.773 511.191 494.622 512.131C493.472 513.073 492.289 513.265 491.115 512.707L456.563 496.263C455.502 495.758 454.955 494.844 454.925 493.554C454.895 492.261 455.41 491.169 456.447 490.308L486.952 464.928C487.452 464.517 487.952 464.247 488.466 464.118C489.046 463.972 489.63 464.006 490.23 464.22C491.362 464.62 491.998 465.476 492.122 466.764L496.156 508.59ZM505.864 427.64C493.301 423.168 478.853 426.289 467.185 435.991L436.68 461.373C425.15 470.958 418.448 485.277 418.744 499.677C419.039 514.078 426.279 526.037 438.103 531.67L472.656 548.113C480.082 551.653 488.496 552.29 496.717 550.22C502.764 548.697 508.71 545.707 514.077 541.327C526.723 531 533.653 514.982 532.162 499.523L528.127 457.696C526.743 443.348 518.426 432.109 505.864 427.64Z" fill="#2E2516"/>
<path d="M250.189 1003.09C249.704 1004.5 248.764 1005.39 247.407 1005.73L207.015 1015.9C205.776 1016.21 204.761 1015.9 204.009 1014.96C203.258 1014.02 203.108 1012.89 203.578 1011.61L217.042 974.077C217.5 972.805 218.349 971.954 219.564 971.546C219.669 971.51 219.774 971.479 219.879 971.452C220.959 971.18 221.888 971.43 222.637 972.199L249.552 999.558C250.464 1000.49 250.687 1001.68 250.189 1003.09ZM249.5 942.778C240.284 933.409 226.7 930.53 213.159 935.074C199.617 939.619 188.496 950.792 183.412 964.962L169.948 1002.49C164.8 1016.84 166.727 1031.64 175.103 1042.09C183.492 1052.53 196.753 1056.69 210.612 1053.2L251.005 1043.03C265.931 1039.27 278.555 1027.31 283.957 1011.82C289.358 996.324 286.468 980.352 276.415 970.136L249.5 942.778Z" fill="#2E2516"/>
<path d="M161.757 181.09L118.743 191.923L133.958 349.665L176.972 338.832L161.757 181.09Z" fill="#2E2516"/>
<path d="M158.155 179.138L116.932 189.52C106.024 192.267 96.3008 185.335 95.2114 174.04C94.1219 162.744 102.079 151.36 112.987 148.613L154.209 138.231C165.104 135.487 174.841 142.416 175.93 153.712C177.02 165.007 169.05 176.394 158.155 179.138ZM127.197 81.0421C85.3291 91.5862 54.7696 135.291 58.9523 178.656C63.1349 222.022 100.476 248.628 142.344 238.084C184.225 227.536 214.771 183.834 210.588 140.468C206.406 97.1025 169.078 70.4947 127.197 81.0421Z" fill="#2E2516"/>
<path d="M475.808 784.646L434.586 795.027C423.678 797.774 413.954 790.844 412.865 779.548C411.775 768.252 419.732 756.867 430.64 754.12L471.863 743.739C482.771 740.991 492.494 747.923 493.584 759.219C494.673 770.515 486.716 781.898 475.808 784.646ZM444.863 686.545C402.995 697.089 372.436 740.793 376.619 784.159C380.801 827.525 418.142 854.131 460.01 843.587C501.878 833.042 532.437 789.337 528.255 745.971C524.072 702.605 486.731 676.001 444.863 686.545Z" fill="#2E2516"/>
<path d="M-30.6366 912.189L-71.8589 922.571C-82.7672 925.318 -92.4903 918.388 -93.5798 907.091C-94.6694 895.795 -86.7127 884.411 -75.8044 881.664L-34.5821 871.282C-23.6738 868.535 -13.9506 875.467 -12.8611 886.763C-11.7715 898.059 -19.7283 909.442 -30.6366 912.189ZM-61.5813 814.088C-103.449 824.633 -134.009 868.337 -129.826 911.703C-125.643 955.068 -88.3023 981.674 -46.4344 971.13C-4.56661 960.586 25.9927 916.88 21.81 873.515C17.6274 830.149 -19.7135 803.544 -61.5813 814.088Z" fill="#2E2516"/>
</svg>
