<svg width="50" height="50" viewBox="0 0 50 50" fill="none" xmlns="http://www.w3.org/2000/svg">
<circle cx="25" cy="25" r="25" fill="black"/>
<path d="M39.1514 24.08C39.0203 20.2587 37.3933 16.6418 34.621 14.0086C31.8487 11.3754 28.1529 9.93658 24.33 10.0021C20.507 10.0677 16.8627 11.6324 14.1823 14.3592C11.502 17.0859 10 20.7564 10 24.58C10 28.4035 11.502 32.0741 14.1823 34.8008C16.8627 37.5276 20.507 39.0923 24.33 39.1578C28.1529 39.2234 31.8487 37.7846 34.621 35.1514C37.3933 32.5182 39.0203 28.9013 39.1514 25.08C39.1514 24.91 39.1514 24.75 39.1514 24.58C39.1514 24.41 39.1514 24.24 39.1514 24.08Z" fill="#FFA80F" fill-opacity="0.980392"/>
<path d="M24.1615 24.55V13C22.1429 13.0098 20.1615 13.5439 18.4115 14.55C17.5383 15.049 16.7347 15.6609 16.0215 16.37C15.3155 17.0859 14.7039 17.889 14.2015 18.76C13.1902 20.5076 12.6577 22.4909 12.6577 24.51C12.6577 26.5291 13.1902 28.5124 14.2015 30.26C14.7039 31.1309 15.3155 31.9341 16.0215 32.65C17.4549 34.0822 19.2368 35.1162 21.1915 35.65C22.6492 36.0415 24.1698 36.1414 25.6661 35.944C27.1625 35.7467 28.6052 35.256 29.9115 34.5C30.7864 34.0035 31.5903 33.3913 32.3015 32.68C33.0106 31.9668 33.6225 31.1632 34.1215 30.29C34.6268 29.4221 35.0136 28.4905 35.2715 27.52C35.5341 26.5415 35.6685 25.5331 35.6715 24.52L24.1615 24.55Z" fill="#EFEFEF"/>
</svg>
