<svg width="1113" height="347" viewBox="0 0 1113 347" fill="none" xmlns="http://www.w3.org/2000/svg">
<g opacity="0.8">
<g style="mix-blend-mode:color-dodge">
<path d="M455.9 84.6619H338.11L288.445 50.0522H200.9L132.225 2.15821L132.753 1.79053L201.221 49.5087H288.766L338.431 84.1344H455.9V84.6619Z" fill="#E0BD7F" fill-opacity="0.85"/>
<path d="M455.762 82.4239C456.337 82.427 456.898 82.5488 457.374 82.7738C457.85 82.9988 458.219 83.3169 458.436 83.6882C458.653 84.0594 458.707 84.4671 458.592 84.8599C458.478 85.2527 458.198 85.6129 457.79 85.8953C457.382 86.1776 456.863 86.3694 456.299 86.4464C455.735 86.5235 455.15 86.4823 454.62 86.3282C454.089 86.1741 453.635 85.9139 453.316 85.5804C452.997 85.2469 452.827 84.855 452.827 84.4541C452.827 84.1861 452.903 83.9208 453.051 83.6735C453.199 83.4261 453.415 83.2016 453.688 83.0129C453.961 82.8241 454.285 82.6749 454.641 82.5738C454.997 82.4727 455.378 82.4218 455.762 82.4239Z" fill="#E0BD7F" fill-opacity="0.85"/>
<path d="M134.656 0.623894C134.249 0.338597 133.731 0.143874 133.165 0.0644298C132.6 -0.0150149 132.013 0.0243944 131.48 0.177655C130.947 0.330915 130.491 0.591127 130.17 0.925291C129.849 1.25945 129.678 1.65251 129.678 2.05464C129.678 2.45676 129.849 2.84982 130.17 3.18399C130.491 3.51815 130.947 3.77836 131.48 3.93162C132.013 4.08488 132.6 4.12429 133.165 4.04484C133.731 3.9654 134.249 3.77068 134.656 3.48538C135.198 3.10504 135.502 2.59072 135.502 2.05464C135.502 1.51855 135.198 1.00423 134.656 0.623894Z" fill="#E0BD7F" fill-opacity="0.85"/>
</g>
<g style="mix-blend-mode:color-dodge">
<path d="M91.961 345.233H12.4182V344.69H91.64L135.458 314.141H223.004L272.669 279.515H393.073L437.418 248.598L437.969 248.982L393.394 280.059H272.99L223.325 314.684H135.779L91.961 345.233Z" fill="#E0BD7F" fill-opacity="0.85"/>
<path d="M435.515 247.447C435.922 247.162 436.441 246.967 437.006 246.888C437.572 246.808 438.158 246.848 438.691 247.001C439.225 247.154 439.681 247.414 440.001 247.749C440.322 248.083 440.494 248.476 440.494 248.878C440.494 249.28 440.322 249.673 440.001 250.007C439.681 250.341 439.225 250.602 438.691 250.755C438.158 250.908 437.572 250.948 437.006 250.868C436.441 250.789 435.922 250.594 435.515 250.309C434.974 249.928 434.669 249.414 434.669 248.878C434.669 248.342 434.974 247.827 435.515 247.447Z" fill="#E0BD7F" fill-opacity="0.85"/>
<path d="M12.5559 346.992C14.1641 346.992 15.4679 346.083 15.4679 344.962C15.4679 343.841 14.1641 342.932 12.5559 342.932C10.9476 342.932 9.6438 343.841 9.6438 344.962C9.6438 346.083 10.9476 346.992 12.5559 346.992Z" fill="#E0BD7F" fill-opacity="0.85"/>
</g>
<g style="mix-blend-mode:color-dodge">
<path d="M491.968 125.202L451.864 97.227H313.966L272.715 68.4842H217.317L195.121 83.9586H27.2767V83.4151H194.8L216.996 67.9407H273.036L314.287 96.6995H452.162L492.519 124.819L491.968 125.202Z" fill="#E0BD7F" fill-opacity="0.85"/>
<path d="M492.129 126.961C493.737 126.961 495.041 126.052 495.041 124.931C495.041 123.809 493.737 122.9 492.129 122.9C490.52 122.9 489.217 123.809 489.217 124.931C489.217 126.052 490.52 126.961 492.129 126.961Z" fill="#E0BD7F" fill-opacity="0.85"/>
<path d="M27.4143 85.7167C29.0225 85.7167 30.3263 84.8077 30.3263 83.6865C30.3263 82.5652 29.0225 81.6562 27.4143 81.6562C25.806 81.6562 24.5022 82.5652 24.5022 83.6865C24.5022 84.8077 25.806 85.7167 27.4143 85.7167Z" fill="#E0BD7F" fill-opacity="0.85"/>
</g>
<g style="mix-blend-mode:color-dodge">
<path d="M382.227 272.577H335.634L301.171 248.55H233.643L200.028 225.115H99.2985V224.571H200.349L233.964 248.007H301.469L335.955 272.034H381.906L429.255 239.023L429.806 239.406L382.227 272.577Z" fill="#E0BD7F" fill-opacity="0.85"/>
<path d="M427.375 237.856C427.646 237.666 427.967 237.516 428.322 237.413C428.676 237.311 429.055 237.258 429.439 237.258C429.822 237.258 430.202 237.311 430.556 237.413C430.91 237.516 431.232 237.666 431.503 237.856C432.05 238.237 432.357 238.755 432.357 239.294C432.357 239.834 432.05 240.352 431.503 240.733C430.955 241.115 430.213 241.329 429.439 241.329C428.665 241.329 427.923 241.115 427.375 240.733C427.103 240.544 426.888 240.32 426.741 240.073C426.594 239.826 426.518 239.562 426.518 239.294C426.518 239.027 426.594 238.762 426.741 238.515C426.888 238.268 427.103 238.044 427.375 237.856Z" fill="#E0BD7F" fill-opacity="0.85"/>
<path d="M99.4591 226.873C101.067 226.873 102.371 225.964 102.371 224.843C102.371 223.721 101.067 222.812 99.4591 222.812C97.8508 222.812 96.547 223.721 96.547 224.843C96.547 225.964 97.8508 226.873 99.4591 226.873Z" fill="#E0BD7F" fill-opacity="0.85"/>
</g>
<g style="mix-blend-mode:color-dodge">
<path d="M486.924 138.343L447.76 111.039H316.488L272.555 80.4256H232.428L200.258 102.87H73.8696V102.326H199.937L232.107 79.8821H272.876L316.809 110.495H448.081L487.474 137.959L486.924 138.343Z" fill="#E0BD7F" fill-opacity="0.85"/>
<path d="M74.0073 104.629C73.4313 104.629 72.8683 104.509 72.3894 104.286C71.9105 104.063 71.5373 103.746 71.3169 103.375C71.0965 103.004 71.0388 102.596 71.1512 102.202C71.2635 101.808 71.5409 101.447 71.9481 101.163C72.3554 100.879 72.8743 100.685 73.4392 100.607C74.004 100.529 74.5896 100.569 75.1217 100.723C75.6538 100.876 76.1086 101.137 76.4286 101.47C76.7485 101.804 76.9193 102.197 76.9193 102.598C76.9193 103.137 76.6125 103.653 76.0664 104.034C75.5203 104.415 74.7796 104.629 74.0073 104.629Z" fill="#E0BD7F" fill-opacity="0.85"/>
<path d="M485.043 139.526C485.597 139.884 486.328 140.078 487.083 140.068C487.838 140.057 488.558 139.843 489.09 139.47C489.622 139.096 489.926 138.593 489.937 138.067C489.948 137.541 489.665 137.032 489.148 136.648C488.88 136.45 488.558 136.291 488.201 136.181C487.843 136.071 487.457 136.012 487.067 136.008C486.676 136.004 486.288 136.055 485.926 136.158C485.564 136.261 485.236 136.413 484.96 136.606C484.685 136.8 484.468 137.03 484.322 137.282C484.177 137.535 484.106 137.806 484.114 138.078C484.121 138.351 484.208 138.619 484.367 138.868C484.527 139.116 484.757 139.34 485.043 139.526Z" fill="#E0BD7F" fill-opacity="0.85"/>
</g>
<g style="mix-blend-mode:color-dodge">
<path d="M376.311 245.801H319.262L253.179 199.713H116.84L83.9586 222.637L83.4083 222.269L116.519 199.186H253.5L319.583 245.257H375.99L408.413 222.653H466.883V223.197H408.734L376.311 245.801Z" fill="#E0BD7F" fill-opacity="0.85"/>
<path d="M466.723 220.894C467.299 220.894 467.862 221.013 468.34 221.236C468.819 221.46 469.193 221.777 469.413 222.148C469.633 222.519 469.691 222.927 469.579 223.321C469.466 223.714 469.189 224.076 468.782 224.36C468.374 224.644 467.856 224.837 467.291 224.916C466.726 224.994 466.14 224.954 465.608 224.8C465.076 224.647 464.621 224.386 464.301 224.052C463.981 223.719 463.811 223.326 463.811 222.925C463.811 222.386 464.117 221.87 464.663 221.489C465.21 221.108 465.95 220.894 466.723 220.894Z" fill="#E0BD7F" fill-opacity="0.85"/>
<path d="M81.7344 220.958C81.4496 221.145 81.2215 221.369 81.0638 221.619C80.9061 221.868 80.8219 222.137 80.8163 222.409C80.8108 222.682 80.8839 222.952 81.0314 223.204C81.1788 223.457 81.3976 223.686 81.6747 223.878C81.9518 224.07 82.2815 224.221 82.6442 224.323C83.0069 224.424 83.3952 224.473 83.7859 224.468C84.1766 224.463 84.5617 224.402 84.9183 224.291C85.275 224.18 85.5958 224.019 85.8618 223.82C86.3757 223.434 86.6546 222.924 86.6396 222.398C86.6246 221.872 86.3169 221.37 85.7815 220.999C85.246 220.627 84.5247 220.416 83.7696 220.408C83.0146 220.401 82.2849 220.598 81.7344 220.958Z" fill="#E0BD7F" fill-opacity="0.85"/>
</g>
<g style="mix-blend-mode:color-dodge">
<path d="M388.899 255.233H357.509V254.689H388.578L424.28 229.799L424.83 230.182L388.899 255.233Z" fill="#E0BD7F" fill-opacity="0.85"/>
<path d="M422.4 228.632C422.953 228.274 423.684 228.079 424.439 228.09C425.194 228.1 425.914 228.314 426.446 228.688C426.979 229.061 427.283 229.564 427.293 230.09C427.304 230.617 427.021 231.126 426.504 231.509C426.237 231.708 425.914 231.867 425.557 231.977C425.199 232.087 424.814 232.145 424.423 232.149C424.032 232.153 423.644 232.102 423.283 231.999C422.921 231.897 422.592 231.744 422.317 231.551C422.041 231.358 421.824 231.128 421.679 230.875C421.533 230.622 421.462 230.351 421.47 230.079C421.478 229.807 421.564 229.538 421.724 229.29C421.884 229.041 422.113 228.817 422.4 228.632Z" fill="#E0BD7F" fill-opacity="0.85"/>
<path d="M357.646 256.991C359.255 256.991 360.559 256.082 360.559 254.96C360.559 253.839 359.255 252.93 357.646 252.93C356.038 252.93 354.734 253.839 354.734 254.96C354.734 256.082 356.038 256.991 357.646 256.991Z" fill="#E0BD7F" fill-opacity="0.85"/>
</g>
<g style="mix-blend-mode:color-dodge">
<path d="M486.924 154.585L444.917 125.298H326.554L286.886 97.6424H221.101L186.798 121.573H44.4739L2.42102 92.2391L2.9484 91.8555L44.7949 121.03H186.477L220.78 97.1149H287.207L326.875 124.771H445.238L487.474 154.201L486.924 154.585Z" fill="#E0BD7F" fill-opacity="0.85"/>
<path d="M489.148 152.89C489.557 153.173 489.836 153.535 489.95 153.929C490.064 154.324 490.008 154.733 489.788 155.104C489.568 155.476 489.195 155.794 488.716 156.018C488.236 156.241 487.672 156.361 487.096 156.361C486.519 156.361 485.955 156.241 485.476 156.018C484.996 155.794 484.623 155.476 484.403 155.104C484.184 154.733 484.127 154.324 484.241 153.929C484.355 153.535 484.634 153.173 485.043 152.89C485.589 152.512 486.327 152.3 487.096 152.3C487.865 152.3 488.602 152.512 489.148 152.89Z" fill="#E0BD7F" fill-opacity="0.85"/>
<path d="M4.96615 90.6883C4.41386 90.3133 3.6734 90.1035 2.90249 90.1035C2.13157 90.1035 1.39112 90.3133 0.838824 90.6883C0.300976 91.0734 0 91.5896 0 92.1271C0 92.6645 0.300976 93.1808 0.838824 93.5658C1.10484 93.7585 1.42283 93.9126 1.77452 94.0193C2.12621 94.126 2.50468 94.1832 2.8882 94.1877C3.27171 94.1922 3.6527 94.1437 4.0093 94.0453C4.3659 93.9468 4.69107 93.8001 4.96615 93.6138C5.24277 93.4221 5.4623 93.1942 5.6121 92.9432C5.7619 92.6921 5.83902 92.4229 5.83902 92.151C5.83902 91.8791 5.7619 91.6099 5.6121 91.3589C5.4623 91.1079 5.24277 90.88 4.96615 90.6883Z" fill="#E0BD7F" fill-opacity="0.85"/>
</g>
<g style="mix-blend-mode:color-dodge">
<path d="M469.291 160.291L435.171 136.504H329.076L287.688 107.633H223.623L171.458 144.001L170.908 143.618L223.302 107.09H288.009L329.397 135.96H435.492L469.841 159.907L469.291 160.291Z" fill="#E0BD7F" fill-opacity="0.85"/>
<path d="M471.538 158.597C472.076 158.982 472.377 159.498 472.377 160.036C472.377 160.573 472.076 161.089 471.538 161.474C471.267 161.663 470.945 161.813 470.591 161.916C470.237 162.018 469.857 162.07 469.474 162.07C469.091 162.07 468.711 162.018 468.357 161.916C468.003 161.813 467.681 161.663 467.41 161.474C467.139 161.286 466.925 161.061 466.778 160.814C466.631 160.568 466.556 160.303 466.556 160.036C466.556 159.769 466.631 159.504 466.778 159.257C466.925 159.01 467.139 158.786 467.41 158.597C467.963 158.222 468.703 158.012 469.474 158.012C470.245 158.012 470.985 158.222 471.538 158.597Z" fill="#E0BD7F" fill-opacity="0.85"/>
<path d="M171.298 145.76C172.906 145.76 174.21 144.851 174.21 143.73C174.21 142.608 172.906 141.699 171.298 141.699C169.689 141.699 168.385 142.608 168.385 143.73C168.385 144.851 169.689 145.76 171.298 145.76Z" fill="#E0BD7F" fill-opacity="0.85"/>
</g>
<g style="mix-blend-mode:color-dodge">
<path d="M353.955 231.972H314.218L238.527 179.202H37.595V178.659H238.848L314.539 231.429H353.634L381.952 211.686H458.766L491.968 188.538L492.518 188.922L459.11 212.214H382.296L353.955 231.972Z" fill="#E0BD7F" fill-opacity="0.85"/>
<path d="M490.065 187.372C490.617 186.997 491.358 186.787 492.129 186.787C492.9 186.787 493.64 186.997 494.192 187.372C494.464 187.56 494.68 187.785 494.827 188.031C494.974 188.278 495.05 188.543 495.05 188.81C495.05 189.078 494.974 189.342 494.827 189.589C494.68 189.836 494.464 190.061 494.192 190.249C493.921 190.438 493.6 190.588 493.246 190.69C492.891 190.792 492.512 190.845 492.129 190.845C491.745 190.845 491.366 190.792 491.012 190.69C490.658 190.588 490.336 190.438 490.065 190.249C489.794 190.06 489.579 189.836 489.432 189.589C489.286 189.342 489.21 189.078 489.21 188.81C489.21 188.543 489.286 188.279 489.432 188.032C489.579 187.785 489.794 187.561 490.065 187.372Z" fill="#E0BD7F" fill-opacity="0.85"/>
<path d="M37.7555 176.901C37.3673 176.894 36.9813 176.942 36.62 177.041C36.2587 177.14 35.9295 177.289 35.6518 177.478C35.374 177.667 35.1533 177.893 35.0027 178.143C34.8521 178.392 34.7745 178.66 34.7747 178.931C34.7746 179.199 34.8507 179.464 34.9985 179.712C35.1463 179.959 35.3628 180.183 35.6357 180.372C35.9085 180.561 36.2322 180.71 36.5882 180.811C36.9442 180.912 37.3253 180.963 37.7096 180.961C38.482 180.961 39.2227 180.747 39.7688 180.366C40.3149 179.986 40.6217 179.469 40.6217 178.931C40.6218 178.398 40.3213 177.886 39.7851 177.507C39.2488 177.127 38.5199 176.909 37.7555 176.901Z" fill="#E0BD7F" fill-opacity="0.85"/>
</g>
<g style="mix-blend-mode:color-dodge">
<path d="M316.167 168.764H289.179V168.221H315.846L340.403 151.1H432.237V151.643H340.724L316.167 168.764Z" fill="#E0BD7F" fill-opacity="0.85"/>
<path d="M432.099 149.341C432.681 149.338 433.252 149.456 433.738 149.679C434.224 149.903 434.604 150.222 434.829 150.597C435.054 150.971 435.114 151.384 435.001 151.783C434.889 152.181 434.609 152.547 434.197 152.834C433.785 153.121 433.26 153.316 432.689 153.395C432.117 153.473 431.525 153.432 430.988 153.275C430.451 153.118 429.993 152.853 429.672 152.514C429.351 152.175 429.182 151.777 429.187 151.371C429.187 150.833 429.494 150.317 430.04 149.936C430.586 149.555 431.327 149.341 432.099 149.341Z" fill="#E0BD7F" fill-opacity="0.85"/>
<path d="M289.339 170.523C290.948 170.523 292.251 169.614 292.251 168.493C292.251 167.371 290.948 166.462 289.339 166.462C287.731 166.462 286.427 167.371 286.427 168.493C286.427 169.614 287.731 170.523 289.339 170.523Z" fill="#E0BD7F" fill-opacity="0.85"/>
</g>
<g style="mix-blend-mode:color-dodge">
<path d="M314.401 151.963L276.819 125.746H222.453V125.202H277.14L314.951 151.579L314.401 151.963Z" fill="#E0BD7F" fill-opacity="0.85"/>
<path d="M316.648 150.269C317.162 150.654 317.441 151.164 317.426 151.691C317.411 152.217 317.103 152.719 316.568 153.09C316.033 153.461 315.311 153.673 314.556 153.68C313.801 153.688 313.071 153.491 312.521 153.13C312.236 152.944 312.008 152.719 311.85 152.47C311.693 152.221 311.608 151.952 311.603 151.679C311.597 151.407 311.67 151.136 311.818 150.884C311.965 150.632 312.184 150.403 312.461 150.211C312.738 150.019 313.068 149.867 313.431 149.766C313.793 149.665 314.182 149.615 314.572 149.621C314.963 149.626 315.348 149.686 315.705 149.797C316.061 149.909 316.382 150.069 316.648 150.269Z" fill="#E0BD7F" fill-opacity="0.85"/>
<path d="M222.591 123.444C222.009 123.441 221.438 123.559 220.952 123.782C220.466 124.006 220.086 124.325 219.861 124.7C219.636 125.074 219.576 125.487 219.689 125.886C219.801 126.284 220.081 126.65 220.493 126.937C220.905 127.224 221.43 127.42 222.001 127.498C222.573 127.576 223.165 127.535 223.702 127.378C224.239 127.221 224.697 126.956 225.018 126.617C225.339 126.278 225.508 125.88 225.503 125.474C225.503 124.936 225.196 124.42 224.65 124.039C224.104 123.658 223.363 123.444 222.591 123.444Z" fill="#E0BD7F" fill-opacity="0.85"/>
</g>
<g style="mix-blend-mode:color-dodge">
<path d="M289.225 154.585L262.97 136.281H214.887V135.737H263.291L289.775 154.201L289.225 154.585Z" fill="#E0BD7F" fill-opacity="0.85"/>
<path d="M289.408 156.359C291.016 156.359 292.32 155.45 292.32 154.329C292.32 153.208 291.016 152.299 289.408 152.299C287.8 152.299 286.496 153.208 286.496 154.329C286.496 155.45 287.8 156.359 289.408 156.359Z" fill="#E0BD7F" fill-opacity="0.85"/>
<path d="M215.047 138.039C216.656 138.039 217.959 137.13 217.959 136.009C217.959 134.887 216.656 133.979 215.047 133.979C213.439 133.979 212.135 134.887 212.135 136.009C212.135 137.13 213.439 138.039 215.047 138.039Z" fill="#E0BD7F" fill-opacity="0.85"/>
</g>
<g style="mix-blend-mode:color-dodge">
<path d="M73.6175 231.238H40.1173V231.781H73.6175V231.238Z" fill="#E0BD7F" fill-opacity="0.85"/>
<path d="M73.4799 233.539C75.0882 233.539 76.392 232.63 76.392 231.509C76.392 230.388 75.0882 229.479 73.4799 229.479C71.8716 229.479 70.5679 230.388 70.5679 231.509C70.5679 232.63 71.8716 233.539 73.4799 233.539Z" fill="#E0BD7F" fill-opacity="0.85"/>
<path d="M40.2548 229.495C39.4825 229.495 38.7418 229.709 38.1957 230.09C37.6496 230.471 37.3428 230.987 37.3428 231.526C37.3428 232.064 37.6496 232.58 38.1957 232.961C38.7418 233.342 39.4825 233.556 40.2548 233.556C41.0272 233.556 41.7679 233.342 42.314 232.961C42.8601 232.58 43.1669 232.064 43.1669 231.526C43.1669 230.987 42.8601 230.471 42.314 230.09C41.7679 229.709 41.0272 229.495 40.2548 229.495Z" fill="#E0BD7F" fill-opacity="0.85"/>
</g>
<g style="mix-blend-mode:color-dodge">
<path d="M270.606 234.722L236.784 211.143H128.259V210.6H237.105L271.156 234.339L270.606 234.722Z" fill="#E0BD7F" fill-opacity="0.85"/>
<path d="M272.83 233.028C273.102 233.217 273.317 233.441 273.464 233.688C273.612 233.935 273.687 234.199 273.687 234.467C273.687 234.734 273.612 234.999 273.464 235.246C273.317 235.493 273.102 235.717 272.83 235.905C272.559 236.094 272.237 236.244 271.883 236.347C271.529 236.449 271.149 236.501 270.766 236.501C270.383 236.501 270.003 236.449 269.649 236.347C269.295 236.244 268.973 236.094 268.702 235.905C268.431 235.717 268.216 235.492 268.07 235.245C267.923 234.999 267.848 234.734 267.848 234.467C267.848 234.2 267.923 233.935 268.07 233.688C268.216 233.441 268.431 233.217 268.702 233.028C268.973 232.839 269.295 232.688 269.649 232.586C270.003 232.483 270.383 232.43 270.766 232.43C271.15 232.43 271.529 232.483 271.883 232.586C272.238 232.688 272.559 232.839 272.83 233.028Z" fill="#E0BD7F" fill-opacity="0.85"/>
<path d="M128.419 212.901C130.027 212.901 131.331 211.992 131.331 210.871C131.331 209.75 130.027 208.841 128.419 208.841C126.811 208.841 125.507 209.75 125.507 210.871C125.507 211.992 126.811 212.901 128.419 212.901Z" fill="#E0BD7F" fill-opacity="0.85"/>
</g>
<g style="mix-blend-mode:color-dodge">
<path d="M92.282 331.422H18.7009V330.878H91.961L148.001 291.808H212.227L248.731 266.343H317.909V266.886H249.052L212.548 292.352H148.322L92.282 331.422Z" fill="#E0BD7F" fill-opacity="0.85"/>
<path d="M317.772 268.645C319.38 268.645 320.684 267.736 320.684 266.614C320.684 265.493 319.38 264.584 317.772 264.584C316.163 264.584 314.86 265.493 314.86 266.614C314.86 267.736 316.163 268.645 317.772 268.645Z" fill="#E0BD7F" fill-opacity="0.85"/>
<path d="M18.8615 329.12C18.0892 329.12 17.3485 329.334 16.8024 329.714C16.2563 330.095 15.9495 330.611 15.9495 331.15C15.9495 331.416 16.0248 331.68 16.1711 331.927C16.3175 332.173 16.532 332.397 16.8024 332.585C17.0728 332.774 17.3938 332.923 17.7471 333.026C18.1004 333.128 18.4791 333.18 18.8615 333.18C19.2439 333.18 19.6226 333.128 19.9759 333.026C20.3292 332.923 20.6502 332.774 20.9207 332.585C21.1911 332.397 21.4056 332.173 21.5519 331.927C21.6983 331.68 21.7736 331.416 21.7736 331.15C21.7736 330.611 21.4668 330.095 20.9207 329.714C20.3745 329.334 19.6338 329.12 18.8615 329.12Z" fill="#E0BD7F" fill-opacity="0.85"/>
</g>
<g style="mix-blend-mode:color-dodge">
<path d="M15.6514 271.586L15.1011 271.219L58.5985 240.893H188.609L213.809 258.446H292.733V258.989H213.488L188.288 241.437H58.9196L15.6514 271.586Z" fill="#E0BD7F" fill-opacity="0.85"/>
<path d="M292.572 260.747C294.181 260.747 295.485 259.838 295.485 258.717C295.485 257.596 294.181 256.687 292.572 256.687C290.964 256.687 289.66 257.596 289.66 258.717C289.66 259.838 290.964 260.747 292.572 260.747Z" fill="#E0BD7F" fill-opacity="0.85"/>
<path d="M13.4272 269.908C13.1561 270.095 12.9409 270.318 12.7941 270.563C12.6473 270.809 12.5717 271.072 12.5717 271.338C12.5717 271.604 12.6473 271.868 12.7941 272.113C12.9409 272.359 13.1561 272.582 13.4272 272.769C13.6978 272.959 14.0193 273.109 14.3735 273.211C14.7276 273.314 15.1073 273.367 15.4908 273.367C15.8743 273.367 16.2541 273.314 16.6082 273.211C16.9623 273.109 17.2839 272.959 17.5545 272.769C18.0964 272.389 18.4005 271.874 18.4005 271.338C18.4005 270.802 18.0964 270.288 17.5545 269.908C17.2839 269.718 16.9623 269.568 16.6082 269.465C16.2541 269.363 15.8743 269.31 15.4908 269.31C15.1073 269.31 14.7276 269.363 14.3735 269.465C14.0193 269.568 13.6978 269.718 13.4272 269.908Z" fill="#E0BD7F" fill-opacity="0.85"/>
</g>
<g style="mix-blend-mode:color-dodge">
<path d="M87.8795 304.645H27.116L5.65393 289.682L6.20424 289.298L27.4371 304.101H87.5585L132.89 272.497H207.091V273.041H133.211L87.8795 304.645Z" fill="#E0BD7F" fill-opacity="0.85"/>
<path d="M206.953 270.739C207.529 270.739 208.092 270.858 208.571 271.081C209.05 271.304 209.423 271.621 209.643 271.992C209.864 272.363 209.922 272.771 209.809 273.165C209.697 273.559 209.419 273.921 209.012 274.205C208.605 274.489 208.086 274.682 207.521 274.76C206.956 274.839 206.371 274.799 205.839 274.645C205.307 274.491 204.852 274.231 204.532 273.897C204.212 273.563 204.041 273.171 204.041 272.769C204.041 272.231 204.348 271.714 204.894 271.334C205.44 270.953 206.181 270.739 206.953 270.739Z" fill="#E0BD7F" fill-opacity="0.85"/>
<path d="M8.10747 288.132C7.55518 287.757 6.81472 287.547 6.0438 287.547C5.27289 287.547 4.53243 287.757 3.98014 288.132C3.70837 288.32 3.49272 288.545 3.34557 288.791C3.19843 289.038 3.12268 289.303 3.12268 289.57C3.12268 289.838 3.19843 290.103 3.34557 290.349C3.49272 290.596 3.70837 290.821 3.98014 291.009C4.25072 291.199 4.5723 291.349 4.92645 291.452C5.28059 291.554 5.66031 291.607 6.0438 291.607C6.4273 291.607 6.80702 291.554 7.16116 291.452C7.5153 291.349 7.8369 291.199 8.10747 291.009C8.64532 290.624 8.94629 290.108 8.94629 289.57C8.94629 289.033 8.64532 288.517 8.10747 288.132Z" fill="#E0BD7F" fill-opacity="0.85"/>
</g>
<g style="mix-blend-mode:color-dodge">
<path d="M70.8888 284.007H40.1173V283.463H70.5678L105.192 259.324H181.914V259.868H105.513L70.8888 284.007Z" fill="#E0BD7F" fill-opacity="0.85"/>
<path d="M181.776 257.583C182.351 257.586 182.912 257.707 183.388 257.932C183.864 258.157 184.233 258.476 184.45 258.847C184.667 259.218 184.722 259.626 184.607 260.019C184.492 260.411 184.213 260.772 183.804 261.054C183.396 261.336 182.877 261.528 182.313 261.605C181.749 261.682 181.165 261.641 180.634 261.487C180.103 261.333 179.65 261.073 179.331 260.739C179.012 260.406 178.841 260.014 178.841 259.613C178.841 259.345 178.917 259.08 179.065 258.832C179.213 258.585 179.429 258.36 179.702 258.172C179.975 257.983 180.299 257.834 180.655 257.732C181.011 257.631 181.392 257.58 181.776 257.583Z" fill="#E0BD7F" fill-opacity="0.85"/>
<path d="M40.2548 285.766C41.8631 285.766 43.1669 284.857 43.1669 283.736C43.1669 282.614 41.8631 281.705 40.2548 281.705C38.6465 281.705 37.3428 282.614 37.3428 283.736C37.3428 284.857 38.6465 285.766 40.2548 285.766Z" fill="#E0BD7F" fill-opacity="0.85"/>
</g>
<g style="mix-blend-mode:color-dodge">
<path d="M8.10744 232.085L7.55713 231.701L63.6429 192.615H210.874V193.143H63.964L8.10744 232.085Z" fill="#E0BD7F" fill-opacity="0.85"/>
<path d="M210.737 190.857C211.312 190.857 211.875 190.976 212.354 191.199C212.833 191.422 213.207 191.739 213.427 192.11C213.647 192.481 213.705 192.889 213.593 193.283C213.48 193.677 213.203 194.039 212.796 194.323C212.388 194.606 211.87 194.8 211.305 194.878C210.74 194.956 210.154 194.916 209.622 194.763C209.09 194.609 208.635 194.349 208.315 194.015C207.995 193.681 207.824 193.288 207.824 192.887C207.824 192.62 207.9 192.356 208.046 192.11C208.192 191.864 208.407 191.64 208.677 191.451C208.948 191.263 209.269 191.113 209.622 191.011C209.975 190.909 210.354 190.857 210.737 190.857Z" fill="#E0BD7F" fill-opacity="0.85"/>
<path d="M5.86043 230.39C5.32258 230.775 5.02161 231.291 5.02161 231.829C5.02161 232.366 5.32258 232.882 5.86043 233.267C6.131 233.457 6.45259 233.607 6.80674 233.71C7.16088 233.812 7.5406 233.865 7.92409 233.865C8.30759 233.865 8.68731 233.812 9.04145 233.71C9.39559 233.607 9.71718 233.457 9.98776 233.267C10.2595 233.079 10.4752 232.855 10.6223 232.608C10.7695 232.361 10.8452 232.096 10.8452 231.829C10.8452 231.561 10.7695 231.297 10.6223 231.05C10.4752 230.803 10.2595 230.579 9.98776 230.39C9.43546 230.015 8.69501 229.805 7.92409 229.805C7.15318 229.805 6.41272 230.015 5.86043 230.39Z" fill="#E0BD7F" fill-opacity="0.85"/>
</g>
<g style="mix-blend-mode:color-dodge">
<path d="M331.552 214.66H307.935L238.986 166.59H25.0066V166.046H239.307L308.256 214.116H331.231L358.288 195.237H432.603L454.455 180.002L455.006 180.386L432.924 195.78H358.609L331.552 214.66Z" fill="#E0BD7F" fill-opacity="0.85"/>
<path d="M452.552 178.835C453.104 178.46 453.845 178.25 454.616 178.25C455.387 178.25 456.127 178.46 456.68 178.835C457.227 179.217 457.534 179.734 457.534 180.274C457.534 180.813 457.227 181.331 456.68 181.713C456.132 182.094 455.39 182.308 454.616 182.308C453.842 182.308 453.099 182.094 452.552 181.713C452.014 181.327 451.713 180.811 451.713 180.274C451.713 179.736 452.014 179.22 452.552 178.835Z" fill="#E0BD7F" fill-opacity="0.85"/>
<path d="M25.1442 168.349C26.7525 168.349 28.0563 167.44 28.0563 166.318C28.0563 165.197 26.7525 164.288 25.1442 164.288C23.536 164.288 22.2322 165.197 22.2322 166.318C22.2322 167.44 23.536 168.349 25.1442 168.349Z" fill="#E0BD7F" fill-opacity="0.85"/>
</g>
<g style="mix-blend-mode:color-dodge">
<path d="M329.351 199.953H304.152L237.564 153.529H13.6793V152.986H237.885L304.473 199.409H329.03L348.222 186.029H426.94L446.888 172.105L447.439 172.489L427.238 186.556H348.543L329.351 199.953Z" fill="#E0BD7F" fill-opacity="0.85"/>
<path d="M445.008 170.938C445.276 170.74 445.598 170.581 445.955 170.471C446.313 170.361 446.699 170.302 447.089 170.298C447.48 170.294 447.868 170.345 448.23 170.448C448.592 170.551 448.92 170.703 449.196 170.897C449.471 171.09 449.688 171.32 449.834 171.572C449.979 171.825 450.05 172.096 450.042 172.368C450.035 172.641 449.948 172.909 449.789 173.158C449.629 173.407 449.399 173.63 449.113 173.816C448.559 174.174 447.828 174.368 447.073 174.358C446.318 174.347 445.598 174.133 445.066 173.76C444.533 173.386 444.23 172.883 444.219 172.357C444.208 171.831 444.491 171.322 445.008 170.938Z" fill="#E0BD7F" fill-opacity="0.85"/>
<path d="M13.817 151.244C13.0446 151.244 12.3039 151.458 11.7578 151.838C11.2117 152.219 10.9049 152.735 10.9049 153.274C10.9049 153.812 11.2117 154.329 11.7578 154.709C12.3039 155.09 13.0446 155.304 13.817 155.304C14.5893 155.304 15.33 155.09 15.8761 154.709C16.4222 154.329 16.729 153.812 16.729 153.274C16.729 152.735 16.4222 152.219 15.8761 151.838C15.33 151.458 14.5893 151.244 13.817 151.244Z" fill="#E0BD7F" fill-opacity="0.85"/>
</g>
<g style="mix-blend-mode:color-dodge">
<path d="M327.953 181.169L327.402 180.786L353.267 162.753H433.773V163.297H353.588L327.953 181.169Z" fill="#E0BD7F" fill-opacity="0.85"/>
<path d="M433.612 161.011C434.188 161.011 434.751 161.13 435.23 161.353C435.709 161.576 436.082 161.893 436.303 162.264C436.523 162.635 436.581 163.043 436.468 163.437C436.356 163.831 436.079 164.193 435.671 164.477C435.264 164.761 434.745 164.954 434.18 165.032C433.615 165.111 433.03 165.071 432.498 164.917C431.966 164.763 431.511 164.503 431.191 164.169C430.871 163.835 430.7 163.443 430.7 163.041C430.7 162.775 430.776 162.511 430.922 162.264C431.068 162.018 431.283 161.794 431.553 161.606C431.824 161.417 432.145 161.268 432.498 161.166C432.851 161.063 433.23 161.011 433.612 161.011Z" fill="#E0BD7F" fill-opacity="0.85"/>
<path d="M327.769 182.944C329.378 182.944 330.681 182.035 330.681 180.914C330.681 179.793 329.378 178.884 327.769 178.884C326.161 178.884 324.857 179.793 324.857 180.914C324.857 182.035 326.161 182.944 327.769 182.944Z" fill="#E0BD7F" fill-opacity="0.85"/>
</g>
<g style="mix-blend-mode:color-dodge">
<path d="M261.25 61.4661H182.006L121.517 19.2791L122.068 18.9114L182.327 60.9226H261.25V61.4661Z" fill="#E0BD7F" fill-opacity="0.85"/>
<path d="M261.09 59.1641C261.666 59.1641 262.229 59.2831 262.708 59.5062C263.187 59.7293 263.56 60.0464 263.78 60.4174C264.001 60.7883 264.058 61.1965 263.946 61.5904C263.834 61.9842 263.556 62.3459 263.149 62.6299C262.742 62.9138 262.223 63.1072 261.658 63.1855C261.093 63.2638 260.507 63.2236 259.975 63.07C259.443 62.9163 258.988 62.6561 258.669 62.3222C258.349 61.9884 258.178 61.5958 258.178 61.1943C258.178 60.6558 258.485 60.1394 259.031 59.7587C259.577 59.378 260.317 59.1641 261.09 59.1641Z" fill="#E0BD7F" fill-opacity="0.85"/>
<path d="M123.948 17.7445C123.541 17.4592 123.023 17.2645 122.457 17.185C121.892 17.1056 121.305 17.145 120.772 17.2983C120.239 17.4515 119.783 17.7117 119.462 18.0459C119.141 18.3801 118.97 18.7731 118.97 19.1752C118.97 19.5774 119.141 19.9704 119.462 20.3046C119.783 20.6388 120.239 20.899 120.772 21.0522C121.305 21.2055 121.892 21.2449 122.457 21.1654C123.023 21.086 123.541 20.8913 123.948 20.606C124.49 20.2256 124.794 19.7113 124.794 19.1752C124.794 18.6392 124.49 18.1248 123.948 17.7445Z" fill="#E0BD7F" fill-opacity="0.85"/>
</g>
<g style="mix-blend-mode:color-dodge">
<path d="M155.063 61.9935L116.198 34.8973H8.95593V34.3538H116.519L155.614 61.6099L155.063 61.9935Z" fill="#E0BD7F" fill-opacity="0.85"/>
<path d="M157.288 60.299C157.559 60.4876 157.775 60.7118 157.922 60.9587C158.069 61.2056 158.145 61.4703 158.145 61.7377C158.145 62.0051 158.069 62.2698 157.922 62.5167C157.775 62.7636 157.559 62.9878 157.288 63.1764C157.017 63.3654 156.695 63.5153 156.341 63.6175C155.987 63.7198 155.607 63.7724 155.224 63.7724C154.841 63.7724 154.461 63.7198 154.107 63.6175C153.753 63.5153 153.431 63.3654 153.16 63.1764C152.889 62.9875 152.674 62.7632 152.528 62.5163C152.381 62.2695 152.305 62.0049 152.305 61.7377C152.305 61.4705 152.381 61.2059 152.528 60.9591C152.674 60.7122 152.889 60.4879 153.16 60.299C153.431 60.1095 153.752 59.9592 154.107 59.8566C154.461 59.754 154.84 59.7012 155.224 59.7012C155.607 59.7012 155.987 59.754 156.341 59.8566C156.695 59.9592 157.017 60.1095 157.288 60.299Z" fill="#E0BD7F" fill-opacity="0.85"/>
<path d="M9.09345 32.6116C8.32113 32.6116 7.58043 32.8255 7.03432 33.2062C6.4882 33.587 6.1814 34.1033 6.1814 34.6418C6.1814 35.1802 6.4882 35.6966 7.03432 36.0774C7.58043 36.4581 8.32113 36.672 9.09345 36.672C9.86578 36.672 10.6065 36.4581 11.1526 36.0774C11.6987 35.6966 12.0055 35.1802 12.0055 34.6418C12.0055 34.1033 11.6987 33.587 11.1526 33.2062C10.6065 32.8255 9.86578 32.6116 9.09345 32.6116Z" fill="#E0BD7F" fill-opacity="0.85"/>
</g>
<g style="mix-blend-mode:color-dodge">
<path d="M656.97 262.346H774.759L824.425 296.972H911.993L980.667 344.85L980.117 345.218L911.649 297.499H824.104L774.438 262.89H656.97V262.346Z" fill="#E0BD7F" fill-opacity="0.85"/>
<path d="M657.107 264.664C656.531 264.664 655.968 264.545 655.489 264.322C655.01 264.099 654.637 263.782 654.417 263.411C654.196 263.04 654.139 262.632 654.251 262.238C654.363 261.844 654.641 261.482 655.048 261.198C655.455 260.914 655.974 260.721 656.539 260.643C657.104 260.564 657.689 260.605 658.222 260.758C658.754 260.912 659.208 261.172 659.528 261.506C659.848 261.84 660.019 262.232 660.019 262.634C660.019 263.172 659.712 263.689 659.166 264.07C658.62 264.45 657.879 264.664 657.107 264.664Z" fill="#E0BD7F" fill-opacity="0.85"/>
<path d="M978.213 346.4C978.62 346.686 979.139 346.88 979.704 346.96C980.27 347.039 980.856 347 981.389 346.847C981.923 346.693 982.379 346.433 982.699 346.099C983.02 345.765 983.192 345.372 983.192 344.97C983.192 344.568 983.02 344.174 982.699 343.84C982.379 343.506 981.923 343.246 981.389 343.093C980.856 342.939 980.27 342.9 979.704 342.979C979.139 343.059 978.62 343.254 978.213 343.539C977.672 343.919 977.367 344.434 977.367 344.97C977.367 345.506 977.672 346.02 978.213 346.4Z" fill="#E0BD7F" fill-opacity="0.85"/>
</g>
<g style="mix-blend-mode:color-dodge">
<path d="M1020.91 1.77417H1100.45V2.31769H1021.23L977.411 32.8669H889.866L840.2 67.4926H719.797L675.451 98.4095L674.923 98.0258L719.476 66.9491H839.879L889.544 32.3234H977.09L1020.91 1.77417Z" fill="#E0BD7F" fill-opacity="0.85"/>
<path d="M677.354 99.5923C676.802 99.9673 676.061 100.177 675.29 100.177C674.519 100.177 673.779 99.9673 673.227 99.5923C672.956 99.4034 672.741 99.1791 672.594 98.9322C672.447 98.6854 672.372 98.4208 672.372 98.1536C672.372 97.8864 672.447 97.6218 672.594 97.3749C672.741 97.1281 672.956 96.9038 673.227 96.7148C673.498 96.5259 673.819 96.376 674.173 96.2738C674.528 96.1715 674.907 96.1189 675.29 96.1189C675.674 96.1189 676.053 96.1715 676.407 96.2738C676.761 96.376 677.083 96.5259 677.354 96.7148C677.892 97.0999 678.193 97.6161 678.193 98.1536C678.193 98.691 677.892 99.2073 677.354 99.5923Z" fill="#E0BD7F" fill-opacity="0.85"/>
<path d="M1100.31 4.09235C1100.9 4.09552 1101.47 3.97779 1101.95 3.75417C1102.44 3.53056 1102.82 3.21115 1103.04 2.83661C1103.27 2.46207 1103.33 2.04933 1103.22 1.65092C1103.1 1.25251 1102.82 0.886448 1102.41 0.599321C1102 0.312195 1101.47 0.116989 1100.9 0.0385456C1100.33 -0.0398974 1099.74 0.00196969 1099.2 0.15882C1098.67 0.31567 1098.21 0.580412 1097.89 0.919347C1097.57 1.25828 1097.4 1.65609 1097.4 2.06213C1097.4 2.32875 1097.48 2.59275 1097.62 2.83906C1097.77 3.08538 1097.98 3.30919 1098.25 3.49772C1098.52 3.68624 1098.85 3.83579 1099.2 3.93782C1099.55 4.03984 1099.93 4.09235 1100.31 4.09235Z" fill="#E0BD7F" fill-opacity="0.85"/>
</g>
<g style="mix-blend-mode:color-dodge">
<path d="M620.901 221.805L661.028 249.781H798.904L840.154 278.524H895.552L917.748 263.049H1085.62V263.593H918.069L895.873 279.067H839.833L798.583 250.308H660.707L620.351 222.189L620.901 221.805Z" fill="#E0BD7F" fill-opacity="0.85"/>
<path d="M618.677 223.516C618.405 223.327 618.19 223.103 618.042 222.856C617.895 222.609 617.82 222.344 617.82 222.077C617.82 221.81 617.895 221.545 618.042 221.298C618.19 221.051 618.405 220.827 618.677 220.638C619.224 220.257 619.967 220.042 620.741 220.042C621.515 220.042 622.257 220.257 622.804 220.638C623.352 221.02 623.659 221.537 623.659 222.077C623.659 222.617 623.352 223.134 622.804 223.516C622.534 223.705 622.212 223.855 621.858 223.958C621.504 224.061 621.124 224.113 620.741 224.113C620.357 224.113 619.977 224.061 619.623 223.958C619.269 223.855 618.948 223.705 618.677 223.516Z" fill="#E0BD7F" fill-opacity="0.85"/>
<path d="M1085.46 265.368C1086.03 265.368 1086.59 265.248 1087.07 265.025C1087.55 264.802 1087.93 264.485 1088.15 264.114C1088.37 263.743 1088.42 263.335 1088.31 262.941C1088.2 262.547 1087.92 262.186 1087.51 261.902C1087.11 261.618 1086.59 261.424 1086.02 261.346C1085.46 261.268 1084.87 261.308 1084.34 261.462C1083.81 261.615 1083.35 261.876 1083.03 262.209C1082.71 262.543 1082.54 262.936 1082.54 263.337C1082.54 263.876 1082.85 264.392 1083.4 264.773C1083.94 265.154 1084.68 265.368 1085.46 265.368Z" fill="#E0BD7F" fill-opacity="0.85"/>
</g>
<g style="mix-blend-mode:color-dodge">
<path d="M730.642 74.4309H777.235L811.721 98.4738H879.249L912.841 121.893H1013.57V122.437H912.52L878.928 99.0014H811.4L776.914 74.9744H730.963L683.614 107.986L683.063 107.602L730.642 74.4309Z" fill="#E0BD7F" fill-opacity="0.85"/>
<path d="M685.494 109.168C685.224 109.358 684.902 109.508 684.548 109.611C684.194 109.713 683.814 109.766 683.43 109.766C683.047 109.766 682.667 109.713 682.313 109.611C681.959 109.508 681.637 109.358 681.367 109.168C681.096 108.979 680.881 108.755 680.734 108.508C680.587 108.261 680.512 107.997 680.512 107.73C680.512 107.462 680.587 107.198 680.734 106.951C680.881 106.704 681.096 106.48 681.367 106.291C681.638 106.102 681.959 105.952 682.314 105.85C682.668 105.747 683.047 105.695 683.43 105.695C683.814 105.695 684.193 105.747 684.547 105.85C684.901 105.952 685.223 106.102 685.494 106.291C685.766 106.479 685.981 106.704 686.129 106.951C686.276 107.197 686.351 107.462 686.351 107.73C686.351 107.997 686.276 108.262 686.129 108.509C685.981 108.755 685.766 108.98 685.494 109.168Z" fill="#E0BD7F" fill-opacity="0.85"/>
<path d="M1013.43 124.195C1015.04 124.195 1016.35 123.286 1016.35 122.165C1016.35 121.043 1015.04 120.135 1013.43 120.135C1011.82 120.135 1010.52 121.043 1010.52 122.165C1010.52 123.286 1011.82 124.195 1013.43 124.195Z" fill="#E0BD7F" fill-opacity="0.85"/>
</g>
<g style="mix-blend-mode:color-dodge">
<path d="M625.946 208.665L665.11 235.969H796.382L840.315 266.582H880.442L912.635 244.154H1039.02V244.681H912.956L880.763 267.126H839.994L796.061 236.512H664.789L625.396 209.048L625.946 208.665Z" fill="#E0BD7F" fill-opacity="0.85"/>
<path d="M1038.86 242.396C1039.44 242.396 1040 242.515 1040.48 242.738C1040.96 242.961 1041.33 243.278 1041.55 243.649C1041.77 244.02 1041.83 244.428 1041.72 244.822C1041.61 245.216 1041.33 245.577 1040.92 245.861C1040.51 246.145 1040 246.339 1039.43 246.417C1038.87 246.495 1038.28 246.455 1037.75 246.301C1037.22 246.148 1036.76 245.888 1036.44 245.554C1036.12 245.22 1035.95 244.827 1035.95 244.426C1035.95 243.887 1036.26 243.371 1036.8 242.99C1037.35 242.609 1038.09 242.396 1038.86 242.396Z" fill="#E0BD7F" fill-opacity="0.85"/>
<path d="M627.826 207.498C627.556 207.309 627.234 207.158 626.88 207.056C626.526 206.953 626.146 206.9 625.762 206.9C625.379 206.9 624.999 206.953 624.645 207.056C624.291 207.158 623.969 207.309 623.699 207.498C623.151 207.88 622.844 208.397 622.844 208.937C622.844 209.477 623.151 209.994 623.699 210.376C624.246 210.757 624.988 210.972 625.762 210.972C626.536 210.972 627.279 210.757 627.826 210.376C628.098 210.187 628.314 209.963 628.461 209.716C628.608 209.469 628.684 209.204 628.684 208.937C628.684 208.67 628.608 208.405 628.461 208.158C628.314 207.911 628.098 207.687 627.826 207.498Z" fill="#E0BD7F" fill-opacity="0.85"/>
</g>
<g style="mix-blend-mode:color-dodge">
<path d="M736.581 101.207H793.607L859.713 147.295H996.03L1028.91 124.371L1029.46 124.754L996.351 147.838H859.392L793.286 101.751H736.902L704.457 124.355H646.009V123.811H704.136L736.581 101.207Z" fill="#E0BD7F" fill-opacity="0.85"/>
<path d="M646.147 126.129C645.571 126.129 645.008 126.01 644.529 125.787C644.05 125.564 643.677 125.247 643.457 124.876C643.236 124.505 643.178 124.097 643.291 123.703C643.403 123.309 643.681 122.947 644.088 122.663C644.495 122.38 645.014 122.186 645.579 122.108C646.144 122.03 646.729 122.07 647.261 122.223C647.793 122.377 648.248 122.637 648.568 122.971C648.888 123.305 649.059 123.698 649.059 124.099C649.059 124.638 648.752 125.154 648.206 125.535C647.66 125.915 646.919 126.129 646.147 126.129Z" fill="#E0BD7F" fill-opacity="0.85"/>
<path d="M1031.13 126.081C1031.41 125.892 1031.62 125.668 1031.77 125.421C1031.91 125.174 1031.99 124.91 1031.99 124.642C1031.99 124.375 1031.91 124.111 1031.77 123.864C1031.62 123.617 1031.41 123.393 1031.13 123.204C1030.86 123.015 1030.54 122.865 1030.19 122.763C1029.83 122.66 1029.45 122.608 1029.07 122.608C1028.69 122.608 1028.31 122.66 1027.95 122.763C1027.6 122.865 1027.28 123.015 1027.01 123.204C1026.46 123.585 1026.15 124.103 1026.15 124.642C1026.15 125.182 1026.46 125.7 1027.01 126.081C1027.55 126.463 1028.3 126.677 1029.07 126.677C1029.85 126.677 1030.59 126.463 1031.13 126.081Z" fill="#E0BD7F" fill-opacity="0.85"/>
</g>
<g style="mix-blend-mode:color-dodge">
<path d="M723.97 91.7754H755.36V92.3189H724.291L688.589 117.209L688.039 116.825L723.97 91.7754Z" fill="#E0BD7F" fill-opacity="0.85"/>
<path d="M690.561 118.392C690.008 118.751 689.277 118.945 688.522 118.935C687.767 118.924 687.047 118.71 686.515 118.336C685.982 117.963 685.679 117.46 685.668 116.934C685.657 116.407 685.94 115.899 686.457 115.515C686.724 115.316 687.047 115.157 687.404 115.047C687.762 114.937 688.147 114.879 688.538 114.875C688.929 114.871 689.317 114.922 689.678 115.025C690.04 115.127 690.369 115.28 690.644 115.473C690.92 115.666 691.137 115.896 691.282 116.149C691.428 116.402 691.499 116.673 691.491 116.945C691.483 117.217 691.397 117.486 691.237 117.735C691.077 117.983 690.848 118.207 690.561 118.392Z" fill="#E0BD7F" fill-opacity="0.85"/>
<path d="M755.223 94.0773C755.797 94.0772 756.358 93.9589 756.836 93.7372C757.314 93.5155 757.687 93.2003 757.909 92.8312C758.13 92.4621 758.191 92.0555 758.082 91.6626C757.973 91.2697 757.7 90.9079 757.298 90.6228C756.895 90.3376 756.381 90.1417 755.819 90.0598C755.257 89.9779 754.673 90.0136 754.14 90.1624C753.607 90.3111 753.149 90.5664 752.824 90.896C752.498 91.2256 752.32 91.615 752.311 92.0151C752.305 92.2844 752.376 92.5518 752.519 92.8019C752.663 93.0519 752.876 93.2795 753.147 93.4714C753.418 93.6633 753.742 93.8157 754.098 93.9198C754.454 94.0238 754.837 94.0773 755.223 94.0773Z" fill="#E0BD7F" fill-opacity="0.85"/>
</g>
<g style="mix-blend-mode:color-dodge">
<path d="M625.946 192.423L667.953 221.709H786.316L825.984 249.365H891.769L926.094 225.434H1068.4L1110.47 254.768L1109.92 255.152L1068.07 225.978H926.415L892.09 249.893H825.663L785.995 222.253H667.632L625.396 192.807L625.946 192.423Z" fill="#E0BD7F" fill-opacity="0.85"/>
<path d="M623.699 194.134C623.161 193.749 622.86 193.233 622.86 192.695C622.86 192.158 623.161 191.641 623.699 191.256C623.97 191.067 624.291 190.918 624.646 190.815C625 190.713 625.379 190.66 625.762 190.66C626.146 190.66 626.525 190.713 626.879 190.815C627.233 190.918 627.555 191.067 627.826 191.256C628.097 191.445 628.312 191.67 628.459 191.916C628.605 192.163 628.681 192.428 628.681 192.695C628.681 192.962 628.605 193.227 628.459 193.474C628.312 193.721 628.097 193.945 627.826 194.134C627.274 194.509 626.533 194.719 625.762 194.719C624.991 194.719 624.251 194.509 623.699 194.134Z" fill="#E0BD7F" fill-opacity="0.85"/>
<path d="M1108.02 256.335C1108.29 256.524 1108.61 256.674 1108.96 256.776C1109.32 256.878 1109.7 256.931 1110.08 256.931C1110.46 256.931 1110.84 256.878 1111.2 256.776C1111.55 256.674 1111.87 256.524 1112.15 256.335C1112.42 256.146 1112.63 255.922 1112.78 255.675C1112.92 255.428 1113 255.163 1113 254.896C1113 254.629 1112.92 254.364 1112.78 254.118C1112.63 253.871 1112.42 253.646 1112.15 253.457C1111.87 253.268 1111.55 253.118 1111.2 253.015C1110.84 252.912 1110.46 252.86 1110.08 252.86C1109.7 252.86 1109.32 252.912 1108.96 253.015C1108.61 253.118 1108.29 253.268 1108.02 253.457C1107.48 253.842 1107.18 254.359 1107.18 254.896C1107.18 255.434 1107.48 255.95 1108.02 256.335Z" fill="#E0BD7F" fill-opacity="0.85"/>
</g>
<g style="mix-blend-mode:color-dodge">
<path d="M643.579 186.716L677.698 210.519H783.793L825.204 239.374H889.246L941.411 203.006L941.962 203.39L889.568 239.918H824.883L783.472 211.047H677.377L643.028 187.1L643.579 186.716Z" fill="#E0BD7F" fill-opacity="0.85"/>
<path d="M641.332 188.427C640.794 188.042 640.493 187.526 640.493 186.988C640.493 186.451 640.794 185.934 641.332 185.549C641.603 185.36 641.924 185.211 642.278 185.108C642.632 185.006 643.012 184.953 643.395 184.953C643.778 184.953 644.158 185.006 644.512 185.108C644.866 185.211 645.188 185.36 645.459 185.549C645.73 185.738 645.945 185.963 646.091 186.209C646.238 186.456 646.314 186.721 646.314 186.988C646.314 187.255 646.238 187.52 646.091 187.767C645.945 188.014 645.73 188.238 645.459 188.427C644.907 188.802 644.166 189.012 643.395 189.012C642.624 189.012 641.884 188.802 641.332 188.427Z" fill="#E0BD7F" fill-opacity="0.85"/>
<path d="M943.635 204.717C943.907 204.528 944.123 204.304 944.27 204.057C944.417 203.81 944.493 203.545 944.493 203.278C944.493 203.011 944.417 202.746 944.27 202.499C944.123 202.252 943.907 202.028 943.635 201.839C943.088 201.458 942.346 201.243 941.572 201.243C940.798 201.243 940.055 201.458 939.508 201.839C938.961 202.221 938.653 202.738 938.653 203.278C938.653 203.818 938.961 204.335 939.508 204.717C939.779 204.906 940.1 205.057 940.454 205.159C940.809 205.262 941.188 205.315 941.572 205.315C941.955 205.315 942.335 205.262 942.689 205.159C943.043 205.057 943.365 204.906 943.635 204.717Z" fill="#E0BD7F" fill-opacity="0.85"/>
</g>
<g style="mix-blend-mode:color-dodge">
<path d="M758.914 115.035H798.651L874.342 167.805H1075.27V168.348H874.021L798.33 115.579H759.235L730.917 135.337H654.103L620.901 158.469L620.351 158.085L653.782 134.794H730.596L758.914 115.035Z" fill="#E0BD7F" fill-opacity="0.85"/>
<path d="M622.804 159.652C622.533 159.841 622.212 159.991 621.858 160.093C621.503 160.195 621.124 160.248 620.741 160.248C620.357 160.248 619.978 160.195 619.624 160.093C619.27 159.991 618.948 159.841 618.677 159.652C618.406 159.463 618.191 159.239 618.044 158.992C617.898 158.745 617.822 158.481 617.822 158.213C617.822 157.946 617.898 157.682 618.044 157.435C618.191 157.188 618.406 156.964 618.677 156.775C619.224 156.393 619.967 156.179 620.741 156.179C621.515 156.179 622.257 156.393 622.804 156.775C623.352 157.156 623.659 157.674 623.659 158.213C623.659 158.753 623.352 159.271 622.804 159.652Z" fill="#E0BD7F" fill-opacity="0.85"/>
<path d="M1075.11 170.123C1075.69 170.123 1076.25 170.004 1076.73 169.781C1077.21 169.557 1077.58 169.24 1077.8 168.869C1078.02 168.498 1078.08 168.09 1077.97 167.696C1077.86 167.303 1077.58 166.941 1077.17 166.657C1076.77 166.373 1076.25 166.18 1075.68 166.101C1075.12 166.023 1074.53 166.063 1074 166.217C1073.47 166.37 1073.01 166.631 1072.69 166.965C1072.37 167.298 1072.2 167.691 1072.2 168.092C1072.2 168.631 1072.51 169.147 1073.05 169.528C1073.6 169.909 1074.34 170.123 1075.11 170.123Z" fill="#E0BD7F" fill-opacity="0.85"/>
</g>
<g style="mix-blend-mode:color-dodge">
<path d="M796.703 178.244H823.691V178.787H797.024L772.466 195.908H680.633V195.365H772.145L796.703 178.244Z" fill="#E0BD7F" fill-opacity="0.85"/>
<path d="M680.771 197.667C682.379 197.667 683.683 196.758 683.683 195.637C683.683 194.515 682.379 193.606 680.771 193.606C679.162 193.606 677.858 194.515 677.858 195.637C677.858 196.758 679.162 197.667 680.771 197.667Z" fill="#E0BD7F" fill-opacity="0.85"/>
<path d="M823.53 180.546C825.138 180.546 826.442 179.637 826.442 178.516C826.442 177.394 825.138 176.485 823.53 176.485C821.922 176.485 820.618 177.394 820.618 178.516C820.618 179.637 821.922 180.546 823.53 180.546Z" fill="#E0BD7F" fill-opacity="0.85"/>
</g>
<g style="mix-blend-mode:color-dodge">
<path d="M798.468 195.061L836.05 221.262H890.416V221.806H835.729L797.918 195.445L798.468 195.061Z" fill="#E0BD7F" fill-opacity="0.85"/>
<path d="M796.221 196.756C795.707 196.37 795.428 195.86 795.443 195.334C795.458 194.807 795.766 194.306 796.301 193.934C796.837 193.563 797.558 193.351 798.313 193.344C799.068 193.336 799.798 193.534 800.348 193.894C800.633 194.081 800.861 194.305 801.019 194.554C801.177 194.804 801.261 195.073 801.266 195.345C801.272 195.617 801.199 195.888 801.051 196.14C800.904 196.392 800.685 196.621 800.408 196.814C800.131 197.006 799.801 197.157 799.439 197.258C799.076 197.36 798.688 197.409 798.297 197.404C797.906 197.398 797.521 197.338 797.164 197.227C796.808 197.116 796.487 196.955 796.221 196.756Z" fill="#E0BD7F" fill-opacity="0.85"/>
<path d="M890.278 223.58C890.854 223.58 891.417 223.461 891.896 223.238C892.375 223.014 892.748 222.697 892.969 222.326C893.189 221.955 893.247 221.547 893.134 221.153C893.022 220.76 892.745 220.398 892.337 220.114C891.93 219.83 891.411 219.637 890.846 219.558C890.282 219.48 889.696 219.52 889.164 219.674C888.632 219.827 888.177 220.088 887.857 220.422C887.537 220.755 887.366 221.148 887.366 221.549C887.366 222.088 887.673 222.604 888.219 222.985C888.765 223.366 889.506 223.58 890.278 223.58Z" fill="#E0BD7F" fill-opacity="0.85"/>
</g>
<g style="mix-blend-mode:color-dodge">
<path d="M823.645 192.423L849.899 210.727H897.983V211.271H849.578L823.095 192.807L823.645 192.423Z" fill="#E0BD7F" fill-opacity="0.85"/>
<path d="M823.484 194.709C825.093 194.709 826.396 193.8 826.396 192.679C826.396 191.558 825.093 190.649 823.484 190.649C821.876 190.649 820.572 191.558 820.572 192.679C820.572 193.8 821.876 194.709 823.484 194.709Z" fill="#E0BD7F" fill-opacity="0.85"/>
<path d="M897.822 213.045C898.398 213.045 898.961 212.926 899.44 212.703C899.919 212.48 900.292 212.163 900.513 211.792C900.733 211.421 900.791 211.013 900.678 210.619C900.566 210.225 900.289 209.863 899.881 209.579C899.474 209.295 898.955 209.102 898.39 209.024C897.825 208.945 897.24 208.986 896.708 209.139C896.176 209.293 895.721 209.553 895.401 209.887C895.081 210.221 894.91 210.613 894.91 211.015C894.91 211.553 895.217 212.07 895.763 212.45C896.309 212.831 897.05 213.045 897.822 213.045Z" fill="#E0BD7F" fill-opacity="0.85"/>
</g>
<g style="mix-blend-mode:color-dodge">
<path d="M1072.75 115.243H1039.25V115.786H1072.75V115.243Z" fill="#E0BD7F" fill-opacity="0.85"/>
<path d="M1039.39 117.593C1038.81 117.593 1038.25 117.474 1037.77 117.251C1037.29 117.028 1036.92 116.711 1036.7 116.34C1036.48 115.969 1036.42 115.56 1036.53 115.167C1036.65 114.773 1036.92 114.411 1037.33 114.127C1037.74 113.843 1038.26 113.65 1038.82 113.571C1039.39 113.493 1039.97 113.533 1040.5 113.687C1041.04 113.841 1041.49 114.101 1041.81 114.435C1042.13 114.769 1042.3 115.161 1042.3 115.563C1042.3 116.101 1041.99 116.618 1041.45 116.998C1040.9 117.379 1040.16 117.593 1039.39 117.593Z" fill="#E0BD7F" fill-opacity="0.85"/>
<path d="M1072.61 117.593C1073.19 117.593 1073.75 117.474 1074.23 117.251C1074.71 117.028 1075.08 116.711 1075.31 116.34C1075.53 115.969 1075.58 115.56 1075.47 115.167C1075.36 114.773 1075.08 114.411 1074.67 114.127C1074.27 113.843 1073.75 113.65 1073.18 113.571C1072.62 113.493 1072.03 113.533 1071.5 113.687C1070.97 113.841 1070.51 114.101 1070.19 114.435C1069.87 114.769 1069.7 115.161 1069.7 115.563C1069.7 116.101 1070.01 116.618 1070.56 116.998C1071.1 117.379 1071.84 117.593 1072.61 117.593Z" fill="#E0BD7F" fill-opacity="0.85"/>
</g>
<g style="mix-blend-mode:color-dodge">
<path d="M842.264 112.285L876.085 135.865H984.611V136.408H875.764L841.713 112.669L842.264 112.285Z" fill="#E0BD7F" fill-opacity="0.85"/>
<path d="M840.04 113.996C839.768 113.807 839.552 113.583 839.405 113.336C839.258 113.089 839.182 112.825 839.182 112.557C839.182 112.29 839.258 112.025 839.405 111.778C839.552 111.531 839.768 111.307 840.04 111.119C840.587 110.737 841.329 110.523 842.103 110.523C842.877 110.523 843.62 110.737 844.167 111.119C844.714 111.5 845.022 112.018 845.022 112.557C845.022 113.097 844.714 113.615 844.167 113.996C843.896 114.186 843.575 114.336 843.221 114.439C842.866 114.541 842.487 114.594 842.103 114.594C841.72 114.594 841.34 114.541 840.986 114.439C840.632 114.336 840.31 114.186 840.04 113.996Z" fill="#E0BD7F" fill-opacity="0.85"/>
<path d="M984.45 138.167C986.058 138.167 987.362 137.258 987.362 136.137C987.362 135.015 986.058 134.106 984.45 134.106C982.842 134.106 981.538 135.015 981.538 136.137C981.538 137.258 982.842 138.167 984.45 138.167Z" fill="#E0BD7F" fill-opacity="0.85"/>
</g>
<g style="mix-blend-mode:color-dodge">
<path d="M1020.59 15.5864H1094.17V16.1299H1020.91L964.868 55.1997H900.643L864.139 80.6654H794.96V80.1219H863.818L900.322 54.6562H964.547L1020.59 15.5864Z" fill="#E0BD7F" fill-opacity="0.85"/>
<path d="M795.098 82.4237C794.522 82.4237 793.959 82.3046 793.48 82.0816C793.001 81.8585 792.628 81.5414 792.407 81.1704C792.187 80.7995 792.129 80.3913 792.241 79.9974C792.354 79.6036 792.631 79.2419 793.039 78.9579C793.446 78.674 793.965 78.4806 794.529 78.4023C795.094 78.324 795.68 78.3642 796.212 78.5178C796.744 78.6715 797.199 78.9317 797.519 79.2656C797.839 79.5994 798.01 79.992 798.01 80.3935C798.01 80.932 797.703 81.4483 797.157 81.8291C796.611 82.2098 795.87 82.4237 795.098 82.4237Z" fill="#E0BD7F" fill-opacity="0.85"/>
<path d="M1094.12 17.9044C1094.7 17.9044 1095.26 17.7854 1095.74 17.5623C1096.22 17.3392 1096.59 17.0221 1096.81 16.6511C1097.03 16.2802 1097.09 15.872 1096.98 15.4781C1096.87 15.0843 1096.59 14.7226 1096.18 14.4386C1095.77 14.1547 1095.26 13.9613 1094.69 13.883C1094.13 13.8047 1093.54 13.8449 1093.01 13.9985C1092.48 14.1522 1092.02 14.4124 1091.7 14.7463C1091.38 15.0802 1091.21 15.4727 1091.21 15.8742C1091.21 16.1408 1091.29 16.4048 1091.43 16.6511C1091.58 16.8975 1091.79 17.1213 1092.06 17.3098C1092.33 17.4983 1092.65 17.6479 1093.01 17.7499C1093.36 17.8519 1093.74 17.9044 1094.12 17.9044Z" fill="#E0BD7F" fill-opacity="0.85"/>
</g>
<g style="mix-blend-mode:color-dodge">
<path d="M1097.22 75.4216L1097.77 75.8053L1054.27 106.115H924.26L899.06 88.5621H820.136V88.0186H899.381L924.581 105.571H1053.95L1097.22 75.4216Z" fill="#E0BD7F" fill-opacity="0.85"/>
<path d="M820.297 90.4171C819.716 90.4202 819.146 90.3029 818.66 90.08C818.175 89.8571 817.795 89.5386 817.569 89.165C817.343 88.7914 817.282 88.3795 817.393 87.9815C817.503 87.5836 817.781 87.2175 818.191 86.9297C818.6 86.6419 819.123 86.4455 819.693 86.3652C820.263 86.285 820.854 86.3245 821.392 86.4789C821.93 86.6333 822.389 86.8956 822.713 87.2324C823.036 87.5692 823.209 87.9655 823.209 88.3709C823.212 88.6388 823.139 88.9045 822.994 89.1527C822.849 89.4009 822.635 89.6266 822.364 89.8168C822.094 90.007 821.772 90.158 821.417 90.261C821.062 90.364 820.681 90.4171 820.297 90.4171Z" fill="#E0BD7F" fill-opacity="0.85"/>
<path d="M1099.44 77.1162C1099.96 76.7305 1100.23 76.2207 1100.22 75.6943C1100.21 75.1679 1099.9 74.6662 1099.36 74.295C1098.83 73.9238 1098.11 73.7121 1097.35 73.7046C1096.6 73.697 1095.87 73.8943 1095.31 74.2547C1095.03 74.4413 1094.8 74.6658 1094.64 74.9151C1094.49 75.1644 1094.4 75.4332 1094.4 75.7056C1094.39 75.978 1094.46 76.2484 1094.61 76.5007C1094.76 76.753 1094.98 76.982 1095.26 77.1741C1095.53 77.3663 1095.86 77.5175 1096.22 77.6189C1096.59 77.7203 1096.98 77.7698 1097.37 77.7644C1097.76 77.759 1098.14 77.6988 1098.5 77.5875C1098.86 77.4761 1099.18 77.3159 1099.44 77.1162Z" fill="#E0BD7F" fill-opacity="0.85"/>
</g>
<g style="mix-blend-mode:color-dodge">
<path d="M1024.99 42.3628H1085.75L1107.22 57.3257L1106.67 57.7093L1085.43 42.9063H1025.31L979.979 74.5106H905.779V73.9671H979.658L1024.99 42.3628Z" fill="#E0BD7F" fill-opacity="0.85"/>
<path d="M905.916 76.2692C907.525 76.2692 908.828 75.3602 908.828 74.239C908.828 73.1177 907.525 72.2087 905.916 72.2087C904.308 72.2087 903.004 73.1177 903.004 74.239C903.004 75.3602 904.308 76.2692 905.916 76.2692Z" fill="#E0BD7F" fill-opacity="0.85"/>
<path d="M1104.76 58.8921C1105.31 59.2671 1106.05 59.4769 1106.83 59.4769C1107.6 59.4769 1108.34 59.2671 1108.89 58.8921C1109.44 58.5105 1109.74 57.993 1109.74 57.4534C1109.74 56.9137 1109.44 56.3962 1108.89 56.0147C1108.62 55.8257 1108.3 55.6758 1107.94 55.5736C1107.59 55.4713 1107.21 55.4187 1106.83 55.4187C1106.05 55.4187 1105.31 55.6331 1104.76 56.0147C1104.22 56.3997 1103.92 56.9159 1103.92 57.4534C1103.92 57.9908 1104.22 58.5071 1104.76 58.8921Z" fill="#E0BD7F" fill-opacity="0.85"/>
</g>
<g style="mix-blend-mode:color-dodge">
<path d="M1042 63.0007H1072.75V63.5443H1042.32L1007.68 87.6831H930.956V87.1396H1007.36L1042 63.0007Z" fill="#E0BD7F" fill-opacity="0.85"/>
<path d="M931.093 89.4413C932.701 89.4413 934.005 88.5323 934.005 87.4111C934.005 86.2898 932.701 85.3809 931.093 85.3809C929.485 85.3809 928.181 86.2898 928.181 87.4111C928.181 88.5323 929.485 89.4413 931.093 89.4413Z" fill="#E0BD7F" fill-opacity="0.85"/>
<path d="M1072.61 65.3031C1074.22 65.3031 1075.53 64.3942 1075.53 63.2729C1075.53 62.1516 1074.22 61.2427 1072.61 61.2427C1071.01 61.2427 1069.7 62.1516 1069.7 63.2729C1069.7 64.3942 1071.01 65.3031 1072.61 65.3031Z" fill="#E0BD7F" fill-opacity="0.85"/>
</g>
<g style="mix-blend-mode:color-dodge">
<path d="M1104.76 114.923L1105.31 115.307L1049.23 154.409H901.995V153.865H1048.91L1104.76 114.923Z" fill="#E0BD7F" fill-opacity="0.85"/>
<path d="M902.133 156.167C901.557 156.167 900.994 156.048 900.515 155.825C900.036 155.602 899.663 155.285 899.443 154.914C899.222 154.543 899.165 154.134 899.277 153.741C899.389 153.347 899.667 152.985 900.074 152.701C900.481 152.417 901 152.224 901.565 152.145C902.13 152.067 902.715 152.107 903.247 152.261C903.78 152.415 904.234 152.675 904.554 153.009C904.874 153.343 905.045 153.735 905.045 154.137C905.045 154.675 904.738 155.192 904.192 155.572C903.646 155.953 902.905 156.167 902.133 156.167Z" fill="#E0BD7F" fill-opacity="0.85"/>
<path d="M1107.01 116.634C1107.55 116.249 1107.85 115.733 1107.85 115.195C1107.85 114.658 1107.55 114.142 1107.01 113.757C1106.46 113.375 1105.72 113.161 1104.95 113.161C1104.17 113.161 1103.43 113.375 1102.88 113.757C1102.33 114.138 1102.03 114.656 1102.03 115.195C1102.03 115.735 1102.33 116.252 1102.88 116.634C1103.43 117.009 1104.17 117.219 1104.95 117.219C1105.72 117.219 1106.46 117.009 1107.01 116.634Z" fill="#E0BD7F" fill-opacity="0.85"/>
</g>
<g style="mix-blend-mode:color-dodge">
<path d="M781.317 132.348H804.934L873.884 180.418H1087.86V180.961H873.563L804.613 132.891H781.638L754.581 151.771H680.289L658.414 167.006L657.864 166.622L679.968 151.227H754.26L781.317 132.348Z" fill="#E0BD7F" fill-opacity="0.85"/>
<path d="M660.317 168.189C660.046 168.378 659.725 168.528 659.37 168.63C659.016 168.732 658.637 168.785 658.254 168.785C657.87 168.785 657.491 168.732 657.137 168.63C656.783 168.528 656.461 168.378 656.19 168.189C655.919 168 655.704 167.776 655.557 167.529C655.411 167.282 655.335 167.017 655.335 166.75C655.335 166.483 655.411 166.218 655.557 165.971C655.704 165.725 655.919 165.5 656.19 165.311C656.737 164.93 657.48 164.715 658.254 164.715C659.028 164.715 659.77 164.93 660.317 165.311C660.865 165.693 661.172 166.21 661.172 166.75C661.172 167.29 660.865 167.807 660.317 168.189Z" fill="#E0BD7F" fill-opacity="0.85"/>
<path d="M1087.73 182.736C1088.31 182.739 1088.88 182.622 1089.36 182.399C1089.85 182.176 1090.23 181.857 1090.45 181.484C1090.68 181.11 1090.74 180.698 1090.63 180.3C1090.52 179.902 1090.24 179.536 1089.83 179.248C1089.42 178.961 1088.9 178.764 1088.33 178.684C1087.76 178.604 1087.17 178.643 1086.63 178.798C1086.09 178.952 1085.63 179.214 1085.31 179.551C1084.99 179.888 1084.81 180.284 1084.81 180.689C1084.81 180.957 1084.88 181.223 1085.03 181.471C1085.17 181.719 1085.39 181.945 1085.66 182.135C1085.93 182.326 1086.25 182.477 1086.61 182.58C1086.96 182.683 1087.34 182.736 1087.73 182.736Z" fill="#E0BD7F" fill-opacity="0.85"/>
</g>
<g style="mix-blend-mode:color-dodge">
<path d="M783.518 147.055H808.718L875.306 193.478H1099.19V194.022H874.985L808.397 147.598H783.839L764.647 160.978H685.953L665.981 174.902L665.431 174.519L685.632 160.451H764.326L783.518 147.055Z" fill="#E0BD7F" fill-opacity="0.85"/>
<path d="M667.861 176.086C667.308 176.444 666.577 176.638 665.822 176.628C665.067 176.617 664.347 176.403 663.814 176.03C663.282 175.656 662.978 175.153 662.968 174.627C662.957 174.101 663.24 173.592 663.757 173.208C664.024 173.01 664.346 172.851 664.704 172.741C665.061 172.631 665.447 172.572 665.838 172.568C666.229 172.564 666.616 172.615 666.978 172.718C667.34 172.821 667.669 172.973 667.944 173.167C668.22 173.36 668.437 173.59 668.582 173.842C668.728 174.095 668.799 174.366 668.791 174.638C668.783 174.911 668.697 175.179 668.537 175.428C668.377 175.677 668.148 175.9 667.861 176.086Z" fill="#E0BD7F" fill-opacity="0.85"/>
<path d="M1099.05 195.78C1099.63 195.78 1100.19 195.661 1100.67 195.438C1101.15 195.215 1101.52 194.898 1101.74 194.527C1101.96 194.156 1102.02 193.747 1101.91 193.354C1101.8 192.96 1101.52 192.598 1101.11 192.314C1100.7 192.03 1100.19 191.837 1099.62 191.758C1099.06 191.68 1098.47 191.72 1097.94 191.874C1097.41 192.028 1096.95 192.288 1096.63 192.622C1096.31 192.956 1096.14 193.348 1096.14 193.75C1096.14 194.016 1096.22 194.28 1096.36 194.527C1096.51 194.773 1096.72 194.997 1096.99 195.185C1097.26 195.374 1097.58 195.523 1097.94 195.625C1098.29 195.727 1098.67 195.78 1099.05 195.78Z" fill="#E0BD7F" fill-opacity="0.85"/>
</g>
<g style="mix-blend-mode:color-dodge">
<path d="M784.917 165.839L785.467 166.222L759.603 184.254H679.097V183.711H759.282L784.917 165.839Z" fill="#E0BD7F" fill-opacity="0.85"/>
<path d="M679.257 186.013C680.865 186.013 682.169 185.104 682.169 183.983C682.169 182.862 680.865 181.953 679.257 181.953C677.649 181.953 676.345 182.862 676.345 183.983C676.345 185.104 677.649 186.013 679.257 186.013Z" fill="#E0BD7F" fill-opacity="0.85"/>
<path d="M787.141 167.549C787.55 167.266 787.83 166.904 787.943 166.51C788.057 166.116 788.001 165.707 787.781 165.335C787.561 164.964 787.188 164.646 786.709 164.422C786.229 164.198 785.666 164.079 785.089 164.079C784.512 164.079 783.948 164.198 783.469 164.422C782.99 164.646 782.616 164.964 782.397 165.335C782.177 165.707 782.12 166.116 782.234 166.51C782.348 166.904 782.627 167.266 783.037 167.549C783.582 167.927 784.32 168.139 785.089 168.139C785.858 168.139 786.595 167.927 787.141 167.549Z" fill="#E0BD7F" fill-opacity="0.85"/>
</g>
<g style="mix-blend-mode:color-dodge">
<path d="M851.619 285.558H930.864L991.352 327.729L990.802 328.113L930.543 286.085H851.619V285.558Z" fill="#E0BD7F" fill-opacity="0.85"/>
<path d="M851.779 287.86C851.204 287.86 850.641 287.741 850.162 287.518C849.683 287.295 849.31 286.977 849.089 286.606C848.869 286.236 848.811 285.827 848.923 285.433C849.036 285.04 849.313 284.678 849.72 284.394C850.128 284.11 850.646 283.917 851.211 283.838C851.776 283.76 852.362 283.8 852.894 283.954C853.426 284.108 853.881 284.368 854.201 284.702C854.521 285.035 854.692 285.428 854.692 285.83C854.692 286.368 854.385 286.884 853.839 287.265C853.293 287.646 852.552 287.86 851.779 287.86Z" fill="#E0BD7F" fill-opacity="0.85"/>
<path d="M988.921 329.28C989.328 329.565 989.847 329.76 990.412 329.839C990.978 329.918 991.564 329.879 992.097 329.726C992.631 329.573 993.087 329.312 993.407 328.978C993.728 328.644 993.9 328.251 993.9 327.849C993.9 327.447 993.728 327.054 993.407 326.719C993.087 326.385 992.631 326.125 992.097 325.972C991.564 325.819 990.978 325.779 990.412 325.859C989.847 325.938 989.328 326.133 988.921 326.418C988.38 326.798 988.075 327.313 988.075 327.849C988.075 328.385 988.38 328.899 988.921 329.28Z" fill="#E0BD7F" fill-opacity="0.85"/>
</g>
<g style="mix-blend-mode:color-dodge">
<path d="M957.806 285.014L996.672 312.11H1103.91V312.654H996.351L957.256 285.398L957.806 285.014Z" fill="#E0BD7F" fill-opacity="0.85"/>
<path d="M955.582 286.725C955.31 286.536 955.094 286.312 954.947 286.065C954.8 285.818 954.724 285.553 954.724 285.286C954.724 285.019 954.8 284.754 954.947 284.507C955.094 284.26 955.31 284.036 955.582 283.847C955.853 283.658 956.175 283.509 956.529 283.406C956.883 283.304 957.262 283.251 957.645 283.251C958.029 283.251 958.408 283.304 958.762 283.406C959.116 283.509 959.438 283.658 959.709 283.847C959.98 284.036 960.195 284.261 960.342 284.507C960.488 284.754 960.564 285.019 960.564 285.286C960.564 285.553 960.488 285.818 960.342 286.065C960.195 286.312 959.98 286.536 959.709 286.725C959.439 286.914 959.117 287.065 958.763 287.167C958.409 287.27 958.029 287.323 957.645 287.323C957.262 287.323 956.882 287.27 956.528 287.167C956.174 287.065 955.852 286.914 955.582 286.725Z" fill="#E0BD7F" fill-opacity="0.85"/>
<path d="M1103.78 314.413C1105.38 314.413 1106.69 313.504 1106.69 312.382C1106.69 311.261 1105.38 310.352 1103.78 310.352C1102.17 310.352 1100.86 311.261 1100.86 312.382C1100.86 313.504 1102.17 314.413 1103.78 314.413Z" fill="#E0BD7F" fill-opacity="0.85"/>
</g>
</g>
</svg>
