<svg xmlns="http://www.w3.org/2000/svg" xmlns:xlink="http://www.w3.org/1999/xlink" viewBox="0 0 316.89 328.19"><defs><style>.cls-1{mask:url(#mask);filter:url(#luminosity-noclip-3);}.cls-146,.cls-2,.cls-25,.cls-29,.cls-32,.cls-4,.cls-54{mix-blend-mode:multiply;}.cls-2{fill:url(#linear-gradient);}.cls-3{mask:url(#mask-2);filter:url(#luminosity-noclip-4);}.cls-4{fill:url(#linear-gradient-2);}.cls-5{isolation:isolate;}.cls-113,.cls-115,.cls-144,.cls-26,.cls-31,.cls-49,.cls-57,.cls-6,.cls-8,.cls-95{mix-blend-mode:screen;}.cls-118,.cls-32,.cls-6{opacity:0.3;}.cls-58,.cls-7{fill:#ffa80f;}.cls-116,.cls-117,.cls-118,.cls-119,.cls-120,.cls-121,.cls-46,.cls-48,.cls-7,.cls-73,.cls-87,.cls-9,.cls-99{mix-blend-mode:color-dodge;}.cls-8{opacity:0.4;}.cls-9{fill:#f9ae41;}.cls-10,.cls-11{opacity:0.2;}.cls-10{fill:url(#linear-gradient-3);}.cls-12,.cls-33,.cls-60,.cls-74{opacity:0;}.cls-13{opacity:0.09;}.cls-14{opacity:0.18;}.cls-15{opacity:0.27;}.cls-16{opacity:0.36;}.cls-17{opacity:0.45;}.cls-18{opacity:0.55;}.cls-19{opacity:0.64;}.cls-20{opacity:0.73;}.cls-21{opacity:0.82;}.cls-22{opacity:0.91;}.cls-23{fill:#875204;}.cls-24{fill:#f9c375;}.cls-25,.cls-42,.cls-69,.cls-83{opacity:0.82;}.cls-25{fill:url(#linear-gradient-4);}.cls-116,.cls-26,.cls-31,.cls-49{opacity:0.6;}.cls-26{fill:url(#radial-gradient);}.cls-116,.cls-117,.cls-118,.cls-119,.cls-120,.cls-121,.cls-27{fill:#f79903;}.cls-28{fill:#e8be80;}.cls-29{fill:#bcbec0;}.cls-30{fill:#7f510d;}.cls-31{fill:#3a2303;}.cls-33{fill:url(#linear-gradient-5);}.cls-34,.cls-61,.cls-75{opacity:0.09;}.cls-34{fill:url(#linear-gradient-6);}.cls-35,.cls-62,.cls-76{opacity:0.18;}.cls-35{fill:url(#linear-gradient-7);}.cls-36,.cls-63,.cls-77{opacity:0.27;}.cls-36{fill:url(#linear-gradient-8);}.cls-37,.cls-64,.cls-78{opacity:0.36;}.cls-37{fill:url(#linear-gradient-9);}.cls-38,.cls-65,.cls-79{opacity:0.45;}.cls-38{fill:url(#linear-gradient-10);}.cls-39,.cls-66,.cls-80{opacity:0.55;}.cls-39{fill:url(#linear-gradient-11);}.cls-40,.cls-67,.cls-81{opacity:0.64;}.cls-40{fill:url(#linear-gradient-12);}.cls-41,.cls-68,.cls-82{opacity:0.73;}.cls-41{fill:url(#linear-gradient-13);}.cls-42{fill:url(#linear-gradient-14);}.cls-43,.cls-70,.cls-84{opacity:0.91;}.cls-43{fill:url(#linear-gradient-15);}.cls-44{fill:url(#linear-gradient-16);}.cls-45{fill:#d89a41;}.cls-117,.cls-45{opacity:0.8;}.cls-46{fill:url(#radial-gradient-2);}.cls-47{fill:#995a07;}.cls-48{fill:#e58800;}.cls-49{fill:url(#radial-gradient-3);}.cls-50{fill:#4c2f02;}.cls-51{fill:#a56600;}.cls-52{fill:#e28d05;}.cls-53{fill:#ff9929;}.cls-54{fill:#99691c;}.cls-55{fill:#fff;}.cls-56{fill:#7a500c;}.cls-57{opacity:0.7;}.cls-59{fill:#c67a00;}.cls-60{fill:url(#linear-gradient-17);}.cls-61{fill:url(#linear-gradient-18);}.cls-62{fill:url(#linear-gradient-19);}.cls-63{fill:url(#linear-gradient-20);}.cls-64{fill:url(#linear-gradient-21);}.cls-65{fill:url(#linear-gradient-22);}.cls-66{fill:url(#linear-gradient-23);}.cls-67{fill:url(#linear-gradient-24);}.cls-68{fill:url(#linear-gradient-25);}.cls-69{fill:url(#linear-gradient-26);}.cls-70{fill:url(#linear-gradient-27);}.cls-71{fill:url(#linear-gradient-28);}.cls-72{fill:url(#New_Gradient_Swatch_copy_7);}.cls-73{fill:url(#radial-gradient-4);}.cls-74{fill:url(#linear-gradient-29);}.cls-75{fill:url(#linear-gradient-30);}.cls-76{fill:url(#linear-gradient-31);}.cls-77{fill:url(#linear-gradient-32);}.cls-78{fill:url(#linear-gradient-33);}.cls-79{fill:url(#linear-gradient-34);}.cls-80{fill:url(#linear-gradient-35);}.cls-81{fill:url(#linear-gradient-36);}.cls-82{fill:url(#linear-gradient-37);}.cls-83{fill:url(#linear-gradient-38);}.cls-84{fill:url(#linear-gradient-39);}.cls-85{fill:url(#linear-gradient-40);}.cls-86{fill:#bf7602;}.cls-87{fill:url(#radial-gradient-5);}.cls-88{fill:url(#New_Gradient_Swatch_copy_8);}.cls-89{fill:url(#New_Gradient_Swatch_copy_8-2);}.cls-90{fill:url(#New_Gradient_Swatch_copy_8-3);}.cls-91{fill:url(#New_Gradient_Swatch_copy_8-4);}.cls-92{fill:url(#New_Gradient_Swatch_copy_8-5);}.cls-93{fill:url(#New_Gradient_Swatch_copy_8-6);}.cls-94{fill:url(#New_Gradient_Swatch_copy_8-7);}.cls-115,.cls-120,.cls-95{opacity:0.5;}.cls-95{fill:url(#linear-gradient-41);}.cls-96{fill:#f29500;}.cls-97{mask:url(#mask-3);}.cls-98{fill:url(#linear-gradient-42);}.cls-100{fill:url(#linear-gradient-43);}.cls-101{fill:url(#linear-gradient-44);}.cls-102{fill:url(#linear-gradient-45);}.cls-103{mask:url(#mask-4);}.cls-104{fill:url(#linear-gradient-46);}.cls-105{fill:url(#linear-gradient-47);}.cls-106{fill:url(#linear-gradient-48);}.cls-107{fill:url(#linear-gradient-49);}.cls-108{fill:url(#New_Gradient_Swatch_copy_9);}.cls-109{fill:#ebdef3;}.cls-110{fill:#e08b03;}.cls-111{fill:#ce7f00;}.cls-112{fill:#fffaf3;}.cls-114{fill:#4f3106;}.cls-119{opacity:0.15;}.cls-122{fill:url(#New_Gradient_Swatch_copy_7-2);}.cls-123{fill:url(#New_Gradient_Swatch_copy_7-3);}.cls-124{fill:url(#New_Gradient_Swatch_copy_9-2);}.cls-125{fill:url(#New_Gradient_Swatch_copy_9-3);}.cls-126{fill:url(#New_Gradient_Swatch_copy_7-4);}.cls-127{fill:url(#New_Gradient_Swatch_copy_9-4);}.cls-128{fill:url(#New_Gradient_Swatch_copy_7-5);}.cls-129{fill:url(#New_Gradient_Swatch_copy_7-6);}.cls-130{fill:url(#New_Gradient_Swatch_copy_9-5);}.cls-131{fill:url(#New_Gradient_Swatch_copy_9-6);}.cls-132{fill:url(#New_Gradient_Swatch_copy_9-7);}.cls-133{fill:url(#New_Gradient_Swatch_copy_7-7);}.cls-134{fill:url(#New_Gradient_Swatch_copy_7-8);}.cls-135{fill:url(#New_Gradient_Swatch_copy_9-8);}.cls-136{fill:url(#New_Gradient_Swatch_copy_7-9);}.cls-137{fill:url(#New_Gradient_Swatch_copy_7-10);}.cls-138{fill:url(#New_Gradient_Swatch_copy_7-11);}.cls-139{fill:url(#New_Gradient_Swatch_copy_9-9);}.cls-140{fill:url(#New_Gradient_Swatch_copy_9-10);}.cls-141{fill:url(#New_Gradient_Swatch_copy_7-12);}.cls-142{fill:url(#New_Gradient_Swatch_copy_7-13);}.cls-143{fill:url(#New_Gradient_Swatch_copy_9-11);}.cls-144{fill:#25054d;}.cls-145{fill:url(#New_Gradient_Swatch_copy_36);}.cls-146{fill:#8e5700;}.cls-147{filter:url(#luminosity-noclip-2);}.cls-148{filter:url(#luminosity-noclip);}</style><filter id="luminosity-noclip" x="254.73" y="-8335.25" width="1.71" height="32766" filterUnits="userSpaceOnUse" color-interpolation-filters="sRGB"><feFlood flood-color="#fff" result="bg"/><feBlend in="SourceGraphic" in2="bg"/></filter><mask id="mask" x="254.73" y="-8335.25" width="1.71" height="32766" maskUnits="userSpaceOnUse"><g class="cls-148"/></mask><linearGradient id="linear-gradient" x1="6847.67" y1="157.56" x2="6831.29" y2="126.64" gradientTransform="matrix(-1, 0, 0, 1, 7096.53, 0)" gradientUnits="userSpaceOnUse"><stop offset="0"/><stop offset="1" stop-color="#fff"/></linearGradient><filter id="luminosity-noclip-2" x="254.77" y="-8335.25" width="1.62" height="32766" filterUnits="userSpaceOnUse" color-interpolation-filters="sRGB"><feFlood flood-color="#fff" result="bg"/><feBlend in="SourceGraphic" in2="bg"/></filter><mask id="mask-2" x="254.77" y="-8335.25" width="1.62" height="32766" maskUnits="userSpaceOnUse"><g class="cls-147"/></mask><linearGradient id="linear-gradient-2" x1="-3772.21" y1="2764.54" x2="-3778.76" y2="2752.18" gradientTransform="matrix(0.85, 0.01, -0.01, -0.84, 3504.76, 2480.8)" xlink:href="#linear-gradient"/><linearGradient id="linear-gradient-3" x1="7517.94" y1="225.53" x2="7635.58" y2="225.53" gradientTransform="matrix(-1, 0, 0, 1, 7675.68, 0)" gradientUnits="userSpaceOnUse"><stop offset="0.06" stop-color="#200041"/><stop offset="0.26" stop-color="#210243"/><stop offset="0.36" stop-color="#25084b"/><stop offset="0.43" stop-color="#2c1358"/><stop offset="0.47" stop-color="#311b61"/><stop offset="0.48" stop-color="#351f65"/><stop offset="0.5" stop-color="#422c73"/><stop offset="0.51" stop-color="#584188"/><stop offset="0.52" stop-color="#765fa7"/><stop offset="0.53" stop-color="#8770b8"/><stop offset="0.54" stop-color="#7e67ae"/><stop offset="0.56" stop-color="#5c468d"/><stop offset="0.59" stop-color="#442e75"/><stop offset="0.61" stop-color="#362066"/><stop offset="0.63" stop-color="#311b61"/><stop offset="0.67" stop-color="#2a1155"/><stop offset="0.75" stop-color="#230446"/><stop offset="0.81" stop-color="#200041"/><stop offset="1" stop-color="#200041"/></linearGradient><linearGradient id="linear-gradient-4" x1="7577.7" y1="201.21" x2="7588.17" y2="183.65" gradientTransform="matrix(-1, 0, 0, 1, 7675.68, 0)" gradientUnits="userSpaceOnUse"><stop offset="0" stop-color="#fff"/><stop offset="1"/></linearGradient><radialGradient id="radial-gradient" cx="7578.05" cy="225.06" r="41.85" gradientTransform="matrix(-1, 0, 0, 1, 7675.68, 0)" gradientUnits="userSpaceOnUse"><stop offset="0" stop-color="#af8afc"/><stop offset="1" stop-color="#10054d"/></radialGradient><linearGradient id="linear-gradient-5" x1="7728.21" y1="27.29" x2="7794.39" y2="153.5" gradientTransform="matrix(-1, 0, 0, 1, 7937.99, 0)" gradientUnits="userSpaceOnUse"><stop offset="0.01" stop-color="#9f19ab"/><stop offset="0.43" stop-color="#5f27bd"/><stop offset="0.9" stop-color="#3d065f"/></linearGradient><linearGradient id="linear-gradient-6" x1="7727.71" y1="27.65" x2="7793.72" y2="153.51" xlink:href="#linear-gradient-5"/><linearGradient id="linear-gradient-7" x1="7727.21" y1="28" x2="7793.04" y2="153.53" xlink:href="#linear-gradient-5"/><linearGradient id="linear-gradient-8" x1="7726.72" y1="28.36" x2="7792.37" y2="153.55" xlink:href="#linear-gradient-5"/><linearGradient id="linear-gradient-9" x1="7726.22" y1="28.72" x2="7791.7" y2="153.56" xlink:href="#linear-gradient-5"/><linearGradient id="linear-gradient-10" x1="7725.73" y1="29.07" x2="7791.03" y2="153.58" xlink:href="#linear-gradient-5"/><linearGradient id="linear-gradient-11" x1="7725.24" y1="29.42" x2="7790.36" y2="153.59" xlink:href="#linear-gradient-5"/><linearGradient id="linear-gradient-12" x1="7724.75" y1="29.78" x2="7789.69" y2="153.6" xlink:href="#linear-gradient-5"/><linearGradient id="linear-gradient-13" x1="7724.27" y1="30.13" x2="7789.03" y2="153.62" xlink:href="#linear-gradient-5"/><linearGradient id="linear-gradient-14" x1="7723.78" y1="30.48" x2="7788.37" y2="153.63" xlink:href="#linear-gradient-5"/><linearGradient id="linear-gradient-15" x1="7723.3" y1="30.83" x2="7787.71" y2="153.64" xlink:href="#linear-gradient-5"/><linearGradient id="linear-gradient-16" x1="7722.82" y1="31.18" x2="7787.05" y2="153.65" xlink:href="#linear-gradient-5"/><radialGradient id="radial-gradient-2" cx="7773.72" cy="90.51" r="52.72" gradientTransform="matrix(-1, 0, 0, 1, 7937.99, 0)" gradientUnits="userSpaceOnUse"><stop offset="0" stop-color="#711f56"/><stop offset="0.16" stop-color="#6c1e52"/><stop offset="0.36" stop-color="#5c1946"/><stop offset="0.58" stop-color="#431233"/><stop offset="0.82" stop-color="#200918"/><stop offset="1"/></radialGradient><radialGradient id="radial-gradient-3" cx="271.36" cy="91.48" r="66.96" gradientTransform="matrix(1, 0, 0, 1, 0, 0)" xlink:href="#radial-gradient"/><linearGradient id="linear-gradient-17" x1="215.99" y1="163.96" x2="232.14" y2="194.74" gradientTransform="matrix(1, 0, 0, 1, 0, 0)" xlink:href="#linear-gradient-5"/><linearGradient id="linear-gradient-18" x1="215.97" y1="164.29" x2="231.88" y2="194.63" gradientTransform="matrix(1, 0, 0, 1, 0, 0)" xlink:href="#linear-gradient-5"/><linearGradient id="linear-gradient-19" x1="215.94" y1="164.63" x2="231.62" y2="194.53" gradientTransform="matrix(1, 0, 0, 1, 0, 0)" xlink:href="#linear-gradient-5"/><linearGradient id="linear-gradient-20" x1="215.91" y1="164.97" x2="231.36" y2="194.42" gradientTransform="matrix(1, 0, 0, 1, 0, 0)" xlink:href="#linear-gradient-5"/><linearGradient id="linear-gradient-21" x1="215.88" y1="165.31" x2="231.1" y2="194.31" gradientTransform="matrix(1, 0, 0, 1, 0, 0)" xlink:href="#linear-gradient-5"/><linearGradient id="linear-gradient-22" x1="215.86" y1="165.65" x2="230.84" y2="194.21" gradientTransform="matrix(1, 0, 0, 1, 0, 0)" xlink:href="#linear-gradient-5"/><linearGradient id="linear-gradient-23" x1="215.83" y1="165.98" x2="230.58" y2="194.1" gradientTransform="matrix(1, 0, 0, 1, 0, 0)" xlink:href="#linear-gradient-5"/><linearGradient id="linear-gradient-24" x1="215.81" y1="166.32" x2="230.32" y2="193.99" gradientTransform="matrix(1, 0, 0, 1, 0, 0)" xlink:href="#linear-gradient-5"/><linearGradient id="linear-gradient-25" x1="215.78" y1="166.66" x2="230.06" y2="193.89" gradientTransform="matrix(1, 0, 0, 1, 0, 0)" xlink:href="#linear-gradient-5"/><linearGradient id="linear-gradient-26" x1="215.76" y1="166.99" x2="229.81" y2="193.78" gradientTransform="matrix(1, 0, 0, 1, 0, 0)" xlink:href="#linear-gradient-5"/><linearGradient id="linear-gradient-27" x1="215.74" y1="167.33" x2="229.55" y2="193.67" gradientTransform="matrix(1, 0, 0, 1, 0, 0)" xlink:href="#linear-gradient-5"/><linearGradient id="linear-gradient-28" x1="215.71" y1="167.66" x2="229.3" y2="193.56" gradientTransform="matrix(1, 0, 0, 1, 0, 0)" xlink:href="#linear-gradient-5"/><linearGradient id="New_Gradient_Swatch_copy_7" x1="241.62" y1="201.8" x2="212.4" y2="175.91" gradientUnits="userSpaceOnUse"><stop offset="0.04" stop-color="#138bbd"/><stop offset="0.23" stop-color="#169ac7"/><stop offset="0.59" stop-color="#1fc3df"/><stop offset="1" stop-color="#2af6ff"/></linearGradient><radialGradient id="radial-gradient-4" cx="226.08" cy="184.66" r="22.57" gradientTransform="matrix(1, 0, 0, 1, 0, 0)" xlink:href="#radial-gradient-2"/><linearGradient id="linear-gradient-29" x1="240.44" y1="178.16" x2="256.58" y2="208.94" gradientTransform="matrix(1, 0, 0, 1, 0, 0)" xlink:href="#linear-gradient-5"/><linearGradient id="linear-gradient-30" x1="240.41" y1="178.5" x2="256.32" y2="208.83" gradientTransform="matrix(1, 0, 0, 1, 0, 0)" xlink:href="#linear-gradient-5"/><linearGradient id="linear-gradient-31" x1="240.38" y1="178.84" x2="256.06" y2="208.73" gradientTransform="matrix(1, 0, 0, 1, 0, 0)" xlink:href="#linear-gradient-5"/><linearGradient id="linear-gradient-32" x1="240.36" y1="179.17" x2="255.8" y2="208.62" gradientTransform="matrix(1, 0, 0, 1, 0, 0)" xlink:href="#linear-gradient-5"/><linearGradient id="linear-gradient-33" x1="240.33" y1="179.51" x2="255.54" y2="208.52" gradientTransform="matrix(1, 0, 0, 1, 0, 0)" xlink:href="#linear-gradient-5"/><linearGradient id="linear-gradient-34" x1="240.3" y1="179.85" x2="255.28" y2="208.41" gradientTransform="matrix(1, 0, 0, 1, 0, 0)" xlink:href="#linear-gradient-5"/><linearGradient id="linear-gradient-35" x1="240.28" y1="180.18" x2="255.02" y2="208.3" gradientTransform="matrix(1, 0, 0, 1, 0, 0)" xlink:href="#linear-gradient-5"/><linearGradient id="linear-gradient-36" x1="240.25" y1="180.52" x2="254.77" y2="208.2" gradientTransform="matrix(1, 0, 0, 1, 0, 0)" xlink:href="#linear-gradient-5"/><linearGradient id="linear-gradient-37" x1="240.23" y1="180.86" x2="254.51" y2="208.09" gradientTransform="matrix(1, 0, 0, 1, 0, 0)" xlink:href="#linear-gradient-5"/><linearGradient id="linear-gradient-38" x1="240.2" y1="181.19" x2="254.25" y2="207.98" gradientTransform="matrix(1, 0, 0, 1, 0, 0)" xlink:href="#linear-gradient-5"/><linearGradient id="linear-gradient-39" x1="240.18" y1="181.53" x2="254" y2="207.87" gradientTransform="matrix(1, 0, 0, 1, 0, 0)" xlink:href="#linear-gradient-5"/><linearGradient id="linear-gradient-40" x1="240.16" y1="181.86" x2="253.74" y2="207.76" gradientTransform="matrix(1, 0, 0, 1, 0, 0)" xlink:href="#linear-gradient-5"/><radialGradient id="radial-gradient-5" cx="250.52" cy="198.86" r="22.57" gradientTransform="matrix(1, 0, 0, 1, 0, 0)" xlink:href="#radial-gradient-2"/><linearGradient id="New_Gradient_Swatch_copy_8" x1="249.21" y1="105.95" x2="227.33" y2="74.96" gradientUnits="userSpaceOnUse"><stop offset="0.04" stop-color="#ffa98c"/><stop offset="0.32" stop-color="#ffb892"/><stop offset="0.86" stop-color="#fee1a3"/><stop offset="1" stop-color="#feeca8"/></linearGradient><linearGradient id="New_Gradient_Swatch_copy_8-2" x1="251.29" y1="104.48" x2="229.4" y2="73.49" xlink:href="#New_Gradient_Swatch_copy_8"/><linearGradient id="New_Gradient_Swatch_copy_8-3" x1="253.37" y1="103.01" x2="231.48" y2="72.02" xlink:href="#New_Gradient_Swatch_copy_8"/><linearGradient id="New_Gradient_Swatch_copy_8-4" x1="253.57" y1="102.86" x2="231.69" y2="71.87" xlink:href="#New_Gradient_Swatch_copy_8"/><linearGradient id="New_Gradient_Swatch_copy_8-5" x1="248.99" y1="106.1" x2="227.11" y2="75.11" xlink:href="#New_Gradient_Swatch_copy_8"/><linearGradient id="New_Gradient_Swatch_copy_8-6" x1="248.34" y1="106.56" x2="226.46" y2="75.57" xlink:href="#New_Gradient_Swatch_copy_8"/><linearGradient id="New_Gradient_Swatch_copy_8-7" x1="253.94" y1="102.61" x2="232.06" y2="71.61" xlink:href="#New_Gradient_Swatch_copy_8"/><linearGradient id="linear-gradient-41" x1="238.14" y1="140.96" x2="251.29" y2="118.18" gradientUnits="userSpaceOnUse"><stop offset="0"/><stop offset="1" stop-color="#be3bff"/></linearGradient><filter id="luminosity-noclip-3" x="254.73" y="128.14" width="1.71" height="33.36" filterUnits="userSpaceOnUse" color-interpolation-filters="sRGB"><feFlood flood-color="#fff" result="bg"/><feBlend in="SourceGraphic" in2="bg"/></filter><mask id="mask-3" x="254.73" y="128.14" width="1.71" height="33.36" maskUnits="userSpaceOnUse"><g class="cls-1"><polygon class="cls-2" points="254.73 160.25 256.44 161.5 256.44 128.82 255.42 128.14 254.73 128.22 254.73 160.25"/></g></mask><linearGradient id="linear-gradient-42" x1="6847.67" y1="157.56" x2="6831.29" y2="126.64" gradientTransform="matrix(-1, 0, 0, 1, 7096.53, 0)" gradientUnits="userSpaceOnUse"><stop offset="0" stop-color="#5513ab"/><stop offset="1" stop-color="#be3bff"/></linearGradient><linearGradient id="linear-gradient-43" x1="7157.62" y1="13282.38" x2="7105.47" y2="13311.26" gradientTransform="matrix(-0.59, -1.01, -1.01, 0.59, 17904.17, -519.21)" gradientUnits="userSpaceOnUse"><stop offset="0" stop-color="#271273"/><stop offset="0.14" stop-color="#1f0e5c"/><stop offset="0.4" stop-color="#120834"/><stop offset="0.64" stop-color="#080418"/><stop offset="0.85" stop-color="#020106"/><stop offset="1"/></linearGradient><linearGradient id="linear-gradient-44" x1="7668.87" y1="13812.07" x2="7632.64" y2="13832.66" gradientTransform="matrix(-0.51, -0.86, -0.86, 0.51, 16048.11, -266.1)" gradientUnits="userSpaceOnUse"><stop offset="0" stop-color="#82288f"/><stop offset="0.31" stop-color="#511959"/><stop offset="0.62" stop-color="#250c29"/><stop offset="0.86" stop-color="#0a030b"/><stop offset="1"/></linearGradient><linearGradient id="linear-gradient-45" x1="7655.17" y1="13819.71" x2="7632.77" y2="13832.77" gradientTransform="matrix(-0.51, -0.86, -0.86, 0.51, 16048.11, -266.1)" gradientUnits="userSpaceOnUse"><stop offset="0" stop-color="#dc3daa"/><stop offset="0.25" stop-color="#a32d7e"/><stop offset="0.77" stop-color="#2f0d24"/><stop offset="1"/></linearGradient><filter id="luminosity-noclip-4" x="254.77" y="117.95" width="1.62" height="10.87" filterUnits="userSpaceOnUse" color-interpolation-filters="sRGB"><feFlood flood-color="#fff" result="bg"/><feBlend in="SourceGraphic" in2="bg"/></filter><mask id="mask-4" x="254.77" y="117.95" width="1.62" height="10.87" maskUnits="userSpaceOnUse"><g class="cls-3"><polygon class="cls-4" points="256.23 118.37 254.77 117.95 254.93 128.58 255.81 128.81 256.39 128.79 256.23 118.37"/></g></mask><linearGradient id="linear-gradient-46" x1="-3772.21" y1="2764.54" x2="-3778.76" y2="2752.18" gradientTransform="matrix(0.85, 0.01, -0.01, -0.84, 3504.76, 2480.8)" xlink:href="#linear-gradient-42"/><linearGradient id="linear-gradient-47" x1="580.39" y1="6627.66" x2="563.96" y2="6636.75" gradientTransform="matrix(0.51, 0.86, 0.86, -0.51, -5752.94, 2993.97)" xlink:href="#linear-gradient-43"/><linearGradient id="linear-gradient-48" x1="575.34" y1="6630.33" x2="563.94" y2="6636.81" gradientTransform="matrix(0.51, 0.86, 0.86, -0.51, -5752.94, 2993.97)" xlink:href="#linear-gradient-44"/><linearGradient id="linear-gradient-49" x1="571.05" y1="6632.76" x2="564" y2="6636.87" gradientTransform="matrix(0.51, 0.86, 0.86, -0.51, -5752.94, 2993.97)" xlink:href="#linear-gradient-45"/><linearGradient id="New_Gradient_Swatch_copy_9" x1="6836.02" y1="121.74" x2="6842.43" y2="129.46" gradientTransform="matrix(-1, 0, 0, 1, 7096.53, 0)" gradientUnits="userSpaceOnUse"><stop offset="0.04" stop-color="#9f19ab"/><stop offset="0.24" stop-color="#ae25b1"/><stop offset="0.65" stop-color="#d744bf"/><stop offset="1" stop-color="#ff63ce"/></linearGradient><linearGradient id="New_Gradient_Swatch_copy_7-2" x1="15.71" y1="158.29" x2="128.76" y2="3.67" xlink:href="#New_Gradient_Swatch_copy_7"/><linearGradient id="New_Gradient_Swatch_copy_7-3" x1="16.3" y1="158.73" x2="129.31" y2="4.17" xlink:href="#New_Gradient_Swatch_copy_7"/><linearGradient id="New_Gradient_Swatch_copy_9-2" x1="-546.36" y1="-1609.38" x2="-441.7" y2="-1740.3" gradientTransform="matrix(0.87, -0.5, 0, 1.15, 494.27, 1772.85)" xlink:href="#New_Gradient_Swatch_copy_9"/><linearGradient id="New_Gradient_Swatch_copy_9-3" x1="-543.14" y1="-1592.59" x2="-415.88" y2="-1751.78" gradientTransform="matrix(0.87, -0.5, 0, 1.15, 494.27, 1772.85)" xlink:href="#New_Gradient_Swatch_copy_9"/><linearGradient id="New_Gradient_Swatch_copy_7-4" x1="25.72" y1="194.2" x2="185.41" y2="-24.2" xlink:href="#New_Gradient_Swatch_copy_7"/><linearGradient id="New_Gradient_Swatch_copy_9-4" x1="-535.57" y1="-1573.89" x2="-408.32" y2="-1733.08" gradientTransform="matrix(0.87, -0.5, 0, 1.15, 494.27, 1772.85)" xlink:href="#New_Gradient_Swatch_copy_9"/><linearGradient id="New_Gradient_Swatch_copy_7-5" x1="36.19" y1="187.08" x2="149.25" y2="32.46" xlink:href="#New_Gradient_Swatch_copy_7"/><linearGradient id="New_Gradient_Swatch_copy_7-6" x1="33.56" y1="182.77" x2="146.61" y2="28.14" xlink:href="#New_Gradient_Swatch_copy_7"/><linearGradient id="New_Gradient_Swatch_copy_9-5" x1="-542.14" y1="-1545.53" x2="-375.9" y2="-1753.48" gradientTransform="matrix(0.87, -0.5, 0, 1.15, 494.27, 1772.85)" xlink:href="#New_Gradient_Swatch_copy_9"/><linearGradient id="New_Gradient_Swatch_copy_9-6" x1="-533.98" y1="-1530.49" x2="-358.16" y2="-1750.44" gradientTransform="matrix(0.87, -0.5, 0, 1.15, 494.27, 1772.85)" xlink:href="#New_Gradient_Swatch_copy_9"/><linearGradient id="New_Gradient_Swatch_copy_9-7" x1="-513.3" y1="-1536.71" x2="-374.26" y2="-1710.64" gradientTransform="matrix(0.87, -0.5, 0, 1.15, 494.27, 1772.85)" xlink:href="#New_Gradient_Swatch_copy_9"/><linearGradient id="New_Gradient_Swatch_copy_7-7" x1="47.84" y1="210.92" x2="164.8" y2="50.96" xlink:href="#New_Gradient_Swatch_copy_7"/><linearGradient id="New_Gradient_Swatch_copy_7-8" x1="-516.5" y1="-1537.18" x2="-368.54" y2="-1722.28" gradientTransform="matrix(0.87, -0.5, 0, 1.15, 494.27, 1772.85)" xlink:href="#New_Gradient_Swatch_copy_7"/><linearGradient id="New_Gradient_Swatch_copy_9-8" x1="-507.35" y1="-1546.44" x2="-380.13" y2="-1705.59" gradientTransform="matrix(0.87, -0.5, 0, 1.15, 494.27, 1772.85)" xlink:href="#New_Gradient_Swatch_copy_9"/><linearGradient id="New_Gradient_Swatch_copy_7-9" x1="32.21" y1="214.07" x2="163.66" y2="34.28" xlink:href="#New_Gradient_Swatch_copy_7"/><linearGradient id="New_Gradient_Swatch_copy_7-10" x1="16.95" y1="230.65" x2="165.12" y2="27.98" xlink:href="#New_Gradient_Swatch_copy_7"/><linearGradient id="New_Gradient_Swatch_copy_7-11" x1="30.9" y1="204.8" x2="162.83" y2="24.36" xlink:href="#New_Gradient_Swatch_copy_7"/><linearGradient id="New_Gradient_Swatch_copy_9-9" x1="-499.78" y1="-1556.67" x2="-372.53" y2="-1715.86" gradientTransform="matrix(0.87, -0.5, 0, 1.15, 494.27, 1772.85)" xlink:href="#New_Gradient_Swatch_copy_9"/><linearGradient id="New_Gradient_Swatch_copy_9-10" x1="-491.9" y1="-1551.34" x2="-364.65" y2="-1710.53" gradientTransform="matrix(0.87, -0.5, 0, 1.15, 494.27, 1772.85)" xlink:href="#New_Gradient_Swatch_copy_9"/><linearGradient id="New_Gradient_Swatch_copy_7-12" x1="54.76" y1="182.66" x2="167.81" y2="28.04" xlink:href="#New_Gradient_Swatch_copy_7"/><linearGradient id="New_Gradient_Swatch_copy_7-13" x1="64.09" y1="182.77" x2="177.12" y2="28.17" xlink:href="#New_Gradient_Swatch_copy_7"/><linearGradient id="New_Gradient_Swatch_copy_9-11" x1="-471.2" y1="-1544.2" x2="-343.95" y2="-1703.4" gradientTransform="matrix(0.87, -0.5, 0, 1.15, 494.27, 1772.85)" xlink:href="#New_Gradient_Swatch_copy_9"/><linearGradient id="New_Gradient_Swatch_copy_36" x1="273.29" y1="132.96" x2="276.54" y2="132.96" gradientUnits="userSpaceOnUse"><stop offset="0.1" stop-color="#45108a"/><stop offset="1" stop-color="#7c1dc9"/></linearGradient></defs><g class="cls-5"><g id="Capa_2" data-name="Capa 2"><g id="Layer_1" data-name="Layer 1"><g class="cls-6"><polygon class="cls-7" points="73.41 315.1 71.03 313.73 75.77 310.99 78.16 312.37 73.41 315.1"/><polygon class="cls-7" points="96.09 328.19 93.7 326.82 96.47 325.22 98.86 326.6 96.09 328.19"/><polygon class="cls-7" points="77.19 317.29 74.81 315.91 83.5 310.89 85.89 312.26 77.19 317.29"/><polygon class="cls-7" points="80.97 319.47 78.59 318.09 91.24 310.79 93.62 312.16 80.97 319.47"/><polygon class="cls-7" points="84.75 321.65 82.36 320.27 88.29 316.85 90.68 318.23 84.75 321.65"/><polygon class="cls-7" points="88.53 323.83 86.14 322.45 96.49 316.48 98.87 317.86 88.53 323.83"/><polygon class="cls-7" points="92.31 326.01 89.92 324.63 97.7 320.15 100.08 321.52 92.31 326.01"/></g><g class="cls-6"><polygon class="cls-7" points="228.17 296.46 225.79 295.08 230.53 292.34 232.92 293.72 228.17 296.46"/><polygon class="cls-7" points="250.85 309.55 248.46 308.17 251.23 306.58 253.61 307.95 250.85 309.55"/><polygon class="cls-7" points="231.95 298.64 229.56 297.26 238.26 292.24 240.65 293.62 231.95 298.64"/><polygon class="cls-7" points="235.73 300.82 233.34 299.45 245.99 292.14 248.38 293.52 235.73 300.82"/><polygon class="cls-7" points="239.51 303.01 237.12 301.63 243.05 298.2 245.44 299.58 239.51 303.01"/><polygon class="cls-7" points="243.29 305.19 240.9 303.81 251.25 297.84 253.63 299.22 243.29 305.19"/><polygon class="cls-7" points="247.07 307.37 244.68 305.99 252.46 301.5 254.84 302.88 247.07 307.37"/></g><g class="cls-6"><polygon class="cls-7" points="290.22 225.38 287.83 224 292.57 221.26 294.96 222.64 290.22 225.38"/><polygon class="cls-7" points="312.89 238.47 310.5 237.09 313.27 235.5 315.66 236.88 312.89 238.47"/><polygon class="cls-7" points="294 227.56 291.61 226.19 300.31 221.16 302.69 222.54 294 227.56"/><polygon class="cls-7" points="297.77 229.75 295.39 228.37 308.04 221.06 310.42 222.44 297.77 229.75"/><polygon class="cls-7" points="301.55 231.93 299.17 230.55 305.1 227.13 307.48 228.5 301.55 231.93"/><polygon class="cls-7" points="305.33 234.11 302.94 232.73 313.29 226.76 315.68 228.14 305.33 234.11"/><polygon class="cls-7" points="309.11 236.29 306.72 234.91 314.5 230.43 316.89 231.8 309.11 236.29"/></g><g class="cls-8"><polygon class="cls-9" points="293.36 267 272.79 254.88 218.8 260.36 232.33 216.35 188.94 206.3 188.87 206.25 158.6 187.3 102.86 193.17 112.71 163.08 65.44 170.79 65.28 169.8 114.17 161.83 104.29 192.01 158.84 186.27 189.33 205.36 233.6 215.62 220.2 259.22 273.01 253.85 273.15 253.94 293.87 266.14 293.36 267"/><path class="cls-9" d="M235.36,217.46a5.45,5.45,0,0,1-4.93,0c-1.36-.79-1.37-2.06,0-2.85a5.43,5.43,0,0,1,4.92,0C236.71,215.4,236.72,216.67,235.36,217.46Z"/><path class="cls-9" d="M191.76,207.17a5.46,5.46,0,0,1-4.92,0c-1.37-.79-1.38-2.06,0-2.85a5.45,5.45,0,0,1,4.93,0C193.11,205.11,193.12,206.38,191.76,207.17Z"/><path class="cls-9" d="M161.14,188.18a5.45,5.45,0,0,1-4.93,0c-1.37-.79-1.37-2.06,0-2.85a5.45,5.45,0,0,1,4.93,0C162.48,186.12,162.49,187.39,161.14,188.18Z"/><path class="cls-9" d="M222.36,261.17a5.43,5.43,0,0,1-4.92,0c-1.37-.79-1.38-2.06,0-2.85a5.49,5.49,0,0,1,4.93,0C223.71,259.11,223.72,260.39,222.36,261.17Z"/><path class="cls-9" d="M275.32,255.86a5.45,5.45,0,0,1-4.93,0c-1.36-.79-1.37-2.06,0-2.85a5.45,5.45,0,0,1,4.93,0C276.67,253.8,276.68,255.07,275.32,255.86Z"/><path class="cls-9" d="M296.26,267.92a5.49,5.49,0,0,1-4.93,0c-1.36-.79-1.37-2.06,0-2.85a5.45,5.45,0,0,1,4.93,0C297.61,265.86,297.62,267.13,296.26,267.92Z"/><path class="cls-9" d="M106.24,193.94a5.42,5.42,0,0,1-4.93,0c-1.36-.78-1.37-2.06,0-2.84a5.43,5.43,0,0,1,4.92,0C107.59,191.89,107.59,193.16,106.24,193.94Z"/><path class="cls-9" d="M116,163.67a5.46,5.46,0,0,1-4.92,0c-1.37-.79-1.38-2.06,0-2.85a5.45,5.45,0,0,1,4.93,0C117.36,161.61,117.37,162.88,116,163.67Z"/><path class="cls-9" d="M67.5,171.53a5.4,5.4,0,0,1-4.92,0c-1.37-.78-1.38-2.06,0-2.84a5.45,5.45,0,0,1,4.93,0C68.85,169.48,68.86,170.75,67.5,171.53Z"/><polygon class="cls-9" points="251.52 314.01 220.79 295.79 156.58 296.31 179.58 247.18 125.78 242.16 144.24 217.43 94.75 224.08 64.37 206.85 3.81 206.4 3.81 205.4 64.63 205.86 64.75 205.92 94.95 223.05 146.46 216.12 127.65 241.33 181.09 246.32 158.16 295.3 221.06 294.79 252.03 313.15 251.52 314.01"/><path class="cls-9" d="M182.72,248.22a5.4,5.4,0,0,1-4.92,0c-1.37-.78-1.38-2.06,0-2.84a5.45,5.45,0,0,1,4.93,0C184.07,246.17,184.08,247.44,182.72,248.22Z"/><path class="cls-9" d="M129.35,243.08a5.42,5.42,0,0,1-4.93,0c-1.37-.78-1.37-2.06,0-2.84a5.45,5.45,0,0,1,4.93,0C130.69,241,130.7,242.3,129.35,243.08Z"/><path class="cls-9" d="M147.76,218.17a5.46,5.46,0,0,1-4.92,0c-1.37-.79-1.38-2.06,0-2.85a5.45,5.45,0,0,1,4.93,0C149.11,216.11,149.12,217.38,147.76,218.17Z"/><path class="cls-9" d="M160.23,297.18a5.42,5.42,0,0,1-4.93,0c-1.36-.78-1.37-2.06,0-2.84a5.43,5.43,0,0,1,4.92,0C161.58,295.13,161.58,296.4,160.23,297.18Z"/><path class="cls-9" d="M223.35,296.78a5.45,5.45,0,0,1-4.93,0c-1.36-.79-1.37-2.06,0-2.84a5.4,5.4,0,0,1,4.92,0C224.7,294.72,224.71,296,223.35,296.78Z"/><path class="cls-9" d="M254.42,314.93a5.43,5.43,0,0,1-4.92,0c-1.37-.79-1.37-2.06,0-2.85a5.45,5.45,0,0,1,4.93,0C255.77,312.87,255.78,314.14,254.42,314.93Z"/><path class="cls-9" d="M97.51,224.92a5.46,5.46,0,0,1-4.92,0c-1.37-.79-1.38-2.06,0-2.85a5.45,5.45,0,0,1,4.93,0C98.86,222.86,98.87,224.13,97.51,224.92Z"/><path class="cls-9" d="M67.07,207.56a5.45,5.45,0,0,1-4.93,0c-1.36-.79-1.37-2.07,0-2.85a5.43,5.43,0,0,1,4.92,0C68.42,205.51,68.43,206.78,67.07,207.56Z"/><path class="cls-9" d="M6,207.14a5.45,5.45,0,0,1-4.93,0c-1.37-.79-1.37-2.06,0-2.84a5.42,5.42,0,0,1,4.93,0C7.3,205.08,7.31,206.36,6,207.14Z"/></g><path class="cls-10" d="M50.68,205.52c0,1.58,1.15,3.24,3.4,4.54l32.56,31.08c4.12,2.38,10.35,2.64,13.92.58l59.24-34.41c1.72-1,2.5-2.35,2.39-3.75a1.44,1.44,0,0,1,0,.24v4.48a4.16,4.16,0,0,1-2.41,3.42l-59.24,34.41c-3.57,2.06-9.8,1.8-13.92-.58L54.08,214.45c-2.29-1.32-3.44-3-3.41-4.61C50.68,209.57,50.63,206.62,50.68,205.52Z"/><g class="cls-11"><path class="cls-12" d="M94.52,245.54a17.15,17.15,0,0,0,8.53-2l59.24-34.41a9,9,0,0,0,4.89-7.8c0-3.46-2.15-6.69-5.89-8.85l-52-20a21,21,0,0,0-10.36-2.63,17,17,0,0,0-8.53,2.06L50.59,195.18A9,9,0,0,0,45.7,203c0,3.46,2.15,6.69,5.89,8.85l32.57,31.08A21,21,0,0,0,94.52,245.54Z"/><path class="cls-13" d="M90.63,172.25,51.26,195.31l-.49.29a8.22,8.22,0,0,0-4.31,7.79c.18,3.14,2.54,6.64,5.95,8.61l32,30.52A19.89,19.89,0,0,0,95.06,245a18.19,18.19,0,0,0,8.38-2.22l58.62-34.05a8.59,8.59,0,0,0,4.67-7.44c0-3.28-2.08-6.35-5.67-8.43L109.39,173a21.88,21.88,0,0,0-10.27-2.69A16.77,16.77,0,0,0,90.63,172.25Z"/><path class="cls-14" d="M90.86,172.64,51.44,195.73,51,196a7.51,7.51,0,0,0-3.74,7.79c.33,2.81,2.94,6.59,6,8.36l31.39,30a19,19,0,0,0,11,2.25,19.51,19.51,0,0,0,8.22-2.39l58-33.69a8.11,8.11,0,0,0,4.44-7.08c0-3.1-2-6-5.44-8l-51.34-19.75a25.22,25.22,0,0,0-3.71-1.58,22,22,0,0,0-6.48-1.16A16.36,16.36,0,0,0,90.86,172.64Z"/><path class="cls-15" d="M91.08,173,51.63,196.15l-.49.29c-3.09,1.88-4.23,4.86-3.16,7.78,0,2.52,3.33,6.55,6.05,8.12l30.8,29.39a18.26,18.26,0,0,0,11.33,2.08c2.37,0,6.36-1.59,8-2.57l57.4-33.33a7.68,7.68,0,0,0,4.21-6.73c0-2.91-1.92-5.67-5.21-7.57l-51-19.63a29,29,0,0,0-3.69-1.56,21.64,21.64,0,0,0-6.43-1.23A15.94,15.94,0,0,0,91.08,173Z"/><path class="cls-16" d="M91.31,173.42l-39.5,23.15c-.07,0-.43.25-.49.29-3.08,1.9-4,4.94-2.57,7.77,0,2.2,3.72,6.5,6.1,7.88l30.21,28.83a17.62,17.62,0,0,0,11.65,1.89c2.07,0,6.41-1.88,7.89-2.74l56.78-33a7.18,7.18,0,0,0,4-6.36c-.05-2.74-1.84-5.34-5-7.15l-50.7-19.5A32.53,32.53,0,0,0,106,173a21.81,21.81,0,0,0-6.36-1.31A15.72,15.72,0,0,0,91.31,173.42Z"/><path class="cls-17" d="M91.54,173.81,52,197l-.49.3c-3.07,1.93-3.77,5-2,7.76,0,1.89,4.11,6.46,6.15,7.64L85.29,241a17.08,17.08,0,0,0,12,1.7c1.78,0,6.46-2.18,7.73-2.91l56.17-32.62a6.73,6.73,0,0,0,3.75-6c-.07-2.56-1.76-5-4.75-6.73L109.78,175c-.63-.36-2.94-1.25-3.65-1.51a21.55,21.55,0,0,0-6.3-1.39A15.35,15.35,0,0,0,91.54,173.81Z"/><path class="cls-18" d="M91.76,174.21,52.17,197.4l-.49.3c-3.06,2-3.55,5.09-1.41,7.76,0,1.57,4.5,6.41,6.21,7.39l29,27.71a16.72,16.72,0,0,0,12.3,1.51c1.48,0,6.51-2.47,7.57-3.08l55.55-32.26a6.27,6.27,0,0,0,3.53-5.64c-.09-2.38-1.69-4.67-4.53-6.31l-50.05-19.25c-.53-.31-3-1.26-3.64-1.49a21.41,21.41,0,0,0-6.23-1.47A15.06,15.06,0,0,0,91.76,174.21Z"/><path class="cls-19" d="M92,174.6,52.35,197.82a5.6,5.6,0,0,0-.48.3c-3.06,2-3.33,5.16-.84,7.75,0,1.26,4.9,6.36,6.26,7.15l28.45,27.15a16.35,16.35,0,0,0,12.62,1.32c1.18,0,6.57-2.76,7.41-3.25l54.93-31.9c2.26-1.3,3.4-3.22,3.3-5.29s-1.61-4.33-4.3-5.88L110,176c-.41-.24-3.14-1.27-3.62-1.46a21.18,21.18,0,0,0-6.16-1.54A14.6,14.6,0,0,0,92,174.6Z"/><path class="cls-20" d="M92.21,175,52.53,198.24c-.12.07-.37.22-.48.3-3,2-3.11,5.24-.26,7.74,0,.95,5.29,6.32,6.32,6.91L86,239.78c3.8,2.19,9.34,2.63,13,1.13.89,0,6.62-3,7.25-3.42L160.48,206c2.13-1.23,3.19-3,3.07-4.93s-1.54-4-4.07-5.46l-49.41-19c-.31-.18-3.25-1.3-3.6-1.44a20.88,20.88,0,0,0-6.1-1.62A14.39,14.39,0,0,0,92.21,175Z"/><path class="cls-21" d="M92.44,175.38,52.72,198.65c-.14.08-.37.22-.49.31-3,2-2.88,5.31.32,7.74,0,.63,5.69,6.27,6.37,6.66l27.27,26c3.91,2.26,9.67,2.64,13.27,1,.59,0,6.67-3.35,7.09-3.6l53.7-31.18c2-1.16,3-2.82,2.85-4.57s-1.46-3.66-3.85-5l-49.08-18.89c-.21-.12-3.35-1.31-3.59-1.41a21.15,21.15,0,0,0-6-1.7A14.15,14.15,0,0,0,92.44,175.38Z"/><path class="cls-22" d="M92.67,175.77,52.9,199.07c-.16.09-.35.21-.49.31-3,2.06-2.66,5.39.91,7.73a84.36,84.36,0,0,0,6.41,6.42L86.42,239c4,2.32,10,2.64,13.59.77.3,0,6.72-3.64,6.93-3.76L160,205.17c1.88-1.09,2.76-2.62,2.61-4.22s-1.38-3.31-3.61-4.6l-48.77-18.76c-.1-.06-3.45-1.34-3.56-1.39a21.09,21.09,0,0,0-6-1.78A13.88,13.88,0,0,0,92.67,175.77Z"/><path d="M100.56,239.18l59.24-34.41c3.57-2.06,3.12-5.65-1-8l-52-20c-4.12-2.38-10.35-2.64-13.92-.58L53.08,199.49c-3.57,2.06-3.12,5.66,1,8L86.64,238.6C90.76,241,97,241.24,100.56,239.18Z"/></g><path class="cls-23" d="M100.56,239.1l59.24-34.41a4.17,4.17,0,0,0,2.41-3.42v-4.48c0-1.56-1.18,1.15-3.41-.13l-52-20c-4.12-2.38-10.35-2.64-13.92-.58L53.08,199.41c-1.19.68-2.06-2.24-2.36-1.31-.11.31,0,4.41,0,4.73,0,1.6,1.12,3.29,3.41,4.61l32.56,31.08C90.76,240.9,97,241.16,100.56,239.1Z"/><path class="cls-24" d="M100.56,234.7l59.24-34.4c3.57-2.06,3.12-5.66-1-8l-52-20c-4.12-2.37-10.35-2.63-13.92-.57L53.08,195c-3.57,2.06-3.12,5.66,1,8l32.56,31.08C90.76,236.5,97,236.76,100.56,234.7Z"/><path class="cls-25" d="M53.08,195l39.81-23.32c3.57-2.06,9.8-1.8,13.92.57L133,182.34a5.51,5.51,0,0,1-.81.56L73,217.31a10.12,10.12,0,0,1-2.83,1.05l-16-15.31C50,200.67,49.51,197.07,53.08,195Z"/><path class="cls-26" d="M54.08,202.3l32.56,31.08c4.12,2.38,10.35,2.64,13.92.58l59.24-34.41a4.24,4.24,0,0,0,2.38-3.16c.19,1.46-.59,2.88-2.38,3.91l-59.24,34.4c-3.57,2.06-9.8,1.8-13.92-.57L54.08,203.05c-2.41-1.39-3.55-3.2-3.38-4.88C50.88,199.63,52,201.12,54.08,202.3Z"/><path class="cls-27" d="M23.16,234.89l145.49-84.06c7.44-4.3,13.47-15.82,13.47-25.74V13.83c0-9.92-6-14.48-13.47-10.19L23.16,87.71C15.73,92,9.7,103.53,9.7,113.44V224.71C9.7,234.63,15.73,239.19,23.16,234.89Z"/><path class="cls-28" d="M21.43,227.15l143.44-82.87c6-3.81,9.69-11.41,9.69-19.19v-112A2.39,2.39,0,0,0,171,11l-.42.24L27,94.26c-7.13,4.11-9.69,11.41-9.69,19.18V225.09a2.58,2.58,0,0,0,3.85,2.24Z"/><path class="cls-29" d="M17.26,113.44V225.09a2.58,2.58,0,0,0,3.85,2.24l.32-.18,143.44-82.87c6-3.81,9.69-11.41,9.69-19.19v-112A2.39,2.39,0,0,0,171,11l-.42.24L27,94.26C19.82,98.37,17.26,105.67,17.26,113.44Zm1.51,0c0-5.8,1.55-13.62,8.94-17.87l144-83.23a.85.85,0,0,1,.43-.12.87.87,0,0,1,.88.87v112c0,7.41-3.52,14.44-8.93,17.88L20.37,226a1,1,0,0,1-.53.15,1.08,1.08,0,0,1-1.07-1.07Z"/><path class="cls-30" d="M19.35,85.68,164.84,1.62c2.94-1.7,5.66-2,7.88-1.16.28.11,4,2.1,4.3,2.25h0c-2.29-1.12-5.2-.91-8.38.92L23.16,87.71C15.73,92,9.7,103.53,9.7,113.44V224.71c0,6.19,2.35,10.29,5.92,11.46a2.31,2.31,0,0,1-1.18-.4c-.17-.1-4.25-2.4-4.41-2.51-2.56-1.8-4.15-5.48-4.15-10.58V111.42C5.88,101.5,11.91,90,19.35,85.68Z"/><path class="cls-31" d="M22.52,87.39,168,3.32c3.05-1.76,5.85-2,8.11-1a10,10,0,0,0-6.5,1.53L24.13,87.87c-7.43,4.3-13.46,15.82-13.46,25.74V224.87c0,5.85,2.1,9.82,5.35,11.22-4.15-.66-7-4.92-7-11.7V113.12C9.05,103.2,15.08,91.68,22.52,87.39Z"/><g class="cls-32"><path class="cls-33" d="M174.61,70.17c5.93-3.42,10.74-.68,10.74,6.12v72.08c0,6.8-4.81,15.09-10.74,18.51l-33.38,18.65c-5.92,3.42-13.1.31-13.1-6.49V107c0-6.81,7.18-14.72,13.1-18.14Z"/><path class="cls-34" d="M175.18,70.42c5.93-3.42,10.74-.68,10.74,6.12v71.71c0,6.8-4.81,15.09-10.74,18.51l-33.4,18.66c-5.92,3.42-12.89.34-12.89-6.46V107.25c0-6.8,7-14.75,12.89-18.17Z"/><path class="cls-35" d="M175.75,70.66c5.93-3.42,10.74-.68,10.74,6.12v71.34c0,6.8-4.81,15.09-10.74,18.52l-33.41,18.67c-5.93,3.42-12.68.37-12.68-6.43V107.54c0-6.8,6.75-14.78,12.68-18.2Z"/><path class="cls-36" d="M176.32,70.91c5.93-3.43,10.74-.69,10.74,6.12v71c0,6.8-4.81,15.09-10.74,18.51L142.89,185.2c-5.93,3.42-12.46.41-12.46-6.39v-71c0-6.81,6.53-14.82,12.46-18.25Z"/><path class="cls-37" d="M176.89,71.15c5.93-3.42,10.74-.68,10.74,6.12v70.6c0,6.8-4.81,15.09-10.74,18.52l-33.45,18.7c-5.93,3.42-12.25.44-12.25-6.36v-70.6c0-6.81,6.32-14.86,12.25-18.28Z"/><path class="cls-38" d="M177.46,71.39c5.93-3.42,10.74-.68,10.74,6.12v70.23c0,6.81-4.81,15.1-10.74,18.52L144,185c-5.93,3.42-12,.48-12-6.33V108.42c0-6.8,6.1-14.89,12-18.31Z"/><path class="cls-39" d="M178,71.64c5.93-3.43,10.74-.69,10.74,6.12v69.86c0,6.8-4.81,15.1-10.74,18.52l-33.48,18.73c-5.93,3.42-11.82.51-11.82-6.3V108.72c0-6.81,5.89-14.93,11.82-18.36Z"/><path class="cls-40" d="M178.6,71.88c5.93-3.42,10.74-.68,10.74,6.12v69.49c0,6.81-4.81,15.1-10.74,18.53l-33.5,18.74c-5.93,3.42-11.6.54-11.6-6.26V109c0-6.81,5.67-15,11.6-18.39Z"/><path class="cls-41" d="M179.17,72.12c5.93-3.42,10.74-.68,10.74,6.13v69.12c0,6.8-4.81,15.1-10.74,18.52l-33.52,18.76c-5.93,3.42-11.39.58-11.39-6.23V109.3c0-6.81,5.46-15,11.39-18.42Z"/><path class="cls-42" d="M179.74,72.37c5.93-3.43,10.74-.69,10.74,6.12v68.75c0,6.81-4.81,15.1-10.74,18.53l-33.53,18.77c-5.94,3.42-11.18.61-11.18-6.2V109.59c0-6.8,5.24-15,11.18-18.46Z"/><path class="cls-43" d="M180.3,72.61c5.94-3.42,10.75-.68,10.75,6.13v68.37c0,6.81-4.81,15.11-10.75,18.54l-33.54,18.77c-5.94,3.43-11,.65-11-6.16V109.89c0-6.81,5-15.07,11-18.5Z"/><path class="cls-44" d="M180.87,72.85c5.94-3.42,10.75-.68,10.75,6.13v68c0,6.81-4.81,15.11-10.75,18.53l-33.56,18.79c-5.93,3.43-10.75.69-10.75-6.12v-68c0-6.81,4.82-15.11,10.75-18.53Z"/></g><path class="cls-45" d="M181.18,72c5.95-3.44,10.78-.69,10.78,6.14v74.12c0,6.83-4.83,15.16-10.78,18.6l-33.81,18.93c-6,3.44-10.79.69-10.79-6.14V109.49c0-6.83,4.83-15.16,10.79-18.6Z"/><path class="cls-46" d="M147.37,90.89,181.18,72c5.95-3.44,10.78-.69,10.78,6.14v1.05c0-6.84-4.83-9.59-10.78-6.15L147.37,91.94c-6,3.43-10.79,11.76-10.79,18.59v-1C136.58,102.66,141.41,94.33,147.37,90.89Z"/><path class="cls-47" d="M267.4,227.8,221,201c-5.22-3-9.46-11.12-9.46-18.09V59.46c0-3.54-2.92-4.33-1.15-5.6.06,0,4.14-1.9,4.21-1.93a6.84,6.84,0,0,1,6.4.37L267.4,79.07c5.23,3,9.47,11.12,9.47,18.1V220.64c0,3.7-1.2,6.35-3.1,7.55-.12.08-5,2.41-5.15,2.45C266.93,231.2,269.69,229.12,267.4,227.8Z"/><path class="cls-48" d="M267,79.21,220.61,52.45c-2.47-1.43,43.8,27.62,43.8,27.62,5.23,3,9.47,11.12,9.47,18.09,0,0,2.56,126.33,2.56,122.62V97.31C276.44,90.34,272.2,82.23,267,79.21Z"/><path class="cls-49" d="M263.8,229.44l-46.37-26.76c-5.23-3-9.47-11.12-9.47-18.1V61.11c0-7,4.24-10.18,9.47-7.16L263.8,80.72c5.23,3,9.47,11.12,9.47,18.09V222.29C273.27,229.26,269,232.46,263.8,229.44Z"/><path class="cls-50" d="M263,229.89l-46.36-26.77c-5.23-3-9.47-11.12-9.47-18.09V61.56c0-7,4.24-10.18,9.47-7.16L263,81.16c5.23,3,9.47,11.13,9.47,18.1V222.73C272.44,229.7,268.2,232.91,263,229.89Z"/><path class="cls-51" d="M208.43,185.85V62.23c0-6.12,3.72-8.93,8.3-6.28l46.12,26.63c4.58,2.64,8.3,9.74,8.3,15.86V222.06c0,6.12-3.72,8.92-8.3,6.28l-46.12-26.63C212.15,199.06,208.43,192,208.43,185.85Z"/><path class="cls-52" d="M210.5,186.67v-123c0-5.12,3.11-7.47,6.95-5.26l45.13,26.06c3.84,2.22,6.95,8.16,6.95,13.28v123c0,5.12-3.11,7.47-6.95,5.25l-45.13-26.06C213.61,197.73,210.5,191.78,210.5,186.67Z"/><path class="cls-53" d="M215.08,59.26c-3.62-2.08-6.55-.41-6.55,3.74V187.38a14.43,14.43,0,0,0,6.55,11.3l44.09,25.45c3.61,2.09,6.55.42,6.55-3.73V96a14.45,14.45,0,0,0-6.55-11.3Z"/><polygon class="cls-54" points="211.2 136.06 268.38 169.07 268.38 120.44 211.2 87.42 211.2 136.06"/><path class="cls-55" d="M258.33,91.08l5.72,3.31c.22.12.4,0,.4-.23a.88.88,0,0,0-.4-.68l-5.72-3.31c-.22-.12-.4,0-.4.23A.86.86,0,0,0,258.33,91.08Zm5.72,4.44-5.72-3.31c-.22-.12-.4,0-.4.23a.88.88,0,0,0,.4.68l5.72,3.31c.22.12.4,0,.4-.23A.88.88,0,0,0,264.05,95.52Zm0,2-5.72-3.31c-.22-.12-.4,0-.4.23a.88.88,0,0,0,.4.68l5.72,3.3c.22.13.4,0,.4-.22A.86.86,0,0,0,264.05,97.56Z"/><ellipse class="cls-55" cx="222.29" cy="70.76" rx="0.78" ry="1.34" transform="translate(-5.32 121.85) rotate(-30.31)"/><path class="cls-55" d="M220.37,69.64c0,.6-.43.84-1,.54a2.09,2.09,0,0,1-1-1.64c0-.61.43-.85,1-.55A2.13,2.13,0,0,1,220.37,69.64Z"/><path class="cls-55" d="M217.5,68c0,.6-.43.84-1,.54a2.11,2.11,0,0,1-.95-1.65c0-.6.43-.84.95-.54A2.11,2.11,0,0,1,217.5,68Z"/><polygon class="cls-56" points="225.95 157 215.14 150.75 215.14 149.25 225.95 155.5 225.95 157"/><g class="cls-57"><path class="cls-58" d="M268,168.61l-.56-.33L211,135.66V87.77L268,120.71Zm-56.3-33.38,55.55,32.08V121.14L211.7,89.07Z"/><rect class="cls-58" x="216.69" y="91.41" width="0.75" height="46.78"/><rect class="cls-58" x="223.12" y="95.1" width="0.75" height="46.81"/><rect class="cls-58" x="229.55" y="98.8" width="0.75" height="46.83"/><rect class="cls-58" x="235.98" y="102.49" width="0.75" height="46.86"/><rect class="cls-58" x="242.41" y="106.18" width="0.75" height="46.89"/><rect class="cls-58" x="248.84" y="109.87" width="0.75" height="46.91"/><rect class="cls-58" x="255.27" y="113.56" width="0.75" height="46.94"/><rect class="cls-58" x="261.71" y="117.25" width="0.75" height="46.96"/><rect class="cls-58" x="239.1" y="79.25" width="0.75" height="65.02" transform="translate(22.95 263.27) rotate(-60)"/><rect class="cls-58" x="239.1" y="85.9" width="0.75" height="65.02" transform="translate(17.19 266.6) rotate(-60)"/><rect class="cls-58" x="239.1" y="92.55" width="0.75" height="65.02" transform="translate(11.44 269.92) rotate(-60)"/><rect class="cls-58" x="239.1" y="99.2" width="0.75" height="65.02" transform="matrix(0.5, -0.87, 0.87, 0.5, 5.68, 273.24)"/><rect class="cls-58" x="239.1" y="105.84" width="0.75" height="65.02" transform="translate(-0.08 276.57) rotate(-60)"/><rect class="cls-58" x="239.1" y="112.49" width="0.75" height="65.02" transform="translate(-5.84 279.89) rotate(-60)"/></g><polygon class="cls-58" points="222.96 157.96 215.14 153.41 215.14 152.44 222.96 157 222.96 157.96"/><polygon class="cls-58" points="222.96 159.72 215.14 155.16 215.14 154.2 222.96 158.75 222.96 159.72"/><polygon class="cls-59" points="225.95 168.5 215.14 162.25 215.14 160.75 225.95 167 225.95 168.5"/><polygon class="cls-58" points="222.96 169.46 215.14 164.91 215.14 163.94 222.96 168.5 222.96 169.46"/><polygon class="cls-58" points="222.96 171.22 215.14 166.66 215.14 165.7 222.96 170.25 222.96 171.22"/><path class="cls-29" d="M261.84,85.17,217.75,59.71c-3.62-2.09-6.55-.42-6.55,3.73V187.83a14.42,14.42,0,0,0,6.55,11.29l44.09,25.46c3.61,2.08,6.54.41,6.54-3.74V96.46A14.42,14.42,0,0,0,261.84,85.17Zm6,135.67a4.92,4.92,0,0,1-.87,3.07,2.7,2.7,0,0,1-2.16,1h0a5.45,5.45,0,0,1-2.65-.83L218,198.63a13.84,13.84,0,0,1-6.26-10.8V63.44c0-2.5,1.16-4.06,3-4.06a5.54,5.54,0,0,1,2.65.82l44.09,25.46a13.82,13.82,0,0,1,6.26,10.8Z"/><g class="cls-32"><path class="cls-60" d="M221.27,176.76c-2.21-1.27-4-.25-4,2.28v5.85a8.81,8.81,0,0,0,4,6.89l14.55,8.48c2.21,1.27,4.88.11,4.88-2.42V192c0-2.53-2.67-5.48-4.88-6.75Z"/><path class="cls-61" d="M221.15,176.94c-2.2-1.27-4-.25-4,2.27v5.56a8.76,8.76,0,0,0,4,6.86l14.42,8.4c2.2,1.27,4.78.13,4.78-2.39v-5.57c0-2.52-2.58-5.46-4.78-6.73Z"/><path class="cls-62" d="M221,177.12c-2.18-1.26-4-.25-4,2.25v5.29a8.72,8.72,0,0,0,4,6.82l14.29,8.33c2.19,1.26,4.68.14,4.68-2.37v-5.29c0-2.5-2.49-5.45-4.68-6.71Z"/><path class="cls-63" d="M220.91,177.3C218.74,176,217,177,217,179.54v5a8.7,8.7,0,0,0,3.94,6.79l14.16,8.25c2.17,1.25,4.58.14,4.58-2.35v-5c0-2.49-2.41-5.43-4.58-6.69Z"/><path class="cls-64" d="M220.79,177.47c-2.16-1.25-3.91-.25-3.91,2.24v4.72a8.64,8.64,0,0,0,3.91,6.76l14,8.17c2.16,1.25,4.48.16,4.48-2.32v-4.72c0-2.49-2.32-5.42-4.48-6.67Z"/><path class="cls-65" d="M220.67,177.65c-2.15-1.24-3.89-.25-3.89,2.22v4.45a8.58,8.58,0,0,0,3.89,6.72l13.9,8.1c2.15,1.24,4.38.17,4.38-2.3V192.4c0-2.47-2.23-5.41-4.38-6.65Z"/><path class="cls-66" d="M220.56,177.83c-2.15-1.24-3.88-.25-3.88,2.21v4.16a8.51,8.51,0,0,0,3.88,6.69l13.76,8c2.14,1.23,4.28.18,4.28-2.28v-4.16c0-2.46-2.14-5.39-4.28-6.63Z"/><path class="cls-67" d="M220.44,178c-2.13-1.23-3.86-.25-3.86,2.2v3.88a8.51,8.51,0,0,0,3.86,6.66l13.63,7.94c2.13,1.23,4.18.2,4.18-2.25v-3.88c0-2.45-2.05-5.38-4.18-6.61Z"/><path class="cls-68" d="M220.32,178.19c-2.12-1.23-3.84-.25-3.84,2.18V184a8.47,8.47,0,0,0,3.84,6.62l13.5,7.87c2.12,1.22,4.08.21,4.08-2.23v-3.6a8.65,8.65,0,0,0-4.08-6.58Z"/><path class="cls-69" d="M220.2,178.36c-2.11-1.21-3.82-.24-3.82,2.18v3.32a8.42,8.42,0,0,0,3.82,6.59l13.37,7.8c2.11,1.22,4,.21,4-2.21v-3.32a8.54,8.54,0,0,0-4-6.56Z"/><path class="cls-70" d="M220.08,178.54c-2.1-1.21-3.8-.24-3.8,2.17v3a8.36,8.36,0,0,0,3.8,6.55L233.32,198c2.1,1.22,3.88.23,3.88-2.18v-3a8.44,8.44,0,0,0-3.88-6.54Z"/><path class="cls-71" d="M220,178.72c-2.09-1.21-3.78-.24-3.78,2.16v2.75a8.34,8.34,0,0,0,3.78,6.53l13.11,7.64c2.09,1.21,3.78.24,3.78-2.16v-2.75a8.34,8.34,0,0,0-3.78-6.53Z"/></g><path class="cls-72" d="M235.61,200.08l-16.76-9.75a7.89,7.89,0,0,1-3.28-6.27v-3.55c0-2.41,1.48-3.53,3.28-2.48l16.76,9.74a7.91,7.91,0,0,1,3.28,6.27v3.55C238.89,200,237.41,201.12,235.61,200.08Z"/><path class="cls-73" d="M235.61,187.77,218.85,178c-1.8-1.05-3.28.07-3.28,2.48v.37c0-2.41,1.48-3.53,3.28-2.49l16.76,9.75a7.89,7.89,0,0,1,3.28,6.27V194A7.91,7.91,0,0,0,235.61,187.77Z"/><g class="cls-32"><path class="cls-74" d="M245.71,191c-2.2-1.27-4-.25-4,2.28v5.85a8.81,8.81,0,0,0,4,6.89l14.55,8.48c2.21,1.27,4.88.11,4.88-2.42v-5.85c0-2.53-2.67-5.48-4.88-6.75Z"/><path class="cls-75" d="M245.59,191.14c-2.19-1.27-4-.25-4,2.27V199a8.76,8.76,0,0,0,4,6.86l14.42,8.4c2.2,1.27,4.78.13,4.78-2.39v-5.57c0-2.52-2.58-5.46-4.78-6.73Z"/><path class="cls-76" d="M245.47,191.32c-2.18-1.26-3.95-.25-3.95,2.26v5.28a8.74,8.74,0,0,0,3.95,6.83L259.76,214c2.19,1.26,4.68.14,4.68-2.37v-5.28c0-2.51-2.49-5.45-4.68-6.72Z"/><path class="cls-77" d="M245.36,191.5c-2.18-1.26-3.94-.25-3.94,2.24v5a8.68,8.68,0,0,0,3.94,6.79l14.15,8.25c2.18,1.25,4.59.15,4.59-2.35v-5c0-2.5-2.41-5.44-4.59-6.69Z"/><path class="cls-78" d="M245.24,191.68c-2.17-1.25-3.92-.25-3.92,2.23v4.72a8.61,8.61,0,0,0,3.92,6.76l14,8.18c2.17,1.24,4.49.16,4.49-2.33v-4.72c0-2.49-2.32-5.42-4.49-6.67Z"/><path class="cls-79" d="M245.12,191.85c-2.15-1.24-3.9-.24-3.9,2.23v4.44a8.59,8.59,0,0,0,3.9,6.72l13.9,8.1c2.15,1.24,4.38.17,4.38-2.3V206.6c0-2.47-2.23-5.41-4.38-6.65Z"/><path class="cls-80" d="M245,192c-2.14-1.24-3.88-.25-3.88,2.21v4.17A8.57,8.57,0,0,0,245,205.1l13.77,8c2.14,1.24,4.28.18,4.28-2.28v-4.16c0-2.46-2.14-5.39-4.28-6.63Z"/><path class="cls-81" d="M244.88,192.21c-2.13-1.23-3.86-.25-3.86,2.2v3.88a8.51,8.51,0,0,0,3.86,6.66l13.64,8c2.13,1.23,4.18.19,4.18-2.26v-3.88c0-2.44-2.05-5.37-4.18-6.6Z"/><path class="cls-82" d="M244.76,192.39c-2.12-1.23-3.84-.25-3.84,2.19v3.6a8.46,8.46,0,0,0,3.84,6.62l13.51,7.87c2.12,1.23,4.08.21,4.08-2.22v-3.61a8.65,8.65,0,0,0-4.08-6.58Z"/><path class="cls-83" d="M244.64,192.57c-2.11-1.22-3.82-.25-3.82,2.17v3.32a8.39,8.39,0,0,0,3.82,6.59l13.38,7.8c2.11,1.22,4,.22,4-2.2v-3.33a8.54,8.54,0,0,0-4-6.56Z"/><path class="cls-84" d="M244.53,192.74c-2.1-1.21-3.8-.24-3.8,2.17v3a8.39,8.39,0,0,0,3.8,6.56l13.24,7.72c2.1,1.21,3.88.23,3.88-2.18v-3a8.46,8.46,0,0,0-3.88-6.55Z"/><path class="cls-85" d="M244.41,192.92c-2.09-1.2-3.78-.24-3.78,2.16v2.76a8.34,8.34,0,0,0,3.78,6.52L257.52,212c2.08,1.21,3.78.24,3.78-2.15v-2.76a8.33,8.33,0,0,0-3.78-6.52Z"/></g><path class="cls-86" d="M260.05,214.28l-16.75-9.75a7.87,7.87,0,0,1-3.29-6.27v-3.55c0-2.41,1.48-3.52,3.29-2.48L260.05,202a7.92,7.92,0,0,1,3.28,6.27v3.56C263.33,214.2,261.85,215.32,260.05,214.28Z"/><path class="cls-87" d="M260.05,202l-16.75-9.74c-1.81-1-3.29.07-3.29,2.48v.37c0-2.41,1.48-3.53,3.29-2.48l16.75,9.74a7.91,7.91,0,0,1,3.28,6.27v-.37A7.92,7.92,0,0,0,260.05,202Z"/><path class="cls-55" d="M221.72,182.46l1.56.9A2.74,2.74,0,0,1,224.8,186v.3a1.68,1.68,0,0,1-.16.85.49.49,0,0,1-.5.24v0a2.7,2.7,0,0,1,.77,2V190c0,.58-.14,1-.4,1.1s-.66.08-1.17-.22l-1.62-.93Zm1.43,3.89c.21.12.36.15.47.09s.15-.24.15-.53v-.42a1.56,1.56,0,0,0-.12-.66,1,1,0,0,0-.4-.41l-.5-.29v2Zm.19,3.5c.18.1.32.12.4.06s.13-.22.13-.5v-.65a1.8,1.8,0,0,0-.15-.81,1.27,1.27,0,0,0-.51-.49l-.46-.27v2.32Z"/><path class="cls-55" d="M225.86,192a3.36,3.36,0,0,1-.39-1.63v-5.75l1,.6v5.83a1.24,1.24,0,0,0,.14.64,1.09,1.09,0,0,0,.38.39c.17.1.3.12.39,0s.14-.22.14-.48v-5.83l1,.58v5.74c0,.61-.13,1-.39,1.18s-.64.12-1.14-.17A3,3,0,0,1,225.86,192Z"/><path class="cls-55" d="M230.22,191.69l-1.25-5,1.1.63.7,3.17h0l.7-2.36,1,.58-1.25,3.61v3.2l-1-.6Z"/><path class="cls-55" d="M245.31,203.2a3.29,3.29,0,0,1-.39-1.62v-.43l1,.56v.52a1.12,1.12,0,0,0,.53,1c.18.1.31.12.4,0s.14-.23.14-.5a2.63,2.63,0,0,0-.19-.94,10.32,10.32,0,0,0-.69-1.27,9.54,9.54,0,0,1-.9-1.68,3.86,3.86,0,0,1-.25-1.32c0-.6.13-1,.4-1.16s.64-.11,1.14.18a2.83,2.83,0,0,1,1.12,1.13,3.4,3.4,0,0,1,.38,1.62v.32l-1-.57v-.38a1.32,1.32,0,0,0-.13-.64.87.87,0,0,0-.38-.4c-.35-.2-.52-.06-.52.42a2.27,2.27,0,0,0,.2.87,8.57,8.57,0,0,0,.69,1.27,9.4,9.4,0,0,1,.89,1.68,3.87,3.87,0,0,1,.25,1.38c0,.62-.14,1-.4,1.19s-.65.12-1.16-.17A2.84,2.84,0,0,1,245.31,203.2Z"/><path class="cls-55" d="M248.59,198l2.81,1.62v1.08l-1.78-1v2l1.41.82v1.07l-1.41-.81V205l1.78,1v1.07l-2.81-1.62Z"/><path class="cls-55" d="M252,199.91l1,.6V207l1.7,1V209L252,207.44Z"/><path class="cls-55" d="M255.21,201.78l1,.59v6.45l1.69,1v1.08l-2.73-1.58Z"/><polygon class="cls-88" points="236.52 90.76 234.27 89.46 234.27 82.01 236.52 83.31 236.52 90.76"/><polygon class="cls-89" points="241.78 93.79 239.53 92.5 239.53 85.05 241.78 86.34 241.78 93.79"/><polygon class="cls-90" points="247.04 96.83 244.79 95.54 244.79 88.08 247.04 89.38 247.04 96.83"/><polygon class="cls-91" points="248.11 89.42 233.2 80.82 233.2 79.71 248.11 88.32 248.11 89.42"/><polygon class="cls-92" points="248.11 99.15 233.2 90.54 233.2 89.44 248.11 98.05 248.11 99.15"/><polygon class="cls-93" points="249.04 101.14 232.27 91.45 232.27 90.21 249.04 99.9 249.04 101.14"/><polygon class="cls-94" points="249.33 88.8 231.98 78.78 240.66 78.71 249.33 88.8"/><path class="cls-95" d="M211.58,128.29s3.77-17.8,13.64-12.1,8.47,11.37,17.41,16.53c9.88,5.7,6.58-11.31,24.93-.72v22l-56.38-30.34Z"/><path class="cls-96" d="M246.32,134.33a8,8,0,0,1-3.9-1.26,24.48,24.48,0,0,1-8.32-8,26.06,26.06,0,0,0-9.08-8.56,6,6,0,0,0-5.69-.61c-5.15,2.29-7.33,12.33-7.35,12.43a.4.4,0,0,1-.48.32.43.43,0,0,1-.32-.49c.1-.43,2.29-10.54,7.82-13a6.83,6.83,0,0,1,6.43.65,26.85,26.85,0,0,1,9.33,8.79,23.53,23.53,0,0,0,8.07,7.74c3.92,2.26,5.56.77,7.63-1.11,2.88-2.61,6.46-5.87,17.3.39a.4.4,0,0,1,.15.55.41.41,0,0,1-.56.15c-10.32-6-13.52-3-16.34-.48C249.63,133.12,248.3,134.33,246.32,134.33Z"/><g class="cls-97"><polygon class="cls-98" points="254.73 160.25 256.44 161.5 256.44 128.82 255.42 128.14 254.73 128.22 254.73 160.25"/></g><g class="cls-99"><path class="cls-100" d="M256.43,164.55H255L254.91,151l-.08-21.66c0-.59.33-1.07.73-1.07h0c.4,0,.73.48.73,1.07l.08,21.66Z"/><path class="cls-101" d="M255.89,157.6l.05-10.4v-.36l0-16.91a1.86,1.86,0,0,0-.12-.7.33.33,0,0,0-.28-.24h0a.35.35,0,0,0-.3.25,1.79,1.79,0,0,0-.12.65l.05,17v.43l0,9.65Z"/><path class="cls-102" d="M255.5,156.07l.13-9.55.13-16.43c0-.16-.09-.29-.2-.29h0c-.11,0-.2.13-.2.29l.07,16.43Z"/></g><g class="cls-103"><polygon class="cls-104" points="256.23 118.37 254.77 117.95 254.93 128.58 255.81 128.81 256.39 128.79 256.23 118.37"/></g><g class="cls-99"><path class="cls-105" d="M255,119h1.12l0,3.64,0,5.8c0,.16-.26.29-.57.29h0c-.31,0-.56-.13-.56-.29l0-5.8Z"/><path class="cls-106" d="M255.32,119.46l0,3.27v.11l0,5.32c0,.05,0,.2.11.22a.35.35,0,0,0,.26.08h0a.45.45,0,0,0,.26-.08c.07,0,.11-.16.11-.2l-.05-5.34v-.14l0-3Z"/><path class="cls-107" d="M255.67,119.94l-.12,3-.12,5.17s.08.09.18.09h0c.1,0,.18,0,.18-.09l-.06-5.17Z"/></g><path class="cls-108" d="M253.75,127a3.57,3.57,0,0,0,1.62,2.8c.9.52,1.62.1,1.62-.92a3.57,3.57,0,0,0-1.62-2.8C254.47,125.56,253.75,126,253.75,127Z"/><path class="cls-109" d="M256.1,130.52h0a1.87,1.87,0,0,1-1-.29,4.05,4.05,0,0,1-1.87-3.23,1.44,1.44,0,0,1,1.39-1.64,1.87,1.87,0,0,1,1,.29,4.05,4.05,0,0,1,1.87,3.23,1.78,1.78,0,0,1-.36,1.15A1.28,1.28,0,0,1,256.1,130.52Zm-1.46-4.16c-.34,0-.39.4-.39.64a3.08,3.08,0,0,0,1.37,2.37c.57.33.67.12.73,0a.86.86,0,0,0,.14-.53,3.08,3.08,0,0,0-1.37-2.37A.92.92,0,0,0,254.64,126.36Z"/><path class="cls-110" d="M243.25,171.16h-.06a.36.36,0,0,1-.3-.28l-1.15-5.09-1.48,1.29a.35.35,0,0,1-.32.08.34.34,0,0,1-.26-.2l-3.4-6.88L233.39,162a.45.45,0,0,1-.3.05.36.36,0,0,1-.23-.19L231,158.39l-4.58,1.3a.38.38,0,0,1-.46-.26.37.37,0,0,1,.26-.46l4.86-1.39a.37.37,0,0,1,.43.18l1.86,3.37,2.9-1.92a.36.36,0,0,1,.3-.05.35.35,0,0,1,.24.2l3.37,6.82,1.6-1.38a.39.39,0,0,1,.36-.07.38.38,0,0,1,.25.27l1.08,4.81,1.92-3.11a.38.38,0,0,1,.5-.13l1.65.88,1.78-1.47a.39.39,0,0,1,.33-.07.37.37,0,0,1,.26.23l1.18,3,2.05-2.74a.38.38,0,0,1,.53-.07.37.37,0,0,1,.07.52l-2.46,3.28a.35.35,0,0,1-.35.15.4.4,0,0,1-.3-.23l-1.23-3.18-1.57,1.3a.4.4,0,0,1-.42,0l-1.56-.84L243.57,171A.38.38,0,0,1,243.25,171.16Z"/><path class="cls-111" d="M253.39,187a.36.36,0,0,1-.33-.2l-2.27-4.53-1.07.72a.38.38,0,0,1-.5-.07l-4.52-5.31-1.17,1.27a.35.35,0,0,1-.36.11.39.39,0,0,1-.28-.26l-1.12-3.91-1.91,1.48a.36.36,0,0,1-.48,0l-3-2.7-3,2a.4.4,0,0,1-.3,0,.35.35,0,0,1-.23-.18L230.94,172l-2.88.66a.37.37,0,0,1-.45-.28.37.37,0,0,1,.28-.45l3.16-.72a.36.36,0,0,1,.41.19l1.86,3.36,2.9-1.92a.38.38,0,0,1,.46,0l3,2.68,2.09-1.63a.37.37,0,0,1,.35-.06.36.36,0,0,1,.24.25l1.1,3.8,1-1.09a.37.37,0,0,1,.28-.12.37.37,0,0,1,.28.13l4.59,5.38,1.15-.77a.36.36,0,0,1,.3-.05.35.35,0,0,1,.24.19l2.46,4.91a.37.37,0,0,1-.17.5A.33.33,0,0,1,253.39,187Z"/><polygon points="256.81 173.39 259.46 170.55 262.11 176.46 256.81 173.39"/><polygon class="cls-112" points="262.11 186.89 259.46 189.72 256.81 183.82 262.11 186.89"/><g class="cls-113"><path class="cls-114" d="M164.69,103.3h0V96.4c-7.7,4.44-14.39,13.11-17.77,23l5.39-.09C154.56,112.77,159.25,106.44,164.69,103.3Z"/><path class="cls-114" d="M164.69,134.9c-7.61,4.39-13.77.87-13.77-7.85a24,24,0,0,1,1.4-7.74l-5.39.09c-2,5.77-2.49,10.66-1.64,15.23,2.09,11.1,12.47,13.14,23.19,4.56l-1.15-6.11A22.22,22.22,0,0,1,164.69,134.9Z"/><path class="cls-114" d="M167.33,133.08l1.15,6.11a38.34,38.34,0,0,0,6.7-6.91l-3.19-4A28,28,0,0,1,167.33,133.08Z"/><path class="cls-114" d="M172,128.27l3.19,4a44.7,44.7,0,0,0,8.62-18.35L178,115.5A32.19,32.19,0,0,1,172,128.27Z"/><path class="cls-114" d="M164.7,96.4v6.89c7.6-4.37,13.75-.86,13.75,7.86a21.89,21.89,0,0,1-.46,4.35l5.81-1.57a27.86,27.86,0,0,0,.68-6.26C184.48,95.14,175.63,90.09,164.7,96.4Z"/></g><path class="cls-55" d="M147.62,169.28l-2.86,1.66V169l2.86-1.65v-3.31l1.67-1v3.31l2.86-1.66v1.92l-2.86,1.65v3.36l-1.67,1Z"/><path class="cls-55" d="M153.57,171.62a11.33,11.33,0,0,1,.51-3.45,21.85,21.85,0,0,1,1.84-4,25.91,25.91,0,0,0,1.8-3.76,7.88,7.88,0,0,0,.51-2.65c0-.74-.11-1.19-.31-1.35s-.51-.14-.91.09a2.53,2.53,0,0,0-1.22,2.4v1.84l-2.22,1.28v-1.67a7.58,7.58,0,0,1,.89-3.72,6.77,6.77,0,0,1,2.61-2.62q1.71-1,2.61-.39c.6.4.9,1.29.9,2.68a10.46,10.46,0,0,1-.66,3.45,30.63,30.63,0,0,1-2.25,4.73,21.66,21.66,0,0,0-1.41,2.89,5.69,5.69,0,0,0-.36,1.92v.36l4.46-2.58v2.46l-6.79,3.92Z"/><path class="cls-55" d="M162.16,165.92l2.26-1.31v2.6l-2.26,1.31Z"/><path class="cls-55" d="M170.11,160.81l-4.49,2.6V161l4.28-14.07,2.56-1.48V157l1.11-.64v2.45l-1.11.65v3.11l-2.35,1.36Zm0-2.45v-6.7l0,0-2.31,8Z"/><path class="cls-55" d="M175.18,152.66c-.39-.25-.58-.82-.58-1.7v-4.29a4.76,4.76,0,0,1,.58-2.37,4.29,4.29,0,0,1,1.69-1.69c.74-.43,1.3-.51,1.68-.26s.58.82.58,1.7v4.29a4.73,4.73,0,0,1-.58,2.37,4.33,4.33,0,0,1-1.68,1.69C176.12,152.83,175.56,152.92,175.18,152.66Zm2.46-3.33v-4.54c0-.72-.26-.93-.77-.63a1.59,1.59,0,0,0-.77,1.52v4.54c0,.72.25.93.77.63A1.61,1.61,0,0,0,177.64,149.33Zm4.66-9.61,1.49-.86L178,159.37l-1.5.87Zm-.56,17c-.38-.25-.58-.82-.58-1.7v-4.3a4.89,4.89,0,0,1,.58-2.37,4.47,4.47,0,0,1,1.69-1.68c.74-.43,1.3-.52,1.69-.27s.58.82.58,1.71v4.29a4.89,4.89,0,0,1-.58,2.37,4.49,4.49,0,0,1-1.69,1.69C182.69,156.91,182.13,157,181.74,156.75Zm2.46-3.33v-4.54c0-.72-.26-.93-.77-.64a1.63,1.63,0,0,0-.77,1.53v4.53c0,.72.26.94.77.64A1.62,1.62,0,0,0,184.2,153.42Z"/><g class="cls-115"><polygon class="cls-116" points="121.31 273.01 133.64 280.13 139.61 276.69 127.27 269.56 121.31 273.01"/><polygon class="cls-117" points="130.51 267.69 142.85 274.81 149.47 270.99 137.13 263.87 130.51 267.69"/><polygon class="cls-118" points="102.89 283.64 115.22 290.76 119.88 288.07 107.55 280.95 102.89 283.64"/><polygon class="cls-119" points="96.63 287.29 108.97 294.42 111.37 293.23 99.03 286.1 96.63 287.29"/><polygon class="cls-120" points="112.1 278.32 124.43 285.45 129.75 282.38 117.41 275.26 112.1 278.32"/><polygon class="cls-121" points="129.55 255.79 163.06 275.13 169.37 252.14 129.55 255.79"/></g><polygon class="cls-122" points="34.28 130.76 32.45 131.83 32.45 126.64 31.78 127.03 31.78 132.22 29.95 133.28 29.95 136.5 31.78 135.43 31.78 145.04 32.45 144.66 32.45 135.05 34.28 133.98 34.28 130.76"/><polygon class="cls-123" points="40.37 120.89 38.54 121.95 38.54 120.13 37.87 120.52 37.87 122.34 36.04 123.41 36.04 131.28 37.87 130.22 37.87 137.43 38.54 137.04 38.54 129.83 40.37 128.77 40.37 120.89"/><polygon class="cls-124" points="46.46 121.64 44.63 122.7 44.63 119.1 43.96 119.48 43.96 123.09 42.13 124.15 42.13 145.47 43.96 144.41 43.96 152.23 44.63 151.84 44.63 144.02 46.46 142.96 46.46 121.64"/><polygon class="cls-125" points="52.55 138.26 50.71 139.32 50.71 130.48 50.05 130.87 50.05 139.71 48.21 140.77 48.21 152.16 50.05 151.1 50.05 161.57 50.71 161.18 50.71 150.71 52.55 149.65 52.55 138.26"/><polygon class="cls-126" points="58.63 141.69 56.8 142.75 56.8 138.62 56.13 139.01 56.13 143.14 54.3 144.2 54.3 156.29 56.13 155.22 56.13 165.7 56.8 165.31 56.8 154.84 58.63 153.77 58.63 141.69"/><polygon class="cls-127" points="64.72 142.03 62.89 143.09 62.89 137.61 62.22 138 62.22 143.48 60.39 144.54 60.39 152.76 62.22 151.69 62.22 164.81 62.89 164.42 62.89 151.31 64.72 150.24 64.72 142.03"/><polygon class="cls-128" points="70.81 126.82 68.97 127.88 68.97 123.42 68.31 123.8 68.31 128.27 66.47 129.33 66.47 153.84 68.31 152.77 68.31 162 68.97 161.61 68.97 152.39 70.81 151.32 70.81 126.82"/><polygon class="cls-129" points="76.89 123.19 75.06 124.25 75.06 114.45 74.39 114.84 74.39 124.64 72.56 125.7 72.56 134.78 74.39 133.72 74.39 138.47 75.06 138.09 75.06 133.33 76.89 132.27 76.89 123.19"/><polygon class="cls-130" points="82.98 127.92 81.15 128.99 81.15 121.49 80.48 121.88 80.48 129.38 78.65 130.44 78.65 141.03 80.48 139.97 80.48 145.45 81.15 145.06 81.15 139.58 82.98 138.52 82.98 127.92"/><polygon class="cls-131" points="89.07 133.47 87.24 134.54 87.24 123.73 86.57 124.11 86.57 134.92 84.74 135.99 84.74 160.3 86.57 159.24 86.57 174.17 87.24 173.78 87.24 158.85 89.07 157.78 89.07 133.47"/><polygon class="cls-132" points="95.16 142.34 93.32 143.4 93.32 137.2 92.66 137.59 92.66 143.79 90.82 144.85 90.82 172.47 92.66 171.4 92.66 178.75 93.32 178.37 93.32 171.02 95.16 169.95 95.16 142.34"/><polygon class="cls-133" points="101.24 135.72 99.41 136.78 99.41 130.59 98.74 130.97 98.74 137.17 96.91 138.24 96.91 150.49 98.74 149.43 98.74 151.1 99.41 150.72 99.41 149.04 101.24 147.97 101.24 135.72"/><polygon class="cls-134" points="107.33 112.26 105.5 113.33 105.5 108.28 104.83 108.67 104.83 113.71 103 114.78 103 137.36 104.83 136.29 104.83 142.63 105.5 142.25 105.5 135.91 107.33 134.84 107.33 112.26"/><polygon class="cls-135" points="113.42 106.38 111.59 107.44 111.59 105.57 110.92 105.96 110.92 107.83 109.09 108.89 109.09 119.27 110.92 118.21 110.92 124.26 111.59 123.88 111.59 117.82 113.42 116.76 113.42 106.38"/><polygon class="cls-136" points="119.51 87.54 117.67 88.6 117.67 83.13 117.01 83.51 117.01 88.99 115.17 90.05 115.17 107.44 117.01 106.38 117.01 112.14 117.67 111.76 117.67 105.99 119.51 104.93 119.51 87.54"/><polygon class="cls-137" points="125.59 69.48 123.76 70.54 123.76 66.36 123.09 66.75 123.09 70.93 121.26 71.99 121.26 89.32 123.09 88.25 123.09 103.67 123.76 103.28 123.76 87.87 125.59 86.8 125.59 69.48"/><polygon class="cls-138" points="131.68 51.95 129.85 53.01 129.85 48.97 129.18 49.36 129.18 53.4 127.35 54.46 127.35 84.5 129.18 83.44 129.18 90.88 129.85 90.5 129.85 83.05 131.68 81.99 131.68 51.95"/><polygon class="cls-139" points="137.77 54.39 135.94 55.45 135.94 49.26 135.27 49.64 135.27 55.84 133.44 56.91 133.44 63.87 135.27 62.81 135.27 68.28 135.94 67.9 135.94 62.42 137.77 61.36 137.77 54.39"/><polygon class="cls-140" points="143.86 55.1 142.02 56.16 142.02 49.97 141.36 50.35 141.36 56.55 139.52 57.61 139.52 73.32 141.36 72.26 141.36 75.29 142.02 74.9 142.02 71.87 143.86 70.81 143.86 55.1"/><polygon class="cls-141" points="149.94 52.38 148.11 53.44 148.11 47.24 147.44 47.63 147.44 53.83 145.61 54.89 145.61 59.22 147.44 58.15 147.44 63.63 148.11 63.24 148.11 57.77 149.94 56.7 149.94 52.38"/><polygon class="cls-142" points="156.03 43.95 154.2 45.02 154.2 43.14 153.53 43.53 153.53 45.41 151.7 46.47 151.7 71.59 153.53 70.53 153.53 76.83 154.2 76.44 154.2 70.14 156.03 69.08 156.03 43.95"/><polygon class="cls-143" points="162.12 49.08 160.28 50.14 160.28 46.25 159.62 46.63 159.62 50.52 157.78 51.59 157.78 64.85 159.62 63.78 159.62 73.3 160.28 72.91 160.28 63.4 162.12 62.33 162.12 49.08"/><path class="cls-144" d="M27.63,108.31a.42.42,0,0,1-.37-.22.45.45,0,0,1,.15-.6L163.2,28.57a.43.43,0,0,1,.59.16.44.44,0,0,1-.16.6L27.85,108.25A.43.43,0,0,1,27.63,108.31Z"/><path class="cls-144" d="M27.63,120a.42.42,0,0,1-.37-.21.45.45,0,0,1,.15-.6L163.2,40.26a.43.43,0,0,1,.59.16.44.44,0,0,1-.16.6L27.85,119.94A.42.42,0,0,1,27.63,120Z"/><path class="cls-144" d="M27.63,131.39a.42.42,0,0,1-.37-.22.45.45,0,0,1,.15-.6L163.2,51.65a.43.43,0,0,1,.59.16.44.44,0,0,1-.16.6L27.85,131.33A.43.43,0,0,1,27.63,131.39Z"/><path class="cls-144" d="M27.63,143.07a.42.42,0,0,1-.37-.22.45.45,0,0,1,.15-.6L163.2,63.34a.42.42,0,0,1,.59.15.44.44,0,0,1-.16.6L27.85,143A.43.43,0,0,1,27.63,143.07Z"/><path class="cls-144" d="M27.63,154.32a.42.42,0,0,1-.37-.22.45.45,0,0,1,.15-.6L163.2,74.58a.43.43,0,0,1,.59.16.44.44,0,0,1-.16.6L27.85,154.26A.43.43,0,0,1,27.63,154.32Z"/><path class="cls-144" d="M27.63,166a.42.42,0,0,1-.37-.22.43.43,0,0,1,.15-.59L163.2,86.27a.42.42,0,0,1,.59.16.43.43,0,0,1-.16.59L27.85,165.94A.43.43,0,0,1,27.63,166Z"/><path class="cls-144" d="M27.63,177.54a.42.42,0,0,1-.37-.22.45.45,0,0,1,.15-.6L163.2,97.81a.42.42,0,0,1,.59.15.44.44,0,0,1-.16.6L27.85,177.48A.43.43,0,0,1,27.63,177.54Z"/><path class="cls-144" d="M27.63,189.65a.42.42,0,0,1-.37-.22.45.45,0,0,1,.15-.6L163.2,109.91a.43.43,0,0,1,.59.16.44.44,0,0,1-.16.6L27.85,189.59A.43.43,0,0,1,27.63,189.65Z"/><path class="cls-144" d="M27.63,201.33a.42.42,0,0,1-.37-.22.45.45,0,0,1,.15-.6L163.2,121.6a.41.41,0,0,1,.59.16.43.43,0,0,1-.16.59L27.85,201.27A.43.43,0,0,1,27.63,201.33Z"/><path class="cls-144" d="M27.63,212.87a.42.42,0,0,1-.37-.22.45.45,0,0,1,.15-.6L163.2,133.13a.43.43,0,0,1,.59.16.44.44,0,0,1-.16.6L27.85,212.81A.43.43,0,0,1,27.63,212.87Z"/><polygon class="cls-145" points="273.29 123.1 276.54 121.24 276.54 142.81 273.29 144.67 273.29 123.1"/><polygon class="cls-146" points="273.29 123.1 276.54 121.24 276.54 142.81 273.29 141.33 273.29 123.1"/></g></g></g></svg>