<svg width="178" height="459" viewBox="0 0 178 459" fill="none" xmlns="http://www.w3.org/2000/svg">
<g clip-path="url(#clip0_245_4646)">
<path d="M153.953 450.751L35.5845 382.381C22.2339 374.719 11.4104 353.981 11.4104 336.154V20.8149C11.4104 11.7483 3.9821 9.75619 8.50039 6.51265C8.65355 6.38495 19.043 1.66008 19.2472 1.58346C21.8403 0.393682 24.6853 -0.142279 27.5333 0.0224553C30.3814 0.187189 33.1457 1.04763 35.5845 2.52846L153.953 70.8983C167.304 78.5602 178.127 99.2985 178.127 117.1V432.464C178.127 441.914 175.064 448.656 170.189 451.747C169.908 451.925 157.425 457.902 157.068 458.004C152.626 459.562 159.646 454.122 153.953 450.751Z" fill="url(#paint0_linear_245_4646)"/>
<path style="mix-blend-mode:color-dodge" d="M152.728 71.358L34.3849 2.98813C28.0797 -0.638507 146.193 73.5544 146.193 73.5544C159.544 81.2163 170.367 101.955 170.367 119.756C170.367 119.756 176.902 442.374 176.902 432.924V117.483C176.928 99.656 166.079 79.0199 152.728 71.358Z" fill="url(#paint1_radial_245_4646)"/>
<path style="mix-blend-mode:screen" opacity="0.6" d="M144.636 454.939L26.3183 386.569C12.9677 378.907 2.14429 358.169 2.14429 340.368V25.0289C2.14429 7.15113 12.9677 -0.970513 26.3183 6.74249L144.687 75.1124C158.038 82.7743 168.861 103.513 168.861 121.314V436.576C168.81 454.454 157.987 462.652 144.636 454.939Z" fill="url(#paint2_radial_245_4646)"/>
<path d="M142.517 456.088L24.174 387.719C10.8234 380.057 0 359.318 0 341.517V26.1527C0 8.2749 10.8234 0.178797 24.174 7.86626L142.517 76.2361C155.868 83.898 166.691 104.636 166.691 122.463V437.802C166.717 455.603 155.868 463.801 142.517 456.088Z" fill="url(#paint3_linear_245_4646)"/>
<path d="M3.34399 343.612V27.9405C3.34399 12.3357 12.84 5.15903 24.5314 11.9271L142.262 79.9138C153.953 86.6819 163.449 104.815 163.449 120.42V436.091C163.449 451.696 153.953 458.872 142.262 452.13L24.5314 384.118C12.789 377.349 3.34399 359.216 3.34399 343.612Z" fill="url(#paint4_linear_245_4646)"/>
<path d="M7.98999 345.527V31.3884C7.98999 18.312 15.9545 12.3102 25.7313 17.98L140.96 84.5365C150.737 90.1808 158.829 105.377 158.829 118.428V432.566C158.829 445.643 150.865 451.645 140.96 445.975L25.7313 379.444C15.9545 373.774 7.98999 358.603 7.98999 345.527Z" fill="url(#paint5_linear_245_4646)"/>
<path d="M27.0842 21.4534C17.8434 16.1156 10.364 20.3807 10.364 30.9797V348.643C10.6864 354.43 12.3685 360.059 15.2737 365.074C18.1789 370.088 22.2252 374.347 27.0842 377.503L139.607 442.501C148.848 447.839 156.328 443.574 156.328 432.975V115.312C156.005 109.525 154.323 103.895 151.418 98.8809C148.513 93.8664 144.466 89.6081 139.607 86.452L27.0842 21.4534Z" fill="url(#paint6_linear_245_4646)"/>
<g style="mix-blend-mode:multiply">
<path d="M8.64404 224.301L156 309.465V184.002L8.64404 98.8123V224.301Z" fill="#B086CC"/>
</g>
<path d="M130.053 108.255L144.817 116.795C145.384 117.104 145.822 116.795 145.822 116.201C145.806 115.85 145.706 115.508 145.531 115.203C145.356 114.898 145.112 114.639 144.817 114.447L130.053 105.933C129.512 105.598 129.049 105.933 129.049 106.501C129.069 106.851 129.171 107.192 129.345 107.496C129.52 107.8 129.762 108.06 130.053 108.255ZM144.817 119.71L130.053 111.17C129.512 110.861 129.049 111.17 129.049 111.764C129.071 112.113 129.174 112.453 129.348 112.758C129.522 113.062 129.763 113.322 130.053 113.518L144.817 122.058C145.384 122.367 145.822 122.058 145.822 121.464C145.806 121.113 145.706 120.771 145.531 120.466C145.356 120.161 145.112 119.902 144.817 119.71ZM144.817 124.87L130.053 116.433C129.512 116.124 129.049 116.433 129.049 117.027C129.071 117.377 129.174 117.717 129.348 118.021C129.522 118.325 129.763 118.585 130.053 118.781L144.817 127.295C145.384 127.63 145.822 127.295 145.822 126.727C145.808 126.376 145.709 126.033 145.534 125.727C145.359 125.422 145.113 125.163 144.817 124.973V124.87Z" fill="white"/>
<path d="M38.9824 58.7705C39.9406 58.2096 39.9373 56.4186 38.975 54.7702C38.0126 53.1219 36.4556 52.2404 35.4974 52.8013C34.5392 53.3622 34.5426 55.1531 35.5049 56.8014C36.4673 58.4497 38.0241 59.3314 38.9824 58.7705Z" fill="white"/>
<path d="M32.2715 52.9408C32.2715 54.4888 31.1635 55.108 29.8237 54.334C29.0876 53.8864 28.4696 53.2686 28.0213 52.5324C27.573 51.7962 27.3074 50.9631 27.2471 50.1029C27.2471 48.5291 28.355 47.9099 29.8237 48.6839C30.5335 49.1547 31.1242 49.7844 31.549 50.5233C31.9738 51.2621 32.2212 52.0898 32.2715 52.9408Z" fill="white"/>
<path d="M24.8508 48.6323C24.8508 50.1803 23.7686 50.7995 22.403 50.0255C21.6621 49.5771 21.0407 48.9556 20.592 48.2143C20.1433 47.4729 19.8806 46.6338 19.8264 45.7686C19.8264 44.2206 20.9086 43.6015 22.403 44.3754C23.1171 44.8417 23.7112 45.4704 24.1365 46.2102C24.5619 46.9499 24.8066 47.7799 24.8508 48.6323Z" fill="white"/>
<path d="M46.6491 278.325L18.8218 262.2V258.331L46.6491 274.455V278.325Z" fill="url(#paint7_linear_245_4646)"/>
<g style="mix-blend-mode:screen" opacity="0.7">
<path d="M154.995 308.278L153.552 307.427L8 223.269V99.7153L154.866 184.699L154.995 308.278ZM9.93245 222.16L153.063 304.924V185.808L9.93245 103.069V222.16Z" fill="#FFA80F" fill-opacity="0.980392"/>
<path d="M23.6656 109.803H21.7332V230.493H23.6656V109.803Z" fill="#FFA80F" fill-opacity="0.980392"/>
<path d="M40.2332 119.323H38.3008V240.09H40.2332V119.323Z" fill="#FFA80F" fill-opacity="0.980392"/>
<path d="M56.8009 128.843H54.8684V249.662H56.8009V128.843Z" fill="#FFA80F" fill-opacity="0.980392"/>
<path d="M73.3941 138.363H71.4617V259.259H73.3941V138.363Z" fill="#FFA80F" fill-opacity="0.980392"/>
<path d="M89.9617 147.883H88.0293V268.857H89.9617V147.883Z" fill="#FFA80F" fill-opacity="0.980392"/>
<path d="M106.529 157.403H104.597V278.428H106.529V157.403Z" fill="#FFA80F" fill-opacity="0.980392"/>
<path d="M123.097 166.923H121.164V288.026H123.097V166.923Z" fill="#FFA80F" fill-opacity="0.980392"/>
<path d="M139.664 176.469H137.732V297.623H139.664V176.469Z" fill="#FFA80F" fill-opacity="0.980392"/>
<path d="M9.4528 118.825L8.48657 120.501L153.572 204.375L154.539 202.699L9.4528 118.825Z" fill="#FFA80F" fill-opacity="0.980392"/>
<path d="M9.45036 135.969L8.48413 137.644L153.57 221.519L154.536 219.843L9.45036 135.969Z" fill="#FFA80F" fill-opacity="0.980392"/>
<path d="M9.44816 153.138L8.48193 154.814L153.568 238.688L154.534 237.012L9.44816 153.138Z" fill="#FFA80F" fill-opacity="0.980392"/>
<path d="M9.44572 170.282L8.47949 171.958L153.565 255.832L154.532 254.156L9.44572 170.282Z" fill="#FFA80F" fill-opacity="0.980392"/>
<path d="M9.44669 187.413L8.48047 189.089L153.566 272.963L154.533 271.287L9.44669 187.413Z" fill="#FFA80F" fill-opacity="0.980392"/>
<path d="M9.44425 204.582L8.47803 206.258L153.564 290.132L154.53 288.457L9.44425 204.582Z" fill="#FFA80F" fill-opacity="0.980392"/>
</g>
<path d="M38.9708 280.802L18.8218 269.037V266.561L38.9708 278.325V280.802Z" fill="#FFA80F" fill-opacity="0.980392"/>
<path d="M38.9708 285.343L18.8218 273.578V271.101L38.9708 282.84V285.343Z" fill="#FFA80F" fill-opacity="0.980392"/>
<path d="M46.6491 307.995L18.8218 291.87V288L46.6491 304.125V307.995Z" fill="url(#paint8_linear_245_4646)"/>
<path d="M38.9708 310.471L18.8218 298.707V296.23L38.9708 307.995V310.471Z" fill="#FFA80F" fill-opacity="0.980392"/>
<path d="M38.9708 315.012L18.8218 303.247V300.771L38.9708 312.509V315.012Z" fill="#FFA80F" fill-opacity="0.980392"/>
<g style="mix-blend-mode:multiply">
<path d="M139.098 93.0074L25.4951 27.322C16.1936 21.9299 8.61841 26.2384 8.61841 36.9451V357.865C8.94979 363.706 10.6504 369.387 13.5824 374.447C16.5145 379.507 20.5955 383.805 25.4951 386.993L139.098 452.678C148.425 458.044 155.974 453.736 155.974 443.029V122.135C155.651 116.292 153.954 110.608 151.021 105.547C148.088 100.485 144.003 96.1885 139.098 93.0074ZM154.557 443.029C154.709 445.845 153.921 448.632 152.316 450.949C151.642 451.779 150.788 452.442 149.819 452.89C148.85 453.337 147.791 453.556 146.724 453.529C144.302 453.418 141.949 452.68 139.896 451.388L26.2939 385.728C21.6058 382.68 17.7005 378.569 14.8938 373.728C12.0872 368.887 10.4583 363.453 10.1387 357.865V36.9451C10.1387 30.4953 13.1533 26.4706 17.8685 26.4706C20.2956 26.5802 22.6546 27.3084 24.7222 28.5861L138.325 94.2716C143.008 97.3232 146.908 101.435 149.71 106.276C152.512 111.116 154.137 116.549 154.454 122.135L154.557 443.029Z" fill="#BCBEC0"/>
</g>
<g style="mix-blend-mode:multiply" opacity="0.3">
<path opacity="0.09" d="M34.2813 329.847C28.6127 326.57 23.9749 329.202 23.9749 335.703V350.048C24.1791 353.602 25.2192 357.058 27.0102 360.133C28.8012 363.209 31.2926 365.818 34.2813 367.746L71.4358 389.418C77.0786 392.694 83.7521 389.753 83.7521 383.252V368.804C83.7521 362.303 77.0786 354.717 71.4358 351.441L34.2813 329.847Z" fill="url(#paint9_linear_245_4646)"/>
<path opacity="0.18" d="M33.9722 330.234C28.3294 326.983 23.6658 329.589 23.6658 336.039V349.686C23.8716 353.226 24.9131 356.667 26.7047 359.726C28.4964 362.784 30.987 365.374 33.9722 367.282L70.7918 388.773C76.4087 392.023 82.8502 389.134 82.8502 382.658V369.01C82.8502 362.56 76.4087 354.95 70.7918 351.699L33.9722 330.234Z" fill="url(#paint10_linear_245_4646)"/>
<path opacity="0.27" d="M33.663 330.698C28.0461 327.447 23.5112 330.027 23.5112 336.477V349.377C23.7098 352.89 24.7325 356.307 26.4962 359.351C28.26 362.394 30.7154 364.979 33.663 366.895L70.1477 388.179C75.7389 391.404 81.9485 388.541 81.9485 382.116V369.217C81.9485 362.793 75.7389 355.208 70.1477 351.957L33.663 330.698Z" fill="url(#paint11_linear_245_4646)"/>
<path opacity="0.36" d="M33.3537 331.137C27.7882 327.912 23.2534 330.492 23.2534 336.916V349.093C23.4541 352.589 24.4728 355.989 26.2273 359.019C27.9817 362.048 30.4228 364.623 33.3537 366.534L69.4261 387.612C74.9915 390.837 80.9694 388.025 80.9694 381.626V369.449C80.9694 363.025 74.9915 355.466 69.4261 352.241L33.3537 331.137Z" fill="url(#paint12_linear_245_4646)"/>
<path opacity="0.45" d="M33.0445 331.601C27.5048 328.402 22.9958 330.956 22.9958 337.329V348.809C23.1925 352.287 24.2048 355.668 25.9507 358.681C27.6966 361.693 30.1268 364.251 33.0445 366.147L68.8593 387.044C74.399 390.243 80.1449 387.483 80.1449 381.11V369.655C80.1449 363.283 74.399 355.698 68.8593 352.499L33.0445 331.601Z" fill="url(#paint13_linear_245_4646)"/>
<path opacity="0.55" d="M32.7353 332.065C27.2213 328.866 22.738 331.421 22.738 337.767V348.5C22.9307 351.961 23.9365 355.329 25.6737 358.328C27.4108 361.327 29.8302 363.873 32.7353 365.76L68.2151 386.606C73.729 389.779 79.2431 387.07 79.2431 380.723V369.991C79.2431 363.644 73.729 356.085 68.2151 352.886L32.7353 332.065Z" fill="url(#paint14_linear_245_4646)"/>
<path opacity="0.64" d="M32.4262 332.427C26.938 329.253 22.5063 331.782 22.5063 338.103V348.113C22.6942 351.556 23.6902 354.906 25.4138 357.892C27.1374 360.877 29.5399 363.414 32.4262 365.295L67.5711 385.78C73.0593 388.953 78.3413 386.296 78.3413 379.975V369.965C78.3413 363.644 73.1881 356.085 67.5711 352.911L32.4262 332.427Z" fill="url(#paint15_linear_245_4646)"/>
<path opacity="0.73" d="M32.1428 332.994C26.6804 329.821 22.2485 332.349 22.2485 338.619V347.906C22.4412 351.331 23.4376 354.663 25.1566 357.63C26.8757 360.598 29.2691 363.118 32.1428 364.986L66.9269 385.29C72.3893 388.437 77.4395 385.832 77.4395 379.537V370.249C77.1247 366.796 76.0106 363.464 74.1858 360.517C72.3611 357.571 69.8757 355.09 66.9269 353.273L32.1428 332.994Z" fill="url(#paint16_linear_245_4646)"/>
<path opacity="0.82" d="M31.8336 333.433C26.397 330.311 21.991 332.814 21.991 339.057V347.623C22.1817 351.032 23.1723 354.348 24.8824 357.302C26.5925 360.256 28.974 362.764 31.8336 364.624L66.2828 384.748C71.7194 387.896 76.5892 385.29 76.5892 379.046V370.481C76.3111 367.05 75.234 363.732 73.4442 360.793C71.6544 357.853 69.2017 355.375 66.2828 353.556L31.8336 333.433Z" fill="url(#paint17_linear_245_4646)"/>
<path opacity="0.91" d="M31.5245 333.897C26.1136 330.776 21.7334 333.278 21.7334 339.496V347.236C21.9221 350.625 22.9071 353.922 24.6085 356.859C26.3098 359.795 28.6794 362.288 31.5245 364.134L65.6386 384.155C71.0495 387.302 75.6359 384.748 75.6359 378.53V370.79C75.4042 367.391 74.3788 364.093 72.6425 361.163C70.9062 358.232 68.5073 355.751 65.6386 353.918L31.5245 333.897Z" fill="url(#paint18_linear_245_4646)"/>
<path d="M31.2152 334.362C25.8301 331.24 21.4756 333.742 21.4756 339.934V347.029C21.6624 350.406 22.6416 353.691 24.3338 356.619C26.0261 359.546 28.3837 362.032 31.2152 363.876L64.9944 383.587C70.3795 386.709 74.7341 384.206 74.7341 378.014V370.92C74.5472 367.543 73.5678 364.257 71.8756 361.33C70.1834 358.403 67.826 355.917 64.9944 354.072L31.2152 334.362Z" fill="url(#paint19_linear_245_4646)"/>
</g>
<path d="M71.5132 389.469L28.3551 364.315C25.7816 362.468 23.6764 360.042 22.2087 357.233C20.7409 354.423 19.9515 351.309 19.9038 348.139V338.98C19.9038 332.762 23.6915 329.872 28.3551 332.581L71.5132 357.71C74.0838 359.56 76.1868 361.986 77.6542 364.795C79.1216 367.604 79.9127 370.717 79.9644 373.886V383.045C79.9644 389.185 76.1769 392.152 71.5132 389.469Z" fill="url(#paint20_linear_245_4646)"/>
<path style="mix-blend-mode:color-dodge" d="M71.5132 357.71L28.3551 332.581C23.6915 329.872 19.9038 332.762 19.9038 338.98V339.934C19.9038 333.717 23.6915 330.827 28.3551 333.51L71.5132 358.665C74.0868 360.512 76.1918 362.937 77.6595 365.747C79.1273 368.556 79.9167 371.671 79.9644 374.841V373.886C79.9127 370.717 79.1216 367.604 77.6542 364.795C76.1868 361.986 74.0838 359.56 71.5132 357.71Z" fill="url(#paint21_radial_245_4646)"/>
<g style="mix-blend-mode:multiply" opacity="0.3">
<path opacity="0.09" d="M97.2534 366.405C91.5849 363.128 86.947 365.76 86.947 372.261V386.606C87.1491 390.157 88.1884 393.61 89.9798 396.682C91.7713 399.753 94.2638 402.357 97.2534 404.278L134.408 425.95C140.077 429.226 146.724 426.285 146.724 419.784V405.439C146.724 398.938 140.077 391.353 134.408 388.076L97.2534 366.405Z" fill="url(#paint22_linear_245_4646)"/>
<path opacity="0.18" d="M96.9445 366.869C91.3275 363.618 86.7668 366.224 86.7668 372.7V386.322C86.9646 389.852 87.9888 393.287 89.7567 396.348C91.5247 399.409 93.987 402.01 96.9445 403.943L133.764 425.305C139.407 428.556 145.823 425.666 145.823 419.19V405.568C145.823 399.093 139.407 391.507 133.764 388.231L96.9445 366.869Z" fill="url(#paint23_linear_245_4646)"/>
<path opacity="0.27" d="M96.5579 367.333C90.9667 364.083 86.4319 366.688 86.4319 373.112V386.012C86.6296 389.523 87.6492 392.937 89.4082 395.98C91.1673 399.023 93.6164 401.61 96.5579 403.53L133.043 424.815C138.66 428.04 144.843 425.202 144.843 418.752V405.852C144.843 399.402 138.66 391.817 133.043 388.592L96.5579 367.333Z" fill="url(#paint24_linear_245_4646)"/>
<path opacity="0.36" d="M96.3259 367.798C90.7604 364.573 86.2515 367.153 86.2515 373.551V385.728C86.4432 389.224 87.4554 392.625 89.2058 395.655C90.9563 398.685 93.3956 401.26 96.3259 403.169L132.398 424.273C137.99 427.472 143.942 424.686 143.942 418.262V406.084C143.942 399.686 137.99 392.101 132.398 388.876L96.3259 367.798Z" fill="url(#paint25_linear_245_4646)"/>
<path opacity="0.45" d="M96.0425 368.236C90.4771 365.037 85.9939 367.617 85.9939 373.99V385.445C86.1844 388.923 87.1941 392.307 88.9405 395.321C90.687 398.334 93.1206 400.89 96.0425 402.782L131.832 423.679C137.397 426.904 143.117 424.118 143.117 417.746V406.291C143.117 399.918 137.397 392.333 131.832 389.134L96.0425 368.236Z" fill="url(#paint26_linear_245_4646)"/>
<path opacity="0.55" d="M95.7333 368.701C90.2194 365.502 85.7361 368.082 85.7361 374.402V385.161C85.9348 388.621 86.9432 391.986 88.6797 394.984C90.4163 397.982 92.8325 400.53 95.7333 402.421L131.187 423.06C136.701 426.259 142.215 423.525 142.215 417.178V406.445C142.215 400.099 136.701 392.539 131.187 389.34L95.7333 368.701Z" fill="url(#paint27_linear_245_4646)"/>
<path opacity="0.64" d="M95.4242 369.165C89.936 365.992 85.4785 368.52 85.4785 374.841V384.851C85.6712 388.296 86.6722 391.647 88.4002 394.633C90.1282 397.618 92.5345 400.154 95.4242 402.034L130.543 422.544C136.031 425.718 141.313 423.034 141.313 416.714V406.703C141.313 400.408 136.16 392.849 130.543 389.676L95.4242 369.165Z" fill="url(#paint28_linear_245_4646)"/>
<path opacity="0.73" d="M95.1149 369.63C89.6525 366.456 85.2207 368.984 85.2207 375.28V384.567C85.4134 387.992 86.4098 391.324 88.1288 394.291C89.8479 397.259 92.2413 399.779 95.1149 401.647L129.899 421.951C135.361 425.124 140.412 422.493 140.412 416.223V406.91C140.097 403.457 138.983 400.125 137.158 397.178C135.333 394.232 132.848 391.751 129.899 389.934L95.1149 369.63Z" fill="url(#paint29_linear_245_4646)"/>
<path opacity="0.82" d="M94.8058 370.094C89.3691 366.946 84.9631 369.449 84.9631 375.692V384.258C85.1478 387.668 86.1357 390.987 87.8464 393.942C89.5571 396.897 91.9419 399.404 94.8058 401.26L129.255 421.383C134.692 424.531 139.561 421.951 139.561 415.707V407.245C139.287 403.81 138.212 400.486 136.422 397.542C134.632 394.599 132.177 392.116 129.255 390.295L94.8058 370.094Z" fill="url(#paint30_linear_245_4646)"/>
<path opacity="0.91" d="M94.4966 370.532C89.0858 367.411 84.7056 369.913 84.7056 376.131V383.871C84.8964 387.263 85.882 390.563 87.583 393.504C89.284 396.444 91.6525 398.942 94.4966 400.795L128.611 420.712C134.022 423.834 138.608 421.306 138.608 415.088V407.348C138.376 403.945 137.351 400.644 135.615 397.709C133.879 394.775 131.48 392.288 128.611 390.45L94.4966 370.532Z" fill="url(#paint31_linear_245_4646)"/>
<path d="M94.1874 371.126C88.8281 368.03 84.4478 370.507 84.4478 376.699V383.819C84.6446 387.19 85.6284 390.468 87.3199 393.39C89.0113 396.311 91.3635 398.794 94.1874 400.641L127.967 420.145C133.352 423.267 137.732 420.764 137.732 414.598V407.477C137.542 404.102 136.559 400.818 134.862 397.895C133.165 394.972 130.802 392.492 127.967 390.656L94.1874 371.126Z" fill="url(#paint32_linear_245_4646)"/>
</g>
<path d="M134.511 426.105L91.4047 400.95C88.8356 399.099 86.7336 396.672 85.2664 393.864C83.7992 391.055 83.0071 387.943 82.9534 384.774V375.615C82.9534 369.397 86.7668 366.534 91.4047 369.217L134.511 394.345C137.076 396.201 139.175 398.628 140.641 401.436C142.108 404.243 142.903 407.354 142.963 410.522V419.706C142.937 425.898 139.149 428.788 134.511 426.105Z" fill="url(#paint33_linear_245_4646)"/>
<path style="mix-blend-mode:color-dodge" d="M134.511 394.345L91.4047 369.217C86.7668 366.637 82.9534 369.397 82.9534 375.615V376.57C82.9534 370.352 86.7668 367.488 91.4047 370.171L134.589 395.3C137.155 397.154 139.254 399.581 140.721 402.389C142.188 405.197 142.982 408.308 143.04 411.476V410.522C142.971 407.347 142.165 404.233 140.684 401.425C139.204 398.617 137.09 396.193 134.511 394.345Z" fill="url(#paint34_radial_245_4646)"/>
<path d="M35.75 344.011L39.7437 346.333C40.9747 346.983 42.0073 347.955 42.7325 349.145C43.391 350.344 43.72 351.698 43.6858 353.066V353.84C43.7419 354.595 43.5998 355.351 43.2736 356.033C43.1422 356.257 42.9465 356.435 42.712 356.546C42.4776 356.656 42.2154 356.693 41.9595 356.652C42.6295 357.328 43.1519 358.135 43.4935 359.023C43.835 359.912 43.9883 360.861 43.9436 361.812V363.463C43.9436 364.96 43.6086 365.914 42.9129 366.301C42.2172 366.688 41.2381 366.508 39.9241 365.734L35.75 363.386V344.011ZM39.4345 354.047C39.9756 354.356 40.362 354.434 40.6197 354.279C40.8773 354.124 41.032 353.66 41.032 352.911V351.828C41.0592 351.241 40.9442 350.657 40.697 350.125C40.4809 349.667 40.1181 349.295 39.6663 349.067L38.4038 348.319V353.479L39.4345 354.047ZM39.9241 363.076C40.3879 363.334 40.7227 363.386 40.9546 363.231C41.1865 363.076 41.2896 362.664 41.2896 361.941V360.264C41.3238 359.547 41.1916 358.832 40.9032 358.175C40.5787 357.649 40.1266 357.214 39.5891 356.91L38.4038 356.214V362.199L39.9241 363.076Z" fill="white"/>
<path d="M46.4172 368.546C45.7328 367.252 45.3872 365.805 45.4124 364.341V349.506L47.989 351.054V366.095C47.964 366.664 48.0791 367.231 48.324 367.746C48.5581 368.169 48.9062 368.518 49.3287 368.752C49.7668 369.01 50.1018 369.062 50.3337 368.881C50.5656 368.701 50.6944 368.314 50.6944 367.643V352.602L53.271 354.098V368.907C53.271 370.481 52.936 371.487 52.2661 371.951C51.5962 372.416 50.5913 372.261 49.303 371.513C48.0897 370.805 47.0921 369.779 46.4172 368.546Z" fill="white"/>
<path d="M57.6512 367.824L54.4304 354.924L57.2646 356.549L59.0683 364.728L60.8719 358.639L63.4485 360.135L60.2278 369.449V377.705L57.6512 376.183V367.824Z" fill="white"/>
<path d="M96.5578 397.519C95.8907 396.228 95.5542 394.792 95.5786 393.339V392.23L98.1552 393.675V395.016C98.1308 395.529 98.2447 396.04 98.485 396.493C98.7253 396.947 99.0831 397.328 99.5209 397.596C99.9589 397.854 100.32 397.906 100.551 397.725C100.783 397.545 100.886 397.132 100.886 396.435C100.882 395.605 100.725 394.783 100.423 394.01C99.9066 392.873 99.3036 391.778 98.619 390.733C97.7201 389.364 96.9522 387.913 96.3258 386.399C95.9013 385.314 95.6829 384.159 95.6816 382.994C95.6816 381.446 96.0166 380.414 96.6866 380.001C97.3565 379.588 98.3614 379.717 99.6497 380.465C100.864 381.149 101.864 382.158 102.535 383.381C103.203 384.671 103.539 386.107 103.515 387.56V388.386L100.938 386.915V385.935C100.966 385.365 100.851 384.797 100.603 384.284C100.38 383.854 100.04 383.497 99.6239 383.252C98.7221 382.736 98.284 383.097 98.284 384.335C98.2962 385.109 98.4627 385.872 98.7736 386.58C99.2841 387.72 99.8873 388.815 100.577 389.856C101.486 391.22 102.254 392.672 102.87 394.191C103.28 395.333 103.489 396.537 103.489 397.751C103.489 399.351 103.154 400.331 102.484 400.821C101.814 401.311 100.809 401.131 99.4951 400.382C98.2709 399.717 97.2543 398.726 96.5578 397.519Z" fill="white"/>
<path d="M104.983 384.026L112.224 388.205V390.991L107.637 388.412V393.571L111.27 395.687V398.448L107.637 396.358V402.085L112.224 404.665V407.426L104.983 403.246V384.026Z" fill="white"/>
<path d="M113.744 389.031L116.32 390.579V407.245L120.701 409.825V412.611L113.667 408.535L113.744 389.031Z" fill="white"/>
<path d="M122.041 393.855L124.617 395.377V412.018L128.997 414.598V417.384L121.963 413.334L122.041 393.855Z" fill="white"/>
<path d="M73.8838 107.429L68.0864 104.075V84.8548L73.8838 88.2087V107.429Z" fill="url(#paint35_linear_245_4646)"/>
<path d="M87.4366 115.247L81.665 111.918V92.6978L87.4366 96.026V115.247Z" fill="url(#paint36_linear_245_4646)"/>
<path d="M100.99 123.09L95.218 119.762V100.515L100.99 103.869V123.09Z" fill="url(#paint37_linear_245_4646)"/>
<path d="M103.746 103.972L65.3293 81.7847V78.9209L103.746 101.134V103.972Z" fill="url(#paint38_linear_245_4646)"/>
<path d="M103.746 129.075L65.3293 106.862V104.024L103.746 126.237V129.075Z" fill="url(#paint39_linear_245_4646)"/>
<path d="M106.143 134.209L62.9331 109.21V106.01L106.143 131.01V134.209Z" fill="url(#paint40_linear_245_4646)"/>
<path d="M106.89 102.373L62.186 76.5216L84.5509 76.3152L106.89 102.373Z" fill="url(#paint41_linear_245_4646)"/>
<path style="mix-blend-mode:screen" opacity="0.5" d="M9.62323 204.255C9.62323 204.255 19.3113 158.332 44.7681 173.037C70.2249 187.743 66.5919 202.371 89.6267 215.684C115.058 230.39 106.581 186.505 153.861 213.826V270.585L8.59253 192.31L9.62323 204.255Z" fill="url(#paint42_linear_245_4646)"/>
<g filter="url(#filter0_d_245_4646)">
<path d="M99.1344 219.838C95.5579 219.656 92.0923 218.535 89.0855 216.587C80.398 211.508 73.0413 204.434 67.6226 195.947C61.7294 186.803 53.7105 179.225 44.2528 173.863C42.1146 172.424 39.651 171.543 37.0861 171.299C34.5212 171.056 31.9362 171.458 29.5661 172.47C16.2966 178.378 10.6797 204.281 10.6281 204.539C10.5722 204.812 10.4109 205.051 10.1793 205.206C9.94774 205.361 9.66447 205.417 9.39127 205.364C9.11986 205.297 8.88401 205.129 8.73108 204.894C8.57815 204.66 8.51944 204.376 8.56674 204.1C8.79864 202.991 14.4672 176.907 28.7158 170.561C31.401 169.449 34.3193 169.02 37.2102 169.313C40.1011 169.606 42.8747 170.61 45.2833 172.238C54.9984 177.755 63.2441 185.533 69.3231 194.915C74.551 203.148 81.6834 209.998 90.1162 214.884C100.217 220.715 104.442 216.871 109.75 212.02C117.171 205.287 126.421 196.876 154.351 213.027C154.492 213.083 154.619 213.17 154.723 213.28C154.827 213.391 154.906 213.522 154.955 213.666C155.004 213.81 155.022 213.963 155.007 214.114C154.991 214.265 154.944 214.411 154.867 214.542C154.791 214.673 154.687 214.786 154.562 214.874C154.438 214.961 154.296 215.02 154.147 215.048C153.998 215.075 153.845 215.07 153.697 215.033C153.55 214.996 153.413 214.928 153.295 214.833C126.704 199.353 118.459 207.093 111.167 213.594C107.637 216.716 104.288 219.838 99.1344 219.838Z" fill="url(#paint43_radial_245_4646)" shape-rendering="crispEdges"/>
</g>
<path d="M120.829 286.71L125.21 289.935V205.622L122.581 203.868L120.829 204.074V286.71Z" fill="url(#paint44_linear_245_4646)"/>
<g style="mix-blend-mode:color-dodge">
<path d="M125.184 297.804H121.422L121.242 262.768L121.061 206.886C121.061 205.364 121.886 204.126 122.942 204.126C123.973 204.126 124.823 205.364 124.823 206.886L125.029 262.768L125.184 297.804Z" fill="url(#paint45_linear_245_4646)"/>
<path d="M123.793 279.873V253.042V252.113V208.486C123.806 207.87 123.701 207.256 123.483 206.68C123.437 206.513 123.34 206.364 123.207 206.253C123.073 206.143 122.909 206.075 122.736 206.061C122.561 206.081 122.396 206.153 122.263 206.268C122.13 206.383 122.034 206.536 121.989 206.706C121.783 207.241 121.678 207.809 121.68 208.383V252.242V253.351V278.248L123.793 279.873Z" fill="url(#paint46_linear_245_4646)"/>
<path d="M122.788 275.926L123.122 251.287L123.457 208.899C123.457 208.486 123.226 208.151 122.942 208.151C122.659 208.151 122.427 208.486 122.427 208.899L122.607 251.287L122.788 275.926Z" fill="url(#paint47_linear_245_4646)"/>
</g>
<path d="M124.669 178.662L120.907 177.578L121.319 205.003L123.586 205.596L125.081 205.545L124.669 178.662Z" fill="url(#paint48_linear_245_4646)"/>
<g style="mix-blend-mode:color-dodge">
<path d="M121.396 180.21H124.308V189.601V204.564C124.308 204.977 123.664 205.313 122.865 205.313C122.066 205.313 121.422 204.977 121.422 204.564V189.601L121.396 180.21Z" fill="url(#paint49_linear_245_4646)"/>
<path d="M122.324 181.474V189.91V190.194V203.919C122.324 204.048 122.324 204.435 122.607 204.487C122.695 204.562 122.798 204.62 122.909 204.655C123.019 204.69 123.136 204.703 123.251 204.693C123.499 204.699 123.742 204.627 123.947 204.487C124.096 204.355 124.188 204.17 124.205 203.971V190.194V189.833V182.093L122.324 181.474Z" fill="url(#paint50_linear_245_4646)"/>
<path d="M123.2 182.79L122.916 190.529L122.607 203.868C122.607 203.997 122.813 204.1 123.071 204.1C123.329 204.1 123.535 204.1 123.535 203.868L123.38 190.529L123.2 182.79Z" fill="url(#paint51_linear_245_4646)"/>
</g>
<path d="M118.279 200.849C118.357 202.297 118.776 203.706 119.502 204.962C120.227 206.217 121.238 207.283 122.453 208.073C124.746 209.415 126.627 208.331 126.627 205.7C126.544 204.252 126.123 202.845 125.398 201.59C124.673 200.336 123.664 199.269 122.453 198.476C120.134 197.212 118.279 198.269 118.279 200.849Z" fill="url(#paint52_linear_245_4646)"/>
<path d="M124.334 210.008C123.421 210.008 122.528 209.749 121.757 209.26C120.345 208.36 119.171 207.132 118.332 205.682C117.493 204.232 117.016 202.601 116.939 200.927C116.866 200.408 116.904 199.88 117.049 199.377C117.194 198.874 117.444 198.407 117.783 198.007C118.121 197.608 118.539 197.284 119.011 197.058C119.483 196.832 119.997 196.709 120.52 196.696C121.432 196.7 122.324 196.959 123.097 197.444C124.508 198.344 125.683 199.571 126.522 201.022C127.36 202.472 127.838 204.103 127.915 205.777C127.96 206.844 127.632 207.893 126.987 208.744C126.673 209.146 126.269 209.469 125.809 209.688C125.348 209.908 124.844 210.017 124.334 210.008ZM120.572 199.276C119.696 199.276 119.567 200.307 119.567 200.927C119.639 202.151 119.995 203.341 120.608 204.403C121.221 205.464 122.073 206.368 123.097 207.041C124.565 207.893 124.823 207.351 124.978 207.041C125.244 206.637 125.37 206.157 125.338 205.674C125.261 204.451 124.902 203.263 124.289 202.202C123.677 201.142 122.828 200.237 121.808 199.559C121.43 199.354 121.002 199.256 120.572 199.276Z" fill="#EBDEF3"/>
<path d="M91.2242 314.857H91.0696C90.8817 314.825 90.707 314.74 90.5656 314.612C90.4241 314.484 90.3219 314.319 90.2708 314.135L87.3335 301.003L83.4944 304.331C83.3871 304.435 83.2544 304.509 83.1097 304.545C82.965 304.581 82.8133 304.578 82.6698 304.537C82.5246 304.513 82.3876 304.453 82.2709 304.363C82.1541 304.273 82.061 304.156 81.9999 304.021L73.3683 286.246L65.8189 291.147C65.584 291.279 65.3108 291.325 65.046 291.276C64.9146 291.242 64.7917 291.181 64.6852 291.096C64.5788 291.012 64.4911 290.906 64.4276 290.786L59.532 281.885L47.7311 285.239C47.6093 285.275 47.4818 285.285 47.3559 285.27C47.23 285.255 47.1082 285.216 46.9978 285.153C46.8874 285.091 46.7906 285.007 46.713 284.906C46.6354 284.806 46.5787 284.691 46.546 284.569C46.5109 284.447 46.5002 284.319 46.515 284.193C46.5298 284.067 46.5696 283.945 46.632 283.834C46.6944 283.724 46.7782 283.627 46.8784 283.549C46.9787 283.471 47.0933 283.415 47.2158 283.382L59.7382 279.796C59.948 279.734 60.1726 279.747 60.3743 279.831C60.576 279.916 60.7426 280.067 60.8461 280.26L65.6128 288.955L73.1108 284.001C73.2224 283.924 73.3493 283.873 73.4828 283.851C73.6164 283.829 73.7533 283.836 73.8837 283.872C74.0181 283.908 74.1431 283.972 74.25 284.061C74.3568 284.151 74.4428 284.262 74.5021 284.388L83.1852 301.983L87.3077 298.423C87.4345 298.317 87.5862 298.245 87.7483 298.213C87.9105 298.182 88.0781 298.192 88.2354 298.242C88.3906 298.298 88.5301 298.391 88.6422 298.512C88.7543 298.633 88.8357 298.78 88.8795 298.939L91.6622 311.348L96.6093 303.325C96.7423 303.117 96.9489 302.966 97.1878 302.904C97.4266 302.842 97.6802 302.872 97.8976 302.989L102.149 305.26L106.864 301.467C106.983 301.375 107.122 301.311 107.269 301.28C107.416 301.249 107.568 301.251 107.714 301.287C107.866 301.323 108.006 301.396 108.123 301.5C108.24 301.603 108.33 301.734 108.384 301.88L111.425 309.62L116.578 302.551C116.746 302.39 116.965 302.294 117.197 302.28C117.428 302.265 117.658 302.334 117.843 302.474C118.029 302.613 118.159 302.814 118.211 303.041C118.262 303.268 118.231 303.506 118.124 303.712L111.785 312.174C111.688 312.319 111.552 312.432 111.392 312.501C111.232 312.57 111.055 312.591 110.884 312.561C110.716 312.534 110.558 312.465 110.423 312.362C110.288 312.258 110.181 312.123 110.111 311.968L106.864 303.841L102.819 307.195C102.661 307.296 102.478 307.35 102.291 307.35C102.103 307.35 101.92 307.296 101.763 307.195L97.7173 305.028L92.0487 314.367C91.9648 314.513 91.8449 314.634 91.7005 314.72C91.5561 314.806 91.3921 314.853 91.2242 314.857Z" fill="url(#paint53_linear_245_4646)"/>
<path d="M117.351 355.775C117.172 355.778 116.995 355.731 116.841 355.64C116.686 355.549 116.56 355.417 116.475 355.259L110.652 343.572L107.869 345.43C107.673 345.561 107.436 345.615 107.203 345.582C106.97 345.548 106.757 345.43 106.606 345.249L94.9344 331.549L91.9456 334.826C91.8322 334.954 91.6855 335.049 91.5218 335.099C91.358 335.149 91.1836 335.153 91.0179 335.11C90.8481 335.074 90.6912 334.993 90.564 334.875C90.4369 334.757 90.3444 334.606 90.2965 334.439L87.3849 324.351L82.4893 328.17C82.3127 328.319 82.0891 328.401 81.8581 328.401C81.627 328.401 81.4034 328.319 81.2268 328.17L73.497 321.204L65.7672 326.364C65.5366 326.507 65.2588 326.553 64.9943 326.493C64.8639 326.464 64.7412 326.408 64.6345 326.328C64.5277 326.248 64.4396 326.146 64.3759 326.028L59.5061 316.947L52.0855 318.65C51.962 318.679 51.8341 318.683 51.709 318.662C51.5839 318.641 51.4641 318.596 51.3564 318.529C51.2487 318.462 51.1553 318.374 51.0815 318.271C51.0077 318.168 50.9547 318.051 50.926 317.927C50.8972 317.804 50.8932 317.676 50.9139 317.55C50.9346 317.425 50.9796 317.305 51.0466 317.197C51.1136 317.089 51.2011 316.996 51.3042 316.922C51.4073 316.848 51.524 316.795 51.6475 316.766L59.7895 314.909C59.9949 314.862 60.21 314.885 60.4011 314.974C60.5922 315.062 60.7487 315.212 60.846 315.399L65.6126 324.068L73.1106 319.114C73.2751 318.982 73.4796 318.91 73.6903 318.91C73.9011 318.91 74.1055 318.982 74.27 319.114L81.9998 326.028L87.4107 321.823C87.536 321.724 87.6842 321.657 87.8418 321.63C87.9994 321.603 88.1613 321.616 88.3125 321.668C88.4614 321.715 88.5963 321.799 88.7044 321.911C88.8125 322.024 88.8903 322.162 88.9308 322.313L91.7652 332.117L94.3418 329.305C94.4332 329.205 94.5448 329.126 94.6692 329.072C94.7936 329.019 94.9279 328.993 95.0632 328.995C95.2004 328.996 95.3361 329.026 95.4606 329.084C95.5851 329.142 95.6956 329.226 95.7847 329.331L107.586 343.211L110.549 341.224C110.674 341.168 110.81 341.139 110.948 341.139C111.086 341.139 111.222 341.168 111.347 341.224C111.481 341.254 111.606 341.313 111.713 341.398C111.82 341.483 111.906 341.591 111.966 341.714L118.278 354.382C118.34 354.493 118.378 354.615 118.391 354.742C118.403 354.868 118.39 354.995 118.351 355.116C118.312 355.237 118.249 355.349 118.166 355.444C118.083 355.54 117.981 355.617 117.866 355.672C117.708 355.757 117.529 355.793 117.351 355.775Z" fill="url(#paint54_linear_245_4646)"/>
<path d="M126.163 320.61L132.991 313.283L139.845 328.505L126.163 320.61Z" fill="url(#paint55_linear_245_4646)"/>
<path d="M139.845 355.414L132.991 362.741L126.163 347.519L139.845 355.414Z" fill="url(#paint56_linear_245_4646)"/>
</g>
<defs>
<filter id="filter0_d_245_4646" x="4.55078" y="169.224" width="154.461" height="58.6142" filterUnits="userSpaceOnUse" color-interpolation-filters="sRGB">
<feFlood flood-opacity="0" result="BackgroundImageFix"/>
<feColorMatrix in="SourceAlpha" type="matrix" values="0 0 0 0 0 0 0 0 0 0 0 0 0 0 0 0 0 0 127 0" result="hardAlpha"/>
<feOffset dy="4"/>
<feGaussianBlur stdDeviation="2"/>
<feComposite in2="hardAlpha" operator="out"/>
<feColorMatrix type="matrix" values="0 0 0 0 0 0 0 0 0 0 0 0 0 0 0 0 0 0 0.25 0"/>
<feBlend mode="normal" in2="BackgroundImageFix" result="effect1_dropShadow_245_4646"/>
<feBlend mode="normal" in="SourceGraphic" in2="effect1_dropShadow_245_4646" result="shape"/>
</filter>
<linearGradient id="paint0_linear_245_4646" x1="-27.7735" y1="14.481" x2="126.934" y2="282.326" gradientUnits="userSpaceOnUse">
<stop offset="0.06" stop-color="#FFA80F" stop-opacity="0.980392"/>
<stop offset="0.26" stop-color="#FFA80F" stop-opacity="0.980392"/>
<stop offset="0.75" stop-color="#D0952C" stop-opacity="0.980392"/>
<stop offset="1" stop-color="#BD7D0B" stop-opacity="0.980392"/>
</linearGradient>
<radialGradient id="paint1_radial_245_4646" cx="0" cy="0" r="1" gradientUnits="userSpaceOnUse" gradientTransform="translate(212.461 123.331) scale(290.115 290.259)">
<stop stop-color="#FFA80F" stop-opacity="0.980392"/>
<stop offset="0.16" stop-color="#FFA80F" stop-opacity="0.980392"/>
<stop offset="0.36" stop-color="#FFA80F" stop-opacity="0.980392"/>
<stop offset="0.58" stop-color="#FFA80F" stop-opacity="0.980392"/>
<stop offset="0.82" stop-color="#FFA80F" stop-opacity="0.980392"/>
<stop offset="1" stop-color="#FFA80F" stop-opacity="0.980392"/>
</radialGradient>
<radialGradient id="paint2_radial_245_4646" cx="0" cy="0" r="1" gradientUnits="userSpaceOnUse" gradientTransform="translate(163.935 102.593) scale(170.929 171.014)">
<stop stop-color="#FFA80F" stop-opacity="0.980392"/>
<stop offset="1" stop-color="#DD910B" stop-opacity="0.980392"/>
</radialGradient>
<linearGradient id="paint3_linear_245_4646" x1="177.719" y1="261.527" x2="-294.828" y2="113.684" gradientUnits="userSpaceOnUse">
<stop offset="0.19" stop-color="#6A4C16" stop-opacity="0.980392"/>
<stop offset="0.93" stop-color="#CF8D17" stop-opacity="0.980392"/>
</linearGradient>
<linearGradient id="paint4_linear_245_4646" x1="183.871" y1="444.493" x2="-56.2781" y2="-62.6842" gradientUnits="userSpaceOnUse">
<stop stop-color="#FFA80F" stop-opacity="0.980392"/>
<stop offset="0.2" stop-color="#FFA80F" stop-opacity="0.980392"/>
<stop offset="0.49" stop-color="#FFA80F" stop-opacity="0.980392"/>
<stop offset="1" stop-color="#8F5F0A" stop-opacity="0.980392"/>
</linearGradient>
<linearGradient id="paint5_linear_245_4646" x1="7.98999" y1="231.977" x2="158.702" y2="231.977" gradientUnits="userSpaceOnUse">
<stop stop-color="#FFA80F" stop-opacity="0.980392"/>
<stop offset="0.2" stop-color="#FFA80F" stop-opacity="0.980392"/>
<stop offset="0.49" stop-color="#FFA80F" stop-opacity="0.980392"/>
<stop offset="1" stop-color="#2B1C03" stop-opacity="0.980392"/>
</linearGradient>
<linearGradient id="paint6_linear_245_4646" x1="-9.03653" y1="55.7532" x2="220.426" y2="493.053" gradientUnits="userSpaceOnUse">
<stop offset="0.01" stop-color="#E89A10" stop-opacity="0.980392"/>
<stop offset="0.43" stop-color="#BC8018" stop-opacity="0.980392"/>
<stop offset="0.9" stop-opacity="0.980392"/>
</linearGradient>
<linearGradient id="paint7_linear_245_4646" x1="133.661" y1="357.039" x2="-3.69813" y2="236.604" gradientUnits="userSpaceOnUse">
<stop offset="0.04"/>
<stop offset="0.23" stop-color="#FFA80F" stop-opacity="0.980392"/>
<stop offset="0.59"/>
<stop offset="1" stop-color="#FFA80F" stop-opacity="0.980392"/>
</linearGradient>
<linearGradient id="paint8_linear_245_4646" x1="134.46" y1="368.985" x2="6.80968" y2="280.132" gradientUnits="userSpaceOnUse">
<stop offset="0.04"/>
<stop offset="0.24" stop-color="#FFA80F" stop-opacity="0.980392"/>
<stop offset="0.65" stop-color="#FFA80F" stop-opacity="0.980392"/>
<stop offset="1" stop-color="#050402" stop-opacity="0.980392"/>
</linearGradient>
<linearGradient id="paint9_linear_245_4646" x1="20.9087" y1="297.159" x2="61.9859" y2="375.365" gradientUnits="userSpaceOnUse">
<stop offset="0.01" stop-color="#9F19AB"/>
<stop offset="0.43" stop-color="#5F27BD"/>
<stop offset="0.9" stop-color="#3D065F"/>
</linearGradient>
<linearGradient id="paint10_linear_245_4646" x1="20.8573" y1="298.01" x2="61.315" y2="375.107" gradientUnits="userSpaceOnUse">
<stop offset="0.01" stop-color="#9F19AB"/>
<stop offset="0.43" stop-color="#5F27BD"/>
<stop offset="0.9" stop-color="#3D065F"/>
</linearGradient>
<linearGradient id="paint11_linear_245_4646" x1="20.78" y1="298.887" x2="60.6438" y2="374.824" gradientUnits="userSpaceOnUse">
<stop offset="0.01" stop-color="#9F19AB"/>
<stop offset="0.43" stop-color="#5F27BD"/>
<stop offset="0.9" stop-color="#3D065F"/>
</linearGradient>
<linearGradient id="paint12_linear_245_4646" x1="20.7026" y1="299.764" x2="59.9726" y2="374.541" gradientUnits="userSpaceOnUse">
<stop offset="0.01" stop-color="#9F19AB"/>
<stop offset="0.43" stop-color="#5F27BD"/>
<stop offset="0.9" stop-color="#3D065F"/>
</linearGradient>
<linearGradient id="paint13_linear_245_4646" x1="20.6511" y1="300.642" x2="59.3015" y2="374.284" gradientUnits="userSpaceOnUse">
<stop offset="0.01" stop-color="#9F19AB"/>
<stop offset="0.43" stop-color="#5F27BD"/>
<stop offset="0.9" stop-color="#3D065F"/>
</linearGradient>
<linearGradient id="paint14_linear_245_4646" x1="20.5737" y1="301.493" x2="58.656" y2="374.001" gradientUnits="userSpaceOnUse">
<stop offset="0.01" stop-color="#9F19AB"/>
<stop offset="0.43" stop-color="#5F27BD"/>
<stop offset="0.9" stop-color="#3D065F"/>
</linearGradient>
<linearGradient id="paint15_linear_245_4646" x1="20.5224" y1="302.37" x2="57.985" y2="373.717" gradientUnits="userSpaceOnUse">
<stop offset="0.01" stop-color="#9F19AB"/>
<stop offset="0.43" stop-color="#5F27BD"/>
<stop offset="0.9" stop-color="#3D065F"/>
</linearGradient>
<linearGradient id="paint16_linear_245_4646" x1="20.4449" y1="303.247" x2="57.3137" y2="373.46" gradientUnits="userSpaceOnUse">
<stop offset="0.01" stop-color="#9F19AB"/>
<stop offset="0.43" stop-color="#5F27BD"/>
<stop offset="0.9" stop-color="#3D065F"/>
</linearGradient>
<linearGradient id="paint17_linear_245_4646" x1="20.3935" y1="304.099" x2="56.6427" y2="373.177" gradientUnits="userSpaceOnUse">
<stop offset="0.01" stop-color="#9F19AB"/>
<stop offset="0.43" stop-color="#5F27BD"/>
<stop offset="0.9" stop-color="#3D065F"/>
</linearGradient>
<linearGradient id="paint18_linear_245_4646" x1="20.3163" y1="304.976" x2="55.9974" y2="372.894" gradientUnits="userSpaceOnUse">
<stop offset="0.01" stop-color="#9F19AB"/>
<stop offset="0.43" stop-color="#5F27BD"/>
<stop offset="0.9" stop-color="#3D065F"/>
</linearGradient>
<linearGradient id="paint19_linear_245_4646" x1="20.2646" y1="305.827" x2="55.3261" y2="372.611" gradientUnits="userSpaceOnUse">
<stop offset="0.01" stop-color="#9F19AB"/>
<stop offset="0.43" stop-color="#5F27BD"/>
<stop offset="0.9" stop-color="#3D065F"/>
</linearGradient>
<linearGradient id="paint20_linear_245_4646" x1="87.0243" y1="393.907" x2="11.6243" y2="327.209" gradientUnits="userSpaceOnUse">
<stop offset="0.04" stop-color="#138BBD"/>
<stop offset="0.23" stop-color="#169AC7"/>
<stop offset="0.59" stop-color="#1FC3DF"/>
<stop offset="1" stop-color="#2AF6FF"/>
</linearGradient>
<radialGradient id="paint21_radial_245_4646" cx="0" cy="0" r="1" gradientUnits="userSpaceOnUse" gradientTransform="translate(46.9839 349.686) scale(58.1539 58.2294)">
<stop stop-color="#711F56"/>
<stop offset="0.16" stop-color="#6C1E52"/>
<stop offset="0.36" stop-color="#5C1946"/>
<stop offset="0.58" stop-color="#431233"/>
<stop offset="0.82" stop-color="#200918"/>
<stop offset="1"/>
</radialGradient>
<linearGradient id="paint22_linear_245_4646" x1="83.9066" y1="333.794" x2="124.984" y2="412" gradientUnits="userSpaceOnUse">
<stop offset="0.01" stop-color="#9F19AB"/>
<stop offset="0.43" stop-color="#5F27BD"/>
<stop offset="0.9" stop-color="#3D065F"/>
</linearGradient>
<linearGradient id="paint23_linear_245_4646" x1="83.8295" y1="334.671" x2="124.313" y2="411.743" gradientUnits="userSpaceOnUse">
<stop offset="0.01" stop-color="#9F19AB"/>
<stop offset="0.43" stop-color="#5F27BD"/>
<stop offset="0.9" stop-color="#3D065F"/>
</linearGradient>
<linearGradient id="paint24_linear_245_4646" x1="83.7522" y1="335.523" x2="123.642" y2="411.459" gradientUnits="userSpaceOnUse">
<stop offset="0.01" stop-color="#9F19AB"/>
<stop offset="0.43" stop-color="#5F27BD"/>
<stop offset="0.9" stop-color="#3D065F"/>
</linearGradient>
<linearGradient id="paint25_linear_245_4646" x1="83.7006" y1="336.4" x2="122.971" y2="411.202" gradientUnits="userSpaceOnUse">
<stop offset="0.01" stop-color="#9F19AB"/>
<stop offset="0.43" stop-color="#5F27BD"/>
<stop offset="0.9" stop-color="#3D065F"/>
</linearGradient>
<linearGradient id="paint26_linear_245_4646" x1="83.6234" y1="337.277" x2="122.3" y2="410.919" gradientUnits="userSpaceOnUse">
<stop offset="0.01" stop-color="#9F19AB"/>
<stop offset="0.43" stop-color="#5F27BD"/>
<stop offset="0.9" stop-color="#3D065F"/>
</linearGradient>
<linearGradient id="paint27_linear_245_4646" x1="83.546" y1="338.128" x2="121.628" y2="410.636" gradientUnits="userSpaceOnUse">
<stop offset="0.01" stop-color="#9F19AB"/>
<stop offset="0.43" stop-color="#5F27BD"/>
<stop offset="0.9" stop-color="#3D065F"/>
</linearGradient>
<linearGradient id="paint28_linear_245_4646" x1="83.4945" y1="339.005" x2="120.957" y2="410.378" gradientUnits="userSpaceOnUse">
<stop offset="0.01" stop-color="#9F19AB"/>
<stop offset="0.43" stop-color="#5F27BD"/>
<stop offset="0.9" stop-color="#3D065F"/>
</linearGradient>
<linearGradient id="paint29_linear_245_4646" x1="83.4171" y1="339.883" x2="120.312" y2="410.095" gradientUnits="userSpaceOnUse">
<stop offset="0.01" stop-color="#9F19AB"/>
<stop offset="0.43" stop-color="#5F27BD"/>
<stop offset="0.9" stop-color="#3D065F"/>
</linearGradient>
<linearGradient id="paint30_linear_245_4646" x1="83.3656" y1="340.734" x2="119.641" y2="409.812" gradientUnits="userSpaceOnUse">
<stop offset="0.01" stop-color="#9F19AB"/>
<stop offset="0.43" stop-color="#5F27BD"/>
<stop offset="0.9" stop-color="#3D065F"/>
</linearGradient>
<linearGradient id="paint31_linear_245_4646" x1="83.3142" y1="341.611" x2="118.97" y2="409.529" gradientUnits="userSpaceOnUse">
<stop offset="0.01" stop-color="#9F19AB"/>
<stop offset="0.43" stop-color="#5F27BD"/>
<stop offset="0.9" stop-color="#3D065F"/>
</linearGradient>
<linearGradient id="paint32_linear_245_4646" x1="83.2625" y1="342.463" x2="118.324" y2="409.246" gradientUnits="userSpaceOnUse">
<stop offset="0.01" stop-color="#9F19AB"/>
<stop offset="0.43" stop-color="#5F27BD"/>
<stop offset="0.9" stop-color="#3D065F"/>
</linearGradient>
<linearGradient id="paint33_linear_245_4646" x1="150.022" y1="430.542" x2="74.6225" y2="363.87" gradientUnits="userSpaceOnUse">
<stop offset="0.04" stop-color="#956106" stop-opacity="0.980392"/>
<stop offset="0.24" stop-color="#FFA80F" stop-opacity="0.980392"/>
<stop offset="0.65" stop-color="#FFA80F" stop-opacity="0.980392"/>
<stop offset="1" stop-color="#A26A07" stop-opacity="0.980392"/>
</linearGradient>
<radialGradient id="paint34_radial_245_4646" cx="0" cy="0" r="1" gradientUnits="userSpaceOnUse" gradientTransform="translate(109.956 386.322) scale(58.1539 58.2295)">
<stop stop-color="#711F56"/>
<stop offset="0.16" stop-color="#6C1E52"/>
<stop offset="0.36" stop-color="#5C1946"/>
<stop offset="0.58" stop-color="#431233"/>
<stop offset="0.82" stop-color="#200918"/>
<stop offset="1"/>
</radialGradient>
<linearGradient id="paint35_linear_245_4646" x1="106.581" y1="146.593" x2="50.1071" y2="66.7094" gradientUnits="userSpaceOnUse">
<stop offset="0.04" stop-color="#FFA98C"/>
<stop offset="0.32" stop-color="#FFB892"/>
<stop offset="0.86" stop-color="#FEE1A3"/>
<stop offset="1" stop-color="#FEECA8"/>
</linearGradient>
<linearGradient id="paint36_linear_245_4646" x1="111.94" y1="142.826" x2="55.4664" y2="62.9427" gradientUnits="userSpaceOnUse">
<stop offset="0.04" stop-color="#FFA98C"/>
<stop offset="0.32" stop-color="#FFB892"/>
<stop offset="0.86" stop-color="#FEE1A3"/>
<stop offset="1" stop-color="#FEECA8"/>
</linearGradient>
<linearGradient id="paint37_linear_245_4646" x1="117.3" y1="139.034" x2="60.8258" y2="59.1502" gradientUnits="userSpaceOnUse">
<stop offset="0.04" stop-color="#FFA98C"/>
<stop offset="0.32" stop-color="#FFB892"/>
<stop offset="0.86" stop-color="#FEE1A3"/>
<stop offset="1" stop-color="#FEECA8"/>
</linearGradient>
<linearGradient id="paint38_linear_245_4646" x1="117.84" y1="138.647" x2="61.3409" y2="58.7633" gradientUnits="userSpaceOnUse">
<stop offset="0.04" stop-color="#FFA98C"/>
<stop offset="0.32" stop-color="#FFB892"/>
<stop offset="0.86" stop-color="#FEE1A3"/>
<stop offset="1" stop-color="#FEECA8"/>
</linearGradient>
<linearGradient id="paint39_linear_245_4646" x1="106.014" y1="147.006" x2="49.5401" y2="67.1222" gradientUnits="userSpaceOnUse">
<stop offset="0.04" stop-color="#FFA98C"/>
<stop offset="0.32" stop-color="#FFB892"/>
<stop offset="0.86" stop-color="#FEE1A3"/>
<stop offset="1" stop-color="#FEECA8"/>
</linearGradient>
<linearGradient id="paint40_linear_245_4646" x1="104.339" y1="148.193" x2="47.8653" y2="68.309" gradientUnits="userSpaceOnUse">
<stop offset="0.04" stop-color="#FFA98C"/>
<stop offset="0.32" stop-color="#FFB892"/>
<stop offset="0.86" stop-color="#FEE1A3"/>
<stop offset="1" stop-color="#FEECA8"/>
</linearGradient>
<linearGradient id="paint41_linear_245_4646" x1="118.768" y1="137.976" x2="62.2945" y2="58.0924" gradientUnits="userSpaceOnUse">
<stop offset="0.04" stop-color="#FFA98C"/>
<stop offset="0.32" stop-color="#FFB892"/>
<stop offset="0.86" stop-color="#FEE1A3"/>
<stop offset="1" stop-color="#FEECA8"/>
</linearGradient>
<linearGradient id="paint42_linear_245_4646" x1="78.0577" y1="236.943" x2="112.006" y2="178.21" gradientUnits="userSpaceOnUse">
<stop stop-color="#FFA80F" stop-opacity="0.980392"/>
<stop offset="1" stop-color="#C98712" stop-opacity="0.980392"/>
</linearGradient>
<radialGradient id="paint43_radial_245_4646" cx="0" cy="0" r="1" gradientUnits="userSpaceOnUse" gradientTransform="translate(127.838 204.487) scale(132.824 132.996)">
<stop/>
<stop offset="0.0364583" stop-color="#FFA80F" stop-opacity="0.980392"/>
</radialGradient>
<linearGradient id="paint44_linear_245_4646" x1="105.705" y1="279.77" x2="147.995" y2="200.043" gradientUnits="userSpaceOnUse">
<stop stop-color="#5513AB"/>
<stop offset="1" stop-color="#BE3BFF"/>
</linearGradient>
<linearGradient id="paint45_linear_245_4646" x1="153.182" y1="102.989" x2="157.299" y2="282.813" gradientUnits="userSpaceOnUse">
<stop stop-color="#FFA80F" stop-opacity="0.980392"/>
<stop offset="0.14" stop-color="#FFA80F" stop-opacity="0.980392"/>
<stop offset="0.4" stop-color="#FFA80F" stop-opacity="0.980392"/>
<stop offset="0.64" stop-color="#2F2007" stop-opacity="0.980392"/>
<stop offset="0.85" stop-color="#020106"/>
<stop offset="1" stop-opacity="0.980392"/>
</linearGradient>
<linearGradient id="paint46_linear_245_4646" x1="128.481" y1="347.49" x2="130.456" y2="454.945" gradientUnits="userSpaceOnUse">
<stop stop-color="#82288F"/>
<stop offset="0.31" stop-color="#511959"/>
<stop offset="0.62" stop-color="#250C29"/>
<stop offset="0.86" stop-color="#0A030B"/>
<stop offset="1"/>
</linearGradient>
<linearGradient id="paint47_linear_245_4646" x1="129.541" y1="387.918" x2="130.06" y2="454.789" gradientUnits="userSpaceOnUse">
<stop stop-color="#FFA80F" stop-opacity="0.980392"/>
<stop offset="0.25" stop-color="#CC9534" stop-opacity="0.980392"/>
<stop offset="0.77" stop-color="#E79C1A" stop-opacity="0.980392"/>
<stop offset="1" stop-color="#A96F09" stop-opacity="0.980392"/>
</linearGradient>
<linearGradient id="paint48_linear_245_4646" x1="161.219" y1="182.598" x2="147.071" y2="209.15" gradientUnits="userSpaceOnUse">
<stop stop-color="#FFA80F" stop-opacity="0.980392"/>
<stop offset="1" stop-opacity="0.980392"/>
</linearGradient>
<linearGradient id="paint49_linear_245_4646" x1="92.6856" y1="162.144" x2="91.2694" y2="113.738" gradientUnits="userSpaceOnUse">
<stop stop-color="#271273"/>
<stop offset="0.14" stop-color="#1F0E5C"/>
<stop offset="0.4" stop-color="#120834"/>
<stop offset="0.64" stop-color="#080418"/>
<stop offset="0.85" stop-color="#020106"/>
<stop offset="1"/>
</linearGradient>
<linearGradient id="paint50_linear_245_4646" x1="92.0021" y1="147.435" x2="91.379" y2="113.615" gradientUnits="userSpaceOnUse">
<stop stop-color="#FFA80F" stop-opacity="0.980392"/>
<stop offset="0.31" stop-color="#4A3104" stop-opacity="0.980392"/>
<stop offset="0.62" stop-color="#81570E" stop-opacity="0.980392"/>
<stop offset="0.86" stop-color="#FFA80F" stop-opacity="0.980392"/>
<stop offset="1" stop-color="#7B530C" stop-opacity="0.980392"/>
</linearGradient>
<linearGradient id="paint51_linear_245_4646" x1="91.7498" y1="134.719" x2="91.5924" y2="113.669" gradientUnits="userSpaceOnUse">
<stop stop-color="#FFA80F" stop-opacity="0.980392"/>
<stop offset="0.25" stop-color="#BF8520" stop-opacity="0.980392"/>
<stop offset="0.77" stop-color="#382A12" stop-opacity="0.980392"/>
<stop offset="1" stop-color="#0A0703" stop-opacity="0.980392"/>
</linearGradient>
<linearGradient id="paint52_linear_245_4646" x1="135.696" y1="187.356" x2="119.155" y2="207.252" gradientUnits="userSpaceOnUse">
<stop offset="0.04"/>
<stop offset="0.65" stop-color="#FFA80F" stop-opacity="0.980392"/>
</linearGradient>
<linearGradient id="paint53_linear_245_4646" x1="142.679" y1="346.745" x2="5.31995" y2="226.309" gradientUnits="userSpaceOnUse">
<stop offset="0.04" stop-color="#A7A9AC"/>
<stop offset="0.23" stop-color="#FFA80F" stop-opacity="0.980392"/>
<stop offset="0.59" stop-color="#FFA80F" stop-opacity="0.980392"/>
<stop offset="1" stop-color="#2AF6FF"/>
</linearGradient>
<linearGradient id="paint54_linear_245_4646" x1="136.211" y1="366.482" x2="8.53579" y2="277.629" gradientUnits="userSpaceOnUse">
<stop offset="0.04"/>
<stop offset="0.24" stop-color="#FFA80F" stop-opacity="0.980392"/>
<stop offset="0.65" stop-opacity="0.980392"/>
<stop offset="1" stop-color="#CAC8C5" stop-opacity="0.980392"/>
</linearGradient>
<linearGradient id="paint55_linear_245_4646" x1="151.748" y1="336.426" x2="14.3894" y2="215.99" gradientUnits="userSpaceOnUse">
<stop offset="0.04"/>
<stop offset="0.23"/>
</linearGradient>
<linearGradient id="paint56_linear_245_4646" x1="139.742" y1="361.399" x2="12.0915" y2="272.547" gradientUnits="userSpaceOnUse">
<stop offset="0.04" stop-color="white"/>
<stop offset="0.24" stop-color="#AE25B1"/>
<stop offset="0.65" stop-color="#D744BF"/>
<stop offset="1" stop-color="#FF63CE"/>
</linearGradient>
<clipPath id="clip0_245_4646">
<rect width="178" height="459" fill="white"/>
</clipPath>
</defs>
</svg>
