<svg width="50" height="50" viewBox="0 0 50 50" fill="none" xmlns="http://www.w3.org/2000/svg">
<circle cx="25" cy="25" r="25" fill="black"/>
<path d="M24.3333 42V39.3173C18.5386 38.9799 15.0182 35.9642 15 31.3929H20.25C20.3791 33.3331 21.9898 34.8144 24.3333 35.0759V27.8571L22.3814 27.3415C17.9334 26.297 15.5534 23.7034 15.5534 19.8222C15.5534 15.2472 18.7975 12.247 24.3333 11.7991V9H26.6667V11.7991C32.3097 12.2632 35.3438 15.3157 35.4167 19.6071H30.1667C30.1112 17.8349 29.0124 16.411 26.6667 16.2188V22.9955L28.914 23.5318C33.6382 24.5763 36 27.0469 36 31.0982C36 35.8375 32.8106 38.8974 26.6667 39.2981V42H24.3333ZM24.3333 22.5536V16.2188C22.3216 16.3307 20.8866 17.5793 20.8866 19.3515C20.8866 20.9942 22.0817 22.0681 24.3333 22.5536ZM26.6667 28.2991V35.0759C29.4484 34.9625 30.7777 33.6822 30.7777 31.7044C30.7777 29.8939 29.4484 28.6748 26.6667 28.2991Z" fill="#FFA80F" fill-opacity="0.980392"/>
</svg>
