<svg width="50" height="50" viewBox="0 0 50 50" fill="none" xmlns="http://www.w3.org/2000/svg">
<circle cx="25" cy="25" r="25" fill="black"/>
<path d="M36.2 37H14.6C14.1757 37 13.7687 36.8314 13.4686 36.5314C13.1686 36.2313 13 35.8243 13 35.4V13.8C13 13.5878 13.0843 13.3843 13.2343 13.2343C13.3843 13.0843 13.5878 13 13.8 13C14.0122 13 14.2157 13.0843 14.3657 13.2343C14.5157 13.3843 14.6 13.5878 14.6 13.8V35.4H36.2C36.4122 35.4 36.6157 35.4843 36.7657 35.6343C36.9157 35.7843 37 35.9878 37 36.2C37 36.4122 36.9157 36.6157 36.7657 36.7657C36.6157 36.9157 36.4122 37 36.2 37Z" fill="#FFA80F" fill-opacity="0.980392"/>
<path d="M20 33.8H18C17.5226 33.8 17.0647 33.6104 16.7272 33.2728C16.3896 32.9352 16.2 32.4774 16.2 32V24.4C16.2 23.9226 16.3896 23.4648 16.7272 23.1272C17.0647 22.7896 17.5226 22.6 18 22.6H20C20.4773 22.6 20.9352 22.7896 21.2727 23.1272C21.6103 23.4648 21.8 23.9226 21.8 24.4V32C21.8 32.4774 21.6103 32.9352 21.2727 33.2728C20.9352 33.6104 20.4773 33.8 20 33.8ZM27.2 33.8H25.2C24.7226 33.8 24.2647 33.6104 23.9272 33.2728C23.5896 32.9352 23.4 32.4774 23.4 32V22C23.4 21.5226 23.5896 21.0648 23.9272 20.7272C24.2647 20.3896 24.7226 20.2 25.2 20.2H27.2C27.6773 20.2 28.1352 20.3896 28.4727 20.7272C28.8103 21.0648 29 21.5226 29 22V32C29 32.4774 28.8103 32.9352 28.4727 33.2728C28.1352 33.6104 27.6773 33.8 27.2 33.8ZM34.382 33.8H32.382C31.9046 33.8 31.4467 33.6104 31.1092 33.2728C30.7716 32.9352 30.582 32.4774 30.582 32V18.8C30.582 18.3226 30.7716 17.8648 31.1092 17.5272C31.4467 17.1896 31.9046 17 32.382 17H34.382C34.8593 17 35.3172 17.1896 35.6547 17.5272C35.9923 17.8648 36.182 18.3226 36.182 18.8V32C36.182 32.4774 35.9923 32.9352 35.6547 33.2728C35.3172 33.6104 34.8593 33.8 34.382 33.8Z" fill="#FFA80F" fill-opacity="0.980392"/>
</svg>
