<svg width="36" height="24" viewBox="0 0 36 24" fill="none" xmlns="http://www.w3.org/2000/svg">
<g clip-path="url(#clip0_1132_9624)">
<path d="M0.117676 0H35.8824V24H0.117676V0Z" fill="white"/>
<path d="M0.117676 0H35.8824V6.4H0.117676V0ZM0.117676 17.6H35.8824V24H0.117676V17.6Z" fill="#D03433"/>
<path d="M0.117676 6.40039H35.8824V17.6004H0.117676V6.40039Z" fill="#FBCA46"/>
<path d="M12.5161 11.2002H14.1057V12.0002H12.5161V11.2002Z" fill="white"/>
<path d="M11.5616 13.6004C11.5616 14.0804 12.0385 14.4004 12.5154 14.4004C12.9922 14.4004 13.4691 14.0804 13.4691 13.6004L13.628 11.2004H11.4027L11.5616 13.6004ZM10.6079 11.2004C10.6079 10.7204 10.9258 10.4004 11.2437 10.4004H13.628C14.1049 10.4004 14.4228 10.7204 14.4228 11.0404V11.2004L14.2639 13.6004C14.1049 14.5604 13.4691 15.2004 12.5154 15.2004C11.5616 15.2004 10.9258 14.5604 10.7669 13.6004L10.6079 11.2004Z" fill="#A41517"/>
<path d="M10.9258 12H14.1049V12.8H13.3101L12.5154 14.4L11.7206 12.8H10.9258V12ZM8.5415 9.6H10.131V15.2H8.5415V9.6ZM14.8997 9.6H16.4892V15.2H14.8997V9.6ZM10.9258 8.8C10.9258 8.32 11.2437 8 11.7206 8H13.3101C13.787 8 14.1049 8.32 14.1049 8.8V9.12C14.1049 9.44 13.9459 9.6 13.628 9.6H11.2437C11.0848 9.6 10.9258 9.44 10.9258 9.28V8.8Z" fill="#A41517"/>
</g>
<defs>
<clipPath id="clip0_1132_9624">
<rect x="0.117676" width="35.7647" height="24" rx="2" fill="white"/>
</clipPath>
</defs>
</svg>
