<svg width="321" height="459" viewBox="0 0 321 459" fill="none" xmlns="http://www.w3.org/2000/svg">
<g clip-path="url(#clip0_2009_10999)">
<path d="M321.037 21.0705L284.301 0C215.127 52.6029 184.122 69.4152 153.08 77.7847C122.038 105.242 68.9905 136.922 -0.183594 164.086V314.149C-0.183594 374.644 23.7316 405.002 51.9082 419.759L88.4239 440.829L86.4034 430.918C108.497 434.085 130.764 435.899 153.08 436.351C153.08 436.351 284.301 297.63 284.301 150.027V61.9268L321.037 21.0705Z" fill="#F3A00E" fill-opacity="0.980392"/>
<path d="M0 164.086L36.5525 185.194L125.858 170.18L189.816 98.8558L153.263 77.7852C122.221 105.243 69.1741 136.922 0 164.086Z" fill="url(#paint0_linear_2009_10999)"/>
<path d="M317.069 18.7579L284.484 0C215.31 52.6029 184.305 69.4152 153.263 77.7847L189.815 98.8553H268.1L321.036 21.1806L317.069 18.7579Z" fill="url(#paint1_linear_2009_10999)" fill-opacity="0.980392"/>
<path d="M189.816 98.8551C158.774 126.313 105.727 157.992 36.5527 185.193V335.109C36.5527 482.713 189.779 457.348 189.816 457.348C189.853 457.348 321.037 318.591 321.037 171.024V21.0703C251.863 73.7099 220.858 90.5223 189.816 98.8551Z" fill="#4D4D4D"/>
<path d="M190.623 437.893C170.602 440.565 150.247 439.166 130.78 433.782C87.9826 420.897 54.5527 379.82 54.5527 325.125V200.647C64.6184 195.765 74.5004 190.553 83.9416 185.01C124.976 161.37 167.479 141.731 190.476 121.431C213.473 115.191 232.466 99.4061 273.463 75.6559C283.088 70.1252 292.884 64.0071 302.852 57.3018V181.779C302.852 236.475 292.933 302.586 250.136 364.88C232.326 390.801 212.422 415.22 190.623 437.893Z" fill="#9E9878"/>
<path d="M130.707 433.781C87.9093 420.897 54.4795 379.82 54.4795 325.125V200.647C64.5452 195.765 74.4272 190.552 83.8684 185.009C124.903 161.369 167.406 141.73 190.403 121.431V437.892C170.43 440.544 150.127 439.146 130.707 433.781Z" fill="#9E9878"/>
<path d="M241.65 214.707C234.263 265.918 207.54 312.362 166.966 344.507L142.059 387.786L115.902 372.883C81.444 352.767 81.444 287.867 115.902 227.959C150.361 168.051 206.237 135.821 240.805 155.937L266.961 171.061L241.65 214.707Z" fill="#5A3A01" fill-opacity="0.980392"/>
<path d="M142.059 242.861C107.6 302.769 107.6 367.669 142.059 387.786C176.517 407.902 232.393 375.672 266.961 315.801C301.53 255.93 301.42 190.993 266.961 170.877C232.503 150.76 176.517 182.953 142.059 242.861Z" fill="#E6B257" fill-opacity="0.980392"/>
<path d="M181.476 340.248L190.256 345.314C189.872 345.082 189.503 344.824 189.154 344.543L180.374 339.44L181.476 340.248Z" fill="#C6C0D0"/>
<path d="M266.924 223.333L258.181 218.23C256.41 217.425 254.458 217.103 252.522 217.297C250.586 217.49 248.736 218.192 247.16 219.331C242.939 221.925 239.41 225.502 236.874 229.757L245.727 234.859C248.273 230.603 251.8 227.016 256.013 224.397C257.581 223.284 259.413 222.6 261.327 222.413C263.241 222.226 265.171 222.543 266.924 223.333Z" fill="#D3E1FC"/>
<path d="M245.691 234.895L236.911 229.793L195.62 296.418L204.4 301.521L245.691 234.895Z" fill="#D3E1FC"/>
<path d="M164.137 324.244L155.357 319.142L180.338 339.478L189.118 344.58L164.137 324.244Z" fill="#D3E1FC"/>
<path d="M186.95 287.352L178.17 282.286C176.403 281.476 174.452 281.148 172.516 281.335C170.581 281.522 168.729 282.218 167.149 283.351L175.929 288.453C177.506 287.314 179.356 286.612 181.291 286.419C183.227 286.225 185.179 286.547 186.95 287.352Z" fill="#D3E1FC"/>
<path d="M175.929 288.453L167.149 283.351C163.198 285.783 159.856 289.085 157.378 293.005C150.838 303.063 150.03 314.736 155.357 319.104L164.137 324.207C158.7 319.839 159.618 308.129 166.157 298.107C168.626 294.179 171.97 290.875 175.929 288.453Z" fill="#D3E1FC"/>
<path d="M175.929 288.453C171.97 290.875 168.625 294.179 166.157 298.107C159.618 308.128 158.81 319.838 164.136 324.207L189.154 344.543C192.827 347.48 197.97 347.076 203.187 344.066C208.148 340.984 212.294 336.754 215.273 331.732L266.336 249.322C272.691 239.154 273.169 227.664 267.475 223.626C265.69 222.634 263.657 222.176 261.618 222.306C259.579 222.436 257.621 223.149 255.977 224.36C251.763 226.979 248.236 230.566 245.69 234.822L204.399 301.484L187.868 287.976C186.068 286.824 183.958 286.252 181.823 286.337C179.688 286.423 177.63 287.161 175.929 288.453Z" fill="white"/>
</g>
<defs>
<linearGradient id="paint0_linear_2009_10999" x1="94.9078" y1="77.7852" x2="94.9078" y2="185.194" gradientUnits="userSpaceOnUse">
<stop stop-color="#4A4336" stop-opacity="0.980392"/>
<stop offset="1" stop-color="#535353" stop-opacity="0"/>
</linearGradient>
<linearGradient id="paint1_linear_2009_10999" x1="237.15" y1="0" x2="237.15" y2="98.8553" gradientUnits="userSpaceOnUse">
<stop stop-color="#B07917"/>
<stop offset="1" stop-color="#FFA80F" stop-opacity="0"/>
</linearGradient>
<clipPath id="clip0_2009_10999">
<rect width="321" height="459" fill="white"/>
</clipPath>
</defs>
</svg>
