<svg width="52" height="52" viewBox="0 0 52 52" fill="none" xmlns="http://www.w3.org/2000/svg">
<g clip-path="url(#clip0_291_11378)">
<path d="M51.2232 32.2918C49.9783 37.2795 47.2822 41.7861 43.4758 45.2417C39.6694 48.6974 34.9236 50.9469 29.8386 51.7059C24.7536 52.4649 19.5577 51.6992 14.9079 49.5058C10.2581 47.3123 6.36317 43.7895 3.71565 39.3828C1.06813 34.9762 -0.213112 29.8835 0.0339461 24.7488C0.281004 19.6141 2.04526 14.6679 5.10363 10.5357C8.16201 6.40349 12.3771 3.27081 17.2161 1.53377C22.055 -0.203273 27.3004 -0.466668 32.2891 0.776885C35.6026 1.60191 38.721 3.07173 41.4661 5.10234C44.2113 7.13296 46.5292 9.68456 48.2876 12.6113C50.046 15.5381 51.2103 18.7826 51.714 22.1595C52.2178 25.5364 52.051 28.9794 51.2232 32.2918Z" fill="#F7931A"/>
<path d="M37.4658 22.2999C37.9814 18.8398 35.3471 16.9756 31.7453 15.7399L32.9177 11.0511L30.0927 10.345L28.9557 14.9066L26.6393 14.3911L27.7834 9.80123L24.9584 9.09509L23.7931 13.7838C23.1717 13.6426 22.5643 13.5014 21.9711 13.3531L18.0373 12.3716L17.2817 15.415C17.2817 15.415 19.4004 15.9023 19.3509 15.9305C19.7462 15.9767 20.1072 16.1768 20.3558 16.4874C20.6044 16.7981 20.7204 17.1943 20.6786 17.5899L19.3439 22.9495L17.4794 30.4275C17.4423 30.5611 17.3786 30.6858 17.2921 30.7942C17.2057 30.9026 17.0983 30.9924 16.9763 31.0583C16.8543 31.1242 16.7203 31.1649 16.5823 31.1778C16.4442 31.1908 16.305 31.1758 16.1729 31.1337C16.1729 31.176 14.0965 30.6182 14.0965 30.6182L12.6841 33.8876L16.3989 34.8126C17.1051 34.9821 17.7619 35.1657 18.4258 35.3352L17.2464 40.0734L20.0713 40.7795L21.2436 36.0908C22.0205 36.3026 22.7762 36.4932 23.5106 36.6768L22.3454 41.3444L25.1703 42.0506L26.3568 37.3194C31.2157 38.2374 34.881 37.8702 36.4135 33.471C37.6565 29.9403 36.357 27.8854 33.7934 26.5508C35.6579 26.1201 37.0633 24.8914 37.4376 22.3634L37.4658 22.2999ZM30.9473 31.4373C30.0645 34.968 24.1039 33.0685 22.1688 32.5812L23.7296 26.3037C25.6647 26.7839 31.8654 27.716 30.9473 31.4373ZM31.8301 22.2575C31.025 25.4846 26.0602 23.8463 24.4499 23.4438L25.8624 17.7453C27.4797 18.1337 32.6705 18.8822 31.8301 22.2434V22.2575Z" fill="white"/>
</g>
<defs>
<clipPath id="clip0_291_11378">
<rect width="52" height="52" fill="white"/>
</clipPath>
</defs>
</svg>
