<svg width="53" height="53" viewBox="0 0 53 53" fill="none" xmlns="http://www.w3.org/2000/svg">
<g clip-path="url(#clip0_291_11432)">
<path d="M26.5 9.77967e-07C31.7412 9.77967e-07 36.8647 1.5542 41.2226 4.46606C45.5805 7.37792 48.9771 11.5167 50.9828 16.3589C52.9885 21.2011 53.5133 26.5294 52.4908 31.6699C51.4683 36.8104 48.9444 41.5322 45.2383 45.2383C41.5322 48.9444 36.8104 51.4683 31.6699 52.4908C26.5294 53.5133 21.2011 52.9885 16.3589 50.9828C11.5167 48.9771 7.37792 45.5805 4.46606 41.2226C1.5542 36.8647 9.77967e-07 31.7412 9.77967e-07 26.5C-0.000944626 23.0197 0.683853 19.5733 2.01527 16.3578C3.34668 13.1422 5.29862 10.2205 7.75956 7.75957C10.2205 5.29862 13.1422 3.34668 16.3578 2.01527C19.5733 0.683853 23.0197 -0.000944626 26.5 9.77967e-07Z" fill="#F0B90B"/>
<path d="M19.6413 23.6571L23.6573 19.6555L24.4994 18.8062L26.5074 16.8054L33.3375 23.6571L37.3104 19.6555L26.5074 8.83093L15.6685 19.6555L19.6413 23.6571Z" fill="white"/>
<path d="M26.5114 22.5004L22.5215 26.4904L26.5114 30.4803L30.5013 26.4904L26.5114 22.5004Z" fill="white"/>
<path d="M33.3375 29.3573L26.5074 36.1874L24.1035 33.7908L23.6645 33.3445L19.6413 29.3573L15.6685 33.3301L26.5074 44.1547L37.3104 33.3301L33.3375 29.3573Z" fill="white"/>
<path d="M12.821 22.5121L8.83105 26.502L12.821 30.4919L16.8109 26.502L12.821 22.5121Z" fill="white"/>
<path d="M40.1706 22.512L36.1807 26.502L40.1706 30.4919L44.1605 26.502L40.1706 22.512Z" fill="white"/>
</g>
<defs>
<clipPath id="clip0_291_11432">
<rect width="53" height="53" fill="white"/>
</clipPath>
</defs>
</svg>
