<svg width="30" height="30" viewBox="0 0 30 30" fill="none" xmlns="http://www.w3.org/2000/svg">
<path d="M15 30C23.2839 30 30 23.2839 30 15C30 6.71611 23.2839 0 15 0C6.71611 0 0 6.71611 0 15C0 23.2839 6.71611 30 15 30ZM8.41154 14.6647C8.51826 14.5571 8.64513 14.4715 8.78491 14.413C8.92469 14.3544 9.07463 14.324 9.22618 14.3234C9.37773 14.3228 9.52791 14.352 9.66815 14.4095C9.80839 14.4669 9.93594 14.5514 10.0435 14.6582L13.8462 18.4312V8.79808C13.8462 8.49206 13.9677 8.19857 14.1841 7.98218C14.4005 7.7658 14.694 7.64423 15 7.64423C15.306 7.64423 15.5995 7.7658 15.8159 7.98218C16.0323 8.19857 16.1538 8.49206 16.1538 8.79808V18.4312L19.9565 14.6582C20.174 14.4426 20.4681 14.3223 20.7743 14.3236C21.0805 14.325 21.3736 14.4479 21.5892 14.6654C21.8047 14.8828 21.9251 15.177 21.9237 15.4832C21.9224 15.7894 21.7994 16.0825 21.582 16.2981L15.8127 22.0233C15.5966 22.2378 15.3045 22.3581 15 22.3581C14.6955 22.3581 14.4034 22.2378 14.1873 22.0233L8.41803 16.2981C8.31021 16.1913 8.22451 16.0644 8.16582 15.9245C8.10713 15.7845 8.07661 15.6344 8.07601 15.4827C8.07541 15.331 8.10473 15.1806 8.16231 15.0403C8.21988 14.8999 8.30457 14.7723 8.41154 14.6647Z" fill="#ED1212"/>
</svg>
