<svg width="52" height="52" viewBox="0 0 52 52" fill="none" xmlns="http://www.w3.org/2000/svg">
<g clip-path="url(#clip0_291_11409)">
<path d="M26 0C31.1423 0 36.1691 1.52487 40.4448 4.38179C44.7205 7.23871 48.053 11.2994 50.0209 16.0502C51.9888 20.8011 52.5036 26.0288 51.5004 31.0723C50.4972 36.1159 48.0209 40.7486 44.3848 44.3848C40.7486 48.0209 36.1159 50.4972 31.0724 51.5004C26.0288 52.5036 20.8011 51.9888 16.0502 50.0209C11.2994 48.053 7.23871 44.7205 4.38179 40.4448C1.52488 36.1691 0 31.1423 0 26C0.00187188 19.1049 2.74176 12.4928 7.6173 7.61729C12.4928 2.74175 19.1049 0.00187188 26 0Z" fill="#53AE94"/>
<path d="M29.2059 22.5399V18.6703H38.0538V12.774H13.9957V18.6703H22.8436V22.5329C15.6551 22.8648 10.2461 24.2841 10.2461 25.993C10.2461 27.7018 15.6551 29.1211 22.8436 29.453V41.8457H29.2412V29.453C36.4156 29.1211 41.8105 27.7018 41.8105 25.993C41.8105 24.2841 36.4156 22.8718 29.2412 22.5399M29.2412 28.4079C29.0576 28.4079 28.1326 28.4786 26.0636 28.4786C24.4183 28.4786 23.239 28.4291 22.8436 28.4079C16.4884 28.1255 11.7502 26.9957 11.7502 25.6964C11.7502 24.3971 16.4954 23.2673 22.8436 22.9848V27.3064C23.2602 27.3064 24.4536 27.4052 26.0918 27.4052C28.062 27.4052 29.0576 27.3205 29.2412 27.3064V22.9848C35.5964 23.2673 40.3064 24.3971 40.3064 25.6964C40.3064 26.9957 35.5753 28.1184 29.2412 28.4009" fill="white"/>
</g>
<defs>
<clipPath id="clip0_291_11409">
<rect width="52" height="52" fill="white"/>
</clipPath>
</defs>
</svg>
