<svg width="44" height="44" viewBox="0 0 44 44" fill="none" xmlns="http://www.w3.org/2000/svg">
    <path d="M6.00002 43.3334C4.53335 43.3334 3.2778 42.8111 2.23335 41.7667C1.18891 40.7222 0.666687 39.4667 0.666687 38C0.666687 36.5334 1.18891 35.2778 2.23335 34.2334C3.2778 33.1889 4.53335 32.6667 6.00002 32.6667C7.46669 32.6667 8.72224 33.1889 9.76669 34.2334C10.8111 35.2778 11.3334 36.5334 11.3334 38C11.3334 39.4667 10.8111 40.7222 9.76669 41.7667C8.72224 42.8111 7.46669 43.3334 6.00002 43.3334ZM22 43.3334C20.5334 43.3334 19.2778 42.8111 18.2334 41.7667C17.1889 40.7222 16.6667 39.4667 16.6667 38C16.6667 36.5334 17.1889 35.2778 18.2334 34.2334C19.2778 33.1889 20.5334 32.6667 22 32.6667C23.4667 32.6667 24.7222 33.1889 25.7667 34.2334C26.8111 35.2778 27.3334 36.5334 27.3334 38C27.3334 39.4667 26.8111 40.7222 25.7667 41.7667C24.7222 42.8111 23.4667 43.3334 22 43.3334ZM38 43.3334C36.5334 43.3334 35.2778 42.8111 34.2334 41.7667C33.1889 40.7222 32.6667 39.4667 32.6667 38C32.6667 36.5334 33.1889 35.2778 34.2334 34.2334C35.2778 33.1889 36.5334 32.6667 38 32.6667C39.4667 32.6667 40.7222 33.1889 41.7667 34.2334C42.8111 35.2778 43.3334 36.5334 43.3334 38C43.3334 39.4667 42.8111 40.7222 41.7667 41.7667C40.7222 42.8111 39.4667 43.3334 38 43.3334ZM6.00002 27.3334C4.53335 27.3334 3.2778 26.8111 2.23335 25.7667C1.18891 24.7222 0.666687 23.4667 0.666687 22C0.666687 20.5334 1.18891 19.2778 2.23335 18.2334C3.2778 17.1889 4.53335 16.6667 6.00002 16.6667C7.46669 16.6667 8.72224 17.1889 9.76669 18.2334C10.8111 19.2778 11.3334 20.5334 11.3334 22C11.3334 23.4667 10.8111 24.7222 9.76669 25.7667C8.72224 26.8111 7.46669 27.3334 6.00002 27.3334ZM22 27.3334C20.5334 27.3334 19.2778 26.8111 18.2334 25.7667C17.1889 24.7222 16.6667 23.4667 16.6667 22C16.6667 20.5334 17.1889 19.2778 18.2334 18.2334C19.2778 17.1889 20.5334 16.6667 22 16.6667C23.4667 16.6667 24.7222 17.1889 25.7667 18.2334C26.8111 19.2778 27.3334 20.5334 27.3334 22C27.3334 23.4667 26.8111 24.7222 25.7667 25.7667C24.7222 26.8111 23.4667 27.3334 22 27.3334ZM38 27.3334C36.5334 27.3334 35.2778 26.8111 34.2334 25.7667C33.1889 24.7222 32.6667 23.4667 32.6667 22C32.6667 20.5334 33.1889 19.2778 34.2334 18.2334C35.2778 17.1889 36.5334 16.6667 38 16.6667C39.4667 16.6667 40.7222 17.1889 41.7667 18.2334C42.8111 19.2778 43.3334 20.5334 43.3334 22C43.3334 23.4667 42.8111 24.7222 41.7667 25.7667C40.7222 26.8111 39.4667 27.3334 38 27.3334ZM6.00002 11.3334C4.53335 11.3334 3.2778 10.8111 2.23335 9.76669C1.18891 8.72224 0.666687 7.46669 0.666687 6.00002C0.666687 4.53335 1.18891 3.2778 2.23335 2.23335C3.2778 1.18891 4.53335 0.666687 6.00002 0.666687C7.46669 0.666687 8.72224 1.18891 9.76669 2.23335C10.8111 3.2778 11.3334 4.53335 11.3334 6.00002C11.3334 7.46669 10.8111 8.72224 9.76669 9.76669C8.72224 10.8111 7.46669 11.3334 6.00002 11.3334ZM22 11.3334C20.5334 11.3334 19.2778 10.8111 18.2334 9.76669C17.1889 8.72224 16.6667 7.46669 16.6667 6.00002C16.6667 4.53335 17.1889 3.2778 18.2334 2.23335C19.2778 1.18891 20.5334 0.666687 22 0.666687C23.4667 0.666687 24.7222 1.18891 25.7667 2.23335C26.8111 3.2778 27.3334 4.53335 27.3334 6.00002C27.3334 7.46669 26.8111 8.72224 25.7667 9.76669C24.7222 10.8111 23.4667 11.3334 22 11.3334ZM38 11.3334C36.5334 11.3334 35.2778 10.8111 34.2334 9.76669C33.1889 8.72224 32.6667 7.46669 32.6667 6.00002C32.6667 4.53335 33.1889 3.2778 34.2334 2.23335C35.2778 1.18891 36.5334 0.666687 38 0.666687C39.4667 0.666687 40.7222 1.18891 41.7667 2.23335C42.8111 3.2778 43.3334 4.53335 43.3334 6.00002C43.3334 7.46669 42.8111 8.72224 41.7667 9.76669C40.7222 10.8111 39.4667 11.3334 38 11.3334Z" fill="#FBC86E" />
</svg>