<svg width="290" height="550" viewBox="0 0 290 550" fill="none" xmlns="http://www.w3.org/2000/svg">
<g filter="url(#filter0_d_4_57781)">
<path d="M209.694 336.427C208.626 335.79 207.668 334.983 206.857 334.04C205.829 332.87 204.985 331.55 204.353 330.127C203.642 328.592 203.255 326.927 203.218 325.235L6.3291 439.655C6.36607 441.347 6.75243 443.012 7.46391 444.547C8.09573 445.97 8.94016 447.29 9.96831 448.46C10.779 449.403 11.737 450.21 12.8054 450.847C13.4593 451.324 14.2297 451.615 15.0354 451.691C15.8411 451.767 16.6524 451.624 17.3837 451.277L214.195 336.857C213.473 337.189 212.677 337.324 211.887 337.248C211.096 337.173 210.34 336.889 209.694 336.427Z" fill="#F5EDE0"/>
<path d="M7.24869 116.489L6.3291 439.635L203.218 325.216L204.118 2.08887L7.24869 116.489Z" fill="#F5EDE0"/>
<g clip-path="url(#clip0_4_57781)">
<path d="M31.1378 322.749L27.2051 325.019V323.121L31.1378 320.852V322.749Z" fill="#C3B9AC"/>
<path d="M39.4139 316.078L33.6812 319.385V321.283L39.4139 317.976V316.078Z" fill="#C3B9AC"/>
<path d="M50.7034 309.562L41.9575 314.61V316.508L50.7034 311.46V309.562Z" fill="#C3B9AC"/>
<path d="M64.3604 301.678L53.2471 308.095V309.993L64.3604 303.576V301.678Z" fill="#C3B9AC"/>
<path d="M66.9038 300.21V302.108L71.7561 299.29V297.393L66.9038 300.21Z" fill="#C3B9AC"/>
<path d="M36.0096 323.18L27.2051 328.267V330.165L36.0096 325.078V323.18Z" fill="#C3B9AC"/>
<path d="M44.3055 318.406L38.5728 321.713V323.611L44.3055 320.304V318.406Z" fill="#C3B9AC"/>
<path d="M53.8536 312.889L46.8491 316.939V318.837L53.8536 314.787V312.889Z" fill="#C3B9AC"/>
<path d="M60.7601 308.897L56.4165 311.421V313.319L60.7601 310.795V308.897Z" fill="#C3B9AC"/>
<path d="M63.3037 307.429V309.327L70.543 305.16V303.262L63.3037 307.429Z" fill="#C3B9AC"/>
<path d="M31.1378 331.163L27.2051 333.413V335.311L31.1378 333.061V331.163Z" fill="#C3B9AC"/>
<path d="M39.4139 326.369L33.6812 329.676V331.574L39.4139 328.267V326.369Z" fill="#C3B9AC"/>
<path d="M47.9055 321.478L41.9575 324.902V326.799L47.9055 323.356V321.478Z" fill="#C3B9AC"/>
<path d="M66.5517 310.697L50.4688 319.991V321.889L66.5517 312.595V310.697Z" fill="#C3B9AC"/>
<path d="M36.0096 333.491L27.2051 338.559V340.457L36.0096 335.389V333.491Z" fill="#C3B9AC"/>
<path d="M44.3055 328.697L38.5728 332.004V333.902L44.3055 330.595V328.697Z" fill="#C3B9AC"/>
<path d="M53.8536 323.18L46.8491 327.23V329.128L53.8536 325.078V323.18Z" fill="#C3B9AC"/>
<path d="M60.7601 319.208L56.4165 321.712V323.61L60.7601 321.106V319.208Z" fill="#C3B9AC"/>
<path d="M31.1378 341.454L27.2051 343.724V345.622L31.1378 343.352V341.454Z" fill="#C3B9AC"/>
<path d="M39.4139 336.661L33.6812 339.987V341.885L39.4139 338.559V336.661Z" fill="#C3B9AC"/>
<path d="M50.4686 330.302L41.9575 335.193V337.091L50.4686 332.2V330.302Z" fill="#C3B9AC"/>
<path d="M31.1378 352.998L27.2051 355.248V357.146L31.1378 354.896V352.998Z" fill="#C3B9AC"/>
<path d="M39.4139 348.204L33.6812 351.53V353.409L39.4139 350.102V348.204Z" fill="#C3B9AC"/>
<path d="M53.7947 339.908L41.9575 346.737V348.634L53.7947 341.806V339.908Z" fill="#C3B9AC"/>
<path d="M62.5994 334.821L56.3384 338.441V340.339L62.5994 336.719V334.821Z" fill="#C3B9AC"/>
<path d="M36.0096 355.326L27.2051 360.413V362.292L36.0096 357.224V355.326Z" fill="#C3B9AC"/>
<path d="M44.3055 350.533L38.5728 353.859V355.738L44.3055 352.431V350.533Z" fill="#C3B9AC"/>
<path d="M49.9014 347.305L46.8491 349.066V350.963L49.9014 349.203V347.305Z" fill="#C3B9AC"/>
<path d="M56.7884 343.333L52.4448 345.837V347.735L56.7884 345.231V343.333Z" fill="#C3B9AC"/>
<path d="M31.1378 363.25L27.2051 365.5V367.398L31.1378 365.148V363.25Z" fill="#C3B9AC"/>
<path d="M37.203 359.729L33.6812 361.763V363.661L37.203 361.626V359.729Z" fill="#C3B9AC"/>
<path d="M33.8183 366.851L27.2051 370.646V372.544L33.8183 368.748V366.851Z" fill="#C3B9AC"/>
<path d="M126.716 267.575L122.138 270.216V268.318L126.716 265.677V267.575Z" fill="#C3B9AC"/>
<path d="M136.381 260.101L129.69 263.955V265.853L136.381 261.998V260.101Z" fill="#C3B9AC"/>
<path d="M149.53 252.489L139.355 258.379V260.276L149.53 254.387V252.489Z" fill="#C3B9AC"/>
<path d="M163.46 244.468L152.503 250.787V252.685L163.46 246.366V244.468Z" fill="#C3B9AC"/>
<path d="M166.434 242.746V244.644L171.091 241.944V240.046L166.434 242.746Z" fill="#C3B9AC"/>
<path d="M132.41 267.535L122.138 273.464V275.361L132.41 269.433V267.535Z" fill="#C3B9AC"/>
<path d="M142.075 261.959L135.384 265.813V267.711L142.075 263.857V261.959Z" fill="#C3B9AC"/>
<path d="M153.227 255.522L145.049 260.238V262.136L153.227 257.42V255.522Z" fill="#C3B9AC"/>
<path d="M161.269 250.885L156.201 253.8V255.698L161.269 252.763V250.885Z" fill="#C3B9AC"/>
<path d="M164.243 249.163V251.061L171.071 247.109V245.211L164.243 249.163Z" fill="#C3B9AC"/>
<path d="M126.716 275.968L122.138 278.609V280.507L126.716 277.866V275.968Z" fill="#C3B9AC"/>
<path d="M136.381 270.392L129.69 274.266V276.144L136.381 272.289V270.392Z" fill="#C3B9AC"/>
<path d="M146.282 264.679L139.355 268.67V270.568L146.282 266.577V264.679Z" fill="#C3B9AC"/>
<path d="M168.038 252.117L149.255 262.957V264.854L168.038 254.015V252.117Z" fill="#C3B9AC"/>
<path d="M132.41 277.827L122.138 283.756V285.653L132.41 279.725V277.827Z" fill="#C3B9AC"/>
<path d="M142.075 272.251L135.384 276.125V278.023L142.075 274.149V272.251Z" fill="#C3B9AC"/>
<path d="M153.227 265.813L145.049 270.529V272.427L153.227 267.711V265.813Z" fill="#C3B9AC"/>
<path d="M161.269 261.177L156.201 264.092V265.99L161.269 263.075V261.177Z" fill="#C3B9AC"/>
<path d="M126.716 286.279L122.138 288.901V290.799L126.716 288.177V286.279Z" fill="#C3B9AC"/>
<path d="M136.381 280.703L129.69 284.558V286.455L136.381 282.581V280.703Z" fill="#C3B9AC"/>
<path d="M149.256 273.248L139.355 278.981V280.879L149.256 275.146V273.248Z" fill="#C3B9AC"/>
<path d="M126.716 297.804L122.138 300.445V302.343L126.716 299.702V297.804Z" fill="#C3B9AC"/>
<path d="M136.381 292.228L129.69 296.102V297.999L136.381 294.125V292.228Z" fill="#C3B9AC"/>
<path d="M151.134 283.716L139.355 290.525V292.423L151.134 285.594V283.716Z" fill="#C3B9AC"/>
<path d="M163.402 276.634L154.108 281.995V283.893L163.402 278.532V276.634Z" fill="#C3B9AC"/>
<path d="M132.41 299.662L122.138 305.59V307.488L132.41 301.56V299.662Z" fill="#C3B9AC"/>
<path d="M142.075 294.086L135.384 297.96V299.858L142.075 295.984V294.086Z" fill="#C3B9AC"/>
<path d="M155.36 286.416L145.049 292.384V294.281L155.36 288.314V286.416Z" fill="#C3B9AC"/>
<path d="M163.401 281.779L158.334 284.695V286.592L163.401 283.677V281.779Z" fill="#C3B9AC"/>
<path d="M126.716 308.056L122.138 310.697V312.595L126.716 309.954V308.056Z" fill="#C3B9AC"/>
<path d="M136.381 302.479L129.69 306.353V308.232L136.381 304.377V302.479Z" fill="#C3B9AC"/>
<path d="M133.036 309.562L122.138 315.843V317.741L133.036 311.46V309.562Z" fill="#C3B9AC"/>
<path d="M182.4 235.409L177.626 238.187V236.289L182.4 233.511V235.409Z" fill="#C3B9AC"/>
<path d="M194.687 226.428L185.511 231.73V233.628L194.687 228.326V226.428Z" fill="#C3B9AC"/>
<path d="M188.368 235.232L177.626 241.435V243.333L188.368 237.13V235.232Z" fill="#C3B9AC"/>
<path d="M194.687 231.573L191.478 233.432V235.33L194.687 233.471V231.573Z" fill="#C3B9AC"/>
<path d="M182.4 243.822L177.626 246.581V248.479L182.4 245.72V243.822Z" fill="#C3B9AC"/>
<path d="M194.687 236.739L185.511 242.022V243.92L194.687 238.637V236.739Z" fill="#C3B9AC"/>
<path d="M188.368 245.524L177.626 251.727V253.625L188.368 247.422V245.524Z" fill="#C3B9AC"/>
<path d="M194.687 241.885L191.478 243.724V245.622L194.687 243.783V241.885Z" fill="#C3B9AC"/>
<path d="M182.4 254.113L177.626 256.872V258.77L182.4 256.011V254.113Z" fill="#C3B9AC"/>
<path d="M194.687 247.03L185.511 252.313V254.211L194.687 248.928V247.03Z" fill="#C3B9AC"/>
<path d="M182.4 265.657L177.626 268.416V270.314L182.4 267.555V265.657Z" fill="#C3B9AC"/>
<path d="M194.687 258.574L185.511 263.857V265.755L194.687 260.472V258.574Z" fill="#C3B9AC"/>
<path d="M188.368 267.359L177.626 273.562V275.46L188.368 269.257V267.359Z" fill="#C3B9AC"/>
<path d="M194.687 263.72L191.478 265.559V267.457L194.687 265.618V263.72Z" fill="#C3B9AC"/>
<path d="M182.4 275.909L177.626 278.668V280.566L182.4 277.807V275.909Z" fill="#C3B9AC"/>
<path d="M194.687 268.807L185.511 274.109V276.007L194.687 270.704V268.807Z" fill="#C3B9AC"/>
<path d="M187.702 277.983L177.626 283.814V285.712L187.702 279.881V277.983Z" fill="#C3B9AC"/>
<path d="M194.335 274.168L191.048 276.066V277.964L194.335 276.066V274.168Z" fill="#C3B9AC"/>
<path d="M85.6866 291.248L81.7734 293.518V291.62L85.6866 289.351V291.248Z" fill="#C3B9AC"/>
<path d="M93.9828 284.577L88.2305 287.884V289.782L93.9828 286.475V284.577Z" fill="#C3B9AC"/>
<path d="M105.253 278.062L96.5264 283.109V285.007L105.253 279.959V278.062Z" fill="#C3B9AC"/>
<path d="M90.578 291.68L81.7734 296.767V298.665L90.578 293.578V291.68Z" fill="#C3B9AC"/>
<path d="M98.8543 286.905L93.1216 290.212V292.11L98.8543 288.803V286.905Z" fill="#C3B9AC"/>
<path d="M108.422 281.388L101.398 285.438V287.336L108.422 283.286V281.388Z" fill="#C3B9AC"/>
<path d="M85.6866 299.662L81.7734 301.932V303.81L85.6866 301.56V299.662Z" fill="#C3B9AC"/>
<path d="M93.9828 294.868L88.2305 298.194V300.092L93.9828 296.766V294.868Z" fill="#C3B9AC"/>
<path d="M102.474 289.978L96.5264 293.402V295.299L102.474 291.875V289.978Z" fill="#C3B9AC"/>
<path d="M90.578 301.99L81.7734 307.077V308.956L90.578 303.888V301.99Z" fill="#C3B9AC"/>
<path d="M98.8543 297.197L93.1216 300.523V302.421L98.8543 299.095V297.197Z" fill="#C3B9AC"/>
<path d="M108.422 291.68L101.398 295.73V297.628L108.422 293.578V291.68Z" fill="#C3B9AC"/>
<path d="M85.6866 309.954L81.7734 312.224V314.122L85.6866 311.852V309.954Z" fill="#C3B9AC"/>
<path d="M93.9828 305.18L88.2305 308.486V310.384L93.9828 307.078V305.18Z" fill="#C3B9AC"/>
<path d="M105.018 298.801L96.5264 303.692V305.59L105.018 300.699V298.801Z" fill="#C3B9AC"/>
<path d="M85.6866 321.497L81.7734 323.767V325.645L85.6866 323.395V321.497Z" fill="#C3B9AC"/>
<path d="M93.9828 316.724L88.2305 320.03V321.928L93.9828 318.602V316.724Z" fill="#C3B9AC"/>
<path d="M90.578 323.826L81.7734 328.913V330.811L90.578 325.724V323.826Z" fill="#C3B9AC"/>
<path d="M98.8543 319.052L93.1216 322.358V324.256L98.8543 320.93V319.052Z" fill="#C3B9AC"/>
<path d="M104.45 315.804L101.398 317.565V319.462L104.45 317.702V315.804Z" fill="#C3B9AC"/>
<path d="M85.6866 331.75L81.7734 334V335.898L85.6866 333.648V331.75Z" fill="#C3B9AC"/>
<path d="M95.9977 330.947L81.7734 339.165V341.063L95.9977 332.845V330.947Z" fill="#C3B9AC"/>
<path d="M31.0204 283.169L26.9312 285.536V283.56L31.0204 281.192V283.169Z" fill="#C3B9AC"/>
<path d="M39.6878 278.179L33.6812 281.642V279.666L39.6878 276.203V278.179Z" fill="#C3B9AC"/>
<path d="M58.843 267.105L42.3491 276.634V274.657L58.843 265.129V267.105Z" fill="#C3B9AC"/>
<path d="M68.0383 261.802L61.5034 265.578V263.602L68.0383 259.826V261.802Z" fill="#C3B9AC"/>
<path d="M70.6997 258.281V260.257L73.8693 258.437V256.461L70.6997 258.281Z" fill="#C3B9AC"/>
<path d="M82.4391 253.487L76.5303 256.911V254.915L82.4391 251.511V253.487Z" fill="#C3B9AC"/>
<path d="M90.1476 249.026L85.0996 251.941V249.965L90.1476 247.05V249.026Z" fill="#C3B9AC"/>
<path d="M36.127 285.614L26.9312 290.916V288.94L36.127 283.618V285.614Z" fill="#C3B9AC"/>
<path d="M44.7947 280.605L38.7881 284.068V282.092L44.7947 278.629V280.605Z" fill="#C3B9AC"/>
<path d="M54.7731 274.834L47.4556 279.079V277.084L54.7731 272.857V274.834Z" fill="#C3B9AC"/>
<path d="M61.9733 270.685L57.4341 273.307V271.331L61.9733 268.709V270.685Z" fill="#C3B9AC"/>
<path d="M64.6343 267.164V269.14L70.2887 265.892V263.896L64.6343 267.164Z" fill="#C3B9AC"/>
<path d="M78.1542 261.352L72.9497 264.346V262.37L78.1542 259.356V261.352Z" fill="#C3B9AC"/>
<path d="M94.7652 251.765L80.8149 259.807V257.831L94.7652 249.77V251.765Z" fill="#C3B9AC"/>
<path d="M31.0204 293.929L26.9312 296.297V294.321L31.0204 291.953V293.929Z" fill="#C3B9AC"/>
<path d="M39.6878 288.94L33.6812 292.403V290.407L39.6878 286.964V288.94Z" fill="#C3B9AC"/>
<path d="M48.5514 283.814L42.3491 287.395V285.418L48.5514 281.838V283.814Z" fill="#C3B9AC"/>
<path d="M68.0383 272.564L51.2314 282.269V280.292L68.0383 270.588V272.564Z" fill="#C3B9AC"/>
<path d="M70.6997 269.042V271.018L73.8693 269.199V267.223L70.6997 269.042Z" fill="#C3B9AC"/>
<path d="M82.4391 264.249L76.5303 267.673V265.677L82.4391 262.272V264.249Z" fill="#C3B9AC"/>
<path d="M90.1476 259.788L85.0996 262.703V260.727L90.1476 257.812V259.788Z" fill="#C3B9AC"/>
<path d="M36.127 296.376L26.9312 301.678V299.702L36.127 294.38V296.376Z" fill="#C3B9AC"/>
<path d="M44.7947 291.367L38.7881 294.83V292.854L44.7947 289.391V291.367Z" fill="#C3B9AC"/>
<path d="M54.7731 285.594L47.4556 289.84V287.844L54.7731 283.618V285.594Z" fill="#C3B9AC"/>
<path d="M61.9733 281.447L57.4341 284.069V282.092L61.9733 279.471V281.447Z" fill="#C3B9AC"/>
<path d="M64.6343 277.925V279.901L70.2887 276.653V274.657L64.6343 277.925Z" fill="#C3B9AC"/>
<path d="M78.1542 272.114L72.9497 275.107V273.131L78.1542 270.118V272.114Z" fill="#C3B9AC"/>
<path d="M96.0761 261.763L80.8149 270.568V268.592L96.0761 259.768V261.763Z" fill="#C3B9AC"/>
<path d="M31.0204 304.691L26.9312 307.058V305.082L31.0204 302.715V304.691Z" fill="#C3B9AC"/>
<path d="M39.6878 299.702L33.6812 303.165V301.169L39.6878 297.726V299.702Z" fill="#C3B9AC"/>
<path d="M60.0952 287.903L42.3491 298.155V296.179L60.0952 285.927V287.903Z" fill="#C3B9AC"/>
<path d="M68.0385 283.325L59.1753 288.451V286.475L68.0385 281.349V283.325Z" fill="#C3B9AC"/>
<path d="M70.6997 279.803V281.779L73.8693 279.96V277.983L70.6997 279.803Z" fill="#C3B9AC"/>
<path d="M82.4391 275.009L76.5303 278.433V276.438L82.4391 273.033V275.009Z" fill="#C3B9AC"/>
<path d="M90.1476 270.548L85.0996 273.464V271.488L90.1476 268.572V270.548Z" fill="#C3B9AC"/>
<path d="M36.127 307.136L26.9312 312.439V310.462L36.127 305.141V307.136Z" fill="#C3B9AC"/>
<path d="M44.7947 302.127L38.7881 305.591V303.614L44.7947 300.151V302.127Z" fill="#C3B9AC"/>
<path d="M50.6056 298.782L47.4556 300.601V298.606L50.6056 296.786V298.782Z" fill="#C3B9AC"/>
<path d="M61.9733 292.208L53.2666 297.236V295.26L61.9733 290.231V292.208Z" fill="#C3B9AC"/>
<path d="M64.6343 288.685V290.662L70.2887 287.414V285.418L64.6343 288.685Z" fill="#C3B9AC"/>
<path d="M78.1542 282.875L72.9497 285.868V283.892L78.1542 280.879V282.875Z" fill="#C3B9AC"/>
<path d="M97.4066 271.761L80.8149 281.329V279.353L97.4066 269.766V271.761Z" fill="#C3B9AC"/>
<path d="M102.004 242.198L92.7891 247.52V245.524L102.004 240.202V242.198Z" fill="#C3B9AC"/>
<path d="M110.672 237.189L104.666 240.652V238.676L110.672 235.213V237.189Z" fill="#C3B9AC"/>
<path d="M125.151 228.835L113.333 235.663V233.687L125.151 226.858V228.835Z" fill="#C3B9AC"/>
<path d="M137.653 221.615L127.812 227.289V225.313L137.653 219.619V221.615Z" fill="#C3B9AC"/>
<path d="M140.314 218.093V220.07L149.608 214.709V212.732L140.314 218.093Z" fill="#C3B9AC"/>
<path d="M158.177 209.758L152.269 213.182V211.187L158.177 207.782V209.758Z" fill="#C3B9AC"/>
<path d="M107.111 244.624L97.4067 250.239V248.243L107.111 242.647V244.624Z" fill="#C3B9AC"/>
<path d="M115.779 239.634L109.772 243.097V241.102L115.779 237.658V239.634Z" fill="#C3B9AC"/>
<path d="M120.787 236.739L118.439 238.089V236.113L120.787 234.743V236.739Z" fill="#C3B9AC"/>
<path d="M131.588 230.498L123.449 235.193V233.217L131.588 228.521V230.498Z" fill="#C3B9AC"/>
<path d="M134.249 226.976V228.952L142.427 224.237V222.261L134.249 226.976Z" fill="#C3B9AC"/>
<path d="M153.892 217.624L145.088 222.711V220.715L153.892 215.647V217.624Z" fill="#C3B9AC"/>
<path d="M102.004 252.959L92.7891 258.28V256.285L102.004 250.963V252.959Z" fill="#C3B9AC"/>
<path d="M110.672 247.95L104.666 251.413V249.437L110.672 245.974V247.95Z" fill="#C3B9AC"/>
<path d="M117.951 243.744L113.333 246.424V244.448L117.951 241.768V243.744Z" fill="#C3B9AC"/>
<path d="M137.653 232.376L120.611 242.217V240.241L137.653 230.38V232.376Z" fill="#C3B9AC"/>
<path d="M140.314 228.854V230.83L149.608 225.469V223.493L140.314 228.854Z" fill="#C3B9AC"/>
<path d="M158.177 220.519L152.269 223.943V221.947L158.177 218.543V220.519Z" fill="#C3B9AC"/>
<path d="M107.111 255.385L98.7173 260.238V258.242L107.111 253.409V255.385Z" fill="#C3B9AC"/>
<path d="M115.779 250.396L109.772 253.84V251.864L115.779 248.4V250.396Z" fill="#C3B9AC"/>
<path d="M123.057 246.169L118.439 248.85V246.874L123.057 244.193V246.169Z" fill="#C3B9AC"/>
<path d="M131.588 241.258L125.718 244.643V242.667L131.588 239.282V241.258Z" fill="#C3B9AC"/>
<path d="M134.249 237.737V239.713L142.427 234.998V233.021L134.249 237.737Z" fill="#C3B9AC"/>
<path d="M153.892 228.384L145.088 233.471V231.476L153.892 226.408V228.384Z" fill="#C3B9AC"/>
<path d="M102.004 263.72L92.7891 269.042V267.046L102.004 261.725V263.72Z" fill="#C3B9AC"/>
<path d="M110.672 258.711L104.666 262.175V260.198L110.672 256.735V258.711Z" fill="#C3B9AC"/>
<path d="M120.788 252.861L113.333 257.185V255.209L120.788 250.885V252.861Z" fill="#C3B9AC"/>
<path d="M137.653 243.137L123.449 251.335V249.359L137.653 241.142V243.137Z" fill="#C3B9AC"/>
<path d="M140.314 239.615V241.591L149.608 236.23V234.254L140.314 239.615Z" fill="#C3B9AC"/>
<path d="M158.177 231.28L152.269 234.704V232.708L158.177 229.304V231.28Z" fill="#C3B9AC"/>
<path d="M107.111 266.146L100.048 270.235V268.24L107.111 264.17V266.146Z" fill="#C3B9AC"/>
<path d="M115.779 261.157L109.772 264.6V262.624L115.779 259.161V261.157Z" fill="#C3B9AC"/>
<path d="M122.529 257.244L118.439 259.611V257.635L122.529 255.268V257.244Z" fill="#C3B9AC"/>
<path d="M131.588 252.02L120.24 258.575V256.598L131.588 250.044V252.02Z" fill="#C3B9AC"/>
<path d="M134.249 248.498V250.474L142.427 245.758V243.782L134.249 248.498Z" fill="#C3B9AC"/>
<path d="M153.892 239.146L145.088 244.233V242.237L153.892 237.15V239.146Z" fill="#C3B9AC"/>
<path d="M194.726 188.667L181.304 196.415V194.438L194.726 186.69V188.667Z" fill="#C3B9AC"/>
<path d="M188.798 197.47L177.508 203.986V201.99L188.798 195.475V197.47Z" fill="#C3B9AC"/>
<path d="M194.609 194.105L191.458 195.925V193.949L194.609 192.129V194.105Z" fill="#C3B9AC"/>
<path d="M188.798 208.232L177.508 214.747V212.752L188.798 206.236V208.232Z" fill="#C3B9AC"/>
<path d="M194.609 204.867L191.458 206.686V204.71L194.609 202.891V204.867Z" fill="#C3B9AC"/>
<path d="M194.922 210.071L181.304 217.936V215.96L194.922 208.095V210.071Z" fill="#C3B9AC"/>
<path d="M185.139 221.106L177.508 225.508V223.513L185.139 219.11V221.106Z" fill="#C3B9AC"/>
<path d="M194.667 215.608L187.8 219.56V217.584L194.667 213.612V215.608Z" fill="#C3B9AC"/>
<path d="M160.858 206.236V208.212L170.132 202.871V200.875L160.858 206.236Z" fill="#C3B9AC"/>
<path d="M178.721 197.901L172.793 201.325V199.349L178.721 195.925V197.901Z" fill="#C3B9AC"/>
<path d="M156.71 214.003V215.999L162.951 212.379V210.403L156.71 214.003Z" fill="#C3B9AC"/>
<path d="M174.417 205.766L165.612 210.853V208.858L174.417 203.79V205.766Z" fill="#C3B9AC"/>
<path d="M160.858 216.998V218.974L170.132 213.632V211.637L160.858 216.998Z" fill="#C3B9AC"/>
<path d="M178.721 208.663L172.793 212.087V210.111L178.721 206.687V208.663Z" fill="#C3B9AC"/>
<path d="M156.71 224.765V226.761L162.951 223.141V221.165L156.71 224.765Z" fill="#C3B9AC"/>
<path d="M174.417 216.528L165.612 221.615V219.619L174.417 214.552V216.528Z" fill="#C3B9AC"/>
<path d="M160.858 227.758V229.735L170.132 224.393V222.397L160.858 227.758Z" fill="#C3B9AC"/>
<path d="M178.721 219.423L172.793 222.847V220.871L178.721 217.447V219.423Z" fill="#C3B9AC"/>
<path d="M156.71 235.526V237.502L162.951 233.902V231.926L156.71 235.526Z" fill="#C3B9AC"/>
<path d="M174.417 227.289L165.612 232.376V230.38L174.417 225.312V227.289Z" fill="#C3B9AC"/>
<path d="M31.0204 244.604L26.9312 246.972V244.995L31.0204 242.628V244.604Z" fill="#C3B9AC"/>
<path d="M39.6878 239.615L33.6812 243.078V241.102L39.6878 237.639V239.615Z" fill="#C3B9AC"/>
<path d="M58.843 228.56L42.3491 238.089V236.093L58.843 226.564V228.56Z" fill="#C3B9AC"/>
<path d="M68.0383 223.239L61.5034 227.015V225.039L68.0383 221.263V223.239Z" fill="#C3B9AC"/>
<path d="M70.6997 219.717V221.713L73.8693 219.874V217.897L70.6997 219.717Z" fill="#C3B9AC"/>
<path d="M82.4391 214.923L76.5303 218.347V216.371L82.4391 212.947V214.923Z" fill="#C3B9AC"/>
<path d="M90.1476 210.482L85.0996 213.397V211.402L90.1476 208.486V210.482Z" fill="#C3B9AC"/>
<path d="M36.127 247.05L26.9312 252.353V250.377L36.127 245.074V247.05Z" fill="#C3B9AC"/>
<path d="M44.7947 242.042L38.7881 245.505V243.529L44.7947 240.065V242.042Z" fill="#C3B9AC"/>
<path d="M54.7731 236.289L47.4556 240.515V238.519L54.7731 234.293V236.289Z" fill="#C3B9AC"/>
<path d="M61.9733 232.122L57.4341 234.743V232.767L61.9733 230.146V232.122Z" fill="#C3B9AC"/>
<path d="M64.6343 228.599V230.595L70.2887 227.328V225.352L64.6343 228.599Z" fill="#C3B9AC"/>
<path d="M78.1542 222.789L72.9497 225.782V223.806L78.1542 220.793V222.789Z" fill="#C3B9AC"/>
<path d="M89.1108 216.469L80.8149 221.243V219.267L89.1108 214.474V216.469Z" fill="#C3B9AC"/>
<path d="M31.0204 255.366L26.9312 257.733V255.757L31.0204 253.39V255.366Z" fill="#C3B9AC"/>
<path d="M39.6878 250.377L33.6812 253.84V251.864L39.6878 248.4V250.377Z" fill="#C3B9AC"/>
<path d="M48.5514 245.251L42.3491 248.831V246.855L48.5514 243.274V245.251Z" fill="#C3B9AC"/>
<path d="M68.0383 234L51.2314 243.724V241.728L68.0383 232.023V234Z" fill="#C3B9AC"/>
<path d="M70.6997 230.478V232.474L73.8693 230.634V228.658L70.6997 230.478Z" fill="#C3B9AC"/>
<path d="M82.4391 225.684L76.5303 229.108V227.132L82.4391 223.708V225.684Z" fill="#C3B9AC"/>
<path d="M90.1476 221.243L85.0996 224.158V222.162L90.1476 219.247V221.243Z" fill="#C3B9AC"/>
<path d="M36.127 257.811L26.9312 263.113V261.137L36.127 255.815V257.811Z" fill="#C3B9AC"/>
<path d="M44.7947 252.802L38.7881 256.265V254.289L44.7947 250.826V252.802Z" fill="#C3B9AC"/>
<path d="M54.7731 247.05L47.4556 251.277V249.281L54.7731 245.055V247.05Z" fill="#C3B9AC"/>
<path d="M61.9733 242.882L57.4341 245.504V243.528L61.9733 240.906V242.882Z" fill="#C3B9AC"/>
<path d="M64.6343 239.361V241.357L70.2887 238.089V236.113L64.6343 239.361Z" fill="#C3B9AC"/>
<path d="M78.1542 233.549L72.9497 236.543V234.567L78.1542 231.554V233.549Z" fill="#C3B9AC"/>
<path d="M96.0761 223.2L80.8149 232.004V230.028L96.0761 221.224V223.2Z" fill="#C3B9AC"/>
<path d="M31.0204 266.127L26.9312 268.494V266.518L31.0204 264.15V266.127Z" fill="#C3B9AC"/>
<path d="M39.6878 261.137L33.6812 264.6V262.624L39.6878 259.161V261.137Z" fill="#C3B9AC"/>
<path d="M60.0952 249.339L42.3491 259.592V257.616L60.0952 247.363V249.339Z" fill="#C3B9AC"/>
<path d="M68.0385 244.761L59.1753 249.887V247.911L68.0385 242.785V244.761Z" fill="#C3B9AC"/>
<path d="M70.6997 241.24V243.235L73.8693 241.396V239.42L70.6997 241.24Z" fill="#C3B9AC"/>
<path d="M82.4391 236.446L76.5303 239.87V237.874L82.4391 234.47V236.446Z" fill="#C3B9AC"/>
<path d="M90.1476 232.004L85.0996 234.92V232.924L90.1476 230.009V232.004Z" fill="#C3B9AC"/>
<path d="M36.127 268.572L26.9312 273.874V271.898L36.127 266.576V268.572Z" fill="#C3B9AC"/>
<path d="M44.7947 263.563L38.7881 267.026V265.05L44.7947 261.587V263.563Z" fill="#C3B9AC"/>
<path d="M50.6056 260.217L47.4556 262.037V260.041L50.6056 258.241V260.217Z" fill="#C3B9AC"/>
<path d="M61.9733 253.644L53.2666 258.672V256.696L61.9733 251.668V253.644Z" fill="#C3B9AC"/>
<path d="M64.6343 250.122V252.098L70.2887 248.85V246.874L64.6343 250.122Z" fill="#C3B9AC"/>
<path d="M78.1542 244.311L72.9497 247.305V245.329L78.1542 242.315V244.311Z" fill="#C3B9AC"/>
<path d="M97.4066 233.198L80.8149 242.765V240.789L97.4066 231.222V233.198Z" fill="#C3B9AC"/>
<path d="M102.004 203.634L92.7891 208.956V206.98L102.004 201.658V203.634Z" fill="#C3B9AC"/>
<path d="M110.672 198.626L104.666 202.089V200.113L110.672 196.649V198.626Z" fill="#C3B9AC"/>
<path d="M125.151 190.271L120.983 192.678V190.701L125.151 188.295V190.271Z" fill="#C3B9AC"/>
<path d="M137.653 183.051L127.812 188.745V186.749L137.653 181.075V183.051Z" fill="#C3B9AC"/>
<path d="M140.314 179.529V181.505L149.608 176.164V174.168L140.314 179.529Z" fill="#C3B9AC"/>
<path d="M158.177 171.194L152.269 174.618V172.642L158.177 169.218V171.194Z" fill="#C3B9AC"/>
<path d="M107.111 206.06L97.4067 211.675V209.699L107.111 204.084V206.06Z" fill="#C3B9AC"/>
<path d="M115.779 201.071L109.772 204.534V202.538L115.779 199.095V201.071Z" fill="#C3B9AC"/>
<path d="M120.787 198.175L118.439 199.525V197.549L120.787 196.18V198.175Z" fill="#C3B9AC"/>
<path d="M131.588 191.934L123.449 196.63V194.654L131.588 189.958V191.934Z" fill="#C3B9AC"/>
<path d="M134.249 188.412V190.388L142.427 185.672V183.696L134.249 188.412Z" fill="#C3B9AC"/>
<path d="M153.892 179.059L145.088 184.146V182.151L153.892 177.083V179.059Z" fill="#C3B9AC"/>
<path d="M102.004 214.395L92.7891 219.717V217.741L102.004 212.419V214.395Z" fill="#C3B9AC"/>
<path d="M110.672 209.386L104.666 212.849V210.873L110.672 207.41V209.386Z" fill="#C3B9AC"/>
<path d="M117.951 205.199L113.333 207.86V205.884L117.951 203.203V205.199Z" fill="#C3B9AC"/>
<path d="M137.653 193.812L120.611 203.654V201.677L137.653 191.836V193.812Z" fill="#C3B9AC"/>
<path d="M140.314 190.29V192.266L149.608 186.924V184.929L140.314 190.29Z" fill="#C3B9AC"/>
<path d="M158.177 181.956L152.269 185.38V183.403L158.177 179.979V181.956Z" fill="#C3B9AC"/>
<path d="M107.111 216.821L98.7173 221.673V219.697L107.111 214.845V216.821Z" fill="#C3B9AC"/>
<path d="M115.779 211.832L109.772 215.295V213.299L115.779 209.855V211.832Z" fill="#C3B9AC"/>
<path d="M123.057 207.626L118.439 210.287V208.31L123.057 205.63V207.626Z" fill="#C3B9AC"/>
<path d="M131.588 202.695L125.718 206.08V204.104L131.588 200.719V202.695Z" fill="#C3B9AC"/>
<path d="M134.249 199.173V201.149L142.427 196.434V194.458L134.249 199.173Z" fill="#C3B9AC"/>
<path d="M153.892 189.821L145.088 194.908V192.912L153.892 187.845V189.821Z" fill="#C3B9AC"/>
<path d="M102.004 225.156L92.7891 230.478V228.502L102.004 223.18V225.156Z" fill="#C3B9AC"/>
<path d="M110.672 220.147L104.666 223.61V221.634L110.672 218.171V220.147Z" fill="#C3B9AC"/>
<path d="M120.788 214.317L113.333 218.621V216.645L120.788 212.321V214.317Z" fill="#C3B9AC"/>
<path d="M137.653 204.573L123.449 212.771V210.795L137.653 202.597V204.573Z" fill="#C3B9AC"/>
<path d="M140.314 201.051V203.028L149.608 197.686V195.69L140.314 201.051Z" fill="#C3B9AC"/>
<path d="M158.177 192.716L152.269 196.14V194.164L158.177 190.74V192.716Z" fill="#C3B9AC"/>
<path d="M107.111 227.583L100.048 231.672V229.696L107.111 225.606V227.583Z" fill="#C3B9AC"/>
<path d="M115.779 222.593L109.772 226.056V224.061L115.779 220.617V222.593Z" fill="#C3B9AC"/>
<path d="M122.529 218.68L118.439 221.048V219.072L122.529 216.704V218.68Z" fill="#C3B9AC"/>
<path d="M131.588 213.456L120.24 220.01V218.034L131.588 211.479V213.456Z" fill="#C3B9AC"/>
<path d="M134.249 209.934V211.91L142.427 207.195V205.219L134.249 209.934Z" fill="#C3B9AC"/>
<path d="M153.892 200.582L145.088 205.669V203.673L153.892 198.605V200.582Z" fill="#C3B9AC"/>
<path d="M194.981 149.965L181.304 157.85V155.874L194.981 147.989V149.965Z" fill="#C3B9AC"/>
<path d="M188.798 158.907L177.508 165.422V163.446L188.798 156.931V158.907Z" fill="#C3B9AC"/>
<path d="M194.863 155.405L191.458 157.361V155.385L194.863 153.429V155.405Z" fill="#C3B9AC"/>
<path d="M188.798 169.668L177.508 176.183V174.207L188.798 167.691V169.668Z" fill="#C3B9AC"/>
<path d="M194.863 166.166L191.458 168.122V166.146L194.863 164.189V166.166Z" fill="#C3B9AC"/>
<path d="M194.922 171.507L181.304 179.373V177.397L194.922 169.531V171.507Z" fill="#C3B9AC"/>
<path d="M185.139 182.543L177.508 186.945V184.969L185.139 180.566V182.543Z" fill="#C3B9AC"/>
<path d="M194.609 177.064L187.8 180.997V179.021L194.609 175.088V177.064Z" fill="#C3B9AC"/>
<path d="M160.858 167.673V169.649L170.132 164.307V162.312L160.858 167.673Z" fill="#C3B9AC"/>
<path d="M178.721 159.337L172.793 162.761V160.785L178.721 157.361V159.337Z" fill="#C3B9AC"/>
<path d="M156.71 175.459V177.436L162.951 173.836V171.84L156.71 175.459Z" fill="#C3B9AC"/>
<path d="M174.417 167.203L165.612 172.29V170.314L174.417 165.227V167.203Z" fill="#C3B9AC"/>
<path d="M160.858 178.433V180.429L170.132 175.068V173.072L160.858 178.433Z" fill="#C3B9AC"/>
<path d="M178.721 170.098L172.793 173.522V171.546L178.721 168.122V170.098Z" fill="#C3B9AC"/>
<path d="M156.71 186.22V188.196L162.951 184.596V182.601L156.71 186.22Z" fill="#C3B9AC"/>
<path d="M174.417 177.963L165.612 183.051V181.074L174.417 175.987V177.963Z" fill="#C3B9AC"/>
<path d="M160.858 189.195V191.191L170.132 185.83V183.834L160.858 189.195Z" fill="#C3B9AC"/>
<path d="M178.721 180.86L172.793 184.284V182.308L178.721 178.884V180.86Z" fill="#C3B9AC"/>
<path d="M156.71 196.962V198.958L162.951 195.338V193.362L156.71 196.962Z" fill="#C3B9AC"/>
<path d="M174.417 188.725L165.612 193.812V191.836L174.417 186.749V188.725Z" fill="#C3B9AC"/>
<path d="M61.8951 395.476L57.9819 397.726V399.623L61.8951 397.373V395.476Z" fill="#C3B9AC"/>
<path d="M70.1908 390.682L64.4385 394.008V395.886L70.1908 392.58V390.682Z" fill="#C3B9AC"/>
<path d="M78.6823 385.771L72.7344 389.214V391.112L78.6823 387.688V385.771Z" fill="#C3B9AC"/>
<path d="M97.3281 375.01L81.2256 384.303V386.201L97.3281 376.908V375.01Z" fill="#C3B9AC"/>
<path d="M99.8721 373.542V375.44L106.603 371.566V369.668L99.8721 373.542Z" fill="#C3B9AC"/>
<path d="M66.7865 397.804L57.9819 402.871V404.769L66.7865 399.702V397.804Z" fill="#C3B9AC"/>
<path d="M75.0628 393.01L69.3301 396.336V398.214L75.0628 394.908V393.01Z" fill="#C3B9AC"/>
<path d="M84.6305 387.492L77.626 391.542V393.44L84.6305 389.39V387.492Z" fill="#C3B9AC"/>
<path d="M91.5174 383.521L87.1738 386.025V387.923L91.5174 385.418V383.521Z" fill="#C3B9AC"/>
<path d="M94.061 382.053V383.931L106.603 376.711V374.813L94.061 382.053Z" fill="#C3B9AC"/>
<path d="M61.8951 405.767L57.9819 408.036V409.934L61.8951 407.664V405.767Z" fill="#C3B9AC"/>
<path d="M70.1908 400.992L64.4385 404.299V406.197L70.1908 402.871V400.992Z" fill="#C3B9AC"/>
<path d="M89.7174 389.703L72.7344 399.506V401.403L89.7174 391.601V389.703Z" fill="#C3B9AC"/>
<path d="M60.0557 436.055L58.1187 437.15V439.048L60.0557 437.933V436.055Z" fill="#C3B9AC"/>
<path d="M81.4408 423.688L62.5991 434.567V436.465L81.4408 425.586V423.688Z" fill="#C3B9AC"/>
<path d="M83.9844 422.221V424.119L92.0063 419.482V417.584L83.9844 422.221Z" fill="#C3B9AC"/>
<path d="M65.2994 438.167L58.2949 442.198V444.095L65.2994 440.065V438.167Z" fill="#C3B9AC"/>
<path d="M75.6299 432.2L67.8428 436.681V438.579L75.6299 434.098V432.2Z" fill="#C3B9AC"/>
<path d="M78.1934 430.713V432.611L85.1 428.62V426.722L78.1934 430.713Z" fill="#C3B9AC"/>
<path d="M71.7559 439.596L58.1187 447.461V449.359L71.7559 441.494V439.596Z" fill="#C3B9AC"/>
<path d="M61.8951 417.995L57.9819 420.245V422.143L61.8951 419.893V417.995Z" fill="#C3B9AC"/>
<path d="M70.1908 413.201L64.4385 416.527V418.425L70.1908 415.099V413.201Z" fill="#C3B9AC"/>
<path d="M88.5239 402.616L72.7344 411.734V413.632L88.5239 404.514V402.616Z" fill="#C3B9AC"/>
<path d="M97.3284 397.549L91.0674 401.149V403.047L97.3284 399.427V397.549Z" fill="#C3B9AC"/>
<path d="M66.7865 420.323L57.9819 425.41V427.308L66.7865 422.221V420.323Z" fill="#C3B9AC"/>
<path d="M75.0628 415.53L69.3301 418.856V420.754L75.0628 417.428V415.53Z" fill="#C3B9AC"/>
<path d="M84.6305 410.013L77.626 414.063V415.961L84.6305 411.911V410.013Z" fill="#C3B9AC"/>
<path d="M91.5174 406.041L87.1738 408.545V410.443L91.5174 407.939V406.041Z" fill="#C3B9AC"/>
<path d="M66.7862 454.681L58.1187 459.67V461.568L66.7862 456.579V454.681Z" fill="#C3B9AC"/>
<path d="M61.3276 462.977L58.2949 464.737V466.635L61.3276 464.874V462.977Z" fill="#C3B9AC"/>
<path d="M106.602 431.691L101.476 434.646V436.544L106.602 433.589V431.691Z" fill="#C3B9AC"/>
<path d="M106.602 436.837L93.689 444.311V446.189L106.602 438.735V436.837Z" fill="#C3B9AC"/>
<path d="M231.705 372.349C231.641 372.389 231.586 372.443 231.546 372.508C231.505 372.572 231.479 372.645 231.47 372.72V373.503L113.568 441.533V364.777L114.37 364.307C114.436 364.269 114.493 364.215 114.534 364.15C114.574 364.086 114.599 364.012 114.605 363.935C114.605 363.818 114.507 363.779 114.37 363.838L112.198 365.09C112.135 365.132 112.082 365.187 112.042 365.251C112.001 365.315 111.975 365.387 111.963 365.461C111.963 365.598 112.081 365.638 112.198 365.559L113 365.109V442.081C113 442.237 113.137 442.296 113.294 442.198L231.412 373.992V374.833C231.412 374.951 231.529 374.99 231.646 374.931C231.712 374.892 231.767 374.838 231.808 374.773C231.849 374.709 231.874 374.635 231.881 374.56V372.388C231.94 372.309 231.842 372.27 231.705 372.349Z" fill="#C3B9AC"/>
<path d="M127.577 433.785L127.948 433.57V356.109L127.577 356.325V433.785Z" fill="#C3B9AC"/>
<path d="M141.664 425.665L142.036 425.45V347.97L141.664 348.205V425.665Z" fill="#C3B9AC"/>
<path d="M155.732 417.525L156.123 417.31V339.85L155.732 340.065V417.525Z" fill="#C3B9AC"/>
<path d="M169.819 409.406L170.191 409.191V331.73L169.819 331.946V409.406Z" fill="#C3B9AC"/>
<path d="M183.887 401.266L184.278 401.051V323.591L183.887 323.806V401.266Z" fill="#C3B9AC"/>
<path d="M197.974 393.146L198.346 392.931V315.471L197.974 315.686V393.146Z" fill="#C3B9AC"/>
<path d="M212.042 385.027L212.433 384.792V307.332L212.042 307.547V385.027Z" fill="#C3B9AC"/>
<path d="M226.129 376.888L226.501 376.672V299.212L226.129 299.427V376.888Z" fill="#C3B9AC"/>
<path d="M224.27 306.314L225.777 306.94L198.346 350.2L189.776 355.17L174.476 379.294L158.178 388.686L139.962 417.428L120.475 428.678V430.576L140.745 418.875L158.96 390.133L175.258 380.722L190.559 356.598L199.129 351.648L227.107 307.508L228.457 308.095L230.003 301.462L224.27 306.314Z" fill="#85B208"/>
<g filter="url(#filter1_d_4_57781)">
<path d="M118.948 162.076L105.154 154.074L156.338 43.8408L170.132 51.8432L118.948 162.076Z" fill="black"/>
<path d="M111.435 192.618L97.6412 184.615L65.9448 153.369L79.7386 161.371L111.435 192.618Z" fill="#2D1F06" fill-opacity="0.980392"/>
<path d="M79.7386 161.372L65.9448 153.37L79.1516 136.896L92.9454 144.898L79.7386 161.372Z" fill="black"/>
<path d="M118.948 162.076L170.132 51.8428L131.666 180.526L131.49 180.937L111.435 192.618L79.7388 161.371L92.9456 144.897L118.948 162.076Z" fill="#FFA80F" fill-opacity="0.980392"/>
</g>
</g>
<path opacity="0.8" d="M209.694 336.427C208.626 335.789 207.667 334.983 206.857 334.04C205.829 332.87 204.984 331.55 204.352 330.127C203.641 328.592 203.255 326.926 203.218 325.235V297.041L6.40674 410.678V439.616C6.4437 441.307 6.83007 442.973 7.54155 444.507C8.17337 445.931 9.0178 447.25 10.046 448.42C10.8566 449.364 11.8147 450.17 12.883 450.807C13.5369 451.284 14.3073 451.576 15.113 451.652C15.9187 451.727 16.73 451.584 17.4613 451.238L214.194 336.857C213.473 337.189 212.676 337.324 211.886 337.248C211.096 337.172 210.339 336.889 209.694 336.427Z" fill="#C3B9AC"/>
<path d="M23.5663 392.306C22.8951 392.76 22.3591 393.387 22.0147 394.12C21.6703 394.854 21.5304 395.667 21.6097 396.473L21.4532 448.381C21.5626 449.45 21.3867 450.53 20.9434 451.509C20.5 452.489 19.805 453.333 18.9292 453.957L215.818 339.537C216.694 338.913 217.389 338.069 217.832 337.089C218.276 336.11 218.452 335.03 218.342 333.961L218.479 282.053C218.406 281.247 218.549 280.437 218.893 279.704C219.237 278.972 219.769 278.344 220.436 277.886L23.5663 392.306Z" fill="#C3B9AC"/>
<path d="M238.436 395.729C237.023 394.102 235.856 392.276 234.973 390.31C234.02 388.218 233.501 385.955 233.447 383.657L36.5576 498.077C36.6093 500.377 37.1356 502.642 38.1033 504.729C38.9737 506.698 40.1344 508.525 41.5468 510.149C42.6617 511.442 43.9842 512.539 45.46 513.397L242.33 398.997C240.864 398.125 239.549 397.021 238.436 395.729Z" fill="#FCF5E9"/>
<path d="M89.1104 538.656V541.2L285.999 426.78V424.236L89.1104 538.656Z" fill="#F5EDE0"/>
<path d="M242.29 398.996L45.4014 513.416L89.111 538.656L286 424.236L242.29 398.996Z" fill="#FFFEF5"/>
<path d="M36.812 405.258L36.5576 498.077L233.447 383.677L233.701 290.857L36.812 405.258Z" fill="#F5EDE0"/>
<path d="M36.812 405.258L36.5576 498.077L233.447 383.677L233.701 290.857L36.812 405.258Z" fill="#F5EDE0"/>
<path d="M36.812 405.258L36.5576 498.077L233.447 383.677L233.701 290.857L36.812 405.258Z" fill="#F5EDE0"/>
<path d="M232.195 284.284C231.352 282.354 230.217 280.566 228.83 278.982C227.749 277.73 226.474 276.66 225.054 275.812C224.176 275.173 223.143 274.782 222.062 274.679C220.982 274.576 219.893 274.764 218.91 275.225L22.021 389.645C23.0039 389.184 24.0924 388.996 25.173 389.099C26.2537 389.202 27.2868 389.593 28.1646 390.232C29.5886 391.074 30.8644 392.145 31.9408 393.402C33.3282 394.986 34.4632 396.774 35.3061 398.704C36.2562 400.762 36.7755 402.993 36.8322 405.259L233.76 290.839C233.691 288.57 233.159 286.339 232.195 284.284Z" fill="#FFFEF5"/>
<path d="M45.4205 513.397C42.8366 511.727 40.6859 509.467 39.1451 506.804C37.6044 504.141 36.7174 501.15 36.5572 498.077V461.94L36.7333 405.199C36.593 402.549 35.9071 399.956 34.7187 397.582C33.5303 395.209 31.8649 393.106 29.8267 391.406C29.2696 390.959 28.6811 390.554 28.0657 390.193C26.8916 389.459 25.5369 389.066 24.1526 389.058C21.3156 389.058 19.3394 391.269 19.3199 395.143L19.1829 447.07C19.1829 451.159 16.2676 452.94 12.6871 450.807C10.8027 449.574 9.23463 447.915 8.10963 445.964C6.98463 444.013 6.33422 441.825 6.2109 439.576L7.13049 116.449L4.91956 115.178L4 438.304C4.16419 441.313 5.03658 444.241 6.54617 446.848C8.05575 449.456 10.1598 451.671 12.6871 453.311C17.4807 456.07 21.3743 453.859 21.3939 448.342L21.5504 396.434C21.5345 395.555 21.701 394.682 22.0395 393.871C23.0569 391.738 25.3852 391.21 28.0462 392.736C30.5064 394.35 32.3957 396.698 33.4463 399.447C34.0761 400.854 34.4346 402.368 34.5028 403.908L34.3463 460.335V496.786C34.5472 500.617 35.6495 504.347 37.5636 507.672C39.4777 510.997 42.1495 513.824 45.3618 515.921L89.091 541.161V538.617L45.4205 513.397Z" fill="#C3B9AC"/>
<path d="M201.907 0.796875L5.01758 115.217L7.24806 116.489L204.118 2.08821L201.907 0.796875Z" fill="#FFFEF5"/>
<path d="M232.194 284.283L35.3052 398.703C36.2552 400.761 36.7746 402.992 36.8313 405.258L233.76 290.838C233.691 288.569 233.158 286.338 232.194 284.283Z" fill="#FCF5E9"/>
<path d="M26.3646 389.43L223.254 275.01C222.549 274.721 221.789 274.591 221.029 274.628C220.268 274.665 219.525 274.869 218.851 275.225L22.021 389.645C22.6854 389.294 23.4185 389.093 24.1689 389.056C24.9193 389.019 25.6688 389.146 26.3646 389.43Z" fill="#FCF5E9"/>
<path d="M54.8706 406.198L50.9575 408.448V410.366L54.8706 408.096V406.198Z" fill="#C3B9AC"/>
<path d="M63.1668 401.404L57.4341 404.73V406.628L63.1668 403.302V401.404Z" fill="#C3B9AC"/>
<path d="M71.6579 396.513L65.71 399.937V401.835L71.6579 398.411V396.513Z" fill="#C3B9AC"/>
<path d="M90.3037 385.732L74.2012 395.026V396.924L90.3037 387.63V385.732Z" fill="#C3B9AC"/>
<path d="M59.7621 408.525L50.9575 413.612V415.51L59.7621 410.423V408.525Z" fill="#C3B9AC"/>
<path d="M68.0379 403.733L62.3052 407.06V408.957L68.0379 405.631V403.733Z" fill="#C3B9AC"/>
<path d="M77.6061 398.215L70.6016 402.265V404.163L77.6061 400.113V398.215Z" fill="#C3B9AC"/>
<path d="M84.493 394.242L80.1494 396.747V398.644L84.493 396.14V394.242Z" fill="#C3B9AC"/>
<path d="M87.0566 392.774V394.672L99.5787 387.433V385.535L87.0566 392.774Z" fill="#C3B9AC"/>
<path d="M54.8706 416.489L50.9575 418.759V420.657L54.8706 418.387V416.489Z" fill="#C3B9AC"/>
<path d="M63.1668 411.714L57.4341 415.02V416.918L63.1668 413.612V411.714Z" fill="#C3B9AC"/>
<path d="M82.7125 400.426L65.71 410.248V412.126L82.7125 402.324V400.426Z" fill="#C3B9AC"/>
<path d="M53.0312 446.777L51.0942 447.873V449.771L53.0312 448.675V446.777Z" fill="#C3B9AC"/>
<path d="M74.4164 434.411L55.5747 445.29V447.188L74.4164 436.309V434.411Z" fill="#C3B9AC"/>
<path d="M76.9795 432.944V434.842L84.9818 430.204V428.326L76.9795 432.944Z" fill="#C3B9AC"/>
<path d="M58.2755 448.889L51.271 452.939V454.837L58.2755 450.787V448.889Z" fill="#C3B9AC"/>
<path d="M68.625 442.922L60.8379 447.422V449.3L68.625 444.82V442.922Z" fill="#C3B9AC"/>
<path d="M71.1689 441.454V443.352L78.0756 439.361V437.463L71.1689 441.454Z" fill="#C3B9AC"/>
<path d="M64.7315 450.318L51.0942 458.184V460.082L64.7315 452.216V450.318Z" fill="#C3B9AC"/>
<path d="M54.8706 428.718L50.9575 430.987V432.885L54.8706 430.616V428.718Z" fill="#C3B9AC"/>
<path d="M63.1668 423.942L57.4341 427.249V429.147L63.1668 425.821V423.942Z" fill="#C3B9AC"/>
<path d="M81.4994 413.338L65.71 422.455V424.353L81.4994 415.236V413.338Z" fill="#C3B9AC"/>
<path d="M90.3045 408.271L84.0435 411.872V413.769L90.3045 410.169V408.271Z" fill="#C3B9AC"/>
<path d="M59.7621 431.047L50.9575 436.134V438.032L59.7621 432.945V431.047Z" fill="#C3B9AC"/>
<path d="M68.0379 426.271L62.3052 429.578V431.476L68.0379 428.15V426.271Z" fill="#C3B9AC"/>
<path d="M77.6061 420.734L70.6016 424.784V426.682L77.6061 422.632V420.734Z" fill="#C3B9AC"/>
<path d="M84.493 416.763L80.1494 419.267V421.165L84.493 418.661V416.763Z" fill="#C3B9AC"/>
<path d="M59.7618 465.403L51.0942 470.412V472.31L59.7618 467.301V465.403Z" fill="#C3B9AC"/>
<path d="M54.3232 473.699L51.271 475.46V477.358L54.3232 475.597V473.699Z" fill="#C3B9AC"/>
<path d="M99.5784 442.413L94.4521 445.368V447.265L99.5784 444.311V442.413Z" fill="#C3B9AC"/>
<path d="M99.5784 447.559L86.665 455.033V456.931L99.5784 449.456V447.559Z" fill="#C3B9AC"/>
<path d="M224.681 383.091C224.616 383.131 224.562 383.186 224.521 383.25C224.48 383.314 224.455 383.387 224.446 383.463V384.245L106.543 452.275V375.519L107.346 375.049C107.412 375.011 107.468 374.957 107.509 374.893C107.55 374.828 107.575 374.754 107.58 374.678C107.58 374.56 107.483 374.521 107.346 374.58L105.174 375.832C105.111 375.874 105.058 375.929 105.017 375.993C104.977 376.057 104.95 376.129 104.939 376.204C104.939 376.341 105.056 376.38 105.174 376.301L105.976 375.852V452.823C105.976 452.979 106.113 453.038 106.269 452.94L224.387 384.734V385.576C224.387 385.693 224.505 385.732 224.622 385.673C224.687 385.634 224.743 385.58 224.784 385.515C224.824 385.451 224.849 385.378 224.857 385.302V383.13C224.916 383.052 224.818 383.012 224.681 383.091Z" fill="#C3B9AC"/>
<path d="M120.552 444.508L120.944 444.292V366.832L120.552 367.047V444.508Z" fill="#C3B9AC"/>
<path d="M134.64 436.387L135.011 436.171V358.711L134.64 358.926V436.387Z" fill="#C3B9AC"/>
<path d="M148.708 428.247L149.099 428.032V350.571L148.708 350.787V428.247Z" fill="#C3B9AC"/>
<path d="M162.795 420.129L163.167 419.914V342.453L162.795 342.668V420.129Z" fill="#C3B9AC"/>
<path d="M176.863 412.009L177.254 411.774V334.313L176.863 334.529V412.009Z" fill="#C3B9AC"/>
<path d="M190.949 403.868L191.321 403.653V326.192L190.949 326.408V403.868Z" fill="#C3B9AC"/>
<path d="M205.037 395.75L205.409 395.535V318.074L205.037 318.289V395.75Z" fill="#C3B9AC"/>
<path d="M219.104 387.61L219.476 387.395V309.935L219.104 310.15V387.61Z" fill="#C3B9AC"/>
<path d="M217.246 317.038L218.753 317.683L191.321 360.943L182.752 365.893L167.451 390.018L151.153 399.409L132.938 428.151L113.45 439.401V441.299L133.72 429.599L151.955 400.857L168.234 391.466L183.534 367.341L192.104 362.371L220.083 318.251L221.433 318.818L222.979 312.186L217.246 317.038Z" fill="#85B208"/>
</g>
<defs>
<filter id="filter0_d_4_57781" x="0" y="0.796875" width="290" height="548.403" filterUnits="userSpaceOnUse" color-interpolation-filters="sRGB">
<feFlood flood-opacity="0" result="BackgroundImageFix"/>
<feColorMatrix in="SourceAlpha" type="matrix" values="0 0 0 0 0 0 0 0 0 0 0 0 0 0 0 0 0 0 127 0" result="hardAlpha"/>
<feOffset dy="4"/>
<feGaussianBlur stdDeviation="2"/>
<feComposite in2="hardAlpha" operator="out"/>
<feColorMatrix type="matrix" values="0 0 0 0 0.758333 0 0 0 0 0.570488 0 0 0 0 0.240139 0 0 0 0.980392 0"/>
<feBlend mode="normal" in2="BackgroundImageFix" result="effect1_dropShadow_4_57781"/>
<feBlend mode="normal" in="SourceGraphic" in2="effect1_dropShadow_4_57781" result="shape"/>
</filter>
<filter id="filter1_d_4_57781" x="61.9448" y="43.8408" width="112.187" height="156.777" filterUnits="userSpaceOnUse" color-interpolation-filters="sRGB">
<feFlood flood-opacity="0" result="BackgroundImageFix"/>
<feColorMatrix in="SourceAlpha" type="matrix" values="0 0 0 0 0 0 0 0 0 0 0 0 0 0 0 0 0 0 127 0" result="hardAlpha"/>
<feOffset dy="4"/>
<feGaussianBlur stdDeviation="2"/>
<feComposite in2="hardAlpha" operator="out"/>
<feColorMatrix type="matrix" values="0 0 0 0 0.6 0 0 0 0 0.507562 0 0 0 0 0.345 0 0 0 0.980392 0"/>
<feBlend mode="normal" in2="BackgroundImageFix" result="effect1_dropShadow_4_57781"/>
<feBlend mode="normal" in="SourceGraphic" in2="effect1_dropShadow_4_57781" result="shape"/>
</filter>
<clipPath id="clip0_4_57781">
<rect width="205.009" height="420.838" fill="white" transform="translate(26.9312 45.7979)"/>
</clipPath>
</defs>
</svg>
