<svg width="781" height="1530" viewBox="0 0 781 1530" fill="none" xmlns="http://www.w3.org/2000/svg">
<path d="M665.958 1361.79L416.271 1488.91L427.88 1523.92L709.181 1424.51L665.958 1361.79Z" fill="#FFA80F" fill-opacity="0.1"/>
<path d="M456.127 1237.26C456.127 1237.26 443.316 1269.55 467.279 1290.74C477.536 1299.82 479.436 1290.36 479.784 1286.05C479.746 1291.06 480.728 1304.87 491.862 1314.71C505.683 1326.91 522.812 1310.86 522.812 1310.86C522.812 1310.86 522.061 1337.32 539.301 1348.27C556.54 1359.22 562.162 1336.36 562.162 1336.36C562.162 1336.36 563.236 1359.4 581.259 1367.23C599.281 1375.06 600.508 1350.73 600.508 1350.73C600.508 1350.73 600.91 1365.79 620.522 1370.8C640.136 1375.82 637.935 1346.08 637.935 1346.08C581.173 1337.02 456.127 1237.26 456.127 1237.26Z" fill="#FFA80F" fill-opacity="0.1"/>
<path d="M691.625 1208.68C681.224 1204.79 673.345 1191.33 673.673 1178.05C673.925 1167.91 673.905 1158.09 673.637 1149.54C673.255 1137.33 666.223 1125.39 656.857 1121.18C645.383 1116.02 630.008 1109.49 612.393 1102.58C591.859 1094.53 576.198 1089.07 565.121 1085.64C556.15 1082.86 548.12 1088.2 545.623 1098.58C543.736 1106.43 541.754 1115.75 539.885 1125.62C537.509 1138.16 527.449 1143.93 517.083 1138.64C506.137 1133.07 499.129 1117.45 501.621 1104.22C502.566 1099.2 503.638 1093.75 504.807 1088.22C513.281 1048.14 519.59 1037.09 527.024 1032.24C533.736 1027.86 542.73 1028.52 564.031 1034.94C579.925 1039.73 598.74 1046.72 611.725 1051.75C634.033 1060.39 679.314 1079.01 691.027 1087.63C709.834 1101.47 712.743 1134.39 713.085 1167.89C713.165 1175.66 713.068 1183.26 712.893 1190.05C712.53 1204.36 702.835 1212.87 691.625 1208.68Z" fill="#FFA80F" fill-opacity="0.1"/>
<path d="M633.617 1186.17L579.2 1162.64C573.426 1160.14 568.292 1154.55 565.211 1147.41C560.388 1136.22 561.577 1123.67 568.07 1117.21L568.404 1116.87C572.671 1112.62 578.636 1111.64 584.573 1114.21L638.784 1137.64C645.388 1140.5 651.092 1147.37 653.904 1155.85L653.963 1156.03C657.128 1165.57 656.108 1175.56 651.342 1181.71L651.153 1181.95C646.89 1187.45 640.265 1189.04 633.617 1186.17Z" fill="#FFA80F" fill-opacity="0.1"/>
<path d="M478.614 1150.71C475.188 1147.87 471.682 1145.34 468.118 1143.09C462.807 1131.49 457.333 1121.8 452.133 1113.8C444.726 1102.41 431.932 1102.71 428.745 1114.61C427.225 1120.28 424.484 1125.09 421.211 1129.12C352.145 1128.39 287.631 1207.24 336.907 1289.47C400.167 1395.02 471.837 1337.24 454.898 1286.15C437.958 1235.06 424.616 1207 375.512 1253.71C375.512 1253.71 348.154 1213.81 400.044 1193.77C435.674 1180.01 543.684 1301.71 632.938 1317.84C722.192 1333.96 691.991 1324.7 691.991 1324.7L679.11 1233.04C679.11 1233.04 559.301 1217.51 478.614 1150.71Z" fill="#FFA80F" fill-opacity="0.1"/>
<path d="M782.583 1050.92C771.6 1103.67 771.639 1145.78 772.945 1168.38C773.543 1178.75 781.25 1187.75 788.984 1187.21C816.56 1185.29 852.151 1168.03 871.231 1157.72C878.29 1153.91 879.319 1141.49 873.284 1132.52C841.109 1084.69 815.422 1058.19 800.569 1044.97C793.29 1038.49 784.568 1041.39 782.583 1050.92Z" fill="#FFA80F" fill-opacity="0.1"/>
<path d="M258.971 643.875L132.26 685.892L153.204 749.053L279.914 707.036L258.971 643.875Z" fill="#FFA80F" fill-opacity="0.1"/>
<path d="M227.701 555.633L100.99 597.649L121.934 660.811L248.645 618.794L227.701 555.633Z" fill="#FFA80F" fill-opacity="0.1"/>
<path d="M323.829 364.888L278.86 379.8L309.351 471.752L354.32 456.841L323.829 364.888Z" fill="#FFA80F" fill-opacity="0.1"/>
<path d="M386.812 339.516L341.844 354.427L372.335 446.379L417.303 431.468L386.812 339.516Z" fill="#FFA80F" fill-opacity="0.1"/>
<path d="M444.957 317.426L399.989 332.337L430.48 424.289L475.448 409.378L444.957 317.426Z" fill="#FFA80F" fill-opacity="0.1"/>
<path d="M507.149 299.652L462.181 314.563L492.672 406.516L537.64 391.605L507.149 299.652Z" fill="#FFA80F" fill-opacity="0.1"/>
<path d="M1154.8 987.715L1136.48 993.789C1114.63 1001.03 1105.17 1031.79 1115.34 1062.48L1135.28 1122.62L1170.9 1110.81L1150.95 1050.67C1149.94 1047.6 1150.88 1044.53 1153.06 1043.81L1171.38 1037.74C1172.56 1037.35 1173.96 1038.37 1174.51 1040.02L1210.05 1147.21C1212.95 1155.97 1210.25 1164.74 1204.02 1166.81L1153.1 1183.69C1140.83 1187.76 1126.27 1177.09 1120.55 1159.87L1056.82 967.654L1056.4 966.603C1053.87 960.307 803.234 335.182 727.161 141.242C724.207 133.713 723.334 125.467 725.073 118.52C726.889 111.257 731.055 106.197 736.757 104.306L786.875 87.6877C797.601 84.1309 810.581 93.5067 815.722 108.522L846.48 198.381C848.419 204.044 848.834 210.116 847.332 215.102C845.863 219.984 842.871 223.396 838.91 224.71L826.827 228.716C825.71 229.087 824.372 228.171 823.776 226.632L790.975 141.732L756.574 156.917L789.375 241.818C799.907 269.076 823.643 285.294 843.414 278.738L854.675 275.004C868.599 270.387 879.587 258.316 884.569 241.022C889.335 224.475 888.449 205.129 882.052 186.441L851.106 96.0397C836.67 53.8631 800.415 27.6777 770.289 37.6674L720.171 54.2861C704.81 59.3797 693.018 73.3582 687.818 92.6378C682.619 111.917 684.39 135.091 692.677 156.218C719.961 225.788 769.895 351.302 822.788 483.848C842.883 534.2 829.071 587.951 792.681 601.033L520.991 698.699L538.206 748.504L820.614 646.984C853.745 635.074 893.726 661.426 912.057 707.252C970.023 852.165 1016.92 969.152 1021.92 981.608L1084.94 1171.68C1099.81 1216.53 1137.75 1244.3 1169.68 1233.71L1220.6 1216.83C1246.5 1208.24 1257.72 1171.78 1245.66 1135.4L1210.12 1028.21C1200.41 998.936 1175.64 980.803 1154.8 987.715Z" fill="#FFA80F" fill-opacity="0.1"/>
<path d="M336.109 526.859L588.228 431.386L570.589 381.738L318.593 477.164C284.016 490.257 241.903 461.206 224.554 412.294L192.859 322.929C181.213 290.096 153.646 270.493 130.099 278.301L77.7291 295.667C53.854 303.583 43.5144 337.184 54.6342 370.719L96.5354 497.082C107.41 529.876 134.858 550.596 158.534 543.884L165.857 541.808C177.757 538.431 186.897 528.733 191.567 514.492C196.33 499.961 195.537 482.082 189.956 465.252L164.913 389.727L129.301 401.536L154.704 478.146C156.011 482.087 155.41 485.131 154.936 486.596C154.46 488.059 153.232 490.631 150.395 491.443L143.071 493.519C138.9 494.7 134.064 491.049 132.149 485.273L90.2472 358.908C88.2881 353 90.1092 347.082 94.3155 345.687L146.685 328.321C150.833 326.946 155.69 330.399 157.741 336.184L364.689 919.658C366.242 924.038 365.654 927.497 365.165 929.167C364.676 930.836 363.386 933.796 360.243 934.838L299.299 955.046C293.639 956.923 286.912 951.997 284.275 944.046L242.01 816.586C239.525 809.092 241.301 801.224 246.38 798.761C252.207 795.933 259.586 800.967 262.371 809.367L287.119 883.999L322.733 872.19L298.343 798.637C286.646 763.363 256.981 740.406 231.65 748.063C205.729 755.898 194.341 792.039 206.257 827.974L248.662 955.856C260.459 991.433 290.556 1013.47 315.887 1005.07L376.049 985.116C388.281 981.06 397.961 970.486 402.34 955.294C406.621 940.441 405.724 923.093 399.806 906.403L304.956 638.981C287.627 590.122 301.571 539.937 336.109 526.859Z" fill="#FFA80F" fill-opacity="0.1"/>
<path d="M408.885 1070.56L330.517 1096.55C320.683 1099.81 308.999 1091.25 304.419 1077.44C299.838 1063.63 304.097 1049.79 313.93 1046.53L392.299 1020.54C402.134 1017.28 413.818 1025.83 418.399 1039.65C422.979 1053.46 418.72 1067.3 408.885 1070.56Z" fill="#FFA80F" fill-opacity="0.1"/>
<path d="M984.531 1290.86C975.086 1295.19 963.104 1287.75 957.768 1274.23L941.46 1232.93C936.125 1219.41 939.455 1204.94 948.901 1200.61C958.347 1196.28 970.33 1203.72 975.664 1217.24L991.974 1258.54C997.308 1272.06 993.978 1286.53 984.531 1290.86ZM916.502 1313.42C907.057 1317.75 895.075 1310.3 889.738 1296.79L873.43 1255.49C868.094 1241.97 871.426 1227.5 880.871 1223.17C890.318 1218.84 902.299 1226.28 907.635 1239.8L923.943 1281.1C929.279 1294.62 925.948 1309.09 916.502 1313.42ZM852.35 1337.47C842.905 1341.8 830.922 1334.35 825.585 1320.84L809.278 1279.53C803.942 1266.02 807.274 1251.55 816.719 1247.22C826.164 1242.89 838.147 1250.33 843.483 1263.84L859.791 1305.15C865.127 1318.67 861.795 1333.13 852.35 1337.47ZM790.353 1359.41C780.908 1363.74 768.925 1356.3 763.588 1342.79L747.28 1301.48C741.945 1287.96 745.276 1273.5 754.723 1269.16C764.167 1264.83 776.15 1272.28 781.487 1285.79L797.794 1327.1C803.131 1340.61 799.798 1355.08 790.353 1359.41ZM804.977 861.84C795.532 866.172 783.55 858.729 778.212 845.213L761.905 803.908C756.57 790.391 759.901 775.924 769.346 771.592C778.792 767.26 790.773 774.703 796.11 788.22L812.417 829.525C817.753 843.039 814.423 857.51 804.977 861.84ZM736.947 884.398C727.502 888.731 715.521 881.287 710.183 867.771L693.876 826.466C688.539 812.95 691.872 798.482 701.317 794.15C710.763 789.818 722.744 797.261 728.081 810.778L744.388 852.083C749.724 865.597 746.393 880.068 736.947 884.398ZM672.795 908.447C663.351 912.779 651.367 905.334 646.031 891.82L629.723 850.513C624.387 836.998 627.719 822.529 637.165 818.199C646.609 813.867 658.592 821.31 663.929 834.827L680.236 876.131C685.572 889.646 682.24 904.115 672.795 908.447ZM610.799 930.394C601.352 934.725 589.369 927.281 584.035 913.766L567.727 872.46C562.391 858.945 565.721 844.477 575.168 840.144C584.611 835.812 596.595 843.257 601.931 856.772L618.24 898.078C623.573 911.594 620.243 926.06 610.799 930.394ZM458.293 548.73C467.738 544.398 479.722 551.843 485.058 565.357L501.366 606.664C506.702 620.179 503.371 634.645 493.924 638.978C484.479 643.31 472.497 635.867 467.161 622.352L450.853 581.046C445.517 567.531 448.847 553.063 458.293 548.73ZM520.291 526.783C529.737 522.452 541.718 529.896 547.054 543.411L563.362 584.717C568.699 598.231 565.367 612.7 555.921 617.033C546.476 621.365 534.494 613.92 529.158 600.405L512.85 559.098C507.514 545.584 510.845 531.115 520.291 526.783ZM584.444 502.736C593.889 498.404 605.87 505.847 611.207 519.361L627.515 560.668C632.851 574.183 629.519 588.652 620.074 592.984C610.628 597.316 598.646 589.871 593.31 576.356L577.003 535.052C571.666 521.535 574.998 507.066 584.444 502.736ZM648.927 469.484C658.372 465.152 670.355 472.597 675.691 486.111L691.999 527.418C697.335 540.933 694.003 555.402 684.558 559.734C675.113 564.064 663.13 556.621 657.794 543.106L641.486 501.8C636.15 488.285 639.482 473.816 648.927 469.484ZM531.063 248.914C521.618 253.246 509.636 245.803 504.299 232.287L487.992 190.982C482.656 177.467 485.988 162.998 495.432 158.666C504.879 154.334 516.861 161.779 522.197 175.294L538.504 216.599C543.841 230.115 540.51 244.584 531.063 248.914ZM469.067 270.861C459.621 275.194 447.639 267.748 442.303 254.234L425.995 212.927C420.659 199.412 423.989 184.944 433.436 180.611C442.88 176.279 454.864 183.724 460.198 197.239L476.508 238.545C481.842 252.06 478.512 266.529 469.067 270.861ZM984.691 951.399C965.614 907.38 944.69 864.194 925.772 829.797C898.529 780.267 879.068 754.366 858.599 740.393C820.83 714.611 779.524 729.046 654.641 778.562C622.002 791.502 588.251 804.886 559.871 814.481C544.224 819.779 532.868 822.997 524.741 824.951C517.508 808.418 507.853 783.601 497.197 751.134C488.195 723.706 481.698 700.826 477.334 683.721C502.647 672.133 542.915 656.742 572.45 645.456C614.443 629.406 657.865 612.811 691.997 596.823C711.957 587.473 727.135 579.063 738.4 571.108C748.613 563.893 775.746 544.731 777.474 501.832C778.474 477.025 771.756 446.937 755.013 401.229C744.199 371.711 729.154 335.886 712.649 300.356C700.848 274.951 682.745 237.712 663.526 204.563C637.719 160.05 618.352 137.438 596.681 126.516C577.748 116.972 558.431 115.654 494.024 133.064C467.998 140.101 320.231 206.537 253.106 236.403C235.522 244.226 228.476 270.136 236.963 295.732C244.902 319.671 264.038 335.955 282.125 334.183C340.85 328.431 470.361 312.631 572.403 276.34C582.573 293.495 598.026 322.209 616.682 362.647C632.094 396.053 642.977 422.885 650.044 442.072C642.376 446.091 631.998 451.113 618.013 457.243C588.85 470.022 553.493 483.535 519.301 496.601C483.994 510.095 450.647 522.841 424.856 534.435C386.233 551.797 358.498 567.293 353.37 608.786C350.849 629.191 353.863 654.107 363.775 694.784C370.322 721.654 379.642 753.883 390.021 785.533C397.931 809.66 410.33 845.239 424.474 877.719C442.141 918.292 457.935 943.79 475.688 960.397C500.124 983.257 573.116 976.07 593.132 969.89C627.231 959.373 668.656 942.938 708.718 927.053C743.137 913.405 796.247 892.35 825.162 884.781C839.763 909.456 863.949 955.765 889.448 1015.89C923.042 1095.1 935.501 1142.77 939.042 1163.47C926.768 1174.73 887.638 1202.2 773.217 1237.82C693.408 1262.67 693.837 1273.87 693.091 1274.02L718.634 1423.35C766.455 1411.65 750.231 1411.77 840.695 1382.24C842.748 1381.57 844.777 1380.9 846.8 1380.23C898.329 1363.15 940.256 1345.76 971.473 1328.52C993.078 1316.59 1009.81 1304.69 1022.62 1292.12C1043.96 1271.2 1055.39 1247.22 1057.57 1218.83C1060.09 1185.85 1052.97 1142.73 1035.79 1087.01C1023.42 1046.89 1005.75 999.994 984.691 951.399Z" fill="#FFA80F" fill-opacity="0.1"/>
</svg>
