<svg width="164" height="166" viewBox="0 0 164 166" fill="none" xmlns="http://www.w3.org/2000/svg">
<g filter="url(#filter0_d_1803_275)">
<circle cx="81.6973" cy="81.6972" r="75.6711" transform="rotate(175.234 81.6973 81.6972)" fill="#1A1919"/>
<circle cx="81.6973" cy="81.6972" r="75.1711" transform="rotate(175.234 81.6973 81.6972)" stroke="#FFA000"/>
</g>
<path d="M49.865 99.385V84.069H66.8771L68.7023 86.3371L70.5879 84.069H132.338V98.3287C132.338 98.3287 130.723 99.3697 128.855 99.385H94.6631L92.6052 96.9706V99.385H85.8617V95.2636C85.8617 95.2636 84.9406 95.8389 82.9491 95.8389H80.6538V99.385H70.4436L68.621 97.0682L66.7704 99.385H49.865Z" fill="#292929"/>
<path d="M30 72.5256L33.8363 64H40.4708L42.6479 68.7757V64H50.8952L52.1913 67.4517L53.4477 64H90.4695V65.7353C90.4695 65.7353 92.4157 64 95.6141 64L107.626 64.04L109.766 68.7532V64H116.668L118.567 66.7074V64H125.532V79.316H118.567L116.747 76.5999V79.316H106.607L105.587 76.9016H102.861L101.858 79.316H94.9809C92.2288 79.316 90.4695 77.6161 90.4695 77.6161V79.316H80.101L78.0432 76.9016V79.316H39.4879L38.4689 76.9016H35.7516L34.7397 79.316H30V72.5256Z" fill="#292929"/>
<path d="M35.1917 65.8876L30.0173 77.3557H33.3861L34.3408 75.0593H39.8911L40.8409 77.3557H44.2839L39.1145 65.8876H35.1917ZM37.1061 68.5566L38.7979 72.5695H35.4093L37.1061 68.5566Z" fill="white"/>
<path d="M44.6399 77.3529V65.8848L49.4271 65.9017L52.2115 73.2956L54.9292 65.8848H59.6781V77.3529H56.6705V68.9027L53.4823 77.3529H50.8446L47.6475 68.9027V77.3529H44.6399Z" fill="white"/>
<path d="M61.7385 77.353V65.8848H71.553V68.45H64.7779V70.4117H71.3947V72.8261H64.7779V74.8632H71.553V77.353H61.7385Z" fill="white"/>
<path d="M73.2915 65.8876V77.3558H76.2992V73.2816H77.5656L81.1718 77.3558H84.8473L80.8898 73.1307C82.514 73 84.1894 71.6712 84.1894 69.6082C84.1894 67.1948 82.2023 65.8876 79.9846 65.8876H73.2915ZM76.2992 68.4528H79.7372C80.562 68.4528 81.1619 69.0678 81.1619 69.66C81.1619 70.4219 80.3846 70.8672 79.7817 70.8672H76.2992V68.4528Z" fill="white"/>
<path d="M88.4926 77.353H85.4216V65.8848H88.4926V77.353Z" fill="white"/>
<path d="M95.7735 77.353H95.1107C91.9034 77.353 89.9561 74.9443 89.9561 71.666C89.9561 68.3068 91.8816 65.8848 95.9318 65.8848H99.2561V68.6009H95.8103C94.1661 68.6009 93.0033 69.8241 93.0033 71.6943C93.0033 73.9153 94.3329 74.8481 96.2484 74.8481H97.0399L95.7735 77.353Z" fill="white"/>
<path d="M102.32 65.8876L97.1458 77.3557H100.515L101.469 75.0593H107.02L107.969 77.3557H111.412L106.243 65.8876H102.32ZM104.234 68.5566L105.926 72.5695H102.538L104.234 68.5566Z" fill="white"/>
<path d="M111.76 77.353V65.8848H115.584L120.467 73.0902V65.8848H123.475V77.353H119.774L114.768 69.959V77.353H111.76Z" fill="white"/>
<path d="M51.9238 97.4234V85.9552H61.7383V88.5205H54.9632V90.4821H61.58V92.8965H54.9632V94.9336H61.7383V97.4234H51.9238Z" fill="white"/>
<path d="M100.013 97.4234V85.9552H109.827V88.5205H103.052V90.4821H109.637V92.8965H103.052V94.9336H109.827V97.4234H100.013Z" fill="white"/>
<path d="M62.1204 97.4233L66.899 91.76L62.0066 85.9552H65.7958L68.7095 89.5437L71.633 85.9552H75.2739L70.4458 91.6893L75.2332 97.4233H71.4446L68.6155 93.8914L65.8552 97.4233H62.1204Z" fill="white"/>
<path d="M75.5874 85.9564V97.4247H78.6742V93.8031H81.8402C84.519 93.8031 86.5496 92.4484 86.5496 89.8138C86.5496 87.6312 84.957 85.9564 82.231 85.9564H75.5874ZM78.6742 88.55H82.0084C82.8738 88.55 83.4924 89.0556 83.4924 89.8703C83.4924 90.6357 82.8769 91.1907 81.9985 91.1907H78.6742V88.55Z" fill="white"/>
<path d="M87.8572 85.9552V97.4234H90.8648V93.3492H92.1312L95.7375 97.4234H99.413L95.4555 93.1983C97.0797 93.0676 98.755 91.7388 98.755 89.6758C98.755 87.2625 96.768 85.9552 94.5502 85.9552H87.8572ZM90.8648 88.5205H94.3029C95.1276 88.5205 95.7276 89.1354 95.7276 89.7276C95.7276 90.4896 94.9502 90.9348 94.3474 90.9348H90.8648V88.5205Z" fill="white"/>
<path d="M111.222 97.4234V94.9336H117.242C118.132 94.9336 118.518 94.4748 118.518 93.9717C118.518 93.4896 118.133 93.0021 117.242 93.0021H114.521C112.157 93.0021 110.84 91.629 110.84 89.5673C110.84 87.7285 112.046 85.9552 115.56 85.9552H121.417L120.15 88.5356H115.085C114.116 88.5356 113.818 89.0199 113.818 89.4824C113.818 89.9579 114.187 90.4821 114.926 90.4821H117.776C120.411 90.4821 121.555 91.9073 121.555 93.7736C121.555 95.7801 120.281 97.4234 117.632 97.4234H111.222Z" fill="white"/>
<path d="M122.259 97.4234V94.9336H128.278C129.169 94.9336 129.554 94.4748 129.554 93.9717C129.554 93.4896 129.17 93.0021 128.278 93.0021H125.558C123.194 93.0021 121.877 91.629 121.877 89.5673C121.877 87.7285 123.083 85.9552 126.596 85.9552H132.334L131.187 88.5356H126.121C125.153 88.5356 124.855 89.0199 124.855 89.4824C124.855 89.9579 125.223 90.4821 125.963 90.4821H128.812C131.448 90.4821 132.592 91.9073 132.592 93.7736C132.592 95.7801 131.317 97.4234 128.669 97.4234H122.259Z" fill="white"/>
<defs>
<filter id="filter0_d_1803_275" x="2.02197" y="6.02185" width="159.351" height="159.351" filterUnits="userSpaceOnUse" color-interpolation-filters="sRGB">
<feFlood flood-opacity="0" result="BackgroundImageFix"/>
<feColorMatrix in="SourceAlpha" type="matrix" values="0 0 0 0 0 0 0 0 0 0 0 0 0 0 0 0 0 0 127 0" result="hardAlpha"/>
<feOffset dy="4"/>
<feGaussianBlur stdDeviation="2"/>
<feComposite in2="hardAlpha" operator="out"/>
<feColorMatrix type="matrix" values="0 0 0 0 0.890196 0 0 0 0 0.592157 0 0 0 0 0.0666667 0 0 0 1 0"/>
<feBlend mode="normal" in2="BackgroundImageFix" result="effect1_dropShadow_1803_275"/>
<feBlend mode="normal" in="SourceGraphic" in2="effect1_dropShadow_1803_275" result="shape"/>
</filter>
</defs>
</svg>

