<svg width="74" height="76" viewBox="0 0 74 76" fill="none" xmlns="http://www.w3.org/2000/svg">
<g filter="url(#filter0_d_1803_247)">
<circle cx="37.0822" cy="35.0821" r="32.4944" transform="rotate(175.234 37.0822 35.0821)" fill="#1A1919"/>
<circle cx="37.0822" cy="35.0821" r="31.9944" transform="rotate(175.234 37.0822 35.0821)" stroke="#FFA000"/>
</g>
<path fill-rule="evenodd" clip-rule="evenodd" d="M55.4631 34.7324C55.4631 45.078 47.0767 53.4649 36.7316 53.4649C26.3864 53.4649 18 45.078 18 34.7324C18 24.3867 26.3864 15.9999 36.7316 15.9999C47.0767 15.9999 55.4631 24.3867 55.4631 34.7324ZM41.2317 27.7726C43.8373 28.6674 45.7434 30.0072 45.3694 32.5008C45.0978 34.3267 44.0819 35.2098 42.7321 35.519C44.584 36.4794 45.2151 38.3021 44.6287 40.5061C43.5152 43.6777 40.8684 43.9448 37.348 43.2819L36.4931 46.6913L34.4296 46.1783L35.2726 42.8145C34.7376 42.6822 34.1909 42.5405 33.6276 42.3894L32.781 45.7695L30.7198 45.2565L31.5735 41.8401L27.4169 40.7954L28.4423 38.4412C28.4423 38.4412 29.9638 38.8429 29.9426 38.8136C30.527 38.9577 30.7868 38.5782 30.8891 38.3264L33.2055 29.0726C33.2314 28.6357 33.0797 28.0853 32.2437 27.8768C32.2754 27.8545 30.7445 27.5055 30.7445 27.5055L31.2936 25.3095L35.4561 26.3366L36.3026 22.9588L38.365 23.4718L37.5361 26.7829C38.0911 26.9082 38.6484 27.0359 39.1905 27.1705L40.0136 23.8806L42.0771 24.3936L41.2317 27.7726ZM36.294 33.4072C37.6997 33.7799 40.7585 34.5909 41.2916 32.4645C41.8355 30.289 38.8638 29.6319 37.4088 29.3102C37.2439 29.2737 37.0985 29.2416 36.9799 29.212L35.9522 33.3183C36.05 33.3425 36.1649 33.373 36.2937 33.4071L36.2938 33.4071L36.294 33.4072ZM34.7013 40.0185C36.385 40.462 40.0672 41.432 40.6531 39.0889C41.2528 36.6933 37.6827 35.8953 35.9407 35.5059L35.9406 35.5059L35.9402 35.5058C35.7458 35.4624 35.5742 35.424 35.4336 35.3891L34.3001 39.9147C34.4153 39.9432 34.5502 39.9787 34.7011 40.0185L34.7013 40.0185Z" fill="white"/>
<defs>
<filter id="filter0_d_1803_247" x="0.585938" y="2.58582" width="72.9924" height="72.9925" filterUnits="userSpaceOnUse" color-interpolation-filters="sRGB">
<feFlood flood-opacity="0" result="BackgroundImageFix"/>
<feColorMatrix in="SourceAlpha" type="matrix" values="0 0 0 0 0 0 0 0 0 0 0 0 0 0 0 0 0 0 127 0" result="hardAlpha"/>
<feOffset dy="4"/>
<feGaussianBlur stdDeviation="2"/>
<feComposite in2="hardAlpha" operator="out"/>
<feColorMatrix type="matrix" values="0 0 0 0 0.890196 0 0 0 0 0.592157 0 0 0 0 0.0666667 0 0 0 1 0"/>
<feBlend mode="normal" in2="BackgroundImageFix" result="effect1_dropShadow_1803_247"/>
<feBlend mode="normal" in="SourceGraphic" in2="effect1_dropShadow_1803_247" result="shape"/>
</filter>
</defs>
</svg>
