<svg width="101" height="101" viewBox="0 0 101 101" fill="none" xmlns="http://www.w3.org/2000/svg">
<g filter="url(#filter0_d_1803_10)">
<circle cx="50.5" cy="46.5" r="46.5" fill="#1A1919"/>
<circle cx="50.5" cy="46.5" r="46" stroke="#FFA000"/>
</g>
<path d="M55.618 68.1482C67.3043 68.2046 77.9709 58.5299 77.9709 46.7608C77.9709 33.8917 67.3043 24.9952 55.618 25H45.5603C33.7347 24.9952 24 33.8941 24 46.7608C24 58.5323 33.7347 68.2046 45.5603 68.1482H55.618Z" fill="#FAFAFA"/>
<path d="M45.6082 26.7836C34.8011 26.7872 26.0451 35.626 26.0415 46.5352C26.0451 57.4433 34.8011 66.2821 45.6082 66.2857C56.4166 66.2821 65.1762 57.4433 65.1774 46.5352C65.1762 35.626 56.4178 26.7872 45.6082 26.7836ZM33.2062 46.5352C33.204 44.0129 33.9627 41.5486 35.3832 39.4643C36.8037 37.3801 38.8199 35.7728 41.1684 34.8526V58.2167C38.8197 57.2971 36.8033 55.6902 35.3827 53.606C33.9621 51.5219 33.2036 49.0575 33.2062 46.5352ZM50.0469 58.2215V34.8514C52.3971 35.7703 54.4151 37.3774 55.8366 39.4624C57.2582 41.5473 58.017 44.013 58.0138 46.5364C58.0165 49.0598 57.2575 51.5252 55.836 53.6101C54.4145 55.6949 52.3968 57.3022 50.0469 58.2215Z" fill="#2E2E2E"/>
<path d="M55.618 68.1482C67.3043 68.2046 77.9709 58.5299 77.9709 46.7608C77.9709 33.8917 67.3043 24.9952 55.618 25H45.5603C33.7347 24.9952 24 33.8941 24 46.7608C24 58.5323 33.7347 68.2046 45.5603 68.1482H55.618Z" fill="#FAFAFA"/>
<path d="M45.6082 26.7836C34.8011 26.7872 26.0451 35.626 26.0415 46.5352C26.0451 57.4433 34.8011 66.2821 45.6082 66.2857C56.4166 66.2821 65.1762 57.4433 65.1774 46.5352C65.1762 35.626 56.4178 26.7872 45.6082 26.7836ZM33.2062 46.5352C33.204 44.0129 33.9627 41.5486 35.3832 39.4643C36.8037 37.3801 38.8199 35.7728 41.1684 34.8526V58.2167C38.8197 57.2971 36.8033 55.6902 35.3827 53.606C33.9621 51.5219 33.2036 49.0575 33.2062 46.5352ZM50.0469 58.2215V34.8514C52.3971 35.7703 54.4151 37.3774 55.8366 39.4624C57.2582 41.5473 58.017 44.013 58.0138 46.5364C58.0165 49.0598 57.2575 51.5252 55.836 53.6101C54.4145 55.6949 52.3968 57.3022 50.0469 58.2215Z" fill="#2E2E2E"/>
<defs>
<filter id="filter0_d_1803_10" x="0" y="0" width="101" height="101" filterUnits="userSpaceOnUse" color-interpolation-filters="sRGB">
<feFlood flood-opacity="0" result="BackgroundImageFix"/>
<feColorMatrix in="SourceAlpha" type="matrix" values="0 0 0 0 0 0 0 0 0 0 0 0 0 0 0 0 0 0 127 0" result="hardAlpha"/>
<feOffset dy="4"/>
<feGaussianBlur stdDeviation="2"/>
<feComposite in2="hardAlpha" operator="out"/>
<feColorMatrix type="matrix" values="0 0 0 0 0.890196 0 0 0 0 0.592157 0 0 0 0 0.0666667 0 0 0 1 0"/>
<feBlend mode="normal" in2="BackgroundImageFix" result="effect1_dropShadow_1803_10"/>
<feBlend mode="normal" in="SourceGraphic" in2="effect1_dropShadow_1803_10" result="shape"/>
</filter>
</defs>
</svg>
