<svg width="127" height="130" viewBox="0 0 127 130" fill="none" xmlns="http://www.w3.org/2000/svg">
<g filter="url(#filter0_d_1803_300)">
<circle cx="63.2788" cy="63.2788" r="58.6113" transform="rotate(175.234 63.2788 63.2788)" fill="#1A1919"/>
<circle cx="63.2788" cy="63.2788" r="58.1113" transform="rotate(175.234 63.2788 63.2788)" stroke="#FFA000"/>
</g>
<path fill-rule="evenodd" clip-rule="evenodd" d="M60.5683 72.1696V63.1018H65.2483C67.1661 63.1018 68.7848 62.4592 70.1043 61.1918L70.421 60.8705C72.8314 58.2466 72.6731 54.159 70.1043 51.7314C68.8199 50.4462 67.0605 49.75 65.2483 49.7857H57.7356V72.1696H60.5683ZM60.5688 60.3529V52.5346H65.32C66.3406 52.5346 67.3084 52.9273 68.0299 53.6413C69.5608 55.1407 69.596 57.6397 68.1179 59.1927C67.3964 59.9602 66.3758 60.3886 65.32 60.3529H60.5688ZM83.6345 58.0502C82.4205 56.9256 80.7666 56.3544 78.6729 56.3544C75.981 56.3544 73.9577 57.354 72.6205 59.3354L75.1189 60.924C76.0338 59.5674 77.283 58.8891 78.8665 58.8891C79.8693 58.8891 80.837 59.264 81.5936 59.9423C82.3325 60.5849 82.7548 61.5131 82.7548 62.4948V63.1553C81.6639 62.5484 80.2916 62.2271 78.6025 62.2271C76.632 62.2271 75.0485 62.6912 73.8697 63.6372C72.6909 64.5833 72.0927 65.8328 72.0927 67.4214C72.0575 68.8672 72.6733 70.2417 73.7641 71.1699C74.8726 72.1695 76.2801 72.6693 77.934 72.6693C79.8869 72.6693 81.4352 71.7946 82.614 70.0453H82.7372V72.1695H85.4467V62.7269C85.4467 60.7455 84.8485 59.1747 83.6345 58.0502ZM75.9463 69.3491C75.3656 68.9207 75.0137 68.2246 75.0137 67.4749C75.0137 66.6359 75.4008 65.9398 76.1575 65.3864C76.9318 64.8331 77.8996 64.5475 79.0434 64.5475C80.6271 64.5296 81.8589 64.8866 82.7388 65.6006C82.7388 66.8144 82.2637 67.8676 81.331 68.7601C80.4864 69.6169 79.3426 70.0988 78.146 70.0988C77.3541 70.1167 76.5798 69.8489 75.9463 69.3491ZM91.5341 78.8989L101 56.8542H97.9208L93.5399 67.8498H93.4871L89.0006 56.8542H85.9216L92.1323 71.1877L88.6135 78.8989H91.5341Z" fill="white"/>
<path d="M50.8297 61.1381C50.8297 60.2635 50.7593 59.3888 50.6186 58.532H38.6721V63.4765H45.5163C45.2348 65.0651 44.3199 66.4931 42.9827 67.3856V70.5986H47.0646C49.4574 68.3674 50.8297 65.0651 50.8297 61.1381Z" fill="#4285F4"/>
<path d="M38.6732 73.7048C42.0865 73.7048 44.9719 72.5624 47.0656 70.5989L42.9838 67.3859C41.8401 68.1713 40.3798 68.6175 38.6732 68.6175C35.3655 68.6175 32.568 66.3506 31.5651 63.3161H27.3601V66.6362C29.5066 70.9737 33.8876 73.7048 38.6732 73.7048Z" fill="#34A853"/>
<path d="M31.5653 63.3159C31.0374 61.7273 31.0374 59.9958 31.5653 58.3893V55.0871H27.3596C25.5471 58.7106 25.5471 62.9946 27.3596 66.6182L31.5653 63.3159Z" fill="#FBBC04"/>
<path d="M38.6732 53.088C40.4854 53.0523 42.2272 53.7485 43.5292 55.0158L47.1536 51.3387C44.8487 49.161 41.8225 47.9651 38.6732 48.0008C33.8876 48.0008 29.5066 50.7497 27.3601 55.0872L31.5651 58.4073C32.568 55.355 35.3655 53.088 38.6732 53.088Z" fill="#EA4335"/>
<defs>
<filter id="filter0_d_1803_300" x="0.664307" y="4.66431" width="125.229" height="125.229" filterUnits="userSpaceOnUse" color-interpolation-filters="sRGB">
<feFlood flood-opacity="0" result="BackgroundImageFix"/>
<feColorMatrix in="SourceAlpha" type="matrix" values="0 0 0 0 0 0 0 0 0 0 0 0 0 0 0 0 0 0 127 0" result="hardAlpha"/>
<feOffset dy="4"/>
<feGaussianBlur stdDeviation="2"/>
<feComposite in2="hardAlpha" operator="out"/>
<feColorMatrix type="matrix" values="0 0 0 0 0.890196 0 0 0 0 0.592157 0 0 0 0 0.0666667 0 0 0 1 0"/>
<feBlend mode="normal" in2="BackgroundImageFix" result="effect1_dropShadow_1803_300"/>
<feBlend mode="normal" in="SourceGraphic" in2="effect1_dropShadow_1803_300" result="shape"/>
</filter>
</defs>
</svg>

