<svg width="159" height="159" viewBox="0 0 159 159" fill="none" xmlns="http://www.w3.org/2000/svg">
<g clip-path="url(#clip0_1239_1224)">
<path d="M135.301 125.408C160.678 94.5821 156.259 49.023 125.43 23.6485C94.602 -1.72605 49.0387 2.6929 23.6619 33.5185C-1.71491 64.344 2.70444 109.903 33.5328 135.278C64.3611 160.652 109.924 156.233 135.301 125.408Z" stroke="url(#paint0_linear_1239_1224)" stroke-width="10" stroke-linecap="round" stroke-linejoin="round"/>
<path d="M-11.0415 -8.49827C-11.3167 -8.47534 -11.5212 -8.23367 -11.4983 -7.95848L-11.1246 -3.47402C-11.1016 -3.19883 -10.86 -2.99434 -10.5848 -3.01727C-10.3096 -3.0402 -10.1051 -3.28188 -10.128 -3.55707L-10.4602 -7.54325L-6.47402 -7.87543C-6.19883 -7.89836 -5.99434 -8.14004 -6.01727 -8.41523C-6.0402 -8.69042 -6.28188 -8.89491 -6.55707 -8.87198L-11.0415 -8.49827ZM15.323 13.6183L-10.677 -8.38169L-11.323 -7.61831L14.677 14.3817L15.323 13.6183Z" fill="#434241" fill-opacity="0.980392"/>
<path d="M202.144 210.493C202.969 210.413 203.573 209.68 203.493 208.856L202.193 195.418C202.113 194.594 201.38 193.99 200.555 194.07C199.731 194.15 199.127 194.883 199.207 195.707L200.362 207.651L188.418 208.807C187.594 208.887 186.99 209.62 187.07 210.445C187.15 211.269 187.883 211.873 188.707 211.793L202.144 210.493ZM133.046 154.158L201.046 210.158L202.954 207.842L134.954 151.842L133.046 154.158Z" fill="black"/>
<path d="M99.6538 65.5748H57.3462C53.8413 65.5748 51 68.416 51 71.9209V97.3055C51 100.81 53.8413 103.652 57.3462 103.652H99.6538C103.159 103.652 106 100.81 106 97.3055V71.9209C106 68.416 103.159 65.5748 99.6538 65.5748Z" stroke="#FFA80F" stroke-opacity="0.980392" stroke-width="2" stroke-linejoin="round"/>
<path d="M99.0404 65.5748V61.6084C99.0401 60.6356 98.8251 59.6749 98.4107 58.7948C97.9963 57.9146 97.3928 57.1368 96.6432 56.5168C95.8936 55.8967 95.0164 55.4498 94.0742 55.2078C93.1319 54.9658 92.1479 54.9348 91.1923 55.1169L56.3731 61.0598C54.861 61.3479 53.4969 62.1547 52.516 63.341C51.5351 64.5273 50.999 66.0187 51 67.558V74.0363" stroke="#FFA80F" stroke-opacity="0.980392" stroke-width="2" stroke-linejoin="round"/>
<path d="M93.3077 88.844C92.4709 88.844 91.6529 88.5959 90.9572 88.131C90.2614 87.6662 89.7192 87.0054 89.399 86.2323C89.0787 85.4593 88.995 84.6086 89.1582 83.7879C89.3214 82.9672 89.7244 82.2134 90.3161 81.6217C90.9078 81.03 91.6616 80.627 92.4823 80.4638C93.303 80.3006 94.1537 80.3843 94.9267 80.7046C95.6998 81.0248 96.3605 81.567 96.8254 82.2628C97.2903 82.9585 97.5384 83.7765 97.5384 84.6133C97.5384 85.7353 97.0927 86.8115 96.2993 87.6049C95.5059 88.3983 94.4297 88.844 93.3077 88.844Z" fill="#FFA80F" fill-opacity="0.980392"/>
</g>
<defs>
<linearGradient id="paint0_linear_1239_1224" x1="-0.0437991" y1="79.5077" x2="158.971" y2="79.5076" gradientUnits="userSpaceOnUse">
<stop offset="0.05" stop-color="#F8DD7B"/>
<stop offset="0.2" stop-color="#EBCB68"/>
<stop offset="0.55" stop-color="#D1A540"/>
<stop offset="0.83" stop-color="#C08E27"/>
<stop offset="1" stop-color="#BA851E"/>
</linearGradient>
<clipPath id="clip0_1239_1224">
<rect width="159" height="159" fill="white"/>
</clipPath>
</defs>
</svg>
