<svg width="102" height="106" viewBox="0 0 102 106" fill="none" xmlns="http://www.w3.org/2000/svg">
<g filter="url(#filter0_d_1803_259)">
<circle cx="51.2029" cy="50.5247" r="46.5" transform="rotate(175.234 51.2029 50.5247)" fill="#1A1919"/>
<circle cx="51.2029" cy="50.5247" r="46" transform="rotate(175.234 51.2029 50.5247)" stroke="#FFA000"/>
</g>
<path d="M57.7869 50.1013C57.7869 60.0983 49.7758 68.2024 39.8935 68.2024C30.0112 68.2024 22 60.0983 22 50.1013C22 40.1042 30.0112 32.0001 39.8935 32.0001C49.7758 32.0001 57.7869 40.1042 57.7869 50.1013Z" fill="#FAFAFA"/>
<path d="M81.0003 50.1014C81.0003 60.0984 72.9891 68.2026 63.1069 68.2026C53.2246 68.2026 45.2134 60.0984 45.2134 50.1014C45.2134 40.1044 53.2246 32.0002 63.1069 32.0002C72.9891 32.0002 81.0003 40.1044 81.0003 50.1014Z" fill="#FAFAFA"/>
<path fill-rule="evenodd" clip-rule="evenodd" d="M51.5003 63.8784C55.3476 60.5584 57.7872 55.6181 57.7872 50.1014C57.7872 44.5847 55.3476 39.6444 51.5003 36.3243C47.6529 39.6444 45.2134 44.5847 45.2134 50.1014C45.2134 55.6181 47.6529 60.5584 51.5003 63.8784Z" fill="#BCB9B9"/>
<defs>
<filter id="filter0_d_1803_259" x="0.700439" y="4.02216" width="101.005" height="101.005" filterUnits="userSpaceOnUse" color-interpolation-filters="sRGB">
<feFlood flood-opacity="0" result="BackgroundImageFix"/>
<feColorMatrix in="SourceAlpha" type="matrix" values="0 0 0 0 0 0 0 0 0 0 0 0 0 0 0 0 0 0 127 0" result="hardAlpha"/>
<feOffset dy="4"/>
<feGaussianBlur stdDeviation="2"/>
<feComposite in2="hardAlpha" operator="out"/>
<feColorMatrix type="matrix" values="0 0 0 0 0.890196 0 0 0 0 0.592157 0 0 0 0 0.0666667 0 0 0 1 0"/>
<feBlend mode="normal" in2="BackgroundImageFix" result="effect1_dropShadow_1803_259"/>
<feBlend mode="normal" in="SourceGraphic" in2="effect1_dropShadow_1803_259" result="shape"/>
</filter>
</defs>
</svg>

