<svg width="157" height="159" viewBox="0 0 157 159" fill="none" xmlns="http://www.w3.org/2000/svg">
<g filter="url(#filter0_d_1239_1134)">
<circle cx="78.2996" cy="78.2995" r="72.524" transform="rotate(175.234 78.2996 78.2995)" fill="#1A1919"/>
<circle cx="78.2996" cy="78.2995" r="72.024" transform="rotate(175.234 78.2996 78.2995)" stroke="#FFA000"/>
</g>
<path fill-rule="evenodd" clip-rule="evenodd" d="M46.9345 67.0025H40.4953C40.0546 67.0025 39.6798 67.3228 39.6111 67.7576L37.0068 84.2698C36.955 84.5958 37.2073 84.8894 37.5378 84.8894H40.612C41.0526 84.8894 41.4274 84.5692 41.4961 84.1335L42.1985 79.6799C42.2663 79.2438 42.642 78.9239 43.0817 78.9239H45.1202C49.3619 78.9239 51.8099 76.8712 52.4495 72.8037C52.7375 71.0242 52.4617 69.626 51.6282 68.6465C50.7131 67.5716 49.0896 67.0025 46.9345 67.0025ZM47.6774 73.0334C47.3254 75.344 45.5599 75.344 43.8529 75.344H42.8812L43.5628 71.0286C43.6033 70.768 43.8293 70.5759 44.0929 70.5759H44.5383C45.7011 70.5759 46.7981 70.5759 47.365 71.2386C47.7027 71.6343 47.8064 72.2216 47.6774 73.0334ZM66.1831 72.9593H63.0995C62.8367 72.9593 62.6097 73.1514 62.5692 73.4124L62.4328 74.2748L62.2171 73.9623C61.5496 72.9933 60.0612 72.6695 58.5753 72.6695C55.1675 72.6695 52.2573 75.2503 51.6905 78.8708C51.3959 80.6764 51.8146 82.4032 52.839 83.6075C53.7789 84.7147 55.1235 85.1761 56.7231 85.1761C59.4686 85.1761 60.9914 83.4106 60.9914 83.4106L60.8538 84.2677C60.8019 84.5953 61.0542 84.889 61.3827 84.889H64.1605C64.6023 84.889 64.9748 84.5687 65.0446 84.133L66.7112 73.5789C66.7639 73.2543 66.5125 72.9593 66.1831 72.9593ZM61.8847 78.961C61.5871 80.7226 60.1888 81.9052 58.4058 81.9052C57.5104 81.9052 56.7945 81.618 56.3353 81.0738C55.8795 80.5335 55.7061 79.764 55.8512 78.9074C56.1292 77.1606 57.551 75.9397 59.3069 75.9397C60.1823 75.9397 60.8943 76.2303 61.3631 76.7793C61.8328 77.334 62.0193 78.1078 61.8847 78.961ZM79.5071 72.9589H82.606C83.04 72.9589 83.2931 73.4456 83.0465 73.8016L72.7403 88.6781C72.5734 88.919 72.2985 89.0624 72.0048 89.0624H68.9099C68.4741 89.0624 68.2197 88.5717 68.472 88.2149L71.6811 83.6851L68.268 73.6687C68.15 73.3205 68.407 72.9589 68.7774 72.9589H71.8223C72.2179 72.9589 72.5669 73.2186 72.6811 73.5972L74.4924 79.6468L78.7664 73.3514C78.9337 73.1057 79.2117 72.9589 79.5071 72.9589Z" fill="#FAFAFA"/>
<path fill-rule="evenodd" clip-rule="evenodd" d="M113.317 84.2682L115.96 67.454C116 67.193 116.226 67.0009 116.489 67H119.464C119.793 67 120.045 67.2945 119.993 67.6205L117.387 84.1318C117.319 84.5676 116.944 84.8878 116.503 84.8878H113.846C113.517 84.8878 113.265 84.5941 113.317 84.2682ZM93.0781 67.0009H86.6376C86.198 67.0009 85.8233 67.3211 85.7544 67.756L83.1501 84.2682C83.0982 84.5941 83.3505 84.8878 83.6795 84.8878H86.984C87.2912 84.8878 87.554 84.6638 87.6019 84.3588L88.3409 79.6783C88.4088 79.2421 88.7844 78.9223 89.2241 78.9223H91.2615C95.5042 78.9223 97.9517 76.8696 98.5917 72.8021C98.8806 71.0226 98.6031 69.6244 97.77 68.6449C96.8554 67.5699 95.2332 67.0009 93.0781 67.0009ZM93.821 73.0317C93.4698 75.3424 91.7042 75.3424 89.9962 75.3424H89.0254L89.7082 71.027C89.7487 70.7664 89.9727 70.5742 90.2371 70.5742H90.6825C91.8445 70.5742 92.9426 70.5742 93.509 71.237C93.8471 71.6326 93.95 72.22 93.821 73.0317ZM112.325 72.9577H109.243C108.979 72.9577 108.754 73.1498 108.714 73.4108L108.578 74.2731L108.361 73.9607C107.694 72.9916 106.206 72.6679 104.72 72.6679C101.312 72.6679 98.4031 75.2487 97.8362 78.8691C97.5425 80.6748 97.9595 82.4016 98.9839 83.6059C99.9255 84.7131 101.268 85.1745 102.868 85.1745C105.613 85.1745 107.136 83.409 107.136 83.409L106.999 84.266C106.947 84.5937 107.199 84.8874 107.53 84.8874H110.306C110.746 84.8874 111.121 84.5671 111.189 84.1314L112.857 73.5773C112.908 73.2527 112.656 72.9577 112.325 72.9577ZM108.027 78.9593C107.731 80.721 106.331 81.9035 104.548 81.9035C103.654 81.9035 102.937 81.6164 102.477 81.0722C102.021 80.5319 101.85 79.7624 101.993 78.9057C102.273 77.1589 103.693 75.938 105.449 75.938C106.325 75.938 107.036 76.2286 107.505 76.7777C107.977 77.3323 108.163 78.1062 108.027 78.9593Z" fill="#FAFAFA"/>
<defs>
<filter id="filter0_d_1239_1134" x="1.77148" y="5.77148" width="153.056" height="153.056" filterUnits="userSpaceOnUse" color-interpolation-filters="sRGB">
<feFlood flood-opacity="0" result="BackgroundImageFix"/>
<feColorMatrix in="SourceAlpha" type="matrix" values="0 0 0 0 0 0 0 0 0 0 0 0 0 0 0 0 0 0 127 0" result="hardAlpha"/>
<feOffset dy="4"/>
<feGaussianBlur stdDeviation="2"/>
<feComposite in2="hardAlpha" operator="out"/>
<feColorMatrix type="matrix" values="0 0 0 0 0.890196 0 0 0 0 0.592157 0 0 0 0 0.0666667 0 0 0 1 0"/>
<feBlend mode="normal" in2="BackgroundImageFix" result="effect1_dropShadow_1239_1134"/>
<feBlend mode="normal" in="SourceGraphic" in2="effect1_dropShadow_1239_1134" result="shape"/>
</filter>
</defs>
</svg>
