<svg width="154" height="154" viewBox="0 0 154 154" fill="none" xmlns="http://www.w3.org/2000/svg">
<g filter="url(#filter0_d_1803_14)">
<circle cx="77" cy="73" r="73" fill="#1A1919"/>
<circle cx="77" cy="73" r="72.5" stroke="#FFA000"/>
</g>
<path fill-rule="evenodd" clip-rule="evenodd" d="M81.101 59.8938L75.0351 61.1957V56.2777L81.101 55V59.8938ZM56.4505 57.7965L50.5538 59.0501L50.5297 78.3603C50.5297 81.9282 53.2122 84.556 56.7889 84.556C58.7706 84.556 60.2206 84.1943 61.0181 83.7604V78.8666C60.2447 79.18 56.4264 80.2889 56.4264 76.721V68.1628H61.0181V63.0278H56.4264L56.4505 57.7965ZM42.1684 67.8492C40.8875 67.8492 40.1142 68.2108 40.1142 69.151C40.1142 70.1775 41.4451 70.6291 43.0963 71.1893C45.7881 72.1026 49.3309 73.3047 49.3459 77.7574C49.3459 82.0727 45.8901 84.5558 40.8634 84.5558C38.785 84.5558 36.5133 84.146 34.2658 83.1817V77.444C36.2958 78.553 38.8575 79.3726 40.8634 79.3726C42.2167 79.3726 43.1834 79.011 43.1834 77.9021C43.1834 76.765 41.7406 76.2452 39.9988 75.6178C37.3462 74.6622 34 73.4567 34 69.4403C34 65.1732 37.2625 62.6178 42.1684 62.6178C44.1742 62.6178 46.1559 62.9312 48.1617 63.7268V69.3921C46.3251 68.4037 44.005 67.8492 42.1684 67.8492ZM68.5344 64.8117L68.1477 63.0277H62.9277V84.1219H68.9694V69.8261C70.3952 67.9698 72.8119 68.3073 73.5611 68.5725V63.0277C72.7877 62.7385 69.9602 62.2081 68.5344 64.8117ZM75.0343 63.0279H81.1002V84.122H75.0343V63.0279ZM121 73.6591C121 67.4876 118.003 62.6178 112.276 62.6178C106.524 62.6178 103.044 67.4876 103.044 73.6109C103.044 80.8673 107.152 84.5317 113.049 84.5317C115.925 84.5317 118.1 83.8808 119.743 82.9647V78.1431C118.1 78.9628 116.215 79.4691 113.822 79.4691C111.478 79.4691 109.4 78.6494 109.134 75.8047H120.952C120.952 75.6727 120.96 75.3737 120.97 75.0287L120.97 75.0226L120.97 75.0222L120.97 75.0218C120.984 74.5494 121 73.9923 121 73.6591ZM109.062 71.369C109.062 68.6449 110.729 67.5118 112.252 67.5118C113.726 67.5118 115.297 68.6449 115.297 71.369H109.062ZM88.9792 64.4982C89.825 63.7268 91.3475 62.6178 93.7158 62.6178C97.945 62.6178 101.933 66.4268 101.957 73.4181C101.957 81.0602 98.0175 84.5317 93.6917 84.5317C91.565 84.5317 90.2842 83.6397 89.4142 83.0129L89.39 89.8354L83.3483 91.1131V63.0035H88.665L88.9792 64.4982ZM89.4135 78.0951C89.9935 78.7219 90.8393 79.2282 92.2651 79.2282C94.4885 79.2282 95.9868 76.8174 95.9868 73.587C95.9868 70.4289 94.4643 67.97 92.2651 67.97C90.8876 67.97 90.0176 68.4521 89.3893 69.1512L89.4135 78.0951Z" fill="#FAFAFA"/>
<defs>
<filter id="filter0_d_1803_14" x="0" y="0" width="154" height="154" filterUnits="userSpaceOnUse" color-interpolation-filters="sRGB">
<feFlood flood-opacity="0" result="BackgroundImageFix"/>
<feColorMatrix in="SourceAlpha" type="matrix" values="0 0 0 0 0 0 0 0 0 0 0 0 0 0 0 0 0 0 127 0" result="hardAlpha"/>
<feOffset dy="4"/>
<feGaussianBlur stdDeviation="2"/>
<feComposite in2="hardAlpha" operator="out"/>
<feColorMatrix type="matrix" values="0 0 0 0 0.890196 0 0 0 0 0.592157 0 0 0 0 0.0666667 0 0 0 1 0"/>
<feBlend mode="normal" in2="BackgroundImageFix" result="effect1_dropShadow_1803_14"/>
<feBlend mode="normal" in="SourceGraphic" in2="effect1_dropShadow_1803_14" result="shape"/>
</filter>
</defs>
</svg>
