<svg width="154" height="154" viewBox="0 0 154 154" fill="none" xmlns="http://www.w3.org/2000/svg">
<g filter="url(#filter0_d_1239_1126)">
<circle cx="77" cy="73" r="73" fill="#1A1919"/>
<circle cx="77" cy="73" r="72.5" stroke="#FFA000"/>
</g>
<path d="M70.6431 91.0834H62.301L67.5188 58.8208H75.8604L70.6431 91.0834Z" fill="#00579F"/>
<path d="M100.881 59.6096C99.2352 58.9568 96.6255 58.2361 93.3985 58.2361C85.1604 58.2361 79.3592 62.6291 79.3236 68.9097C79.2552 73.5435 83.4771 76.1173 86.6348 77.6623C89.8622 79.2412 90.9593 80.2717 90.9593 81.679C90.9265 83.8403 88.3513 84.8366 85.9496 84.8366C82.619 84.8366 80.8345 84.323 78.1225 83.1205L77.024 82.605L75.8567 89.8472C77.8132 90.7386 81.4179 91.5296 85.1604 91.5643C93.9135 91.5643 99.612 87.2393 99.6796 80.5463C99.7129 76.8736 97.4835 74.0595 92.6773 71.7599C89.7596 70.2837 87.9727 69.2883 87.9727 67.7779C88.0069 66.4048 89.484 64.9984 92.7776 64.9984C95.4896 64.9296 97.4822 65.5814 98.9916 66.2338L99.7462 66.5763L100.881 59.6096Z" fill="#00579F"/>
<path d="M111.973 79.6539C112.66 77.8004 115.304 70.6271 115.304 70.6271C115.269 70.696 115.989 68.7394 116.401 67.5383L116.984 70.3183C116.984 70.3183 118.564 78.0409 118.907 79.6539C117.603 79.6539 113.621 79.6539 111.973 79.6539ZM122.27 58.8208H115.818C113.828 58.8208 112.316 59.4038 111.458 61.4976L99.0664 91.0829H107.82C107.82 91.0829 109.261 87.101 109.57 86.2434C110.531 86.2434 119.046 86.2434 120.281 86.2434C120.52 87.376 121.276 91.0829 121.276 91.0829H129L122.27 58.8208Z" fill="#00579F"/>
<path d="M55.3322 58.8208L47.1626 80.8208L46.2698 76.3589C44.7594 71.2105 40.0225 65.6169 34.7363 62.8356L42.2194 91.0492H51.041L64.1533 58.8208H55.3322Z" fill="#00579F"/>
<path d="M40.1412 55H25.1533L25 55.7279C36.6914 58.7177 44.4344 65.9243 47.6157 74.5863L44.3575 58.0284C43.8211 55.7274 42.1727 55.0759 40.1412 55Z" fill="#FAA61A"/>
<defs>
<filter id="filter0_d_1239_1126" x="0" y="0" width="154" height="154" filterUnits="userSpaceOnUse" color-interpolation-filters="sRGB">
<feFlood flood-opacity="0" result="BackgroundImageFix"/>
<feColorMatrix in="SourceAlpha" type="matrix" values="0 0 0 0 0 0 0 0 0 0 0 0 0 0 0 0 0 0 127 0" result="hardAlpha"/>
<feOffset dy="4"/>
<feGaussianBlur stdDeviation="2"/>
<feComposite in2="hardAlpha" operator="out"/>
<feColorMatrix type="matrix" values="0 0 0 0 0.890196 0 0 0 0 0.592157 0 0 0 0 0.0666667 0 0 0 1 0"/>
<feBlend mode="normal" in2="BackgroundImageFix" result="effect1_dropShadow_1239_1126"/>
<feBlend mode="normal" in="SourceGraphic" in2="effect1_dropShadow_1239_1126" result="shape"/>
</filter>
</defs>
</svg>
