<svg width="162" height="48" viewBox="0 0 162 48" fill="none" xmlns="http://www.w3.org/2000/svg">
<rect width="162" height="48" rx="5" fill="#F5F5F5"/>
<path d="M25.1531 11.9132C26.389 10.611 27.0806 8.82324 26.9713 7C25.2617 7 23.2795 7.9544 22.0246 9.36096C21.0423 10.5241 19.9878 12.3473 20.3697 14.1698C22.1339 14.3785 24.0439 13.3198 25.1531 11.9132Z" fill="black"/>
<path d="M32.8769 17.692C32.5325 17.8881 29.2827 19.7387 29.2827 23.6852C29.2907 23.9301 29.3169 24.1624 29.3468 24.3913H29.3453C29.8839 28.5004 33.6682 29.9695 33.7367 29.9695C33.7239 29.9851 33.6955 30.0654 33.6481 30.1994C33.4288 30.8195 32.8025 32.5906 31.4273 34.4313C30.1003 36.3596 28.6268 38.3039 26.3896 38.3039C25.3638 38.3039 24.655 38.0051 23.9208 37.6956C23.1321 37.3632 22.314 37.0183 21.0421 37.0183C19.6356 37.0183 18.7672 37.384 17.9566 37.7253C17.2474 38.0239 16.5824 38.3039 15.64 38.3039C13.4028 38.3039 11.8207 36.2552 10.4208 34.345C8.64055 31.8971 7.13135 28.0858 7.01693 24.3913C7.01588 24.3536 7.01282 24.3156 7.00975 24.2775C7.00643 24.2363 7.00311 24.195 7.00235 24.1541C6.96519 22.1576 7.36599 20.1953 8.38403 18.5285C9.82037 16.2017 12.3855 14.6219 15.186 14.5697C16.4111 14.5304 17.5592 14.9943 18.5626 15.3997C19.3171 15.7045 19.9897 15.9763 20.5517 15.9763C21.063 15.9763 21.7554 15.7428 22.5761 15.4661C23.7698 15.0636 25.2347 14.5697 26.8079 14.5697C27.9535 14.5704 31.0098 14.9001 32.9016 17.6778C32.8968 17.6807 32.8885 17.6854 32.8769 17.692Z" fill="black"/>
<path d="M46.7715 15V7.8418H49.2373C49.7939 7.8418 50.2188 7.87598 50.5117 7.94434C50.9219 8.03874 51.2718 8.20964 51.5615 8.45703C51.9391 8.77604 52.2207 9.18457 52.4062 9.68262C52.5951 10.1774 52.6895 10.7438 52.6895 11.3818C52.6895 11.9255 52.626 12.4072 52.499 12.8271C52.3721 13.2471 52.2093 13.5954 52.0107 13.8721C51.8122 14.1455 51.5941 14.362 51.3564 14.5215C51.1221 14.6777 50.8372 14.7965 50.502 14.8779C50.1699 14.9593 49.7874 15 49.3545 15H46.7715ZM47.7188 14.1553H49.2471C49.7191 14.1553 50.0885 14.1113 50.3555 14.0234C50.6257 13.9355 50.8405 13.8118 51 13.6523C51.2246 13.4277 51.3988 13.1266 51.5225 12.749C51.6494 12.3682 51.7129 11.9076 51.7129 11.3672C51.7129 10.6185 51.5892 10.0439 51.3418 9.64355C51.0977 9.23991 50.7998 8.96973 50.4482 8.83301C50.1943 8.73535 49.7858 8.68652 49.2227 8.68652H47.7188V14.1553ZM53.5586 12.4072C53.5586 11.4469 53.8255 10.7357 54.3594 10.2734C54.8053 9.88932 55.349 9.69727 55.9902 9.69727C56.7031 9.69727 57.2858 9.93164 57.7383 10.4004C58.1908 10.8659 58.417 11.5104 58.417 12.334C58.417 13.0013 58.3161 13.527 58.1143 13.9111C57.9157 14.292 57.6243 14.5882 57.2402 14.7998C56.8594 15.0114 56.4427 15.1172 55.9902 15.1172C55.2643 15.1172 54.6768 14.8844 54.2275 14.4189C53.7816 13.9535 53.5586 13.2829 53.5586 12.4072ZM54.4619 12.4072C54.4619 13.0713 54.6068 13.5693 54.8965 13.9014C55.1862 14.2301 55.5508 14.3945 55.9902 14.3945C56.4264 14.3945 56.7894 14.2285 57.0791 13.8965C57.3688 13.5645 57.5137 13.0583 57.5137 12.3779C57.5137 11.7367 57.3672 11.2516 57.0742 10.9229C56.7845 10.5908 56.4232 10.4248 55.9902 10.4248C55.5508 10.4248 55.1862 10.5892 54.8965 10.918C54.6068 11.2467 54.4619 11.7432 54.4619 12.4072ZM60.4092 15L58.8223 9.81445H59.7305L60.5557 12.8076L60.8633 13.9209C60.8763 13.8656 60.9658 13.5091 61.1318 12.8516L61.957 9.81445H62.8604L63.6367 12.8223L63.8955 13.8135L64.1934 12.8125L65.082 9.81445H65.9365L64.3154 15H63.4023L62.5771 11.8945L62.377 11.0107L61.3271 15H60.4092ZM66.6787 15V9.81445H67.4697V10.5518C67.8506 9.9821 68.4007 9.69727 69.1201 9.69727C69.4326 9.69727 69.7191 9.75423 69.9795 9.86816C70.2432 9.97884 70.4401 10.1253 70.5703 10.3076C70.7005 10.4899 70.7917 10.7064 70.8438 10.957C70.8763 11.1198 70.8926 11.4046 70.8926 11.8115V15H70.0137V11.8457C70.0137 11.4876 69.9795 11.2207 69.9111 11.0449C69.8428 10.8659 69.7207 10.7243 69.5449 10.6201C69.3724 10.5127 69.1689 10.459 68.9346 10.459C68.5602 10.459 68.2363 10.5778 67.9629 10.8154C67.6927 11.0531 67.5576 11.5039 67.5576 12.168V15H66.6787ZM72.2256 15V7.8418H73.1045V15H72.2256ZM74.1445 12.4072C74.1445 11.4469 74.4115 10.7357 74.9453 10.2734C75.3913 9.88932 75.9349 9.69727 76.5762 9.69727C77.2891 9.69727 77.8717 9.93164 78.3242 10.4004C78.7767 10.8659 79.0029 11.5104 79.0029 12.334C79.0029 13.0013 78.902 13.527 78.7002 13.9111C78.5016 14.292 78.2103 14.5882 77.8262 14.7998C77.4453 15.0114 77.0286 15.1172 76.5762 15.1172C75.8503 15.1172 75.2627 14.8844 74.8135 14.4189C74.3675 13.9535 74.1445 13.2829 74.1445 12.4072ZM75.0479 12.4072C75.0479 13.0713 75.1927 13.5693 75.4824 13.9014C75.7721 14.2301 76.1367 14.3945 76.5762 14.3945C77.0124 14.3945 77.3753 14.2285 77.665 13.8965C77.9548 13.5645 78.0996 13.0583 78.0996 12.3779C78.0996 11.7367 77.9531 11.2516 77.6602 10.9229C77.3704 10.5908 77.0091 10.4248 76.5762 10.4248C76.1367 10.4248 75.7721 10.5892 75.4824 10.918C75.1927 11.2467 75.0479 11.7432 75.0479 12.4072ZM83.4219 14.3604C83.0964 14.637 82.7822 14.8324 82.4795 14.9463C82.18 15.0602 81.8577 15.1172 81.5127 15.1172C80.943 15.1172 80.5052 14.9788 80.1992 14.7021C79.8932 14.4222 79.7402 14.0658 79.7402 13.6328C79.7402 13.3789 79.7972 13.1478 79.9111 12.9395C80.0283 12.7279 80.1797 12.5586 80.3652 12.4316C80.554 12.3047 80.7656 12.2087 81 12.1436C81.1725 12.098 81.4329 12.054 81.7812 12.0117C82.4909 11.9271 83.0133 11.8262 83.3486 11.709C83.3519 11.5885 83.3535 11.512 83.3535 11.4795C83.3535 11.1214 83.2705 10.8691 83.1045 10.7227C82.8799 10.5241 82.5462 10.4248 82.1035 10.4248C81.6901 10.4248 81.3841 10.498 81.1855 10.6445C80.9902 10.7878 80.8454 11.0433 80.751 11.4111L79.8916 11.2939C79.9697 10.9261 80.0983 10.6299 80.2773 10.4053C80.4564 10.1774 80.7152 10.0033 81.0537 9.88281C81.3923 9.75911 81.7845 9.69727 82.2305 9.69727C82.6732 9.69727 83.0329 9.74935 83.3096 9.85352C83.5863 9.95768 83.7897 10.0895 83.9199 10.249C84.0501 10.4053 84.1413 10.6038 84.1934 10.8447C84.2227 10.9945 84.2373 11.2646 84.2373 11.6553V12.8271C84.2373 13.6442 84.2552 14.1618 84.291 14.3799C84.3301 14.5947 84.4049 14.8014 84.5156 15H83.5977C83.5065 14.8177 83.4479 14.6045 83.4219 14.3604ZM83.3486 12.3975C83.0296 12.5277 82.5511 12.6383 81.9131 12.7295C81.5518 12.7816 81.2962 12.8402 81.1465 12.9053C80.9967 12.9704 80.8812 13.0664 80.7998 13.1934C80.7184 13.3171 80.6777 13.4554 80.6777 13.6084C80.6777 13.8428 80.7656 14.0381 80.9414 14.1943C81.1204 14.3506 81.3809 14.4287 81.7227 14.4287C82.0612 14.4287 82.3623 14.3555 82.626 14.209C82.8896 14.0592 83.0833 13.8558 83.207 13.5986C83.3014 13.4001 83.3486 13.1071 83.3486 12.7197V12.3975ZM88.9688 15V14.3457C88.64 14.86 88.1566 15.1172 87.5186 15.1172C87.1051 15.1172 86.7243 15.0033 86.376 14.7754C86.0309 14.5475 85.7624 14.2301 85.5703 13.8232C85.3815 13.4131 85.2871 12.9427 85.2871 12.4121C85.2871 11.8945 85.3734 11.4258 85.5459 11.0059C85.7184 10.5827 85.9772 10.2588 86.3223 10.0342C86.6673 9.80957 87.0531 9.69727 87.4795 9.69727C87.792 9.69727 88.0703 9.764 88.3145 9.89746C88.5586 10.0277 88.7572 10.1986 88.9102 10.4102V7.8418H89.7842V15H88.9688ZM86.1904 12.4121C86.1904 13.0762 86.3304 13.5726 86.6104 13.9014C86.8903 14.2301 87.2207 14.3945 87.6016 14.3945C87.9857 14.3945 88.3112 14.2383 88.5781 13.9258C88.8483 13.61 88.9834 13.1299 88.9834 12.4854C88.9834 11.7757 88.8467 11.2549 88.5732 10.9229C88.2998 10.5908 87.9629 10.4248 87.5625 10.4248C87.1719 10.4248 86.8447 10.5843 86.5811 10.9033C86.3206 11.2223 86.1904 11.7253 86.1904 12.4121ZM93.627 12.4072C93.627 11.4469 93.8939 10.7357 94.4277 10.2734C94.8737 9.88932 95.4173 9.69727 96.0586 9.69727C96.7715 9.69727 97.3542 9.93164 97.8066 10.4004C98.2591 10.8659 98.4854 11.5104 98.4854 12.334C98.4854 13.0013 98.3844 13.527 98.1826 13.9111C97.984 14.292 97.6927 14.5882 97.3086 14.7998C96.9277 15.0114 96.5111 15.1172 96.0586 15.1172C95.3327 15.1172 94.7451 14.8844 94.2959 14.4189C93.8499 13.9535 93.627 13.2829 93.627 12.4072ZM94.5303 12.4072C94.5303 13.0713 94.6751 13.5693 94.9648 13.9014C95.2546 14.2301 95.6191 14.3945 96.0586 14.3945C96.4948 14.3945 96.8577 14.2285 97.1475 13.8965C97.4372 13.5645 97.582 13.0583 97.582 12.3779C97.582 11.7367 97.4355 11.2516 97.1426 10.9229C96.8529 10.5908 96.4915 10.4248 96.0586 10.4248C95.6191 10.4248 95.2546 10.5892 94.9648 10.918C94.6751 11.2467 94.5303 11.7432 94.5303 12.4072ZM99.5205 15V9.81445H100.312V10.5518C100.692 9.9821 101.243 9.69727 101.962 9.69727C102.274 9.69727 102.561 9.75423 102.821 9.86816C103.085 9.97884 103.282 10.1253 103.412 10.3076C103.542 10.4899 103.633 10.7064 103.686 10.957C103.718 11.1198 103.734 11.4046 103.734 11.8115V15H102.855V11.8457C102.855 11.4876 102.821 11.2207 102.753 11.0449C102.685 10.8659 102.562 10.7243 102.387 10.6201C102.214 10.5127 102.011 10.459 101.776 10.459C101.402 10.459 101.078 10.5778 100.805 10.8154C100.535 11.0531 100.399 11.5039 100.399 12.168V15H99.5205ZM109.789 14.2139L109.916 14.9902C109.669 15.0423 109.447 15.0684 109.252 15.0684C108.933 15.0684 108.686 15.0179 108.51 14.917C108.334 14.8161 108.21 14.6842 108.139 14.5215C108.067 14.3555 108.031 14.0088 108.031 13.4814V10.498H107.387V9.81445H108.031V8.53027L108.905 8.00293V9.81445H109.789V10.498H108.905V13.5303C108.905 13.7809 108.92 13.9421 108.949 14.0137C108.982 14.0853 109.032 14.1423 109.101 14.1846C109.172 14.2269 109.273 14.248 109.403 14.248C109.501 14.248 109.63 14.2367 109.789 14.2139ZM110.653 15V7.8418H111.532V10.4102C111.942 9.9349 112.46 9.69727 113.085 9.69727C113.469 9.69727 113.803 9.77376 114.086 9.92676C114.369 10.0765 114.571 10.2848 114.691 10.5518C114.815 10.8187 114.877 11.2061 114.877 11.7139V15H113.998V11.7139C113.998 11.2744 113.902 10.9554 113.71 10.7568C113.521 10.555 113.253 10.4541 112.904 10.4541C112.644 10.4541 112.398 10.5225 112.167 10.6592C111.939 10.7926 111.776 10.9749 111.679 11.2061C111.581 11.4372 111.532 11.7562 111.532 12.1631V15H110.653ZM119.77 13.3301L120.678 13.4424C120.535 13.973 120.269 14.3848 119.882 14.6777C119.494 14.9707 119 15.1172 118.397 15.1172C117.639 15.1172 117.037 14.8844 116.591 14.4189C116.148 13.9502 115.927 13.2943 115.927 12.4512C115.927 11.5788 116.151 10.9017 116.601 10.4199C117.05 9.93815 117.632 9.69727 118.349 9.69727C119.042 9.69727 119.608 9.93327 120.048 10.4053C120.487 10.8773 120.707 11.5413 120.707 12.3975C120.707 12.4495 120.705 12.5277 120.702 12.6318H116.835C116.868 13.2015 117.029 13.6377 117.318 13.9404C117.608 14.2432 117.969 14.3945 118.402 14.3945C118.725 14.3945 119 14.3099 119.228 14.1406C119.455 13.9714 119.636 13.7012 119.77 13.3301ZM116.884 11.9092H119.779C119.74 11.473 119.63 11.1458 119.447 10.9277C119.167 10.5892 118.804 10.4199 118.358 10.4199C117.955 10.4199 117.615 10.555 117.338 10.8252C117.064 11.0954 116.913 11.4567 116.884 11.9092Z" fill="#0E0E0E"/>
<path d="M41.9634 36L48.8359 18.1045H51.3872L58.7114 36H56.0137L53.9263 30.5801H46.4434L44.478 36H41.9634ZM47.127 28.6514H53.1938L51.3262 23.6953C50.7565 22.1898 50.3333 20.9528 50.0566 19.9844C49.8288 21.1318 49.5073 22.2712 49.0923 23.4023L47.127 28.6514ZM58.8228 40.9683V23.0361H60.8247V24.7207C61.2967 24.0615 61.8298 23.5692 62.4238 23.2437C63.0179 22.91 63.7381 22.7432 64.5845 22.7432C65.6912 22.7432 66.6678 23.028 67.5142 23.5977C68.3605 24.1673 68.9993 24.973 69.4307 26.0146C69.862 27.0482 70.0776 28.1834 70.0776 29.4204C70.0776 30.7469 69.8376 31.9432 69.3574 33.0093C68.8854 34.0672 68.1937 34.881 67.2822 35.4507C66.3789 36.0122 65.4268 36.293 64.4258 36.293C63.6934 36.293 63.0342 36.1383 62.4482 35.8291C61.8704 35.5199 61.3944 35.1292 61.02 34.6572V40.9683H58.8228ZM60.8125 29.5913C60.8125 31.2596 61.1502 32.4925 61.8257 33.29C62.5011 34.0876 63.319 34.4863 64.2793 34.4863C65.2559 34.4863 66.09 34.0754 66.7817 33.2534C67.4816 32.4233 67.8315 31.1416 67.8315 29.4082C67.8315 27.7562 67.4897 26.5192 66.8062 25.6973C66.1307 24.8753 65.321 24.4644 64.377 24.4644C63.4411 24.4644 62.611 24.9038 61.8867 25.7827C61.1706 26.6535 60.8125 27.923 60.8125 29.5913ZM71.2388 40.9683V23.0361H73.2407V24.7207C73.7127 24.0615 74.2458 23.5692 74.8398 23.2437C75.4339 22.91 76.1541 22.7432 77.0005 22.7432C78.1073 22.7432 79.0838 23.028 79.9302 23.5977C80.7765 24.1673 81.4154 24.973 81.8467 26.0146C82.278 27.0482 82.4937 28.1834 82.4937 29.4204C82.4937 30.7469 82.2536 31.9432 81.7734 33.0093C81.3014 34.0672 80.6097 34.881 79.6982 35.4507C78.7949 36.0122 77.8428 36.293 76.8418 36.293C76.1094 36.293 75.4502 36.1383 74.8643 35.8291C74.2865 35.5199 73.8104 35.1292 73.436 34.6572V40.9683H71.2388ZM73.2285 29.5913C73.2285 31.2596 73.5662 32.4925 74.2417 33.29C74.9172 34.0876 75.735 34.4863 76.6953 34.4863C77.6719 34.4863 78.506 34.0754 79.1978 33.2534C79.8976 32.4233 80.2476 31.1416 80.2476 29.4082C80.2476 27.7562 79.9058 26.5192 79.2222 25.6973C78.5467 24.8753 77.737 24.4644 76.793 24.4644C75.8571 24.4644 75.027 24.9038 74.3027 25.7827C73.5866 26.6535 73.2285 27.923 73.2285 29.5913ZM88.5879 30.2505L90.8218 30.0552C90.9276 30.9504 91.1717 31.6868 91.5542 32.2646C91.9448 32.8343 92.547 33.2982 93.3608 33.6562C94.1746 34.0062 95.0902 34.1812 96.1074 34.1812C97.0107 34.1812 97.8083 34.0469 98.5 33.7783C99.1917 33.5098 99.7044 33.1436 100.038 32.6797C100.38 32.2077 100.551 31.695 100.551 31.1416C100.551 30.5801 100.388 30.0918 100.062 29.6768C99.737 29.2536 99.1999 28.8996 98.4512 28.6147C97.971 28.4276 96.909 28.1387 95.2651 27.748C93.6213 27.3493 92.4697 26.9749 91.8105 26.625C90.9561 26.1774 90.3172 25.624 89.894 24.9648C89.479 24.2975 89.2715 23.5529 89.2715 22.731C89.2715 21.8276 89.5278 20.9854 90.0405 20.2041C90.5532 19.4147 91.3019 18.8166 92.2866 18.4097C93.2713 18.0028 94.3659 17.7993 95.5703 17.7993C96.8968 17.7993 98.0646 18.015 99.0737 18.4463C100.091 18.8695 100.872 19.4961 101.417 20.3262C101.963 21.1562 102.256 22.0962 102.296 23.146L100.026 23.3169C99.9038 22.1857 99.4888 21.3312 98.7808 20.7534C98.0809 20.1756 97.0433 19.8867 95.668 19.8867C94.2357 19.8867 93.1899 20.1512 92.5308 20.6802C91.8797 21.201 91.5542 21.8317 91.5542 22.5723C91.5542 23.2152 91.7861 23.7441 92.25 24.1592C92.7057 24.5742 93.8939 25.0015 95.8145 25.4409C97.7432 25.8722 99.0656 26.2507 99.7817 26.5762C100.823 27.0563 101.592 27.6667 102.089 28.4072C102.585 29.1396 102.833 29.986 102.833 30.9463C102.833 31.8984 102.561 32.7977 102.016 33.644C101.47 34.4823 100.685 35.1374 99.6597 35.6094C98.6424 36.0732 97.495 36.3052 96.2173 36.3052C94.5978 36.3052 93.2388 36.0692 92.1401 35.5972C91.0496 35.1252 90.1911 34.4172 89.5645 33.4731C88.946 32.521 88.6204 31.4468 88.5879 30.2505ZM109.085 34.0347L109.402 35.9756C108.784 36.1058 108.23 36.1709 107.742 36.1709C106.945 36.1709 106.326 36.0448 105.887 35.7925C105.447 35.5402 105.138 35.2106 104.959 34.8037C104.78 34.3887 104.69 33.522 104.69 32.2036V24.7451H103.079V23.0361H104.69V19.8257L106.875 18.5073V23.0361H109.085V24.7451H106.875V32.3257C106.875 32.9523 106.912 33.3551 106.985 33.5342C107.067 33.7132 107.193 33.8556 107.364 33.9614C107.543 34.0672 107.795 34.1201 108.121 34.1201C108.365 34.1201 108.686 34.0916 109.085 34.0347ZM108.928 29.5181C108.928 27.1174 109.595 25.3392 110.93 24.1836C112.045 23.2233 113.404 22.7432 115.007 22.7432C116.789 22.7432 118.246 23.3291 119.377 24.501C120.508 25.6647 121.074 27.276 121.074 29.335C121.074 31.0033 120.821 32.3175 120.317 33.2778C119.82 34.23 119.092 34.9705 118.132 35.4995C117.18 36.0285 116.138 36.293 115.007 36.293C113.192 36.293 111.723 35.7111 110.6 34.5474C109.485 33.3836 108.928 31.7072 108.928 29.5181ZM111.186 29.5181C111.186 31.1782 111.548 32.4233 112.272 33.2534C112.997 34.0754 113.908 34.4863 115.007 34.4863C116.097 34.4863 117.005 34.0713 117.729 33.2412C118.453 32.4111 118.815 31.1457 118.815 29.4448C118.815 27.8416 118.449 26.6291 117.717 25.8071C116.993 24.9771 116.089 24.562 115.007 24.562C113.908 24.562 112.997 24.973 112.272 25.7949C111.548 26.6169 111.186 27.8579 111.186 29.5181ZM122.137 36V23.0361H124.115V25.0015C124.619 24.0819 125.083 23.4756 125.506 23.1826C125.938 22.8896 126.41 22.7432 126.922 22.7432C127.663 22.7432 128.416 22.9792 129.181 23.4512L128.424 25.4897C127.887 25.1724 127.35 25.0137 126.812 25.0137C126.332 25.0137 125.901 25.1602 125.519 25.4531C125.136 25.738 124.863 26.1367 124.701 26.6494C124.457 27.4307 124.334 28.2852 124.334 29.2129V36H122.137ZM137.861 31.8252L140.132 32.106C139.774 33.4325 139.111 34.4619 138.142 35.1943C137.174 35.9268 135.937 36.293 134.431 36.293C132.535 36.293 131.029 35.7111 129.915 34.5474C128.808 33.3755 128.254 31.7357 128.254 29.6279C128.254 27.4469 128.816 25.7542 129.939 24.5498C131.062 23.3454 132.519 22.7432 134.309 22.7432C136.042 22.7432 137.458 23.3332 138.557 24.5132C139.656 25.6932 140.205 27.3534 140.205 29.4937C140.205 29.6239 140.201 29.8192 140.193 30.0796H130.525C130.606 31.5037 131.009 32.5942 131.733 33.3511C132.458 34.1079 133.361 34.4863 134.443 34.4863C135.249 34.4863 135.937 34.2747 136.506 33.8516C137.076 33.4284 137.528 32.7529 137.861 31.8252ZM130.647 28.2729H137.886C137.788 27.1825 137.511 26.3646 137.056 25.8193C136.356 24.973 135.448 24.5498 134.333 24.5498C133.324 24.5498 132.474 24.8875 131.782 25.563C131.099 26.2384 130.72 27.1418 130.647 28.2729Z" fill="#0E0E0E"/>
</svg>
