<svg width="44" height="44" viewBox="0 0 44 44" fill="none" xmlns="http://www.w3.org/2000/svg">
<rect x="1" y="1" width="41.0469" height="41.0469" rx="7.90625" fill="#232323"/>
<g clip-path="url(#clip0_2112_3036)">
<path d="M13.2213 26.0908C13.6773 26.587 14.1853 27.0371 14.7372 27.4342C15.5989 28.0524 16.554 28.5415 17.5697 28.8846C17.6425 28.9078 17.6425 28.9218 17.5988 28.9775L16.8409 29.9444C16.8283 29.965 16.8095 29.9813 16.7869 29.9913C16.7643 30.0013 16.7391 30.0044 16.7146 30.0002C16.1384 29.972 15.566 29.8942 15.0044 29.7678C13.8144 29.5146 12.683 29.0545 11.6666 28.4104C11.0619 28.0221 10.5116 27.5613 10.0293 27.0391C10.0174 27.0258 10.0085 27.0102 10.0035 26.9934C9.99848 26.9765 9.99735 26.9588 10.0002 26.9415C10.0342 26.4302 10.0828 25.9188 10.1411 25.4029C10.1994 24.8869 10.2723 24.3291 10.3646 23.7945C10.6392 22.126 11.0817 20.4867 11.6861 18.8997C12.0381 17.9675 12.4754 17.0668 12.993 16.2082C13.0786 16.0658 13.1965 15.9435 13.3379 15.8503C14.38 15.1494 15.5379 14.6214 16.7632 14.2884C17.2621 14.1505 17.7725 14.0541 18.2887 14.0002C18.3106 13.9955 18.3335 13.9986 18.3531 14.0088C18.3728 14.0191 18.3879 14.0358 18.3956 14.056C18.4539 14.1799 18.5171 14.3008 18.5851 14.4185C18.6142 14.4697 18.6142 14.4883 18.5462 14.5022C17.9232 14.6374 17.3136 14.824 16.7243 15.06C15.8139 15.4335 14.9659 15.9332 14.2076 16.5429L13.7801 16.8962C13.7801 16.8962 13.7412 16.8962 13.7412 16.9427C13.7412 16.9892 13.7995 16.9427 13.8238 16.9148C14.5574 16.5615 15.2813 16.2129 16.0635 15.9293C16.9497 15.5959 17.8697 15.3514 18.8086 15.1995C19.9084 15.0293 21.0234 14.9655 22.1366 15.0089C23.6266 15.0448 25.1018 15.302 26.5092 15.7713C27.4253 16.0977 28.3179 16.4812 29.1814 16.9194L29.2591 16.952C29.2591 16.952 29.2591 16.952 29.2834 16.952C29.0405 16.7288 28.7976 16.529 28.5158 16.3244C27.6124 15.6354 26.5826 15.1136 25.4793 14.7858C25.1392 14.6789 24.7991 14.5859 24.4493 14.5022C24.4007 14.5022 24.391 14.479 24.4152 14.4371C24.4836 14.3211 24.5452 14.2017 24.5999 14.0792C24.6108 14.0521 24.6315 14.0297 24.6583 14.0161C24.685 14.0024 24.716 13.9984 24.7456 14.0048C25.1498 14.0458 25.5508 14.1126 25.9457 14.2047C27.3314 14.5507 28.6379 15.1403 29.7984 15.9432C29.8494 15.9812 29.8937 16.0267 29.9296 16.0781C30.3206 16.6953 30.6617 17.3402 30.9499 18.0072C31.3925 19.0144 31.7595 20.0505 32.0479 21.1077C32.321 22.1028 32.5367 23.1115 32.6941 24.1292C32.8155 24.8962 32.903 25.6632 32.971 26.4534C32.971 26.6254 32.9953 26.7928 33.0099 26.9648C33.0108 27.0096 32.9933 27.0529 32.9613 27.0856C32.0737 28.0328 30.9743 28.7764 29.745 29.2611C28.9653 29.572 28.1499 29.7935 27.3158 29.9212C26.9689 29.9797 26.6183 30.0155 26.2663 30.0281C26.2457 30.0312 26.2246 30.0284 26.2056 30.0201C26.1866 30.0119 26.1706 29.9985 26.1594 29.9816C25.9019 29.6516 25.6444 29.3215 25.3821 28.9961C25.3384 28.9403 25.3821 28.9311 25.4161 28.9125C26.3878 28.5864 27.3045 28.1259 28.1368 27.5458C28.7354 27.1287 29.2845 26.6502 29.7741 26.1187V26.0955C29.7741 26.0955 29.7498 26.0955 29.7401 26.0955C29.5312 26.2303 29.3272 26.3698 29.1182 26.4999C28.1921 27.0838 27.1868 27.5437 26.1303 27.8666C25.4106 28.0767 24.6747 28.2321 23.9294 28.3314C22.8372 28.4815 21.7324 28.5298 20.6305 28.4755C19.1841 28.4283 17.7537 28.1696 16.3891 27.7085C15.2928 27.3309 14.2587 26.805 13.3185 26.1466L13.2116 26.0769C13.2116 26.0769 13.2116 26.0444 13.1728 26.0769H13.197L13.2213 26.0908ZM16.2724 22.9717C16.2669 23.0755 16.2669 23.1794 16.2724 23.2832C16.3295 23.799 16.5902 24.2745 17.0012 24.6126C17.3232 24.8784 17.7395 25.0159 18.1643 24.9969C18.5891 24.9779 18.9901 24.8038 19.2847 24.5104C19.6166 24.1864 19.8267 23.7662 19.8823 23.3157C19.943 22.9812 19.9186 22.6375 19.8112 22.3139C19.7038 21.9902 19.5166 21.6961 19.2653 21.4563C19.11 21.3041 18.9245 21.1831 18.7197 21.1005C18.5149 21.0179 18.2948 20.9754 18.0725 20.9754C17.8502 20.9754 17.6302 21.0179 17.4253 21.1005C17.2205 21.1831 17.035 21.3041 16.8798 21.4563C16.6792 21.6582 16.5224 21.896 16.4181 22.1561C16.3139 22.4161 16.2644 22.6933 16.2724 22.9717ZM26.7279 23.0786C26.7551 22.5534 26.5825 22.0365 26.242 21.6237C26.0869 21.4305 25.8876 21.2739 25.6593 21.1659C25.4311 21.058 25.18 21.0015 24.9254 21.0008C24.6702 21.0007 24.4184 21.0558 24.1887 21.1621C23.959 21.2683 23.7574 21.423 23.599 21.6144C23.3267 21.9203 23.1574 22.2978 23.1132 22.6975C23.051 23.0497 23.0855 23.4114 23.2133 23.7471C23.341 24.0828 23.5576 24.3811 23.842 24.6126C24.161 24.8781 24.5744 25.016 24.9968 24.9978C25.4192 24.9797 25.818 24.8068 26.1109 24.515C26.5037 24.1311 26.725 23.6159 26.7279 23.0786Z" fill="white"/>
</g>
<rect x="1" y="1" width="41.0469" height="41.0469" rx="7.90625" stroke="url(#paint0_linear_2112_3036)" stroke-width="2"/>
<defs>
<linearGradient id="paint0_linear_2112_3036" x1="21.5234" y1="4.05243e-06" x2="22.9776" y2="43.0085" gradientUnits="userSpaceOnUse">
<stop stop-color="#FF740F" stop-opacity="0.980392"/>
<stop offset="0.5" stop-color="#FFD500" stop-opacity="0.22"/>
</linearGradient>
<clipPath id="clip0_2112_3036">
<rect width="23" height="16" fill="white" transform="translate(10 14)"/>
</clipPath>
</defs>
</svg>
