<svg width="44" height="44" viewBox="0 0 44 44" fill="none" xmlns="http://www.w3.org/2000/svg">
<rect x="1" y="1" width="41.0469" height="41.0469" rx="7.90625" fill="#232323"/>
<path d="M24.7807 28.9064V25.6226C24.7856 25.1928 24.716 24.7655 24.5752 24.3608C24.4658 24.048 24.2855 23.7665 24.0492 23.5398C24.3976 23.4753 24.7459 23.4215 25.0942 23.3498C25.6076 23.2438 26.1053 23.0691 26.5745 22.83C27.4672 22.396 28.1641 21.6261 28.5216 20.6791C29.0577 19.3652 29.1461 17.9034 28.7724 16.5313C28.6223 16.0028 28.3633 15.5137 28.0131 15.0974C27.9766 15.0603 27.952 15.0125 27.9426 14.9606C27.9333 14.9087 27.9397 14.8551 27.9609 14.807C28.2168 13.9196 28.1614 12.9678 27.8041 12.1183C27.7658 12.0072 27.6926 12 27.6056 12C27.215 12.0065 26.829 12.0867 26.4666 12.2366C25.9309 12.458 25.4204 12.7393 24.9444 13.0755C24.8951 13.1131 24.8377 13.1379 24.7771 13.1479C24.7164 13.1578 24.6544 13.1527 24.5961 13.1328C23.1221 12.7456 21.5817 12.71 20.0923 13.0289C19.8528 13.096 19.602 13.1096 19.3569 13.0688C19.1118 13.028 18.878 12.9337 18.6712 12.7923C18.1097 12.4069 17.472 12.1547 16.8042 12.0538C16.7177 12.0384 16.6305 12.0277 16.543 12.0215L16.334 12.1004C16.268 12.2108 16.2208 12.332 16.1947 12.4589C15.948 13.2555 15.9323 14.1088 16.1494 14.9145C16.1673 14.9643 16.1712 15.0183 16.1607 15.0703C16.1503 15.1222 16.1258 15.1701 16.0902 15.2085C15.4509 15.9827 15.1024 16.9672 15.1079 17.9832C15.0814 18.8073 15.1898 19.6302 15.4284 20.4174C15.9369 21.9947 17.0411 22.8981 18.5632 23.3319C19.053 23.4688 19.5527 23.5647 20.0575 23.6187C19.917 23.7611 19.7931 23.92 19.6883 24.0919C19.5452 24.3531 19.4529 24.6404 19.4166 24.9379C19.4167 24.9879 19.4006 25.0364 19.371 25.076C19.3414 25.1156 19.2998 25.1439 19.2529 25.1566C18.714 25.427 18.0947 25.4735 17.5234 25.2866C16.9521 25.0998 16.4726 24.6938 16.1842 24.1528C16.0302 23.8791 15.8219 23.6419 15.5728 23.4566C15.3237 23.2713 15.0395 23.142 14.7387 23.0774C14.545 23.0293 14.3419 23.0393 14.1535 23.106C13.9863 23.167 13.955 23.2781 14.063 23.4251C14.14 23.5313 14.2371 23.6204 14.3486 23.6868C14.9413 24.08 15.3965 24.6577 15.6478 25.3359C15.8238 25.8052 16.1327 26.2093 16.5346 26.4957C16.9364 26.7821 17.4127 26.9375 17.9014 26.9419C18.3784 26.978 18.858 26.9369 19.3226 26.82C19.3226 27.494 19.3226 28.254 19.3226 28.9064C19.3226 28.9064 19.3539 31 22.0325 31C24.711 31 24.7807 28.9064 24.7807 28.9064Z" fill="white"/>
<rect x="1" y="1" width="41.0469" height="41.0469" rx="7.90625" stroke="url(#paint0_linear_2112_3039)" stroke-width="2"/>
<defs>
<linearGradient id="paint0_linear_2112_3039" x1="21.5234" y1="4.05243e-06" x2="22.9776" y2="43.0085" gradientUnits="userSpaceOnUse">
<stop stop-color="#FF740F" stop-opacity="0.980392"/>
<stop offset="0.5" stop-color="#FFD500" stop-opacity="0.22"/>
</linearGradient>
</defs>
</svg>
