<svg width="164" height="48" viewBox="0 0 164 48" fill="none" xmlns="http://www.w3.org/2000/svg">
<g clip-path="url(#clip0_670_7077)">
<rect width="164" height="48" rx="5" fill="#F5F5F5"/>
<path fill-rule="evenodd" clip-rule="evenodd" d="M8.43539 12.3801C8.15866 12.6823 8 13.1477 8 13.7525V35.2608C8 35.8657 8.15866 36.3311 8.44584 36.6226L8.52087 36.687L20.3686 24.6355V24.3647L8.51041 12.3157L8.43539 12.3801Z" fill="url(#paint0_linear_670_7077)"/>
<path fill-rule="evenodd" clip-rule="evenodd" d="M24.3101 28.6681L20.3584 24.6472V24.3657L24.3113 20.3448L24.3968 20.3986L29.0723 23.1015C30.4111 23.869 30.4111 25.1338 29.0723 25.912L24.3968 28.6149C24.3956 28.6143 24.3101 28.6681 24.3101 28.6681Z" fill="url(#paint1_linear_670_7077)"/>
<path fill-rule="evenodd" clip-rule="evenodd" d="M24.3955 28.6148L20.3583 24.507L8.43555 36.6348C8.87094 37.1108 9.60397 37.1646 10.4231 36.6992L24.3955 28.6148Z" fill="url(#paint2_linear_670_7077)"/>
<path fill-rule="evenodd" clip-rule="evenodd" d="M24.3955 20.4002L10.4231 12.3264C9.6052 11.8504 8.87094 11.9148 8.43555 12.3909L20.3571 24.5068L24.3955 20.4002Z" fill="url(#paint3_linear_670_7077)"/>
<path d="M46.2358 12.749V11.9092L49.2681 11.9043V14.5605C48.8026 14.9316 48.3224 15.2116 47.8276 15.4004C47.3328 15.5859 46.825 15.6787 46.3042 15.6787C45.6011 15.6787 44.9614 15.529 44.3853 15.2295C43.8123 14.9268 43.3794 14.4906 43.0864 13.9209C42.7935 13.3512 42.647 12.7148 42.647 12.0117C42.647 11.3151 42.7918 10.6657 43.0815 10.0635C43.3745 9.45801 43.7944 9.00879 44.3413 8.71582C44.8882 8.42285 45.5181 8.27637 46.231 8.27637C46.7485 8.27637 47.2157 8.361 47.6323 8.53027C48.0522 8.69629 48.381 8.92904 48.6187 9.22852C48.8563 9.52799 49.0369 9.91862 49.1606 10.4004L48.3062 10.6348C48.1987 10.2702 48.0653 9.98372 47.9058 9.77539C47.7463 9.56706 47.5184 9.40104 47.2222 9.27734C46.9259 9.15039 46.5972 9.08691 46.2358 9.08691C45.8029 9.08691 45.4285 9.15365 45.1128 9.28711C44.797 9.41732 44.5415 9.58984 44.3462 9.80469C44.1541 10.0195 44.0044 10.2555 43.897 10.5127C43.7147 10.9554 43.6235 11.4355 43.6235 11.9531C43.6235 12.5911 43.7326 13.125 43.9507 13.5547C44.172 13.9844 44.4927 14.3034 44.9126 14.5117C45.3325 14.7201 45.7785 14.8242 46.2505 14.8242C46.6606 14.8242 47.061 14.7461 47.4517 14.5898C47.8423 14.4303 48.1385 14.2611 48.3403 14.082V12.749H46.2358ZM50.689 15.5566V8.39844H55.8647V9.24316H51.6362V11.4355H55.5962V12.2754H51.6362V14.7119H56.0308V15.5566H50.689ZM59.1606 15.5566V9.24316H56.8022V8.39844H62.4761V9.24316H60.1079V15.5566H59.1606ZM66.2114 15.5566V8.39844H67.1587V15.5566H66.2114ZM70.6548 15.5566V9.24316H68.2964V8.39844H73.9702V9.24316H71.6021V15.5566H70.6548ZM77.2563 12.0703C77.2563 10.8822 77.5754 9.9528 78.2134 9.28223C78.8514 8.6084 79.675 8.27148 80.6841 8.27148C81.3449 8.27148 81.9406 8.42936 82.4712 8.74512C83.0018 9.06087 83.4054 9.50195 83.6821 10.0684C83.9621 10.6315 84.1021 11.2712 84.1021 11.9873C84.1021 12.7132 83.9556 13.3626 83.6626 13.9355C83.3696 14.5085 82.9546 14.943 82.4175 15.2393C81.8804 15.5322 81.3009 15.6787 80.6792 15.6787C80.0054 15.6787 79.4032 15.516 78.8726 15.1904C78.342 14.8649 77.9399 14.4206 77.6665 13.8574C77.3931 13.2943 77.2563 12.6986 77.2563 12.0703ZM78.2329 12.085C78.2329 12.9476 78.464 13.6279 78.9263 14.126C79.3918 14.6208 79.9744 14.8682 80.6743 14.8682C81.3872 14.8682 81.9731 14.6175 82.4321 14.1162C82.8944 13.6149 83.1255 12.9036 83.1255 11.9824C83.1255 11.3997 83.0262 10.8919 82.8276 10.459C82.6323 10.0228 82.3442 9.68587 81.9634 9.44824C81.5858 9.20736 81.161 9.08691 80.689 9.08691C80.0184 9.08691 79.4406 9.31803 78.9556 9.78027C78.4738 10.2393 78.2329 11.0075 78.2329 12.085ZM85.3179 15.5566V8.39844H86.2896L90.0493 14.0186V8.39844H90.9575V15.5566H89.9858L86.2261 9.93164V15.5566H85.3179Z" fill="#0E0E0E"/>
<path d="M49.3027 29.981V27.8813L56.8833 27.8691V34.5098C55.7196 35.4375 54.5192 36.1374 53.2822 36.6094C52.0452 37.0732 50.7757 37.3052 49.4736 37.3052C47.7158 37.3052 46.1167 36.9308 44.6763 36.1821C43.244 35.4253 42.1616 34.3348 41.4292 32.9106C40.6968 31.4865 40.3306 29.8955 40.3306 28.1377C40.3306 26.3962 40.6927 24.7726 41.417 23.2671C42.1494 21.7534 43.1992 20.6304 44.5664 19.8979C45.9336 19.1655 47.5083 18.7993 49.2905 18.7993C50.5845 18.7993 51.7523 19.0109 52.7939 19.4341C53.8438 19.8491 54.6657 20.431 55.2598 21.1797C55.8538 21.9284 56.3055 22.9049 56.6147 24.1094L54.4785 24.6953C54.21 23.7839 53.8763 23.0677 53.4775 22.5469C53.0788 22.026 52.5091 21.611 51.7686 21.3018C51.028 20.9844 50.2061 20.8257 49.3027 20.8257C48.2204 20.8257 47.2845 20.9925 46.4951 21.3262C45.7057 21.6517 45.0669 22.083 44.5786 22.6201C44.0985 23.1572 43.7241 23.7472 43.4556 24.3901C42.9998 25.4969 42.772 26.6973 42.772 27.9912C42.772 29.5863 43.0446 30.9209 43.5898 31.9951C44.1432 33.0693 44.9448 33.8669 45.9946 34.3877C47.0444 34.9085 48.1593 35.1689 49.3394 35.1689C50.3647 35.1689 51.3657 34.9736 52.3423 34.583C53.3188 34.1842 54.0594 33.7611 54.564 33.3135V29.981H49.3027ZM57.7881 30.5181C57.7881 28.1174 58.4554 26.3392 59.79 25.1836C60.9049 24.2233 62.264 23.7432 63.8672 23.7432C65.6494 23.7432 67.1061 24.3291 68.2373 25.501C69.3685 26.6647 69.9341 28.276 69.9341 30.335C69.9341 32.0033 69.6818 33.3175 69.1772 34.2778C68.6808 35.23 67.9525 35.9705 66.9922 36.4995C66.04 37.0285 64.9984 37.293 63.8672 37.293C62.0524 37.293 60.5835 36.7111 59.4604 35.5474C58.3455 34.3836 57.7881 32.7072 57.7881 30.5181ZM60.0464 30.5181C60.0464 32.1782 60.4085 33.4233 61.1328 34.2534C61.8571 35.0754 62.7686 35.4863 63.8672 35.4863C64.9577 35.4863 65.8651 35.0713 66.5894 34.2412C67.3136 33.4111 67.6758 32.1457 67.6758 30.4448C67.6758 28.8416 67.3096 27.6291 66.5771 26.8071C65.8529 25.9771 64.9495 25.562 63.8672 25.562C62.7686 25.562 61.8571 25.973 61.1328 26.7949C60.4085 27.6169 60.0464 28.8579 60.0464 30.5181ZM70.2041 30.5181C70.2041 28.1174 70.8714 26.3392 72.2061 25.1836C73.321 24.2233 74.68 23.7432 76.2832 23.7432C78.0654 23.7432 79.5221 24.3291 80.6533 25.501C81.7845 26.6647 82.3501 28.276 82.3501 30.335C82.3501 32.0033 82.0978 33.3175 81.5933 34.2778C81.0968 35.23 80.3685 35.9705 79.4082 36.4995C78.4561 37.0285 77.4144 37.293 76.2832 37.293C74.4684 37.293 72.9995 36.7111 71.8765 35.5474C70.7616 34.3836 70.2041 32.7072 70.2041 30.5181ZM72.4624 30.5181C72.4624 32.1782 72.8245 33.4233 73.5488 34.2534C74.2731 35.0754 75.1846 35.4863 76.2832 35.4863C77.3737 35.4863 78.2811 35.0713 79.0054 34.2412C79.7297 33.4111 80.0918 32.1457 80.0918 30.4448C80.0918 28.8416 79.7256 27.6291 78.9932 26.8071C78.2689 25.9771 77.3656 25.562 76.2832 25.562C75.1846 25.562 74.2731 25.973 73.5488 26.7949C72.8245 27.6169 72.4624 28.8579 72.4624 30.5181ZM83.0352 38.0742L85.1714 38.3916C85.2609 39.0508 85.5091 39.5309 85.916 39.832C86.4613 40.2389 87.2059 40.4424 88.1499 40.4424C89.1672 40.4424 89.9525 40.2389 90.5059 39.832C91.0592 39.4251 91.4336 38.8555 91.6289 38.123C91.7428 37.6755 91.7957 36.7355 91.7876 35.3032C90.8273 36.4344 89.631 37 88.1987 37C86.4165 37 85.0371 36.3571 84.0605 35.0713C83.084 33.7855 82.5957 32.2433 82.5957 30.4448C82.5957 29.2078 82.8195 28.0685 83.2671 27.0269C83.7147 25.9771 84.3617 25.1673 85.208 24.5977C86.0625 24.028 87.0635 23.7432 88.2109 23.7432C89.7409 23.7432 91.0023 24.3617 91.9951 25.5986V24.0361H94.0215V35.2422C94.0215 37.2604 93.814 38.6886 93.3989 39.5269C92.992 40.3732 92.341 41.0405 91.4458 41.5288C90.5588 42.0171 89.4642 42.2612 88.1621 42.2612C86.6159 42.2612 85.3667 41.9113 84.4146 41.2114C83.4624 40.5197 83.0026 39.474 83.0352 38.0742ZM84.854 30.2861C84.854 31.987 85.1917 33.228 85.8672 34.0093C86.5426 34.7905 87.389 35.1812 88.4062 35.1812C89.4154 35.1812 90.2617 34.7946 90.9453 34.0215C91.6289 33.2402 91.9707 32.0195 91.9707 30.3594C91.9707 28.7725 91.6167 27.5762 90.9087 26.7705C90.2088 25.9648 89.3625 25.562 88.3696 25.562C87.3931 25.562 86.563 25.9608 85.8794 26.7583C85.1958 27.5477 84.854 28.7236 84.854 30.2861ZM95.8052 37V19.1045H98.0024V37H95.8052ZM108.795 32.8252L111.065 33.106C110.707 34.4325 110.044 35.4619 109.076 36.1943C108.107 36.9268 106.87 37.293 105.365 37.293C103.469 37.293 101.963 36.7111 100.848 35.5474C99.7414 34.3755 99.188 32.7357 99.188 30.6279C99.188 28.4469 99.7495 26.7542 100.873 25.5498C101.996 24.3454 103.452 23.7432 105.243 23.7432C106.976 23.7432 108.392 24.3332 109.491 25.5132C110.589 26.6932 111.139 28.3534 111.139 30.4937C111.139 30.6239 111.135 30.8192 111.126 31.0796H101.458C101.54 32.5037 101.943 33.5942 102.667 34.3511C103.391 35.1079 104.295 35.4863 105.377 35.4863C106.183 35.4863 106.87 35.2747 107.44 34.8516C108.01 34.4284 108.461 33.7529 108.795 32.8252ZM101.581 29.2729H108.819C108.722 28.1825 108.445 27.3646 107.989 26.8193C107.289 25.973 106.382 25.5498 105.267 25.5498C104.258 25.5498 103.408 25.8875 102.716 26.563C102.032 27.2384 101.654 28.1418 101.581 29.2729ZM118.075 37V19.1045H124.826C126.014 19.1045 126.921 19.1615 127.548 19.2754C128.427 19.4219 129.163 19.7026 129.757 20.1177C130.351 20.5246 130.827 21.0983 131.186 21.8389C131.552 22.5794 131.735 23.3932 131.735 24.2803C131.735 25.8021 131.251 27.092 130.282 28.1499C129.314 29.1997 127.564 29.7246 125.033 29.7246H120.443V37H118.075ZM120.443 27.6128H125.07C126.6 27.6128 127.686 27.328 128.329 26.7583C128.972 26.1886 129.293 25.387 129.293 24.3535C129.293 23.6048 129.102 22.966 128.72 22.437C128.345 21.8999 127.849 21.5459 127.23 21.375C126.832 21.2692 126.095 21.2163 125.021 21.2163H120.443V27.6128ZM132.92 37V19.1045H135.118V37H132.92ZM145.495 35.4009C144.681 36.0926 143.896 36.5809 143.139 36.8657C142.39 37.1506 141.585 37.293 140.722 37.293C139.298 37.293 138.203 36.9471 137.438 36.2554C136.674 35.5555 136.291 34.6644 136.291 33.582C136.291 32.9473 136.433 32.3695 136.718 31.8486C137.011 31.3197 137.39 30.8965 137.854 30.5791C138.326 30.2617 138.854 30.0216 139.44 29.8589C139.872 29.745 140.523 29.6351 141.394 29.5293C143.168 29.3177 144.474 29.0654 145.312 28.7725C145.32 28.4714 145.324 28.2801 145.324 28.1987C145.324 27.3035 145.117 26.6729 144.702 26.3066C144.14 25.8102 143.306 25.562 142.199 25.562C141.166 25.562 140.401 25.7451 139.904 26.1113C139.416 26.4694 139.054 27.1082 138.818 28.0278L136.669 27.7349C136.865 26.8153 137.186 26.0747 137.634 25.5132C138.081 24.9435 138.728 24.5081 139.575 24.207C140.421 23.8978 141.402 23.7432 142.517 23.7432C143.623 23.7432 144.523 23.8734 145.214 24.1338C145.906 24.3942 146.415 24.7238 146.74 25.1226C147.066 25.5132 147.294 26.0096 147.424 26.6118C147.497 26.9862 147.534 27.6616 147.534 28.6382V31.5679C147.534 33.6105 147.578 34.9045 147.668 35.4497C147.766 35.9868 147.953 36.5036 148.229 37H145.935C145.707 36.5443 145.56 36.0112 145.495 35.4009ZM145.312 30.4937C144.514 30.8192 143.318 31.0959 141.723 31.3237C140.82 31.4539 140.181 31.6004 139.807 31.7632C139.432 31.9259 139.143 32.166 138.94 32.4834C138.736 32.7926 138.635 33.1385 138.635 33.521C138.635 34.1069 138.854 34.5952 139.294 34.9858C139.742 35.3765 140.393 35.5718 141.247 35.5718C142.093 35.5718 142.846 35.3887 143.505 35.0225C144.165 34.6481 144.649 34.1395 144.958 33.4966C145.194 33.0002 145.312 32.2677 145.312 31.2993V30.4937ZM149.354 41.9927L149.11 39.9297C149.59 40.0599 150.009 40.125 150.367 40.125C150.855 40.125 151.246 40.0436 151.539 39.8809C151.832 39.7181 152.072 39.4902 152.259 39.1973C152.398 38.9775 152.621 38.4323 152.931 37.5615C152.971 37.4395 153.036 37.2604 153.126 37.0244L148.207 24.0361H150.575L153.272 31.5435C153.622 32.4956 153.936 33.4966 154.212 34.5464C154.465 33.5373 154.766 32.5526 155.116 31.5923L157.887 24.0361H160.084L155.152 37.2197C154.623 38.6439 154.212 39.6245 153.919 40.1616C153.529 40.8859 153.081 41.4149 152.577 41.7485C152.072 42.0903 151.47 42.2612 150.77 42.2612C150.347 42.2612 149.875 42.1717 149.354 41.9927Z" fill="#0E0E0E"/>
</g>
<defs>
<linearGradient id="paint0_linear_670_7077" x1="27.4271" y1="5.24805" x2="1.80219" y2="11.9652" gradientUnits="userSpaceOnUse">
<stop stop-color="#047ED6"/>
<stop offset="1" stop-color="#50E6FF"/>
</linearGradient>
<linearGradient id="paint1_linear_670_7077" x1="30.816" y1="24.5055" x2="17.5608" y2="24.5055" gradientUnits="userSpaceOnUse">
<stop stop-color="#FFDA1C"/>
<stop offset="1" stop-color="#FEB705"/>
</linearGradient>
<linearGradient id="paint2_linear_670_7077" x1="22.1968" y1="26.7392" x2="6.57651" y2="52.5893" gradientUnits="userSpaceOnUse">
<stop stop-color="#D9414F"/>
<stop offset="1" stop-color="#8C193F"/>
</linearGradient>
<linearGradient id="paint3_linear_670_7077" x1="5.43225" y1="5.2233" x2="12.4007" y2="16.7697" gradientUnits="userSpaceOnUse">
<stop stop-color="#33C481"/>
<stop offset="1" stop-color="#61E3A7"/>
</linearGradient>
<clipPath id="clip0_670_7077">
<rect width="164" height="48" fill="white"/>
</clipPath>
</defs>
</svg>
