<svg width="44" height="44" viewBox="0 0 44 44" fill="none" xmlns="http://www.w3.org/2000/svg">
<g id="instagram">
<rect x="1.04688" y="1.08594" width="41.0469" height="41.0469" rx="7.90625" fill="#232323"/>
<path id="Shape" fill-rule="evenodd" clip-rule="evenodd" d="M21.4228 11.9609C18.8427 11.9609 18.5189 11.9722 17.5056 12.0183C16.4942 12.0646 15.8039 12.2248 15.1998 12.4597C14.575 12.7023 14.0449 13.0269 13.5169 13.5552C12.9885 14.0832 12.6639 14.6132 12.4204 15.2379C12.1849 15.8421 12.0246 16.5327 11.9791 17.5436C11.9338 18.557 11.9219 18.881 11.9219 21.461C11.9219 24.0411 11.9334 24.3639 11.9793 25.3773C12.0258 26.3886 12.1859 27.079 12.4206 27.683C12.6635 28.3078 12.9881 28.8379 13.5163 29.3659C14.0442 29.8944 14.5742 30.2197 15.1986 30.4624C15.8031 30.6973 16.4936 30.8574 17.5048 30.9037C18.5181 30.9499 18.8417 30.9611 21.4216 30.9611C24.0018 30.9611 24.3246 30.9499 25.338 30.9037C26.3494 30.8574 27.0405 30.6973 27.6449 30.4624C28.2696 30.2197 28.7988 29.8944 29.3266 29.3659C29.8551 28.8379 30.1797 28.3078 30.4231 27.6832C30.6567 27.079 30.817 26.3884 30.8645 25.3775C30.91 24.3641 30.9219 24.0411 30.9219 21.461C30.9219 18.881 30.91 18.5572 30.8645 17.5438C30.817 16.5325 30.6567 15.8421 30.4231 15.2381C30.1797 14.6132 29.8551 14.0832 29.3266 13.5552C28.7982 13.0267 28.2698 12.7021 27.6443 12.4597C27.0387 12.2248 26.348 12.0646 25.3366 12.0183C24.3233 11.9722 24.0007 11.9609 21.4198 11.9609H21.4228ZM20.5705 13.6723C20.736 13.672 20.914 13.6721 21.1061 13.6722L21.4227 13.6723C23.9593 13.6723 24.2599 13.6814 25.2616 13.7269C26.1878 13.7693 26.6906 13.924 27.0254 14.0541C27.4688 14.2263 27.7848 14.4321 28.1171 14.7646C28.4497 15.0971 28.6555 15.4138 28.8281 15.8571C28.9581 16.1916 29.1131 16.6943 29.1552 17.6206C29.2008 18.622 29.2106 18.9229 29.2106 21.4582C29.2106 23.9936 29.2008 24.2944 29.1552 25.2959C29.1129 26.2221 28.9581 26.7248 28.8281 27.0593C28.6559 27.5027 28.4497 27.8183 28.1171 28.1506C27.7846 28.4831 27.469 28.689 27.0254 28.8612C26.6909 28.9918 26.1878 29.1462 25.2616 29.1885C24.2601 29.2341 23.9593 29.2439 21.4227 29.2439C18.886 29.2439 18.5854 29.2341 17.5839 29.1885C16.6577 29.1458 16.1549 28.991 15.8199 28.861C15.3765 28.6888 15.0599 28.483 14.7274 28.1504C14.3948 27.8179 14.189 27.5021 14.0164 27.0585C13.8864 26.724 13.7314 26.2213 13.6893 25.2951C13.6437 24.2936 13.6346 23.9928 13.6346 21.4558C13.6346 18.9189 13.6437 18.6197 13.6893 17.6182C13.7316 16.6919 13.8864 16.1892 14.0164 15.8544C14.1886 15.411 14.3948 15.0943 14.7274 14.7618C15.0599 14.4293 15.3765 14.2235 15.8199 14.0509C16.1547 13.9203 16.6577 13.7659 17.5839 13.7234C18.4603 13.6838 18.7999 13.6719 20.5705 13.6699V13.6723ZM25.3538 16.3901C25.3538 15.7605 25.8645 15.2504 26.4938 15.2504V15.25C27.1232 15.25 27.6338 15.7607 27.6338 16.3901C27.6338 17.0194 27.1232 17.5301 26.4938 17.5301C25.8645 17.5301 25.3538 17.0194 25.3538 16.3901ZM21.4226 16.5822C18.7284 16.5823 16.5441 18.7667 16.5441 21.4609C16.5441 24.1552 18.7285 26.3386 21.4228 26.3386C24.117 26.3386 26.3007 24.1552 26.3007 21.4609C26.3007 18.7666 24.1168 16.5822 21.4226 16.5822ZM24.5895 21.4616C24.5895 19.7126 23.1716 18.2949 21.4228 18.2949C19.6738 18.2949 18.2561 19.7126 18.2561 21.4616C18.2561 23.2104 19.6738 24.6283 21.4228 24.6283C23.1716 24.6283 24.5895 23.2104 24.5895 21.4616Z" fill="white"/>
<rect x="1.04688" y="1.08594" width="41.0469" height="41.0469" rx="7.90625" stroke="url(#paint0_linear_1132_3138)" stroke-width="2"/>
</g>
<defs>
<linearGradient id="paint0_linear_1132_3138" x1="21.5703" y1="0.0859416" x2="23.0244" y2="43.0945" gradientUnits="userSpaceOnUse">
<stop stop-color="#FF740F" stop-opacity="0.980392"/>
<stop offset="0.5" stop-color="#FFD500" stop-opacity="0.22"/>
</linearGradient>
</defs>
</svg>
