<svg width="48" height="19" viewBox="0 0 48 19" fill="none" xmlns="http://www.w3.org/2000/svg">
<mask id="mask0_1022_376" style="mask-type:alpha" maskUnits="userSpaceOnUse" x="0" y="0" width="19" height="19">
<rect width="19" height="19" fill="#D9D9D9"/>
</mask>
<g mask="url(#mask0_1022_376)">
<path d="M9.49992 17.4168C8.41797 17.4168 7.3954 17.209 6.43221 16.7934C5.46902 16.3778 4.62787 15.8104 3.90877 15.0913C3.18968 14.3722 2.62231 13.5311 2.20669 12.5679C1.79106 11.6047 1.58325 10.5821 1.58325 9.50016C1.58325 8.40502 1.79106 7.37916 2.20669 6.42256C2.62231 5.46596 3.18968 4.62811 3.90877 3.90902C4.62787 3.18992 5.46902 2.62256 6.43221 2.20693C7.3954 1.79131 8.41797 1.5835 9.49992 1.5835C10.5951 1.5835 11.6209 1.79131 12.5775 2.20693C13.5341 2.62256 14.372 3.18992 15.0911 3.90902C15.8102 4.62811 16.3775 5.46596 16.7931 6.42256C17.2088 7.37916 17.4166 8.40502 17.4166 9.50016C17.4166 10.5821 17.2088 11.6047 16.7931 12.5679C16.3775 13.5311 15.8102 14.3722 15.0911 15.0913C14.372 15.8104 13.5341 16.3778 12.5775 16.7934C11.6209 17.209 10.5951 17.4168 9.49992 17.4168ZM9.49992 15.7939C9.84297 15.3189 10.1398 14.8241 10.3905 14.3095C10.6412 13.795 10.8458 13.2474 11.0041 12.6668H7.99575C8.15409 13.2474 8.3586 13.795 8.60929 14.3095C8.85999 14.8241 9.15686 15.3189 9.49992 15.7939ZM7.44159 15.4772C7.20408 15.0418 6.99627 14.5899 6.81815 14.1215C6.64002 13.6531 6.49159 13.1682 6.37284 12.6668H4.03742C4.42006 13.3266 4.89836 13.9005 5.47231 14.3887C6.04627 14.8769 6.7027 15.2397 7.44159 15.4772ZM11.5583 15.4772C12.2971 15.2397 12.9536 14.8769 13.5275 14.3887C14.1015 13.9005 14.5798 13.3266 14.9624 12.6668H12.627C12.5083 13.1682 12.3598 13.6531 12.1817 14.1215C12.0036 14.5899 11.7958 15.0418 11.5583 15.4772ZM3.3645 11.0835H6.05617C6.01659 10.8196 5.9869 10.559 5.96711 10.3017C5.94731 10.0444 5.93742 9.77725 5.93742 9.50016C5.93742 9.22308 5.94731 8.95589 5.96711 8.6986C5.9869 8.44131 6.01659 8.18072 6.05617 7.91683H3.3645C3.29853 8.18072 3.24905 8.44131 3.21606 8.6986C3.18308 8.95589 3.16659 9.22308 3.16659 9.50016C3.16659 9.77725 3.18308 10.0444 3.21606 10.3017C3.24905 10.559 3.29853 10.8196 3.3645 11.0835ZM7.6395 11.0835H11.3603C11.3999 10.8196 11.4296 10.559 11.4494 10.3017C11.4692 10.0444 11.4791 9.77725 11.4791 9.50016C11.4791 9.22308 11.4692 8.95589 11.4494 8.6986C11.4296 8.44131 11.3999 8.18072 11.3603 7.91683H7.6395C7.59992 8.18072 7.57023 8.44131 7.55044 8.6986C7.53065 8.95589 7.52075 9.22308 7.52075 9.50016C7.52075 9.77725 7.53065 10.0444 7.55044 10.3017C7.57023 10.559 7.59992 10.8196 7.6395 11.0835ZM12.9437 11.0835H15.6353C15.7013 10.8196 15.7508 10.559 15.7838 10.3017C15.8168 10.0444 15.8333 9.77725 15.8333 9.50016C15.8333 9.22308 15.8168 8.95589 15.7838 8.6986C15.7508 8.44131 15.7013 8.18072 15.6353 7.91683H12.9437C12.9833 8.18072 13.0129 8.44131 13.0327 8.6986C13.0525 8.95589 13.0624 9.22308 13.0624 9.50016C13.0624 9.77725 13.0525 10.0444 13.0327 10.3017C13.0129 10.559 12.9833 10.8196 12.9437 11.0835ZM12.627 6.3335H14.9624C14.5798 5.67377 14.1015 5.09982 13.5275 4.61162C12.9536 4.12343 12.2971 3.76058 11.5583 3.52308C11.7958 3.9585 12.0036 4.41041 12.1817 4.87881C12.3598 5.34721 12.5083 5.83211 12.627 6.3335ZM7.99575 6.3335H11.0041C10.8458 5.75294 10.6412 5.20537 10.3905 4.69079C10.1398 4.1762 9.84297 3.68141 9.49992 3.20641C9.15686 3.68141 8.85999 4.1762 8.60929 4.69079C8.3586 5.20537 8.15409 5.75294 7.99575 6.3335ZM4.03742 6.3335H6.37284C6.49159 5.83211 6.64002 5.34721 6.81815 4.87881C6.99627 4.41041 7.20408 3.9585 7.44159 3.52308C6.7027 3.76058 6.04627 4.12343 5.47231 4.61162C4.89836 5.09982 4.42006 5.67377 4.03742 6.3335Z" fill="white"/>
</g>
<mask id="mask1_1022_376" style="mask-type:alpha" maskUnits="userSpaceOnUse" x="29" y="0" width="19" height="19">
<rect x="29" width="19" height="19" fill="#D9D9D9"/>
</mask>
<g mask="url(#mask1_1022_376)">
<path d="M38.5 12.1718L33.75 7.42181L34.8583 6.31348L38.5 9.95514L42.1417 6.31348L43.25 7.42181L38.5 12.1718Z" fill="white"/>
</g>
</svg>
