<svg width="44" height="44" viewBox="0 0 44 44" fill="none" xmlns="http://www.w3.org/2000/svg">
<g id="linkedin">
<rect x="1.90625" y="1.08594" width="41.0469" height="41.0469" rx="7.90625" fill="#232323"/>
<path id="Shape" fill-rule="evenodd" clip-rule="evenodd" d="M17.3225 14.7981C17.3225 15.9627 16.4459 16.8945 15.0384 16.8945H15.0126C13.6574 16.8945 12.7812 15.9627 12.7812 14.7981C12.7812 13.6089 13.6841 12.7031 15.065 12.7031C16.4459 12.7031 17.2963 13.6089 17.3225 14.7981ZM17.0567 18.5508V30.6794H13.02V18.5508H17.0567ZM31.6144 30.679L31.6146 23.7249C31.6146 19.9995 29.6231 18.2656 26.9668 18.2656C24.8236 18.2656 23.864 19.4428 23.3283 20.2687V18.5508H19.2911C19.3443 19.6888 19.2911 30.6794 19.2911 30.6794H23.3283V23.9057C23.3283 23.5433 23.3545 23.1817 23.4612 22.9221C23.7529 22.198 24.4172 21.4482 25.5324 21.4482C26.9937 21.4482 27.5779 22.5604 27.5779 24.1902V30.679H31.6144Z" fill="white"/>
<rect x="1.90625" y="1.08594" width="41.0469" height="41.0469" rx="7.90625" stroke="url(#paint0_linear_1132_3131)" stroke-width="2"/>
</g>
<defs>
<linearGradient id="paint0_linear_1132_3131" x1="22.4297" y1="0.0859416" x2="23.8838" y2="43.0945" gradientUnits="userSpaceOnUse">
<stop stop-color="#FF740F" stop-opacity="0.980392"/>
<stop offset="0.5" stop-color="#FFD500" stop-opacity="0.22"/>
</linearGradient>
</defs>
</svg>
