<svg width="32" height="32" viewBox="0 0 32 32" fill="none" xmlns="http://www.w3.org/2000/svg">
<mask id="mask0_2112_3083" style="mask-type:alpha" maskUnits="userSpaceOnUse" x="0" y="0" width="32" height="32">
<rect width="32" height="32" fill="#D9D9D9"/>
</mask>
<g mask="url(#mask0_2112_3083)">
<path d="M5.33335 26.6673C4.60002 26.6673 3.97224 26.4062 3.45002 25.884C2.9278 25.3618 2.66669 24.734 2.66669 24.0007V8.00065C2.66669 7.26732 2.9278 6.63954 3.45002 6.11732C3.97224 5.5951 4.60002 5.33398 5.33335 5.33398H26.6667C27.4 5.33398 28.0278 5.5951 28.55 6.11732C29.0722 6.63954 29.3334 7.26732 29.3334 8.00065V24.0007C29.3334 24.734 29.0722 25.3618 28.55 25.884C28.0278 26.4062 27.4 26.6673 26.6667 26.6673H5.33335ZM16 17.334L26.6667 10.6673V8.00065L16 14.6673L5.33335 8.00065V10.6673L16 17.334Z" fill="#FFA80F" fill-opacity="0.980392"/>
</g>
</svg>
