<svg width="22" height="22" viewBox="0 0 22 22" fill="none" xmlns="http://www.w3.org/2000/svg">
<mask id="mask0_2112_3057" style="mask-type:alpha" maskUnits="userSpaceOnUse" x="0" y="0" width="22" height="22">
<rect width="22" height="22" fill="#D9D9D9"/>
</mask>
<g mask="url(#mask0_2112_3057)">
<path d="M3.66665 18.3327C3.16248 18.3327 2.73088 18.1532 2.37185 17.7941C2.01283 17.4351 1.83331 17.0035 1.83331 16.4993V5.49935C1.83331 4.99518 2.01283 4.56359 2.37185 4.20456C2.73088 3.84553 3.16248 3.66602 3.66665 3.66602H18.3333C18.8375 3.66602 19.2691 3.84553 19.6281 4.20456C19.9871 4.56359 20.1666 4.99518 20.1666 5.49935V16.4993C20.1666 17.0035 19.9871 17.4351 19.6281 17.7941C19.2691 18.1532 18.8375 18.3327 18.3333 18.3327H3.66665ZM11 11.916L18.3333 7.33268V5.49935L11 10.0827L3.66665 5.49935V7.33268L11 11.916Z" fill="#FAFAFA"/>
</g>
</svg>
