<svg width="44" height="44" viewBox="0 0 44 44" fill="none" xmlns="http://www.w3.org/2000/svg">
<rect x="1" y="1" width="41.0469" height="41.0469" rx="7.90625" fill="#232323"/>
<path d="M28.6339 15.705C28.486 15.6283 28.3419 15.5441 28.2023 15.4529C27.7965 15.1837 27.4243 14.8664 27.094 14.5079C26.2674 13.5587 25.9586 12.5958 25.8449 11.9217H25.8495C25.7545 11.3621 25.7938 11 25.7997 11H22.0348V25.61C22.0348 25.8062 22.0348 26 22.0266 26.1916C22.0266 26.2154 22.0243 26.2374 22.0229 26.2631C22.0229 26.2737 22.0229 26.2847 22.0206 26.2957V26.3039C21.981 26.8281 21.8135 27.3345 21.533 27.7785C21.2526 28.2225 20.8677 28.5906 20.4122 28.8503C19.9375 29.1213 19.4006 29.2635 18.8544 29.2628C17.1003 29.2628 15.6787 27.8273 15.6787 26.0546C15.6787 24.2818 17.1003 22.8464 18.8544 22.8464C19.1865 22.8461 19.5165 22.8985 19.8322 23.0018L19.8368 19.1547C18.8784 19.0305 17.9047 19.1069 16.9772 19.3792C16.0497 19.6515 15.1885 20.1138 14.4479 20.7368C13.799 21.3026 13.2534 21.9778 12.8358 22.7318C12.6769 23.0068 12.0772 24.1118 12.0046 25.9052C11.9589 26.9231 12.2636 27.9777 12.4088 28.4135V28.4227C12.5001 28.6793 12.8541 29.5552 13.4308 30.2935C13.896 30.8858 14.4455 31.406 15.0617 31.8375V31.8284L15.0708 31.8375C16.8934 33.0805 18.9143 32.9989 18.9143 32.9989C19.2641 32.9847 20.4359 32.9989 21.7667 32.366C23.2427 31.6643 24.083 30.6189 24.083 30.6189C24.6199 29.9943 25.0467 29.2824 25.3453 28.5139C25.686 27.6151 25.7997 26.5372 25.7997 26.1064V18.3554C25.8454 18.3829 26.4537 18.7867 26.4537 18.7867C26.4537 18.7867 27.3301 19.3504 28.6974 19.7175C29.6784 19.9788 31 20.0338 31 20.0338V16.2829C30.5369 16.3334 29.5966 16.1867 28.6339 15.705Z" fill="white"/>
<rect x="1" y="1" width="41.0469" height="41.0469" rx="7.90625" stroke="url(#paint0_linear_467_1648)" stroke-width="2"/>
<defs>
<linearGradient id="paint0_linear_467_1648" x1="21.5234" y1="4.05243e-06" x2="22.9776" y2="43.0085" gradientUnits="userSpaceOnUse">
<stop stop-color="#FF740F" stop-opacity="0.980392"/>
<stop offset="0.5" stop-color="#FFD500" stop-opacity="0.22"/>
</linearGradient>
</defs>
</svg>
