<svg width="44" height="44" viewBox="0 0 44 44" fill="none" xmlns="http://www.w3.org/2000/svg">
<rect x="1.01416" y="1" width="41.0469" height="41.0469" rx="7.90625" fill="#232323"/>
<path d="M21.0041 17.8923L21.0415 18.5086L20.4185 18.4332C18.1509 18.1439 16.1698 17.1627 14.4878 15.5149L13.6655 14.6973L13.4537 15.3011C13.0051 16.647 13.2917 18.0684 14.2262 19.0244C14.7245 19.5527 14.6124 19.6281 13.7527 19.3137C13.4537 19.213 13.192 19.1376 13.1671 19.1753C13.0799 19.2634 13.3789 20.408 13.6156 20.8608C13.9396 21.4898 14.5999 22.1061 15.3226 22.4709L15.9331 22.7602L15.2105 22.7728C14.5127 22.7728 14.4878 22.7854 14.5626 23.0495C14.8118 23.8671 15.7961 24.7351 16.8925 25.1124L17.665 25.3766L16.9922 25.7791C15.9954 26.3577 14.8242 26.6847 13.653 26.7099C13.0923 26.7225 12.6313 26.7728 12.6313 26.8105C12.6313 26.9363 14.1514 27.6407 15.036 27.9175C17.6899 28.7351 20.8421 28.3829 23.2094 26.9866C24.8915 25.9929 26.5735 24.0181 27.3584 22.1061C27.7821 21.0873 28.2057 19.2256 28.2057 18.3325C28.2057 17.7539 28.2431 17.6784 28.9408 16.9866C29.352 16.5841 29.7382 16.1439 29.813 16.0181C29.9376 15.7791 29.9251 15.7791 29.2897 15.9929C28.2306 16.3703 28.0811 16.32 28.6044 15.7539C28.9906 15.3514 29.4516 14.6218 29.4516 14.408C29.4516 14.3703 29.2647 14.4332 29.0529 14.5464C28.8287 14.6722 28.3303 14.8608 27.9565 14.974L27.2837 15.1879L26.6732 14.7728C26.3368 14.5464 25.8633 14.2948 25.6141 14.2193C24.9787 14.0432 24.0068 14.0684 23.4337 14.2696C21.8763 14.8357 20.892 16.2948 21.0041 17.8923Z" fill="white"/>
<rect x="1.01416" y="1" width="41.0469" height="41.0469" rx="7.90625" stroke="url(#paint0_linear_2515_2804)" stroke-width="2"/>
<defs>
<linearGradient id="paint0_linear_2515_2804" x1="21.5376" y1="4.05243e-06" x2="22.9917" y2="43.0085" gradientUnits="userSpaceOnUse">
<stop stop-color="#FF740F" stop-opacity="0.980392"/>
<stop offset="0.5" stop-color="#FFD500" stop-opacity="0.22"/>
</linearGradient>
</defs>
</svg>
