<svg width="86" height="36" viewBox="0 0 86 36" fill="none" xmlns="http://www.w3.org/2000/svg">
<path fill-rule="evenodd" clip-rule="evenodd" d="M11.4329 6.60427C13.0389 6.73975 14.6448 5.79144 15.6486 4.58912C16.6356 3.35294 17.288 1.6934 17.1207 0C15.6987 0.0677368 13.9422 0.948306 12.9385 2.18449C12.0184 3.25133 11.2321 4.97861 11.4329 6.60427ZM30.5373 28.4153V2.01514H40.3237C45.3758 2.01514 48.9056 5.53742 48.9056 10.6854C48.9056 15.8333 45.3089 19.3894 40.1899 19.3894H34.5857V28.4153H30.5373ZM17.1038 6.92601C15.689 6.84358 14.398 7.35672 13.3553 7.7712C12.6842 8.03792 12.116 8.26379 11.6837 8.26379C11.1985 8.26379 10.6068 8.02585 9.94248 7.75869C9.07197 7.40862 8.07672 7.0084 7.03305 7.02761C4.64082 7.06148 2.41588 8.43313 1.19467 10.6176C-1.31467 14.9866 0.542241 21.4554 2.96793 25.0115C4.15568 26.7727 5.57764 28.7032 7.45127 28.6354C8.27556 28.6039 8.8685 28.3492 9.48215 28.0857C10.1886 27.7822 10.9225 27.467 12.0684 27.467C13.1747 27.467 13.8765 27.774 14.5501 28.0687C15.1907 28.3489 15.8059 28.6181 16.7191 28.6016C18.6596 28.5677 19.8808 26.8404 21.0686 25.0793C22.3504 23.1891 22.9136 21.3444 22.9991 21.0644C23.004 21.0484 23.0073 21.0375 23.0091 21.032C23.0071 21.03 22.9913 21.0226 22.9633 21.0097C22.5348 20.8111 19.2598 19.2934 19.2284 15.2237C19.1969 11.8077 21.8261 10.077 22.2399 9.80451C22.2651 9.78793 22.2821 9.77675 22.2898 9.77092C20.6169 7.26469 18.0072 6.99374 17.1038 6.92601ZM56.2999 28.6185C58.8427 28.6185 61.2015 27.3146 62.2722 25.2486H62.3558V28.4153H66.1031V15.2745C66.1031 11.4643 63.0919 9.0089 58.458 9.0089C54.1586 9.0089 50.9802 11.4982 50.8631 14.9189H54.51C54.8111 13.2932 56.2999 12.2264 58.3409 12.2264C60.8167 12.2264 62.2052 13.3948 62.2052 15.5454V17.0018L57.1531 17.3066C52.4523 17.5944 49.9095 19.5419 49.9095 22.9287C49.9095 26.3493 52.5359 28.6185 56.2999 28.6185ZM57.3871 25.4857C55.229 25.4857 53.8573 24.4358 53.8573 22.8271C53.8573 21.1675 55.1789 20.2023 57.7049 20.0499L62.205 19.762V21.2522C62.205 23.7246 60.1306 25.4857 57.3871 25.4857ZM78.5325 29.4483C76.9098 34.0713 75.0529 35.5953 71.1049 35.5953C70.8037 35.5953 69.8 35.5615 69.5658 35.4937V32.3271C69.8167 32.3609 70.4357 32.3948 70.7535 32.3948C72.5435 32.3948 73.5473 31.6328 74.1662 29.6515L74.5343 28.483L67.6754 9.26293H71.9078L76.6756 24.8592H76.7592L81.527 9.26293H85.6423L78.5325 29.4483ZM34.5853 5.46968H39.2527C42.7657 5.46968 44.7732 7.36629 44.7732 10.7023C44.7732 14.0383 42.7657 15.9518 39.236 15.9518H34.5853V5.46968Z" fill="#FAFAFA"/>
</svg>
