<svg width="205" height="205" viewBox="0 0 205 205" fill="none" xmlns="http://www.w3.org/2000/svg">
<g clip-path="url(#clip0_155_4499)">
<path d="M129.455 176.652C114.697 182.075 98.661 182.999 83.3767 179.309C68.0923 175.618 54.2456 167.478 43.5875 155.918C32.9293 144.358 25.9386 129.897 23.4992 114.363C21.0598 98.8302 23.2812 82.9224 29.8827 68.6517C36.4842 54.381 47.1692 42.3884 60.5866 34.1904C74.0039 25.9923 89.5509 21.9571 105.262 22.5949C120.972 23.2327 136.141 28.515 148.85 37.7737C161.558 47.0324 171.236 59.8518 176.659 74.6107C183.906 94.403 183.007 116.262 174.158 135.392C165.308 154.522 149.232 169.36 129.455 176.652ZM75.5029 29.8164C61.2205 35.0643 48.815 44.4295 39.8552 56.7278C30.8954 69.0261 25.7837 83.7051 25.1664 98.9086C24.5492 114.112 28.4542 129.157 36.3875 142.141C44.3209 155.126 55.9264 165.466 69.7363 171.854C83.5463 178.242 98.9406 180.392 113.972 178.031C129.004 175.671 142.998 168.906 154.185 158.592C165.372 148.278 173.249 134.878 176.821 120.087C180.392 105.296 179.498 89.7782 174.25 75.4958C167.193 56.3584 152.834 40.8013 134.322 32.2377C115.809 23.6741 94.6563 22.8034 75.5029 29.8164Z" fill="url(#paint0_linear_155_4499)"/>
<path d="M124.501 163.168C112.409 167.611 99.2709 168.368 86.7483 165.345C74.2257 162.321 62.881 155.652 54.1487 146.181C45.4165 136.709 39.6889 124.861 37.6902 112.135C35.6916 99.4083 37.5117 86.3749 42.9204 74.6828C48.329 62.9908 57.0833 53.1651 68.0762 46.4484C79.0691 39.7317 91.8069 36.4256 104.679 36.9482C117.551 37.4707 129.978 41.7985 140.391 49.3843C150.803 56.97 158.732 67.473 163.175 79.565C169.112 95.7811 168.375 113.69 161.125 129.363C153.874 145.036 140.703 157.193 124.501 163.168ZM80.4572 43.3001C68.8417 47.5681 58.7525 55.1846 51.4657 65.1866C44.1789 75.1885 40.0216 87.1267 39.5196 99.4913C39.0176 111.856 42.1934 124.092 48.6455 134.652C55.0975 145.211 64.536 153.621 75.7674 158.816C86.9988 164.012 99.5186 165.76 111.744 163.84C123.969 161.92 135.35 156.418 144.448 148.03C153.546 139.642 159.952 128.744 162.857 116.715C165.762 104.686 165.034 92.0658 160.766 80.4502C155.026 64.8867 143.348 52.2352 128.293 45.2707C113.237 38.3063 96.0344 37.5976 80.4572 43.3001Z" fill="url(#paint1_linear_155_4499)"/>
<path d="M104.138 143.692C100.494 145.027 96.5005 145.06 92.8345 143.787C89.1685 142.514 86.0557 140.012 84.0237 136.705C81.9917 133.399 81.1655 129.492 81.6853 125.646C82.2051 121.8 84.0388 118.252 86.8756 115.604C87.8569 114.742 88.8955 113.948 89.9843 113.227C93.6482 110.7 95.8266 108.97 94.4344 105.181C93.8981 103.934 92.9687 102.895 91.7877 102.225C90.6068 101.554 89.239 101.288 87.8927 101.466C86.7455 101.641 85.6147 101.91 84.5115 102.27C82.6664 102.929 80.7155 103.241 78.7571 103.19C75.4921 102.979 72.3563 101.835 69.7215 99.8955C67.0867 97.9558 65.0635 95.3012 63.8917 92.2464C62.3532 88.0593 62.5411 83.4326 64.4139 79.384C66.2868 75.3354 69.6912 72.1966 73.8783 70.6581C78.0654 69.1196 82.6921 69.3075 86.7407 71.1803C90.7893 73.0532 93.9281 76.4576 95.4666 80.6447C96.053 82.5245 96.2827 84.4974 96.1439 86.4617C96.0047 88.0967 96.1602 89.7435 96.603 91.3236C97.0525 92.5936 97.9253 93.6704 99.0748 94.3729C100.224 95.0755 101.581 95.3612 102.916 95.1819C104.251 95.0026 105.484 94.3694 106.407 93.3885C107.331 92.4076 107.889 91.1388 107.987 89.7952C107.967 89.7588 107.952 89.7193 107.944 89.6783C108.291 86.1609 109.736 82.8419 112.074 80.1918C114.413 77.5416 117.526 75.6948 120.973 74.9132C124.42 74.1315 128.025 74.4547 131.278 75.8369C134.531 77.2191 137.266 79.5902 139.096 82.614C140.926 85.6378 141.757 89.1609 141.473 92.6838C141.188 96.2066 139.802 99.5505 137.51 102.241C135.219 104.932 132.138 106.833 128.706 107.675C125.273 108.518 121.663 108.258 118.386 106.933C117.576 106.599 116.786 106.22 116.018 105.799C113.947 104.715 112.293 103.862 110.165 104.644C109.064 105.059 108.112 105.794 107.431 106.753C106.75 107.713 106.372 108.854 106.344 110.03C106.276 112.338 107.502 113.507 109.183 115.12C109.593 115.513 110.003 115.907 110.414 116.339C112.34 118.357 113.733 120.822 114.469 123.513C115.205 126.203 115.261 129.034 114.631 131.751C114 134.468 112.704 136.986 110.859 139.078C109.014 141.17 106.678 142.77 104.061 143.734L104.138 143.692Z" fill="url(#paint2_linear_155_4499)"/>
</g>
<defs>
<linearGradient id="paint0_linear_155_4499" x1="27.4145" y1="129.448" x2="176.659" y2="74.6107" gradientUnits="userSpaceOnUse">
<stop stop-color="#FFE666"/>
<stop offset="0.22" stop-color="#F59137"/>
<stop offset="0.41" stop-color="#FFE666"/>
<stop offset="0.61" stop-color="#F59137"/>
<stop offset="0.81" stop-color="#FFE666"/>
<stop offset="1" stop-color="#F59137"/>
</linearGradient>
<linearGradient id="paint1_linear_155_4499" x1="40.8981" y1="124.494" x2="163.175" y2="79.565" gradientUnits="userSpaceOnUse">
<stop stop-color="#FFE666"/>
<stop offset="0.22" stop-color="#F59137"/>
<stop offset="0.41" stop-color="#FFE666"/>
<stop offset="0.61" stop-color="#F59137"/>
<stop offset="0.81" stop-color="#FFE666"/>
<stop offset="1" stop-color="#F59137"/>
</linearGradient>
<linearGradient id="paint2_linear_155_4499" x1="81.8667" y1="130.943" x2="118.09" y2="56.2049" gradientUnits="userSpaceOnUse">
<stop stop-color="#FFE666"/>
<stop offset="0.22" stop-color="#F59137"/>
<stop offset="0.41" stop-color="#FFE666"/>
<stop offset="0.61" stop-color="#F59137"/>
<stop offset="0.81" stop-color="#FFE666"/>
<stop offset="1" stop-color="#F59137"/>
</linearGradient>
<clipPath id="clip0_155_4499">
<rect width="159" height="159" fill="white" transform="translate(0 54.8379) rotate(-20.1751)"/>
</clipPath>
</defs>
</svg>
