<svg width="92" height="26" viewBox="0 0 92 26" fill="none" xmlns="http://www.w3.org/2000/svg">
<path d="M20.4417 8.01889H14.1463C14.1463 6.98389 14.0254 6.29152 13.7834 5.94178C13.4072 5.41716 12.3732 5.15587 10.6814 5.1579C9.03641 5.1579 7.94855 5.30837 7.41783 5.60932C6.88711 5.91433 6.61871 6.56705 6.61871 7.57663C6.61871 8.49166 6.85661 9.10168 7.32633 9.38533C7.73836 9.61113 8.19864 9.73457 8.66837 9.74524L9.94026 9.83675C12.6609 10.0177 14.3598 10.1438 15.037 10.215C17.1944 10.4264 18.754 10.9988 19.7158 11.9322C20.4936 12.6848 20.9762 13.6911 21.0762 14.7687C21.1664 15.5544 21.2092 16.3448 21.2043 17.1356C21.2043 19.169 21.0111 20.6514 20.6247 21.5827C19.9232 23.3049 18.3473 24.3999 15.8971 24.8676C14.3398 25.102 12.7654 25.204 11.1908 25.1726C7.66489 25.1726 5.20855 24.9622 3.82177 24.5413C2.11982 24.0227 1.00145 22.9755 0.466664 21.3997C0.155555 20.5009 0 19.0297 0 16.9862H6.29539V17.5077C6.29539 18.5997 6.60854 19.3022 7.23482 19.6153C7.73139 19.8429 8.2716 19.9595 8.81782 19.957H11.1328C12.3122 19.957 13.0656 19.896 13.393 19.774C13.6535 19.6877 13.8913 19.544 14.0888 19.3534C14.2862 19.1628 14.4383 18.9302 14.5337 18.6729C14.6404 18.2753 14.6887 17.8643 14.6771 17.4528C14.6771 16.3467 14.2704 15.6726 13.457 15.4306C13.154 15.333 11.751 15.1998 9.24789 15.0311C7.23482 14.8887 5.83686 14.7504 5.05401 14.6162C2.99214 14.2401 1.61858 13.4501 0.933329 12.2463C0.32331 11.2296 0.0183006 9.68323 0.0183006 7.60713C-0.01816 6.32679 0.150718 5.04888 0.518516 3.82196C0.791963 2.94149 1.35114 2.17731 2.10762 1.65029C3.16091 0.891838 4.51414 0.446524 6.16729 0.314353C7.5439 0.19235 9.06895 0.131348 10.7424 0.131348C13.3858 0.131348 15.2678 0.282836 16.3882 0.585812C19.1332 1.31987 20.5038 3.38173 20.4997 6.7714C20.4997 7.04896 20.4814 7.46377 20.4417 8.01889Z" fill="white"/>
<path d="M48.1216 25.1419V0H60.7276C62.458 0 63.7798 0.141321 64.6927 0.423963C65.6628 0.695004 66.5512 1.20076 67.2794 1.89656C68.0077 2.59235 68.5534 3.45678 68.8683 4.41349C69.2384 5.46882 69.4224 7.0569 69.4204 9.17774C69.4204 11.7276 69.2171 13.5577 68.8104 14.6679C67.997 16.8741 66.3347 18.143 63.8235 18.4744C63.5286 18.5232 62.271 18.5659 60.0505 18.6025L58.9281 18.6391H54.8745V25.1419H48.1216ZM54.8745 12.8165H59.0958C60.4318 12.7677 61.2461 12.667 61.5359 12.5115C61.9426 12.2919 62.21 11.8517 62.3381 11.1908C62.4387 10.5421 62.4816 9.88583 62.4662 9.22959C62.5021 8.43611 62.4209 7.64167 62.2252 6.87186C61.9812 6.15204 61.3976 5.71283 60.4745 5.55422C60.2915 5.52982 59.8644 5.51762 59.1629 5.51762H54.8745V12.8165Z" fill="white"/>
<path d="M83.85 20.7955H74.8095L73.5894 25.1419H66.5742L74.1476 0H84.3532L91.9998 25.1419H85.1462L83.85 20.7955ZM82.5049 15.8971L79.3419 4.99911L76.2644 15.8971H82.5049Z" fill="white"/>
<path d="M38.7821 3.53516C40.1087 3.53492 41.4185 3.83113 42.6159 4.40211C43.8133 4.9731 44.868 5.80444 45.7028 6.83536L47.1608 3.70902C45.6596 2.29237 43.8384 1.25943 41.8522 0.698124C39.8659 0.136816 37.7734 0.0637648 35.7529 0.48519C33.7323 0.906614 31.8435 1.81003 30.2472 3.11854C28.6509 4.42705 27.3945 6.1019 26.5848 8.0005H23.7421L22.0615 11.6027H25.7216C25.6942 11.9351 25.6759 12.2706 25.6759 12.6122C25.6759 13.024 25.6972 13.4327 25.7369 13.8323H23.9068L22.2262 17.4314H26.6794C27.6774 19.6923 29.314 21.6126 31.3881 22.9563C33.4623 24.3001 35.8838 25.0089 38.3551 24.9956C40.8911 25.0055 43.3729 24.2624 45.4862 22.8606V18.4379C44.5809 19.4731 43.448 20.2844 42.1765 20.8082C40.9049 21.332 39.5292 21.554 38.1575 21.4567C36.7857 21.3595 35.4551 20.9457 34.2701 20.2478C33.0851 19.55 32.078 18.587 31.3277 17.4344H40.6518L42.3325 13.8353H29.9521C29.8862 13.3961 29.8526 12.9527 29.8515 12.5085C29.8515 12.2035 29.8698 11.8985 29.8972 11.5935H43.3664L45.047 7.99135H31.0624C31.8452 6.6367 32.9706 5.51182 34.3256 4.72965C35.6806 3.94747 37.2176 3.53553 38.7821 3.53516Z" fill="#FDC300"/>
</svg>

