<svg width="242" height="242" viewBox="0 0 242 242" fill="none" xmlns="http://www.w3.org/2000/svg">
<g clip-path="url(#clip0_155_4559)" filter="url(#filter0_d_155_4559)">
<path d="M157.105 205.009C140.431 212.208 121.997 214.302 104.133 211.024C86.2697 207.747 69.7793 199.246 56.7472 186.596C43.7152 173.947 34.7268 157.717 30.9188 139.959C27.1107 122.201 28.654 103.712 35.3535 86.8316C42.053 69.9508 53.6079 55.4357 68.5568 45.1218C83.5057 34.808 101.177 29.1586 119.337 28.8882C137.497 28.6177 155.329 33.7383 170.578 43.6023C185.827 53.4664 197.809 67.6309 205.009 84.3047C214.632 106.667 214.993 131.933 206.013 154.561C197.033 177.19 179.444 195.332 157.105 205.009ZM85.7603 39.7728C69.7534 46.6841 56.1555 58.1868 46.686 72.8263C37.2165 87.4657 32.3008 104.584 32.5604 122.018C32.8201 139.451 38.2435 156.416 48.1447 170.767C58.046 185.118 71.9805 196.21 88.1861 202.642C104.392 209.073 122.14 210.555 139.188 206.899C156.236 203.243 171.816 194.615 183.96 182.104C196.104 169.593 204.265 153.762 207.411 136.613C210.557 119.464 208.548 101.768 201.637 85.7607C192.348 64.3138 174.932 47.4271 153.208 38.8056C131.484 30.1842 107.228 30.532 85.7603 39.7728Z" fill="url(#paint0_linear_155_4559)"/>
<path d="M150.31 189.273C136.748 195.128 121.755 196.831 107.226 194.165C92.6973 191.499 79.2851 184.585 68.6857 174.297C58.0863 164.008 50.7757 150.808 47.6785 136.365C44.5813 121.922 45.8366 106.885 51.2855 93.1549C56.7344 79.4251 66.1323 67.6195 78.2908 59.231C90.4492 50.8424 104.822 46.2475 119.592 46.0276C134.362 45.8076 148.865 49.9723 161.268 57.9951C173.671 66.0178 183.416 77.5383 189.272 91.0997C197.097 109.288 197.389 129.837 190.085 148.24C182.781 166.644 168.477 181.4 150.31 189.273ZM92.0694 54.3858C78.9527 60.0493 67.8099 69.4751 60.0502 81.4713C52.2905 93.4675 48.2623 107.495 48.4751 121.781C48.6879 136.067 53.132 149.968 61.2456 161.728C69.3591 173.488 80.7777 182.578 94.0572 187.848C107.337 193.118 121.881 194.332 135.851 191.337C149.82 188.341 162.588 181.27 172.539 171.018C182.49 160.766 189.177 147.794 191.755 133.741C194.334 119.689 192.687 105.187 187.024 92.0704C179.411 74.4968 165.139 60.66 147.338 53.5954C129.537 46.5307 109.661 46.815 92.0694 54.3858Z" fill="url(#paint1_linear_155_4559)"/>
<path d="M90.1423 122.352L90.1666 122.408C90.225 122.464 90.2906 122.512 90.3615 122.551C90.4067 122.583 90.4546 122.611 90.5048 122.635L125.94 134.901C126.185 134.982 126.45 134.971 126.688 134.872C126.926 134.765 127.119 134.578 127.233 134.343L142.523 100.135L142.499 100.079C142.522 100.013 142.537 99.9435 142.543 99.8733L142.557 99.7206L142.528 99.6531C142.528 99.6531 142.528 99.6531 142.494 99.5744C142.469 99.501 142.438 99.4296 142.402 99.3609C142.387 99.3098 142.366 99.2607 142.339 99.2148C142.317 99.1488 142.289 99.0849 142.256 99.0237L142.126 98.9067C142.126 98.9067 142.126 98.9066 142.101 98.8504L100.675 72.4615C100.53 72.3802 100.368 72.3334 100.203 72.3248C100.037 72.3161 99.8717 72.3458 99.7194 72.4116C99.5671 72.4773 99.432 72.5774 99.3247 72.7039C99.2174 72.8304 99.1408 72.98 99.1008 73.141L89.9148 121.423L89.939 121.479C89.9356 121.536 89.9379 121.593 89.9459 121.65C89.9684 121.716 89.996 121.779 90.0284 121.841C90.0434 121.892 90.0646 121.941 90.0915 121.987C90.1167 122.06 90.1475 122.132 90.1837 122.201C90.1869 122.254 90.1723 122.307 90.1423 122.352ZM113.069 103.331L139.926 100.977L125.746 132.691L92.94 121.264L113.069 103.331Z" fill="url(#paint2_linear_155_4559)"/>
<path d="M145.642 103.469C145.402 103.406 145.146 103.434 144.925 103.547C144.703 103.66 144.531 103.85 144.44 104.082L129.4 140.288L92.2901 126.585C92.0626 126.512 91.8168 126.519 91.594 126.605C91.3712 126.692 91.1848 126.852 91.0664 127.06C90.9479 127.267 90.9046 127.509 90.9435 127.745C90.9825 127.981 91.1015 128.196 91.2804 128.355L139.365 165.592C139.511 165.706 139.686 165.778 139.869 165.802C140.053 165.826 140.24 165.8 140.41 165.727C140.58 165.653 140.727 165.535 140.836 165.385C140.944 165.234 141.011 165.058 141.029 164.874L146.399 104.543C146.418 104.304 146.353 104.065 146.215 103.869C146.076 103.673 145.874 103.532 145.642 103.469Z" fill="url(#paint3_linear_155_4559)"/>
</g>
<defs>
<filter id="filter0_d_155_4559" x="-4" y="0" width="249.409" height="249.409" filterUnits="userSpaceOnUse" color-interpolation-filters="sRGB">
<feFlood flood-opacity="0" result="BackgroundImageFix"/>
<feColorMatrix in="SourceAlpha" type="matrix" values="0 0 0 0 0 0 0 0 0 0 0 0 0 0 0 0 0 0 127 0" result="hardAlpha"/>
<feOffset dy="4"/>
<feGaussianBlur stdDeviation="2"/>
<feComposite in2="hardAlpha" operator="out"/>
<feColorMatrix type="matrix" values="0 0 0 0 0 0 0 0 0 0 0 0 0 0 0 0 0 0 0.25 0"/>
<feBlend mode="normal" in2="BackgroundImageFix" result="effect1_dropShadow_155_4559"/>
<feBlend mode="normal" in="SourceGraphic" in2="effect1_dropShadow_155_4559" result="shape"/>
</filter>
<linearGradient id="paint0_linear_155_4559" x1="36.4002" y1="157.105" x2="205.009" y2="84.3047" gradientUnits="userSpaceOnUse">
<stop stop-color="#FFE666"/>
<stop offset="0.22" stop-color="#F59137"/>
<stop offset="0.41" stop-color="#FFE666"/>
<stop offset="0.61" stop-color="#F59137"/>
<stop offset="0.81" stop-color="#FFE666"/>
<stop offset="1" stop-color="#F59137"/>
</linearGradient>
<linearGradient id="paint1_linear_155_4559" x1="52.1368" y1="150.311" x2="189.272" y2="91.0997" gradientUnits="userSpaceOnUse">
<stop stop-color="#FFE666"/>
<stop offset="0.22" stop-color="#F59137"/>
<stop offset="0.41" stop-color="#FFE666"/>
<stop offset="0.61" stop-color="#F59137"/>
<stop offset="0.81" stop-color="#FFE666"/>
<stop offset="1" stop-color="#F59137"/>
</linearGradient>
<linearGradient id="paint2_linear_155_4559" x1="134.602" y1="78.1768" x2="68.7518" y2="156.699" gradientUnits="userSpaceOnUse">
<stop stop-color="#FFE666"/>
<stop offset="0.22" stop-color="#F59137"/>
<stop offset="0.41" stop-color="#FFE666"/>
<stop offset="0.61" stop-color="#F59137"/>
<stop offset="0.81" stop-color="#FFE666"/>
<stop offset="1" stop-color="#F59137"/>
</linearGradient>
<linearGradient id="paint3_linear_155_4559" x1="157.155" y1="97.0846" x2="91.31" y2="175.618" gradientUnits="userSpaceOnUse">
<stop stop-color="#FFE666"/>
<stop offset="0.22" stop-color="#F59137"/>
<stop offset="0.41" stop-color="#FFE666"/>
<stop offset="0.61" stop-color="#F59137"/>
<stop offset="0.81" stop-color="#FFE666"/>
<stop offset="1" stop-color="#F59137"/>
</linearGradient>
<clipPath id="clip0_155_4559">
<rect width="183.654" height="183.654" fill="white" transform="translate(0 72.8008) rotate(-23.3533)"/>
</clipPath>
</defs>
</svg>
