<svg width="19" height="19" viewBox="0 0 19 19" fill="none" xmlns="http://www.w3.org/2000/svg">
<g id="language">
<mask id="mask0_1007_387" style="mask-type:alpha" maskUnits="userSpaceOnUse" x="0" y="0" width="19" height="19">
<rect id="Bounding box" width="19" height="19" fill="#D9D9D9"/>
</mask>
<g mask="url(#mask0_1007_387)">
<path id="language_2" d="M9.50001 17.4166C8.41807 17.4166 7.3955 17.2088 6.4323 16.7932C5.46911 16.3776 4.62796 15.8102 3.90886 15.0911C3.18977 14.372 2.62241 13.5309 2.20678 12.5677C1.79116 11.6045 1.58334 10.5819 1.58334 9.49998C1.58334 8.40484 1.79116 7.37897 2.20678 6.42238C2.62241 5.46578 3.18977 4.62793 3.90886 3.90883C4.62796 3.18974 5.46911 2.62238 6.4323 2.20675C7.3955 1.79113 8.41807 1.58331 9.50001 1.58331C10.5951 1.58331 11.621 1.79113 12.5776 2.20675C13.5342 2.62238 14.3721 3.18974 15.0912 3.90883C15.8103 4.62793 16.3776 5.46578 16.7932 6.42238C17.2089 7.37897 17.4167 8.40484 17.4167 9.49998C17.4167 10.5819 17.2089 11.6045 16.7932 12.5677C16.3776 13.5309 15.8103 14.372 15.0912 15.0911C14.3721 15.8102 13.5342 16.3776 12.5776 16.7932C11.621 17.2088 10.5951 17.4166 9.50001 17.4166ZM9.50001 15.7937C9.84307 15.3187 10.1399 14.8239 10.3906 14.3094C10.6413 13.7948 10.8458 13.2472 11.0042 12.6666H7.99584C8.15418 13.2472 8.35869 13.7948 8.60939 14.3094C8.86008 14.8239 9.15695 15.3187 9.50001 15.7937ZM7.44168 15.4771C7.20418 15.0416 6.99636 14.5897 6.81824 14.1213C6.64011 13.6529 6.49168 13.168 6.37293 12.6666H4.03751C4.42015 13.3264 4.89845 13.9003 5.47241 14.3885C6.04636 14.8767 6.70279 15.2396 7.44168 15.4771ZM11.5583 15.4771C12.2972 15.2396 12.9537 14.8767 13.5276 14.3885C14.1016 13.9003 14.5799 13.3264 14.9625 12.6666H12.6271C12.5083 13.168 12.3599 13.6529 12.1818 14.1213C12.0037 14.5897 11.7958 15.0416 11.5583 15.4771ZM3.36459 11.0833H6.05626C6.01668 10.8194 5.98699 10.5588 5.9672 10.3015C5.94741 10.0442 5.93751 9.77706 5.93751 9.49998C5.93751 9.2229 5.94741 8.95571 5.9672 8.69842C5.98699 8.44113 6.01668 8.18053 6.05626 7.91665H3.36459C3.29862 8.18053 3.24914 8.44113 3.21616 8.69842C3.18317 8.95571 3.16668 9.2229 3.16668 9.49998C3.16668 9.77706 3.18317 10.0442 3.21616 10.3015C3.24914 10.5588 3.29862 10.8194 3.36459 11.0833ZM7.63959 11.0833H11.3604C11.4 10.8194 11.4297 10.5588 11.4495 10.3015C11.4693 10.0442 11.4792 9.77706 11.4792 9.49998C11.4792 9.2229 11.4693 8.95571 11.4495 8.69842C11.4297 8.44113 11.4 8.18053 11.3604 7.91665H7.63959C7.60001 8.18053 7.57032 8.44113 7.55053 8.69842C7.53074 8.95571 7.52084 9.2229 7.52084 9.49998C7.52084 9.77706 7.53074 10.0442 7.55053 10.3015C7.57032 10.5588 7.60001 10.8194 7.63959 11.0833ZM12.9438 11.0833H15.6354C15.7014 10.8194 15.7509 10.5588 15.7839 10.3015C15.8168 10.0442 15.8333 9.77706 15.8333 9.49998C15.8333 9.2229 15.8168 8.95571 15.7839 8.69842C15.7509 8.44113 15.7014 8.18053 15.6354 7.91665H12.9438C12.9833 8.18053 13.013 8.44113 13.0328 8.69842C13.0526 8.95571 13.0625 9.2229 13.0625 9.49998C13.0625 9.77706 13.0526 10.0442 13.0328 10.3015C13.013 10.5588 12.9833 10.8194 12.9438 11.0833ZM12.6271 6.33331H14.9625C14.5799 5.67359 14.1016 5.09963 13.5276 4.61144C12.9537 4.12324 12.2972 3.7604 11.5583 3.5229C11.7958 3.95831 12.0037 4.41022 12.1818 4.87863C12.3599 5.34703 12.5083 5.83192 12.6271 6.33331ZM7.99584 6.33331H11.0042C10.8458 5.75276 10.6413 5.20519 10.3906 4.6906C10.1399 4.17602 9.84307 3.68123 9.50001 3.20623C9.15695 3.68123 8.86008 4.17602 8.60939 4.6906C8.35869 5.20519 8.15418 5.75276 7.99584 6.33331ZM4.03751 6.33331H6.37293C6.49168 5.83192 6.64011 5.34703 6.81824 4.87863C6.99636 4.41022 7.20418 3.95831 7.44168 3.5229C6.70279 3.7604 6.04636 4.12324 5.47241 4.61144C4.89845 5.09963 4.42015 5.67359 4.03751 6.33331Z" fill="white"/>
</g>
</g>
</svg>
