<svg width="601" height="464" viewBox="0 0 601 464" fill="none" xmlns="http://www.w3.org/2000/svg">
<g filter="url(#filter0_f_1022_376)">
<circle cx="79" cy="55" r="29" fill="white" fill-opacity="0.7"/>
</g>
<g filter="url(#filter1_f_1022_376)">
<circle cx="442" cy="114" r="29" fill="white" fill-opacity="0.7"/>
</g>
<g filter="url(#filter2_f_1022_376)">
<circle cx="408" cy="366" r="29" fill="white" fill-opacity="0.7"/>
</g>
<g filter="url(#filter3_f_1022_376)">
<circle cx="94" cy="431" r="29" fill="white" fill-opacity="0.7"/>
</g>
<path d="M403.967 246.284L466.281 217.765L528.2 246.292L466.383 274.585L465.875 274.811L403.967 246.284ZM466.231 219.579L407.882 246.292L465.854 272.997L524.203 246.284L466.231 219.579Z" fill="white"/>
<path d="M465.285 219.128L465.051 153.196L526.979 181.731L527.213 247.655L465.285 219.128ZM467.044 155.929L467.248 218.216L525.22 244.921L524.996 182.634L467.044 155.929Z" fill="white"/>
<path d="M404.719 182.175V181.715L467.034 153.196L467.268 218.66V219.12L404.953 247.647L404.719 182.175ZM465.061 155.913L406.703 182.626L406.926 244.921L465.285 218.208L465.061 155.913Z" fill="white"/>
<path d="M403.967 246.284L466.281 217.765L528.2 246.292L466.383 274.585L465.875 274.811L403.967 246.284ZM466.231 219.579L407.882 246.292L465.854 272.997L524.203 246.284L466.231 219.579Z" fill="white"/>
<path d="M465.285 219.128L465.051 153.196L526.979 181.731L527.213 247.655L465.285 219.128ZM467.044 155.929L467.248 218.216L525.22 244.921L524.996 182.634L467.044 155.929Z" fill="white"/>
<path d="M404.719 182.175V181.715L467.034 153.196L467.268 218.66V219.12L404.953 247.647L404.719 182.175ZM465.061 155.913L406.703 182.626L406.926 244.921L465.285 218.208L465.061 155.913Z" fill="white"/>
<path d="M187.202 145.592L234.251 124.056L281.035 145.6L234.343 166.959L233.966 167.137L187.202 145.592ZM234.241 125.435L190.182 145.592L233.915 165.75L277.974 145.592L234.241 125.435Z" fill="white"/>
<path d="M233.499 125.088L233.326 75.3066L280.11 96.8511L280.293 146.632L233.499 125.088ZM234.831 77.3547L234.994 124.386L278.727 144.544L278.585 97.5123L234.831 77.3547Z" fill="white"/>
<path d="M187.772 97.1898V96.8511L234.821 75.3147L234.994 124.741V125.088L187.945 146.624L187.772 97.1898ZM233.326 77.3546L189.267 97.5123L189.44 144.544L233.498 124.386L233.326 77.3546Z" fill="white"/>
<path d="M246.405 130.353V178.772L292.121 158.445V110.357L246.405 130.353Z" fill="url(#paint0_linear_1022_376)"/>
<path d="M187.202 145.592L234.251 124.056L281.035 145.6L234.343 166.959L233.966 167.137L187.202 145.592ZM234.241 125.435L190.182 145.592L233.915 165.75L277.974 145.592L234.241 125.435Z" fill="white"/>
<path d="M233.499 125.088L233.326 75.3066L280.11 96.8511L280.293 146.632L233.499 125.088ZM234.831 77.3547L234.994 124.386L278.727 144.544L278.585 97.5123L234.831 77.3547Z" fill="white"/>
<path d="M187.772 97.1898V96.8511L234.821 75.3147L234.994 124.741V125.088L187.945 146.624L187.772 97.1898ZM233.326 77.3546L189.267 97.5123L189.44 144.544L233.498 124.386L233.326 77.3546Z" fill="white"/>
<path d="M187.914 360.223L234.251 339.009L280.283 360.223L234.343 381.259L233.966 381.428L187.914 360.223ZM234.241 340.363L190.853 360.223L233.956 380.082L277.344 360.223L234.241 340.363Z" fill="white"/>
<path d="M233.509 340.025L233.326 291.026L279.378 312.24L279.551 361.263L233.509 340.025ZM234.821 293.034L234.983 339.348L278.076 359.207L277.913 312.893L234.821 293.034Z" fill="white"/>
<path d="M188.473 312.554V312.216L234.81 291.026L234.983 339.711V340.049L188.646 361.255L188.473 312.554ZM233.325 293.026L189.928 312.885L190.091 359.215L233.488 339.348L233.325 293.026Z" fill="white"/>
<path d="M187.914 360.223L234.251 339.009L280.283 360.223L234.343 381.259L233.966 381.428L187.914 360.223ZM234.241 340.363L190.853 360.223L233.956 380.082L277.344 360.223L234.241 340.363Z" fill="white"/>
<path d="M233.509 340.025L233.326 291.026L279.378 312.24L279.551 361.263L233.509 340.025ZM234.821 293.034L234.983 339.348L278.076 359.207L277.913 312.893L234.821 293.034Z" fill="white"/>
<path d="M188.473 312.554V312.216L234.81 291.026L234.983 339.711V340.049L188.646 361.255L188.473 312.554ZM233.325 293.026L189.928 312.885L190.091 359.215L233.488 339.348L233.325 293.026Z" fill="white"/>
<path d="M35 185.674L107.902 219.264L181.273 185.682L108.37 152.091L35 185.674Z" fill="#C98D25"/>
<path d="M35 185.674L35.2644 260.386L108.167 293.977L107.902 219.265L35 185.674Z" fill="#C8830E"/>
<path d="M107.902 219.265L108.167 293.977L181.537 260.394L181.273 185.682L107.902 219.265Z" fill="#FFA000"/>
<path d="M65.0234 11.7459L114.412 34.5079L164.115 11.7539L114.727 -11L65.0234 11.7459Z" fill="#C98D25"/>
<path d="M65.0234 11.7459L65.1963 62.3657L114.584 85.1197L114.412 34.5079L65.0234 11.7459Z" fill="#C8830E"/>
<path d="M114.412 34.5079L114.585 85.1197L164.288 62.3657L164.115 11.754L114.412 34.5079Z" fill="#FFA000"/>
<path d="M65.0234 11.7459L114.412 34.5079L164.115 11.7539L114.727 -11L65.0234 11.7459Z" fill="#C98D25"/>
<path d="M65.0234 11.7459L65.1963 62.3657L114.584 85.1197L114.412 34.5079L65.0234 11.7459Z" fill="#C8830E"/>
<path d="M114.412 34.5079L114.585 85.1197L164.288 62.3657L164.115 11.754L114.412 34.5079Z" fill="#FFA000"/>
<path d="M65.0234 390.5L114.412 413.253L164.115 390.508L114.727 367.754L65.0234 390.5Z" fill="#C98D25"/>
<path d="M65.0234 390.5L65.1963 441.111L114.584 463.865L114.412 413.253L65.0234 390.5Z" fill="#C8830E"/>
<path d="M114.412 413.253L114.585 463.865L164.288 441.119L164.115 390.507L114.412 413.253Z" fill="#FFA000"/>
<path d="M328.766 55.1654L391.935 84.273L455.511 55.1735L392.342 26.0659L328.766 55.1654Z" fill="#C98D25"/>
<path d="M328.766 55.1655L329 119.904L392.169 149.003L391.935 84.2731L328.766 55.1655Z" fill="#C8830E"/>
<path d="M391.935 84.273L392.169 149.003L455.735 119.904L455.511 55.1735L391.935 84.273Z" fill="#FFA000"/>
<path d="M264.152 206.106L304.143 224.538L344.398 206.114L304.397 187.682L264.152 206.106Z" fill="#C07D0C"/>
<path d="M264.152 206.106L264.295 247.09L304.295 265.522L304.143 224.538L264.152 206.106Z" fill="#CF870E"/>
<path d="M304.143 224.538L304.295 265.522L344.54 247.098L344.398 206.114L304.143 224.538Z" fill="#FFA000"/>
<path d="M354.324 314.667L403.712 337.42L453.416 314.667L404.028 291.913L354.324 314.667Z" fill="#C07D0C"/>
<path d="M354.324 314.667L354.507 365.278L403.895 388.032L403.712 337.42L354.324 314.667Z" fill="#CF870E"/>
<path d="M403.712 337.42L403.895 388.032L453.599 365.278L453.416 314.667L403.712 337.42Z" fill="#FFA000"/>
<path d="M442.076 96.9803C442.078 95.6273 442.758 94.3304 443.964 93.3737C445.171 92.417 446.807 91.8785 448.514 91.8764H481.578C482.446 91.8491 483.311 91.9609 484.123 92.2053C484.935 92.4497 485.676 92.8216 486.302 93.2986C486.928 93.7756 487.426 94.3479 487.767 94.9813C488.107 95.6146 488.282 96.2959 488.282 96.9843C488.282 97.6727 488.107 98.3541 487.767 98.9874C487.426 99.6208 486.928 100.193 486.302 100.67C485.676 101.147 484.935 101.519 484.123 101.763C483.311 102.008 482.446 102.12 481.578 102.092H448.514C446.805 102.09 445.168 101.551 443.961 100.592C442.754 99.6337 442.076 98.3347 442.076 96.9803ZM448.514 92.4408C447.035 92.4902 445.638 92.9905 444.615 93.8372C443.591 94.6838 443.019 95.8114 443.019 96.9843C443.019 98.1573 443.591 99.2849 444.615 100.132C445.638 100.978 447.035 101.478 448.514 101.528H481.578C482.351 101.554 483.123 101.455 483.846 101.239C484.57 101.022 485.231 100.691 485.789 100.267C486.348 99.8425 486.792 99.3329 487.096 98.7688C487.399 98.2046 487.556 97.5977 487.556 96.9843C487.556 96.371 487.399 95.7641 487.096 95.1999C486.792 94.6358 486.348 94.1262 485.789 93.7017C485.231 93.2773 484.57 92.9468 483.846 92.7301C483.123 92.5134 482.351 92.415 481.578 92.4408H448.514Z" fill="white"/>
<path d="M504.238 284.575C504.241 283.221 504.921 281.923 506.13 280.966C507.339 280.009 508.978 279.471 510.686 279.471H543.751C545.415 279.524 546.989 280.085 548.144 281.037C549.298 281.989 549.943 283.259 549.943 284.579C549.943 285.9 549.298 287.169 548.144 288.122C546.989 289.074 545.415 289.635 543.751 289.687H510.686C508.977 289.685 507.338 289.146 506.13 288.188C504.921 287.229 504.241 285.93 504.238 284.575ZM510.686 280.036C509.913 280.01 509.142 280.108 508.418 280.325C507.694 280.542 507.033 280.872 506.475 281.297C505.916 281.721 505.472 282.231 505.169 282.795C504.865 283.359 504.709 283.966 504.709 284.579C504.709 285.193 504.865 285.8 505.169 286.364C505.472 286.928 505.916 287.438 506.475 287.862C507.033 288.286 507.694 288.617 508.418 288.834C509.142 289.05 509.913 289.149 510.686 289.123H543.751C545.229 289.074 546.626 288.573 547.65 287.727C548.674 286.88 549.245 285.752 549.245 284.579C549.245 283.406 548.674 282.279 547.65 281.432C546.626 280.586 545.229 280.085 543.751 280.036H510.686Z" fill="#FAA50F"/>
<path d="M261.243 37.8861C261.246 36.531 261.926 35.232 263.135 34.2738C264.344 33.3156 265.982 32.7763 267.692 32.7742H300.756C302.42 32.8266 303.995 33.3877 305.149 34.3399C306.303 35.2921 306.948 36.5615 306.948 37.8821C306.948 39.2027 306.303 40.4721 305.149 41.4243C303.995 42.3765 302.42 42.9376 300.756 42.9901H267.692C265.984 42.9879 264.347 42.4498 263.139 41.4933C261.93 40.5368 261.249 39.2399 261.243 37.8861ZM267.692 33.3386C266.919 33.3128 266.147 33.4112 265.423 33.6279C264.7 33.8446 264.039 34.1751 263.48 34.5995C262.922 35.024 262.477 35.5336 262.174 36.0977C261.87 36.6618 261.714 37.2688 261.714 37.8821C261.714 38.4954 261.87 39.1024 262.174 39.6665C262.477 40.2306 262.922 40.7403 263.48 41.1647C264.039 41.5892 264.7 41.9197 265.423 42.1364C266.147 42.3531 266.919 42.4515 267.692 42.4256H300.756C302.234 42.3763 303.631 41.876 304.655 41.0293C305.679 40.1826 306.251 39.0551 306.251 37.8821C306.251 36.7092 305.679 35.5816 304.655 34.7349C303.631 33.8882 302.234 33.388 300.756 33.3386H267.692Z" fill="#FAA50F"/>
<path d="M235.044 266.538C235.05 265.189 235.727 263.895 236.929 262.94C238.13 261.984 239.76 261.443 241.462 261.434H274.526C276.234 261.434 277.871 261.972 279.079 262.929C280.286 263.886 280.964 265.185 280.964 266.538C280.964 267.892 280.286 269.19 279.079 270.147C277.871 271.104 276.234 271.642 274.526 271.642H241.462C239.76 271.634 238.13 271.093 236.929 270.137C235.727 269.181 235.05 267.888 235.044 266.538ZM241.462 261.999C239.943 261.999 238.487 262.477 237.413 263.328C236.339 264.18 235.736 265.334 235.736 266.538C235.736 267.742 236.339 268.897 237.413 269.748C238.487 270.599 239.943 271.078 241.462 271.078H274.526C276.045 271.078 277.501 270.599 278.575 269.748C279.649 268.897 280.252 267.742 280.252 266.538C280.252 265.334 279.649 264.18 278.575 263.328C277.501 262.477 276.045 261.999 274.526 261.999H241.462Z" fill="white"/>
<path d="M432.77 347.185C432.772 345.832 433.451 344.535 434.658 343.578C435.865 342.621 437.501 342.083 439.207 342.081H472.272C473.979 342.081 475.617 342.619 476.824 343.576C478.032 344.533 478.71 345.831 478.71 347.185C478.71 348.538 478.032 349.837 476.824 350.794C475.617 351.751 473.979 352.289 472.272 352.289H439.207C437.501 352.287 435.865 351.748 434.658 350.792C433.451 349.835 432.772 348.538 432.77 347.185ZM439.207 342.645C437.689 342.645 436.232 343.124 435.159 343.975C434.085 344.826 433.481 345.981 433.481 347.185C433.481 348.389 434.085 349.543 435.159 350.395C436.232 351.246 437.689 351.724 439.207 351.724H472.272C473.791 351.724 475.247 351.246 476.321 350.395C477.395 349.543 477.998 348.389 477.998 347.185C477.998 345.981 477.395 344.826 476.321 343.975C475.247 343.124 473.791 342.645 472.272 342.645H439.207Z" fill="white"/>
<path d="M141.14 404.787C141.14 403.433 141.818 402.134 143.025 401.175C144.232 400.217 145.869 399.677 147.578 399.675H180.642C181.51 399.648 182.375 399.76 183.187 400.004C183.999 400.249 184.74 400.62 185.366 401.097C185.992 401.574 186.49 402.147 186.831 402.78C187.171 403.414 187.346 404.095 187.346 404.783C187.346 405.472 187.171 406.153 186.831 406.786C186.49 407.42 185.992 407.992 185.366 408.469C184.74 408.946 183.999 409.318 183.187 409.562C182.375 409.807 181.51 409.919 180.642 409.891H147.578C145.871 409.889 144.235 409.351 143.028 408.394C141.821 407.437 141.142 406.14 141.14 404.787ZM147.578 400.24C146.099 400.289 144.702 400.789 143.678 401.636C142.655 402.483 142.083 403.61 142.083 404.783C142.083 405.956 142.655 407.084 143.678 407.93C144.702 408.777 146.099 409.277 147.578 409.327H180.642C181.415 409.353 182.186 409.254 182.91 409.038C183.634 408.821 184.295 408.49 184.853 408.066C185.412 407.641 185.856 407.132 186.16 406.568C186.463 406.004 186.62 405.397 186.62 404.783C186.62 404.17 186.463 403.563 186.16 402.999C185.856 402.435 185.412 401.925 184.853 401.501C184.295 401.076 183.634 400.746 182.91 400.529C182.186 400.312 181.415 400.214 180.642 400.24H147.578Z" fill="white"/>
<path d="M158.562 208.783C158.562 207.427 159.241 206.127 160.45 205.168C161.66 204.209 163.3 203.671 165.01 203.671H198.074C199.739 203.723 201.313 204.284 202.467 205.236C203.622 206.189 204.266 207.458 204.266 208.779C204.266 210.099 203.622 211.369 202.467 212.321C201.313 213.273 199.739 213.834 198.074 213.887H165.01C163.301 213.887 161.663 213.349 160.454 212.392C159.245 211.435 158.564 210.137 158.562 208.783ZM165.01 204.235C164.237 204.209 163.465 204.308 162.742 204.524C162.018 204.741 161.357 205.072 160.799 205.496C160.24 205.92 159.796 206.43 159.492 206.994C159.189 207.558 159.032 208.165 159.032 208.779C159.032 209.392 159.189 209.999 159.492 210.563C159.796 211.127 160.24 211.637 160.799 212.061C161.357 212.486 162.018 212.816 162.742 213.033C163.465 213.25 164.237 213.348 165.01 213.322H198.074C199.552 213.273 200.949 212.772 201.973 211.926C202.997 211.079 203.569 209.952 203.569 208.779C203.569 207.606 202.997 206.478 201.973 205.631C200.949 204.785 199.552 204.284 198.074 204.235H165.01Z" fill="white"/>
<path d="M489.521 314.667C493.127 314.667 496.051 312.349 496.051 309.49C496.051 306.631 493.127 304.314 489.521 304.314C485.915 304.314 482.992 306.631 482.992 309.49C482.992 312.349 485.915 314.667 489.521 314.667Z" fill="#FAA50F"/>
<path d="M144.72 129.232C148.326 129.232 151.249 126.915 151.249 124.056C151.249 121.197 148.326 118.88 144.72 118.88C141.114 118.88 138.19 121.197 138.19 124.056C138.19 126.915 141.114 129.232 144.72 129.232Z" fill="#FAA50F"/>
<path d="M144.72 334.187C148.326 334.187 151.249 331.869 151.249 329.011C151.249 326.152 148.326 323.834 144.72 323.834C141.114 323.834 138.19 326.152 138.19 329.011C138.19 331.869 141.114 334.187 144.72 334.187Z" fill="#FAA50F"/>
<path d="M542.947 82.5473C546.553 82.5473 549.476 80.2298 549.476 77.3709C549.476 74.512 546.553 72.1944 542.947 72.1944C539.341 72.1944 536.417 74.512 536.417 77.3709C536.417 80.2298 539.341 82.5473 542.947 82.5473Z" fill="#C8830E"/>
<path d="M344.398 398.385C348.004 398.385 350.927 396.068 350.927 393.209C350.927 390.35 348.004 388.032 344.398 388.032C340.791 388.032 337.868 390.35 337.868 393.209C337.868 396.068 340.791 398.385 344.398 398.385Z" fill="#C8830E"/>
<path d="M181.1 185.754L114.412 85.1921L114.768 85.047L181.446 185.609L181.1 185.754Z" fill="#FAA50F"/>
<path d="M114.9 367.818L114.544 367.681L181.364 260.321L181.71 260.459L114.9 367.818Z" fill="#FAA50F"/>
<path d="M403.895 292.026L344.408 247.211L344.683 246.985L404.16 291.8L403.895 292.026Z" fill="#FAA50F"/>
<path d="M234.139 165.758H233.752V293.025H234.139V165.758Z" fill="#FAA50F"/>
<path d="M278.821 144.411L278.681 144.705L406.639 182.774L406.778 182.48L278.821 144.411Z" fill="#FAA50F"/>
<path d="M278.015 313.014L277.801 312.756L404.841 247.517L405.065 247.775L278.015 313.014Z" fill="#FAA50F"/>
<path d="M344.561 206.194L344.235 206.025L392.006 148.922L392.332 149.092L344.561 206.194Z" fill="#FAA50F"/>
<path d="M263.979 206.178L164.125 62.4382L164.461 62.293L264.325 206.033L263.979 206.178Z" fill="#FAA50F"/>
<path d="M264.104 247.022L163.946 390.447L164.293 390.6L264.451 247.175L264.104 247.022Z" fill="#FAA50F"/>
<path d="M595.315 97.3754H278.584V97.6899H595.315V97.3754Z" fill="#FAA50F"/>
<path d="M600.451 359.046H278.076V359.36H600.451V359.046Z" fill="#FAA50F"/>
<path d="M387.267 168.564V216.983L432.983 196.656V148.568L387.267 168.564Z" fill="url(#paint1_linear_1022_376)"/>
<path d="M520.094 359.683V408.101L565.8 387.766V339.686L520.094 359.683Z" fill="url(#paint2_linear_1022_376)"/>
<path d="M520.094 18.559V66.9856L565.8 46.6506V-1.42932L520.094 18.559Z" fill="url(#paint3_linear_1022_376)"/>
<path d="M168.814 295.275V343.694L214.53 323.367V275.279L168.814 295.275Z" fill="url(#paint4_linear_1022_376)"/>
<defs>
<filter id="filter0_f_1022_376" x="0" y="-24" width="158" height="158" filterUnits="userSpaceOnUse" color-interpolation-filters="sRGB">
<feFlood flood-opacity="0" result="BackgroundImageFix"/>
<feBlend mode="normal" in="SourceGraphic" in2="BackgroundImageFix" result="shape"/>
<feGaussianBlur stdDeviation="25" result="effect1_foregroundBlur_1022_376"/>
</filter>
<filter id="filter1_f_1022_376" x="363" y="35" width="158" height="158" filterUnits="userSpaceOnUse" color-interpolation-filters="sRGB">
<feFlood flood-opacity="0" result="BackgroundImageFix"/>
<feBlend mode="normal" in="SourceGraphic" in2="BackgroundImageFix" result="shape"/>
<feGaussianBlur stdDeviation="25" result="effect1_foregroundBlur_1022_376"/>
</filter>
<filter id="filter2_f_1022_376" x="329" y="287" width="158" height="158" filterUnits="userSpaceOnUse" color-interpolation-filters="sRGB">
<feFlood flood-opacity="0" result="BackgroundImageFix"/>
<feBlend mode="normal" in="SourceGraphic" in2="BackgroundImageFix" result="shape"/>
<feGaussianBlur stdDeviation="25" result="effect1_foregroundBlur_1022_376"/>
</filter>
<filter id="filter3_f_1022_376" x="15" y="352" width="158" height="158" filterUnits="userSpaceOnUse" color-interpolation-filters="sRGB">
<feFlood flood-opacity="0" result="BackgroundImageFix"/>
<feBlend mode="normal" in="SourceGraphic" in2="BackgroundImageFix" result="shape"/>
<feGaussianBlur stdDeviation="25" result="effect1_foregroundBlur_1022_376"/>
</filter>
<linearGradient id="paint0_linear_1022_376" x1="230.264" y1="174.966" x2="295.035" y2="94.1987" gradientUnits="userSpaceOnUse">
<stop stop-color="#1A1918"/>
<stop offset="1" stop-color="#FFA000"/>
</linearGradient>
<linearGradient id="paint1_linear_1022_376" x1="371.126" y1="213.177" x2="435.897" y2="132.41" gradientUnits="userSpaceOnUse">
<stop stop-color="#1A1918"/>
<stop offset="1" stop-color="#FFA000"/>
</linearGradient>
<linearGradient id="paint2_linear_1022_376" x1="503.957" y1="404.296" x2="568.731" y2="323.542" gradientUnits="userSpaceOnUse">
<stop stop-color="#1A1918"/>
<stop offset="1" stop-color="#FFA000"/>
</linearGradient>
<linearGradient id="paint3_linear_1022_376" x1="503.957" y1="63.1799" x2="568.731" y2="-17.5736" gradientUnits="userSpaceOnUse">
<stop stop-color="#1A1918"/>
<stop offset="1" stop-color="#FFA000"/>
</linearGradient>
<linearGradient id="paint4_linear_1022_376" x1="152.673" y1="339.888" x2="217.444" y2="259.12" gradientUnits="userSpaceOnUse">
<stop stop-color="#1A1918"/>
<stop offset="1" stop-color="#FFA000"/>
</linearGradient>
</defs>
</svg>

