<svg width="397" height="784" viewBox="0 0 397 784" fill="none" xmlns="http://www.w3.org/2000/svg">
<path d="M199.638 652.734C183.837 633.964 169.733 614.75 153.636 596.343C139.399 610.767 127.874 626.054 109.016 635.194C123.012 661.856 138.408 687.277 152.929 713.62C159.973 725.055 164.368 740.314 149.617 748.357C123.359 767.165 93.1785 778.988 61.9407 782.701C45.417 785.508 30.7224 779.365 32.1305 760.243C32.9883 722.019 36.339 683.728 34.6163 645.433C20.4557 641.568 6.34366 637.91 -8.71594 633.701C-54.8547 762.169 -38.1694 752.837 -151.031 691.85C-166.323 683.391 -167.676 673.66 -154.975 660.13C-134.73 638.295 -113.796 618.472 -93.3852 596.643C-123.609 575.912 -155.855 558.653 -187.517 539.23C-212.437 658.86 -183.574 681.929 -301.604 608.899C-319.734 598.341 -336.511 581.684 -315.81 562.261C-294.568 538.86 -274.838 517.619 -254.097 493.48C-268.324 480.723 -283.596 470.488 -297.464 457.404C-387.646 556.913 -367.39 583.286 -458.008 470.595C-482.341 442.652 -469.154 430.032 -438.292 418.583C-411.153 408.006 -383.582 398.576 -356.394 388.207L-370.203 345.824C-401.409 343.304 -432.177 337.78 -462.107 329.325C-495.774 323.222 -484.726 284.495 -471.459 261.279C-416.428 166.785 -413.884 176.942 -344.557 243.25C-330.088 220.513 -314.346 198.623 -297.415 177.699C-377.21 137.935 -405.05 155.526 -328.939 70.4475C-316.729 56.4533 -296.528 37.4541 -284.203 60.0136C-269.472 82.3643 -255.889 104.941 -241.095 127.329L-216.794 114.653C-217.387 90.2509 -253.768 16.0327 -218.956 8.40445C-192.581 3.64301 -117.417 -13.5738 -116.433 28.315C-120.783 55.8298 -132.16 81.7564 -138.084 109.07C-122.68 114.285 -108.15 119.259 -92.5806 124.481C-76.3211 80.2927 -83.5004 11.2759 -19.0761 45.039C81.1399 80.2402 38.8522 95.7663 -12.2369 164.027C10.295 178.938 31.3208 190.914 54.9949 204.881C87.2335 83.4311 69.8289 92.2541 174.055 149.912C193.604 157.452 196.721 176.794 179.485 190.992C160.693 212.511 140.861 232.619 122.813 254.75C140.135 270.472 157.258 285.809 175.173 301.966C230.774 193.854 221.523 161.37 324.163 251.819C339.877 263.474 347.158 286.852 325.7 298.859C291.152 322.738 257.853 347.523 222.416 370.169L230.206 398.047C274.918 388.985 320.065 383.323 365.271 381.106C394.446 376.187 400.797 404.21 393.741 428.092C385.8 450.296 375.77 501.51 346.383 498.079C304.274 494.124 264.442 481.032 224.526 468.518L205.331 513.679C231.959 530.707 260.162 545.612 287.102 562.105C303.531 570.064 314.418 586.957 302.037 604.876C288.202 625.436 269.125 641.78 252.457 659.797C231.677 685.165 216.05 672.487 199.638 652.734ZM-202.796 382.149C-184.595 376.025 -137.072 382.596 -135.357 357.571C-127.562 279.836 -106.067 279.387 -189.536 268.158C-197.836 267.885 -209.679 265.996 -215.134 275.071C-222.737 291.033 -250.216 322.964 -232.966 337.213C-208.087 352.596 -202.738 310.728 -187.171 301.283C-176.745 301.393 -166.414 302.643 -156.351 305.012L-161.608 348.901C-194.688 350.651 -227.256 361.107 -260.297 361.628C-255.625 324.554 -253.31 289.057 -247.976 252.01C-199.14 249.061 -151.212 243.169 -103.022 242.348C-91.8196 338.301 -83.5813 434.406 -72.6068 530.315C-71.0251 543.578 -60.15 549.017 -47.8984 548.461C1.76502 548.885 51.4155 549.333 101.053 549.802C121.93 549.977 127.472 544.529 129.352 522.999L139.706 404.991C140.745 387.084 150.134 358.033 123.644 358.345C97.1532 358.657 71.8243 357.41 45.9121 357.164C33.1505 356.708 27.716 362.843 23.233 374.899C11.6267 406.594 0.540386 438.413 -11.6733 469.844C-17.5128 484.955 -13.4426 497.431 6.00623 496.864C25.4551 496.296 45.5356 496.096 65.3393 495.646C83.2961 495.462 86.762 490.236 89.7248 473.092C87.9111 453.256 99.859 414.874 83.416 402.436C50.6626 395.345 59.5128 442.173 54.9844 462.876L23.2216 460.476C28.2996 437.23 39.8603 415.346 47.2855 392.573C48.8074 388.362 51.5631 387.552 55.3391 387.605C74.1462 388.721 92.9926 386.282 111.444 389.606C106.97 431.714 104.294 473.35 97.8326 515.821C62.2251 516.1 27.2497 514.422 -8.26044 513.953C-16.5219 513.613 -24.1518 513.641 -32.2627 513.478C-40.3736 513.316 -40.3298 512.804 -41.2711 504.834C-52.917 413.273 -63.8388 321.776 -76.6413 230.168C-77.902 215.483 -87.1787 212.673 -100.276 213.81C-140.385 214.895 -180.508 216.003 -220.643 217.132C-242.406 219.93 -280.47 210.192 -280.516 243.97C-286.636 404.239 -327.079 405.995 -202.796 382.149Z" fill="#FFA80F" fill-opacity="0.1"/>
</svg>
