<svg width="193" height="279" viewBox="0 0 193 279" fill="none" xmlns="http://www.w3.org/2000/svg">
<path d="M110.351 102.691L152.085 110.117C155.045 110.644 157.369 112.952 157.912 115.91L166.324 161.671C167.269 166.814 162.597 171.219 157.518 169.974L112.331 158.886C109.413 158.167 107.242 155.715 106.89 152.728L101.93 110.63C101.367 105.828 105.594 101.843 110.351 102.691ZM77.8995 175.077C78.2513 178.063 80.4192 180.518 83.3404 181.234L193.66 208.306C198.738 209.552 203.411 205.146 202.466 200.003L181.925 88.2835C181.382 85.3253 179.062 83.014 176.102 82.4873L150.21 77.8819L148.526 42.1891C148.381 39.0601 146.231 36.3875 143.211 35.566C138.241 34.2116 133.494 38.3568 134.165 43.4649L138.403 75.7806L124.682 73.339L123.036 38.4399C122.873 34.9929 120.292 32.1433 116.878 31.6405L115.517 31.4388C110.65 30.7233 106.509 34.9807 107.36 39.8251L112.876 71.2374L100.116 68.9674L98.5052 34.836C98.347 31.4939 95.915 28.6961 92.6249 28.0816L92.3751 28.0348C87.5187 27.1248 83.2033 31.26 83.905 36.1514L88.3096 66.8661L74.209 64.3585C69.4519 63.5101 65.2247 67.4956 65.7889 72.2973L67.6843 88.3707L40.2634 80.1107C35.9347 78.806 31.4835 81.762 31.0067 86.2579L30.7227 88.9438C30.3019 92.9065 33.1717 96.4618 37.1335 96.8845L69.0879 100.28L70.604 113.151L40.2955 109.929C36.3339 109.507 32.7793 112.379 32.3582 116.341L32.2653 117.228C31.8107 121.504 35.1732 125.226 39.4721 125.208L72.0076 125.061L73.6383 138.901L43.2257 135.669C39.2642 135.247 35.7095 138.118 35.2884 142.081L35.0275 144.535C34.5599 148.948 38.1481 152.735 42.5776 152.506L75.0391 150.814L77.8995 175.077Z" fill="#2E2516"/>
<path d="M212.73 188.414L227.615 185.779C231.309 185.126 233.776 181.599 233.121 177.905C232.609 175.024 230.312 172.793 227.417 172.367L219.37 171.184C216.476 170.759 214.18 168.53 213.665 165.652L204.998 116.865C204.5 114.053 205.809 111.232 208.279 109.799L213.077 107.017C215.499 105.613 216.811 102.87 216.385 100.104L216.343 99.8478C215.773 96.1379 212.304 93.5938 208.593 94.167L196.476 96.0329C192.707 96.6131 190.155 100.18 190.821 103.936L204.855 182.912C205.51 186.606 209.036 189.068 212.73 188.414Z" fill="#2E2516"/>
<path d="M91.2409 217.527C94.0167 218.32 96.9925 217.298 98.6952 214.969L103.735 208.078C105.438 205.75 108.41 204.729 111.184 205.52L157.617 218.747C160.255 219.5 162.196 221.746 162.561 224.465L163.403 230.79C163.76 233.451 165.63 235.665 168.197 236.46L168.577 236.577C172.211 237.705 176.072 235.67 177.197 232.036L180.767 220.513C181.911 216.818 179.792 212.905 176.071 211.846L99.1169 189.922C95.4581 188.879 91.6439 191.001 90.6004 194.659L86.5066 209.007C85.4605 212.669 87.5807 216.483 91.2409 217.527Z" fill="#2E2516"/>
<path d="M205.152 61.5492C205.455 61.8705 205.532 62.245 205.382 62.6598C205.232 63.0751 204.933 63.3127 204.495 63.3661L191.61 64.9349C191.214 64.9828 190.888 64.8485 190.637 64.5388C190.385 64.2287 190.326 63.8792 190.459 63.502L194.343 52.3929C194.408 52.212 194.499 52.0655 194.621 51.9511C194.758 51.8219 194.93 51.7362 195.14 51.6912C195.536 51.6061 195.877 51.7121 196.154 52.0059L205.152 61.5492ZM192.705 40.2524C188.303 41.1902 184.791 44.2825 183.305 48.5304L179.42 59.6398C177.951 63.8371 178.739 68.4087 181.527 71.8707C184.315 75.3327 188.613 77.0792 193.024 76.5436L205.909 74.9749C208.68 74.6392 211.185 73.4363 213.128 71.605C214.557 70.2579 215.681 68.5695 216.381 66.6358C218.028 62.0778 216.985 57.0553 213.659 53.5282L204.661 43.9849C201.575 40.7112 197.106 39.3144 192.705 40.2524Z" fill="#2E2516"/>
<path d="M59.974 199.756C59.5511 199.882 59.1818 199.783 58.8789 199.462L49.8811 189.918C49.604 189.625 49.5182 189.278 49.6265 188.888C49.6837 188.68 49.7795 188.513 49.9164 188.384C50.0378 188.27 50.1894 188.187 50.3738 188.134L61.692 184.909C62.0766 184.799 62.4218 184.878 62.7165 185.147C63.011 185.416 63.1259 185.75 63.0548 186.142L60.7312 198.913C60.6519 199.347 60.3974 199.632 59.974 199.756ZM74.5603 188.236C75.3543 183.864 73.8635 179.471 70.5714 176.484C67.279 173.497 62.7619 172.442 58.4851 173.662L47.1669 176.887C42.8389 178.121 39.5456 181.445 38.3507 185.784C37.1555 190.123 38.2871 194.666 41.3738 197.939L50.3716 207.483C53.6972 211.01 58.6497 212.346 63.2966 210.97C65.2681 210.385 67.0168 209.365 68.4484 208.015C70.3908 206.183 71.7388 203.753 72.2368 201.007L74.5603 188.236Z" fill="#2E2516"/>
<path d="M228.256 221.769C228.383 222.191 228.284 222.56 227.963 222.862L218.419 231.861C218.127 232.136 217.779 232.223 217.39 232.116C217.001 232.009 216.747 231.758 216.638 231.368L213.409 220.049C213.3 219.665 213.381 219.32 213.649 219.024C213.672 218.999 213.696 218.974 213.721 218.951C213.976 218.71 214.286 218.621 214.643 218.688L227.413 221.012C227.846 221.092 228.132 221.345 228.256 221.769ZM216.736 207.182C212.364 206.386 207.971 207.876 204.984 211.169C201.998 214.462 200.942 218.981 202.162 223.255L205.391 234.575C206.624 238.902 209.95 242.198 214.287 243.393C218.627 244.585 223.168 243.458 226.443 240.37L235.987 231.372C239.513 228.047 240.848 223.095 239.47 218.447C238.093 213.799 234.275 210.373 229.506 209.506L216.736 207.182Z" fill="#2E2516"/>
<path d="M48.8325 35.6971L38.6692 45.2795L72.6029 81.2703L82.7662 71.6879L48.8325 35.6971Z" fill="#2E2516"/>
<path d="M47.4441 35.8026L37.7042 44.9858C35.1268 47.4159 31.0681 47.2957 28.6383 44.7186C26.2083 42.1413 26.3269 38.0825 28.9042 35.6524L38.6442 26.4692C41.2184 24.042 45.2803 24.1593 47.7104 26.7367C50.1401 29.3137 50.0184 33.3755 47.4441 35.8026ZM20.2459 16.8901C10.3535 26.2171 9.89429 41.8012 19.2232 51.6956C28.5521 61.5901 44.1366 62.0481 54.029 52.7211C63.9245 43.3911 64.3803 27.8096 55.0514 17.9152C45.7225 8.02079 30.1414 7.5601 20.2459 16.8901Z" fill="#2E2516"/>
<path d="M131.556 244.938L121.816 254.121C119.238 256.551 115.18 256.431 112.75 253.854C110.32 251.277 110.438 247.218 113.016 244.788L122.756 235.604C125.333 233.174 129.392 233.295 131.822 235.872C134.252 238.449 134.133 242.508 131.556 244.938ZM104.36 226.022C94.4677 235.349 94.0086 250.933 103.337 260.828C112.666 270.722 128.251 271.18 138.143 261.853C148.036 252.526 148.495 236.942 139.166 227.047C129.837 217.153 114.253 216.695 104.36 226.022Z" fill="#2E2516"/>
</svg>
