<svg width="314" height="847" viewBox="0 0 314 847" fill="none" xmlns="http://www.w3.org/2000/svg">
<path d="M530.333 364.908C517.421 384.308 495.387 395.856 472.879 399.261C437.312 404.644 398.871 389.722 377.607 359.709C356.344 329.696 354.7 285.421 375.786 255.285C417.662 195.459 506.596 224.153 533.901 282.645C545.984 308.547 546.088 341.229 530.333 364.908ZM608.265 256.757C556.246 145.34 386.877 90.6977 307.123 204.63C266.936 262.033 270.09 346.351 310.588 403.524C351.102 460.682 424.31 489.115 492.055 478.871C534.923 472.383 576.873 450.391 601.468 413.447C631.483 368.328 631.291 306.078 608.265 256.757Z" fill="#FAA50F" fill-opacity="0.1"/>
<path d="M32.2056 770.702H30.9027C12.4821 770.702 -1.8368 754.124 0.191839 735.169L14.7623 599.107C14.7623 568.373 38.8987 543.36 68.5879 543.36H362.074C363.436 543.36 364.532 542.225 364.532 540.814V434.366H412.879V540.814C412.879 569.876 390.134 593.432 362.074 593.432H68.5879C65.5524 593.432 63.1092 595.978 63.1092 599.107V738.696C63.1092 756.379 49.2639 770.702 32.2056 770.702Z" fill="#FAA50F" fill-opacity="0.1"/>
<path d="M813.024 770.702H764.677V699.297C764.677 683.624 752.416 670.925 737.268 670.925H179.423C164.289 670.925 152.014 683.624 152.014 699.297V770.702H103.667V646.572C103.667 632.355 114.788 620.853 128.499 620.853H788.191C801.903 620.853 813.024 632.355 813.024 646.572V770.702Z" fill="#FAA50F" fill-opacity="0.1"/>
<path d="M276.724 500.449L81.2051 514.067C66.7826 515.064 54.5515 503.209 54.5515 488.241V474.638C54.5515 460.345 65.731 448.766 79.5317 448.766H275.051C288.852 448.766 300.046 460.345 300.046 474.638C300.046 488.256 289.844 499.544 276.724 500.449Z" fill="#FAA50F" fill-opacity="0.1"/>
<path d="M227.977 409.567H81.3972C68.1296 409.567 57.3794 398.433 57.3794 384.692V156.168C57.3794 142.427 68.1296 131.293 81.3972 131.293H244.547C257.815 131.293 268.565 142.427 268.565 156.168V156.49C268.565 170.231 257.815 181.365 244.547 181.365H129.744C116.477 181.365 105.726 192.499 105.726 206.24V334.619C105.726 348.36 116.477 359.494 129.744 359.494H179.631C192.898 359.494 203.663 348.36 203.663 334.619V320.341C203.663 306.6 192.898 295.466 179.631 295.466C166.378 295.466 155.613 284.332 155.613 270.591V270.269C155.613 256.528 166.378 245.394 179.631 245.394H227.977C241.245 245.394 251.995 256.528 251.995 270.269V384.692C251.995 398.433 241.245 409.567 227.977 409.567Z" fill="#FAA50F" fill-opacity="0.1"/>
<path d="M365.006 733.329C358.846 733.329 353.841 738.512 353.841 744.892V785.364C353.841 791.744 358.846 796.928 365.006 796.928H544.297C550.442 796.928 555.462 791.744 555.462 785.364V744.892C555.462 738.512 550.442 733.329 544.297 733.329H365.006ZM544.297 847H365.006C332.193 847 305.495 819.349 305.495 785.364V744.892C305.495 710.907 332.193 683.256 365.006 683.256H544.297C577.11 683.256 603.808 710.907 603.808 744.892V785.364C603.808 819.349 577.11 847 544.297 847Z" fill="#FAA50F" fill-opacity="0.1"/>
<path d="M190.795 794.918C177.454 794.918 166.629 783.707 166.629 769.874V733.328C166.629 719.495 177.454 708.3 190.795 708.3C204.152 708.3 214.976 719.495 214.976 733.328V769.874C214.976 783.707 204.152 794.918 190.795 794.918Z" fill="#FAA50F" fill-opacity="0.1"/>
<path d="M260.228 794.918C246.887 794.918 236.062 783.707 236.062 769.874V733.328C236.062 719.495 246.887 708.3 260.228 708.3C273.585 708.3 284.409 719.495 284.409 733.328V769.874C284.409 783.707 273.585 794.918 260.228 794.918Z" fill="#FAA50F" fill-opacity="0.1"/>
</svg>
