<svg width="400" height="797" viewBox="0 0 400 797" fill="none" xmlns="http://www.w3.org/2000/svg">
<path d="M315.137 293.263L434.321 314.47C442.775 315.975 449.41 322.567 450.961 331.015L474.985 461.698C477.684 476.385 464.341 488.966 449.837 485.408L320.793 453.744C312.459 451.691 306.26 444.687 305.255 436.16L291.091 315.935C289.48 302.223 301.552 290.841 315.137 293.263ZM222.464 499.981C223.468 508.509 229.659 515.521 238.002 517.565L553.049 594.878C567.553 598.435 580.896 585.854 578.198 571.167L519.539 252.119C517.989 243.671 511.362 237.07 502.908 235.566L428.966 222.414L424.158 120.483C423.743 111.547 417.604 103.915 408.978 101.569C394.786 97.7011 381.23 109.539 383.145 124.127L395.249 216.413L356.065 209.441L351.363 109.776C350.897 99.9323 343.527 91.7944 333.777 90.3583L329.892 89.7823C315.993 87.7391 304.166 99.8975 306.598 113.732L322.348 203.439L285.909 196.956L281.309 99.4841C280.857 89.9397 273.912 81.9499 264.516 80.195L263.803 80.0615C249.934 77.4625 237.61 89.2719 239.614 103.241L252.192 190.955L211.924 183.794C198.339 181.371 186.267 192.753 187.878 206.466L193.291 252.368L114.983 228.779C102.621 225.053 89.9093 233.495 88.5478 246.334L87.7368 254.004C86.5349 265.321 94.7305 275.474 106.045 276.681L197.3 286.379L201.629 323.135L115.075 313.935C103.761 312.729 93.61 320.929 92.4073 332.245L92.1421 334.778C90.8439 346.99 100.446 357.62 112.723 357.568L205.637 357.147L210.295 396.673L123.443 387.442C112.129 386.236 101.978 394.436 100.775 405.752L100.03 412.762C98.6948 425.362 108.942 436.177 121.592 435.524L214.295 430.693L222.464 499.981Z" fill="#2E2516"/>
<path d="M260.564 621.212C268.491 623.475 276.989 620.556 281.852 613.905L296.244 594.228C301.107 587.577 309.594 584.664 317.516 586.923L450.12 624.696C457.654 626.845 463.198 633.259 464.238 641.023L466.643 659.087C467.663 666.687 473.004 673.01 480.333 675.28L481.42 675.614C491.795 678.836 502.823 673.025 506.034 662.646L516.231 629.738C519.499 619.187 513.445 608.012 502.819 604.988L283.056 542.377C272.607 539.398 261.715 545.459 258.734 555.905L247.043 596.881C244.056 607.337 250.111 618.228 260.564 621.212Z" fill="#2E2516"/>
<path d="M171.272 570.461C170.065 570.819 169.01 570.537 168.145 569.62L142.449 542.366C141.658 541.527 141.413 540.537 141.722 539.423C141.885 538.83 142.159 538.354 142.55 537.985C142.897 537.659 143.33 537.423 143.856 537.269L176.179 528.06C177.277 527.747 178.263 527.973 179.104 528.741C179.945 529.508 180.273 530.462 180.07 531.582L173.435 568.053C173.208 569.291 172.481 570.106 171.272 570.461ZM212.928 537.562C215.195 525.077 210.938 512.53 201.536 504.001C192.134 495.471 179.234 492.457 167.02 495.942L134.698 505.151C122.338 508.676 112.933 518.167 109.521 530.559C106.107 542.95 109.339 555.924 118.154 565.273L143.85 592.526C153.347 602.599 167.49 606.415 180.761 602.485C186.391 600.816 191.385 597.902 195.473 594.046C201.02 588.816 204.87 581.875 206.292 574.033L212.928 537.562Z" fill="#2E2516"/>
<path d="M139.454 101.943L110.43 129.309L207.337 232.09L236.362 204.725L139.454 101.943Z" fill="#2E2516"/>
<path d="M135.49 102.245L107.675 128.47C100.314 135.41 88.7233 135.067 81.7845 127.707C74.8448 120.347 75.1835 108.756 82.5439 101.816L110.359 75.5907C117.711 68.6593 129.311 68.9943 136.25 76.3546C143.189 83.7141 142.842 95.3136 135.49 102.245ZM57.8175 48.2348C29.5669 74.8708 28.2556 119.376 54.8969 147.632C81.5382 175.888 126.044 177.197 154.295 150.561C182.554 123.916 183.856 79.4188 157.215 51.1625C130.573 22.9061 86.0771 21.5905 57.8175 48.2348Z" fill="#2E2516"/>
<path d="M375.694 699.491L347.879 725.716C340.518 732.656 328.928 732.313 321.988 724.953C315.049 717.593 315.387 706.001 322.748 699.062L350.563 672.836C357.923 665.897 369.514 666.24 376.454 673.6C383.394 680.961 383.054 692.551 375.694 699.491ZM298.029 645.471C269.779 672.107 268.468 716.612 295.109 744.869C321.75 773.125 366.256 774.433 394.507 747.797C422.757 721.161 424.068 676.655 397.427 648.399C370.785 620.143 326.28 618.835 298.029 645.471Z" fill="#2E2516"/>
</svg>
