<svg width="414" height="282" viewBox="0 0 414 282" fill="none" xmlns="http://www.w3.org/2000/svg">
<path style="mix-blend-mode:overlay" d="M388.284 233.338H411.03V125.19H388.284V233.338Z" fill="url(#paint0_linear_1658_689)"/>
<g style="mix-blend-mode:overlay">
<g opacity="0.7">
<path style="mix-blend-mode:screen" d="M33.994 233.338H96.3926L96.3926 0.000244141H33.994L33.994 233.338Z" fill="url(#paint1_linear_1658_689)"/>
</g>
<g opacity="0.7">
<path style="mix-blend-mode:screen" d="M378.626 0H317.763V233.338H378.626V0Z" fill="url(#paint2_linear_1658_689)"/>
</g>
</g>
<path style="mix-blend-mode:overlay" d="M3.63461 233.344H26.3813L26.3813 132.864H3.63461L3.63461 233.344Z" fill="url(#paint3_linear_1658_689)"/>
<g style="mix-blend-mode:overlay" opacity="0.7">
<path d="M307.375 196.586H306.755V160.362L295.196 150.279V117.499L295.292 117.421L319.63 96.184V49.1738H320.257V96.4123L320.168 96.4905L295.823 117.727V150.051L307.375 160.134V196.586Z" fill="url(#paint4_linear_1658_689)"/>
<path d="M307.106 200.005C306.685 200.005 306.274 199.896 305.924 199.692C305.574 199.488 305.301 199.198 305.14 198.859C304.978 198.519 304.936 198.146 305.018 197.786C305.101 197.426 305.303 197.095 305.601 196.835C305.899 196.575 306.278 196.399 306.691 196.327C307.104 196.255 307.532 196.292 307.921 196.433C308.31 196.573 308.642 196.811 308.876 197.117C309.11 197.422 309.235 197.781 309.235 198.148C309.233 198.64 309.008 199.111 308.609 199.459C308.211 199.807 307.67 200.003 307.106 200.005ZM307.106 196.838C306.809 196.838 306.519 196.915 306.272 197.059C306.025 197.203 305.832 197.407 305.719 197.647C305.605 197.886 305.575 198.15 305.633 198.404C305.691 198.658 305.834 198.891 306.044 199.074C306.254 199.258 306.522 199.382 306.813 199.433C307.104 199.484 307.406 199.458 307.681 199.358C307.955 199.259 308.19 199.091 308.355 198.876C308.52 198.66 308.608 198.407 308.608 198.148C308.601 197.804 308.44 197.477 308.159 197.235C307.878 196.994 307.5 196.858 307.106 196.856V196.838Z" fill="url(#paint5_linear_1658_689)"/>
<path d="M319.947 49.4442C319.526 49.4453 319.114 49.3375 318.763 49.1342C318.412 48.9308 318.138 48.6413 317.976 48.3021C317.813 47.9629 317.77 47.5893 317.852 47.2288C317.933 46.8682 318.135 46.5367 318.433 46.2765C318.73 46.0162 319.109 45.8387 319.522 45.7666C319.935 45.6945 320.364 45.7309 320.753 45.8712C321.143 46.0116 321.475 46.2496 321.71 46.5551C321.944 46.8606 322.069 47.2198 322.069 47.5873C322.069 48.0787 321.845 48.5501 321.448 48.8982C321.05 49.2462 320.51 49.4426 319.947 49.4442ZM319.947 46.2773C319.65 46.2773 319.36 46.3541 319.113 46.4981C318.866 46.642 318.673 46.8466 318.56 47.086C318.446 47.3254 318.416 47.5888 318.474 47.8429C318.532 48.097 318.675 48.3304 318.885 48.5136C319.095 48.6968 319.363 48.8216 319.654 48.8721C319.945 48.9227 320.247 48.8968 320.522 48.7976C320.796 48.6984 321.031 48.5305 321.196 48.3151C321.361 48.0997 321.449 47.8464 321.449 47.5873C321.447 47.2404 321.288 46.9081 321.007 46.6627C320.726 46.4174 320.345 46.2789 319.947 46.2773Z" fill="url(#paint6_linear_1658_689)"/>
<path d="M313.306 223.075H312.679V186.851L301.127 176.768V122.769L301.216 122.685L325.561 101.448V75.6624H326.188V101.676L326.092 101.754L301.754 122.991V176.539L313.306 186.623V223.075Z" fill="url(#paint7_linear_1658_689)"/>
<path d="M313.038 226.512C312.617 226.512 312.205 226.403 311.855 226.199C311.505 225.995 311.232 225.705 311.071 225.366C310.91 225.026 310.868 224.653 310.95 224.293C311.032 223.932 311.235 223.602 311.532 223.342C311.83 223.082 312.209 222.905 312.622 222.834C313.035 222.762 313.463 222.799 313.852 222.939C314.241 223.08 314.574 223.318 314.807 223.623C315.041 223.929 315.166 224.288 315.166 224.655C315.164 225.147 314.94 225.618 314.541 225.966C314.142 226.314 313.602 226.51 313.038 226.512ZM313.038 223.345C312.741 223.345 312.45 223.422 312.203 223.566C311.956 223.71 311.764 223.914 311.65 224.154C311.536 224.393 311.507 224.656 311.565 224.911C311.623 225.165 311.766 225.398 311.976 225.581C312.186 225.764 312.453 225.889 312.745 225.94C313.036 225.99 313.338 225.964 313.612 225.865C313.887 225.766 314.121 225.598 314.286 225.383C314.451 225.167 314.539 224.914 314.539 224.655C314.538 224.308 314.379 223.976 314.097 223.73C313.816 223.485 313.435 223.347 313.038 223.345Z" fill="url(#paint8_linear_1658_689)"/>
<path d="M325.871 75.9327C325.45 75.9327 325.039 75.8238 324.688 75.6198C324.338 75.4157 324.066 75.1257 323.904 74.7864C323.743 74.4471 323.701 74.0738 323.783 73.7136C323.865 73.3534 324.068 73.0225 324.366 72.7629C324.664 72.5032 325.043 72.3263 325.456 72.2547C325.869 72.183 326.297 72.2198 326.686 72.3603C327.075 72.5009 327.407 72.7389 327.641 73.0442C327.875 73.3496 328 73.7086 328 74.0758C328 74.5683 327.775 75.0406 327.376 75.3888C326.977 75.7371 326.436 75.9327 325.871 75.9327ZM325.871 72.7658C325.574 72.767 325.285 72.8449 325.039 72.9895C324.793 73.1342 324.601 73.3392 324.489 73.5787C324.376 73.8181 324.347 74.0814 324.406 74.3351C324.465 74.5888 324.608 74.8217 324.818 75.0043C325.029 75.1869 325.296 75.311 325.588 75.3611C325.879 75.4112 326.18 75.3849 326.454 75.2855C326.728 75.1862 326.962 75.0183 327.127 74.803C327.292 74.5877 327.38 74.3347 327.38 74.0758C327.378 73.7279 327.218 73.3947 326.935 73.1492C326.653 72.9037 326.27 72.7658 325.871 72.7658Z" fill="url(#paint9_linear_1658_689)"/>
<path d="M333.842 230.262H333.215L333.284 196.881L343.776 187.734V134.186L332.216 124.103V87.6509H332.843V123.88L344.396 133.958V187.957L344.306 188.041L333.911 197.109L333.842 230.262Z" fill="url(#paint10_linear_1658_689)"/>
<path d="M332.485 87.921C332.064 87.921 331.652 87.8121 331.302 87.608C330.952 87.404 330.679 87.114 330.518 86.7747C330.357 86.4354 330.315 86.0621 330.397 85.7019C330.479 85.3417 330.682 85.0108 330.98 84.7511C331.277 84.4915 331.657 84.3146 332.07 84.243C332.482 84.1713 332.91 84.2081 333.299 84.3486C333.688 84.4892 334.021 84.7272 334.255 85.0325C334.489 85.3379 334.613 85.6969 334.613 86.0641C334.613 86.5566 334.389 87.0289 333.99 87.3771C333.591 87.7253 333.049 87.921 332.485 87.921ZM332.485 84.7541C332.188 84.7541 331.897 84.8309 331.65 84.9749C331.404 85.1188 331.211 85.3234 331.097 85.5628C330.984 85.8022 330.954 86.0656 331.012 86.3197C331.07 86.5738 331.213 86.8072 331.423 86.9904C331.633 87.1736 331.901 87.2984 332.192 87.349C332.483 87.3995 332.785 87.3736 333.06 87.2744C333.334 87.1753 333.568 87.0074 333.733 86.7919C333.898 86.5765 333.987 86.3232 333.987 86.0641C333.985 85.7172 333.826 85.3849 333.545 85.1396C333.263 84.8942 332.883 84.7557 332.485 84.7541Z" fill="url(#paint11_linear_1658_689)"/>
<path d="M316.689 177.026H316.069V129.788L316.158 129.709L340.503 108.473V76.1492L328.944 66.0657V29.6138H329.571V65.8434L341.13 75.9208V108.701L341.034 108.779L316.689 130.016V177.026Z" fill="url(#paint12_linear_1658_689)"/>
<path d="M329.199 29.8841C328.778 29.8841 328.366 29.7752 328.016 29.5712C327.666 29.3671 327.393 29.0771 327.232 28.7378C327.071 28.3986 327.029 28.0252 327.111 27.665C327.193 27.3048 327.396 26.974 327.694 26.7143C327.991 26.4546 328.371 26.2777 328.783 26.2061C329.196 26.1344 329.624 26.1712 330.013 26.3118C330.402 26.4523 330.735 26.6903 330.969 26.9956C331.202 27.301 331.327 27.66 331.327 28.0273C331.328 28.2713 331.274 28.5131 331.167 28.7388C331.061 28.9644 330.904 29.1694 330.706 29.342C330.508 29.5146 330.273 29.6514 330.014 29.7444C329.756 29.8374 329.479 29.8849 329.199 29.8841ZM329.199 26.7172C328.902 26.7184 328.612 26.7963 328.366 26.9409C328.12 27.0856 327.929 27.2906 327.816 27.5301C327.704 27.7696 327.675 28.0328 327.734 28.2865C327.792 28.5402 327.936 28.7731 328.146 28.9557C328.356 29.1383 328.624 29.2625 328.915 29.3125C329.206 29.3626 329.508 29.3363 329.782 29.237C330.056 29.1376 330.29 28.9697 330.455 28.7544C330.619 28.5391 330.707 28.2861 330.707 28.0273C330.706 27.6793 330.546 27.3461 330.263 27.1006C329.98 26.8551 329.598 26.7172 329.199 26.7172Z" fill="url(#paint13_linear_1658_689)"/>
<path d="M316.379 180.463C315.958 180.463 315.546 180.354 315.196 180.15C314.846 179.946 314.573 179.656 314.412 179.317C314.251 178.977 314.209 178.604 314.291 178.244C314.373 177.884 314.576 177.553 314.873 177.293C315.171 177.033 315.55 176.857 315.963 176.785C316.376 176.713 316.804 176.75 317.193 176.891C317.582 177.031 317.915 177.269 318.149 177.575C318.382 177.88 318.507 178.239 318.507 178.606C318.507 179.099 318.283 179.571 317.884 179.919C317.485 180.267 316.943 180.463 316.379 180.463ZM316.379 177.296C316.08 177.295 315.787 177.371 315.538 177.515C315.289 177.66 315.094 177.865 314.979 178.106C314.864 178.346 314.834 178.612 314.892 178.867C314.95 179.123 315.094 179.358 315.305 179.543C315.516 179.727 315.786 179.853 316.079 179.903C316.372 179.954 316.676 179.927 316.952 179.827C317.228 179.726 317.464 179.557 317.629 179.34C317.794 179.122 317.882 178.867 317.88 178.606C317.879 178.259 317.72 177.927 317.439 177.682C317.157 177.436 316.776 177.298 316.379 177.296Z" fill="url(#paint14_linear_1658_689)"/>
<path d="M301.877 229.03H301.257V191.797L294.134 185.589V159.773H294.761V185.361L301.877 191.574V229.03Z" fill="url(#paint15_linear_1658_689)"/>
<path d="M294.445 160.206C294.024 160.206 293.612 160.097 293.262 159.893C292.912 159.689 292.639 159.399 292.478 159.06C292.317 158.721 292.275 158.347 292.357 157.987C292.439 157.627 292.642 157.296 292.94 157.036C293.237 156.777 293.617 156.6 294.03 156.528C294.442 156.456 294.87 156.493 295.259 156.634C295.648 156.774 295.981 157.012 296.215 157.318C296.449 157.623 296.573 157.982 296.573 158.349C296.573 158.842 296.349 159.314 295.95 159.662C295.551 160.01 295.009 160.206 294.445 160.206ZM294.445 157.039C294.148 157.04 293.858 157.118 293.612 157.263C293.366 157.408 293.175 157.613 293.062 157.852C292.95 158.092 292.921 158.355 292.98 158.609C293.038 158.862 293.182 159.095 293.392 159.278C293.603 159.46 293.87 159.584 294.161 159.635C294.452 159.685 294.754 159.658 295.028 159.559C295.302 159.46 295.536 159.292 295.701 159.076C295.866 158.861 295.953 158.608 295.953 158.349C295.953 158.177 295.914 158.006 295.838 157.847C295.763 157.687 295.651 157.543 295.511 157.421C295.371 157.299 295.205 157.203 295.022 157.137C294.839 157.072 294.643 157.038 294.445 157.039Z" fill="url(#paint16_linear_1658_689)"/>
<path d="M301.568 232.113C301.147 232.113 300.735 232.004 300.385 231.8C300.035 231.596 299.762 231.306 299.601 230.966C299.44 230.627 299.398 230.254 299.48 229.894C299.562 229.533 299.765 229.202 300.063 228.943C300.36 228.683 300.74 228.506 301.153 228.435C301.565 228.363 301.993 228.4 302.382 228.54C302.771 228.681 303.104 228.919 303.338 229.224C303.572 229.53 303.696 229.889 303.696 230.256C303.695 230.748 303.47 231.219 303.071 231.567C302.672 231.915 302.132 232.111 301.568 232.113ZM301.568 228.946C301.271 228.946 300.98 229.023 300.734 229.167C300.487 229.31 300.294 229.515 300.18 229.754C300.067 229.994 300.037 230.257 300.095 230.511C300.153 230.765 300.296 230.999 300.506 231.182C300.716 231.365 300.984 231.49 301.275 231.541C301.566 231.591 301.868 231.565 302.143 231.466C302.417 231.367 302.651 231.199 302.817 230.984C302.982 230.768 303.07 230.515 303.07 230.256C303.068 229.909 302.909 229.577 302.628 229.331C302.346 229.086 301.966 228.947 301.568 228.946Z" fill="url(#paint17_linear_1658_689)"/>
<path d="M310.978 91.106H310.358V53.8789L303.235 47.6653V21.8557H303.862V47.443L310.978 53.6505V91.106Z" fill="url(#paint18_linear_1658_689)"/>
<path d="M303.545 22.2825C303.123 22.2825 302.712 22.1735 302.361 21.9692C302.011 21.7649 301.738 21.4745 301.577 21.1349C301.416 20.7952 301.375 20.4216 301.457 20.0612C301.54 19.7009 301.744 19.37 302.042 19.1106C302.34 18.8511 302.72 18.6748 303.134 18.6038C303.547 18.5328 303.975 18.5705 304.364 18.7119C304.753 18.8534 305.085 19.0923 305.318 19.3985C305.551 19.7046 305.675 20.0642 305.673 20.4317C305.673 20.6753 305.618 20.9164 305.511 21.1414C305.404 21.3663 305.247 21.5706 305.049 21.7426C304.852 21.9145 304.617 22.0507 304.359 22.1434C304.1 22.2361 303.824 22.2833 303.545 22.2825ZM303.545 19.1217C303.25 19.1288 302.963 19.2116 302.722 19.3598C302.48 19.508 302.294 19.715 302.187 19.9549C302.08 20.1948 302.056 20.457 302.118 20.7087C302.181 20.9604 302.327 21.1904 302.539 21.37C302.75 21.5496 303.018 21.6709 303.308 21.7186C303.598 21.7663 303.898 21.7383 304.17 21.6382C304.442 21.538 304.674 21.3702 304.837 21.1556C305 20.941 305.088 20.6892 305.088 20.4317C305.087 20.2571 305.046 20.0844 304.968 19.9238C304.889 19.7631 304.775 19.6178 304.631 19.4963C304.487 19.3748 304.317 19.2796 304.13 19.2163C303.944 19.153 303.745 19.1229 303.545 19.1277V19.1217Z" fill="url(#paint19_linear_1658_689)"/>
<path d="M310.668 94.189C310.246 94.189 309.835 94.08 309.484 93.8757C309.134 93.6714 308.861 93.381 308.7 93.0414C308.54 92.7017 308.498 92.3281 308.58 91.9677C308.663 91.6074 308.867 91.2765 309.165 91.0171C309.463 90.7576 309.843 90.5813 310.257 90.5103C310.67 90.4393 311.098 90.477 311.487 90.6184C311.876 90.7599 312.208 90.9988 312.441 91.305C312.674 91.6111 312.798 91.9707 312.796 92.3382C312.794 92.8296 312.569 93.3004 312.17 93.6473C311.771 93.9942 311.231 94.189 310.668 94.189ZM310.668 91.0222C310.369 91.021 310.077 91.0972 309.828 91.241C309.579 91.3849 309.384 91.59 309.269 91.8304C309.154 92.0708 309.123 92.3356 309.18 92.5912C309.238 92.8469 309.381 93.082 309.592 93.2666C309.802 93.4513 310.071 93.5772 310.364 93.6285C310.657 93.6797 310.96 93.654 311.237 93.5546C311.513 93.4552 311.749 93.2865 311.915 93.07C312.081 92.8534 312.169 92.5987 312.169 92.3382C312.169 91.9902 312.011 91.6564 311.73 91.4098C311.449 91.1631 311.067 91.0238 310.668 91.0222Z" fill="url(#paint20_linear_1658_689)"/>
<path d="M303.007 103.19H302.387V63.5055L295.264 57.2979V33.9341H295.891V57.0696L303.007 63.2831V103.19Z" fill="url(#paint21_linear_1658_689)"/>
<path d="M302.698 106.466C302.277 106.466 301.865 106.357 301.515 106.153C301.165 105.949 300.892 105.659 300.731 105.319C300.57 104.98 300.528 104.607 300.61 104.247C300.692 103.886 300.895 103.555 301.193 103.296C301.49 103.036 301.87 102.859 302.282 102.788C302.695 102.716 303.123 102.753 303.512 102.893C303.901 103.034 304.234 103.272 304.468 103.577C304.702 103.883 304.826 104.242 304.826 104.609C304.825 105.101 304.6 105.572 304.201 105.92C303.802 106.268 303.262 106.464 302.698 106.466ZM302.698 103.299C302.401 103.299 302.11 103.376 301.863 103.52C301.616 103.664 301.424 103.868 301.31 104.107C301.197 104.347 301.167 104.61 301.225 104.864C301.283 105.118 301.426 105.352 301.636 105.535C301.846 105.718 302.113 105.843 302.405 105.894C302.696 105.944 302.998 105.918 303.272 105.819C303.547 105.72 303.781 105.552 303.946 105.337C304.111 105.121 304.199 104.868 304.199 104.609C304.198 104.262 304.039 103.93 303.758 103.684C303.476 103.439 303.095 103.3 302.698 103.299Z" fill="url(#paint22_linear_1658_689)"/>
<path d="M295.575 34.5592C295.154 34.5592 294.742 34.4503 294.392 34.2462C294.042 34.0422 293.769 33.7522 293.608 33.4129C293.447 33.0736 293.405 32.7002 293.487 32.3401C293.569 31.9799 293.772 31.649 294.07 31.3893C294.367 31.1296 294.746 30.9528 295.159 30.8811C295.572 30.8095 296 30.8463 296.389 30.9868C296.778 31.1273 297.111 31.3653 297.345 31.6707C297.578 31.9761 297.703 32.3351 297.703 32.7023C297.703 32.9462 297.648 33.1876 297.541 33.4129C297.434 33.6382 297.278 33.8429 297.08 34.0153C296.882 34.1877 296.648 34.3245 296.389 34.4178C296.131 34.5111 295.854 34.5592 295.575 34.5592ZM295.575 31.3923C295.278 31.3935 294.988 31.4713 294.742 31.616C294.496 31.7607 294.305 31.9657 294.192 32.2051C294.08 32.4446 294.051 32.7078 294.11 32.9615C294.168 33.2153 294.312 33.4481 294.522 33.6307C294.732 33.8133 295 33.9375 295.291 33.9876C295.582 34.0376 295.884 34.0113 296.158 33.912C296.432 33.8127 296.666 33.6448 296.831 33.4295C296.995 33.2142 297.083 32.9611 297.083 32.7023C297.082 32.3543 296.922 32.0211 296.639 31.7756C296.356 31.5301 295.974 31.3923 295.575 31.3923Z" fill="url(#paint23_linear_1658_689)"/>
<path d="M333.084 180.962H332.464V141.277L325.341 135.069V111.706H325.968V134.847L333.084 141.055V180.962Z" fill="url(#paint24_linear_1658_689)"/>
<path d="M332.774 184.237C332.353 184.237 331.941 184.128 331.591 183.924C331.241 183.72 330.968 183.43 330.807 183.091C330.646 182.752 330.604 182.378 330.686 182.018C330.768 181.658 330.971 181.327 331.269 181.067C331.566 180.808 331.945 180.631 332.358 180.559C332.771 180.487 333.199 180.524 333.588 180.665C333.977 180.805 334.31 181.043 334.544 181.349C334.777 181.654 334.902 182.013 334.902 182.38C334.9 182.872 334.676 183.344 334.277 183.692C333.878 184.039 333.338 184.236 332.774 184.237ZM332.774 181.07C332.477 181.07 332.186 181.147 331.939 181.291C331.692 181.435 331.5 181.64 331.386 181.879C331.273 182.118 331.243 182.382 331.301 182.636C331.359 182.89 331.502 183.123 331.712 183.307C331.922 183.49 332.189 183.615 332.481 183.665C332.772 183.716 333.074 183.69 333.348 183.591C333.623 183.491 333.857 183.324 334.022 183.108C334.187 182.893 334.275 182.639 334.275 182.38C334.274 182.033 334.115 181.701 333.834 181.456C333.552 181.21 333.171 181.072 332.774 181.07Z" fill="url(#paint25_linear_1658_689)"/>
<path d="M325.657 112.331C325.236 112.332 324.824 112.224 324.473 112.021C324.122 111.817 323.848 111.528 323.686 111.189C323.524 110.849 323.481 110.476 323.562 110.115C323.643 109.755 323.846 109.423 324.143 109.163C324.44 108.903 324.82 108.725 325.233 108.653C325.646 108.581 326.074 108.617 326.464 108.758C326.853 108.898 327.186 109.136 327.42 109.442C327.654 109.747 327.779 110.106 327.779 110.474C327.777 110.965 327.554 111.435 327.156 111.783C326.759 112.131 326.22 112.327 325.657 112.331ZM325.657 109.164C325.359 109.159 325.066 109.232 324.815 109.373C324.564 109.514 324.368 109.718 324.25 109.957C324.132 110.196 324.099 110.461 324.154 110.717C324.21 110.972 324.351 111.208 324.561 111.393C324.77 111.579 325.038 111.705 325.331 111.757C325.623 111.809 325.927 111.784 326.203 111.684C326.479 111.585 326.714 111.416 326.88 111.2C327.045 110.983 327.133 110.728 327.132 110.468C327.128 110.126 326.972 109.799 326.697 109.555C326.422 109.312 326.049 109.172 325.657 109.164Z" fill="url(#paint26_linear_1658_689)"/>
<path d="M325.492 207.991H324.872V159.16L307.478 143.993V131.013H308.105V143.765L325.492 158.938V207.991Z" fill="url(#paint27_linear_1658_689)"/>
<path d="M307.788 130.995C307.367 130.995 306.955 130.886 306.605 130.682C306.255 130.478 305.982 130.187 305.821 129.848C305.66 129.508 305.618 129.134 305.701 128.774C305.784 128.414 305.987 128.083 306.285 127.823C306.584 127.564 306.964 127.387 307.377 127.316C307.79 127.245 308.219 127.283 308.607 127.425C308.996 127.566 309.328 127.805 309.561 128.111C309.794 128.417 309.918 128.777 309.917 129.144C309.917 129.388 309.862 129.629 309.755 129.854C309.647 130.079 309.491 130.283 309.293 130.455C309.095 130.627 308.86 130.763 308.602 130.856C308.344 130.949 308.067 130.996 307.788 130.995ZM307.788 127.828C307.49 127.828 307.198 127.906 306.95 128.05C306.702 128.195 306.508 128.4 306.394 128.641C306.28 128.881 306.25 129.146 306.308 129.401C306.367 129.656 306.51 129.891 306.721 130.075C306.932 130.259 307.201 130.384 307.494 130.435C307.786 130.486 308.09 130.46 308.365 130.36C308.641 130.261 308.877 130.092 309.042 129.875C309.208 129.659 309.297 129.405 309.297 129.144C309.297 128.972 309.258 128.8 309.182 128.641C309.106 128.481 308.995 128.336 308.855 128.214C308.715 128.092 308.548 127.995 308.365 127.929C308.182 127.862 307.986 127.828 307.788 127.828Z" fill="url(#paint28_linear_1658_689)"/>
<path d="M350.333 233.206H349.713V178.144L337.555 167.537V152.887H338.175V167.309L350.333 177.921V233.206Z" fill="url(#paint29_linear_1658_689)"/>
<path d="M337.865 152.953C337.551 152.954 337.244 152.874 336.982 152.723C336.72 152.571 336.516 152.355 336.395 152.103C336.275 151.85 336.243 151.571 336.304 151.303C336.364 151.034 336.516 150.787 336.737 150.594C336.959 150.4 337.242 150.268 337.55 150.215C337.858 150.162 338.178 150.19 338.467 150.295C338.757 150.4 339.005 150.579 339.178 150.807C339.352 151.035 339.444 151.303 339.442 151.577C339.44 151.941 339.274 152.29 338.978 152.548C338.683 152.806 338.283 152.951 337.865 152.953ZM337.865 150.742C337.675 150.742 337.49 150.791 337.333 150.882C337.175 150.974 337.053 151.105 336.98 151.257C336.908 151.41 336.889 151.578 336.926 151.74C336.963 151.902 337.054 152.051 337.188 152.167C337.322 152.284 337.492 152.364 337.678 152.396C337.864 152.428 338.056 152.412 338.231 152.349C338.406 152.285 338.556 152.178 338.661 152.041C338.766 151.904 338.822 151.742 338.822 151.577C338.824 151.466 338.801 151.356 338.753 151.253C338.706 151.151 338.636 151.057 338.547 150.978C338.458 150.9 338.351 150.837 338.234 150.794C338.117 150.752 337.992 150.73 337.865 150.73V150.742Z" fill="url(#paint30_linear_1658_689)"/>
<path d="M349.038 124.421H348.411V70.3744L341.571 64.4012V51.1809H342.191V64.1789L349.038 70.146V124.421Z" fill="url(#paint31_linear_1658_689)"/>
<path d="M341.833 51.1685C341.424 51.1685 341.024 51.0628 340.685 50.8647C340.345 50.6666 340.08 50.3851 339.923 50.0556C339.767 49.7262 339.726 49.3638 339.806 49.0141C339.886 48.6644 340.082 48.3431 340.371 48.091C340.66 47.8389 341.029 47.6672 341.43 47.5976C341.83 47.5281 342.246 47.5638 342.624 47.7002C343.001 47.8367 343.324 48.0677 343.551 48.3642C343.778 48.6607 343.899 49.0092 343.899 49.3658C343.899 49.8439 343.682 50.3024 343.294 50.6405C342.906 50.9786 342.381 51.1685 341.833 51.1685ZM341.833 48.0918C341.545 48.0906 341.263 48.164 341.023 48.3026C340.783 48.4412 340.596 48.6388 340.485 48.8704C340.374 49.1019 340.344 49.3571 340.399 49.6034C340.455 49.8498 340.593 50.0762 340.796 50.2542C340.999 50.4321 341.258 50.5535 341.54 50.6029C341.822 50.6523 342.114 50.6275 342.38 50.5317C342.646 50.436 342.874 50.2734 343.034 50.0648C343.194 49.8562 343.279 49.6108 343.279 49.3597C343.28 49.1935 343.244 49.0288 343.171 48.875C343.099 48.7212 342.993 48.5814 342.858 48.4635C342.724 48.3457 342.564 48.2522 342.388 48.1884C342.212 48.1246 342.023 48.0918 341.833 48.0918Z" fill="url(#paint32_linear_1658_689)"/>
<path d="M348.728 127.768C348.319 127.768 347.92 127.662 347.58 127.464C347.24 127.266 346.975 126.985 346.819 126.655C346.663 126.326 346.622 125.963 346.701 125.614C346.781 125.264 346.978 124.943 347.267 124.691C347.556 124.438 347.924 124.267 348.325 124.197C348.726 124.128 349.141 124.163 349.519 124.3C349.897 124.436 350.22 124.667 350.447 124.964C350.674 125.26 350.795 125.609 350.795 125.965C350.795 126.443 350.577 126.902 350.19 127.24C349.802 127.578 349.276 127.768 348.728 127.768ZM348.728 124.685C348.441 124.685 348.16 124.76 347.921 124.899C347.682 125.038 347.495 125.236 347.385 125.468C347.275 125.7 347.247 125.955 347.303 126.201C347.359 126.447 347.497 126.673 347.7 126.85C347.904 127.027 348.163 127.148 348.445 127.197C348.727 127.246 349.019 127.221 349.284 127.125C349.55 127.029 349.777 126.866 349.937 126.658C350.097 126.449 350.182 126.204 350.182 125.953C350.182 125.787 350.144 125.622 350.071 125.468C349.998 125.314 349.891 125.175 349.756 125.057C349.621 124.939 349.461 124.846 349.284 124.782C349.108 124.718 348.919 124.685 348.728 124.685Z" fill="url(#paint33_linear_1658_689)"/>
<path d="M295.823 66.4321H295.196V109.086H295.823V66.4321Z" fill="url(#paint34_linear_1658_689)"/>
</g>
<g style="mix-blend-mode:overlay" opacity="0.7">
<path d="M107.91 196.586H107.283V160.134L118.843 150.051V117.727L94.4082 96.4123V49.1738H95.0282V96.184L119.47 117.499V150.279L107.91 160.362V196.586Z" fill="url(#paint35_linear_1658_689)"/>
<path d="M107.559 200.005C107.138 200.006 106.725 199.898 106.374 199.695C106.023 199.492 105.75 199.202 105.587 198.863C105.425 198.524 105.382 198.15 105.463 197.79C105.545 197.429 105.747 197.098 106.044 196.837C106.342 196.577 106.721 196.4 107.134 196.327C107.547 196.255 107.976 196.292 108.365 196.432C108.754 196.572 109.087 196.81 109.321 197.116C109.556 197.421 109.681 197.781 109.681 198.148C109.681 198.64 109.457 199.111 109.06 199.459C108.662 199.807 108.122 200.003 107.559 200.005ZM107.559 196.838C107.262 196.838 106.971 196.915 106.725 197.059C106.478 197.203 106.285 197.407 106.171 197.647C106.058 197.886 106.028 198.15 106.086 198.404C106.144 198.658 106.287 198.891 106.497 199.074C106.707 199.258 106.975 199.382 107.266 199.433C107.557 199.483 107.859 199.458 108.134 199.358C108.408 199.259 108.643 199.091 108.808 198.876C108.973 198.66 109.061 198.407 109.061 198.148C109.055 197.804 108.895 197.475 108.614 197.233C108.332 196.992 107.954 196.856 107.559 196.856V196.838Z" fill="url(#paint36_linear_1658_689)"/>
<path d="M94.718 49.4439C94.297 49.4439 93.8854 49.335 93.5354 49.131C93.1853 48.927 92.9125 48.637 92.7514 48.2977C92.5903 47.9584 92.5481 47.585 92.6303 47.2248C92.7124 46.8646 92.9151 46.5338 93.2128 46.2741C93.5105 46.0144 93.8898 45.8376 94.3027 45.7659C94.7156 45.6943 95.1436 45.731 95.5326 45.8716C95.9215 46.0121 96.254 46.2501 96.4879 46.5555C96.7218 46.8608 96.8466 47.2198 96.8466 47.5871C96.8466 47.8309 96.7916 48.0724 96.6846 48.2977C96.5776 48.5229 96.4208 48.7276 96.2232 48.9001C96.0255 49.0725 95.7908 49.2093 95.5326 49.3026C95.2743 49.3959 94.9975 49.4439 94.718 49.4439ZM94.718 46.2771C94.421 46.2771 94.1306 46.3539 93.8837 46.4978C93.6367 46.6418 93.4442 46.8464 93.3306 47.0858C93.2169 47.3251 93.1871 47.5885 93.2451 47.8426C93.303 48.0968 93.4461 48.3302 93.6561 48.5134C93.8661 48.6966 94.1337 48.8214 94.425 48.8719C94.7163 48.9225 95.0183 48.8965 95.2927 48.7974C95.5671 48.6982 95.8016 48.5303 95.9667 48.3149C96.1317 48.0994 96.2197 47.8462 96.2197 47.5871C96.2179 47.2401 96.0591 46.9078 95.7779 46.6625C95.4966 46.4172 95.1157 46.2786 94.718 46.2771Z" fill="url(#paint37_linear_1658_689)"/>
<path d="M101.979 223.075H101.359V186.623L112.911 176.539V122.991L88.4768 101.676V75.6624H89.1037V101.448L113.538 122.769V176.768L101.979 186.851V223.075Z" fill="url(#paint38_linear_1658_689)"/>
<path d="M101.628 226.512C101.207 226.512 100.795 226.403 100.445 226.199C100.095 225.995 99.8222 225.705 99.6611 225.366C99.4999 225.026 99.4578 224.653 99.5399 224.293C99.6221 223.932 99.8248 223.602 100.122 223.342C100.42 223.082 100.799 222.905 101.212 222.834C101.625 222.762 102.053 222.799 102.442 222.939C102.831 223.08 103.164 223.318 103.398 223.623C103.631 223.929 103.756 224.288 103.756 224.655C103.754 225.147 103.53 225.618 103.131 225.966C102.732 226.314 102.192 226.51 101.628 226.512ZM101.628 223.345C101.331 223.345 101.04 223.422 100.793 223.566C100.546 223.71 100.354 223.914 100.24 224.154C100.127 224.393 100.097 224.656 100.155 224.911C100.213 225.165 100.356 225.398 100.566 225.581C100.776 225.764 101.043 225.889 101.335 225.94C101.626 225.99 101.928 225.964 102.202 225.865C102.477 225.766 102.711 225.598 102.876 225.383C103.041 225.167 103.129 224.914 103.129 224.655C103.128 224.308 102.969 223.976 102.688 223.73C102.406 223.485 102.025 223.347 101.628 223.345Z" fill="url(#paint39_linear_1658_689)"/>
<path d="M88.7802 75.9327C88.3592 75.9327 87.9477 75.8238 87.5976 75.6198C87.2476 75.4157 86.9748 75.1257 86.8136 74.7864C86.6525 74.4471 86.6104 74.0738 86.6925 73.7136C86.7746 73.3534 86.9774 73.0225 87.2751 72.7629C87.5728 72.5032 87.9521 72.3263 88.365 72.2547C88.7779 72.183 89.2059 72.2198 89.5948 72.3603C89.9838 72.5009 90.3162 72.7389 90.5501 73.0442C90.784 73.3496 90.9089 73.7086 90.9089 74.0758C90.9089 74.5683 90.6846 75.0406 90.2854 75.3888C89.8862 75.7371 89.3448 75.9327 88.7802 75.9327ZM88.7802 72.7658C88.4835 72.767 88.1939 72.8449 87.9478 72.9895C87.7017 73.1342 87.5103 73.3392 87.3977 73.5787C87.2851 73.8181 87.2564 74.0814 87.3151 74.3351C87.3738 74.5888 87.5174 74.8217 87.7277 75.0043C87.938 75.1869 88.2056 75.311 88.4967 75.3611C88.7878 75.4112 89.0894 75.3849 89.3634 75.2855C89.6374 75.1862 89.8716 75.0183 90.0363 74.803C90.201 74.5877 90.2889 74.3347 90.2889 74.0758C90.2871 73.7279 90.1273 73.3947 89.8446 73.1492C89.5619 72.9037 89.1792 72.7658 88.7802 72.7658Z" fill="url(#paint40_linear_1658_689)"/>
<path d="M80.8236 230.262L80.7547 197.109L70.27 187.957V133.958L81.8225 123.88V87.6509H82.4494V124.103L70.89 134.186V187.734L81.3816 196.881V196.995L81.4505 230.262H80.8236Z" fill="url(#paint41_linear_1658_689)"/>
<path d="M82.1809 87.921C81.7596 87.9222 81.3474 87.8143 80.9965 87.611C80.6455 87.4076 80.3716 87.1181 80.2094 86.7789C80.0473 86.4397 80.0041 86.0661 80.0855 85.7056C80.1668 85.345 80.369 85.0136 80.6664 84.7533C80.9639 84.493 81.3431 84.3155 81.7562 84.2434C82.1693 84.1713 82.5977 84.2077 82.987 84.348C83.3764 84.4884 83.7093 84.7264 83.9435 85.0319C84.1777 85.3374 84.3027 85.6966 84.3027 86.0641C84.3027 86.5555 84.0794 87.0269 83.6816 87.375C83.2839 87.723 82.7443 87.9194 82.1809 87.921ZM82.1809 84.7541C81.8839 84.7541 81.5936 84.8309 81.3466 84.9749C81.0996 85.1188 80.9072 85.3234 80.7935 85.5628C80.6798 85.8022 80.6501 86.0656 80.708 86.3197C80.766 86.5738 80.909 86.8072 81.119 86.9904C81.3291 87.1736 81.5966 87.2984 81.888 87.349C82.1793 87.3995 82.4812 87.3736 82.7556 87.2744C83.03 87.1753 83.2646 87.0074 83.4296 86.7919C83.5946 86.5765 83.6827 86.3232 83.6827 86.0641C83.6809 85.7172 83.5221 85.3849 83.2408 85.1395C82.9596 84.8942 82.5787 84.7557 82.1809 84.7541Z" fill="url(#paint42_linear_1658_689)"/>
<path d="M98.5965 177.026H97.9765V130.016L73.542 108.701V75.9208L85.0945 65.8434V29.6138H85.7214V66.0657L74.162 76.1492V108.473L98.5965 129.788V177.026Z" fill="url(#paint43_linear_1658_689)"/>
<path d="M85.4529 29.8841C85.0316 29.8853 84.6194 29.7774 84.2684 29.5741C83.9175 29.3708 83.6436 29.0812 83.4814 28.742C83.3192 28.4028 83.2761 28.0293 83.3574 27.6687C83.4388 27.3081 83.641 26.9767 83.9384 26.7164C84.2358 26.4561 84.6151 26.2787 85.0282 26.2065C85.4413 26.1344 85.8696 26.1708 86.259 26.3112C86.6484 26.4515 86.9812 26.6895 87.2154 26.995C87.4496 27.3005 87.5746 27.6597 87.5746 28.0272C87.5747 28.5187 87.3513 28.9901 86.9536 29.3381C86.5559 29.6862 86.0163 29.8825 85.4529 29.8841ZM85.4529 26.7172C85.1559 26.7172 84.8655 26.7941 84.6186 26.938C84.3716 27.082 84.1791 27.2866 84.0655 27.5259C83.9518 27.7653 83.9221 28.0287 83.98 28.2828C84.038 28.5369 84.181 28.7704 84.391 28.9536C84.601 29.1368 84.8686 29.2615 85.1599 29.3121C85.4512 29.3626 85.7532 29.3367 86.0276 29.2375C86.302 29.1384 86.5366 28.9705 86.7016 28.7551C86.8666 28.5396 86.9547 28.2863 86.9547 28.0272C86.9529 27.6803 86.794 27.348 86.5128 27.1027C86.2316 26.8573 85.8506 26.7188 85.4529 26.7172Z" fill="url(#paint44_linear_1658_689)"/>
<path d="M98.2863 180.463C97.8653 180.463 97.4538 180.354 97.1037 180.15C96.7537 179.946 96.4809 179.656 96.3197 179.317C96.1586 178.977 96.1165 178.604 96.1986 178.244C96.2808 177.884 96.4835 177.553 96.7812 177.293C97.0789 177.033 97.4582 176.857 97.8711 176.785C98.284 176.713 98.712 176.75 99.1009 176.891C99.4899 177.031 99.8223 177.269 100.056 177.575C100.29 177.88 100.415 178.239 100.415 178.606C100.415 179.099 100.191 179.571 99.7915 179.919C99.3923 180.267 98.8509 180.463 98.2863 180.463ZM98.2863 177.296C97.9874 177.295 97.6948 177.371 97.4456 177.515C97.1965 177.66 97.002 177.865 96.887 178.106C96.772 178.346 96.7415 178.612 96.7995 178.867C96.8575 179.123 97.0013 179.358 97.2127 179.543C97.4241 179.727 97.6935 179.853 97.9868 179.903C98.2801 179.954 98.584 179.927 98.86 179.827C99.1359 179.726 99.3715 179.557 99.5367 179.34C99.702 179.122 99.7895 178.867 99.7881 178.606C99.7863 178.259 99.6275 177.927 99.3462 177.682C99.065 177.436 98.6841 177.298 98.2863 177.296Z" fill="url(#paint45_linear_1658_689)"/>
<path d="M113.408 229.03H112.788V191.574L119.904 185.361V159.773H120.531V185.589L113.408 191.797V229.03Z" fill="url(#paint46_linear_1658_689)"/>
<path d="M120.213 160.206C119.792 160.206 119.381 160.097 119.031 159.893C118.681 159.689 118.408 159.399 118.247 159.06C118.086 158.721 118.043 158.347 118.126 157.987C118.208 157.627 118.41 157.296 118.708 157.036C119.006 156.777 119.385 156.6 119.798 156.528C120.211 156.456 120.639 156.493 121.028 156.634C121.417 156.774 121.749 157.012 121.983 157.318C122.217 157.623 122.342 157.982 122.342 158.349C122.342 158.842 122.118 159.314 121.719 159.662C121.319 160.01 120.778 160.206 120.213 160.206ZM120.213 157.039C119.917 157.04 119.627 157.118 119.381 157.263C119.135 157.408 118.943 157.613 118.831 157.852C118.718 158.092 118.689 158.355 118.748 158.609C118.807 158.862 118.95 159.095 119.161 159.278C119.371 159.46 119.639 159.584 119.93 159.635C120.221 159.685 120.523 159.658 120.797 159.559C121.071 159.46 121.305 159.292 121.469 159.076C121.634 158.861 121.722 158.608 121.722 158.349C121.72 158.001 121.56 157.668 121.278 157.423C120.995 157.177 120.612 157.039 120.213 157.039Z" fill="url(#paint47_linear_1658_689)"/>
<path d="M113.097 232.113C112.676 232.113 112.265 232.004 111.915 231.8C111.565 231.596 111.292 231.306 111.131 230.966C110.97 230.627 110.928 230.254 111.01 229.894C111.092 229.533 111.295 229.202 111.592 228.943C111.89 228.683 112.269 228.506 112.682 228.435C113.095 228.363 113.523 228.4 113.912 228.54C114.301 228.681 114.633 228.919 114.867 229.224C115.101 229.53 115.226 229.889 115.226 230.256C115.224 230.748 114.999 231.219 114.601 231.567C114.202 231.915 113.661 232.111 113.097 232.113ZM113.097 228.946C112.8 228.946 112.51 229.023 112.263 229.167C112.016 229.31 111.824 229.515 111.71 229.754C111.596 229.994 111.567 230.257 111.624 230.511C111.682 230.765 111.825 230.999 112.035 231.182C112.246 231.365 112.513 231.49 112.804 231.541C113.096 231.591 113.398 231.565 113.672 231.466C113.946 231.367 114.181 231.199 114.346 230.984C114.511 230.768 114.599 230.515 114.599 230.256C114.597 229.909 114.439 229.577 114.157 229.331C113.876 229.086 113.495 228.947 113.097 228.946Z" fill="url(#paint48_linear_1658_689)"/>
<path d="M104.307 91.106H103.687V53.6505L110.803 47.443V21.8557H111.43V47.6653L104.307 53.8789V91.106Z" fill="url(#paint49_linear_1658_689)"/>
<path d="M111.113 22.2825C110.692 22.2825 110.28 22.1735 109.93 21.9692C109.58 21.7649 109.307 21.4745 109.146 21.1349C108.985 20.7952 108.944 20.4216 109.026 20.0612C109.109 19.7009 109.312 19.37 109.611 19.1106C109.909 18.8511 110.289 18.6748 110.702 18.6038C111.116 18.5328 111.544 18.5705 111.933 18.7119C112.322 18.8534 112.654 19.0923 112.887 19.3985C113.12 19.7046 113.243 20.0642 113.242 20.4317C113.242 20.6753 113.187 20.9164 113.08 21.1414C112.973 21.3663 112.816 21.5706 112.618 21.7426C112.42 21.9145 112.186 22.0507 111.928 22.1434C111.669 22.2361 111.393 22.2833 111.113 22.2825ZM111.113 19.1217C110.817 19.1229 110.527 19.2007 110.281 19.3454C110.035 19.4901 109.844 19.6951 109.731 19.9345C109.618 20.174 109.59 20.4372 109.648 20.6909C109.707 20.9447 109.851 21.1775 110.061 21.3601C110.271 21.5427 110.539 21.6669 110.83 21.717C111.121 21.767 111.423 21.7407 111.697 21.6414C111.971 21.5421 112.205 21.3742 112.37 21.1589C112.534 20.9436 112.622 20.6905 112.622 20.4317C112.621 20.2597 112.581 20.0895 112.505 19.9308C112.429 19.7722 112.318 19.6282 112.177 19.5071C112.037 19.3861 111.871 19.2902 111.689 19.2251C111.506 19.16 111.311 19.1269 111.113 19.1277V19.1217Z" fill="url(#paint50_linear_1658_689)"/>
<path d="M103.998 94.189C103.576 94.189 103.164 94.08 102.814 93.8757C102.464 93.6714 102.191 93.381 102.03 93.0414C101.869 92.7017 101.828 92.3281 101.91 91.9677C101.993 91.6074 102.196 91.2765 102.495 91.0171C102.793 90.7576 103.173 90.5813 103.586 90.5103C104 90.4393 104.428 90.477 104.817 90.6184C105.206 90.7599 105.538 90.9988 105.771 91.305C106.004 91.6111 106.128 91.9707 106.126 92.3382C106.124 92.8296 105.899 93.3004 105.5 93.6473C105.101 93.9942 104.561 94.189 103.998 94.189ZM103.998 91.0222C103.699 91.021 103.406 91.0972 103.157 91.241C102.908 91.3849 102.714 91.59 102.599 91.8304C102.484 92.0708 102.453 92.3356 102.51 92.5912C102.568 92.8469 102.711 93.082 102.921 93.2666C103.132 93.4513 103.401 93.5772 103.694 93.6285C103.987 93.6797 104.29 93.654 104.566 93.5546C104.842 93.4552 105.078 93.2865 105.245 93.07C105.411 92.8534 105.499 92.5987 105.499 92.3382C105.499 91.9902 105.341 91.6564 105.06 91.4098C104.778 91.1631 104.396 91.0238 103.998 91.0222Z" fill="url(#paint51_linear_1658_689)"/>
<path d="M112.277 103.19H111.657V63.2831L118.774 57.0696V33.9341H119.4V57.2979L112.277 63.5055V103.19Z" fill="url(#paint52_linear_1658_689)"/>
<path d="M111.967 106.466C111.546 106.466 111.135 106.357 110.785 106.153C110.435 105.949 110.162 105.659 110.001 105.319C109.84 104.98 109.797 104.607 109.88 104.247C109.962 103.886 110.164 103.555 110.462 103.296C110.76 103.036 111.139 102.859 111.552 102.788C111.965 102.716 112.393 102.753 112.782 102.893C113.171 103.034 113.503 103.272 113.737 103.577C113.971 103.883 114.096 104.242 114.096 104.609C114.094 105.101 113.869 105.572 113.47 105.92C113.072 106.268 112.531 106.464 111.967 106.466ZM111.967 103.299C111.67 103.299 111.38 103.376 111.133 103.52C110.886 103.664 110.693 103.868 110.58 104.107C110.466 104.347 110.436 104.61 110.494 104.864C110.552 105.118 110.695 105.352 110.905 105.535C111.115 105.718 111.383 105.843 111.674 105.894C111.966 105.944 112.268 105.918 112.542 105.819C112.816 105.72 113.051 105.552 113.216 105.337C113.381 105.121 113.469 104.868 113.469 104.609C113.467 104.262 113.308 103.93 113.027 103.684C112.746 103.439 112.365 103.3 111.967 103.299Z" fill="url(#paint53_linear_1658_689)"/>
<path d="M119.091 34.5592C118.67 34.5592 118.258 34.4503 117.908 34.2462C117.558 34.0422 117.286 33.7522 117.124 33.4129C116.963 33.0736 116.921 32.7002 117.003 32.3401C117.085 31.9799 117.288 31.649 117.586 31.3893C117.884 31.1296 118.263 30.9528 118.676 30.8811C119.089 30.8095 119.517 30.8463 119.906 30.9868C120.295 31.1273 120.627 31.3653 120.861 31.6707C121.095 31.9761 121.22 32.3351 121.22 32.7023C121.22 32.9462 121.165 33.1876 121.058 33.4129C120.951 33.6382 120.794 33.8429 120.596 34.0153C120.399 34.1877 120.164 34.3245 119.906 34.4178C119.647 34.5111 119.371 34.5592 119.091 34.5592ZM119.091 31.3923C118.794 31.3923 118.504 31.4691 118.257 31.6131C118.01 31.757 117.817 31.9616 117.704 32.201C117.59 32.4404 117.56 32.7038 117.618 32.9579C117.676 33.212 117.819 33.4454 118.029 33.6286C118.239 33.8118 118.507 33.9366 118.798 33.9871C119.089 34.0377 119.391 34.0118 119.666 33.9126C119.94 33.8135 120.175 33.6455 120.34 33.4301C120.505 33.2147 120.593 32.9614 120.593 32.7023C120.591 32.3554 120.432 32.0231 120.151 31.7777C119.87 31.5324 119.489 31.3939 119.091 31.3923Z" fill="url(#paint54_linear_1658_689)"/>
<path d="M82.2011 180.962H81.5742V141.055L88.6972 134.847V111.706H89.3172V135.069L82.2011 141.277V180.962Z" fill="url(#paint55_linear_1658_689)"/>
<path d="M81.8916 184.237C81.4706 184.237 81.059 184.128 80.709 183.924C80.3589 183.72 80.0861 183.43 79.925 183.091C79.7639 182.752 79.7217 182.378 79.8038 182.018C79.886 181.658 80.0887 181.327 80.3864 181.067C80.6841 180.808 81.0634 180.631 81.4763 180.559C81.8892 180.487 82.3172 180.524 82.7062 180.665C83.0951 180.805 83.4276 181.043 83.6615 181.349C83.8954 181.654 84.0202 182.013 84.0202 182.38C84.0184 182.872 83.7935 183.344 83.3947 183.692C82.9959 184.039 82.4556 184.236 81.8916 184.237ZM81.8916 181.07C81.5946 181.07 81.3042 181.147 81.0572 181.291C80.8103 181.435 80.6178 181.64 80.5041 181.879C80.3905 182.118 80.3607 182.382 80.4187 182.636C80.4766 182.89 80.6196 183.123 80.8297 183.307C81.0397 183.49 81.3073 183.615 81.5986 183.665C81.8899 183.716 82.1919 183.69 82.4663 183.591C82.7407 183.491 82.9752 183.324 83.1402 183.108C83.3052 182.893 83.3933 182.639 83.3933 182.38C83.3933 182.033 83.2351 181.7 82.9535 181.454C82.6718 181.208 82.2899 181.07 81.8916 181.07Z" fill="url(#paint56_linear_1658_689)"/>
<path d="M89.0075 112.331C88.5865 112.331 88.175 112.222 87.8249 112.018C87.4749 111.814 87.2021 111.524 87.0409 111.184C86.8798 110.845 86.8377 110.472 86.9198 110.112C87.0019 109.751 87.2047 109.42 87.5024 109.161C87.8001 108.901 88.1793 108.724 88.5923 108.653C89.0052 108.581 89.4332 108.618 89.8221 108.758C90.2111 108.899 90.5435 109.137 90.7774 109.442C91.0113 109.748 91.1362 110.107 91.1362 110.474C91.1362 110.966 90.9119 111.439 90.5127 111.787C90.1135 112.135 89.5721 112.331 89.0075 112.331ZM89.0075 109.164C88.7105 109.164 88.4202 109.241 88.1732 109.385C87.9262 109.529 87.7338 109.733 87.6201 109.972C87.5064 110.212 87.4767 110.475 87.5346 110.729C87.5926 110.983 87.7356 111.217 87.9456 111.4C88.1557 111.583 88.4233 111.708 88.7146 111.759C89.0059 111.809 89.3078 111.783 89.5822 111.684C89.8566 111.585 90.0912 111.417 90.2562 111.202C90.4212 110.986 90.5093 110.733 90.5093 110.474C90.5075 110.127 90.3487 109.795 90.0674 109.549C89.7862 109.304 89.4053 109.165 89.0075 109.164Z" fill="url(#paint57_linear_1658_689)"/>
<path d="M89.7926 207.991H89.1726V158.938L106.56 143.765V131.013H107.187V143.993L89.7926 159.16V207.991Z" fill="url(#paint58_linear_1658_689)"/>
<path d="M106.87 130.995C106.448 130.995 106.036 130.886 105.686 130.682C105.336 130.478 105.063 130.187 104.902 129.848C104.741 129.508 104.7 129.134 104.782 128.774C104.865 128.414 105.068 128.083 105.367 127.823C105.665 127.564 106.045 127.387 106.459 127.316C106.872 127.245 107.3 127.283 107.689 127.425C108.078 127.566 108.41 127.805 108.643 128.111C108.876 128.417 109 128.777 108.998 129.144C108.998 129.388 108.943 129.629 108.836 129.854C108.729 130.079 108.572 130.283 108.374 130.455C108.177 130.627 107.942 130.763 107.684 130.856C107.425 130.949 107.149 130.996 106.87 130.995ZM106.87 127.828C106.571 127.828 106.28 127.906 106.031 128.05C105.783 128.195 105.59 128.4 105.476 128.641C105.362 128.881 105.332 129.146 105.39 129.401C105.448 129.656 105.592 129.891 105.803 130.075C106.014 130.259 106.283 130.384 106.575 130.435C106.868 130.486 107.171 130.46 107.447 130.36C107.723 130.261 107.958 130.092 108.124 129.875C108.29 129.659 108.378 129.405 108.378 129.144C108.378 128.972 108.339 128.8 108.263 128.641C108.188 128.481 108.076 128.336 107.936 128.214C107.796 128.092 107.63 127.995 107.447 127.929C107.264 127.862 107.068 127.828 106.87 127.828Z" fill="url(#paint59_linear_1658_689)"/>
<path d="M64.9515 232.004H64.3315V177.921L76.4902 167.309V152.887H77.1102V167.537L64.9515 178.144V232.004Z" fill="url(#paint60_linear_1658_689)"/>
<path d="M76.8003 152.953C76.4863 152.954 76.179 152.874 75.9174 152.723C75.6558 152.571 75.4517 152.355 75.3309 152.103C75.2101 151.85 75.1782 151.571 75.2391 151.303C75.3 151.034 75.451 150.787 75.673 150.594C75.895 150.4 76.178 150.268 76.486 150.215C76.794 150.162 77.1131 150.19 77.4029 150.295C77.6927 150.4 77.9401 150.579 78.1137 150.807C78.2872 151.035 78.3792 151.303 78.3778 151.577C78.376 151.941 78.2092 152.29 77.9138 152.548C77.6183 152.806 77.2181 152.951 76.8003 152.953ZM76.8003 150.742C76.6109 150.742 76.4258 150.791 76.2683 150.882C76.1108 150.974 75.9881 151.105 75.9156 151.257C75.8431 151.41 75.8242 151.578 75.8611 151.74C75.8981 151.902 75.9893 152.051 76.1232 152.167C76.2571 152.284 76.4277 152.364 76.6135 152.396C76.7992 152.428 76.9917 152.412 77.1667 152.349C77.3417 152.285 77.4912 152.178 77.5964 152.041C77.7017 151.904 77.7578 151.742 77.7578 151.577C77.7596 151.466 77.7362 151.356 77.6889 151.253C77.6416 151.151 77.5714 151.057 77.4823 150.978C77.3932 150.9 77.287 150.837 77.1699 150.794C77.0528 150.752 76.9272 150.73 76.8003 150.73V150.742Z" fill="url(#paint61_linear_1658_689)"/>
<path d="M66.2467 124.421H65.6267V70.146L72.4673 64.1789V51.1809H73.0942V64.4012L66.2467 70.3744V124.421Z" fill="url(#paint62_linear_1658_689)"/>
<path d="M72.8325 51.1685C72.4238 51.1685 72.0242 51.0628 71.6843 50.8647C71.3445 50.6666 71.0796 50.3851 70.9232 50.0556C70.7668 49.7262 70.7258 49.3638 70.8056 49.0141C70.8853 48.6644 71.0822 48.3431 71.3712 48.091C71.6602 47.8389 72.0284 47.6672 72.4293 47.5976C72.8302 47.5281 73.2457 47.5638 73.6234 47.7002C74.001 47.8367 74.3238 48.0677 74.5508 48.3642C74.7779 48.6607 74.8991 49.0092 74.8991 49.3658C74.8991 49.8439 74.6814 50.3024 74.2938 50.6405C73.9063 50.9786 73.3806 51.1685 72.8325 51.1685ZM72.8325 48.0918C72.545 48.0918 72.264 48.1662 72.025 48.3055C71.7859 48.4448 71.5996 48.6428 71.4896 48.8745C71.3796 49.1062 71.3508 49.3612 71.4069 49.6071C71.463 49.8531 71.6014 50.079 71.8047 50.2563C72.008 50.4337 72.267 50.5544 72.5489 50.6033C72.8309 50.6523 73.1231 50.6271 73.3887 50.5312C73.6543 50.4352 73.8814 50.2727 74.0411 50.0642C74.2008 49.8557 74.286 49.6105 74.286 49.3597C74.287 49.193 74.25 49.0278 74.1773 48.8736C74.1045 48.7194 73.9975 48.5793 73.8623 48.4614C73.7272 48.3435 73.5666 48.2501 73.3898 48.1867C73.2131 48.1233 73.0236 48.091 72.8325 48.0918Z" fill="url(#paint63_linear_1658_689)"/>
<path d="M65.9367 127.768C65.528 127.768 65.1285 127.662 64.7886 127.464C64.4487 127.266 64.1838 126.985 64.0274 126.655C63.871 126.326 63.8301 125.963 63.9098 125.614C63.9896 125.264 64.1864 124.943 64.4754 124.691C64.7644 124.438 65.1327 124.267 65.5336 124.197C65.9345 124.128 66.35 124.163 66.7276 124.3C67.1052 124.436 67.428 124.667 67.6551 124.964C67.8822 125.26 68.0034 125.609 68.0034 125.965C68.0034 126.443 67.7856 126.902 67.3981 127.24C67.0105 127.578 66.4849 127.768 65.9367 127.768ZM65.9367 124.685C65.6493 124.685 65.3682 124.76 65.1292 124.899C64.8902 125.038 64.7039 125.236 64.5939 125.468C64.4838 125.7 64.4551 125.955 64.5111 126.201C64.5672 126.447 64.7057 126.673 64.909 126.85C65.1122 127.027 65.3712 127.148 65.6532 127.197C65.9351 127.246 66.2274 127.221 66.493 127.125C66.7586 127.029 66.9856 126.866 67.1453 126.658C67.305 126.449 67.3903 126.204 67.3903 125.953C67.3885 125.618 67.2347 125.296 66.9625 125.059C66.6904 124.821 66.3217 124.687 65.9367 124.685Z" fill="url(#paint64_linear_1658_689)"/>
<path d="M119.47 66.4321H118.843V109.086H119.47V66.4321Z" fill="url(#paint65_linear_1658_689)"/>
</g>
<mask id="mask0_1658_689" style="mask-type:luminance" maskUnits="userSpaceOnUse" x="-51" y="233" width="517" height="49">
<path d="M465.658 233.5H-51V281.274H465.658V233.5Z" fill="white"/>
</mask>
<g mask="url(#mask0_1658_689)">
<g style="mix-blend-mode:color-dodge">
<g style="mix-blend-mode:overlay" opacity="0.7">
<path d="M80.6725 229.943L65.5516 241.973L27.9251 248.397L10.9029 259.737L20.7125 263.691L-2.09619 280.156" stroke="#B17B1C" stroke-opacity="0.980392" stroke-width="0.94" stroke-miterlimit="10"/>
<path d="M-4.28699 281.778C-5.83697 281.778 -6.57407 281.412 -5.9403 280.961C-5.30653 280.51 -3.56368 280.156 -2.03437 280.156C-0.505059 280.156 0.245819 280.516 -0.367282 280.961C-0.980384 281.406 -2.73702 281.778 -4.28699 281.778Z" stroke="#B17B1C" stroke-opacity="0.980392" stroke-width="0.94" stroke-miterlimit="10"/>
<path d="M79.0465 236.373L70.5182 243.5L32.6437 250.098L2.99444 270.667L13.3827 275.313L-12.6086 294.915" stroke="#B17B1C" stroke-opacity="0.980392" stroke-width="0.94" stroke-miterlimit="10"/>
<path d="M79.0466 236.373C77.9582 236.373 77.2899 236.186 77.5655 235.964C78.3307 235.651 79.1745 235.512 80.0179 235.561C81.0994 235.561 81.7676 235.742 81.5059 235.964C80.7395 236.281 79.8929 236.422 79.0466 236.373Z" stroke="#B17B1C" stroke-opacity="0.980392" stroke-width="0.94" stroke-miterlimit="10"/>
<path d="M16.7378 299.422L38.1963 280.366L58.8282 275.847L81.1203 253.878L70.36 250.464L82.6909 239.558" stroke="#B17B1C" stroke-opacity="0.980392" stroke-width="0.94" stroke-miterlimit="10"/>
<path d="M83.6134 238.698C84.7294 238.698 85.4252 238.891 85.1565 239.125C84.8879 239.359 83.7788 239.558 82.6421 239.558C81.5055 239.558 80.8304 239.365 81.1059 239.125C81.8848 238.794 82.7492 238.647 83.6134 238.698Z" stroke="#B17B1C" stroke-opacity="0.980392" stroke-width="0.94" stroke-miterlimit="10"/>
<path d="M24.1775 270.83L47.9438 252.441L85.6598 245.591L95.2146 236.469L85.5772 233.921L95.1939 225.658" stroke="#B17B1C" stroke-opacity="0.980392" stroke-width="0.94" stroke-miterlimit="10"/>
<path d="M24.1774 270.83C25.6171 270.83 26.3749 271.148 25.872 271.539C25.3691 271.929 23.8054 272.26 22.3312 272.26C20.857 272.26 20.1199 271.935 20.6434 271.539C21.167 271.142 22.7376 270.83 24.1774 270.83Z" stroke="#B17B1C" stroke-opacity="0.980392" stroke-width="0.94" stroke-miterlimit="10"/>
<path d="M3.80753 263.504L-13.1458 274.718L-6.96652 277.71L-37.1118 298.634" stroke="#B17B1C" stroke-opacity="0.980392" stroke-width="0.94" stroke-miterlimit="10"/>
<path d="M3.71103 263.565C2.33328 263.565 1.67884 263.282 2.20928 262.928C3.28282 262.482 4.46625 262.276 5.65367 262.327C7.03142 262.327 7.67897 262.609 7.15542 262.928C6.63187 263.246 5.07501 263.565 3.71103 263.565Z" stroke="#B17B1C" stroke-opacity="0.980392" stroke-width="0.94" stroke-miterlimit="10"/>
<path d="M72.2338 224.06L64.4012 229.571L69.74 231.001L56.9062 240.513" stroke="#B17B1C" stroke-opacity="0.980392" stroke-width="0.94" stroke-miterlimit="10"/>
<path d="M55.8383 241.294C54.7016 241.294 54.0472 241.096 54.3847 240.85C55.2147 240.517 56.1251 240.367 57.0369 240.411C58.1667 240.411 58.8211 240.609 58.4973 240.85C57.6672 241.188 56.7532 241.341 55.8383 241.294Z" stroke="#B17B1C" stroke-opacity="0.980392" stroke-width="0.94" stroke-miterlimit="10"/>
<path d="M42.9424 243.974L58.2079 233.296L52.9104 231.806L60.7636 226.578" stroke="#B17B1C" stroke-opacity="0.980392" stroke-width="0.94" stroke-miterlimit="10"/>
<path d="M43.0115 243.926C44.1826 243.926 44.8301 244.137 44.465 244.395C43.5904 244.748 42.6307 244.911 41.6682 244.87C40.4902 244.87 39.8426 244.654 40.2215 244.395C41.0947 244.045 42.0518 243.885 43.0115 243.926Z" stroke="#B17B1C" stroke-opacity="0.980392" stroke-width="0.94" stroke-miterlimit="10"/>
<path d="M45.6841 272.614L63.9738 256.396L57.4432 254.184L66.6053 246.546" stroke="#B17B1C" stroke-opacity="0.980392" stroke-width="0.94" stroke-miterlimit="10"/>
<path d="M45.7667 272.536C47.2203 272.536 48.04 272.861 47.5923 273.269C47.1445 273.678 45.5807 274.002 44.1479 274.002C42.715 274.002 41.8677 273.672 42.3292 273.269C42.7908 272.867 44.3132 272.536 45.7667 272.536Z" stroke="#B17B1C" stroke-opacity="0.980392" stroke-width="0.94" stroke-miterlimit="10"/>
<path d="M67.6389 245.675C68.8238 245.675 69.5334 245.891 69.2165 246.162C68.8996 246.432 67.6734 246.649 66.461 246.649C65.2486 246.649 64.5666 246.426 64.8903 246.162C65.2141 245.897 66.4541 245.675 67.6389 245.675Z" stroke="#B17B1C" stroke-opacity="0.980392" stroke-width="0.94" stroke-miterlimit="10"/>
<path d="M18.3218 286.177L45.9802 263.21L30.3978 257.387L36.6873 252.826" stroke="#B17B1C" stroke-opacity="0.980392" stroke-width="0.94" stroke-miterlimit="10"/>
<path d="M38.2996 251.648C39.5395 251.648 40.2284 251.889 39.822 252.183C39.4155 252.477 38.0722 252.724 36.8185 252.724C35.5647 252.724 34.8827 252.483 35.2961 252.183C36.2301 251.788 37.2629 251.604 38.2996 251.648Z" stroke="#B17B1C" stroke-opacity="0.980392" stroke-width="0.94" stroke-miterlimit="10"/>
<path d="M54.3777 289.735L71.9992 271.28L59.4892 266.659L65.813 260.782" stroke="#B17B1C" stroke-opacity="0.980392" stroke-width="0.94" stroke-miterlimit="10"/>
<path d="M66.8118 259.851C67.7418 259.851 68.2929 260.043 68.0449 260.271C67.3934 260.598 66.6448 260.746 65.8956 260.698C64.9657 260.698 64.4146 260.512 64.6694 260.271C65.3233 259.957 66.0664 259.811 66.8118 259.851Z" stroke="#B17B1C" stroke-opacity="0.980392" stroke-width="0.94" stroke-miterlimit="10"/>
<path d="M90.1514 250.609L105.265 234.997L99.4443 233.512L102.668 230.4" stroke="#B17B1C" stroke-opacity="0.980392" stroke-width="0.94" stroke-miterlimit="10"/>
<path d="M91.8387 251.113C91.5701 251.396 90.3714 251.63 89.159 251.63C87.9466 251.63 87.1957 251.396 87.4782 251.113C87.7606 250.831 88.9524 250.603 90.151 250.603C91.3496 250.603 92.1074 250.831 91.8387 251.113Z" stroke="#B17B1C" stroke-opacity="0.980392" stroke-width="0.94" stroke-miterlimit="10"/>
<path d="M49.4802 234.041L31.9138 245.747" stroke="#B17B1C" stroke-opacity="0.980392" stroke-width="0.94" stroke-miterlimit="10"/>
</g>
<g style="mix-blend-mode:overlay" opacity="0.7">
<path d="M144.09 229.943L136.437 241.973L102.792 248.397L92.8031 259.737L105.065 263.691L92.4656 280.156" stroke="#B17B1C" stroke-opacity="0.980392" stroke-width="0.94" stroke-miterlimit="10"/>
<path d="M91.2808 281.778C89.7377 281.778 88.7664 281.412 89.1178 280.961C89.4691 280.51 90.9984 280.156 92.5277 280.156C94.057 280.156 95.0283 280.516 94.6977 280.961C94.367 281.406 92.8308 281.778 91.2808 281.778Z" stroke="#B17B1C" stroke-opacity="0.980392" stroke-width="0.94" stroke-miterlimit="10"/>
<path d="M146.453 236.373L142.347 243.5L108.565 250.098L91.6667 270.667L104.941 275.313L91.1018 294.915" stroke="#B17B1C" stroke-opacity="0.980392" stroke-width="0.94" stroke-miterlimit="10"/>
<path d="M146.453 236.373C145.364 236.373 144.586 236.186 144.724 235.964C144.861 235.742 145.84 235.561 146.921 235.561C148.003 235.561 148.781 235.742 148.657 235.964C148.533 236.186 147.548 236.373 146.453 236.373Z" stroke="#B17B1C" stroke-opacity="0.980392" stroke-width="0.94" stroke-miterlimit="10"/>
<path d="M123.245 299.422L132.889 280.366L150.717 275.847L159.377 253.878L146.508 250.464L152.074 239.558" stroke="#B17B1C" stroke-opacity="0.980392" stroke-width="0.94" stroke-miterlimit="10"/>
<path d="M152.467 238.698C153.583 238.698 154.389 238.891 154.279 239.125C154.168 239.359 153.156 239.558 152.026 239.558C150.896 239.558 150.097 239.365 150.221 239.125C150.345 238.885 151.351 238.698 152.467 238.698Z" stroke="#B17B1C" stroke-opacity="0.980392" stroke-width="0.94" stroke-miterlimit="10"/>
<path d="M112.953 270.83L125.318 252.441L158.784 245.591L162.683 236.469L151.468 233.921L155.959 225.658" stroke="#B17B1C" stroke-opacity="0.980392" stroke-width="0.94" stroke-miterlimit="10"/>
<path d="M112.953 270.83C114.392 270.83 115.35 271.148 115.095 271.539C114.84 271.929 113.442 272.26 111.995 272.26C110.548 272.26 109.591 271.935 109.86 271.539C110.128 271.142 111.513 270.83 112.953 270.83Z" stroke="#B17B1C" stroke-opacity="0.980392" stroke-width="0.94" stroke-miterlimit="10"/>
<path d="M88.0428 263.504L78.0403 274.718L86.0726 277.71L68.9058 298.634" stroke="#B17B1C" stroke-opacity="0.980392" stroke-width="0.94" stroke-miterlimit="10"/>
<path d="M87.9812 263.565C86.6034 263.565 85.7699 263.282 86.0936 262.928C86.4174 262.573 87.7607 262.327 89.1109 262.327C90.4611 262.327 91.3153 262.609 91.0122 262.928C90.7091 263.246 89.3451 263.565 87.9812 263.565Z" stroke="#B17B1C" stroke-opacity="0.980392" stroke-width="0.94" stroke-miterlimit="10"/>
<path d="M132 224.06L127.591 229.571L133.812 231.001L126.875 240.513" stroke="#B17B1C" stroke-opacity="0.980392" stroke-width="0.94" stroke-miterlimit="10"/>
<path d="M126.303 241.294C125.16 241.294 124.388 241.096 124.567 240.85C124.746 240.603 125.814 240.411 126.951 240.411C128.087 240.411 128.859 240.609 128.687 240.85C128.515 241.09 127.447 241.294 126.303 241.294Z" stroke="#B17B1C" stroke-opacity="0.980392" stroke-width="0.94" stroke-miterlimit="10"/>
<path d="M115.067 243.974L123.706 233.296L117.485 231.805L122.094 226.577" stroke="#B17B1C" stroke-opacity="0.980392" stroke-width="0.94" stroke-miterlimit="10"/>
<path d="M115.102 243.926C116.273 243.926 117.052 244.137 116.845 244.395C116.638 244.653 115.522 244.87 114.344 244.87C113.166 244.87 112.388 244.653 112.601 244.395C112.815 244.137 113.938 243.926 115.102 243.926Z" stroke="#B17B1C" stroke-opacity="0.980392" stroke-width="0.94" stroke-miterlimit="10"/>
<path d="M135.568 272.614L143.8 256.396L135.899 254.184L140.322 246.546" stroke="#B17B1C" stroke-opacity="0.980392" stroke-width="0.94" stroke-miterlimit="10"/>
<path d="M135.624 272.536C137.077 272.536 138.097 272.861 137.904 273.269C137.711 273.678 136.347 274.002 134.88 274.002C133.413 274.002 132.393 273.672 132.607 273.269C132.82 272.867 134.15 272.536 135.624 272.536Z" stroke="#B17B1C" stroke-opacity="0.980392" stroke-width="0.94" stroke-miterlimit="10"/>
<path d="M140.825 245.675C142.01 245.675 142.85 245.891 142.699 246.162C142.547 246.432 141.459 246.649 140.26 246.649C139.061 246.649 138.193 246.426 138.393 246.162C138.593 245.897 139.64 245.675 140.825 245.675Z" stroke="#B17B1C" stroke-opacity="0.980392" stroke-width="0.94" stroke-miterlimit="10"/>
<path d="M116.618 286.177L130.03 263.21L110.838 257.387L114.296 252.826" stroke="#B17B1C" stroke-opacity="0.980392" stroke-width="0.94" stroke-miterlimit="10"/>
<path d="M115.178 251.648C116.425 251.648 117.245 251.889 117.038 252.183C116.831 252.477 115.626 252.724 114.365 252.724C113.104 252.724 112.298 252.483 112.512 252.183C112.726 251.883 113.938 251.648 115.178 251.648Z" stroke="#B17B1C" stroke-opacity="0.980392" stroke-width="0.94" stroke-miterlimit="10"/>
<path d="M154.878 289.735L161.057 271.28L145.675 266.659L148.361 260.782" stroke="#B17B1C" stroke-opacity="0.980392" stroke-width="0.94" stroke-miterlimit="10"/>
<path d="M148.788 259.851C149.711 259.851 150.38 260.043 150.276 260.271C150.173 260.5 149.333 260.698 148.396 260.698C147.459 260.698 146.798 260.512 146.908 260.271C147.018 260.031 147.858 259.851 148.788 259.851Z" stroke="#B17B1C" stroke-opacity="0.980392" stroke-width="0.94" stroke-miterlimit="10"/>
<path d="M166.389 250.608L171.817 234.996L165.08 233.512L166.375 230.399" stroke="#B17B1C" stroke-opacity="0.980392" stroke-width="0.94" stroke-miterlimit="10"/>
<path d="M168.393 251.113C168.297 251.396 167.243 251.63 166.031 251.63C164.818 251.63 163.923 251.396 164.026 251.113C164.129 250.831 165.183 250.603 166.389 250.603C167.594 250.603 168.483 250.831 168.393 251.113Z" stroke="#B17B1C" stroke-opacity="0.980392" stroke-width="0.94" stroke-miterlimit="10"/>
<path d="M115.446 234.041L105.134 245.747" stroke="#B17B1C" stroke-opacity="0.980392" stroke-width="0.94" stroke-miterlimit="10"/>
</g>
<g style="mix-blend-mode:overlay" opacity="0.7">
<path d="M207.508 229.943L207.315 241.974L177.659 248.397L174.704 259.737L189.418 263.691L187.021 280.156" stroke="#B17B1C" stroke-opacity="0.980392" stroke-width="0.94" stroke-miterlimit="10"/>
<path d="M186.855 281.779C185.305 281.779 184.1 281.412 184.182 280.962C184.265 280.511 185.56 280.156 187.09 280.156C188.619 280.156 189.845 280.517 189.755 280.962C189.666 281.406 188.398 281.779 186.855 281.779Z" stroke="#B17B1C" stroke-opacity="0.980392" stroke-width="0.94" stroke-miterlimit="10"/>
<path d="M213.866 236.373L214.169 243.5L184.486 250.098L180.339 270.668L196.5 275.313L194.812 294.915" stroke="#B17B1C" stroke-opacity="0.980392" stroke-width="0.94" stroke-miterlimit="10"/>
<path d="M213.866 236.373C212.771 236.373 211.882 236.187 211.875 235.964C211.868 235.742 212.743 235.562 213.832 235.562C214.92 235.562 215.802 235.742 215.816 235.964C215.829 236.187 214.955 236.373 213.866 236.373Z" stroke="#B17B1C" stroke-opacity="0.980392" stroke-width="0.94" stroke-miterlimit="10"/>
<path d="M229.759 299.422L227.575 280.367L242.6 275.848L237.647 253.878L222.657 250.465L221.458 239.558" stroke="#B17B1C" stroke-opacity="0.980392" stroke-width="0.94" stroke-miterlimit="10"/>
<path d="M221.32 238.698C222.436 238.698 223.387 238.891 223.387 239.125C223.387 239.359 222.532 239.558 221.403 239.558C220.273 239.558 219.336 239.366 219.336 239.125C219.336 238.885 220.204 238.698 221.32 238.698Z" stroke="#B17B1C" stroke-opacity="0.980392" stroke-width="0.94" stroke-miterlimit="10"/>
<path d="M201.735 270.83L202.686 252.442L231.908 245.591L230.152 236.469L217.359 233.921L216.725 225.658" stroke="#B17B1C" stroke-opacity="0.980392" stroke-width="0.94" stroke-miterlimit="10"/>
<path d="M201.756 270.83C203.189 270.83 204.346 271.148 204.332 271.539C204.319 271.93 203.134 272.26 201.68 272.26C200.227 272.26 199.076 271.936 199.104 271.539C199.131 271.142 200.296 270.83 201.756 270.83Z" stroke="#B17B1C" stroke-opacity="0.980392" stroke-width="0.94" stroke-miterlimit="10"/>
<path d="M172.272 263.505L169.227 274.718L179.119 277.71L174.924 298.635" stroke="#B17B1C" stroke-opacity="0.980392" stroke-width="0.94" stroke-miterlimit="10"/>
<path d="M172.258 263.565C170.88 263.565 169.868 263.282 169.971 262.928C170.074 262.573 171.246 262.327 172.603 262.327C173.96 262.327 174.979 262.609 174.89 262.928C174.8 263.246 173.622 263.565 172.258 263.565Z" stroke="#B17B1C" stroke-opacity="0.980392" stroke-width="0.94" stroke-miterlimit="10"/>
<path d="M191.774 224.06L190.782 229.571L197.891 231.001L196.851 240.514" stroke="#B17B1C" stroke-opacity="0.980392" stroke-width="0.94" stroke-miterlimit="10"/>
<path d="M196.768 241.295C195.624 241.295 194.701 241.096 194.756 240.85C194.812 240.604 195.735 240.411 196.864 240.411C197.994 240.411 198.931 240.61 198.876 240.85C198.821 241.09 197.905 241.295 196.768 241.295Z" stroke="#B17B1C" stroke-opacity="0.980392" stroke-width="0.94" stroke-miterlimit="10"/>
<path d="M187.193 243.975L189.211 233.296L182.061 231.806L183.425 226.578" stroke="#B17B1C" stroke-opacity="0.980392" stroke-width="0.94" stroke-miterlimit="10"/>
<path d="M187.2 243.927C188.364 243.927 189.266 244.137 189.232 244.395C189.198 244.654 188.199 244.87 187.021 244.87C185.843 244.87 184.954 244.654 184.989 244.395C185.023 244.137 186.029 243.927 187.2 243.927Z" stroke="#B17B1C" stroke-opacity="0.980392" stroke-width="0.94" stroke-miterlimit="10"/>
<path d="M225.453 272.615L223.628 256.396L214.356 254.184L214.046 246.547" stroke="#B17B1C" stroke-opacity="0.980392" stroke-width="0.94" stroke-miterlimit="10"/>
<path d="M225.44 272.536C226.893 272.536 228.119 272.861 228.195 273.27C228.271 273.678 227.1 274.003 225.633 274.003C224.165 274.003 222.939 273.672 222.877 273.27C222.815 272.867 223.986 272.536 225.44 272.536Z" stroke="#B17B1C" stroke-opacity="0.980392" stroke-width="0.94" stroke-miterlimit="10"/>
<path d="M214.011 245.675C215.196 245.675 216.167 245.892 216.181 246.162C216.195 246.432 215.244 246.649 214.045 246.649C212.847 246.649 211.882 246.426 211.875 246.162C211.868 245.898 212.826 245.675 214.011 245.675Z" stroke="#B17B1C" stroke-opacity="0.980392" stroke-width="0.94" stroke-miterlimit="10"/>
<path d="M214.913 286.177L214.087 263.21L191.278 257.387L191.905 252.826" stroke="#B17B1C" stroke-opacity="0.980392" stroke-width="0.94" stroke-miterlimit="10"/>
<path d="M192.063 251.648C193.31 251.648 194.288 251.889 194.254 252.183C194.219 252.478 193.172 252.724 191.918 252.724C190.665 252.724 189.68 252.484 189.728 252.183C189.776 251.883 190.823 251.648 192.063 251.648Z" stroke="#B17B1C" stroke-opacity="0.980392" stroke-width="0.94" stroke-miterlimit="10"/>
<path d="M255.378 289.735L250.115 271.281L231.867 266.659L230.909 260.782" stroke="#B17B1C" stroke-opacity="0.980392" stroke-width="0.94" stroke-miterlimit="10"/>
<path d="M230.757 259.851C231.681 259.851 232.466 260.043 232.507 260.272C232.549 260.5 231.818 260.698 230.895 260.698C229.972 260.698 229.173 260.512 229.139 260.272C229.104 260.031 229.828 259.851 230.757 259.851Z" stroke="#B17B1C" stroke-opacity="0.980392" stroke-width="0.94" stroke-miterlimit="10"/>
<path d="M242.62 250.609L238.377 234.997L230.716 233.513L230.083 230.4" stroke="#B17B1C" stroke-opacity="0.980392" stroke-width="0.94" stroke-miterlimit="10"/>
<path d="M244.941 251.114C245.024 251.396 244.108 251.63 242.875 251.63C241.642 251.63 240.622 251.396 240.553 251.114C240.484 250.831 241.394 250.603 242.62 250.603C243.846 250.603 244.859 250.831 244.941 251.114Z" stroke="#B17B1C" stroke-opacity="0.980392" stroke-width="0.94" stroke-miterlimit="10"/>
<path d="M181.406 234.041L178.354 245.747" stroke="#B17B1C" stroke-opacity="0.980392" stroke-width="0.94" stroke-miterlimit="10"/>
</g>
<g style="mix-blend-mode:overlay" opacity="0.7">
<path d="M270.933 229.943L278.2 241.974L252.526 248.397L256.597 259.737L273.764 263.691L281.59 280.156" stroke="#B17B1C" stroke-opacity="0.980392" stroke-width="0.94" stroke-miterlimit="10"/>
<path d="M282.423 281.779C280.873 281.779 279.454 281.412 279.247 280.962C279.041 280.511 280.122 280.156 281.652 280.156C283.181 280.156 284.6 280.517 284.821 280.962C285.041 281.406 283.966 281.779 282.423 281.779Z" stroke="#B17B1C" stroke-opacity="0.980392" stroke-width="0.94" stroke-miterlimit="10"/>
<path d="M281.273 236.373L285.999 243.5L260.407 250.098L269.018 270.668L288.059 275.313L298.529 294.915" stroke="#B17B1C" stroke-opacity="0.980392" stroke-width="0.94" stroke-miterlimit="10"/>
<path d="M281.272 236.373C280.177 236.373 279.206 236.187 279.034 235.964C278.861 235.742 279.654 235.562 280.735 235.562C281.817 235.562 282.802 235.742 282.967 235.964C283.132 236.187 282.354 236.373 281.272 236.373Z" stroke="#B17B1C" stroke-opacity="0.980392" stroke-width="0.94" stroke-miterlimit="10"/>
<path d="M336.266 299.422L322.268 280.367L334.489 275.848L315.91 253.878L298.805 250.465L290.841 239.558" stroke="#B17B1C" stroke-opacity="0.980392" stroke-width="0.94" stroke-miterlimit="10"/>
<path d="M290.173 238.698C291.282 238.698 292.33 238.891 292.509 239.125C292.688 239.359 291.923 239.558 290.8 239.558C289.677 239.558 288.623 239.366 288.458 239.125C288.293 238.885 289.057 238.698 290.173 238.698Z" stroke="#B17B1C" stroke-opacity="0.980392" stroke-width="0.94" stroke-miterlimit="10"/>
<path d="M290.51 270.83L280.06 252.442L305.032 245.591L297.62 236.469L283.25 233.921L277.484 225.658" stroke="#B17B1C" stroke-opacity="0.980392" stroke-width="0.94" stroke-miterlimit="10"/>
<path d="M290.511 270.83C291.95 270.83 293.301 271.148 293.535 271.539C293.769 271.93 292.777 272.26 291.323 272.26C289.87 272.26 288.52 271.936 288.299 271.539C288.079 271.142 289.078 270.83 290.511 270.83Z" stroke="#B17B1C" stroke-opacity="0.980392" stroke-width="0.94" stroke-miterlimit="10"/>
<path d="M256.508 263.505L260.413 274.718L272.159 277.71L280.942 298.635" stroke="#B17B1C" stroke-opacity="0.980392" stroke-width="0.94" stroke-miterlimit="10"/>
<path d="M256.528 263.565C255.15 263.565 253.965 263.282 253.848 262.928C253.731 262.573 254.737 262.327 256.087 262.327C257.437 262.327 258.643 262.609 258.767 262.928C258.891 263.246 257.892 263.565 256.528 263.565Z" stroke="#B17B1C" stroke-opacity="0.980392" stroke-width="0.94" stroke-miterlimit="10"/>
<path d="M251.548 224.06L253.972 229.571L261.97 231.001L266.827 240.514" stroke="#B17B1C" stroke-opacity="0.980392" stroke-width="0.94" stroke-miterlimit="10"/>
<path d="M267.233 241.295C266.09 241.295 265.063 241.096 264.946 240.85C264.829 240.604 265.635 240.411 266.779 240.411C267.922 240.411 268.935 240.61 269.059 240.85C269.183 241.09 268.37 241.295 267.233 241.295Z" stroke="#B17B1C" stroke-opacity="0.980392" stroke-width="0.94" stroke-miterlimit="10"/>
<path d="M259.311 243.975L254.71 233.296L246.636 231.806L244.755 226.578" stroke="#B17B1C" stroke-opacity="0.980392" stroke-width="0.94" stroke-miterlimit="10"/>
<path d="M259.291 243.927C260.462 243.927 261.502 244.137 261.619 244.395C261.736 244.654 260.875 244.87 259.697 244.87C258.519 244.87 257.479 244.654 257.376 244.395C257.273 244.137 258.127 243.927 259.291 243.927Z" stroke="#B17B1C" stroke-opacity="0.980392" stroke-width="0.94" stroke-miterlimit="10"/>
<path d="M315.331 272.615L303.454 256.396L292.811 254.184L287.762 246.547" stroke="#B17B1C" stroke-opacity="0.980392" stroke-width="0.94" stroke-miterlimit="10"/>
<path d="M315.276 272.536C316.736 272.536 318.156 272.861 318.459 273.27C318.762 273.678 317.825 274.003 316.351 274.003C314.877 274.003 313.457 273.672 313.168 273.27C312.879 272.867 313.823 272.536 315.276 272.536Z" stroke="#B17B1C" stroke-opacity="0.980392" stroke-width="0.94" stroke-miterlimit="10"/>
<path d="M287.177 245.675C288.361 245.675 289.47 245.892 289.65 246.162C289.829 246.432 289.016 246.649 287.817 246.649C286.619 246.649 285.516 246.426 285.344 246.162C285.172 245.898 286.005 245.675 287.177 245.675Z" stroke="#B17B1C" stroke-opacity="0.980392" stroke-width="0.94" stroke-miterlimit="10"/>
<path d="M313.216 286.177L298.137 263.21L271.711 257.387L269.514 252.826" stroke="#B17B1C" stroke-opacity="0.980392" stroke-width="0.94" stroke-miterlimit="10"/>
<path d="M268.949 251.648C270.195 251.648 271.325 251.889 271.47 252.183C271.615 252.478 270.719 252.724 269.465 252.724C268.211 252.724 267.082 252.484 266.944 252.183C266.806 251.883 267.702 251.648 268.949 251.648Z" stroke="#B17B1C" stroke-opacity="0.980392" stroke-width="0.94" stroke-miterlimit="10"/>
<path d="M355.878 289.735L339.173 271.281L318.052 266.659L313.45 260.782" stroke="#B17B1C" stroke-opacity="0.980392" stroke-width="0.94" stroke-miterlimit="10"/>
<path d="M312.727 259.851C313.65 259.851 314.559 260.043 314.745 260.272C314.931 260.5 314.325 260.698 313.368 260.698C312.41 260.698 311.528 260.512 311.349 260.272C311.17 260.031 311.797 259.851 312.727 259.851Z" stroke="#B17B1C" stroke-opacity="0.980392" stroke-width="0.94" stroke-miterlimit="10"/>
<path d="M318.858 250.609L304.929 234.997L296.352 233.513L293.79 230.4" stroke="#B17B1C" stroke-opacity="0.980392" stroke-width="0.94" stroke-miterlimit="10"/>
<path d="M321.496 251.114C321.751 251.396 320.979 251.63 319.774 251.63C318.568 251.63 317.377 251.396 317.129 251.114C316.881 250.831 317.659 250.603 318.858 250.603C320.056 250.603 321.234 250.831 321.496 251.114Z" stroke="#B17B1C" stroke-opacity="0.980392" stroke-width="0.94" stroke-miterlimit="10"/>
<path d="M247.366 234.041L251.575 245.747" stroke="#B17B1C" stroke-opacity="0.980392" stroke-width="0.94" stroke-miterlimit="10"/>
</g>
<g style="mix-blend-mode:overlay" opacity="0.7">
<path d="M334.351 229.943L349.08 241.973L327.394 248.397L338.499 259.737L358.118 263.691L376.146 280.156" stroke="#B17B1C" stroke-opacity="0.980392" stroke-width="0.94" stroke-miterlimit="10"/>
<path d="M377.992 281.778C376.449 281.778 374.796 281.412 374.313 280.961C373.831 280.51 374.679 280.156 376.215 280.156C377.751 280.156 379.384 280.516 379.887 280.961C380.389 281.406 379.542 281.778 377.992 281.778Z" stroke="#B17B1C" stroke-opacity="0.980392" stroke-width="0.94" stroke-miterlimit="10"/>
<path d="M348.68 236.373L357.829 243.5L336.329 250.098L357.691 270.667L379.611 275.313L402.24 294.915" stroke="#B17B1C" stroke-opacity="0.980392" stroke-width="0.94" stroke-miterlimit="10"/>
<path d="M348.68 236.373C347.825 236.419 346.97 236.278 346.193 235.964C345.91 235.742 346.558 235.561 347.639 235.561C348.494 235.516 349.348 235.654 350.126 235.964C350.422 236.186 349.775 236.373 348.68 236.373Z" stroke="#B17B1C" stroke-opacity="0.980392" stroke-width="0.94" stroke-miterlimit="10"/>
<path d="M442.774 299.422L416.962 280.366L426.378 275.847L394.173 253.878L374.954 250.464L360.226 239.558" stroke="#B17B1C" stroke-opacity="0.980392" stroke-width="0.94" stroke-miterlimit="10"/>
<path d="M359.02 238.698C359.915 238.654 360.809 238.8 361.624 239.125C361.948 239.365 361.307 239.558 360.184 239.558C359.286 239.605 358.389 239.456 357.574 239.125C357.257 238.891 357.904 238.698 359.02 238.698Z" stroke="#B17B1C" stroke-opacity="0.980392" stroke-width="0.94" stroke-miterlimit="10"/>
<path d="M379.294 270.83L357.436 252.442L378.164 245.591L365.089 236.469L349.142 233.921L338.25 225.658" stroke="#B17B1C" stroke-opacity="0.980392" stroke-width="0.94" stroke-miterlimit="10"/>
<path d="M379.287 270.83C380.726 270.83 382.276 271.148 382.731 271.539C383.186 271.929 382.421 272.26 380.968 272.26C379.514 272.26 377.964 271.935 377.523 271.539C377.082 271.142 377.854 270.83 379.287 270.83Z" stroke="#B17B1C" stroke-opacity="0.980392" stroke-width="0.94" stroke-miterlimit="10"/>
<path d="M340.744 263.504L351.601 274.718L365.199 277.71L386.961 298.634" stroke="#B17B1C" stroke-opacity="0.980392" stroke-width="0.94" stroke-miterlimit="10"/>
<path d="M340.806 263.565C339.428 263.565 338.05 263.282 337.726 262.928C337.403 262.573 338.229 262.327 339.58 262.327C340.93 262.327 342.301 262.609 342.645 262.928C342.989 263.246 342.17 263.565 340.806 263.565Z" stroke="#B17B1C" stroke-opacity="0.980392" stroke-width="0.94" stroke-miterlimit="10"/>
<path d="M311.315 224.06L317.164 229.57L326.043 231L336.804 240.513" stroke="#B17B1C" stroke-opacity="0.980392" stroke-width="0.94" stroke-miterlimit="10"/>
<path d="M337.693 241.294C336.556 241.294 335.405 241.096 335.137 240.85C334.868 240.603 335.564 240.411 336.694 240.411C337.575 240.359 338.456 240.511 339.249 240.85C339.532 241.096 338.843 241.294 337.693 241.294Z" stroke="#B17B1C" stroke-opacity="0.980392" stroke-width="0.94" stroke-miterlimit="10"/>
<path d="M331.437 243.974L320.208 233.296L311.212 231.806L306.086 226.578" stroke="#B17B1C" stroke-opacity="0.980392" stroke-width="0.94" stroke-miterlimit="10"/>
<path d="M331.389 243.926C332.553 243.926 333.724 244.137 334 244.395C334.276 244.653 333.552 244.87 332.374 244.87C331.196 244.87 330.025 244.653 329.757 244.395C329.488 244.137 330.218 243.926 331.389 243.926Z" stroke="#B17B1C" stroke-opacity="0.980392" stroke-width="0.94" stroke-miterlimit="10"/>
<path d="M405.216 272.614L383.276 256.396L371.268 254.184L361.479 246.546" stroke="#B17B1C" stroke-opacity="0.980392" stroke-width="0.94" stroke-miterlimit="10"/>
<path d="M405.12 272.536C406.573 272.536 408.199 272.861 408.75 273.269C409.301 273.678 408.571 274.002 407.097 274.002C405.623 274.002 403.997 273.672 403.46 273.269C402.922 272.867 403.659 272.536 405.12 272.536Z" stroke="#B17B1C" stroke-opacity="0.980392" stroke-width="0.94" stroke-miterlimit="10"/>
<path d="M360.377 245.675C361.562 245.675 362.802 245.891 363.133 246.162C363.464 246.432 362.802 246.649 361.604 246.649C360.653 246.694 359.704 246.526 358.848 246.162C358.504 245.897 359.193 245.675 360.377 245.675Z" stroke="#B17B1C" stroke-opacity="0.980392" stroke-width="0.94" stroke-miterlimit="10"/>
<path d="M411.506 286.177L382.187 263.21L352.152 257.387L347.123 252.826" stroke="#B17B1C" stroke-opacity="0.980392" stroke-width="0.94" stroke-miterlimit="10"/>
<path d="M345.834 251.648C347.081 251.648 348.356 251.889 348.686 252.183C349.017 252.477 348.273 252.724 347.012 252.724C345.752 252.724 344.477 252.483 344.16 252.183C343.843 251.883 344.588 251.648 345.834 251.648Z" stroke="#B17B1C" stroke-opacity="0.980392" stroke-width="0.94" stroke-miterlimit="10"/>
<path d="M456.379 289.735L428.232 271.28L404.245 266.659L395.999 260.782" stroke="#B17B1C" stroke-opacity="0.980392" stroke-width="0.94" stroke-miterlimit="10"/>
<path d="M394.697 259.851C395.485 259.822 396.269 259.967 396.977 260.271C397.308 260.512 396.825 260.698 395.889 260.698C395.099 260.733 394.312 260.586 393.608 260.271C393.264 260.043 393.767 259.851 394.697 259.851Z" stroke="#B17B1C" stroke-opacity="0.980392" stroke-width="0.94" stroke-miterlimit="10"/>
<path d="M395.09 250.609L371.482 234.997L361.989 233.512L357.491 230.4" stroke="#B17B1C" stroke-opacity="0.980392" stroke-width="0.94" stroke-miterlimit="10"/>
<path d="M398.045 251.114C398.479 251.396 397.852 251.63 396.667 251.63C395.649 251.669 394.635 251.491 393.712 251.114C393.285 250.831 393.918 250.603 395.089 250.603C396.107 250.564 397.121 250.739 398.045 251.114Z" stroke="#B17B1C" stroke-opacity="0.980392" stroke-width="0.94" stroke-miterlimit="10"/>
<path d="M313.334 234.041L324.79 245.747" stroke="#B17B1C" stroke-opacity="0.980392" stroke-width="0.94" stroke-miterlimit="10"/>
</g>
</g>
</g>
<defs>
<linearGradient id="paint0_linear_1658_689" x1="399.657" y1="237.485" x2="399.657" y2="120.84" gradientUnits="userSpaceOnUse">
<stop stop-color="white"/>
<stop offset="0.21" stop-color="white" stop-opacity="0.71"/>
<stop offset="0.43" stop-color="white" stop-opacity="0.46"/>
<stop offset="0.62" stop-color="white" stop-opacity="0.26"/>
<stop offset="0.78" stop-color="white" stop-opacity="0.12"/>
<stop offset="0.91" stop-color="white" stop-opacity="0.03"/>
<stop offset="1" stop-color="white" stop-opacity="0"/>
</linearGradient>
<linearGradient id="paint1_linear_1658_689" x1="65.1933" y1="242.28" x2="65.1933" y2="-9.39219" gradientUnits="userSpaceOnUse">
<stop stop-color="white"/>
<stop offset="0.21" stop-color="white" stop-opacity="0.71"/>
<stop offset="0.43" stop-color="white" stop-opacity="0.46"/>
<stop offset="0.62" stop-color="white" stop-opacity="0.26"/>
<stop offset="0.78" stop-color="white" stop-opacity="0.12"/>
<stop offset="0.91" stop-color="white" stop-opacity="0.03"/>
<stop offset="1" stop-color="white" stop-opacity="0"/>
</linearGradient>
<linearGradient id="paint2_linear_1658_689" x1="348.198" y1="242.28" x2="348.198" y2="-9.39241" gradientUnits="userSpaceOnUse">
<stop stop-color="white"/>
<stop offset="0.21" stop-color="white" stop-opacity="0.71"/>
<stop offset="0.43" stop-color="white" stop-opacity="0.46"/>
<stop offset="0.62" stop-color="white" stop-opacity="0.26"/>
<stop offset="0.78" stop-color="white" stop-opacity="0.12"/>
<stop offset="0.91" stop-color="white" stop-opacity="0.03"/>
<stop offset="1" stop-color="white" stop-opacity="0"/>
</linearGradient>
<linearGradient id="paint3_linear_1658_689" x1="15.0149" y1="237.19" x2="15.0149" y2="128.814" gradientUnits="userSpaceOnUse">
<stop stop-color="white"/>
<stop offset="0.21" stop-color="white" stop-opacity="0.71"/>
<stop offset="0.43" stop-color="white" stop-opacity="0.46"/>
<stop offset="0.62" stop-color="white" stop-opacity="0.26"/>
<stop offset="0.78" stop-color="white" stop-opacity="0.12"/>
<stop offset="0.91" stop-color="white" stop-opacity="0.03"/>
<stop offset="1" stop-color="white" stop-opacity="0"/>
</linearGradient>
<linearGradient id="paint4_linear_1658_689" x1="307.726" y1="232.023" x2="307.726" y2="11.8445" gradientUnits="userSpaceOnUse">
<stop stop-color="white"/>
<stop offset="0.52" stop-color="#F8F8F8" stop-opacity="0.47"/>
<stop offset="1" stop-color="#F2F2F2" stop-opacity="0"/>
</linearGradient>
<linearGradient id="paint5_linear_1658_689" x1="307.106" y1="232.01" x2="307.106" y2="11.8799" gradientUnits="userSpaceOnUse">
<stop stop-color="white"/>
<stop offset="0.52" stop-color="#F8F8F8" stop-opacity="0.47"/>
<stop offset="1" stop-color="#F2F2F2" stop-opacity="0"/>
</linearGradient>
<linearGradient id="paint6_linear_1658_689" x1="319.947" y1="232.022" x2="319.947" y2="11.8385" gradientUnits="userSpaceOnUse">
<stop stop-color="white"/>
<stop offset="0.52" stop-color="#F8F8F8" stop-opacity="0.47"/>
<stop offset="1" stop-color="#F2F2F2" stop-opacity="0"/>
</linearGradient>
<linearGradient id="paint7_linear_1658_689" x1="313.657" y1="232.022" x2="313.657" y2="11.8444" gradientUnits="userSpaceOnUse">
<stop stop-color="white"/>
<stop offset="0.52" stop-color="#F8F8F8" stop-opacity="0.47"/>
<stop offset="1" stop-color="#F2F2F2" stop-opacity="0"/>
</linearGradient>
<linearGradient id="paint8_linear_1658_689" x1="313.038" y1="232.022" x2="313.038" y2="11.821" gradientUnits="userSpaceOnUse">
<stop stop-color="white"/>
<stop offset="0.52" stop-color="#F8F8F8" stop-opacity="0.47"/>
<stop offset="1" stop-color="#F2F2F2" stop-opacity="0"/>
</linearGradient>
<linearGradient id="paint9_linear_1658_689" x1="325.871" y1="232.022" x2="325.871" y2="11.8383" gradientUnits="userSpaceOnUse">
<stop stop-color="white"/>
<stop offset="0.52" stop-color="#F8F8F8" stop-opacity="0.47"/>
<stop offset="1" stop-color="#F2F2F2" stop-opacity="0"/>
</linearGradient>
<linearGradient id="paint10_linear_1658_689" x1="338.306" y1="232.022" x2="338.306" y2="11.8445" gradientUnits="userSpaceOnUse">
<stop stop-color="white"/>
<stop offset="0.52" stop-color="#F8F8F8" stop-opacity="0.47"/>
<stop offset="1" stop-color="#F2F2F2" stop-opacity="0"/>
</linearGradient>
<linearGradient id="paint11_linear_1658_689" x1="332.485" y1="232.01" x2="332.485" y2="11.8443" gradientUnits="userSpaceOnUse">
<stop stop-color="white"/>
<stop offset="0.52" stop-color="#F8F8F8" stop-opacity="0.47"/>
<stop offset="1" stop-color="#F2F2F2" stop-opacity="0"/>
</linearGradient>
<linearGradient id="paint12_linear_1658_689" x1="328.6" y1="232.022" x2="328.6" y2="11.8445" gradientUnits="userSpaceOnUse">
<stop stop-color="white"/>
<stop offset="0.52" stop-color="#F8F8F8" stop-opacity="0.47"/>
<stop offset="1" stop-color="#F2F2F2" stop-opacity="0"/>
</linearGradient>
<linearGradient id="paint13_linear_1658_689" x1="329.212" y1="232.004" x2="329.212" y2="11.8444" gradientUnits="userSpaceOnUse">
<stop stop-color="white"/>
<stop offset="0.52" stop-color="#F8F8F8" stop-opacity="0.47"/>
<stop offset="1" stop-color="#F2F2F2" stop-opacity="0"/>
</linearGradient>
<linearGradient id="paint14_linear_1658_689" x1="316.379" y1="232.016" x2="316.379" y2="11.8499" gradientUnits="userSpaceOnUse">
<stop stop-color="white"/>
<stop offset="0.52" stop-color="#F8F8F8" stop-opacity="0.47"/>
<stop offset="1" stop-color="#F2F2F2" stop-opacity="0"/>
</linearGradient>
<linearGradient id="paint15_linear_1658_689" x1="298.006" y1="232.022" x2="298.006" y2="11.8444" gradientUnits="userSpaceOnUse">
<stop stop-color="white"/>
<stop offset="0.52" stop-color="#F8F8F8" stop-opacity="0.47"/>
<stop offset="1" stop-color="#F2F2F2" stop-opacity="0"/>
</linearGradient>
<linearGradient id="paint16_linear_1658_689" x1="294.452" y1="232.016" x2="294.452" y2="11.8509" gradientUnits="userSpaceOnUse">
<stop stop-color="white"/>
<stop offset="0.52" stop-color="#F8F8F8" stop-opacity="0.47"/>
<stop offset="1" stop-color="#F2F2F2" stop-opacity="0"/>
</linearGradient>
<linearGradient id="paint17_linear_1658_689" x1="301.568" y1="232.022" x2="301.568" y2="11.857" gradientUnits="userSpaceOnUse">
<stop stop-color="white"/>
<stop offset="0.52" stop-color="#F8F8F8" stop-opacity="0.47"/>
<stop offset="1" stop-color="#F2F2F2" stop-opacity="0"/>
</linearGradient>
<linearGradient id="paint18_linear_1658_689" x1="307.106" y1="232.022" x2="307.106" y2="11.8444" gradientUnits="userSpaceOnUse">
<stop stop-color="white"/>
<stop offset="0.52" stop-color="#F8F8F8" stop-opacity="0.47"/>
<stop offset="1" stop-color="#F2F2F2" stop-opacity="0"/>
</linearGradient>
<linearGradient id="paint19_linear_1658_689" x1="303.545" y1="232.023" x2="303.545" y2="11.8385" gradientUnits="userSpaceOnUse">
<stop stop-color="white"/>
<stop offset="0.52" stop-color="#F8F8F8" stop-opacity="0.47"/>
<stop offset="1" stop-color="#F2F2F2" stop-opacity="0"/>
</linearGradient>
<linearGradient id="paint20_linear_1658_689" x1="310.668" y1="232.023" x2="310.668" y2="11.8386" gradientUnits="userSpaceOnUse">
<stop stop-color="white"/>
<stop offset="0.52" stop-color="#F8F8F8" stop-opacity="0.47"/>
<stop offset="1" stop-color="#F2F2F2" stop-opacity="0"/>
</linearGradient>
<linearGradient id="paint21_linear_1658_689" x1="299.136" y1="232.022" x2="299.136" y2="11.8442" gradientUnits="userSpaceOnUse">
<stop stop-color="white"/>
<stop offset="0.52" stop-color="#F8F8F8" stop-opacity="0.47"/>
<stop offset="1" stop-color="#F2F2F2" stop-opacity="0"/>
</linearGradient>
<linearGradient id="paint22_linear_1658_689" x1="302.698" y1="232.01" x2="302.698" y2="11.8445" gradientUnits="userSpaceOnUse">
<stop stop-color="white"/>
<stop offset="0.52" stop-color="#F8F8F8" stop-opacity="0.47"/>
<stop offset="1" stop-color="#F2F2F2" stop-opacity="0"/>
</linearGradient>
<linearGradient id="paint23_linear_1658_689" x1="295.582" y1="232.04" x2="295.582" y2="11.8383" gradientUnits="userSpaceOnUse">
<stop stop-color="white"/>
<stop offset="0.52" stop-color="#F8F8F8" stop-opacity="0.47"/>
<stop offset="1" stop-color="#F2F2F2" stop-opacity="0"/>
</linearGradient>
<linearGradient id="paint24_linear_1658_689" x1="329.212" y1="232.022" x2="329.212" y2="11.8443" gradientUnits="userSpaceOnUse">
<stop stop-color="#FFA80F" stop-opacity="0.980392"/>
<stop offset="0.52" stop-color="#F8F8F8" stop-opacity="0.47"/>
<stop offset="1" stop-color="#F2F2F2" stop-opacity="0"/>
</linearGradient>
<linearGradient id="paint25_linear_1658_689" x1="332.774" y1="232.017" x2="332.774" y2="11.8503" gradientUnits="userSpaceOnUse">
<stop stop-color="white"/>
<stop offset="0.52" stop-color="#F8F8F8" stop-opacity="0.47"/>
<stop offset="1" stop-color="#F2F2F2" stop-opacity="0"/>
</linearGradient>
<linearGradient id="paint26_linear_1658_689" x1="325.657" y1="232.016" x2="325.657" y2="11.8444" gradientUnits="userSpaceOnUse">
<stop stop-color="white"/>
<stop offset="0.52" stop-color="#F8F8F8" stop-opacity="0.47"/>
<stop offset="1" stop-color="#F2F2F2" stop-opacity="0"/>
</linearGradient>
<linearGradient id="paint27_linear_1658_689" x1="316.489" y1="232.022" x2="316.489" y2="11.8443" gradientUnits="userSpaceOnUse">
<stop stop-color="white"/>
<stop offset="0.52" stop-color="#F8F8F8" stop-opacity="0.47"/>
<stop offset="1" stop-color="#F2F2F2" stop-opacity="0"/>
</linearGradient>
<linearGradient id="paint28_linear_1658_689" x1="307.788" y1="232.035" x2="307.788" y2="11.826" gradientUnits="userSpaceOnUse">
<stop stop-color="white"/>
<stop offset="0.52" stop-color="#F8F8F8" stop-opacity="0.47"/>
<stop offset="1" stop-color="#F2F2F2" stop-opacity="0"/>
</linearGradient>
<linearGradient id="paint29_linear_1658_689" x1="343.941" y1="256.342" x2="343.941" y2="-31.5061" gradientUnits="userSpaceOnUse">
<stop stop-color="white"/>
<stop offset="0.52" stop-color="#F8F8F8" stop-opacity="0.47"/>
<stop offset="1" stop-color="#F2F2F2" stop-opacity="0"/>
</linearGradient>
<linearGradient id="paint30_linear_1658_689" x1="337.865" y1="232.016" x2="337.865" y2="11.8441" gradientUnits="userSpaceOnUse">
<stop stop-color="white"/>
<stop offset="0.52" stop-color="#F8F8F8" stop-opacity="0.47"/>
<stop offset="1" stop-color="#F2F2F2" stop-opacity="0"/>
</linearGradient>
<linearGradient id="paint31_linear_1658_689" x1="345.305" y1="232.022" x2="345.305" y2="11.8445" gradientUnits="userSpaceOnUse">
<stop stop-color="white"/>
<stop offset="0.52" stop-color="#F8F8F8" stop-opacity="0.47"/>
<stop offset="1" stop-color="#F2F2F2" stop-opacity="0"/>
</linearGradient>
<linearGradient id="paint32_linear_1658_689" x1="341.826" y1="232.016" x2="341.826" y2="11.8381" gradientUnits="userSpaceOnUse">
<stop stop-color="white"/>
<stop offset="0.52" stop-color="#F8F8F8" stop-opacity="0.47"/>
<stop offset="1" stop-color="#F2F2F2" stop-opacity="0"/>
</linearGradient>
<linearGradient id="paint33_linear_1658_689" x1="348.728" y1="232.016" x2="348.728" y2="11.8443" gradientUnits="userSpaceOnUse">
<stop stop-color="white"/>
<stop offset="0.52" stop-color="#F8F8F8" stop-opacity="0.47"/>
<stop offset="1" stop-color="#F2F2F2" stop-opacity="0"/>
</linearGradient>
<linearGradient id="paint34_linear_1658_689" x1="295.506" y1="232.022" x2="295.506" y2="11.8443" gradientUnits="userSpaceOnUse">
<stop stop-color="white"/>
<stop offset="0.52" stop-color="#F8F8F8" stop-opacity="0.47"/>
<stop offset="1" stop-color="#F2F2F2" stop-opacity="0"/>
</linearGradient>
<linearGradient id="paint35_linear_1658_689" x1="106.939" y1="232.023" x2="106.939" y2="11.8445" gradientUnits="userSpaceOnUse">
<stop stop-color="white"/>
<stop offset="0.52" stop-color="#F8F8F8" stop-opacity="0.47"/>
<stop offset="1" stop-color="#F2F2F2" stop-opacity="0"/>
</linearGradient>
<linearGradient id="paint36_linear_1658_689" x1="107.559" y1="232.01" x2="107.559" y2="11.8801" gradientUnits="userSpaceOnUse">
<stop stop-color="white"/>
<stop offset="0.52" stop-color="#F8F8F8" stop-opacity="0.47"/>
<stop offset="1" stop-color="#F2F2F2" stop-opacity="0"/>
</linearGradient>
<linearGradient id="paint37_linear_1658_689" x1="94.718" y1="232.022" x2="94.718" y2="11.8382" gradientUnits="userSpaceOnUse">
<stop stop-color="white"/>
<stop offset="0.52" stop-color="#F8F8F8" stop-opacity="0.47"/>
<stop offset="1" stop-color="#F2F2F2" stop-opacity="0"/>
</linearGradient>
<linearGradient id="paint38_linear_1658_689" x1="101.007" y1="232.022" x2="101.007" y2="11.8444" gradientUnits="userSpaceOnUse">
<stop stop-color="white"/>
<stop offset="0.52" stop-color="#F8F8F8" stop-opacity="0.47"/>
<stop offset="1" stop-color="#F2F2F2" stop-opacity="0"/>
</linearGradient>
<linearGradient id="paint39_linear_1658_689" x1="101.628" y1="232.022" x2="101.628" y2="11.821" gradientUnits="userSpaceOnUse">
<stop stop-color="white"/>
<stop offset="0.52" stop-color="#F8F8F8" stop-opacity="0.47"/>
<stop offset="1" stop-color="#F2F2F2" stop-opacity="0"/>
</linearGradient>
<linearGradient id="paint40_linear_1658_689" x1="88.794" y1="232.022" x2="88.794" y2="11.8383" gradientUnits="userSpaceOnUse">
<stop stop-color="white"/>
<stop offset="0.52" stop-color="#F8F8F8" stop-opacity="0.47"/>
<stop offset="1" stop-color="#F2F2F2" stop-opacity="0"/>
</linearGradient>
<linearGradient id="paint41_linear_1658_689" x1="76.3597" y1="232.022" x2="76.3597" y2="11.8445" gradientUnits="userSpaceOnUse">
<stop stop-color="white"/>
<stop offset="0.52" stop-color="#F8F8F8" stop-opacity="0.47"/>
<stop offset="1" stop-color="#F2F2F2" stop-opacity="0"/>
</linearGradient>
<linearGradient id="paint42_linear_1658_689" x1="82.1809" y1="232.01" x2="82.1809" y2="11.8442" gradientUnits="userSpaceOnUse">
<stop stop-color="white"/>
<stop offset="0.52" stop-color="#F8F8F8" stop-opacity="0.47"/>
<stop offset="1" stop-color="#F2F2F2" stop-opacity="0"/>
</linearGradient>
<linearGradient id="paint43_linear_1658_689" x1="86.0658" y1="232.022" x2="86.0658" y2="11.8445" gradientUnits="userSpaceOnUse">
<stop stop-color="white"/>
<stop offset="0.52" stop-color="#F8F8F8" stop-opacity="0.47"/>
<stop offset="1" stop-color="#F2F2F2" stop-opacity="0"/>
</linearGradient>
<linearGradient id="paint44_linear_1658_689" x1="85.446" y1="232.004" x2="85.446" y2="11.8444" gradientUnits="userSpaceOnUse">
<stop stop-color="white"/>
<stop offset="0.52" stop-color="#F8F8F8" stop-opacity="0.47"/>
<stop offset="1" stop-color="#F2F2F2" stop-opacity="0"/>
</linearGradient>
<linearGradient id="paint45_linear_1658_689" x1="98.2863" y1="232.016" x2="98.2863" y2="11.8499" gradientUnits="userSpaceOnUse">
<stop stop-color="white"/>
<stop offset="0.52" stop-color="#F8F8F8" stop-opacity="0.47"/>
<stop offset="1" stop-color="#F2F2F2" stop-opacity="0"/>
</linearGradient>
<linearGradient id="paint46_linear_1658_689" x1="116.659" y1="232.022" x2="116.659" y2="11.8444" gradientUnits="userSpaceOnUse">
<stop stop-color="white"/>
<stop offset="0.52" stop-color="#F8F8F8" stop-opacity="0.47"/>
<stop offset="1" stop-color="#F2F2F2" stop-opacity="0"/>
</linearGradient>
<linearGradient id="paint47_linear_1658_689" x1="120.213" y1="232.016" x2="120.213" y2="11.8509" gradientUnits="userSpaceOnUse">
<stop stop-color="white"/>
<stop offset="0.52" stop-color="#F8F8F8" stop-opacity="0.47"/>
<stop offset="1" stop-color="#F2F2F2" stop-opacity="0"/>
</linearGradient>
<linearGradient id="paint48_linear_1658_689" x1="113.097" y1="232.022" x2="113.097" y2="11.857" gradientUnits="userSpaceOnUse">
<stop stop-color="white"/>
<stop offset="0.52" stop-color="#F8F8F8" stop-opacity="0.47"/>
<stop offset="1" stop-color="#F2F2F2" stop-opacity="0"/>
</linearGradient>
<linearGradient id="paint49_linear_1658_689" x1="107.559" y1="232.022" x2="107.559" y2="11.8444" gradientUnits="userSpaceOnUse">
<stop stop-color="white"/>
<stop offset="0.52" stop-color="#F8F8F8" stop-opacity="0.47"/>
<stop offset="1" stop-color="#F2F2F2" stop-opacity="0"/>
</linearGradient>
<linearGradient id="paint50_linear_1658_689" x1="111.113" y1="232.023" x2="111.113" y2="11.8385" gradientUnits="userSpaceOnUse">
<stop stop-color="white"/>
<stop offset="0.52" stop-color="#F8F8F8" stop-opacity="0.47"/>
<stop offset="1" stop-color="#F2F2F2" stop-opacity="0"/>
</linearGradient>
<linearGradient id="paint51_linear_1658_689" x1="103.998" y1="232.023" x2="103.998" y2="11.8386" gradientUnits="userSpaceOnUse">
<stop stop-color="white"/>
<stop offset="0.52" stop-color="#F8F8F8" stop-opacity="0.47"/>
<stop offset="1" stop-color="#F2F2F2" stop-opacity="0"/>
</linearGradient>
<linearGradient id="paint52_linear_1658_689" x1="115.529" y1="232.022" x2="115.529" y2="11.8442" gradientUnits="userSpaceOnUse">
<stop stop-color="white"/>
<stop offset="0.52" stop-color="#F8F8F8" stop-opacity="0.47"/>
<stop offset="1" stop-color="#F2F2F2" stop-opacity="0"/>
</linearGradient>
<linearGradient id="paint53_linear_1658_689" x1="111.967" y1="232.01" x2="111.967" y2="11.8445" gradientUnits="userSpaceOnUse">
<stop stop-color="white"/>
<stop offset="0.52" stop-color="#F8F8F8" stop-opacity="0.47"/>
<stop offset="1" stop-color="#F2F2F2" stop-opacity="0"/>
</linearGradient>
<linearGradient id="paint54_linear_1658_689" x1="119.084" y1="232.04" x2="119.084" y2="11.8383" gradientUnits="userSpaceOnUse">
<stop stop-color="white"/>
<stop offset="0.52" stop-color="#F8F8F8" stop-opacity="0.47"/>
<stop offset="1" stop-color="#F2F2F2" stop-opacity="0"/>
</linearGradient>
<linearGradient id="paint55_linear_1658_689" x1="85.4457" y1="232.022" x2="85.4457" y2="11.8443" gradientUnits="userSpaceOnUse">
<stop stop-color="white"/>
<stop offset="0.52" stop-color="#F8F8F8" stop-opacity="0.47"/>
<stop offset="1" stop-color="#F2F2F2" stop-opacity="0"/>
</linearGradient>
<linearGradient id="paint56_linear_1658_689" x1="81.8916" y1="232.017" x2="81.8916" y2="11.8503" gradientUnits="userSpaceOnUse">
<stop stop-color="white"/>
<stop offset="0.52" stop-color="#F8F8F8" stop-opacity="0.47"/>
<stop offset="1" stop-color="#F2F2F2" stop-opacity="0"/>
</linearGradient>
<linearGradient id="paint57_linear_1658_689" x1="89.0075" y1="232.017" x2="89.0075" y2="11.8443" gradientUnits="userSpaceOnUse">
<stop stop-color="white"/>
<stop offset="0.52" stop-color="#F8F8F8" stop-opacity="0.47"/>
<stop offset="1" stop-color="#F2F2F2" stop-opacity="0"/>
</linearGradient>
<linearGradient id="paint58_linear_1658_689" x1="98.1762" y1="232.022" x2="98.1762" y2="11.8443" gradientUnits="userSpaceOnUse">
<stop stop-color="white"/>
<stop offset="0.52" stop-color="#F8F8F8" stop-opacity="0.47"/>
<stop offset="1" stop-color="#F2F2F2" stop-opacity="0"/>
</linearGradient>
<linearGradient id="paint59_linear_1658_689" x1="106.87" y1="232.035" x2="106.87" y2="11.826" gradientUnits="userSpaceOnUse">
<stop stop-color="white"/>
<stop offset="0.52" stop-color="#F8F8F8" stop-opacity="0.47"/>
<stop offset="1" stop-color="#F2F2F2" stop-opacity="0"/>
</linearGradient>
<linearGradient id="paint60_linear_1658_689" x1="70.7174" y1="254.797" x2="70.7174" y2="-28.7418" gradientUnits="userSpaceOnUse">
<stop stop-color="white"/>
<stop offset="0.52" stop-color="#F8F8F8" stop-opacity="0.47"/>
<stop offset="1" stop-color="#F2F2F2" stop-opacity="0"/>
</linearGradient>
<linearGradient id="paint61_linear_1658_689" x1="76.8003" y1="232.016" x2="76.8003" y2="11.8441" gradientUnits="userSpaceOnUse">
<stop stop-color="white"/>
<stop offset="0.52" stop-color="#F8F8F8" stop-opacity="0.47"/>
<stop offset="1" stop-color="#F2F2F2" stop-opacity="0"/>
</linearGradient>
<linearGradient id="paint62_linear_1658_689" x1="69.3604" y1="232.022" x2="69.3604" y2="11.8445" gradientUnits="userSpaceOnUse">
<stop stop-color="white"/>
<stop offset="0.52" stop-color="#F8F8F8" stop-opacity="0.47"/>
<stop offset="1" stop-color="#F2F2F2" stop-opacity="0"/>
</linearGradient>
<linearGradient id="paint63_linear_1658_689" x1="72.8325" y1="232.016" x2="72.8325" y2="11.8381" gradientUnits="userSpaceOnUse">
<stop stop-color="white"/>
<stop offset="0.52" stop-color="#F8F8F8" stop-opacity="0.47"/>
<stop offset="1" stop-color="#F2F2F2" stop-opacity="0"/>
</linearGradient>
<linearGradient id="paint64_linear_1658_689" x1="65.9368" y1="232.016" x2="65.9368" y2="11.8443" gradientUnits="userSpaceOnUse">
<stop stop-color="white"/>
<stop offset="0.52" stop-color="#F8F8F8" stop-opacity="0.47"/>
<stop offset="1" stop-color="#F2F2F2" stop-opacity="0"/>
</linearGradient>
<linearGradient id="paint65_linear_1658_689" x1="119.153" y1="232.022" x2="119.153" y2="11.8443" gradientUnits="userSpaceOnUse">
<stop stop-color="white"/>
<stop offset="0.52" stop-color="#F8F8F8" stop-opacity="0.47"/>
<stop offset="1" stop-color="#F2F2F2" stop-opacity="0"/>
</linearGradient>
</defs>
</svg>
