<svg width="1242" height="839" viewBox="0 0 1242 839" fill="none" xmlns="http://www.w3.org/2000/svg">
<path style="mix-blend-mode:overlay" d="M1156.36 783.348H1213.02V641.102H1156.36V783.348Z" fill="url(#paint0_linear_1658_244)"/>
<path style="mix-blend-mode:overlay" d="M1071.38 783.348H1128.04V420.28H1071.38V783.348Z" fill="url(#paint1_linear_1658_244)"/>
<g style="mix-blend-mode:overlay">
<g opacity="0.7">
<path style="mix-blend-mode:screen" d="M188.874 757.348H344.304L344.304 -25.9999H188.874L188.874 757.348Z" fill="url(#paint2_linear_1658_244)"/>
</g>
<g opacity="0.7">
<path style="mix-blend-mode:screen" d="M1047.33 -26H895.723V757.348H1047.33V-26Z" fill="url(#paint3_linear_1658_244)"/>
</g>
</g>
<path style="mix-blend-mode:overlay" d="M113.253 783.368H169.913L169.913 446.042H113.253L113.253 783.368Z" fill="url(#paint4_linear_1658_244)"/>
<path style="mix-blend-mode:overlay" d="M28.279 783.368H84.9395L84.9395 658.936H28.279L28.279 783.368Z" fill="url(#paint5_linear_1658_244)"/>
<g style="mix-blend-mode:overlay" opacity="0.7">
<path d="M869.847 659.965H868.302V538.357L839.509 504.506V394.458L839.749 394.196L900.373 322.901V165.082H901.935V323.668L901.712 323.93L841.07 395.224V503.739L869.847 537.591V659.965Z" fill="url(#paint6_linear_1658_244)"/>
<path d="M869.177 671.443C868.129 671.443 867.104 671.078 866.232 670.393C865.36 669.708 864.68 668.734 864.279 667.595C863.878 666.456 863.773 665.203 863.977 663.994C864.182 662.784 864.687 661.674 865.428 660.802C866.17 659.93 867.115 659.336 868.143 659.096C869.172 658.855 870.238 658.979 871.207 659.451C872.175 659.922 873.004 660.721 873.586 661.747C874.169 662.772 874.48 663.977 874.48 665.21C874.475 666.861 873.915 668.444 872.922 669.612C871.928 670.78 870.582 671.438 869.177 671.443ZM869.177 660.812C868.438 660.812 867.714 661.07 867.099 661.553C866.484 662.036 866.005 662.723 865.722 663.527C865.438 664.33 865.364 665.215 865.509 666.068C865.653 666.921 866.009 667.705 866.532 668.32C867.056 668.935 867.722 669.354 868.448 669.523C869.173 669.693 869.925 669.606 870.609 669.273C871.293 668.94 871.877 668.376 872.288 667.653C872.699 666.93 872.918 666.08 872.918 665.21C872.9 664.056 872.499 662.955 871.8 662.145C871.101 661.334 870.159 660.878 869.177 660.872V660.812Z" fill="url(#paint7_linear_1658_244)"/>
<path d="M901.163 165.99C900.113 165.994 899.087 165.632 898.212 164.949C897.338 164.267 896.656 163.294 896.252 162.156C895.848 161.017 895.74 159.763 895.943 158.552C896.146 157.342 896.649 156.229 897.39 155.355C898.131 154.482 899.076 153.886 900.105 153.644C901.134 153.402 902.201 153.524 903.171 153.995C904.141 154.466 904.97 155.265 905.553 156.291C906.136 157.316 906.448 158.522 906.448 159.756C906.448 161.406 905.892 162.988 904.901 164.157C903.91 165.325 902.566 165.984 901.163 165.99ZM901.163 155.358C900.423 155.358 899.7 155.616 899.085 156.099C898.469 156.583 897.99 157.27 897.707 158.073C897.424 158.877 897.35 159.761 897.494 160.614C897.638 161.467 897.994 162.251 898.518 162.866C899.041 163.481 899.707 163.9 900.433 164.069C901.159 164.239 901.911 164.152 902.594 163.819C903.278 163.486 903.862 162.923 904.273 162.199C904.684 161.476 904.903 160.626 904.903 159.756C904.899 158.591 904.503 157.476 903.803 156.652C903.102 155.829 902.153 155.364 901.163 155.358Z" fill="url(#paint8_linear_1658_244)"/>
<path d="M884.621 748.891H883.06V627.283L854.283 593.432V412.15L854.506 411.868L915.148 340.573V254.008H916.709V341.34L916.469 341.602L855.845 412.896V592.665L884.621 626.517V748.891Z" fill="url(#paint9_linear_1658_244)"/>
<path d="M883.952 760.43C882.903 760.43 881.878 760.064 881.006 759.379C880.134 758.694 879.455 757.721 879.053 756.582C878.652 755.443 878.547 754.189 878.752 752.98C878.956 751.771 879.461 750.66 880.203 749.788C880.944 748.917 881.889 748.323 882.918 748.082C883.946 747.842 885.012 747.965 885.981 748.437C886.95 748.909 887.778 749.708 888.361 750.733C888.943 751.758 889.254 752.963 889.254 754.196C889.25 755.848 888.69 757.43 887.696 758.598C886.703 759.766 885.357 760.425 883.952 760.43ZM883.952 749.798C883.212 749.798 882.489 750.056 881.874 750.54C881.259 751.023 880.779 751.71 880.496 752.513C880.213 753.317 880.139 754.201 880.283 755.054C880.427 755.907 880.784 756.691 881.307 757.306C881.83 757.921 882.497 758.34 883.222 758.51C883.948 758.679 884.7 758.592 885.383 758.259C886.067 757.927 886.651 757.363 887.062 756.64C887.473 755.916 887.693 755.066 887.693 754.196C887.688 753.032 887.293 751.916 886.592 751.092C885.892 750.269 884.943 749.804 883.952 749.798Z" fill="url(#paint10_linear_1658_244)"/>
<path d="M915.92 254.916C914.871 254.916 913.846 254.55 912.974 253.865C912.102 253.18 911.422 252.207 911.021 251.067C910.62 249.928 910.515 248.675 910.719 247.466C910.924 246.257 911.429 245.146 912.17 244.274C912.912 243.402 913.857 242.809 914.885 242.568C915.914 242.328 916.98 242.451 917.949 242.923C918.918 243.395 919.746 244.194 920.328 245.219C920.911 246.244 921.222 247.449 921.222 248.682C921.222 250.335 920.663 251.921 919.669 253.09C918.675 254.259 917.326 254.916 915.92 254.916ZM915.92 244.284C915.181 244.288 914.459 244.549 913.846 245.035C913.233 245.521 912.756 246.209 912.476 247.013C912.195 247.817 912.124 248.7 912.27 249.552C912.416 250.404 912.774 251.186 913.298 251.799C913.822 252.412 914.488 252.829 915.213 252.997C915.939 253.165 916.69 253.077 917.372 252.743C918.055 252.41 918.638 251.846 919.048 251.123C919.459 250.4 919.678 249.551 919.678 248.682C919.673 247.514 919.275 246.395 918.571 245.571C917.867 244.747 916.913 244.284 915.92 244.284Z" fill="url(#paint11_linear_1658_244)"/>
<path d="M935.773 773.018H934.212L934.383 660.953L960.517 630.249V450.48L931.724 416.629V294.254H933.285V415.882L962.062 449.713V630.995L961.838 631.277L935.945 661.72L935.773 773.018Z" fill="url(#paint12_linear_1658_244)"/>
<path d="M932.393 295.162C931.344 295.162 930.319 294.797 929.447 294.112C928.575 293.427 927.896 292.453 927.494 291.314C927.093 290.175 926.988 288.922 927.192 287.712C927.397 286.503 927.902 285.392 928.644 284.521C929.385 283.649 930.33 283.055 931.358 282.815C932.387 282.574 933.453 282.698 934.422 283.169C935.391 283.641 936.219 284.44 936.801 285.465C937.384 286.49 937.695 287.696 937.695 288.929C937.695 290.582 937.136 292.167 936.142 293.336C935.148 294.505 933.799 295.162 932.393 295.162ZM932.393 284.531C931.653 284.531 930.93 284.789 930.315 285.272C929.699 285.755 929.22 286.442 928.937 287.246C928.654 288.049 928.58 288.933 928.724 289.786C928.868 290.64 929.225 291.423 929.748 292.038C930.271 292.653 930.937 293.072 931.663 293.242C932.389 293.412 933.141 293.324 933.824 292.992C934.508 292.659 935.092 292.095 935.503 291.372C935.914 290.649 936.134 289.798 936.134 288.929C936.129 287.764 935.734 286.648 935.033 285.825C934.332 285.001 933.384 284.536 932.393 284.531Z" fill="url(#paint13_linear_1658_244)"/>
<path d="M893.046 594.299H891.502V435.713L891.725 435.451L952.366 364.156V255.642L923.573 221.79V99.416H925.134V221.044L953.928 254.875V364.923L953.688 365.185L893.046 436.479V594.299Z" fill="url(#paint14_linear_1658_244)"/>
<path d="M924.208 100.324C923.159 100.324 922.134 99.9587 921.262 99.2738C920.39 98.5888 919.71 97.6152 919.309 96.4762C918.908 95.3371 918.803 94.0837 919.007 92.8745C919.212 91.6653 919.717 90.5545 920.459 89.6827C921.2 88.8109 922.145 88.2172 923.173 87.9767C924.202 87.7362 925.268 87.8596 926.237 88.3315C927.206 88.8033 928.034 89.6022 928.616 90.6274C929.199 91.6525 929.51 92.8577 929.51 94.0906C929.512 94.91 929.377 95.7218 929.111 96.4793C928.845 97.2368 928.455 97.9251 927.962 98.5045C927.469 99.0838 926.884 99.5429 926.24 99.8552C925.595 100.168 924.905 100.327 924.208 100.324ZM924.208 89.6927C923.469 89.6967 922.747 89.9581 922.134 90.4437C921.521 90.9294 921.045 91.6176 920.764 92.4216C920.484 93.2255 920.412 94.1091 920.558 94.9609C920.704 95.8127 921.062 96.5944 921.586 97.2075C922.11 97.8205 922.776 98.2374 923.501 98.4054C924.227 98.5735 924.978 98.4852 925.66 98.1518C926.343 97.8183 926.926 97.2546 927.336 96.5319C927.747 95.8091 927.966 94.9596 927.966 94.0906C927.961 92.9224 927.563 91.8038 926.859 90.9796C926.155 90.1554 925.202 89.6927 924.208 89.6927Z" fill="url(#paint15_linear_1658_244)"/>
<path d="M892.274 605.839C891.225 605.839 890.2 605.473 889.328 604.788C888.456 604.103 887.777 603.129 887.375 601.99C886.974 600.851 886.869 599.598 887.074 598.389C887.278 597.179 887.783 596.069 888.525 595.197C889.266 594.325 890.211 593.731 891.24 593.491C892.268 593.25 893.334 593.374 894.303 593.846C895.272 594.317 896.1 595.116 896.683 596.142C897.265 597.167 897.576 598.372 897.576 599.605C897.576 601.258 897.018 602.844 896.023 604.013C895.029 605.182 893.68 605.839 892.274 605.839ZM892.274 595.207C891.529 595.203 890.8 595.459 890.18 595.943C889.559 596.427 889.075 597.117 888.788 597.925C888.502 598.733 888.426 599.623 888.57 600.482C888.715 601.341 889.073 602.13 889.6 602.749C890.126 603.368 890.797 603.789 891.528 603.959C892.258 604.129 893.015 604.04 893.703 603.703C894.39 603.366 894.977 602.797 895.389 602.067C895.8 601.337 896.018 600.48 896.015 599.605C896.01 598.44 895.615 597.324 894.914 596.501C894.214 595.677 893.265 595.212 892.274 595.207Z" fill="url(#paint16_linear_1658_244)"/>
<path d="M856.153 768.883H854.609V643.886L836.866 623.046V536.38H838.428V622.28L856.153 643.139V768.883Z" fill="url(#paint17_linear_1658_244)"/>
<path d="M837.638 537.833C836.59 537.833 835.565 537.467 834.693 536.782C833.821 536.097 833.141 535.123 832.74 533.984C832.338 532.845 832.233 531.592 832.438 530.383C832.643 529.174 833.148 528.063 833.889 527.191C834.631 526.319 835.575 525.726 836.604 525.485C837.633 525.244 838.699 525.368 839.668 525.84C840.636 526.312 841.464 527.111 842.047 528.136C842.63 529.161 842.941 530.366 842.941 531.599C842.941 533.252 842.382 534.838 841.388 536.007C840.393 537.176 839.045 537.833 837.638 537.833ZM837.638 527.201C836.899 527.205 836.178 527.466 835.565 527.952C834.952 528.438 834.475 529.126 834.195 529.93C833.914 530.734 833.843 531.617 833.989 532.469C834.135 533.321 834.493 534.103 835.017 534.716C835.54 535.329 836.207 535.746 836.932 535.914C837.657 536.082 838.409 535.994 839.091 535.66C839.774 535.327 840.357 534.763 840.767 534.04C841.177 533.317 841.396 532.468 841.396 531.599C841.396 531.02 841.299 530.446 841.11 529.911C840.921 529.376 840.644 528.891 840.295 528.482C839.945 528.073 839.531 527.75 839.075 527.53C838.619 527.31 838.131 527.198 837.638 527.201Z" fill="url(#paint18_linear_1658_244)"/>
<path d="M855.381 779.232C854.332 779.232 853.307 778.866 852.435 778.181C851.563 777.496 850.884 776.523 850.482 775.384C850.081 774.245 849.976 772.991 850.181 771.782C850.385 770.573 850.89 769.462 851.632 768.59C852.373 767.718 853.318 767.125 854.347 766.884C855.375 766.644 856.441 766.767 857.41 767.239C858.379 767.711 859.207 768.51 859.79 769.535C860.372 770.56 860.683 771.765 860.683 772.998C860.679 774.65 860.119 776.232 859.125 777.4C858.132 778.568 856.786 779.226 855.381 779.232ZM855.381 768.6C854.641 768.6 853.918 768.858 853.303 769.341C852.688 769.825 852.208 770.511 851.925 771.315C851.642 772.119 851.568 773.003 851.712 773.856C851.857 774.709 852.213 775.493 852.736 776.108C853.259 776.723 853.926 777.142 854.651 777.311C855.377 777.481 856.129 777.394 856.813 777.061C857.496 776.728 858.08 776.165 858.491 775.441C858.902 774.718 859.122 773.868 859.122 772.998C859.117 771.833 858.722 770.718 858.021 769.894C857.321 769.071 856.372 768.606 855.381 768.6Z" fill="url(#paint19_linear_1658_244)"/>
<path d="M878.821 305.855H877.277V180.878L859.534 160.018V73.3721H861.095V159.272L878.821 180.111V305.855Z" fill="url(#paint20_linear_1658_244)"/>
<path d="M860.306 74.8043C859.257 74.8043 858.231 74.4382 857.359 73.7523C856.486 73.0665 855.807 72.0917 855.406 70.9515C855.005 69.8112 854.901 68.5568 855.107 67.347C855.313 66.1373 855.82 65.0266 856.563 64.1556C857.306 63.2846 858.253 62.6925 859.282 62.4542C860.312 62.216 861.379 62.3423 862.347 62.8172C863.316 63.2921 864.143 64.0943 864.723 65.122C865.304 66.1498 865.612 67.357 865.608 68.5908C865.608 69.4085 865.471 70.2181 865.204 70.9733C864.938 71.7285 864.547 72.4143 864.054 72.9916C863.562 73.5688 862.977 74.0261 862.334 74.3371C861.691 74.6482 861.002 74.807 860.306 74.8043ZM860.306 64.1929C859.571 64.2167 858.858 64.4947 858.257 64.9922C857.655 65.4897 857.192 66.1846 856.924 66.99C856.657 67.7954 856.597 68.6756 856.753 69.5206C856.909 70.3656 857.273 71.1378 857.8 71.7408C858.327 72.3438 858.994 72.7508 859.716 72.9109C860.439 73.0711 861.186 72.9772 861.863 72.641C862.541 72.3049 863.119 71.7414 863.526 71.0211C863.933 70.3007 864.15 69.4554 864.15 68.5908C864.148 68.0046 864.046 67.4249 863.851 66.8856C863.655 66.3463 863.37 65.8584 863.012 65.4506C862.654 65.0427 862.23 64.7231 861.765 64.5106C861.301 64.2981 860.805 64.1969 860.306 64.2131V64.1929Z" fill="url(#paint21_linear_1658_244)"/>
<path d="M878.049 316.204C876.999 316.204 875.974 315.838 875.101 315.152C874.229 314.466 873.549 313.491 873.149 312.351C872.748 311.211 872.644 309.956 872.85 308.746C873.056 307.537 873.562 306.426 874.306 305.555C875.049 304.684 875.995 304.092 877.025 303.854C878.055 303.615 879.121 303.742 880.09 304.217C881.058 304.692 881.885 305.494 882.466 306.521C883.046 307.549 883.354 308.756 883.351 309.99C883.347 311.64 882.786 313.22 881.792 314.385C880.798 315.55 879.452 316.204 878.049 316.204ZM878.049 305.572C877.305 305.568 876.577 305.824 875.956 306.307C875.336 306.79 874.852 307.479 874.565 308.285C874.278 309.092 874.201 309.981 874.344 310.84C874.487 311.698 874.843 312.487 875.368 313.107C875.893 313.727 876.563 314.15 877.292 314.322C878.022 314.494 878.778 314.408 879.466 314.074C880.153 313.74 880.741 313.174 881.155 312.447C881.569 311.72 881.79 310.865 881.79 309.99C881.79 308.822 881.396 307.701 880.695 306.873C879.994 306.045 879.043 305.577 878.049 305.572Z" fill="url(#paint22_linear_1658_244)"/>
<path d="M858.968 346.424H857.423V213.196L839.68 192.357V113.921H841.242V191.59L858.968 212.45V346.424Z" fill="url(#paint23_linear_1658_244)"/>
<path d="M858.195 357.419C857.147 357.419 856.122 357.053 855.25 356.368C854.378 355.683 853.698 354.709 853.297 353.57C852.895 352.431 852.79 351.178 852.995 349.969C853.2 348.76 853.705 347.649 854.446 346.777C855.188 345.905 856.132 345.311 857.161 345.071C858.189 344.83 859.256 344.954 860.224 345.426C861.193 345.898 862.021 346.696 862.604 347.722C863.187 348.747 863.498 349.952 863.498 351.185C863.493 352.837 862.933 354.419 861.94 355.587C860.946 356.755 859.6 357.413 858.195 357.419ZM858.195 346.787C857.456 346.787 856.732 347.045 856.117 347.528C855.502 348.011 855.022 348.698 854.739 349.502C854.456 350.305 854.382 351.19 854.526 352.043C854.671 352.896 855.027 353.68 855.55 354.295C856.073 354.91 856.74 355.329 857.466 355.498C858.191 355.668 858.943 355.581 859.627 355.248C860.31 354.915 860.895 354.351 861.306 353.628C861.717 352.905 861.936 352.055 861.936 351.185C861.932 350.02 861.536 348.905 860.835 348.081C860.135 347.257 859.186 346.792 858.195 346.787Z" fill="url(#paint24_linear_1658_244)"/>
<path d="M840.453 116.019C839.404 116.019 838.379 115.654 837.507 114.969C836.635 114.284 835.955 113.31 835.554 112.171C835.153 111.032 835.048 109.779 835.252 108.569C835.457 107.36 835.962 106.249 836.703 105.378C837.445 104.506 838.39 103.912 839.418 103.672C840.447 103.431 841.513 103.554 842.482 104.026C843.451 104.498 844.279 105.297 844.861 106.322C845.444 107.347 845.755 108.553 845.755 109.785C845.755 110.604 845.618 111.415 845.351 112.171C845.085 112.927 844.694 113.615 844.202 114.193C843.71 114.772 843.125 115.231 842.482 115.545C841.838 115.858 841.149 116.019 840.453 116.019ZM840.453 105.388C839.714 105.392 838.992 105.653 838.379 106.139C837.766 106.624 837.289 107.312 837.009 108.116C836.728 108.92 836.657 109.804 836.803 110.656C836.949 111.508 837.307 112.289 837.831 112.902C838.355 113.515 839.021 113.932 839.746 114.1C840.472 114.268 841.223 114.18 841.905 113.847C842.588 113.513 843.171 112.949 843.581 112.227C843.992 111.504 844.211 110.654 844.211 109.785C844.206 108.617 843.808 107.499 843.104 106.674C842.4 105.85 841.446 105.388 840.453 105.388Z" fill="url(#paint25_linear_1658_244)"/>
<path d="M933.886 607.513H932.341V474.285L914.598 453.446V375.01H916.16V452.699L933.886 473.539V607.513Z" fill="url(#paint26_linear_1658_244)"/>
<path d="M933.114 618.507C932.065 618.507 931.04 618.142 930.168 617.457C929.296 616.772 928.616 615.798 928.215 614.659C927.814 613.52 927.709 612.267 927.913 611.058C928.118 609.848 928.623 608.738 929.364 607.866C930.106 606.994 931.051 606.4 932.079 606.16C933.108 605.919 934.174 606.043 935.143 606.515C936.112 606.986 936.94 607.785 937.522 608.81C938.105 609.836 938.416 611.041 938.416 612.274C938.411 613.925 937.851 615.508 936.858 616.676C935.864 617.844 934.518 618.502 933.114 618.507ZM933.114 607.876C932.374 607.876 931.651 608.134 931.035 608.617C930.42 609.1 929.941 609.787 929.658 610.591C929.374 611.394 929.3 612.279 929.445 613.132C929.589 613.985 929.945 614.768 930.468 615.383C930.992 615.999 931.658 616.417 932.384 616.587C933.109 616.757 933.862 616.67 934.545 616.337C935.229 616.004 935.813 615.44 936.224 614.717C936.635 613.994 936.854 613.144 936.854 612.274C936.85 611.109 936.454 609.993 935.754 609.17C935.053 608.346 934.104 607.881 933.114 607.876Z" fill="url(#paint27_linear_1658_244)"/>
<path d="M915.388 377.108C914.338 377.112 913.312 376.75 912.437 376.067C911.563 375.385 910.881 374.413 910.477 373.274C910.073 372.135 909.966 370.881 910.168 369.671C910.371 368.46 910.874 367.347 911.615 366.474C912.356 365.6 913.301 365.004 914.33 364.762C915.359 364.52 916.426 364.642 917.396 365.113C918.366 365.584 919.195 366.383 919.778 367.409C920.361 368.434 920.673 369.641 920.673 370.874C920.668 372.522 920.111 374.102 919.121 375.269C918.131 376.437 916.79 377.097 915.388 377.108ZM915.388 366.476C914.644 366.46 913.914 366.705 913.289 367.179C912.665 367.654 912.175 368.336 911.881 369.139C911.588 369.943 911.505 370.83 911.643 371.689C911.781 372.548 912.134 373.339 912.656 373.962C913.178 374.584 913.846 375.009 914.574 375.183C915.303 375.357 916.059 375.272 916.746 374.939C917.434 374.605 918.021 374.039 918.433 373.311C918.845 372.584 919.063 371.728 919.06 370.854C919.051 369.707 918.663 368.608 917.978 367.791C917.292 366.974 916.364 366.503 915.388 366.476Z" fill="url(#paint28_linear_1658_244)"/>
<path d="M914.976 698.254H913.432V534.322L870.104 483.404V439.828H871.666V482.637L914.976 533.576V698.254Z" fill="url(#paint29_linear_1658_244)"/>
<path d="M870.876 439.768C869.827 439.768 868.801 439.402 867.929 438.716C867.057 438.03 866.377 437.055 865.976 435.915C865.575 434.775 865.471 433.52 865.677 432.31C865.883 431.101 866.39 429.99 867.133 429.119C867.877 428.248 868.823 427.656 869.853 427.418C870.882 427.179 871.949 427.306 872.917 427.781C873.886 428.256 874.713 429.058 875.293 430.085C875.874 431.113 876.182 432.32 876.179 433.554C876.179 434.372 876.041 435.182 875.775 435.937C875.508 436.692 875.117 437.378 874.625 437.955C874.132 438.532 873.547 438.989 872.904 439.301C872.261 439.612 871.572 439.77 870.876 439.768ZM870.876 429.136C870.133 429.136 869.407 429.395 868.789 429.881C868.171 430.366 867.689 431.056 867.405 431.863C867.12 432.671 867.046 433.559 867.191 434.416C867.336 435.273 867.694 436.06 868.219 436.678C868.745 437.296 869.414 437.717 870.143 437.887C870.872 438.058 871.628 437.97 872.315 437.636C873.001 437.302 873.588 436.735 874.001 436.009C874.414 435.282 874.634 434.428 874.634 433.554C874.634 432.974 874.537 432.399 874.348 431.863C874.159 431.327 873.883 430.84 873.534 430.43C873.185 430.02 872.77 429.694 872.315 429.472C871.859 429.25 871.37 429.136 870.876 429.136Z" fill="url(#paint30_linear_1658_244)"/>
<path d="M976.853 782.904H975.309V598.051L945.022 562.445V513.261H946.567V561.678L976.853 597.305V782.904Z" fill="url(#paint31_linear_1658_244)"/>
<path d="M945.794 513.483C945.012 513.487 944.247 513.218 943.595 512.71C942.944 512.201 942.435 511.477 942.134 510.628C941.833 509.78 941.754 508.845 941.906 507.943C942.057 507.041 942.434 506.213 942.987 505.562C943.539 504.912 944.244 504.47 945.012 504.292C945.779 504.113 946.574 504.207 947.295 504.56C948.017 504.914 948.634 505.512 949.066 506.278C949.498 507.044 949.727 507.944 949.724 508.863C949.719 510.087 949.304 511.259 948.568 512.124C947.832 512.99 946.835 513.478 945.794 513.483ZM945.794 506.059C945.323 506.059 944.861 506.224 944.469 506.532C944.077 506.84 943.771 507.278 943.591 507.79C943.41 508.303 943.363 508.867 943.455 509.411C943.547 509.954 943.774 510.454 944.108 510.846C944.441 511.238 944.866 511.506 945.329 511.614C945.792 511.722 946.271 511.666 946.707 511.454C947.143 511.242 947.515 510.883 947.778 510.421C948.04 509.96 948.179 509.418 948.179 508.863C948.184 508.492 948.126 508.123 948.008 507.778C947.89 507.433 947.715 507.119 947.493 506.854C947.271 506.59 947.007 506.38 946.715 506.236C946.423 506.093 946.111 506.019 945.794 506.019V506.059Z" fill="url(#paint32_linear_1658_244)"/>
<path d="M973.627 417.698H972.065V236.255L955.026 216.202V171.82H956.571V215.456L973.627 235.488V417.698Z" fill="url(#paint33_linear_1658_244)"/>
<path d="M955.678 171.779C954.66 171.779 953.665 171.424 952.818 170.759C951.972 170.094 951.312 169.149 950.922 168.043C950.533 166.937 950.431 165.72 950.629 164.546C950.828 163.372 951.318 162.294 952.038 161.447C952.758 160.601 953.675 160.025 954.674 159.791C955.672 159.558 956.707 159.677 957.648 160.135C958.589 160.594 959.393 161.369 959.958 162.365C960.524 163.36 960.826 164.53 960.826 165.727C960.826 167.332 960.284 168.871 959.318 170.006C958.353 171.141 957.043 171.779 955.678 171.779ZM955.678 161.45C954.961 161.446 954.26 161.692 953.662 162.158C953.064 162.623 952.598 163.286 952.321 164.064C952.044 164.841 951.97 165.698 952.108 166.525C952.246 167.352 952.589 168.112 953.095 168.709C953.6 169.307 954.245 169.714 954.948 169.88C955.651 170.046 956.38 169.963 957.043 169.641C957.705 169.32 958.272 168.774 958.67 168.074C959.069 167.373 959.282 166.55 959.282 165.707C959.284 165.149 959.192 164.596 959.012 164.079C958.832 163.563 958.567 163.094 958.232 162.698C957.897 162.303 957.499 161.989 957.061 161.775C956.623 161.56 956.153 161.45 955.678 161.45Z" fill="url(#paint34_linear_1658_244)"/>
<path d="M972.855 428.934C971.837 428.934 970.841 428.579 969.995 427.914C969.148 427.249 968.489 426.304 968.099 425.198C967.709 424.092 967.607 422.876 967.806 421.702C968.005 420.528 968.495 419.449 969.215 418.603C969.935 417.756 970.852 417.18 971.851 416.946C972.849 416.713 973.884 416.833 974.825 417.291C975.765 417.749 976.569 418.525 977.135 419.52C977.701 420.515 978.003 421.685 978.003 422.882C978.003 424.487 977.46 426.027 976.495 427.162C975.529 428.297 974.22 428.934 972.855 428.934ZM972.855 418.585C972.139 418.585 971.439 418.835 970.843 419.303C970.248 419.77 969.784 420.435 969.51 421.213C969.236 421.991 969.164 422.847 969.304 423.672C969.443 424.498 969.788 425.256 970.295 425.852C970.801 426.447 971.446 426.852 972.148 427.017C972.851 427.181 973.579 427.097 974.24 426.774C974.902 426.452 975.468 425.907 975.865 425.207C976.263 424.507 976.476 423.684 976.476 422.842C976.476 422.283 976.382 421.729 976.2 421.213C976.018 420.696 975.751 420.227 975.415 419.832C975.079 419.437 974.68 419.123 974.24 418.909C973.801 418.695 973.33 418.585 972.855 418.585Z" fill="url(#paint35_linear_1658_244)"/>
<path d="M841.07 223.021H839.509V366.214H841.07V223.021Z" fill="url(#paint36_linear_1658_244)"/>
</g>
<g style="mix-blend-mode:overlay" opacity="0.7">
<path d="M372.995 659.965H371.433V537.591L400.227 503.739V395.224L339.362 323.668V165.082H340.907V322.901L401.788 394.458V504.506L372.995 538.357V659.965Z" fill="url(#paint37_linear_1658_244)"/>
<path d="M372.12 671.443C371.07 671.447 370.043 671.085 369.169 670.403C368.295 669.72 367.613 668.748 367.209 667.609C366.805 666.471 366.697 665.217 366.9 664.006C367.103 662.795 367.606 661.683 368.347 660.809C369.088 659.935 370.033 659.34 371.062 659.097C372.091 658.855 373.158 658.977 374.128 659.449C375.098 659.92 375.927 660.719 376.51 661.744C377.093 662.77 377.405 663.976 377.405 665.21C377.405 666.86 376.849 668.442 375.858 669.611C374.867 670.779 373.523 671.438 372.12 671.443ZM372.12 660.812C371.38 660.812 370.657 661.07 370.041 661.553C369.426 662.036 368.947 662.723 368.664 663.527C368.381 664.33 368.307 665.215 368.451 666.068C368.595 666.921 368.951 667.704 369.475 668.32C369.998 668.935 370.664 669.353 371.39 669.523C372.116 669.693 372.868 669.606 373.551 669.273C374.235 668.94 374.819 668.376 375.23 667.653C375.641 666.93 375.86 666.08 375.86 665.21C375.847 664.054 375.447 662.951 374.747 662.139C374.047 661.327 373.103 660.872 372.12 660.872V660.812Z" fill="url(#paint38_linear_1658_244)"/>
<path d="M340.135 165.989C339.086 165.989 338.061 165.624 337.189 164.939C336.317 164.254 335.637 163.28 335.236 162.141C334.835 161.002 334.73 159.749 334.934 158.54C335.139 157.33 335.644 156.22 336.386 155.348C337.127 154.476 338.072 153.882 339.1 153.642C340.129 153.401 341.195 153.525 342.164 153.996C343.133 154.468 343.961 155.267 344.543 156.292C345.126 157.318 345.437 158.523 345.437 159.756C345.437 160.574 345.3 161.385 345.033 162.141C344.767 162.898 344.376 163.585 343.884 164.164C343.392 164.742 342.807 165.202 342.164 165.515C341.521 165.828 340.831 165.989 340.135 165.989ZM340.135 155.358C339.395 155.358 338.672 155.616 338.057 156.099C337.441 156.582 336.962 157.269 336.679 158.073C336.396 158.876 336.322 159.761 336.466 160.614C336.61 161.467 336.967 162.25 337.49 162.865C338.013 163.48 338.679 163.899 339.405 164.069C340.131 164.239 340.883 164.152 341.566 163.819C342.25 163.486 342.834 162.922 343.245 162.199C343.656 161.476 343.876 160.625 343.876 159.756C343.871 158.591 343.475 157.475 342.775 156.652C342.074 155.828 341.126 155.363 340.135 155.358Z" fill="url(#paint39_linear_1658_244)"/>
<path d="M358.221 748.891H356.676V626.517L385.453 592.665V412.896L324.588 341.34V254.008H326.15V340.573L387.014 412.15V593.432L358.221 627.283V748.891Z" fill="url(#paint40_linear_1658_244)"/>
<path d="M357.346 760.43C356.297 760.43 355.272 760.064 354.4 759.379C353.528 758.694 352.848 757.721 352.447 756.582C352.046 755.443 351.941 754.189 352.145 752.98C352.35 751.771 352.855 750.66 353.596 749.788C354.338 748.917 355.283 748.323 356.311 748.082C357.34 747.842 358.406 747.965 359.375 748.437C360.344 748.909 361.172 749.708 361.754 750.733C362.337 751.758 362.648 752.963 362.648 754.196C362.643 755.848 362.083 757.43 361.09 758.598C360.097 759.766 358.751 760.425 357.346 760.43ZM357.346 749.798C356.606 749.798 355.883 750.056 355.267 750.54C354.652 751.023 354.173 751.71 353.89 752.513C353.607 753.317 353.533 754.201 353.677 755.054C353.821 755.907 354.177 756.691 354.701 757.306C355.224 757.921 355.89 758.34 356.616 758.51C357.342 758.679 358.094 758.592 358.777 758.259C359.461 757.927 360.045 757.363 360.456 756.64C360.867 755.916 361.086 755.066 361.086 754.196C361.082 753.032 360.686 751.916 359.986 751.092C359.285 750.269 358.336 749.804 357.346 749.798Z" fill="url(#paint41_linear_1658_244)"/>
<path d="M325.343 254.916C324.294 254.916 323.269 254.55 322.397 253.865C321.525 253.18 320.846 252.207 320.444 251.067C320.043 249.928 319.938 248.675 320.143 247.466C320.347 246.257 320.852 245.146 321.594 244.274C322.335 243.402 323.28 242.809 324.309 242.568C325.337 242.328 326.403 242.451 327.372 242.923C328.341 243.395 329.169 244.194 329.752 245.219C330.334 246.244 330.645 247.449 330.645 248.682C330.645 250.335 330.087 251.921 329.092 253.09C328.098 254.259 326.749 254.916 325.343 254.916ZM325.343 244.284C324.604 244.288 323.882 244.549 323.269 245.035C322.657 245.521 322.18 246.209 321.899 247.013C321.619 247.817 321.547 248.7 321.693 249.552C321.84 250.404 322.197 251.186 322.721 251.799C323.245 252.412 323.912 252.829 324.637 252.997C325.362 253.165 326.113 253.077 326.796 252.743C327.478 252.41 328.061 251.846 328.472 251.123C328.882 250.4 329.101 249.551 329.101 248.682C329.096 247.514 328.698 246.395 327.994 245.571C327.29 244.747 326.337 244.284 325.343 244.284Z" fill="url(#paint42_linear_1658_244)"/>
<path d="M305.524 773.018L305.353 661.72L279.236 630.995V449.713L308.012 415.882V294.254H309.574V416.629L280.78 450.48V630.249L306.914 660.953V661.336L307.086 773.018H305.524Z" fill="url(#paint43_linear_1658_244)"/>
<path d="M308.904 295.162C307.855 295.166 306.828 294.804 305.954 294.121C305.08 293.439 304.397 292.467 303.994 291.328C303.59 290.189 303.482 288.935 303.685 287.725C303.887 286.514 304.391 285.402 305.132 284.528C305.873 283.654 306.817 283.058 307.846 282.816C308.875 282.574 309.942 282.696 310.912 283.167C311.882 283.639 312.711 284.438 313.295 285.463C313.878 286.489 314.189 287.695 314.189 288.928C314.19 290.578 313.633 292.161 312.643 293.329C311.652 294.498 310.308 295.157 308.904 295.162ZM308.904 284.531C308.165 284.531 307.441 284.789 306.826 285.272C306.211 285.755 305.732 286.442 305.448 287.246C305.165 288.049 305.091 288.933 305.236 289.786C305.38 290.64 305.736 291.423 306.259 292.038C306.782 292.653 307.449 293.072 308.175 293.242C308.9 293.412 309.652 293.324 310.336 292.992C311.019 292.659 311.604 292.095 312.015 291.372C312.426 290.649 312.645 289.798 312.645 288.928C312.641 287.764 312.245 286.648 311.545 285.825C310.844 285.001 309.895 284.536 308.904 284.531Z" fill="url(#paint44_linear_1658_244)"/>
<path d="M349.795 594.299H348.251V436.479L287.386 364.923V254.875L316.163 221.044V99.416H317.724V221.79L288.931 255.642V364.156L349.795 435.713V594.299Z" fill="url(#paint45_linear_1658_244)"/>
<path d="M317.055 100.324C316.006 100.328 314.979 99.9661 314.105 99.2835C313.23 98.601 312.548 97.6288 312.144 96.4901C311.74 95.3514 311.633 94.0974 311.835 92.8869C312.038 91.6763 312.542 90.5637 313.283 89.6899C314.023 88.8161 314.968 88.2204 315.997 87.9782C317.026 87.736 318.093 87.8583 319.063 88.3295C320.033 88.8007 320.862 89.5997 321.445 90.6253C322.029 91.6508 322.34 92.8568 322.34 94.0906C322.34 95.7404 321.784 97.3229 320.793 98.4914C319.803 99.6598 318.458 100.319 317.055 100.324ZM317.055 89.6927C316.315 89.6927 315.592 89.9506 314.977 90.4339C314.362 90.9171 313.882 91.604 313.599 92.4076C313.316 93.2112 313.242 94.0955 313.386 94.9486C313.53 95.8017 313.887 96.5853 314.41 97.2004C314.933 97.8154 315.6 98.2343 316.325 98.404C317.051 98.5737 317.803 98.4866 318.487 98.1537C319.17 97.8208 319.754 97.2571 320.165 96.5339C320.576 95.8107 320.796 94.9604 320.796 94.0906C320.791 92.9258 320.396 91.8103 319.695 90.9867C318.995 90.1631 318.046 89.698 317.055 89.6927Z" fill="url(#paint46_linear_1658_244)"/>
<path d="M349.023 605.839C347.975 605.839 346.949 605.473 346.077 604.788C345.205 604.103 344.526 603.129 344.125 601.99C343.723 600.851 343.618 599.598 343.823 598.389C344.027 597.179 344.532 596.069 345.274 595.197C346.015 594.325 346.96 593.731 347.989 593.491C349.017 593.25 350.083 593.374 351.052 593.846C352.021 594.317 352.849 595.116 353.432 596.142C354.015 597.167 354.325 598.372 354.325 599.605C354.325 601.258 353.767 602.844 352.772 604.013C351.778 605.182 350.429 605.839 349.023 605.839ZM349.023 595.207C348.279 595.203 347.55 595.459 346.929 595.943C346.308 596.427 345.824 597.117 345.538 597.925C345.251 598.733 345.175 599.623 345.32 600.482C345.464 601.341 345.822 602.13 346.349 602.749C346.875 603.368 347.547 603.789 348.277 603.959C349.008 604.129 349.765 604.04 350.452 603.703C351.139 603.366 351.726 602.797 352.138 602.067C352.549 601.337 352.767 600.48 352.764 599.605C352.759 598.44 352.364 597.324 351.663 596.501C350.963 595.677 350.014 595.212 349.023 595.207Z" fill="url(#paint47_linear_1658_244)"/>
<path d="M386.688 768.883H385.144V643.139L402.87 622.28V536.38H404.431V623.046L386.688 643.886V768.883Z" fill="url(#paint48_linear_1658_244)"/>
<path d="M403.642 537.833C402.593 537.833 401.568 537.467 400.696 536.782C399.824 536.097 399.145 535.123 398.743 533.984C398.342 532.845 398.237 531.592 398.441 530.383C398.646 529.174 399.151 528.063 399.893 527.191C400.634 526.319 401.579 525.726 402.607 525.485C403.636 525.244 404.702 525.368 405.671 525.84C406.64 526.312 407.468 527.111 408.051 528.136C408.633 529.161 408.944 530.366 408.944 531.599C408.944 533.252 408.385 534.838 407.391 536.007C406.397 537.176 405.048 537.833 403.642 537.833ZM403.642 527.201C402.903 527.205 402.181 527.466 401.568 527.952C400.955 528.438 400.479 529.126 400.198 529.93C399.918 530.734 399.846 531.617 399.992 532.469C400.139 533.321 400.496 534.103 401.02 534.716C401.544 535.329 402.21 535.746 402.936 535.914C403.661 536.082 404.412 535.994 405.094 535.66C405.777 535.327 406.36 534.763 406.771 534.04C407.181 533.317 407.4 532.468 407.4 531.599C407.395 530.431 406.997 529.312 406.293 528.488C405.589 527.664 404.636 527.201 403.642 527.201Z" fill="url(#paint49_linear_1658_244)"/>
<path d="M385.916 779.232C384.867 779.232 383.842 778.866 382.97 778.181C382.098 777.496 381.419 776.523 381.017 775.384C380.616 774.245 380.511 772.991 380.716 771.782C380.92 770.573 381.425 769.462 382.167 768.59C382.908 767.718 383.853 767.125 384.882 766.884C385.91 766.644 386.976 766.767 387.945 767.239C388.914 767.711 389.742 768.51 390.325 769.535C390.907 770.56 391.218 771.765 391.218 772.998C391.214 774.65 390.654 776.232 389.66 777.4C388.667 778.568 387.321 779.226 385.916 779.232ZM385.916 768.6C385.176 768.6 384.453 768.858 383.838 769.341C383.223 769.825 382.743 770.511 382.46 771.315C382.177 772.119 382.103 773.003 382.247 773.856C382.391 774.709 382.748 775.493 383.271 776.108C383.794 776.723 384.461 777.142 385.186 777.311C385.912 777.481 386.664 777.394 387.348 777.061C388.031 776.728 388.615 776.165 389.026 775.441C389.437 774.718 389.657 773.868 389.657 772.998C389.652 771.833 389.257 770.718 388.556 769.894C387.856 769.071 386.907 768.606 385.916 768.6Z" fill="url(#paint50_linear_1658_244)"/>
<path d="M364.021 305.855H362.476V180.111L380.202 159.272V73.3721H381.764V160.018L364.021 180.878V305.855Z" fill="url(#paint51_linear_1658_244)"/>
<path d="M380.974 74.8043C379.925 74.8043 378.899 74.4382 378.027 73.7523C377.154 73.0665 376.475 72.0917 376.074 70.9515C375.673 69.8112 375.569 68.5568 375.775 67.347C375.981 66.1373 376.488 65.0266 377.231 64.1556C377.974 63.2846 378.921 62.6925 379.95 62.4542C380.98 62.216 382.047 62.3423 383.015 62.8172C383.984 63.2921 384.811 64.0943 385.391 65.122C385.972 66.1498 386.28 67.357 386.276 68.5908C386.276 69.4085 386.139 70.2181 385.872 70.9733C385.606 71.7285 385.215 72.4143 384.722 72.9916C384.23 73.5688 383.645 74.0261 383.002 74.3371C382.359 74.6482 381.67 74.807 380.974 74.8043ZM380.974 64.1929C380.235 64.1969 379.513 64.4582 378.901 64.9439C378.288 65.4295 377.811 66.1178 377.53 66.9217C377.25 67.7257 377.178 68.6093 377.325 69.4611C377.471 70.3128 377.828 71.0946 378.352 71.7076C378.876 72.3207 379.543 72.7375 380.268 72.9056C380.993 73.0736 381.744 72.9854 382.427 72.6519C383.109 72.3185 383.692 71.7548 384.103 71.032C384.513 70.3092 384.732 69.4597 384.732 68.5908C384.73 68.0132 384.631 67.4419 384.441 66.9093C384.251 66.3768 383.973 65.8934 383.624 65.4869C383.275 65.0804 382.862 64.7587 382.407 64.5401C381.952 64.3216 381.465 64.2104 380.974 64.2131V64.1929Z" fill="url(#paint52_linear_1658_244)"/>
<path d="M363.248 316.204C362.199 316.204 361.173 315.838 360.301 315.152C359.428 314.466 358.749 313.491 358.348 312.351C357.947 311.211 357.843 309.956 358.049 308.746C358.255 307.537 358.762 306.426 359.505 305.555C360.248 304.684 361.195 304.092 362.224 303.854C363.254 303.615 364.321 303.742 365.289 304.217C366.258 304.692 367.085 305.494 367.665 306.521C368.246 307.549 368.554 308.756 368.551 309.99C368.546 311.64 367.985 313.22 366.992 314.385C365.998 315.55 364.652 316.204 363.248 316.204ZM363.248 305.572C362.504 305.568 361.776 305.824 361.156 306.307C360.536 306.79 360.051 307.479 359.764 308.285C359.477 309.092 359.4 309.981 359.543 310.84C359.686 311.698 360.043 312.487 360.568 313.107C361.093 313.727 361.762 314.15 362.492 314.322C363.221 314.494 363.978 314.408 364.665 314.074C365.353 313.74 365.941 313.174 366.355 312.447C366.768 311.72 366.989 310.865 366.989 309.99C366.989 308.822 366.596 307.701 365.894 306.873C365.193 306.045 364.242 305.577 363.248 305.572Z" fill="url(#paint53_linear_1658_244)"/>
<path d="M383.874 346.424H382.33V212.45L400.056 191.59V113.921H401.617V192.357L383.874 213.196V346.424Z" fill="url(#paint54_linear_1658_244)"/>
<path d="M383.102 357.419C382.053 357.419 381.028 357.053 380.156 356.368C379.284 355.683 378.605 354.709 378.203 353.57C377.802 352.431 377.697 351.178 377.902 349.969C378.106 348.76 378.611 347.649 379.353 346.777C380.094 345.905 381.039 345.311 382.068 345.071C383.096 344.83 384.162 344.954 385.131 345.426C386.1 345.898 386.928 346.696 387.511 347.722C388.093 348.747 388.404 349.952 388.404 351.185C388.4 352.837 387.84 354.419 386.846 355.587C385.853 356.755 384.507 357.413 383.102 357.419ZM383.102 346.787C382.362 346.787 381.639 347.045 381.024 347.528C380.409 348.011 379.929 348.698 379.646 349.502C379.363 350.305 379.289 351.19 379.433 352.043C379.578 352.896 379.934 353.68 380.457 354.295C380.98 354.91 381.647 355.329 382.372 355.498C383.098 355.668 383.85 355.581 384.534 355.248C385.217 354.915 385.801 354.351 386.212 353.628C386.623 352.905 386.843 352.055 386.843 351.185C386.838 350.02 386.443 348.905 385.742 348.081C385.042 347.257 384.093 346.792 383.102 346.787Z" fill="url(#paint55_linear_1658_244)"/>
<path d="M400.845 116.019C399.796 116.019 398.771 115.654 397.899 114.969C397.027 114.284 396.347 113.31 395.946 112.171C395.545 111.032 395.44 109.779 395.644 108.569C395.849 107.36 396.354 106.249 397.095 105.378C397.837 104.506 398.782 103.912 399.81 103.672C400.839 103.431 401.905 103.554 402.874 104.026C403.843 104.498 404.671 105.297 405.253 106.322C405.836 107.347 406.147 108.553 406.147 109.785C406.147 110.604 406.01 111.415 405.743 112.171C405.477 112.927 405.086 113.615 404.594 114.193C404.102 114.772 403.517 115.231 402.874 115.545C402.231 115.858 401.541 116.019 400.845 116.019ZM400.845 105.388C400.105 105.388 399.382 105.646 398.767 106.129C398.151 106.612 397.672 107.299 397.389 108.102C397.106 108.906 397.032 109.79 397.176 110.643C397.32 111.497 397.676 112.28 398.2 112.895C398.723 113.51 399.389 113.929 400.115 114.099C400.841 114.269 401.593 114.181 402.276 113.849C402.96 113.516 403.544 112.952 403.955 112.229C404.366 111.506 404.585 110.655 404.585 109.785C404.581 108.621 404.185 107.505 403.485 106.682C402.784 105.858 401.835 105.393 400.845 105.388Z" fill="url(#paint56_linear_1658_244)"/>
<path d="M308.956 607.513H307.395V473.539L325.137 452.699V375.01H326.682V453.446L308.956 474.285V607.513Z" fill="url(#paint57_linear_1658_244)"/>
<path d="M308.184 618.507C307.135 618.507 306.11 618.142 305.238 617.457C304.366 616.772 303.686 615.798 303.285 614.659C302.884 613.52 302.779 612.267 302.983 611.058C303.188 609.848 303.693 608.738 304.434 607.866C305.176 606.994 306.121 606.4 307.149 606.16C308.178 605.919 309.244 606.043 310.213 606.515C311.182 606.986 312.01 607.785 312.592 608.81C313.175 609.836 313.486 611.041 313.486 612.274C313.481 613.925 312.921 615.508 311.928 616.676C310.935 617.844 309.588 618.502 308.184 618.507ZM308.184 607.876C307.444 607.876 306.721 608.134 306.105 608.617C305.49 609.1 305.011 609.787 304.728 610.591C304.444 611.394 304.37 612.279 304.515 613.132C304.659 613.985 305.015 614.768 305.539 615.383C306.062 615.999 306.728 616.417 307.454 616.587C308.179 616.757 308.932 616.67 309.615 616.337C310.299 616.004 310.883 615.44 311.294 614.717C311.705 613.994 311.924 613.144 311.924 612.274C311.924 611.107 311.53 609.989 310.829 609.164C310.127 608.339 309.176 607.876 308.184 607.876Z" fill="url(#paint58_linear_1658_244)"/>
<path d="M325.909 377.108C324.861 377.108 323.836 376.742 322.964 376.057C322.092 375.372 321.412 374.399 321.011 373.26C320.609 372.121 320.504 370.867 320.709 369.658C320.914 368.449 321.419 367.338 322.16 366.466C322.902 365.595 323.846 365.001 324.875 364.76C325.904 364.52 326.97 364.643 327.939 365.115C328.907 365.587 329.735 366.386 330.318 367.411C330.901 368.436 331.212 369.641 331.212 370.874C331.212 372.528 330.653 374.113 329.659 375.282C328.664 376.451 327.316 377.108 325.909 377.108ZM325.909 366.476C325.17 366.476 324.446 366.734 323.831 367.218C323.216 367.701 322.737 368.388 322.453 369.191C322.17 369.995 322.096 370.879 322.241 371.732C322.385 372.585 322.741 373.369 323.264 373.984C323.787 374.599 324.454 375.018 325.18 375.188C325.905 375.357 326.657 375.27 327.341 374.937C328.024 374.605 328.609 374.041 329.02 373.318C329.431 372.594 329.65 371.744 329.65 370.874C329.646 369.71 329.25 368.594 328.55 367.77C327.849 366.947 326.9 366.482 325.909 366.476Z" fill="url(#paint59_linear_1658_244)"/>
<path d="M327.866 698.254H326.322V533.576L369.632 482.637V439.828H371.193V483.404L327.866 534.322V698.254Z" fill="url(#paint60_linear_1658_244)"/>
<path d="M370.404 439.768C369.354 439.768 368.329 439.402 367.456 438.716C366.584 438.03 365.904 437.055 365.504 435.915C365.103 434.775 364.999 433.52 365.205 432.31C365.411 431.101 365.917 429.99 366.661 429.119C367.404 428.248 368.35 427.656 369.38 427.418C370.41 427.179 371.476 427.306 372.445 427.781C373.413 428.256 374.24 429.058 374.821 430.085C375.401 431.113 375.709 432.32 375.706 433.554C375.706 434.372 375.569 435.182 375.302 435.937C375.035 436.692 374.645 437.378 374.152 437.955C373.659 438.532 373.075 438.989 372.432 439.301C371.788 439.612 371.099 439.77 370.404 439.768ZM370.404 429.136C369.661 429.136 368.934 429.395 368.316 429.881C367.698 430.366 367.216 431.056 366.932 431.863C366.648 432.671 366.573 433.559 366.718 434.416C366.863 435.273 367.221 436.06 367.747 436.678C368.272 437.296 368.942 437.717 369.671 437.887C370.4 438.058 371.155 437.97 371.842 437.636C372.529 437.302 373.115 436.735 373.528 436.009C373.941 435.282 374.162 434.428 374.162 433.554C374.162 432.974 374.065 432.399 373.876 431.863C373.687 431.327 373.41 430.84 373.061 430.43C372.712 430.02 372.298 429.694 371.842 429.472C371.386 429.25 370.897 429.136 370.404 429.136Z" fill="url(#paint61_linear_1658_244)"/>
<path d="M265.989 778.869H264.444V597.305L294.731 561.678V513.261H296.275V562.445L265.989 598.051V778.869Z" fill="url(#paint62_linear_1658_244)"/>
<path d="M295.503 513.483C294.721 513.487 293.956 513.218 293.304 512.71C292.652 512.201 292.144 511.477 291.843 510.628C291.542 509.78 291.463 508.845 291.614 507.943C291.766 507.041 292.142 506.213 292.695 505.562C293.248 504.912 293.953 504.47 294.72 504.292C295.487 504.113 296.282 504.207 297.004 504.56C297.726 504.914 298.342 505.512 298.775 506.278C299.207 507.044 299.436 507.944 299.433 508.863C299.428 510.087 299.013 511.259 298.277 512.124C297.541 512.99 296.544 513.478 295.503 513.483ZM295.503 506.059C295.031 506.059 294.57 506.224 294.178 506.532C293.786 506.84 293.48 507.278 293.299 507.79C293.119 508.303 293.072 508.867 293.164 509.411C293.256 509.954 293.483 510.454 293.817 510.846C294.15 511.238 294.575 511.506 295.038 511.614C295.5 511.722 295.98 511.666 296.416 511.454C296.852 511.242 297.224 510.883 297.486 510.421C297.748 509.96 297.888 509.418 297.888 508.863C297.893 508.492 297.834 508.123 297.717 507.778C297.599 507.433 297.424 507.119 297.202 506.854C296.98 506.59 296.715 506.38 296.424 506.236C296.132 506.093 295.819 506.019 295.503 506.019V506.059Z" fill="url(#paint63_linear_1658_244)"/>
<path d="M269.215 417.698H267.67V235.488L284.71 215.456V171.82H286.271V216.202L269.215 236.255V417.698Z" fill="url(#paint64_linear_1658_244)"/>
<path d="M285.619 171.779C284.601 171.779 283.606 171.424 282.759 170.759C281.913 170.094 281.253 169.149 280.863 168.043C280.474 166.937 280.372 165.72 280.57 164.546C280.769 163.372 281.259 162.294 281.979 161.447C282.699 160.601 283.616 160.025 284.615 159.791C285.614 159.558 286.649 159.677 287.589 160.135C288.53 160.594 289.334 161.369 289.9 162.365C290.465 163.36 290.767 164.53 290.767 165.727C290.767 167.332 290.225 168.871 289.259 170.006C288.294 171.141 286.985 171.779 285.619 171.779ZM285.619 161.45C284.903 161.45 284.203 161.7 283.608 162.167C283.012 162.635 282.548 163.3 282.274 164.078C282 164.856 281.929 165.711 282.068 166.537C282.208 167.363 282.553 168.121 283.059 168.717C283.565 169.312 284.211 169.717 284.913 169.882C285.615 170.046 286.343 169.962 287.005 169.639C287.666 169.317 288.232 168.772 288.63 168.072C289.028 167.372 289.24 166.549 289.24 165.707C289.242 165.147 289.15 164.592 288.969 164.075C288.788 163.557 288.521 163.087 288.185 162.691C287.848 162.295 287.448 161.982 287.008 161.769C286.567 161.556 286.095 161.447 285.619 161.45Z" fill="url(#paint65_linear_1658_244)"/>
<path d="M268.443 428.934C267.424 428.934 266.429 428.579 265.583 427.914C264.736 427.249 264.076 426.304 263.687 425.198C263.297 424.092 263.195 422.876 263.394 421.702C263.592 420.528 264.082 419.449 264.802 418.603C265.522 417.756 266.44 417.18 267.438 416.946C268.437 416.713 269.472 416.833 270.413 417.291C271.353 417.749 272.157 418.525 272.723 419.52C273.288 420.515 273.59 421.685 273.59 422.882C273.59 424.487 273.048 426.027 272.083 427.162C271.117 428.297 269.808 428.934 268.443 428.934ZM268.443 418.585C267.726 418.585 267.026 418.835 266.431 419.303C265.836 419.77 265.372 420.435 265.097 421.213C264.823 421.991 264.752 422.847 264.891 423.672C265.031 424.498 265.376 425.256 265.882 425.852C266.389 426.447 267.034 426.852 267.736 427.017C268.438 427.181 269.166 427.097 269.828 426.774C270.49 426.452 271.055 425.907 271.453 425.207C271.851 424.507 272.063 423.684 272.063 422.842C272.059 421.715 271.676 420.635 270.998 419.838C270.32 419.041 269.401 418.59 268.443 418.585Z" fill="url(#paint66_linear_1658_244)"/>
<path d="M401.789 223.021H400.227V366.214H401.789V223.021Z" fill="url(#paint67_linear_1658_244)"/>
</g>
<mask id="mask0_1658_244" style="mask-type:luminance" maskUnits="userSpaceOnUse" x="-23" y="756" width="1288" height="162">
<path d="M1264.12 756.892H-22.8389V917.274H1264.12V756.892Z" fill="white"/>
</mask>
<g mask="url(#mask0_1658_244)">
<g style="mix-blend-mode:color-dodge">
<g style="mix-blend-mode:overlay" opacity="0.7">
<path d="M305.147 744.949L267.482 785.337L173.757 806.903L131.356 844.971L155.791 858.245L98.9761 913.521" stroke="#B17B1C" stroke-opacity="0.980392" stroke-width="0.94" stroke-miterlimit="10"/>
<path d="M301.097 766.535L279.854 790.461L185.511 812.612L111.657 881.667L137.533 897.261L72.7908 963.068" stroke="#B17B1C" stroke-opacity="0.980392" stroke-width="0.94" stroke-miterlimit="10"/>
<path d="M301.097 766.535C298.386 766.535 296.721 765.91 297.408 765.163C299.314 764.112 301.416 763.647 303.517 763.812C306.211 763.812 307.875 764.417 307.223 765.163C305.314 766.227 303.205 766.699 301.097 766.535Z" stroke="#B17B1C" stroke-opacity="0.980392" stroke-width="0.94" stroke-miterlimit="10"/>
<path d="M145.89 978.198L199.341 914.227L250.734 899.057L306.262 825.301L279.459 813.842L310.174 777.227" stroke="#B17B1C" stroke-opacity="0.980392" stroke-width="0.94" stroke-miterlimit="10"/>
<path d="M312.474 774.342C315.253 774.342 316.987 774.988 316.317 775.775C315.648 776.562 312.885 777.227 310.054 777.227C307.223 777.227 305.541 776.582 306.228 775.775C308.168 774.665 310.321 774.171 312.474 774.342Z" stroke="#B17B1C" stroke-opacity="0.980392" stroke-width="0.94" stroke-miterlimit="10"/>
<path d="M164.422 882.211L223.622 820.48L317.57 797.482L341.37 766.858L317.364 758.304L341.319 730.565" stroke="#B17B1C" stroke-opacity="0.980392" stroke-width="0.94" stroke-miterlimit="10"/>
<path d="M284.126 725.199L264.616 743.698L277.915 748.5L245.947 780.435" stroke="#B17B1C" stroke-opacity="0.980392" stroke-width="0.94" stroke-miterlimit="10"/>
<path d="M243.287 783.057C240.455 783.057 238.825 782.391 239.666 781.564C241.734 780.449 244.001 779.944 246.272 780.092C249.087 780.092 250.717 780.757 249.91 781.564C247.842 782.702 245.566 783.215 243.287 783.057Z" stroke="#B17B1C" stroke-opacity="0.980392" stroke-width="0.94" stroke-miterlimit="10"/>
<path d="M211.164 792.055L249.19 756.206L235.994 751.203L255.556 733.652" stroke="#B17B1C" stroke-opacity="0.980392" stroke-width="0.94" stroke-miterlimit="10"/>
<path d="M211.336 791.894C214.253 791.894 215.866 792.6 214.957 793.467C212.778 794.652 210.387 795.199 207.99 795.061C205.056 795.061 203.443 794.335 204.386 793.467C206.561 792.293 208.945 791.753 211.336 791.894Z" stroke="#B17B1C" stroke-opacity="0.980392" stroke-width="0.94" stroke-miterlimit="10"/>
<path d="M217.994 888.203L263.552 833.754L247.285 826.33L270.107 800.689" stroke="#B17B1C" stroke-opacity="0.980392" stroke-width="0.94" stroke-miterlimit="10"/>
<path d="M272.681 797.764C275.632 797.764 277.4 798.49 276.61 799.398C275.821 800.306 272.767 801.032 269.747 801.032C266.727 801.032 265.028 800.286 265.834 799.398C266.641 798.51 269.729 797.764 272.681 797.764Z" stroke="#B17B1C" stroke-opacity="0.980392" stroke-width="0.94" stroke-miterlimit="10"/>
<path d="M149.836 933.735L218.732 856.631L179.917 837.083L195.583 821.771" stroke="#B17B1C" stroke-opacity="0.980392" stroke-width="0.94" stroke-miterlimit="10"/>
<path d="M199.599 817.817C202.688 817.817 204.404 818.624 203.391 819.612C202.379 820.601 199.033 821.428 195.91 821.428C192.787 821.428 191.088 820.621 192.117 819.612C194.444 818.287 197.017 817.67 199.599 817.817Z" stroke="#B17B1C" stroke-opacity="0.980392" stroke-width="0.94" stroke-miterlimit="10"/>
<path d="M328.758 814.327L366.406 761.915L351.906 756.932L359.937 746.482" stroke="#B17B1C" stroke-opacity="0.980392" stroke-width="0.94" stroke-miterlimit="10"/>
<path d="M332.962 816.021C332.293 816.969 329.307 817.756 326.287 817.756C323.267 817.756 321.396 816.969 322.1 816.021C322.804 815.073 325.772 814.306 328.758 814.306C331.744 814.306 333.631 815.073 332.962 816.021Z" stroke="#B17B1C" stroke-opacity="0.980392" stroke-width="0.94" stroke-miterlimit="10"/>
<path d="M227.449 758.708L183.692 798.006" stroke="#B17B1C" stroke-opacity="0.980392" stroke-width="0.94" stroke-miterlimit="10"/>
</g>
<g style="mix-blend-mode:overlay" opacity="0.7">
<path d="M463.116 744.949L444.052 785.337L360.246 806.903L335.365 844.971L365.908 858.245L334.524 913.521" stroke="#B17B1C" stroke-opacity="0.980392" stroke-width="0.94" stroke-miterlimit="10"/>
<path d="M469.002 766.535L458.775 790.461L374.625 812.612L332.533 881.667L365.599 897.261L331.126 963.068" stroke="#B17B1C" stroke-opacity="0.980392" stroke-width="0.94" stroke-miterlimit="10"/>
<path d="M469.002 766.535C466.291 766.535 464.352 765.91 464.695 765.163C465.038 764.417 467.475 763.812 470.169 763.812C472.863 763.812 474.802 764.417 474.493 765.163C474.184 765.91 471.73 766.535 469.002 766.535Z" stroke="#B17B1C" stroke-opacity="0.980392" stroke-width="0.94" stroke-miterlimit="10"/>
<path d="M411.192 978.198L435.215 914.227L479.624 899.057L501.193 825.301L469.139 813.843L483.004 777.227" stroke="#B17B1C" stroke-opacity="0.980392" stroke-width="0.94" stroke-miterlimit="10"/>
<path d="M483.982 774.343C486.762 774.343 488.769 774.988 488.495 775.775C488.22 776.562 485.698 777.227 482.884 777.227C480.07 777.227 478.079 776.582 478.388 775.775C478.697 774.968 481.202 774.343 483.982 774.343Z" stroke="#B17B1C" stroke-opacity="0.980392" stroke-width="0.94" stroke-miterlimit="10"/>
<path d="M385.556 882.212L416.357 820.48L499.718 797.482L509.43 766.858L481.494 758.304L492.682 730.565" stroke="#B17B1C" stroke-opacity="0.980392" stroke-width="0.94" stroke-miterlimit="10"/>
<path d="M433.001 725.199L422.019 743.699L437.514 748.5L420.235 780.435" stroke="#B17B1C" stroke-opacity="0.980392" stroke-width="0.94" stroke-miterlimit="10"/>
<path d="M418.811 783.058C415.962 783.058 414.04 782.392 414.486 781.565C414.933 780.738 417.592 780.092 420.424 780.092C423.255 780.092 425.177 780.758 424.748 781.565C424.319 782.372 421.659 783.058 418.811 783.058Z" stroke="#B17B1C" stroke-opacity="0.980392" stroke-width="0.94" stroke-miterlimit="10"/>
<path d="M390.824 792.055L412.342 756.206L396.847 751.203L408.326 733.652" stroke="#B17B1C" stroke-opacity="0.980392" stroke-width="0.94" stroke-miterlimit="10"/>
<path d="M390.909 791.894C393.827 791.894 395.766 792.6 395.251 793.467C394.736 794.335 391.956 795.061 389.022 795.061C386.088 795.061 384.149 794.335 384.681 793.467C385.213 792.6 388.01 791.894 390.909 791.894Z" stroke="#B17B1C" stroke-opacity="0.980392" stroke-width="0.94" stroke-miterlimit="10"/>
<path d="M441.89 888.203L462.396 833.754L442.714 826.33L453.73 800.689" stroke="#B17B1C" stroke-opacity="0.980392" stroke-width="0.94" stroke-miterlimit="10"/>
<path d="M454.983 797.764C457.934 797.764 460.028 798.49 459.65 799.398C459.273 800.306 456.561 801.032 453.576 801.032C450.59 801.032 448.428 800.286 448.925 799.398C449.423 798.511 452.031 797.764 454.983 797.764Z" stroke="#B17B1C" stroke-opacity="0.980392" stroke-width="0.94" stroke-miterlimit="10"/>
<path d="M394.684 933.735L428.094 856.631L380.288 837.083L388.902 821.771" stroke="#B17B1C" stroke-opacity="0.980392" stroke-width="0.94" stroke-miterlimit="10"/>
<path d="M391.098 817.817C394.204 817.817 396.246 818.624 395.731 819.613C395.216 820.601 392.213 821.428 389.073 821.428C385.933 821.428 383.925 820.621 384.457 819.613C384.989 818.604 388.009 817.817 391.098 817.817Z" stroke="#B17B1C" stroke-opacity="0.980392" stroke-width="0.94" stroke-miterlimit="10"/>
<path d="M518.661 814.327L532.183 761.915L515.401 756.932L518.627 746.482" stroke="#B17B1C" stroke-opacity="0.980392" stroke-width="0.94" stroke-miterlimit="10"/>
<path d="M523.655 816.021C523.415 816.97 520.789 817.756 517.769 817.756C514.749 817.756 512.518 816.97 512.776 816.021C513.033 815.073 515.659 814.307 518.662 814.307C521.664 814.307 523.878 815.073 523.655 816.021Z" stroke="#B17B1C" stroke-opacity="0.980392" stroke-width="0.94" stroke-miterlimit="10"/>
<path d="M391.767 758.708L366.08 798.006" stroke="#B17B1C" stroke-opacity="0.980392" stroke-width="0.94" stroke-miterlimit="10"/>
</g>
<g style="mix-blend-mode:overlay" opacity="0.7">
<path d="M621.086 744.949L620.606 785.337L546.734 806.903L539.373 844.971L576.026 858.245L570.054 913.521" stroke="#B17B1C" stroke-opacity="0.980392" stroke-width="0.94" stroke-miterlimit="10"/>
<path d="M636.924 766.535L637.679 790.461L563.739 812.612L553.409 881.667L593.665 897.261L589.461 963.068" stroke="#B17B1C" stroke-opacity="0.980392" stroke-width="0.94" stroke-miterlimit="10"/>
<path d="M636.924 766.535C634.196 766.535 631.982 765.91 631.965 765.164C631.948 764.417 634.127 763.812 636.838 763.812C639.55 763.812 641.746 764.417 641.78 765.164C641.815 765.91 639.635 766.535 636.924 766.535Z" stroke="#B17B1C" stroke-opacity="0.980392" stroke-width="0.94" stroke-miterlimit="10"/>
<path d="M676.511 978.198L671.072 914.227L708.497 899.057L696.159 825.301L658.82 813.843L655.834 777.227" stroke="#B17B1C" stroke-opacity="0.980392" stroke-width="0.94" stroke-miterlimit="10"/>
<path d="M655.491 774.343C658.271 774.343 660.639 774.988 660.639 775.775C660.639 776.562 658.511 777.227 655.697 777.227C652.883 777.227 650.549 776.582 650.549 775.775C650.549 774.968 652.711 774.343 655.491 774.343Z" stroke="#B17B1C" stroke-opacity="0.980392" stroke-width="0.94" stroke-miterlimit="10"/>
<path d="M606.707 882.212L609.075 820.48L681.865 797.482L677.489 766.858L645.624 758.304L644.045 730.565" stroke="#B17B1C" stroke-opacity="0.980392" stroke-width="0.94" stroke-miterlimit="10"/>
<path d="M581.894 725.199L579.423 743.699L597.132 748.5L594.541 780.435" stroke="#B17B1C" stroke-opacity="0.980392" stroke-width="0.94" stroke-miterlimit="10"/>
<path d="M594.335 783.058C591.486 783.058 589.187 782.392 589.324 781.565C589.461 780.738 591.761 780.092 594.575 780.092C597.389 780.092 599.723 780.758 599.585 781.565C599.448 782.372 597.166 783.058 594.335 783.058Z" stroke="#B17B1C" stroke-opacity="0.980392" stroke-width="0.94" stroke-miterlimit="10"/>
<path d="M570.483 792.055L575.511 756.206L557.699 751.203L561.097 733.652" stroke="#B17B1C" stroke-opacity="0.980392" stroke-width="0.94" stroke-miterlimit="10"/>
<path d="M570.5 791.894C573.4 791.894 575.648 792.6 575.562 793.467C575.476 794.335 572.988 795.061 570.054 795.061C567.12 795.061 564.906 794.335 564.992 793.467C565.078 792.6 567.583 791.894 570.5 791.894Z" stroke="#B17B1C" stroke-opacity="0.980392" stroke-width="0.94" stroke-miterlimit="10"/>
<path d="M665.786 888.203L661.239 833.754L638.143 826.33L637.37 800.689" stroke="#B17B1C" stroke-opacity="0.980392" stroke-width="0.94" stroke-miterlimit="10"/>
<path d="M637.285 797.764C640.236 797.764 642.656 798.49 642.69 799.398C642.724 800.306 640.356 801.032 637.37 801.032C634.385 801.032 631.982 800.286 631.965 799.398C631.948 798.511 634.333 797.764 637.285 797.764Z" stroke="#B17B1C" stroke-opacity="0.980392" stroke-width="0.94" stroke-miterlimit="10"/>
<path d="M639.532 933.736L637.473 856.632L580.658 837.083L582.22 821.771" stroke="#B17B1C" stroke-opacity="0.980392" stroke-width="0.94" stroke-miterlimit="10"/>
<path d="M582.615 817.817C585.721 817.817 588.157 818.624 588.071 819.613C587.986 820.601 585.377 821.428 582.254 821.428C579.131 821.428 576.678 820.621 576.798 819.613C576.918 818.604 579.526 817.817 582.615 817.817Z" stroke="#B17B1C" stroke-opacity="0.980392" stroke-width="0.94" stroke-miterlimit="10"/>
<path d="M708.548 814.327L697.978 761.915L678.896 756.932L677.318 746.482" stroke="#B17B1C" stroke-opacity="0.980392" stroke-width="0.94" stroke-miterlimit="10"/>
<path d="M714.331 816.021C714.536 816.97 712.254 817.756 709.183 817.756C706.111 817.756 703.572 816.97 703.4 816.021C703.228 815.073 705.493 814.307 708.548 814.307C711.602 814.307 714.125 815.073 714.331 816.021Z" stroke="#B17B1C" stroke-opacity="0.980392" stroke-width="0.94" stroke-miterlimit="10"/>
<path d="M556.069 758.708L548.468 798.007" stroke="#B17B1C" stroke-opacity="0.980392" stroke-width="0.94" stroke-miterlimit="10"/>
</g>
<g style="mix-blend-mode:overlay" opacity="0.7">
<path d="M779.073 744.949L797.176 785.337L733.223 806.903L743.364 844.971L786.126 858.245L805.619 913.521" stroke="#B17B1C" stroke-opacity="0.980392" stroke-width="0.94" stroke-miterlimit="10"/>
<path d="M804.829 766.535L816.601 790.461L752.854 812.612L774.303 881.667L821.731 897.261L847.814 963.068" stroke="#B17B1C" stroke-opacity="0.980392" stroke-width="0.94" stroke-miterlimit="10"/>
<path d="M804.83 766.535C802.101 766.535 799.682 765.91 799.253 765.164C798.824 764.417 800.797 763.812 803.491 763.812C806.185 763.812 808.639 764.417 809.051 765.164C809.463 765.91 807.524 766.535 804.83 766.535Z" stroke="#B17B1C" stroke-opacity="0.980392" stroke-width="0.94" stroke-miterlimit="10"/>
<path d="M941.813 978.198L906.945 914.227L937.386 899.057L891.107 825.301L848.5 813.843L828.664 777.227" stroke="#B17B1C" stroke-opacity="0.980392" stroke-width="0.94" stroke-miterlimit="10"/>
<path d="M827 774.343C829.762 774.343 832.37 774.988 832.817 775.775C833.263 776.562 831.358 777.227 828.561 777.227C825.764 777.227 823.139 776.582 822.727 775.775C822.315 774.968 824.22 774.343 827 774.343Z" stroke="#B17B1C" stroke-opacity="0.980392" stroke-width="0.94" stroke-miterlimit="10"/>
<path d="M827.84 882.212L801.81 820.48L864.012 797.482L845.549 766.858L809.754 758.304L795.392 730.565" stroke="#B17B1C" stroke-opacity="0.980392" stroke-width="0.94" stroke-miterlimit="10"/>
<path d="M730.786 725.199L736.827 743.699L756.749 748.5L768.846 780.435" stroke="#B17B1C" stroke-opacity="0.980392" stroke-width="0.94" stroke-miterlimit="10"/>
<path d="M769.859 783.058C767.01 783.058 764.453 782.392 764.162 781.565C763.87 780.738 765.878 780.092 768.726 780.092C771.575 780.092 774.097 780.758 774.406 781.565C774.715 782.372 772.69 783.058 769.859 783.058Z" stroke="#B17B1C" stroke-opacity="0.980392" stroke-width="0.94" stroke-miterlimit="10"/>
<path d="M750.125 792.055L738.663 756.206L718.552 751.203L713.867 733.652" stroke="#B17B1C" stroke-opacity="0.980392" stroke-width="0.94" stroke-miterlimit="10"/>
<path d="M750.074 791.894C752.991 791.894 755.582 792.6 755.874 793.467C756.165 794.335 754.02 795.061 751.086 795.061C748.152 795.061 745.561 794.335 745.303 793.467C745.046 792.6 747.174 791.894 750.074 791.894Z" stroke="#B17B1C" stroke-opacity="0.980392" stroke-width="0.94" stroke-miterlimit="10"/>
<path d="M889.666 888.203L860.083 833.754L833.571 826.33L820.994 800.689" stroke="#B17B1C" stroke-opacity="0.980392" stroke-width="0.94" stroke-miterlimit="10"/>
<path d="M819.535 797.764C822.487 797.764 825.249 798.49 825.695 799.398C826.142 800.306 824.117 801.032 821.131 801.032C818.145 801.032 815.4 800.286 814.971 799.398C814.542 798.511 816.618 797.764 819.535 797.764Z" stroke="#B17B1C" stroke-opacity="0.980392" stroke-width="0.94" stroke-miterlimit="10"/>
<path d="M884.398 933.736L846.836 856.632L781.012 837.083L775.538 821.771" stroke="#B17B1C" stroke-opacity="0.980392" stroke-width="0.94" stroke-miterlimit="10"/>
<path d="M774.131 817.817C777.237 817.817 780.051 818.624 780.412 819.613C780.772 820.601 778.541 821.428 775.418 821.428C772.295 821.428 769.481 820.621 769.138 819.613C768.795 818.604 771.025 817.817 774.131 817.817Z" stroke="#B17B1C" stroke-opacity="0.980392" stroke-width="0.94" stroke-miterlimit="10"/>
<path d="M898.452 814.327L863.755 761.915L842.392 756.932L836.008 746.482" stroke="#B17B1C" stroke-opacity="0.980392" stroke-width="0.94" stroke-miterlimit="10"/>
<path d="M905.024 816.021C905.659 816.97 903.737 817.756 900.734 817.756C897.731 817.756 894.762 816.97 894.145 816.021C893.527 815.073 895.466 814.307 898.452 814.307C901.437 814.307 904.372 815.073 905.024 816.021Z" stroke="#B17B1C" stroke-opacity="0.980392" stroke-width="0.94" stroke-miterlimit="10"/>
<path d="M720.371 758.708L730.855 798.007" stroke="#B17B1C" stroke-opacity="0.980392" stroke-width="0.94" stroke-miterlimit="10"/>
</g>
<g style="mix-blend-mode:overlay" opacity="0.7">
<path d="M937.043 744.949L973.73 785.337L919.712 806.903L947.373 844.971L996.243 858.245L1041.15 913.521" stroke="#B17B1C" stroke-opacity="0.980392" stroke-width="0.94" stroke-miterlimit="10"/>
<path d="M972.734 766.535L995.522 790.461L941.968 812.612L995.179 881.667L1049.78 897.261L1106.15 963.068" stroke="#B17B1C" stroke-opacity="0.980392" stroke-width="0.94" stroke-miterlimit="10"/>
<path d="M972.735 766.535C970.605 766.689 968.476 766.218 966.54 765.163C965.837 764.417 967.45 763.812 970.144 763.812C972.272 763.658 974.399 764.123 976.338 765.163C977.076 765.91 975.463 766.535 972.735 766.535Z" stroke="#B17B1C" stroke-opacity="0.980392" stroke-width="0.94" stroke-miterlimit="10"/>
<path d="M1207.12 978.198L1142.82 914.227L1166.28 899.057L1086.06 825.301L1038.18 813.842L1001.49 777.227" stroke="#B17B1C" stroke-opacity="0.980392" stroke-width="0.94" stroke-miterlimit="10"/>
<path d="M998.491 774.342C1000.72 774.192 1002.95 774.684 1004.98 775.775C1005.78 776.581 1004.19 777.227 1001.39 777.227C999.154 777.386 996.919 776.886 994.887 775.775C994.098 774.988 995.711 774.342 998.491 774.342Z" stroke="#B17B1C" stroke-opacity="0.980392" stroke-width="0.94" stroke-miterlimit="10"/>
<path d="M1048.99 882.211L994.544 820.48L1046.18 797.482L1013.61 766.858L973.884 758.304L946.755 730.565" stroke="#B17B1C" stroke-opacity="0.980392" stroke-width="0.94" stroke-miterlimit="10"/>
<path d="M879.662 725.199L894.23 743.698L916.349 748.499L943.152 780.435" stroke="#B17B1C" stroke-opacity="0.980392" stroke-width="0.94" stroke-miterlimit="10"/>
<path d="M945.365 783.057C942.534 783.057 939.668 782.392 938.999 781.565C938.33 780.738 940.063 780.092 942.877 780.092C945.072 779.919 947.268 780.427 949.243 781.565C949.947 782.392 948.231 783.057 945.365 783.057Z" stroke="#B17B1C" stroke-opacity="0.980392" stroke-width="0.94" stroke-miterlimit="10"/>
<path d="M929.784 792.055L901.814 756.206L879.404 751.203L866.638 733.652" stroke="#B17B1C" stroke-opacity="0.980392" stroke-width="0.94" stroke-miterlimit="10"/>
<path d="M929.664 791.893C932.564 791.893 935.481 792.599 936.168 793.467C936.854 794.334 935.052 795.061 932.118 795.061C929.184 795.061 926.267 794.334 925.598 793.467C924.928 792.599 926.747 791.893 929.664 791.893Z" stroke="#B17B1C" stroke-opacity="0.980392" stroke-width="0.94" stroke-miterlimit="10"/>
<path d="M1113.56 888.203L1058.91 833.754L1029 826.33L1004.62 800.689" stroke="#B17B1C" stroke-opacity="0.980392" stroke-width="0.94" stroke-miterlimit="10"/>
<path d="M1001.87 797.764C1004.82 797.764 1007.91 798.49 1008.74 799.398C1009.56 800.306 1007.91 801.032 1004.93 801.032C1002.56 801.183 1000.19 800.621 998.062 799.398C997.204 798.51 998.92 797.764 1001.87 797.764Z" stroke="#B17B1C" stroke-opacity="0.980392" stroke-width="0.94" stroke-miterlimit="10"/>
<path d="M1129.23 933.735L1056.2 856.631L981.383 837.083L968.856 821.771" stroke="#B17B1C" stroke-opacity="0.980392" stroke-width="0.94" stroke-miterlimit="10"/>
<path d="M965.648 817.817C968.754 817.817 971.928 818.624 972.752 819.612C973.575 820.601 971.722 821.428 968.582 821.428C965.442 821.428 962.267 820.621 961.478 819.612C960.689 818.603 962.542 817.817 965.648 817.817Z" stroke="#B17B1C" stroke-opacity="0.980392" stroke-width="0.94" stroke-miterlimit="10"/>
<path d="M1088.34 814.327L1029.53 761.915L1005.89 756.932L994.681 746.482" stroke="#B17B1C" stroke-opacity="0.980392" stroke-width="0.94" stroke-miterlimit="10"/>
<path d="M1095.7 816.021C1096.78 816.97 1095.22 817.756 1092.27 817.756C1089.73 817.885 1087.2 817.29 1084.91 816.021C1083.84 815.073 1085.42 814.307 1088.34 814.307C1090.87 814.176 1093.4 814.764 1095.7 816.021Z" stroke="#B17B1C" stroke-opacity="0.980392" stroke-width="0.94" stroke-miterlimit="10"/>
<path d="M884.689 758.708L913.225 798.006" stroke="#B17B1C" stroke-opacity="0.980392" stroke-width="0.94" stroke-miterlimit="10"/>
</g>
</g>
</g>
<defs>
<linearGradient id="paint0_linear_1658_244" x1="1184.69" y1="788.815" x2="1184.69" y2="635.373" gradientUnits="userSpaceOnUse">
<stop stop-color="white"/>
<stop offset="0.21" stop-color="white" stop-opacity="0.71"/>
<stop offset="0.43" stop-color="white" stop-opacity="0.46"/>
<stop offset="0.62" stop-color="white" stop-opacity="0.26"/>
<stop offset="0.78" stop-color="white" stop-opacity="0.12"/>
<stop offset="0.91" stop-color="white" stop-opacity="0.03"/>
<stop offset="1" stop-color="white" stop-opacity="0"/>
</linearGradient>
<linearGradient id="paint1_linear_1658_244" x1="1099.71" y1="797.268" x2="1099.71" y2="405.674" gradientUnits="userSpaceOnUse">
<stop stop-color="white"/>
<stop offset="0.21" stop-color="white" stop-opacity="0.71"/>
<stop offset="0.43" stop-color="white" stop-opacity="0.46"/>
<stop offset="0.62" stop-color="white" stop-opacity="0.26"/>
<stop offset="0.78" stop-color="white" stop-opacity="0.12"/>
<stop offset="0.91" stop-color="white" stop-opacity="0.03"/>
<stop offset="1" stop-color="white" stop-opacity="0"/>
</linearGradient>
<linearGradient id="paint2_linear_1658_244" x1="266.589" y1="787.366" x2="266.589" y2="-57.5315" gradientUnits="userSpaceOnUse">
<stop stop-color="white"/>
<stop offset="0.21" stop-color="white" stop-opacity="0.71"/>
<stop offset="0.43" stop-color="white" stop-opacity="0.46"/>
<stop offset="0.62" stop-color="white" stop-opacity="0.26"/>
<stop offset="0.78" stop-color="white" stop-opacity="0.12"/>
<stop offset="0.91" stop-color="white" stop-opacity="0.03"/>
<stop offset="1" stop-color="white" stop-opacity="0"/>
</linearGradient>
<linearGradient id="paint3_linear_1658_244" x1="971.533" y1="787.366" x2="971.533" y2="-57.5316" gradientUnits="userSpaceOnUse">
<stop stop-color="white"/>
<stop offset="0.21" stop-color="white" stop-opacity="0.71"/>
<stop offset="0.43" stop-color="white" stop-opacity="0.46"/>
<stop offset="0.62" stop-color="white" stop-opacity="0.26"/>
<stop offset="0.78" stop-color="white" stop-opacity="0.12"/>
<stop offset="0.91" stop-color="white" stop-opacity="0.03"/>
<stop offset="1" stop-color="white" stop-opacity="0"/>
</linearGradient>
<linearGradient id="paint4_linear_1658_244" x1="141.6" y1="796.279" x2="141.6" y2="432.445" gradientUnits="userSpaceOnUse">
<stop stop-color="white"/>
<stop offset="0.21" stop-color="white" stop-opacity="0.71"/>
<stop offset="0.43" stop-color="white" stop-opacity="0.46"/>
<stop offset="0.62" stop-color="white" stop-opacity="0.26"/>
<stop offset="0.78" stop-color="white" stop-opacity="0.12"/>
<stop offset="0.91" stop-color="white" stop-opacity="0.03"/>
<stop offset="1" stop-color="white" stop-opacity="0"/>
</linearGradient>
<linearGradient id="paint5_linear_1658_244" x1="56.6092" y1="788.129" x2="56.6092" y2="653.933" gradientUnits="userSpaceOnUse">
<stop stop-color="white"/>
<stop offset="0.21" stop-color="white" stop-opacity="0.71"/>
<stop offset="0.43" stop-color="white" stop-opacity="0.46"/>
<stop offset="0.62" stop-color="white" stop-opacity="0.26"/>
<stop offset="0.78" stop-color="white" stop-opacity="0.12"/>
<stop offset="0.91" stop-color="white" stop-opacity="0.03"/>
<stop offset="1" stop-color="white" stop-opacity="0"/>
</linearGradient>
<linearGradient id="paint6_linear_1658_244" x1="870.722" y1="778.93" x2="870.722" y2="39.7626" gradientUnits="userSpaceOnUse">
<stop stop-color="white"/>
<stop offset="0.52" stop-color="#F8F8F8" stop-opacity="0.47"/>
<stop offset="1" stop-color="#F2F2F2" stop-opacity="0"/>
</linearGradient>
<linearGradient id="paint7_linear_1658_244" x1="869.177" y1="778.889" x2="869.177" y2="39.8825" gradientUnits="userSpaceOnUse">
<stop stop-color="white"/>
<stop offset="0.52" stop-color="#F8F8F8" stop-opacity="0.47"/>
<stop offset="1" stop-color="#F2F2F2" stop-opacity="0"/>
</linearGradient>
<linearGradient id="paint8_linear_1658_244" x1="901.163" y1="778.929" x2="901.163" y2="39.7424" gradientUnits="userSpaceOnUse">
<stop stop-color="white"/>
<stop offset="0.52" stop-color="#F8F8F8" stop-opacity="0.47"/>
<stop offset="1" stop-color="#F2F2F2" stop-opacity="0"/>
</linearGradient>
<linearGradient id="paint9_linear_1658_244" x1="885.496" y1="778.929" x2="885.496" y2="39.7624" gradientUnits="userSpaceOnUse">
<stop stop-color="white"/>
<stop offset="0.52" stop-color="#F8F8F8" stop-opacity="0.47"/>
<stop offset="1" stop-color="#F2F2F2" stop-opacity="0"/>
</linearGradient>
<linearGradient id="paint10_linear_1658_244" x1="883.952" y1="778.929" x2="883.952" y2="39.6842" gradientUnits="userSpaceOnUse">
<stop stop-color="white"/>
<stop offset="0.52" stop-color="#F8F8F8" stop-opacity="0.47"/>
<stop offset="1" stop-color="#F2F2F2" stop-opacity="0"/>
</linearGradient>
<linearGradient id="paint11_linear_1658_244" x1="915.92" y1="778.929" x2="915.92" y2="39.7423" gradientUnits="userSpaceOnUse">
<stop stop-color="white"/>
<stop offset="0.52" stop-color="#F8F8F8" stop-opacity="0.47"/>
<stop offset="1" stop-color="#F2F2F2" stop-opacity="0"/>
</linearGradient>
<linearGradient id="paint12_linear_1658_244" x1="946.893" y1="778.929" x2="946.893" y2="39.7623" gradientUnits="userSpaceOnUse">
<stop stop-color="white"/>
<stop offset="0.52" stop-color="#F8F8F8" stop-opacity="0.47"/>
<stop offset="1" stop-color="#F2F2F2" stop-opacity="0"/>
</linearGradient>
<linearGradient id="paint13_linear_1658_244" x1="932.393" y1="778.888" x2="932.393" y2="39.7625" gradientUnits="userSpaceOnUse">
<stop stop-color="white"/>
<stop offset="0.52" stop-color="#F8F8F8" stop-opacity="0.47"/>
<stop offset="1" stop-color="#F2F2F2" stop-opacity="0"/>
</linearGradient>
<linearGradient id="paint14_linear_1658_244" x1="922.715" y1="778.929" x2="922.715" y2="39.7622" gradientUnits="userSpaceOnUse">
<stop stop-color="white"/>
<stop offset="0.52" stop-color="#F8F8F8" stop-opacity="0.47"/>
<stop offset="1" stop-color="#F2F2F2" stop-opacity="0"/>
</linearGradient>
<linearGradient id="paint15_linear_1658_244" x1="924.242" y1="778.869" x2="924.242" y2="39.7627" gradientUnits="userSpaceOnUse">
<stop stop-color="white"/>
<stop offset="0.52" stop-color="#F8F8F8" stop-opacity="0.47"/>
<stop offset="1" stop-color="#F2F2F2" stop-opacity="0"/>
</linearGradient>
<linearGradient id="paint16_linear_1658_244" x1="892.274" y1="778.91" x2="892.274" y2="39.7819" gradientUnits="userSpaceOnUse">
<stop stop-color="white"/>
<stop offset="0.52" stop-color="#F8F8F8" stop-opacity="0.47"/>
<stop offset="1" stop-color="#F2F2F2" stop-opacity="0"/>
</linearGradient>
<linearGradient id="paint17_linear_1658_244" x1="846.51" y1="778.929" x2="846.51" y2="39.7622" gradientUnits="userSpaceOnUse">
<stop stop-color="white"/>
<stop offset="0.52" stop-color="#F8F8F8" stop-opacity="0.47"/>
<stop offset="1" stop-color="#F2F2F2" stop-opacity="0"/>
</linearGradient>
<linearGradient id="paint18_linear_1658_244" x1="837.656" y1="778.908" x2="837.656" y2="39.7843" gradientUnits="userSpaceOnUse">
<stop stop-color="white"/>
<stop offset="0.52" stop-color="#F8F8F8" stop-opacity="0.47"/>
<stop offset="1" stop-color="#F2F2F2" stop-opacity="0"/>
</linearGradient>
<linearGradient id="paint19_linear_1658_244" x1="855.381" y1="778.929" x2="855.381" y2="39.8042" gradientUnits="userSpaceOnUse">
<stop stop-color="white"/>
<stop offset="0.52" stop-color="#F8F8F8" stop-opacity="0.47"/>
<stop offset="1" stop-color="#F2F2F2" stop-opacity="0"/>
</linearGradient>
<linearGradient id="paint20_linear_1658_244" x1="869.177" y1="778.93" x2="869.177" y2="39.7626" gradientUnits="userSpaceOnUse">
<stop stop-color="white"/>
<stop offset="0.52" stop-color="#F8F8F8" stop-opacity="0.47"/>
<stop offset="1" stop-color="#F2F2F2" stop-opacity="0"/>
</linearGradient>
<linearGradient id="paint21_linear_1658_244" x1="860.306" y1="778.93" x2="860.306" y2="39.7423" gradientUnits="userSpaceOnUse">
<stop stop-color="white"/>
<stop offset="0.52" stop-color="#F8F8F8" stop-opacity="0.47"/>
<stop offset="1" stop-color="#F2F2F2" stop-opacity="0"/>
</linearGradient>
<linearGradient id="paint22_linear_1658_244" x1="878.049" y1="778.93" x2="878.049" y2="39.7423" gradientUnits="userSpaceOnUse">
<stop stop-color="white"/>
<stop offset="0.52" stop-color="#F8F8F8" stop-opacity="0.47"/>
<stop offset="1" stop-color="#F2F2F2" stop-opacity="0"/>
</linearGradient>
<linearGradient id="paint23_linear_1658_244" x1="849.324" y1="778.929" x2="849.324" y2="39.7621" gradientUnits="userSpaceOnUse">
<stop stop-color="white"/>
<stop offset="0.52" stop-color="#F8F8F8" stop-opacity="0.47"/>
<stop offset="1" stop-color="#F2F2F2" stop-opacity="0"/>
</linearGradient>
<linearGradient id="paint24_linear_1658_244" x1="858.195" y1="778.889" x2="858.195" y2="39.7627" gradientUnits="userSpaceOnUse">
<stop stop-color="white"/>
<stop offset="0.52" stop-color="#F8F8F8" stop-opacity="0.47"/>
<stop offset="1" stop-color="#F2F2F2" stop-opacity="0"/>
</linearGradient>
<linearGradient id="paint25_linear_1658_244" x1="840.47" y1="778.99" x2="840.47" y2="39.7421" gradientUnits="userSpaceOnUse">
<stop stop-color="white"/>
<stop offset="0.52" stop-color="#F8F8F8" stop-opacity="0.47"/>
<stop offset="1" stop-color="#F2F2F2" stop-opacity="0"/>
</linearGradient>
<linearGradient id="paint26_linear_1658_244" x1="924.242" y1="778.93" x2="924.242" y2="39.7625" gradientUnits="userSpaceOnUse">
<stop stop-color="#FFA80F" stop-opacity="0.980392"/>
<stop offset="0.52" stop-color="#F8F8F8" stop-opacity="0.47"/>
<stop offset="1" stop-color="#F2F2F2" stop-opacity="0"/>
</linearGradient>
<linearGradient id="paint27_linear_1658_244" x1="933.114" y1="778.909" x2="933.114" y2="39.7817" gradientUnits="userSpaceOnUse">
<stop stop-color="white"/>
<stop offset="0.52" stop-color="#F8F8F8" stop-opacity="0.47"/>
<stop offset="1" stop-color="#F2F2F2" stop-opacity="0"/>
</linearGradient>
<linearGradient id="paint28_linear_1658_244" x1="915.388" y1="778.909" x2="915.388" y2="39.7621" gradientUnits="userSpaceOnUse">
<stop stop-color="white"/>
<stop offset="0.52" stop-color="#F8F8F8" stop-opacity="0.47"/>
<stop offset="1" stop-color="#F2F2F2" stop-opacity="0"/>
</linearGradient>
<linearGradient id="paint29_linear_1658_244" x1="892.549" y1="778.929" x2="892.549" y2="39.7623" gradientUnits="userSpaceOnUse">
<stop stop-color="white"/>
<stop offset="0.52" stop-color="#F8F8F8" stop-opacity="0.47"/>
<stop offset="1" stop-color="#F2F2F2" stop-opacity="0"/>
</linearGradient>
<linearGradient id="paint30_linear_1658_244" x1="870.876" y1="778.97" x2="870.876" y2="39.7005" gradientUnits="userSpaceOnUse">
<stop stop-color="white"/>
<stop offset="0.52" stop-color="#F8F8F8" stop-opacity="0.47"/>
<stop offset="1" stop-color="#F2F2F2" stop-opacity="0"/>
</linearGradient>
<linearGradient id="paint31_linear_1658_244" x1="960.929" y1="860.573" x2="960.929" y2="-105.771" gradientUnits="userSpaceOnUse">
<stop stop-color="white"/>
<stop offset="0.52" stop-color="#F8F8F8" stop-opacity="0.47"/>
<stop offset="1" stop-color="#F2F2F2" stop-opacity="0"/>
</linearGradient>
<linearGradient id="paint32_linear_1658_244" x1="945.794" y1="778.91" x2="945.794" y2="39.762" gradientUnits="userSpaceOnUse">
<stop stop-color="white"/>
<stop offset="0.52" stop-color="#F8F8F8" stop-opacity="0.47"/>
<stop offset="1" stop-color="#F2F2F2" stop-opacity="0"/>
</linearGradient>
<linearGradient id="paint33_linear_1658_244" x1="964.327" y1="778.929" x2="964.327" y2="39.7623" gradientUnits="userSpaceOnUse">
<stop stop-color="white"/>
<stop offset="0.52" stop-color="#F8F8F8" stop-opacity="0.47"/>
<stop offset="1" stop-color="#F2F2F2" stop-opacity="0"/>
</linearGradient>
<linearGradient id="paint34_linear_1658_244" x1="955.661" y1="778.91" x2="955.661" y2="39.7415" gradientUnits="userSpaceOnUse">
<stop stop-color="white"/>
<stop offset="0.52" stop-color="#F8F8F8" stop-opacity="0.47"/>
<stop offset="1" stop-color="#F2F2F2" stop-opacity="0"/>
</linearGradient>
<linearGradient id="paint35_linear_1658_244" x1="972.855" y1="778.909" x2="972.855" y2="39.7623" gradientUnits="userSpaceOnUse">
<stop stop-color="white"/>
<stop offset="0.52" stop-color="#F8F8F8" stop-opacity="0.47"/>
<stop offset="1" stop-color="#F2F2F2" stop-opacity="0"/>
</linearGradient>
<linearGradient id="paint36_linear_1658_244" x1="840.281" y1="778.929" x2="840.281" y2="39.7625" gradientUnits="userSpaceOnUse">
<stop stop-color="white"/>
<stop offset="0.52" stop-color="#F8F8F8" stop-opacity="0.47"/>
<stop offset="1" stop-color="#F2F2F2" stop-opacity="0"/>
</linearGradient>
<linearGradient id="paint37_linear_1658_244" x1="370.575" y1="778.93" x2="370.575" y2="39.7626" gradientUnits="userSpaceOnUse">
<stop stop-color="white"/>
<stop offset="0.52" stop-color="#F8F8F8" stop-opacity="0.47"/>
<stop offset="1" stop-color="#F2F2F2" stop-opacity="0"/>
</linearGradient>
<linearGradient id="paint38_linear_1658_244" x1="372.12" y1="778.889" x2="372.12" y2="39.8832" gradientUnits="userSpaceOnUse">
<stop stop-color="white"/>
<stop offset="0.52" stop-color="#F8F8F8" stop-opacity="0.47"/>
<stop offset="1" stop-color="#F2F2F2" stop-opacity="0"/>
</linearGradient>
<linearGradient id="paint39_linear_1658_244" x1="340.135" y1="778.928" x2="340.135" y2="39.742" gradientUnits="userSpaceOnUse">
<stop stop-color="white"/>
<stop offset="0.52" stop-color="#F8F8F8" stop-opacity="0.47"/>
<stop offset="1" stop-color="#F2F2F2" stop-opacity="0"/>
</linearGradient>
<linearGradient id="paint40_linear_1658_244" x1="355.801" y1="778.929" x2="355.801" y2="39.7624" gradientUnits="userSpaceOnUse">
<stop stop-color="white"/>
<stop offset="0.52" stop-color="#F8F8F8" stop-opacity="0.47"/>
<stop offset="1" stop-color="#F2F2F2" stop-opacity="0"/>
</linearGradient>
<linearGradient id="paint41_linear_1658_244" x1="357.346" y1="778.929" x2="357.346" y2="39.6842" gradientUnits="userSpaceOnUse">
<stop stop-color="white"/>
<stop offset="0.52" stop-color="#F8F8F8" stop-opacity="0.47"/>
<stop offset="1" stop-color="#F2F2F2" stop-opacity="0"/>
</linearGradient>
<linearGradient id="paint42_linear_1658_244" x1="325.377" y1="778.929" x2="325.377" y2="39.7423" gradientUnits="userSpaceOnUse">
<stop stop-color="white"/>
<stop offset="0.52" stop-color="#F8F8F8" stop-opacity="0.47"/>
<stop offset="1" stop-color="#F2F2F2" stop-opacity="0"/>
</linearGradient>
<linearGradient id="paint43_linear_1658_244" x1="294.405" y1="778.929" x2="294.405" y2="39.7623" gradientUnits="userSpaceOnUse">
<stop stop-color="white"/>
<stop offset="0.52" stop-color="#F8F8F8" stop-opacity="0.47"/>
<stop offset="1" stop-color="#F2F2F2" stop-opacity="0"/>
</linearGradient>
<linearGradient id="paint44_linear_1658_244" x1="308.904" y1="778.889" x2="308.904" y2="39.7623" gradientUnits="userSpaceOnUse">
<stop stop-color="white"/>
<stop offset="0.52" stop-color="#F8F8F8" stop-opacity="0.47"/>
<stop offset="1" stop-color="#F2F2F2" stop-opacity="0"/>
</linearGradient>
<linearGradient id="paint45_linear_1658_244" x1="318.582" y1="778.929" x2="318.582" y2="39.7622" gradientUnits="userSpaceOnUse">
<stop stop-color="white"/>
<stop offset="0.52" stop-color="#F8F8F8" stop-opacity="0.47"/>
<stop offset="1" stop-color="#F2F2F2" stop-opacity="0"/>
</linearGradient>
<linearGradient id="paint46_linear_1658_244" x1="317.038" y1="778.869" x2="317.038" y2="39.7626" gradientUnits="userSpaceOnUse">
<stop stop-color="white"/>
<stop offset="0.52" stop-color="#F8F8F8" stop-opacity="0.47"/>
<stop offset="1" stop-color="#F2F2F2" stop-opacity="0"/>
</linearGradient>
<linearGradient id="paint47_linear_1658_244" x1="349.023" y1="778.91" x2="349.023" y2="39.7819" gradientUnits="userSpaceOnUse">
<stop stop-color="white"/>
<stop offset="0.52" stop-color="#F8F8F8" stop-opacity="0.47"/>
<stop offset="1" stop-color="#F2F2F2" stop-opacity="0"/>
</linearGradient>
<linearGradient id="paint48_linear_1658_244" x1="394.788" y1="778.929" x2="394.788" y2="39.7622" gradientUnits="userSpaceOnUse">
<stop stop-color="white"/>
<stop offset="0.52" stop-color="#F8F8F8" stop-opacity="0.47"/>
<stop offset="1" stop-color="#F2F2F2" stop-opacity="0"/>
</linearGradient>
<linearGradient id="paint49_linear_1658_244" x1="403.642" y1="778.908" x2="403.642" y2="39.7843" gradientUnits="userSpaceOnUse">
<stop stop-color="white"/>
<stop offset="0.52" stop-color="#F8F8F8" stop-opacity="0.47"/>
<stop offset="1" stop-color="#F2F2F2" stop-opacity="0"/>
</linearGradient>
<linearGradient id="paint50_linear_1658_244" x1="385.916" y1="778.929" x2="385.916" y2="39.8042" gradientUnits="userSpaceOnUse">
<stop stop-color="white"/>
<stop offset="0.52" stop-color="#F8F8F8" stop-opacity="0.47"/>
<stop offset="1" stop-color="#F2F2F2" stop-opacity="0"/>
</linearGradient>
<linearGradient id="paint51_linear_1658_244" x1="372.12" y1="778.93" x2="372.12" y2="39.7626" gradientUnits="userSpaceOnUse">
<stop stop-color="white"/>
<stop offset="0.52" stop-color="#F8F8F8" stop-opacity="0.47"/>
<stop offset="1" stop-color="#F2F2F2" stop-opacity="0"/>
</linearGradient>
<linearGradient id="paint52_linear_1658_244" x1="380.974" y1="778.93" x2="380.974" y2="39.7423" gradientUnits="userSpaceOnUse">
<stop stop-color="white"/>
<stop offset="0.52" stop-color="#F8F8F8" stop-opacity="0.47"/>
<stop offset="1" stop-color="#F2F2F2" stop-opacity="0"/>
</linearGradient>
<linearGradient id="paint53_linear_1658_244" x1="363.248" y1="778.93" x2="363.248" y2="39.7423" gradientUnits="userSpaceOnUse">
<stop stop-color="white"/>
<stop offset="0.52" stop-color="#F8F8F8" stop-opacity="0.47"/>
<stop offset="1" stop-color="#F2F2F2" stop-opacity="0"/>
</linearGradient>
<linearGradient id="paint54_linear_1658_244" x1="391.973" y1="778.929" x2="391.973" y2="39.7621" gradientUnits="userSpaceOnUse">
<stop stop-color="white"/>
<stop offset="0.52" stop-color="#F8F8F8" stop-opacity="0.47"/>
<stop offset="1" stop-color="#F2F2F2" stop-opacity="0"/>
</linearGradient>
<linearGradient id="paint55_linear_1658_244" x1="383.102" y1="778.889" x2="383.102" y2="39.7627" gradientUnits="userSpaceOnUse">
<stop stop-color="white"/>
<stop offset="0.52" stop-color="#F8F8F8" stop-opacity="0.47"/>
<stop offset="1" stop-color="#F2F2F2" stop-opacity="0"/>
</linearGradient>
<linearGradient id="paint56_linear_1658_244" x1="400.828" y1="778.99" x2="400.828" y2="39.7421" gradientUnits="userSpaceOnUse">
<stop stop-color="white"/>
<stop offset="0.52" stop-color="#F8F8F8" stop-opacity="0.47"/>
<stop offset="1" stop-color="#F2F2F2" stop-opacity="0"/>
</linearGradient>
<linearGradient id="paint57_linear_1658_244" x1="317.038" y1="778.93" x2="317.038" y2="39.7625" gradientUnits="userSpaceOnUse">
<stop stop-color="white"/>
<stop offset="0.52" stop-color="#F8F8F8" stop-opacity="0.47"/>
<stop offset="1" stop-color="#F2F2F2" stop-opacity="0"/>
</linearGradient>
<linearGradient id="paint58_linear_1658_244" x1="308.184" y1="778.909" x2="308.184" y2="39.7817" gradientUnits="userSpaceOnUse">
<stop stop-color="white"/>
<stop offset="0.52" stop-color="#F8F8F8" stop-opacity="0.47"/>
<stop offset="1" stop-color="#F2F2F2" stop-opacity="0"/>
</linearGradient>
<linearGradient id="paint59_linear_1658_244" x1="325.909" y1="778.91" x2="325.909" y2="39.7618" gradientUnits="userSpaceOnUse">
<stop stop-color="white"/>
<stop offset="0.52" stop-color="#F8F8F8" stop-opacity="0.47"/>
<stop offset="1" stop-color="#F2F2F2" stop-opacity="0"/>
</linearGradient>
<linearGradient id="paint60_linear_1658_244" x1="348.749" y1="778.929" x2="348.749" y2="39.7623" gradientUnits="userSpaceOnUse">
<stop stop-color="white"/>
<stop offset="0.52" stop-color="#F8F8F8" stop-opacity="0.47"/>
<stop offset="1" stop-color="#F2F2F2" stop-opacity="0"/>
</linearGradient>
<linearGradient id="paint61_linear_1658_244" x1="370.404" y1="778.97" x2="370.404" y2="39.7005" gradientUnits="userSpaceOnUse">
<stop stop-color="white"/>
<stop offset="0.52" stop-color="#F8F8F8" stop-opacity="0.47"/>
<stop offset="1" stop-color="#F2F2F2" stop-opacity="0"/>
</linearGradient>
<linearGradient id="paint62_linear_1658_244" x1="280.351" y1="855.388" x2="280.351" y2="-96.4912" gradientUnits="userSpaceOnUse">
<stop stop-color="white"/>
<stop offset="0.52" stop-color="#F8F8F8" stop-opacity="0.47"/>
<stop offset="1" stop-color="#F2F2F2" stop-opacity="0"/>
</linearGradient>
<linearGradient id="paint63_linear_1658_244" x1="295.503" y1="778.91" x2="295.503" y2="39.762" gradientUnits="userSpaceOnUse">
<stop stop-color="white"/>
<stop offset="0.52" stop-color="#F8F8F8" stop-opacity="0.47"/>
<stop offset="1" stop-color="#F2F2F2" stop-opacity="0"/>
</linearGradient>
<linearGradient id="paint64_linear_1658_244" x1="276.971" y1="778.929" x2="276.971" y2="39.7623" gradientUnits="userSpaceOnUse">
<stop stop-color="white"/>
<stop offset="0.52" stop-color="#F8F8F8" stop-opacity="0.47"/>
<stop offset="1" stop-color="#F2F2F2" stop-opacity="0"/>
</linearGradient>
<linearGradient id="paint65_linear_1658_244" x1="285.619" y1="778.91" x2="285.619" y2="39.7415" gradientUnits="userSpaceOnUse">
<stop stop-color="white"/>
<stop offset="0.52" stop-color="#F8F8F8" stop-opacity="0.47"/>
<stop offset="1" stop-color="#F2F2F2" stop-opacity="0"/>
</linearGradient>
<linearGradient id="paint66_linear_1658_244" x1="268.443" y1="778.909" x2="268.443" y2="39.7623" gradientUnits="userSpaceOnUse">
<stop stop-color="white"/>
<stop offset="0.52" stop-color="#F8F8F8" stop-opacity="0.47"/>
<stop offset="1" stop-color="#F2F2F2" stop-opacity="0"/>
</linearGradient>
<linearGradient id="paint67_linear_1658_244" x1="400.999" y1="778.929" x2="400.999" y2="39.7625" gradientUnits="userSpaceOnUse">
<stop stop-color="white"/>
<stop offset="0.52" stop-color="#F8F8F8" stop-opacity="0.47"/>
<stop offset="1" stop-color="#F2F2F2" stop-opacity="0"/>
</linearGradient>
</defs>
</svg>
