<svg width="185" height="343" viewBox="0 0 185 343" fill="none" xmlns="http://www.w3.org/2000/svg">
<path d="M40.4536 5.25162C40.4563 3.89863 41.1354 2.60168 42.3422 1.64497C43.549 0.688262 45.185 0.149841 46.8916 0.147708H79.9559C80.8236 0.120374 81.6893 0.232255 82.5011 0.476635C83.3128 0.721016 84.054 1.09286 84.68 1.56988C85.3061 2.04689 85.8042 2.61923 86.1445 3.25258C86.4847 3.88594 86.6601 4.56725 86.6601 5.25565C86.6601 5.94405 86.4847 6.62536 86.1445 7.25871C85.8042 7.89207 85.3061 8.46442 84.68 8.94143C84.054 9.41844 83.3128 9.79029 82.5011 10.0347C81.6893 10.279 80.8236 10.3909 79.9559 10.3636H46.8916C45.1832 10.3615 43.5457 9.82193 42.3386 8.86348C41.1316 7.90503 40.4536 6.606 40.4536 5.25162ZM46.8916 0.712126C45.4134 0.761504 44.0164 1.26178 42.9925 2.10846C41.9685 2.95513 41.3969 4.08271 41.3969 5.25565C41.3969 6.42859 41.9685 7.55617 42.9925 8.40285C44.0164 9.24952 45.4134 9.7498 46.8916 9.79918H79.9559C80.7289 9.825 81.5004 9.7266 82.2241 9.50991C82.9479 9.29321 83.6088 8.9627 84.1672 8.53825C84.7257 8.1138 85.17 7.60419 85.4736 7.04006C85.7771 6.47594 85.9336 5.86896 85.9336 5.25565C85.9336 4.64234 85.7771 4.03537 85.4736 3.47124C85.17 2.90712 84.7257 2.3975 84.1672 1.97305C83.6088 1.5486 82.9479 1.21809 82.2241 1.00139C81.5004 0.784699 80.7289 0.686306 79.9559 0.712126H46.8916Z" fill="#FAA50F"/>
<path d="M0.645996 337.24C0.648691 335.885 1.32923 334.587 2.5382 333.63C3.74716 332.673 5.38576 332.136 7.09414 332.136H40.1586C41.8231 332.188 43.3973 332.749 44.5516 333.702C45.7059 334.654 46.3506 335.923 46.3506 337.244C46.3506 338.564 45.7059 339.834 44.5516 340.786C43.3973 341.738 41.8231 342.299 40.1586 342.352H7.07378C5.36799 342.345 3.73466 341.804 2.53038 340.846C1.32609 339.889 0.648663 338.592 0.645996 337.24ZM7.09414 332.7C6.32121 332.674 5.54967 332.773 4.82595 332.99C4.10223 333.206 3.44127 333.537 2.88284 333.961C2.32442 334.386 1.88007 334.895 1.57652 335.459C1.27296 336.024 1.11647 336.63 1.11647 337.244C1.11647 337.857 1.27296 338.464 1.57652 339.028C1.88007 339.592 2.32442 340.102 2.88284 340.526C3.44127 340.951 4.10223 341.281 4.82595 341.498C5.54967 341.715 6.32121 341.813 7.09414 341.787H40.1586C41.6368 341.738 43.0337 341.238 44.0576 340.391C45.0815 339.544 45.6532 338.417 45.6532 337.244C45.6532 336.071 45.0815 334.943 44.0576 334.097C43.0337 333.25 41.6368 332.75 40.1586 332.7H7.09414Z" fill="#FAA50F"/>
<path d="M57.123 325.032C57.1284 321.283 59.01 317.69 62.3546 315.039C65.6992 312.389 70.2335 310.9 74.9621 310.898H166.497C168.875 310.853 171.24 311.185 173.453 311.875C175.667 312.566 177.684 313.6 179.386 314.917C181.087 316.235 182.44 317.808 183.363 319.546C184.286 321.284 184.762 323.151 184.762 325.036C184.762 326.922 184.286 328.789 183.363 330.526C182.44 332.264 181.087 333.838 179.386 335.155C177.684 336.473 175.667 337.507 173.453 338.197C171.24 338.887 168.875 339.22 166.497 339.175H74.9621C70.2326 339.171 65.6983 337.679 62.3539 335.028C59.0096 332.377 57.1284 328.782 57.123 325.032ZM74.9621 312.454C70.7542 312.454 66.7186 313.779 63.7431 316.138C60.7677 318.497 59.0961 321.696 59.0961 325.032C59.0961 328.368 60.7677 331.568 63.7431 333.926C66.7186 336.285 70.7542 337.611 74.9621 337.611H166.497C170.705 337.611 174.74 336.285 177.716 333.926C180.691 331.568 182.363 328.368 182.363 325.032C182.363 321.696 180.691 318.497 177.716 316.138C174.74 313.779 170.705 312.454 166.497 312.454H74.9621Z" fill="#FAA50F" fill-opacity="0.5"/>
</svg>

