<svg width="789" height="505" viewBox="0 0 789 505" fill="none" xmlns="http://www.w3.org/2000/svg">
<g style="mix-blend-mode:screen">
<path style="mix-blend-mode:screen" d="M253.353 468.428C253.356 475.659 251.215 482.729 247.202 488.742C243.189 494.756 237.484 499.444 230.808 502.213C224.133 504.982 216.786 505.708 209.698 504.299C202.61 502.89 196.098 499.41 190.987 494.297C185.876 489.185 182.395 482.671 180.985 475.579C179.574 468.487 180.296 461.136 183.061 454.455C185.826 447.774 190.509 442.063 196.518 438.045C202.526 434.028 209.59 431.883 216.817 431.883C226.505 431.883 235.795 435.733 242.647 442.586C249.498 449.439 253.349 458.734 253.353 468.428Z" fill="url(#paint0_radial_1658_932)"/>
<path style="mix-blend-mode:screen" d="M73.0713 445.283C73.0713 452.513 70.9285 459.581 66.9139 465.593C62.8994 471.605 57.1933 476.291 50.5173 479.058C43.8412 481.825 36.4951 482.549 29.4079 481.139C22.3207 479.728 15.8107 476.246 10.7011 471.133C5.59146 466.02 2.11178 459.506 0.70204 452.415C-0.707696 445.323 0.0158269 437.972 2.78112 431.292C5.54642 424.612 10.2293 418.902 16.2375 414.885C22.2458 410.868 29.3096 408.724 36.5357 408.724C46.2255 408.724 55.5185 412.576 62.3703 419.432C69.222 426.288 73.0713 435.587 73.0713 445.283Z" fill="url(#paint1_radial_1658_932)"/>
<path style="mix-blend-mode:screen" d="M305.286 444.362C305.286 448.282 304.124 452.113 301.948 455.371C299.772 458.63 296.678 461.169 293.06 462.668C289.441 464.168 285.459 464.559 281.617 463.794C277.776 463.028 274.248 461.139 271.479 458.367C268.711 455.595 266.826 452.063 266.064 448.219C265.301 444.375 265.695 440.391 267.196 436.771C268.697 433.15 271.237 430.057 274.495 427.882C277.753 425.706 281.583 424.547 285.499 424.549C288.099 424.549 290.673 425.062 293.075 426.058C295.476 427.054 297.658 428.513 299.496 430.353C301.333 432.193 302.79 434.378 303.784 436.781C304.777 439.185 305.288 441.761 305.286 444.362Z" fill="url(#paint2_radial_1658_932)"/>
<path style="mix-blend-mode:screen" d="M594.478 458.988C594.478 461.655 593.687 464.262 592.207 466.479C590.726 468.696 588.622 470.424 586.16 471.445C583.698 472.465 580.988 472.732 578.375 472.212C575.761 471.692 573.36 470.408 571.475 468.522C569.591 466.637 568.308 464.234 567.788 461.619C567.268 459.003 567.535 456.292 568.555 453.829C569.574 451.365 571.301 449.259 573.517 447.778C575.733 446.296 578.338 445.506 581.003 445.506C582.773 445.504 584.526 445.851 586.162 446.528C587.797 447.205 589.284 448.198 590.535 449.451C591.787 450.703 592.779 452.19 593.456 453.827C594.132 455.463 594.48 457.217 594.478 458.988Z" fill="url(#paint3_radial_1658_932)"/>
<path style="mix-blend-mode:screen" d="M556.799 446.482C556.805 450.401 555.648 454.235 553.476 457.497C551.304 460.759 548.213 463.302 544.596 464.806C540.978 466.31 536.996 466.706 533.153 465.945C529.31 465.184 525.78 463.299 523.008 460.529C520.236 457.759 518.347 454.229 517.581 450.385C516.814 446.541 517.205 442.556 518.703 438.934C520.201 435.312 522.739 432.216 525.995 430.038C529.252 427.859 533.081 426.697 536.999 426.697C542.245 426.697 547.278 428.78 550.99 432.49C554.703 436.199 556.792 441.232 556.799 446.482Z" fill="url(#paint4_radial_1658_932)"/>
<path style="mix-blend-mode:screen" d="M567.975 430.113C567.975 432.457 567.28 434.748 565.979 436.697C564.677 438.646 562.827 440.165 560.663 441.062C558.499 441.959 556.117 442.194 553.82 441.736C551.522 441.279 549.412 440.15 547.755 438.493C546.099 436.835 544.971 434.724 544.514 432.425C544.057 430.126 544.292 427.743 545.188 425.577C546.084 423.412 547.603 421.561 549.55 420.258C551.498 418.956 553.788 418.261 556.131 418.261C559.272 418.261 562.284 419.51 564.506 421.732C566.727 423.955 567.975 426.969 567.975 430.113Z" fill="url(#paint5_radial_1658_932)"/>
<path style="mix-blend-mode:screen" d="M499.404 468.525C499.407 470.87 498.715 473.163 497.415 475.113C496.115 477.064 494.266 478.585 492.102 479.485C489.938 480.384 487.556 480.62 485.258 480.165C482.959 479.709 480.848 478.581 479.19 476.924C477.532 475.268 476.403 473.156 475.944 470.856C475.486 468.557 475.72 466.173 476.616 464.007C477.512 461.841 479.03 459.989 480.978 458.686C482.926 457.383 485.217 456.688 487.56 456.688C489.115 456.686 490.655 456.991 492.091 457.585C493.528 458.179 494.834 459.051 495.934 460.15C497.034 461.249 497.907 462.555 498.502 463.992C499.098 465.429 499.404 466.97 499.404 468.525Z" fill="url(#paint6_radial_1658_932)"/>
<path style="mix-blend-mode:screen" d="M240.91 372.709C240.912 376.629 239.753 380.461 237.579 383.721C235.405 386.981 232.314 389.522 228.696 391.024C225.078 392.526 221.096 392.92 217.255 392.157C213.413 391.394 209.883 389.508 207.113 386.738C204.342 383.968 202.455 380.438 201.69 376.594C200.925 372.75 201.316 368.766 202.814 365.144C204.313 361.523 206.85 358.428 210.107 356.25C213.363 354.073 217.192 352.91 221.109 352.91C226.358 352.91 231.392 354.996 235.105 358.709C238.818 362.421 240.906 367.457 240.91 372.709Z" fill="url(#paint7_radial_1658_932)"/>
<path style="mix-blend-mode:screen" d="M667.033 357.386C667.036 361.306 665.877 365.139 663.702 368.399C661.527 371.659 658.435 374.201 654.816 375.702C651.198 377.204 647.215 377.597 643.373 376.833C639.531 376.069 636.002 374.182 633.232 371.41C630.462 368.638 628.575 365.107 627.812 361.262C627.048 357.417 627.442 353.432 628.942 349.812C630.442 346.191 632.982 343.096 636.241 340.92C639.499 338.744 643.329 337.584 647.247 337.587C652.493 337.591 657.524 339.678 661.234 343.39C664.944 347.102 667.03 352.136 667.033 357.386Z" fill="url(#paint8_radial_1658_932)"/>
<path style="mix-blend-mode:screen" d="M788.986 357.916C788.986 360.492 788.222 363.01 786.792 365.152C785.361 367.294 783.328 368.963 780.949 369.949C778.57 370.934 775.952 371.191 773.427 370.687C770.902 370.184 768.583 368.942 766.764 367.119C764.944 365.297 763.706 362.975 763.205 360.448C762.705 357.921 762.964 355.302 763.951 352.923C764.939 350.543 766.609 348.51 768.751 347.081C770.893 345.652 773.411 344.89 775.985 344.893C777.694 344.893 779.385 345.23 780.964 345.885C782.542 346.539 783.976 347.499 785.183 348.708C786.391 349.918 787.348 351.353 788 352.933C788.653 354.513 788.988 356.206 788.986 357.916Z" fill="url(#paint9_radial_1658_932)"/>
<path style="mix-blend-mode:screen" d="M215.173 290.418C215.176 292.995 214.414 295.515 212.985 297.658C211.556 299.802 209.524 301.473 207.145 302.461C204.767 303.448 202.149 303.707 199.623 303.205C197.097 302.703 194.777 301.462 192.956 299.64C191.135 297.818 189.895 295.497 189.393 292.969C188.891 290.442 189.15 287.822 190.137 285.442C191.124 283.062 192.794 281.028 194.937 279.598C197.079 278.168 199.597 277.406 202.172 277.409C205.619 277.413 208.924 278.785 211.361 281.223C213.798 283.662 215.169 286.969 215.173 290.418Z" fill="url(#paint10_radial_1658_932)"/>
<path style="mix-blend-mode:screen" d="M222.112 216.465C222.115 219.041 221.354 221.56 219.926 223.703C218.497 225.847 216.466 227.518 214.088 228.506C211.71 229.494 209.093 229.754 206.567 229.253C204.042 228.752 201.721 227.513 199.9 225.692C198.078 223.871 196.837 221.551 196.334 219.024C195.831 216.498 196.088 213.879 197.072 211.498C198.057 209.118 199.725 207.083 201.866 205.652C204.006 204.22 206.523 203.456 209.098 203.456C212.547 203.456 215.855 204.826 218.295 207.265C220.736 209.704 222.109 213.013 222.112 216.465Z" fill="url(#paint11_radial_1658_932)"/>
<path style="mix-blend-mode:screen" d="M735.102 435.996C735.1 438.569 734.335 441.082 732.905 443.22C731.474 445.357 729.443 447.022 727.067 448.005C724.691 448.987 722.078 449.243 719.557 448.74C717.036 448.236 714.721 446.996 712.904 445.176C711.087 443.356 709.85 441.038 709.35 438.515C708.849 435.992 709.108 433.377 710.092 431.001C711.076 428.625 712.743 426.594 714.88 425.165C717.018 423.736 719.531 422.974 722.102 422.974C723.81 422.974 725.502 423.311 727.08 423.965C728.658 424.62 730.092 425.579 731.299 426.789C732.507 427.998 733.464 429.434 734.117 431.014C734.769 432.594 735.104 434.287 735.102 435.996Z" fill="url(#paint12_radial_1658_932)"/>
<path style="mix-blend-mode:screen" d="M771.331 284.478C771.331 287.051 770.569 289.566 769.14 291.706C767.712 293.845 765.681 295.512 763.306 296.497C760.93 297.481 758.316 297.739 755.794 297.237C753.273 296.735 750.956 295.496 749.138 293.677C747.32 291.858 746.082 289.54 745.58 287.016C745.078 284.493 745.336 281.877 746.32 279.5C747.304 277.123 748.97 275.091 751.108 273.662C753.246 272.232 755.76 271.469 758.331 271.469C761.779 271.469 765.086 272.84 767.524 275.28C769.962 277.719 771.331 281.028 771.331 284.478Z" fill="url(#paint13_radial_1658_932)"/>
<path style="mix-blend-mode:screen" d="M684.284 231.858C684.287 234.434 683.526 236.953 682.097 239.097C680.669 241.24 678.637 242.911 676.26 243.899C673.882 244.887 671.264 245.147 668.739 244.646C666.213 244.145 663.893 242.906 662.072 241.085C660.25 239.264 659.009 236.944 658.506 234.417C658.003 231.891 658.26 229.272 659.244 226.891C660.229 224.511 661.897 222.476 664.038 221.045C666.178 219.613 668.695 218.849 671.269 218.849C674.719 218.849 678.027 220.219 680.467 222.658C682.908 225.097 684.28 228.406 684.284 231.858Z" fill="url(#paint14_radial_1658_932)"/>
<path style="mix-blend-mode:screen" d="M248.922 314.609C248.925 316.011 248.511 317.383 247.735 318.549C246.958 319.716 245.853 320.626 244.559 321.164C243.265 321.702 241.84 321.844 240.466 321.571C239.091 321.298 237.829 320.623 236.838 319.632C235.847 318.64 235.173 317.377 234.9 316.001C234.627 314.626 234.769 313.201 235.306 311.906C235.844 310.611 236.753 309.505 237.919 308.728C239.085 307.951 240.456 307.537 241.857 307.54C243.731 307.54 245.528 308.285 246.853 309.611C248.178 310.936 248.922 312.734 248.922 314.609Z" fill="url(#paint15_radial_1658_932)"/>
<path style="mix-blend-mode:screen" d="M162.251 333.558C162.253 334.959 161.841 336.33 161.065 337.497C160.288 338.663 159.184 339.573 157.891 340.111C156.597 340.65 155.174 340.792 153.8 340.52C152.426 340.248 151.163 339.575 150.172 338.585C149.18 337.595 148.505 336.333 148.231 334.959C147.956 333.584 148.096 332.159 148.631 330.864C149.166 329.569 150.074 328.462 151.238 327.683C152.402 326.904 153.771 326.489 155.172 326.489C157.047 326.489 158.845 327.233 160.173 328.558C161.5 329.883 162.247 331.681 162.251 333.558Z" fill="url(#paint16_radial_1658_932)"/>
<path style="mix-blend-mode:screen" d="M236.256 32.5291C236.258 33.9305 235.846 35.3013 235.069 36.468C234.293 37.6346 233.189 38.5446 231.896 39.0828C230.602 39.6211 229.179 39.7633 227.805 39.4916C226.431 39.2199 225.168 38.5464 224.177 37.5564C223.185 36.5664 222.51 35.3043 222.235 33.93C221.961 32.5556 222.101 31.1307 222.636 29.8357C223.171 28.5406 224.079 27.4336 225.243 26.6546C226.407 25.8757 227.776 25.46 229.177 25.46C230.106 25.4581 231.026 25.6396 231.885 25.9941C232.744 26.3485 233.524 26.8689 234.181 27.5255C234.839 28.1821 235.361 28.962 235.716 29.8206C236.072 30.6792 236.256 31.5996 236.256 32.5291Z" fill="url(#paint17_radial_1658_932)"/>
<path style="mix-blend-mode:screen" d="M617.441 124.385C617.444 125.787 617.031 127.159 616.254 128.326C615.477 129.493 614.372 130.403 613.078 130.94C611.784 131.478 610.36 131.62 608.985 131.347C607.611 131.074 606.348 130.399 605.357 129.408C604.367 128.416 603.692 127.153 603.42 125.778C603.147 124.402 603.288 122.977 603.826 121.682C604.363 120.387 605.273 119.281 606.439 118.504C607.605 117.727 608.976 117.313 610.377 117.316C612.25 117.316 614.047 118.061 615.372 119.387C616.697 120.712 617.441 122.51 617.441 124.385Z" fill="url(#paint18_radial_1658_932)"/>
<path style="mix-blend-mode:screen" d="M672.287 138.551C672.287 139.952 671.871 141.322 671.094 142.486C670.316 143.651 669.21 144.559 667.917 145.095C666.623 145.631 665.2 145.772 663.827 145.498C662.454 145.225 661.193 144.55 660.203 143.56C659.213 142.569 658.539 141.307 658.265 139.933C657.992 138.559 658.132 137.135 658.668 135.841C659.204 134.546 660.111 133.44 661.275 132.662C662.439 131.884 663.808 131.468 665.208 131.468C666.138 131.466 667.059 131.648 667.919 132.004C668.779 132.359 669.56 132.881 670.217 133.539C670.875 134.197 671.396 134.978 671.751 135.839C672.107 136.699 672.288 137.621 672.287 138.551Z" fill="url(#paint19_radial_1658_932)"/>
<path style="mix-blend-mode:screen" d="M196.236 128.554C196.239 129.956 195.826 131.326 195.05 132.493C194.274 133.66 193.169 134.57 191.876 135.108C190.583 135.646 189.159 135.788 187.785 135.517C186.411 135.245 185.149 134.572 184.157 133.582C183.166 132.591 182.49 131.329 182.216 129.955C181.942 128.581 182.081 127.156 182.617 125.861C183.152 124.566 184.059 123.459 185.224 122.68C186.388 121.901 187.757 121.485 189.158 121.485C191.033 121.485 192.831 122.229 194.158 123.555C195.485 124.88 196.233 126.678 196.236 128.554Z" fill="url(#paint20_radial_1658_932)"/>
<path style="mix-blend-mode:screen" d="M588.082 57.0686C588.085 58.4701 587.672 59.8409 586.896 61.0075C586.119 62.1741 585.015 63.0841 583.722 63.6224C582.428 64.1606 581.005 64.3029 579.631 64.0312C578.257 63.7594 576.994 63.0859 576.003 62.0959C575.011 61.1059 574.336 59.8438 574.062 58.4695C573.787 57.0951 573.927 55.6703 574.462 54.3752C574.997 53.0801 575.905 51.9731 577.069 51.1942C578.233 50.4153 579.603 49.9995 581.003 49.9995C582.878 49.9995 584.676 50.7438 586.004 52.0691C587.331 53.3945 588.078 55.1925 588.082 57.0686Z" fill="url(#paint21_radial_1658_932)"/>
<path style="mix-blend-mode:screen" d="M256 124.385C256.003 125.787 255.59 127.158 254.814 128.324C254.038 129.491 252.934 130.401 251.64 130.939C250.347 131.477 248.923 131.62 247.549 131.348C246.175 131.076 244.913 130.403 243.921 129.413C242.93 128.423 242.255 127.161 241.98 125.786C241.706 124.412 241.845 122.987 242.381 121.692C242.916 120.397 243.823 119.29 244.988 118.511C246.152 117.732 247.521 117.316 248.922 117.316C249.851 117.314 250.771 117.496 251.63 117.85C252.488 118.205 253.269 118.725 253.926 119.382C254.584 120.038 255.105 120.818 255.461 121.677C255.817 122.535 256 123.456 256 124.385Z" fill="url(#paint22_radial_1658_932)"/>
<path style="mix-blend-mode:screen" d="M153.876 416.476C153.876 420.395 152.715 424.226 150.539 427.484C148.363 430.742 145.271 433.281 141.653 434.781C138.035 436.281 134.054 436.673 130.213 435.909C126.372 435.144 122.844 433.257 120.074 430.486C117.305 427.715 115.419 424.185 114.655 420.342C113.891 416.498 114.283 412.515 115.782 408.894C117.281 405.274 119.819 402.18 123.075 400.002C126.331 397.825 130.159 396.663 134.076 396.663C139.327 396.663 144.363 398.751 148.077 402.466C151.79 406.182 153.876 411.222 153.876 416.476Z" fill="url(#paint23_radial_1658_932)"/>
<path style="mix-blend-mode:screen" d="M135.288 169.212C135.29 173.132 134.131 176.964 131.957 180.225C129.782 183.485 126.69 186.027 123.071 187.528C119.452 189.029 115.47 189.423 111.628 188.659C107.785 187.895 104.256 186.007 101.486 183.236C98.716 180.464 96.8299 176.932 96.0663 173.088C95.3028 169.243 95.696 165.258 97.1964 161.637C98.6968 158.016 101.237 154.922 104.495 152.746C107.754 150.57 111.584 149.41 115.501 149.413C120.748 149.417 125.778 151.504 129.488 155.216C133.198 158.928 135.284 163.962 135.288 169.212Z" fill="url(#paint24_radial_1658_932)"/>
<path style="mix-blend-mode:screen" d="M625.342 249.286C625.345 253.206 624.186 257.038 622.012 260.298C619.838 263.558 616.746 266.099 613.128 267.601C609.51 269.103 605.529 269.497 601.687 268.734C597.845 267.971 594.316 266.085 591.545 263.315C588.775 260.545 586.887 257.014 586.122 253.171C585.357 249.327 585.748 245.343 587.247 241.721C588.745 238.1 591.283 235.005 594.539 232.827C597.796 230.65 601.625 229.487 605.541 229.487C610.79 229.487 615.825 231.573 619.538 235.285C623.25 238.998 625.338 244.034 625.342 249.286Z" fill="url(#paint25_radial_1658_932)"/>
<path style="mix-blend-mode:screen" d="M271.621 244.866C271.623 248.786 270.465 252.618 268.29 255.878C266.116 259.138 263.025 261.679 259.407 263.181C255.789 264.683 251.808 265.077 247.966 264.314C244.124 263.551 240.594 261.665 237.824 258.895C235.053 256.125 233.166 252.594 232.401 248.751C231.636 244.907 232.027 240.923 233.525 237.301C235.024 233.68 237.562 230.585 240.818 228.407C244.075 226.23 247.903 225.067 251.82 225.067C257.069 225.067 262.103 227.153 265.816 230.866C269.529 234.578 271.617 239.614 271.621 244.866Z" fill="url(#paint26_radial_1658_932)"/>
<path style="mix-blend-mode:screen" d="M423.058 19.7992C423.069 23.7207 421.917 27.5574 419.748 30.8233C417.578 34.0891 414.489 36.6373 410.871 38.145C407.253 39.6527 403.269 40.0523 399.424 39.2929C395.579 38.5336 392.046 36.6497 389.272 33.8796C386.497 31.1096 384.607 27.578 383.84 23.7323C383.073 19.8865 383.464 15.8995 384.963 12.2761C386.462 8.65278 389.002 5.55608 392.262 3.37821C395.521 1.20034 399.353 0.0392528 403.272 0.041997C408.511 0.0456657 413.535 2.12707 417.244 5.83026C420.953 9.53346 423.044 14.5565 423.058 19.7992Z" fill="url(#paint27_radial_1658_932)"/>
<path style="mix-blend-mode:screen" d="M92.5653 271.456C92.5681 275.375 91.4091 279.207 89.2351 282.467C87.0611 285.727 83.9696 288.269 80.3517 289.77C76.7339 291.272 72.7522 291.667 68.9104 290.904C65.0685 290.141 61.5391 288.255 58.7685 285.484C55.998 282.714 54.1107 279.184 53.3456 275.34C52.5805 271.496 52.9718 267.512 54.47 263.891C55.9683 260.27 58.5062 257.174 61.7626 254.997C65.0191 252.819 68.8479 251.657 72.7647 251.657C78.0137 251.657 83.048 253.742 86.7609 257.455C90.4738 261.167 92.5616 266.203 92.5653 271.456Z" fill="url(#paint28_radial_1658_932)"/>
<path style="mix-blend-mode:screen" d="M666.88 64.1796C666.88 68.0983 665.719 71.9289 663.543 75.1871C661.367 78.4453 658.275 80.9848 654.657 82.4844C651.039 83.984 647.057 84.3764 643.217 83.6119C639.376 82.8474 635.847 80.9604 633.078 78.1895C630.309 75.4186 628.423 71.8883 627.659 68.045C626.895 64.2016 627.287 60.2179 628.786 56.5976C630.285 52.9772 632.823 49.8829 636.079 47.7058C639.335 45.5287 643.163 44.3667 647.079 44.3667C652.331 44.3667 657.367 46.4541 661.081 50.1698C664.794 53.8854 666.88 58.9249 666.88 64.1796Z" fill="url(#paint29_radial_1658_932)"/>
<path style="mix-blend-mode:screen" d="M771.624 475.957C771.627 479.876 770.468 483.708 768.294 486.968C766.12 490.228 763.028 492.77 759.41 494.272C755.792 495.773 751.811 496.168 747.969 495.405C744.127 494.642 740.598 492.756 737.827 489.986C735.057 487.215 733.169 483.685 732.404 479.841C731.639 475.998 732.03 472.013 733.529 468.392C735.027 464.771 737.565 461.676 740.821 459.498C744.078 457.32 747.907 456.158 751.823 456.158C757.072 456.158 762.107 458.243 765.819 461.956C769.532 465.669 771.62 470.705 771.624 475.957Z" fill="url(#paint30_radial_1658_932)"/>
</g>
<defs>
<radialGradient id="paint0_radial_1658_932" cx="0" cy="0" r="1" gradientUnits="userSpaceOnUse" gradientTransform="translate(216.817 468.442) scale(36.5357 36.5584)">
<stop stop-color="white"/>
<stop offset="0.01" stop-color="white" stop-opacity="0.96"/>
<stop offset="0.03" stop-color="white" stop-opacity="0.78"/>
<stop offset="0.07" stop-color="white" stop-opacity="0.61"/>
<stop offset="0.1" stop-color="white" stop-opacity="0.47"/>
<stop offset="0.14" stop-color="white" stop-opacity="0.34"/>
<stop offset="0.18" stop-color="white" stop-opacity="0.23"/>
<stop offset="0.23" stop-color="white" stop-opacity="0.15"/>
<stop offset="0.28" stop-color="white" stop-opacity="0.08"/>
<stop offset="0.35" stop-color="white" stop-opacity="0.03"/>
<stop offset="0.45" stop-color="white" stop-opacity="0.01"/>
<stop offset="0.71" stop-color="white" stop-opacity="0"/>
</radialGradient>
<radialGradient id="paint1_radial_1658_932" cx="0" cy="0" r="1" gradientUnits="userSpaceOnUse" gradientTransform="translate(36.5357 445.297) scale(36.5357 36.5585)">
<stop stop-color="white"/>
<stop offset="0.01" stop-color="white" stop-opacity="0.96"/>
<stop offset="0.03" stop-color="white" stop-opacity="0.78"/>
<stop offset="0.07" stop-color="white" stop-opacity="0.61"/>
<stop offset="0.1" stop-color="white" stop-opacity="0.47"/>
<stop offset="0.14" stop-color="white" stop-opacity="0.34"/>
<stop offset="0.18" stop-color="white" stop-opacity="0.23"/>
<stop offset="0.23" stop-color="white" stop-opacity="0.15"/>
<stop offset="0.28" stop-color="white" stop-opacity="0.08"/>
<stop offset="0.35" stop-color="white" stop-opacity="0.03"/>
<stop offset="0.45" stop-color="white" stop-opacity="0.01"/>
<stop offset="0.71" stop-color="white" stop-opacity="0"/>
</radialGradient>
<radialGradient id="paint2_radial_1658_932" cx="0" cy="0" r="1" gradientUnits="userSpaceOnUse" gradientTransform="translate(285.485 444.362) scale(19.8006 19.813)">
<stop stop-color="white"/>
<stop offset="0.01" stop-color="white" stop-opacity="0.96"/>
<stop offset="0.03" stop-color="white" stop-opacity="0.78"/>
<stop offset="0.07" stop-color="white" stop-opacity="0.61"/>
<stop offset="0.1" stop-color="white" stop-opacity="0.47"/>
<stop offset="0.14" stop-color="white" stop-opacity="0.34"/>
<stop offset="0.18" stop-color="white" stop-opacity="0.23"/>
<stop offset="0.23" stop-color="white" stop-opacity="0.15"/>
<stop offset="0.28" stop-color="white" stop-opacity="0.08"/>
<stop offset="0.35" stop-color="white" stop-opacity="0.03"/>
<stop offset="0.45" stop-color="white" stop-opacity="0.01"/>
<stop offset="0.71" stop-color="white" stop-opacity="0"/>
</radialGradient>
<radialGradient id="paint3_radial_1658_932" cx="0" cy="0" r="1" gradientUnits="userSpaceOnUse" gradientTransform="translate(581.003 458.988) scale(13.4744 13.4828)">
<stop stop-color="white"/>
<stop offset="0.01" stop-color="white" stop-opacity="0.96"/>
<stop offset="0.03" stop-color="white" stop-opacity="0.78"/>
<stop offset="0.07" stop-color="white" stop-opacity="0.61"/>
<stop offset="0.1" stop-color="white" stop-opacity="0.47"/>
<stop offset="0.14" stop-color="white" stop-opacity="0.34"/>
<stop offset="0.18" stop-color="white" stop-opacity="0.23"/>
<stop offset="0.23" stop-color="white" stop-opacity="0.15"/>
<stop offset="0.28" stop-color="white" stop-opacity="0.08"/>
<stop offset="0.35" stop-color="white" stop-opacity="0.03"/>
<stop offset="0.45" stop-color="white" stop-opacity="0.01"/>
<stop offset="0.71" stop-color="white" stop-opacity="0"/>
</radialGradient>
<radialGradient id="paint4_radial_1658_932" cx="0" cy="0" r="1" gradientUnits="userSpaceOnUse" gradientTransform="translate(536.999 446.496) scale(19.8006 19.8129)">
<stop stop-color="white"/>
<stop offset="0.01" stop-color="white" stop-opacity="0.96"/>
<stop offset="0.03" stop-color="white" stop-opacity="0.78"/>
<stop offset="0.07" stop-color="white" stop-opacity="0.61"/>
<stop offset="0.1" stop-color="white" stop-opacity="0.47"/>
<stop offset="0.14" stop-color="white" stop-opacity="0.34"/>
<stop offset="0.18" stop-color="white" stop-opacity="0.23"/>
<stop offset="0.23" stop-color="white" stop-opacity="0.15"/>
<stop offset="0.28" stop-color="white" stop-opacity="0.08"/>
<stop offset="0.35" stop-color="white" stop-opacity="0.03"/>
<stop offset="0.45" stop-color="white" stop-opacity="0.01"/>
<stop offset="0.71" stop-color="white" stop-opacity="0"/>
</radialGradient>
<radialGradient id="paint5_radial_1658_932" cx="0" cy="0" r="1" gradientUnits="userSpaceOnUse" gradientTransform="translate(556.131 430.112) scale(11.8441 11.8515)">
<stop stop-color="white"/>
<stop offset="0.01" stop-color="white" stop-opacity="0.96"/>
<stop offset="0.03" stop-color="white" stop-opacity="0.78"/>
<stop offset="0.07" stop-color="white" stop-opacity="0.61"/>
<stop offset="0.1" stop-color="white" stop-opacity="0.47"/>
<stop offset="0.14" stop-color="white" stop-opacity="0.34"/>
<stop offset="0.18" stop-color="white" stop-opacity="0.23"/>
<stop offset="0.23" stop-color="white" stop-opacity="0.15"/>
<stop offset="0.28" stop-color="white" stop-opacity="0.08"/>
<stop offset="0.35" stop-color="white" stop-opacity="0.03"/>
<stop offset="0.45" stop-color="white" stop-opacity="0.01"/>
<stop offset="0.71" stop-color="white" stop-opacity="0"/>
</radialGradient>
<radialGradient id="paint6_radial_1658_932" cx="0" cy="0" r="1" gradientUnits="userSpaceOnUse" gradientTransform="translate(487.56 468.525) scale(11.8441 11.8515)">
<stop stop-color="white"/>
<stop offset="0.01" stop-color="white" stop-opacity="0.96"/>
<stop offset="0.03" stop-color="white" stop-opacity="0.78"/>
<stop offset="0.07" stop-color="white" stop-opacity="0.61"/>
<stop offset="0.1" stop-color="white" stop-opacity="0.47"/>
<stop offset="0.14" stop-color="white" stop-opacity="0.34"/>
<stop offset="0.18" stop-color="white" stop-opacity="0.23"/>
<stop offset="0.23" stop-color="white" stop-opacity="0.15"/>
<stop offset="0.28" stop-color="white" stop-opacity="0.08"/>
<stop offset="0.35" stop-color="white" stop-opacity="0.03"/>
<stop offset="0.45" stop-color="white" stop-opacity="0.01"/>
<stop offset="0.71" stop-color="white" stop-opacity="0"/>
</radialGradient>
<radialGradient id="paint7_radial_1658_932" cx="0" cy="0" r="1" gradientUnits="userSpaceOnUse" gradientTransform="translate(221.109 372.723) scale(19.8006 19.813)">
<stop stop-color="white"/>
<stop offset="0.01" stop-color="white" stop-opacity="0.96"/>
<stop offset="0.03" stop-color="white" stop-opacity="0.78"/>
<stop offset="0.07" stop-color="white" stop-opacity="0.61"/>
<stop offset="0.1" stop-color="white" stop-opacity="0.47"/>
<stop offset="0.14" stop-color="white" stop-opacity="0.34"/>
<stop offset="0.18" stop-color="white" stop-opacity="0.23"/>
<stop offset="0.23" stop-color="white" stop-opacity="0.15"/>
<stop offset="0.28" stop-color="white" stop-opacity="0.08"/>
<stop offset="0.35" stop-color="white" stop-opacity="0.03"/>
<stop offset="0.45" stop-color="white" stop-opacity="0.01"/>
<stop offset="0.71" stop-color="white" stop-opacity="0"/>
</radialGradient>
<radialGradient id="paint8_radial_1658_932" cx="0" cy="0" r="1" gradientUnits="userSpaceOnUse" gradientTransform="translate(647.233 357.4) scale(19.8006 19.813)">
<stop stop-color="white"/>
<stop offset="0.01" stop-color="white" stop-opacity="0.96"/>
<stop offset="0.03" stop-color="white" stop-opacity="0.78"/>
<stop offset="0.07" stop-color="white" stop-opacity="0.61"/>
<stop offset="0.1" stop-color="white" stop-opacity="0.47"/>
<stop offset="0.14" stop-color="white" stop-opacity="0.34"/>
<stop offset="0.18" stop-color="white" stop-opacity="0.23"/>
<stop offset="0.23" stop-color="white" stop-opacity="0.15"/>
<stop offset="0.28" stop-color="white" stop-opacity="0.08"/>
<stop offset="0.35" stop-color="white" stop-opacity="0.03"/>
<stop offset="0.45" stop-color="white" stop-opacity="0.01"/>
<stop offset="0.71" stop-color="white" stop-opacity="0"/>
</radialGradient>
<radialGradient id="paint9_radial_1658_932" cx="0" cy="0" r="1" gradientUnits="userSpaceOnUse" gradientTransform="translate(775.971 357.916) scale(13.0007 13.0088)">
<stop stop-color="white"/>
<stop offset="0.01" stop-color="white" stop-opacity="0.96"/>
<stop offset="0.03" stop-color="white" stop-opacity="0.78"/>
<stop offset="0.07" stop-color="white" stop-opacity="0.61"/>
<stop offset="0.1" stop-color="white" stop-opacity="0.47"/>
<stop offset="0.14" stop-color="white" stop-opacity="0.34"/>
<stop offset="0.18" stop-color="white" stop-opacity="0.23"/>
<stop offset="0.23" stop-color="white" stop-opacity="0.15"/>
<stop offset="0.28" stop-color="white" stop-opacity="0.08"/>
<stop offset="0.35" stop-color="white" stop-opacity="0.03"/>
<stop offset="0.45" stop-color="white" stop-opacity="0.01"/>
<stop offset="0.71" stop-color="white" stop-opacity="0"/>
</radialGradient>
<radialGradient id="paint10_radial_1658_932" cx="0" cy="0" r="1" gradientUnits="userSpaceOnUse" gradientTransform="translate(202.158 290.432) scale(13.0007 13.0088)">
<stop stop-color="white"/>
<stop offset="0.01" stop-color="white" stop-opacity="0.96"/>
<stop offset="0.03" stop-color="white" stop-opacity="0.78"/>
<stop offset="0.07" stop-color="white" stop-opacity="0.61"/>
<stop offset="0.1" stop-color="white" stop-opacity="0.47"/>
<stop offset="0.14" stop-color="white" stop-opacity="0.34"/>
<stop offset="0.18" stop-color="white" stop-opacity="0.23"/>
<stop offset="0.23" stop-color="white" stop-opacity="0.15"/>
<stop offset="0.28" stop-color="white" stop-opacity="0.08"/>
<stop offset="0.35" stop-color="white" stop-opacity="0.03"/>
<stop offset="0.45" stop-color="white" stop-opacity="0.01"/>
<stop offset="0.71" stop-color="white" stop-opacity="0"/>
</radialGradient>
<radialGradient id="paint11_radial_1658_932" cx="0" cy="0" r="1" gradientUnits="userSpaceOnUse" gradientTransform="translate(209.098 216.479) scale(13.0007 13.0088)">
<stop stop-color="white"/>
<stop offset="0.01" stop-color="white" stop-opacity="0.96"/>
<stop offset="0.03" stop-color="white" stop-opacity="0.78"/>
<stop offset="0.07" stop-color="white" stop-opacity="0.61"/>
<stop offset="0.1" stop-color="white" stop-opacity="0.47"/>
<stop offset="0.14" stop-color="white" stop-opacity="0.34"/>
<stop offset="0.18" stop-color="white" stop-opacity="0.23"/>
<stop offset="0.23" stop-color="white" stop-opacity="0.15"/>
<stop offset="0.28" stop-color="white" stop-opacity="0.08"/>
<stop offset="0.35" stop-color="white" stop-opacity="0.03"/>
<stop offset="0.45" stop-color="white" stop-opacity="0.01"/>
<stop offset="0.71" stop-color="white" stop-opacity="0"/>
</radialGradient>
<radialGradient id="paint12_radial_1658_932" cx="0" cy="0" r="1" gradientUnits="userSpaceOnUse" gradientTransform="translate(722.102 435.996) scale(13.0007 13.0088)">
<stop stop-color="white"/>
<stop offset="0.01" stop-color="white" stop-opacity="0.96"/>
<stop offset="0.03" stop-color="white" stop-opacity="0.78"/>
<stop offset="0.07" stop-color="white" stop-opacity="0.61"/>
<stop offset="0.1" stop-color="white" stop-opacity="0.47"/>
<stop offset="0.14" stop-color="white" stop-opacity="0.34"/>
<stop offset="0.18" stop-color="white" stop-opacity="0.23"/>
<stop offset="0.23" stop-color="white" stop-opacity="0.15"/>
<stop offset="0.28" stop-color="white" stop-opacity="0.08"/>
<stop offset="0.35" stop-color="white" stop-opacity="0.03"/>
<stop offset="0.45" stop-color="white" stop-opacity="0.01"/>
<stop offset="0.71" stop-color="white" stop-opacity="0"/>
</radialGradient>
<radialGradient id="paint13_radial_1658_932" cx="0" cy="0" r="1" gradientUnits="userSpaceOnUse" gradientTransform="translate(758.331 284.478) scale(13.0007 13.0088)">
<stop stop-color="white"/>
<stop offset="0.01" stop-color="white" stop-opacity="0.96"/>
<stop offset="0.03" stop-color="white" stop-opacity="0.78"/>
<stop offset="0.07" stop-color="white" stop-opacity="0.61"/>
<stop offset="0.1" stop-color="white" stop-opacity="0.47"/>
<stop offset="0.14" stop-color="white" stop-opacity="0.34"/>
<stop offset="0.18" stop-color="white" stop-opacity="0.23"/>
<stop offset="0.23" stop-color="white" stop-opacity="0.15"/>
<stop offset="0.28" stop-color="white" stop-opacity="0.08"/>
<stop offset="0.35" stop-color="white" stop-opacity="0.03"/>
<stop offset="0.45" stop-color="white" stop-opacity="0.01"/>
<stop offset="0.71" stop-color="white" stop-opacity="0"/>
</radialGradient>
<radialGradient id="paint14_radial_1658_932" cx="0" cy="0" r="1" gradientUnits="userSpaceOnUse" gradientTransform="translate(671.269 231.858) scale(13.0006 13.0088)">
<stop stop-color="white"/>
<stop offset="0.01" stop-color="white" stop-opacity="0.96"/>
<stop offset="0.03" stop-color="white" stop-opacity="0.78"/>
<stop offset="0.07" stop-color="white" stop-opacity="0.61"/>
<stop offset="0.1" stop-color="white" stop-opacity="0.47"/>
<stop offset="0.14" stop-color="white" stop-opacity="0.34"/>
<stop offset="0.18" stop-color="white" stop-opacity="0.23"/>
<stop offset="0.23" stop-color="white" stop-opacity="0.15"/>
<stop offset="0.28" stop-color="white" stop-opacity="0.08"/>
<stop offset="0.35" stop-color="white" stop-opacity="0.03"/>
<stop offset="0.45" stop-color="white" stop-opacity="0.01"/>
<stop offset="0.71" stop-color="white" stop-opacity="0"/>
</radialGradient>
<radialGradient id="paint15_radial_1658_932" cx="0" cy="0" r="1" gradientUnits="userSpaceOnUse" gradientTransform="translate(241.857 314.623) scale(7.07861 7.08302)">
<stop stop-color="white"/>
<stop offset="0.01" stop-color="white" stop-opacity="0.96"/>
<stop offset="0.03" stop-color="white" stop-opacity="0.78"/>
<stop offset="0.07" stop-color="white" stop-opacity="0.61"/>
<stop offset="0.1" stop-color="white" stop-opacity="0.47"/>
<stop offset="0.14" stop-color="white" stop-opacity="0.34"/>
<stop offset="0.18" stop-color="white" stop-opacity="0.23"/>
<stop offset="0.23" stop-color="white" stop-opacity="0.15"/>
<stop offset="0.28" stop-color="white" stop-opacity="0.08"/>
<stop offset="0.35" stop-color="white" stop-opacity="0.03"/>
<stop offset="0.45" stop-color="white" stop-opacity="0.01"/>
<stop offset="0.71" stop-color="white" stop-opacity="0"/>
</radialGradient>
<radialGradient id="paint16_radial_1658_932" cx="0" cy="0" r="1" gradientUnits="userSpaceOnUse" gradientTransform="translate(155.172 333.572) scale(7.07861 7.08302)">
<stop stop-color="white"/>
<stop offset="0.01" stop-color="white" stop-opacity="0.96"/>
<stop offset="0.03" stop-color="white" stop-opacity="0.78"/>
<stop offset="0.07" stop-color="white" stop-opacity="0.61"/>
<stop offset="0.1" stop-color="white" stop-opacity="0.47"/>
<stop offset="0.14" stop-color="white" stop-opacity="0.34"/>
<stop offset="0.18" stop-color="white" stop-opacity="0.23"/>
<stop offset="0.23" stop-color="white" stop-opacity="0.15"/>
<stop offset="0.28" stop-color="white" stop-opacity="0.08"/>
<stop offset="0.35" stop-color="white" stop-opacity="0.03"/>
<stop offset="0.45" stop-color="white" stop-opacity="0.01"/>
<stop offset="0.71" stop-color="white" stop-opacity="0"/>
</radialGradient>
<radialGradient id="paint17_radial_1658_932" cx="0" cy="0" r="1" gradientUnits="userSpaceOnUse" gradientTransform="translate(229.177 32.543) scale(7.07861 7.08302)">
<stop stop-color="white"/>
<stop offset="0.01" stop-color="white" stop-opacity="0.96"/>
<stop offset="0.03" stop-color="white" stop-opacity="0.78"/>
<stop offset="0.07" stop-color="white" stop-opacity="0.61"/>
<stop offset="0.1" stop-color="white" stop-opacity="0.47"/>
<stop offset="0.14" stop-color="white" stop-opacity="0.34"/>
<stop offset="0.18" stop-color="white" stop-opacity="0.23"/>
<stop offset="0.23" stop-color="white" stop-opacity="0.15"/>
<stop offset="0.28" stop-color="white" stop-opacity="0.08"/>
<stop offset="0.35" stop-color="white" stop-opacity="0.03"/>
<stop offset="0.45" stop-color="white" stop-opacity="0.01"/>
<stop offset="0.71" stop-color="white" stop-opacity="0"/>
</radialGradient>
<radialGradient id="paint18_radial_1658_932" cx="0" cy="0" r="1" gradientUnits="userSpaceOnUse" gradientTransform="translate(610.363 124.399) scale(7.07861 7.08302)">
<stop stop-color="white"/>
<stop offset="0.01" stop-color="white" stop-opacity="0.96"/>
<stop offset="0.03" stop-color="white" stop-opacity="0.78"/>
<stop offset="0.07" stop-color="white" stop-opacity="0.61"/>
<stop offset="0.1" stop-color="white" stop-opacity="0.47"/>
<stop offset="0.14" stop-color="white" stop-opacity="0.34"/>
<stop offset="0.18" stop-color="white" stop-opacity="0.23"/>
<stop offset="0.23" stop-color="white" stop-opacity="0.15"/>
<stop offset="0.28" stop-color="white" stop-opacity="0.08"/>
<stop offset="0.35" stop-color="white" stop-opacity="0.03"/>
<stop offset="0.45" stop-color="white" stop-opacity="0.01"/>
<stop offset="0.71" stop-color="white" stop-opacity="0"/>
</radialGradient>
<radialGradient id="paint19_radial_1658_932" cx="0" cy="0" r="1" gradientUnits="userSpaceOnUse" gradientTransform="translate(665.208 138.551) scale(7.0786 7.08303)">
<stop stop-color="white"/>
<stop offset="0.01" stop-color="white" stop-opacity="0.96"/>
<stop offset="0.03" stop-color="white" stop-opacity="0.78"/>
<stop offset="0.07" stop-color="white" stop-opacity="0.61"/>
<stop offset="0.1" stop-color="white" stop-opacity="0.47"/>
<stop offset="0.14" stop-color="white" stop-opacity="0.34"/>
<stop offset="0.18" stop-color="white" stop-opacity="0.23"/>
<stop offset="0.23" stop-color="white" stop-opacity="0.15"/>
<stop offset="0.28" stop-color="white" stop-opacity="0.08"/>
<stop offset="0.35" stop-color="white" stop-opacity="0.03"/>
<stop offset="0.45" stop-color="white" stop-opacity="0.01"/>
<stop offset="0.71" stop-color="white" stop-opacity="0"/>
</radialGradient>
<radialGradient id="paint20_radial_1658_932" cx="0" cy="0" r="1" gradientUnits="userSpaceOnUse" gradientTransform="translate(189.158 128.568) scale(7.07861 7.08302)">
<stop stop-color="white"/>
<stop offset="0.01" stop-color="white" stop-opacity="0.96"/>
<stop offset="0.03" stop-color="white" stop-opacity="0.78"/>
<stop offset="0.07" stop-color="white" stop-opacity="0.61"/>
<stop offset="0.1" stop-color="white" stop-opacity="0.47"/>
<stop offset="0.14" stop-color="white" stop-opacity="0.34"/>
<stop offset="0.18" stop-color="white" stop-opacity="0.23"/>
<stop offset="0.23" stop-color="white" stop-opacity="0.15"/>
<stop offset="0.28" stop-color="white" stop-opacity="0.08"/>
<stop offset="0.35" stop-color="white" stop-opacity="0.03"/>
<stop offset="0.45" stop-color="white" stop-opacity="0.01"/>
<stop offset="0.71" stop-color="white" stop-opacity="0"/>
</radialGradient>
<radialGradient id="paint21_radial_1658_932" cx="0" cy="0" r="1" gradientUnits="userSpaceOnUse" gradientTransform="translate(581.003 57.0825) scale(7.07861 7.08302)">
<stop stop-color="white"/>
<stop offset="0.01" stop-color="white" stop-opacity="0.96"/>
<stop offset="0.03" stop-color="white" stop-opacity="0.78"/>
<stop offset="0.07" stop-color="white" stop-opacity="0.61"/>
<stop offset="0.1" stop-color="white" stop-opacity="0.47"/>
<stop offset="0.14" stop-color="white" stop-opacity="0.34"/>
<stop offset="0.18" stop-color="white" stop-opacity="0.23"/>
<stop offset="0.23" stop-color="white" stop-opacity="0.15"/>
<stop offset="0.28" stop-color="white" stop-opacity="0.08"/>
<stop offset="0.35" stop-color="white" stop-opacity="0.03"/>
<stop offset="0.45" stop-color="white" stop-opacity="0.01"/>
<stop offset="0.71" stop-color="white" stop-opacity="0"/>
</radialGradient>
<radialGradient id="paint22_radial_1658_932" cx="0" cy="0" r="1" gradientUnits="userSpaceOnUse" gradientTransform="translate(248.922 124.399) scale(7.07861 7.08302)">
<stop stop-color="white"/>
<stop offset="0.01" stop-color="white" stop-opacity="0.96"/>
<stop offset="0.03" stop-color="white" stop-opacity="0.78"/>
<stop offset="0.07" stop-color="white" stop-opacity="0.61"/>
<stop offset="0.1" stop-color="white" stop-opacity="0.47"/>
<stop offset="0.14" stop-color="white" stop-opacity="0.34"/>
<stop offset="0.18" stop-color="white" stop-opacity="0.23"/>
<stop offset="0.23" stop-color="white" stop-opacity="0.15"/>
<stop offset="0.28" stop-color="white" stop-opacity="0.08"/>
<stop offset="0.35" stop-color="white" stop-opacity="0.03"/>
<stop offset="0.45" stop-color="white" stop-opacity="0.01"/>
<stop offset="0.71" stop-color="white" stop-opacity="0"/>
</radialGradient>
<radialGradient id="paint23_radial_1658_932" cx="0" cy="0" r="1" gradientUnits="userSpaceOnUse" gradientTransform="translate(134.076 416.476) scale(19.8006 19.813)">
<stop stop-color="white"/>
<stop offset="0.01" stop-color="white" stop-opacity="0.96"/>
<stop offset="0.03" stop-color="white" stop-opacity="0.78"/>
<stop offset="0.07" stop-color="white" stop-opacity="0.61"/>
<stop offset="0.1" stop-color="white" stop-opacity="0.47"/>
<stop offset="0.14" stop-color="white" stop-opacity="0.34"/>
<stop offset="0.18" stop-color="white" stop-opacity="0.23"/>
<stop offset="0.23" stop-color="white" stop-opacity="0.15"/>
<stop offset="0.28" stop-color="white" stop-opacity="0.08"/>
<stop offset="0.35" stop-color="white" stop-opacity="0.03"/>
<stop offset="0.45" stop-color="white" stop-opacity="0.01"/>
<stop offset="0.71" stop-color="white" stop-opacity="0"/>
</radialGradient>
<radialGradient id="paint24_radial_1658_932" cx="0" cy="0" r="1" gradientUnits="userSpaceOnUse" gradientTransform="translate(115.487 169.226) scale(19.8006 19.8129)">
<stop stop-color="white"/>
<stop offset="0.01" stop-color="white" stop-opacity="0.96"/>
<stop offset="0.03" stop-color="white" stop-opacity="0.78"/>
<stop offset="0.07" stop-color="white" stop-opacity="0.61"/>
<stop offset="0.1" stop-color="white" stop-opacity="0.47"/>
<stop offset="0.14" stop-color="white" stop-opacity="0.34"/>
<stop offset="0.18" stop-color="white" stop-opacity="0.23"/>
<stop offset="0.23" stop-color="white" stop-opacity="0.15"/>
<stop offset="0.28" stop-color="white" stop-opacity="0.08"/>
<stop offset="0.35" stop-color="white" stop-opacity="0.03"/>
<stop offset="0.45" stop-color="white" stop-opacity="0.01"/>
<stop offset="0.71" stop-color="white" stop-opacity="0"/>
</radialGradient>
<radialGradient id="paint25_radial_1658_932" cx="0" cy="0" r="1" gradientUnits="userSpaceOnUse" gradientTransform="translate(605.541 249.3) scale(19.8006 19.8129)">
<stop stop-color="white"/>
<stop offset="0.01" stop-color="white" stop-opacity="0.96"/>
<stop offset="0.03" stop-color="white" stop-opacity="0.78"/>
<stop offset="0.07" stop-color="white" stop-opacity="0.61"/>
<stop offset="0.1" stop-color="white" stop-opacity="0.47"/>
<stop offset="0.14" stop-color="white" stop-opacity="0.34"/>
<stop offset="0.18" stop-color="white" stop-opacity="0.23"/>
<stop offset="0.23" stop-color="white" stop-opacity="0.15"/>
<stop offset="0.28" stop-color="white" stop-opacity="0.08"/>
<stop offset="0.35" stop-color="white" stop-opacity="0.03"/>
<stop offset="0.45" stop-color="white" stop-opacity="0.01"/>
<stop offset="0.71" stop-color="white" stop-opacity="0"/>
</radialGradient>
<radialGradient id="paint26_radial_1658_932" cx="0" cy="0" r="1" gradientUnits="userSpaceOnUse" gradientTransform="translate(251.82 244.88) scale(19.8006 19.8129)">
<stop stop-color="white"/>
<stop offset="0.01" stop-color="white" stop-opacity="0.96"/>
<stop offset="0.03" stop-color="white" stop-opacity="0.78"/>
<stop offset="0.07" stop-color="white" stop-opacity="0.61"/>
<stop offset="0.1" stop-color="white" stop-opacity="0.47"/>
<stop offset="0.14" stop-color="white" stop-opacity="0.34"/>
<stop offset="0.18" stop-color="white" stop-opacity="0.23"/>
<stop offset="0.23" stop-color="white" stop-opacity="0.15"/>
<stop offset="0.28" stop-color="white" stop-opacity="0.08"/>
<stop offset="0.35" stop-color="white" stop-opacity="0.03"/>
<stop offset="0.45" stop-color="white" stop-opacity="0.01"/>
<stop offset="0.71" stop-color="white" stop-opacity="0"/>
</radialGradient>
<radialGradient id="paint27_radial_1658_932" cx="0" cy="0" r="1" gradientUnits="userSpaceOnUse" gradientTransform="translate(403.258 19.8131) scale(19.8006 19.8129)">
<stop stop-color="white"/>
<stop offset="0.01" stop-color="white" stop-opacity="0.96"/>
<stop offset="0.03" stop-color="white" stop-opacity="0.78"/>
<stop offset="0.07" stop-color="white" stop-opacity="0.61"/>
<stop offset="0.1" stop-color="white" stop-opacity="0.47"/>
<stop offset="0.14" stop-color="white" stop-opacity="0.34"/>
<stop offset="0.18" stop-color="white" stop-opacity="0.23"/>
<stop offset="0.23" stop-color="white" stop-opacity="0.15"/>
<stop offset="0.28" stop-color="white" stop-opacity="0.08"/>
<stop offset="0.35" stop-color="white" stop-opacity="0.03"/>
<stop offset="0.45" stop-color="white" stop-opacity="0.01"/>
<stop offset="0.71" stop-color="white" stop-opacity="0"/>
</radialGradient>
<radialGradient id="paint28_radial_1658_932" cx="0" cy="0" r="1" gradientUnits="userSpaceOnUse" gradientTransform="translate(72.7647 271.47) scale(19.8006 19.8129)">
<stop stop-color="white"/>
<stop offset="0.01" stop-color="white" stop-opacity="0.96"/>
<stop offset="0.03" stop-color="white" stop-opacity="0.78"/>
<stop offset="0.07" stop-color="white" stop-opacity="0.61"/>
<stop offset="0.1" stop-color="white" stop-opacity="0.47"/>
<stop offset="0.14" stop-color="white" stop-opacity="0.34"/>
<stop offset="0.18" stop-color="white" stop-opacity="0.23"/>
<stop offset="0.23" stop-color="white" stop-opacity="0.15"/>
<stop offset="0.28" stop-color="white" stop-opacity="0.08"/>
<stop offset="0.35" stop-color="white" stop-opacity="0.03"/>
<stop offset="0.45" stop-color="white" stop-opacity="0.01"/>
<stop offset="0.71" stop-color="white" stop-opacity="0"/>
</radialGradient>
<radialGradient id="paint29_radial_1658_932" cx="0" cy="0" r="1" gradientUnits="userSpaceOnUse" gradientTransform="translate(647.079 64.1518) scale(19.8006 19.8129)">
<stop stop-color="white"/>
<stop offset="0.01" stop-color="white" stop-opacity="0.96"/>
<stop offset="0.03" stop-color="white" stop-opacity="0.78"/>
<stop offset="0.07" stop-color="white" stop-opacity="0.61"/>
<stop offset="0.1" stop-color="white" stop-opacity="0.47"/>
<stop offset="0.14" stop-color="white" stop-opacity="0.34"/>
<stop offset="0.18" stop-color="white" stop-opacity="0.23"/>
<stop offset="0.23" stop-color="white" stop-opacity="0.15"/>
<stop offset="0.28" stop-color="white" stop-opacity="0.08"/>
<stop offset="0.35" stop-color="white" stop-opacity="0.03"/>
<stop offset="0.45" stop-color="white" stop-opacity="0.01"/>
<stop offset="0.71" stop-color="white" stop-opacity="0"/>
</radialGradient>
<radialGradient id="paint30_radial_1658_932" cx="0" cy="0" r="1" gradientUnits="userSpaceOnUse" gradientTransform="translate(751.823 475.971) scale(19.8006 19.8129)">
<stop stop-color="white"/>
<stop offset="0.01" stop-color="white" stop-opacity="0.96"/>
<stop offset="0.03" stop-color="white" stop-opacity="0.78"/>
<stop offset="0.07" stop-color="white" stop-opacity="0.61"/>
<stop offset="0.1" stop-color="white" stop-opacity="0.47"/>
<stop offset="0.14" stop-color="white" stop-opacity="0.34"/>
<stop offset="0.18" stop-color="white" stop-opacity="0.23"/>
<stop offset="0.23" stop-color="white" stop-opacity="0.15"/>
<stop offset="0.28" stop-color="white" stop-opacity="0.08"/>
<stop offset="0.35" stop-color="white" stop-opacity="0.03"/>
<stop offset="0.45" stop-color="white" stop-opacity="0.01"/>
<stop offset="0.71" stop-color="white" stop-opacity="0"/>
</radialGradient>
</defs>
</svg>
