<svg width="219" height="73" viewBox="0 0 219 73" fill="none" xmlns="http://www.w3.org/2000/svg">
<path d="M77.3567 16C59.4731 55.0818 46.1257 72.75 0 72.75H218.136C172.491 72.75 154.643 53.6463 137.416 16C127.807 -4.99998 86.9663 -5.00004 77.3567 16Z" fill="#171717"/>
<mask id="mask0_1022_376" style="mask-type:alpha" maskUnits="userSpaceOnUse" x="97" y="18" width="24" height="24">
<rect x="97" y="18" width="23.0629" height="24" fill="#D9D9D9"/>
</mask>
<g mask="url(#mask0_1022_376)">
<path d="M108.532 40C106.674 40 105.088 39.3167 103.775 37.95C102.462 36.5833 101.805 34.9333 101.805 33V27C101.805 25.0667 102.462 23.4167 103.775 22.05C105.088 20.6833 106.674 20 108.532 20C110.389 20 111.975 20.6833 113.288 22.05C114.602 23.4167 115.258 25.0667 115.258 27V33C115.258 34.9333 114.602 36.5833 113.288 37.95C111.975 39.3167 110.389 40 108.532 40ZM109.493 27H113.336C113.336 25.8 112.972 24.7417 112.243 23.825C111.515 22.9083 110.598 22.3333 109.493 22.1V27ZM103.727 27H107.571V22.1C106.466 22.3333 105.549 22.9083 104.82 23.825C104.091 24.7417 103.727 25.8 103.727 27ZM108.532 38C109.861 38 110.994 37.5125 111.931 36.5375C112.868 35.5625 113.336 34.3833 113.336 33V29H103.727V33C103.727 34.3833 104.195 35.5625 105.132 36.5375C106.069 37.5125 107.202 38 108.532 38Z" fill="white"/>
</g>
</svg>
