<?xml version="1.0" encoding="UTF-8"?>
<!DOCTYPE svg PUBLIC "-//W3C//DTD SVG 1.1//EN" "http://www.w3.org/Graphics/SVG/1.1/DTD/svg11.dtd">
<!-- Creator: CorelDRAW 2020 (64-Bit) -->
<?xml-stylesheet href="newAzteca1.css" type="text/css"?>
<svg xmlns="http://www.w3.org/2000/svg" xml:space="preserve" width="210mm" height="297mm" version="1.1" style="shape-rendering:geometricPrecision; text-rendering:geometricPrecision; image-rendering:optimizeQuality; fill-rule:evenodd; clip-rule:evenodd"
viewBox="0 0 21000 29700"
 xmlns:xlink="http://www.w3.org/1999/xlink"
 xmlns:xodm="http://www.corel.com/coreldraw/odm/2003">
 <g id="Capa_x0020_1">
  <metadata id="CorelCorpID_0Corel-Layer"/>
  <path class="fil0" d="M3767.96 13173.55l143.6 1158.33c-479.72,-103.56 -2174.02,-725.22 -2493.25,-688.51 -280.96,32.3 -484.61,272.47 -517.91,554.81 -104.17,883.28 445.69,840.43 1175.84,920 249.7,27.21 1830.08,155.8 1928.17,222.2 62.66,88.84 126.35,844.21 142.47,1024.58 -574.8,-35.24 -1196.44,-127.82 -1777.36,-189.14 -465,-49.09 -1273.05,-274.43 -1355.87,480.08 -35.19,320.59 114.58,554.43 334.53,650.34 272.99,119.03 1954.95,51.83 2423.68,52.39 163.94,0.19 393.36,-31.29 493.88,23.37l128.45 1086.07c-596.23,-26.05 -1276.38,-123.32 -1869.26,-191.9 -241.73,-27.96 -701.55,-113.17 -910.88,-19.19 -247.05,110.91 -355.16,318.26 -375.19,651.74 -47.13,784.78 652.7,719.79 1322.38,660.01l1945.04 -99.26c57.27,254.09 71.73,554.34 104.49,822.52 189.68,1553 25.56,1533.74 1049.49,1778.26 2767.33,660.84 5574.44,1393.58 8329.29,2043.02 292.63,68.99 498.52,129.35 746.13,-39.63 410.42,-280.11 145.59,-983.27 59.28,-1479.02l-877.24 -4787.73c-202.03,-1081.19 -394.26,-2113.54 -587.32,-3197.9 -134.35,-754.61 -298.8,-711.98 -1026.15,-842.61 -535.06,-96.1 -1081.96,-193.81 -1620.61,-288.17l-94.78 -2035.47c-15,-564.14 82.27,-1458.89 -651.52,-1450.87 -290.23,3.17 -533.64,214.58 -573.57,477.6 -40.25,265.22 295.38,2350.26 338.89,2831.4l-1107.73 -193.86c-44.97,-296.89 -28.05,-705.19 -50.24,-1009.63 -24.83,-340.78 -62.17,-1862.74 -122.44,-2023.02 -208.41,-554.22 -1146.81,-551.33 -1260.84,74.04 -38.15,209.22 392.6,2376.76 450.26,2781.36l-1030.43 -182.25c-39.92,-307.7 -29.1,-675.8 -49.57,-985.58 -22.92,-347.04 -53.02,-1774.19 -113.71,-1962.65 -177.35,-550.81 -1031.06,-559.89 -1168.21,50.11 -67.21,298.93 346.15,2344.32 343.76,2725.96l-948.27 -163.72 -69.65 -32.52 -1356.16 -1465.01c26.78,-192.36 377.84,-690.73 139.93,-1521.41 -374.31,-1306.98 -2073.17,-2061.13 -3377.25,-865.31 -259.54,237.99 -532.46,719.77 -575.86,1221.63 -87.45,1011.13 511.96,1887.51 1471.89,2153.8 832.05,230.81 1242.02,-102.23 1517.7,-160.54 196.13,135.34 1232.61,1344.93 1359.57,1402.7l12.55 28.58zm-457.7 8122.21l-1205.82 336.03c-316.12,133.67 -617.45,479.05 -631.01,925.55 -17.62,579.88 452.09,940.15 887.83,1410.61 107.63,116.2 254.99,274.72 432.24,361.46 411.4,201.31 899.54,97.09 1163.68,-158.1 338.97,-327.48 332.14,-566.98 434.84,-1122.84 87.09,-471.37 195.36,-843.27 -40.91,-1256.85 -156.65,-274.21 -563.58,-572.06 -1040.85,-495.86zm-856.8 1261.62c-9.21,165.66 413.68,500.86 597.09,721.17 61.43,73.78 117.98,196.31 267.5,172.32 39.47,-106.1 237.75,-1084.43 201.38,-1147.1 -65.85,-113.47 -1022.25,219.41 -1065.97,253.61zm11710.67 -12160.48c-436.5,98.36 -659.61,350.23 -803.54,737.91 -92.63,249.52 -352.9,918.03 -359.3,1181.56 -11.2,461.59 287.41,810.08 582.34,959.16 390.31,197.27 900.06,69.84 1348.03,12.68 546.83,-69.76 800.82,-137.09 1048.3,-485.97 232.96,-328.43 233.54,-865.12 4.62,-1186.48 -167.3,-234.86 -542.27,-571.28 -743.05,-792.85 -270.66,-298.67 -577.98,-538.54 -1077.4,-426.01zm-173.97 1995.83c115.52,39.83 1036.95,-73.06 1191.7,-119.68 9.78,-152.57 39.51,-66.6 -159.13,-278.36l-412.23 -433.93c-74.94,-87.8 -112.71,-184.26 -253.83,-210.71 -115.3,83 -383.64,920.64 -366.51,1042.68zm1734.74 11684.81c-401.29,93.92 -695.72,374.91 -801.24,737.44 -113.41,389.68 91.89,920.4 195.61,1264.44 134.65,446.66 239.46,723.07 630.54,906.61 473.1,222.04 878.64,67.97 1174.99,-193.61 144.9,-127.9 249.6,-232.15 396.08,-371.29 357.32,-339.42 951.04,-778.85 639,-1511.3 -160.05,-375.68 -414.97,-582.3 -869.23,-663.68 -329.56,-59.05 -1072.51,-237.25 -1365.75,-168.61zm431.19 2023.86c145.58,19.4 328.92,-233.57 490.71,-380.72 80.54,-73.26 147.66,-124.2 226.56,-197.18 128.69,-119.03 182.53,-153.72 187.5,-276.12 -99.25,-54.19 -1044.7,-232.44 -1189.22,-198.65 -20.11,119.41 212,955.36 284.45,1052.67zm-740.32 -11279.74c-1537.01,196.23 -1530.11,208.25 -1295.79,1489.76 313.19,1712.88 596.41,3458.64 915.66,5163.86 82.66,441.56 77.04,911.94 488.81,1051.62 203.94,69.18 1050.41,-118.87 1312.42,-164.72 265.28,-46.43 363.24,-58.16 509.56,-228.05 125.72,-146 181.21,-374.14 84.32,-588.4 -179.97,-398.01 -639.63,-331.43 -1107.01,-426.2 -453.79,-92.02 -457.6,-507.61 -538.67,-971.91 -77.83,-445.69 -152.29,-868.6 -231.04,-1300.57 -78.61,-431.25 -152.99,-860.61 -226.08,-1287.1 -58.42,-340.88 -258.18,-981.71 -86.94,-1263.46 189.76,-312.22 688.55,-335.48 827.92,-704.07 173.72,-459.46 -190.2,-829.87 -653.16,-770.76zm-9191.04 7826.63c-442.7,96.44 -480.09,542.87 -598.91,968.55 -131.67,471.75 -359.58,858.95 13.98,1200.64 151.99,139.03 412.16,183.62 620.15,69.87 184.68,-100.99 251.78,-244.54 379.63,-415.44 264.66,-353.79 350.37,-662.44 991.25,-481.53 811.77,229.15 1645.53,470.18 2448.49,698.33 405.68,115.26 838.59,219.34 1233.83,353.72 516.55,175.63 307.64,689.07 477.7,1114.21 148.87,372.16 712.2,491.21 984.78,165 118.6,-141.94 168,-365.82 227.7,-565.31 258.59,-864.13 472.24,-1106.4 -588.61,-1413.35l-4921.18 -1402.94c-259.85,-74.4 -1054.72,-338.39 -1268.81,-291.75zm1850.43 2432.41c-1162.42,168.06 -1903.24,1127.35 -1778.58,2259.54 109.66,996.01 1081.98,1917.16 2253.62,1758.97 1011.84,-136.62 1899.76,-1049.26 1762.18,-2234.26 -131.44,-1132.1 -1181.27,-1936.93 -2237.22,-1784.25zm617.49 1198.62c-225.67,52.4 -407.78,256.9 -529.89,378.14 -166.36,165.16 -304.12,284.64 -462.76,436.62 -514.57,492.96 -69.7,1044.78 399.97,951.07 215.12,-42.92 389.55,-259.13 517.31,-377.38 172.19,-159.36 587.38,-525.94 654.24,-694.13 46.42,-116.77 44.81,-268.96 -5.5,-386.34 -83,-193.62 -313.79,-368.25 -573.37,-307.98zm9054.52 -10423.42c-976.63,179.88 -1846.75,1109.82 -1637.78,2324.17 170.55,991.11 1122.82,1873.66 2351.73,1657.04 969.27,-170.85 1845.87,-1122.9 1637.91,-2332.13 -169.62,-986.32 -1130.35,-1874.07 -2351.86,-1649.08zm710.97 1190.66c-226.47,72.03 -811.83,661.13 -980.55,825.53 -140.05,136.46 -291.21,350.61 -157.98,638.16 90.64,195.6 279.96,360.81 604.04,288.05 189.42,-42.53 384.09,-274.44 507.17,-395.98 372.4,-367.76 848.35,-628.61 619.09,-1091.52 -91.43,-184.62 -328.16,-348.08 -591.77,-264.24zm-16702.86 -7886.62c-259.21,89.08 -524.85,430.13 -734.57,616.71 -85.5,76.07 -156.31,129.62 -239.67,210.3 -429.14,415.31 -84.98,1085.47 487.95,912.78 182.48,-55 360.76,-288.76 496.38,-404.06 149.22,-126.88 310.31,-294.6 458.95,-441.6 452.07,-447.07 8.94,-1058.38 -469.04,-894.13zm5411 6378.11c-421.93,105.39 -470.96,417.84 -403.77,900.97 125.53,902.61 238.55,2053.09 353.89,3003.24 32.64,268.86 27.56,351.72 184.17,512.75 196.37,201.9 699.61,261.03 1006.46,338.33 379.3,95.54 722.74,179.12 1089.75,267.07 370.26,88.72 713.58,181.26 1082.44,267.1 253.75,59.06 871.78,258.23 1096.16,190.81 376.8,-113.2 462.09,-426.39 376.01,-873.61l-626.67 -3416.08c-88.91,-482.01 -241.37,-551.68 -710.35,-635.81 -613.66,-110.09 -3193.25,-618.43 -3448.09,-554.77z"/>
 </g>
</svg>
