<svg width="97" height="95" viewBox="0 0 97 95" fill="none" xmlns="http://www.w3.org/2000/svg">
<rect width="97" height="95" rx="20" fill="#525252"/>
<path d="M71.3077 32.8301H26.6923C22.9962 32.8301 20 35.8263 20 39.5224V66.2916C20 69.9877 22.9962 72.9839 26.6923 72.9839H71.3077C75.0037 72.9839 78 69.9877 78 66.2916V39.5224C78 35.8263 75.0037 32.8301 71.3077 32.8301Z" stroke="#FFA80F" stroke-opacity="0.980392" stroke-width="1.5" stroke-linejoin="round"/>
<path d="M70.6608 32.8301V28.6474C70.6604 27.6215 70.4337 26.6084 69.9967 25.6802C69.5597 24.7521 68.9233 23.9318 68.1328 23.2779C67.3423 22.6241 66.4173 22.1528 65.4237 21.8976C64.43 21.6424 63.3923 21.6097 62.3846 21.8017L25.6662 28.0688C24.0716 28.3726 22.6331 29.2234 21.5987 30.4744C20.5643 31.7254 19.9989 33.2982 20 34.9214V41.7531" stroke="#FFA80F" stroke-opacity="0.980392" stroke-width="1.5" stroke-linejoin="round"/>
<path d="M64.6154 57.3685C63.7329 57.3685 62.8703 57.1068 62.1366 56.6166C61.403 56.1264 60.8311 55.4296 60.4934 54.6143C60.1557 53.7991 60.0674 52.902 60.2395 52.0366C60.4117 51.1711 60.8366 50.3761 61.4606 49.7522C62.0845 49.1282 62.8795 48.7033 63.7449 48.5312C64.6104 48.359 65.5075 48.4474 66.3227 48.7851C67.1379 49.1227 67.8347 49.6946 68.325 50.4283C68.8152 51.162 69.0769 52.0246 69.0769 52.907C69.0769 54.0902 68.6068 55.2251 67.7701 56.0618C66.9334 56.8985 65.7986 57.3685 64.6154 57.3685Z" fill="#FFA80F" fill-opacity="0.980392"/>
</svg>
