<svg width="97" height="95" viewBox="0 0 97 95" fill="none" xmlns="http://www.w3.org/2000/svg">
<rect width="97" height="95" rx="20" fill="#525252"/>
<line x1="63" y1="51.9" x2="76" y2="51.9" stroke="#FAFAFA" stroke-width="0.2"/>
<line x1="63" y1="53.9" x2="76" y2="53.9" stroke="#FAFAFA" stroke-width="0.2"/>
<line x1="63" y1="55.9" x2="76" y2="55.9" stroke="#FAFAFA" stroke-width="0.2"/>
<rect x="28.5" y="10.5" width="40" height="74" rx="4.5" stroke="#FFA80F" stroke-opacity="0.980392"/>
<rect x="42" y="16" width="14" height="2" rx="1" fill="#FFA80F" fill-opacity="0.980392"/>
<circle cx="36.5" cy="14.5" r="1.5" fill="#FFA80F" fill-opacity="0.980392"/>
<circle cx="36.5" cy="14.5" r="1.5" fill="#FFA80F" fill-opacity="0.980392"/>
<circle cx="36.5" cy="14.5" r="0.5" fill="black"/>
<circle cx="36.5" cy="14.5" r="0.5" fill="black"/>
<rect x="57" y="48" width="22" height="12" rx="2" fill="#525252"/>
<rect x="57.5" y="48.5" width="21" height="11" rx="1.5" stroke="#FFA80F" stroke-opacity="0.980392"/>
<line x1="62" y1="51.9" x2="75" y2="51.9" stroke="#FAFAFA" stroke-width="0.2"/>
<line x1="62" y1="53.9" x2="75" y2="53.9" stroke="#FAFAFA" stroke-width="0.2"/>
<line x1="62" y1="55.9" x2="75" y2="55.9" stroke="#FAFAFA" stroke-width="0.2"/>
<rect x="18" y="35" width="22" height="12" rx="2" fill="#525252"/>
<rect x="18.5" y="35.5" width="21" height="11" rx="1.5" stroke="#FFA80F" stroke-opacity="0.980392"/>
<line x1="23" y1="38.9" x2="36" y2="38.9" stroke="#FAFAFA" stroke-width="0.2"/>
<line x1="23" y1="40.9" x2="36" y2="40.9" stroke="#FAFAFA" stroke-width="0.2"/>
<line x1="23" y1="42.9" x2="36" y2="42.9" stroke="#FAFAFA" stroke-width="0.2"/>
</svg>


