<svg width="798" height="1083" viewBox="0 0 798 1083" fill="none" xmlns="http://www.w3.org/2000/svg">
<path d="M414.829 505.755C408.735 504.078 388.424 492.285 355.077 465.287C326.152 441.863 306.915 422.809 302.485 416.4C303.617 412.794 309.27 400.157 337.552 363.861C354.069 342.678 370.59 323.345 372.724 320.839C373.975 320.747 379.716 320.995 394.769 330.047C406.03 336.817 420.254 347.238 435.913 360.177C460.879 380.803 482.531 401.911 490.451 410.642C485.651 418.896 472.864 437.823 456.855 458.829C432.376 490.937 419.201 503.181 414.829 505.755ZM572.962 446.311C593.801 415.024 593.395 411.293 593.001 407.703C592.581 403.863 590.392 400.385 583.641 392.803C579.296 387.919 573.133 381.481 565.816 374.186C549.308 357.706 528.947 338.8 508.483 320.954C468.191 285.79 412.151 241.054 373.99 227.713C350.114 219.374 338.352 225.628 332.666 232.38C331.306 233.961 298.046 272.757 266.081 314.089C246.901 338.875 231.928 359.755 221.528 376.154C202.57 406.057 201.744 416.488 203.689 423.293C205.033 427.979 209.068 435.895 228.661 455.797C241.194 468.534 257.969 484.002 277.164 500.529C307.118 526.321 338.496 550.86 364.698 569.168C374.548 576.05 383.662 582.052 391.693 586.914C420.012 604.02 430.797 604.628 437.032 603.255C443.295 601.869 453.617 596.841 478.056 570.068C496.177 550.221 515.506 525.589 528.523 508.422C544.515 487.337 560.716 464.7 572.962 446.311Z" fill="#2E2516"/>
<path d="M453.794 793.012L543.547 688.987C560.15 669.746 554.776 639.344 531.96 623.402C512.873 610.066 487.772 611.396 472.798 626.53L397.108 703.06L294.092 631.081L334.501 573.248L260.516 508.081L208.168 571.06L76.3553 485.322L134.243 406.262C148.504 386.766 142.405 358.29 120.706 343.127L116.878 340.453C96.8345 326.448 70.3401 328.703 55.8075 345.661L-28.8641 444.477C-48.2435 467.092 -41.8889 502.674 -15.1596 521.351L142.677 631.634L79.534 701.494L-68.1822 598.281C-93.0224 580.924 -125.953 584.944 -142.191 607.322L-195.05 680.203C-211.206 702.489 -204.189 734.904 -179.447 752.192C-155.478 768.939 -123.685 765.241 -107.744 743.837L-70.4768 693.819L229.178 903.111L195.531 956.858C181.555 979.185 189.181 1009.76 212.844 1026.29L213.629 1026.84C238.358 1044.12 271.221 1039.57 286.58 1016.73L336.838 942.031C352.267 919.087 344.717 886.783 319.877 869.426L172.16 766.214L231.905 693.98L382.222 799.01C405.701 815.415 436.72 812.824 453.794 793.012Z" fill="#2E2516"/>
<path d="M430.021 439.779C420.02 454.092 399.191 456.808 383.49 445.837C367.801 434.875 363.176 414.374 373.177 400.061C383.185 385.737 404.026 383.03 419.716 393.992C435.417 404.963 440.029 425.456 430.021 439.779Z" fill="#2E2516"/>
<path d="M408.114 201.685L410.123 158.705C410.829 143.455 425.599 133.657 441.117 138.124L448.272 140.189C462.15 144.181 471.028 158.098 468.08 171.253L458.927 212.177C455.978 225.333 442.338 232.759 428.46 228.766C416.152 225.218 407.545 213.761 408.114 201.685Z" fill="#2E2516"/>
<path d="M489.366 270.536L487.023 268.899C476.13 261.288 472.078 247.466 477.583 236.635L501.722 189.102C508.315 176.113 525.725 172.699 538.789 181.827L554.405 192.738C567.665 202.003 570.288 219.857 559.957 230.436L522.545 268.695C514.195 277.248 500.087 278.027 489.366 270.536Z" fill="#2E2516"/>
<path d="M558.752 320.73L557.61 319.073C549.451 307.182 552.251 291.942 563.868 285.034L600.969 262.948C612.587 256.04 628.609 260.073 636.78 271.971L644.758 283.598C654.447 297.713 648.477 315.767 632.681 320.112L588.731 332.221C577.774 335.231 565.463 330.512 558.752 320.73Z" fill="#2E2516"/>
<path d="M172.805 899.661L-40.6367 750.524L-66.1658 787.061L147.276 936.198L172.805 899.661Z" fill="#2E2516"/>
<path d="M587.586 615.639L556.735 594.083C544.493 585.529 540.907 569.551 548.703 558.394C555.357 548.871 568.398 545.726 580.003 550.854L615.077 566.367C630.769 573.301 637.083 591.985 628.083 604.866L623.861 610.909C616.065 622.065 599.816 624.184 587.586 615.639Z" fill="#2E2516"/>
<path d="M201.477 311.45L146.768 271.758C134.687 263 131.402 246.982 139.438 235.977L148.791 223.193C158.224 210.266 178.502 210.429 190.023 223.542L235.756 275.531C243.921 284.8 244.957 297.765 238.271 306.916L237.907 307.411C229.879 318.405 213.57 320.216 201.477 311.45Z" fill="#2E2516"/>
</svg>
