<svg width="108" height="108" viewBox="0 0 108 108" fill="none" xmlns="http://www.w3.org/2000/svg">
<mask id="mask0_1109_2259" style="mask-type:alpha" maskUnits="userSpaceOnUse" x="0" y="0" width="108" height="108">
<rect width="108" height="108" fill="#D9D9D9"/>
</mask>
<g mask="url(#mask0_1109_2259)">
<path d="M27.0002 90C24.5252 90 22.4065 89.1188 20.644 87.3563C18.8815 85.5938 18.0002 83.475 18.0002 81C18.0002 78.525 18.8815 76.4063 20.644 74.6438C22.4065 72.8813 24.5252 72 27.0002 72C29.4752 72 31.594 72.8813 33.3565 74.6438C35.119 76.4063 36.0002 78.525 36.0002 81C36.0002 83.475 35.119 85.5938 33.3565 87.3563C31.594 89.1188 29.4752 90 27.0002 90ZM54.0002 90C51.5252 90 49.4065 89.1188 47.644 87.3563C45.8815 85.5938 45.0002 83.475 45.0002 81C45.0002 78.525 45.8815 76.4063 47.644 74.6438C49.4065 72.8813 51.5252 72 54.0002 72C56.4752 72 58.594 72.8813 60.3565 74.6438C62.119 76.4063 63.0002 78.525 63.0002 81C63.0002 83.475 62.119 85.5938 60.3565 87.3563C58.594 89.1188 56.4752 90 54.0002 90ZM81.0002 90C78.5252 90 76.4065 89.1188 74.644 87.3563C72.8815 85.5938 72.0002 83.475 72.0002 81C72.0002 78.525 72.8815 76.4063 74.644 74.6438C76.4065 72.8813 78.5252 72 81.0002 72C83.4752 72 85.594 72.8813 87.3565 74.6438C89.119 76.4063 90.0002 78.525 90.0002 81C90.0002 83.475 89.119 85.5938 87.3565 87.3563C85.594 89.1188 83.4752 90 81.0002 90ZM27.0002 63C24.5252 63 22.4065 62.1188 20.644 60.3563C18.8815 58.5938 18.0002 56.475 18.0002 54C18.0002 51.525 18.8815 49.4062 20.644 47.6438C22.4065 45.8813 24.5252 45 27.0002 45C29.4752 45 31.594 45.8813 33.3565 47.6438C35.119 49.4062 36.0002 51.525 36.0002 54C36.0002 56.475 35.119 58.5938 33.3565 60.3563C31.594 62.1188 29.4752 63 27.0002 63ZM54.0002 63C51.5252 63 49.4065 62.1188 47.644 60.3563C45.8815 58.5938 45.0002 56.475 45.0002 54C45.0002 51.525 45.8815 49.4062 47.644 47.6438C49.4065 45.8813 51.5252 45 54.0002 45C56.4752 45 58.594 45.8813 60.3565 47.6438C62.119 49.4062 63.0002 51.525 63.0002 54C63.0002 56.475 62.119 58.5938 60.3565 60.3563C58.594 62.1188 56.4752 63 54.0002 63ZM81.0002 63C78.5252 63 76.4065 62.1188 74.644 60.3563C72.8815 58.5938 72.0002 56.475 72.0002 54C72.0002 51.525 72.8815 49.4062 74.644 47.6438C76.4065 45.8813 78.5252 45 81.0002 45C83.4752 45 85.594 45.8813 87.3565 47.6438C89.119 49.4062 90.0002 51.525 90.0002 54C90.0002 56.475 89.119 58.5938 87.3565 60.3563C85.594 62.1188 83.4752 63 81.0002 63ZM27.0002 36C24.5252 36 22.4065 35.1188 20.644 33.3563C18.8815 31.5938 18.0002 29.475 18.0002 27C18.0002 24.525 18.8815 22.4062 20.644 20.6438C22.4065 18.8813 24.5252 18 27.0002 18C29.4752 18 31.594 18.8813 33.3565 20.6438C35.119 22.4062 36.0002 24.525 36.0002 27C36.0002 29.475 35.119 31.5938 33.3565 33.3563C31.594 35.1188 29.4752 36 27.0002 36ZM54.0002 36C51.5252 36 49.4065 35.1188 47.644 33.3563C45.8815 31.5938 45.0002 29.475 45.0002 27C45.0002 24.525 45.8815 22.4062 47.644 20.6438C49.4065 18.8813 51.5252 18 54.0002 18C56.4752 18 58.594 18.8813 60.3565 20.6438C62.119 22.4062 63.0002 24.525 63.0002 27C63.0002 29.475 62.119 31.5938 60.3565 33.3563C58.594 35.1188 56.4752 36 54.0002 36ZM81.0002 36C78.5252 36 76.4065 35.1188 74.644 33.3563C72.8815 31.5938 72.0002 29.475 72.0002 27C72.0002 24.525 72.8815 22.4062 74.644 20.6438C76.4065 18.8813 78.5252 18 81.0002 18C83.4752 18 85.594 18.8813 87.3565 20.6438C89.119 22.4062 90.0002 24.525 90.0002 27C90.0002 29.475 89.119 31.5938 87.3565 33.3563C85.594 35.1188 83.4752 36 81.0002 36Z" fill="#FBC86E"/>
</g>
</svg>
