<svg width="97" height="95" viewBox="0 0 97 95" fill="none" xmlns="http://www.w3.org/2000/svg">
<rect width="97" height="95" rx="20" fill="#525252"/>
<path d="M24.0481 66C22.1731 61.1875 19 52.3835 19 47.3333C19 30.58 33.6149 17 49 17C64.3851 17 79 30.58 79 47.3333C79 52.3835 75.6827 61.4792 73.9519 66" stroke="#FFA80F" stroke-opacity="0.980392" stroke-width="3" stroke-linecap="round" stroke-linejoin="round"/>
<path d="M27.4548 48.315L25.4567 49.4987C21.0446 52.1176 20.83 60.2126 24.9634 67.5797C29.0968 74.9467 36.0368 78.7966 40.449 76.1792L42.4471 74.9955C42.9774 74.6753 43.3628 74.1571 43.5205 73.5521C43.6782 72.9471 43.5957 72.3036 43.2907 71.7596L30.6088 49.1836C30.4593 48.9152 30.2588 48.6796 30.0188 48.4904C29.7788 48.3012 29.5042 48.1622 29.2108 48.0814C28.9174 48.0007 28.6111 47.9797 28.3097 48.0198C28.0083 48.0599 27.7177 48.1602 27.4548 48.315ZM70.5429 48.315L72.541 49.4987C76.9531 52.1162 77.1735 60.2112 73.0343 67.5782C68.8951 74.9452 61.9609 78.7952 57.5488 76.1777L55.5507 74.994C55.0203 74.6738 54.635 74.1556 54.4772 73.5507C54.3195 72.9457 54.402 72.3021 54.7071 71.7581L67.3889 49.1836C67.5384 48.9152 67.739 48.6796 67.9789 48.4904C68.2189 48.3012 68.4936 48.1622 68.7869 48.0814C69.0803 48.0007 69.3866 47.9797 69.688 48.0198C69.9894 48.0599 70.28 48.1602 70.5429 48.315Z" stroke="#FFA80F" stroke-opacity="0.980392" stroke-width="3" stroke-miterlimit="10"/>
</svg>
