<svg width="146" height="718" viewBox="0 0 146 718" fill="none" xmlns="http://www.w3.org/2000/svg">
<g style="mix-blend-mode:overlay" opacity="0.7">
<path d="M109.995 597.965H108.433V475.591L137.227 441.739V333.224L76.3623 261.668V103.082H77.9066V260.901L138.788 332.458V442.506L109.995 476.357V597.965Z" fill="url(#paint0_linear_1658_287)"/>
<path d="M109.12 609.443C108.07 609.447 107.043 609.085 106.169 608.403C105.295 607.72 104.613 606.748 104.209 605.609C103.805 604.471 103.697 603.217 103.9 602.006C104.103 600.795 104.606 599.683 105.347 598.809C106.088 597.935 107.033 597.34 108.062 597.097C109.091 596.855 110.158 596.977 111.128 597.449C112.098 597.92 112.927 598.719 113.51 599.744C114.093 600.77 114.405 601.976 114.405 603.21C114.405 604.86 113.849 606.442 112.858 607.611C111.867 608.779 110.523 609.438 109.12 609.443ZM109.12 598.812C108.38 598.812 107.657 599.07 107.041 599.553C106.426 600.036 105.947 600.723 105.664 601.527C105.381 602.33 105.307 603.215 105.451 604.068C105.595 604.921 105.951 605.704 106.475 606.32C106.998 606.935 107.664 607.353 108.39 607.523C109.116 607.693 109.868 607.606 110.551 607.273C111.235 606.94 111.819 606.376 112.23 605.653C112.641 604.93 112.86 604.08 112.86 603.21C112.847 602.054 112.447 600.951 111.747 600.139C111.047 599.327 110.103 598.872 109.12 598.872V598.812Z" fill="url(#paint1_linear_1658_287)"/>
<path d="M77.1348 103.989C76.0861 103.989 75.061 103.624 74.189 102.939C73.3171 102.254 72.6375 101.28 72.2361 100.141C71.8348 99.0021 71.7298 97.7487 71.9344 96.5395C72.139 95.3303 72.644 94.2196 73.3855 93.3478C74.1271 92.476 75.0718 91.8823 76.1004 91.6418C77.1289 91.4012 78.195 91.5247 79.1639 91.9965C80.1327 92.4683 80.9608 93.2673 81.5435 94.2924C82.1261 95.3175 82.4371 96.5228 82.4371 97.7557C82.4371 98.5743 82.2999 99.3849 82.0335 100.141C81.767 100.898 81.3764 101.585 80.8841 102.164C80.3917 102.742 79.8072 103.202 79.1639 103.515C78.5206 103.828 77.8311 103.989 77.1348 103.989ZM77.1348 93.3578C76.3949 93.3578 75.6717 93.6157 75.0565 94.099C74.4414 94.5822 73.9619 95.2691 73.6788 96.0727C73.3957 96.8763 73.3216 97.7605 73.4659 98.6136C73.6102 99.4667 73.9665 100.25 74.4897 100.865C75.0128 101.48 75.6794 101.899 76.405 102.069C77.1306 102.239 77.8828 102.152 78.5663 101.819C79.2499 101.486 79.8341 100.922 80.2451 100.199C80.6562 99.4758 80.8756 98.6255 80.8756 97.7557C80.871 96.5909 80.4755 95.4754 79.7749 94.6517C79.0744 93.8281 78.1255 93.3631 77.1348 93.3578Z" fill="url(#paint2_linear_1658_287)"/>
<path d="M95.2206 686.891H93.6763V564.517L122.453 530.665V350.896L61.5881 279.34V192.008H63.1496V278.573L124.014 350.15V531.432L95.2206 565.283V686.891Z" fill="url(#paint3_linear_1658_287)"/>
<path d="M94.3457 698.43C93.297 698.43 92.2719 698.064 91.4 697.379C90.528 696.694 89.8484 695.721 89.4471 694.582C89.0458 693.443 88.9408 692.189 89.1453 690.98C89.3499 689.771 89.8549 688.66 90.5965 687.788C91.338 686.917 92.2828 686.323 93.3113 686.082C94.3398 685.842 95.406 685.965 96.3748 686.437C97.3437 686.909 98.1718 687.708 98.7544 688.733C99.337 689.758 99.648 690.963 99.648 692.196C99.6435 693.848 99.0834 695.43 98.09 696.598C97.0966 697.766 95.7506 698.425 94.3457 698.43ZM94.3457 687.798C93.6059 687.798 92.8826 688.056 92.2675 688.54C91.6523 689.023 91.1728 689.71 90.8897 690.513C90.6066 691.317 90.5325 692.201 90.6768 693.054C90.8212 693.907 91.1775 694.691 91.7006 695.306C92.2238 695.921 92.8903 696.34 93.6159 696.51C94.3416 696.679 95.0937 696.592 95.7773 696.259C96.4608 695.927 97.045 695.363 97.4561 694.64C97.8671 693.916 98.0865 693.066 98.0865 692.196C98.082 691.032 97.6864 689.916 96.9859 689.092C96.2853 688.269 95.3364 687.804 94.3457 687.798Z" fill="url(#paint4_linear_1658_287)"/>
<path d="M62.343 192.916C61.2943 192.916 60.2692 192.55 59.3973 191.865C58.5253 191.18 57.8457 190.207 57.4444 189.067C57.0431 187.928 56.9381 186.675 57.1427 185.466C57.3472 184.257 57.8522 183.146 58.5938 182.274C59.3353 181.402 60.2801 180.809 61.3086 180.568C62.3372 180.328 63.4033 180.451 64.3721 180.923C65.341 181.395 66.1691 182.194 66.7517 183.219C67.3343 184.244 67.6453 185.449 67.6453 186.682C67.6453 188.335 67.0867 189.921 66.0923 191.09C65.0979 192.259 63.7493 192.916 62.343 192.916ZM62.343 182.284C61.6039 182.288 60.8824 182.549 60.2695 183.035C59.6566 183.521 59.1798 184.209 58.8993 185.013C58.6188 185.817 58.5471 186.7 58.6934 187.552C58.8397 188.404 59.1973 189.186 59.7212 189.799C60.245 190.412 60.9115 190.829 61.6367 190.997C62.3619 191.165 63.1131 191.077 63.7957 190.743C64.4782 190.41 65.0614 189.846 65.4717 189.123C65.882 188.4 66.1009 187.551 66.101 186.682C66.0964 185.514 65.6985 184.395 64.9942 183.571C64.29 182.747 63.3367 182.284 62.343 182.284Z" fill="url(#paint5_linear_1658_287)"/>
<path d="M42.5241 711.018L42.3525 599.72L16.2358 568.995V387.713L45.0122 353.882V232.254H46.5737V354.629L17.7802 388.48V568.249L43.914 598.953V599.336L44.0856 711.018H42.5241Z" fill="url(#paint6_linear_1658_287)"/>
<path d="M45.9044 233.162C44.855 233.166 43.8282 232.804 42.954 232.121C42.0797 231.439 41.3975 230.467 40.9935 229.328C40.5896 228.189 40.4821 226.935 40.6848 225.725C40.8874 224.514 41.391 223.402 42.1319 222.528C42.8727 221.654 43.8175 221.058 44.8465 220.816C45.8755 220.574 46.9425 220.696 47.9123 221.167C48.8822 221.639 49.7113 222.438 50.2947 223.463C50.8781 224.489 51.1895 225.695 51.1895 226.928C51.1895 228.578 50.6332 230.161 49.6426 231.329C48.6519 232.498 47.3077 233.157 45.9044 233.162ZM45.9044 222.531C45.1645 222.531 44.4413 222.789 43.8261 223.272C43.211 223.755 42.7315 224.442 42.4484 225.246C42.1653 226.049 42.0912 226.933 42.2355 227.786C42.3799 228.64 42.7361 229.423 43.2593 230.038C43.7824 230.653 44.449 231.072 45.1746 231.242C45.9002 231.412 46.6524 231.324 47.3359 230.992C48.0195 230.659 48.6037 230.095 49.0147 229.372C49.4258 228.649 49.6452 227.798 49.6452 226.928C49.6406 225.764 49.2451 224.648 48.5445 223.825C47.844 223.001 46.8951 222.536 45.9044 222.531Z" fill="url(#paint7_linear_1658_287)"/>
<path d="M86.7953 532.299H85.251V374.479L24.3865 302.923V192.875L53.1629 159.044V37.416H54.7244V159.79L25.9308 193.642V302.156L86.7953 373.713V532.299Z" fill="url(#paint8_linear_1658_287)"/>
<path d="M54.055 38.3243C53.0056 38.3283 51.9788 37.9661 51.1046 37.2835C50.2304 36.601 49.5481 35.6288 49.1441 34.4901C48.7402 33.3514 48.6327 32.0974 48.8354 30.8869C49.038 29.6763 49.5417 28.5637 50.2825 27.6899C51.0234 26.8161 51.9681 26.2204 52.9971 25.9782C54.0261 25.736 55.0931 25.8583 56.063 26.3295C57.0328 26.8007 57.862 27.5997 58.4453 28.6253C59.0287 29.6508 59.3401 30.8568 59.3401 32.0906C59.3401 33.7404 58.7839 35.3229 57.7932 36.4914C56.8025 37.6598 55.4583 38.319 54.055 38.3243ZM54.055 27.6927C53.3152 27.6927 52.5919 27.9506 51.9768 28.4339C51.3616 28.9171 50.8821 29.604 50.599 30.4076C50.3159 31.2112 50.2418 32.0955 50.3862 32.9486C50.5305 33.8017 50.8868 34.5853 51.4099 35.2004C51.9331 35.8154 52.5996 36.2343 53.3252 36.404C54.0509 36.5737 54.803 36.4866 55.4866 36.1537C56.1701 35.8208 56.7543 35.2571 57.1654 34.5339C57.5764 33.8107 57.7958 32.9604 57.7958 32.0906C57.7913 30.9258 57.3957 29.8103 56.6952 28.9867C55.9946 28.1631 55.0457 27.698 54.055 27.6927Z" fill="url(#paint9_linear_1658_287)"/>
<path d="M86.0232 543.839C84.9745 543.839 83.9494 543.473 83.0774 542.788C82.2055 542.103 81.5259 541.129 81.1245 539.99C80.7232 538.851 80.6182 537.598 80.8228 536.389C81.0274 535.179 81.5324 534.069 82.2739 533.197C83.0155 532.325 83.9603 531.731 84.9888 531.491C86.0173 531.25 87.0834 531.374 88.0523 531.846C89.0212 532.317 89.8493 533.116 90.4319 534.142C91.0145 535.167 91.3255 536.372 91.3255 537.605C91.3255 539.258 90.7668 540.844 89.7725 542.013C88.7781 543.182 87.4295 543.839 86.0232 543.839ZM86.0232 533.207C85.2785 533.203 84.5496 533.459 83.929 533.943C83.3084 534.427 82.8241 535.117 82.5375 535.925C82.251 536.733 82.1751 537.623 82.3195 538.482C82.464 539.341 82.8223 540.13 83.3488 540.749C83.8754 541.368 84.5466 541.789 85.2772 541.959C86.0077 542.129 86.7647 542.04 87.4521 541.703C88.1395 541.366 88.7262 540.797 89.1378 540.067C89.5494 539.337 89.7674 538.48 89.764 537.605C89.7594 536.44 89.3639 535.324 88.6633 534.501C87.9628 533.677 87.0139 533.212 86.0232 533.207Z" fill="url(#paint10_linear_1658_287)"/>
<path d="M123.688 706.883H122.144V581.139L139.87 560.28V474.38H141.431V561.046L123.688 581.886V706.883Z" fill="url(#paint11_linear_1658_287)"/>
<path d="M140.642 475.833C139.593 475.833 138.568 475.467 137.696 474.782C136.824 474.097 136.145 473.123 135.743 471.984C135.342 470.845 135.237 469.592 135.441 468.383C135.646 467.174 136.151 466.063 136.893 465.191C137.634 464.319 138.579 463.726 139.607 463.485C140.636 463.244 141.702 463.368 142.671 463.84C143.64 464.312 144.468 465.111 145.051 466.136C145.633 467.161 145.944 468.366 145.944 469.599C145.944 471.252 145.385 472.838 144.391 474.007C143.397 475.176 142.048 475.833 140.642 475.833ZM140.642 465.201C139.903 465.205 139.181 465.466 138.568 465.952C137.955 466.438 137.479 467.126 137.198 467.93C136.918 468.734 136.846 469.617 136.992 470.469C137.139 471.321 137.496 472.103 138.02 472.716C138.544 473.329 139.21 473.746 139.936 473.914C140.661 474.082 141.412 473.994 142.094 473.66C142.777 473.327 143.36 472.763 143.771 472.04C144.181 471.317 144.4 470.468 144.4 469.599C144.395 468.431 143.997 467.312 143.293 466.488C142.589 465.664 141.636 465.201 140.642 465.201Z" fill="url(#paint12_linear_1658_287)"/>
<path d="M122.916 717.232C121.867 717.232 120.842 716.866 119.97 716.181C119.098 715.496 118.419 714.523 118.017 713.384C117.616 712.245 117.511 710.991 117.716 709.782C117.92 708.573 118.425 707.462 119.167 706.59C119.908 705.718 120.853 705.125 121.882 704.884C122.91 704.644 123.976 704.767 124.945 705.239C125.914 705.711 126.742 706.51 127.325 707.535C127.907 708.56 128.218 709.765 128.218 710.998C128.214 712.65 127.654 714.232 126.66 715.4C125.667 716.568 124.321 717.226 122.916 717.232ZM122.916 706.6C122.176 706.6 121.453 706.858 120.838 707.341C120.223 707.825 119.743 708.511 119.46 709.315C119.177 710.119 119.103 711.003 119.247 711.856C119.391 712.709 119.748 713.493 120.271 714.108C120.794 714.723 121.461 715.142 122.186 715.311C122.912 715.481 123.664 715.394 124.348 715.061C125.031 714.728 125.615 714.165 126.026 713.441C126.437 712.718 126.657 711.868 126.657 710.998C126.652 709.833 126.257 708.718 125.556 707.894C124.856 707.071 123.907 706.606 122.916 706.6Z" fill="url(#paint13_linear_1658_287)"/>
<path d="M101.021 243.855H99.4763V118.111L117.202 97.272V11.3721H118.764V98.0184L101.021 118.878V243.855Z" fill="url(#paint14_linear_1658_287)"/>
<path d="M117.974 12.8043C116.925 12.8043 115.899 12.4382 115.027 11.7523C114.154 11.0665 113.475 10.0917 113.074 8.95147C112.673 7.81123 112.569 6.5568 112.775 5.34704C112.981 4.13727 113.488 3.02658 114.231 2.15559C114.974 1.2846 115.921 0.692492 116.95 0.454247C117.98 0.216001 119.047 0.342328 120.015 0.817237C120.984 1.29215 121.811 2.09427 122.391 3.12205C122.972 4.14982 123.28 5.35702 123.276 6.59078C123.276 7.40846 123.139 8.2181 122.872 8.97328C122.606 9.72845 122.215 10.4143 121.722 10.9916C121.23 11.5688 120.645 12.0261 120.002 12.3371C119.359 12.6482 118.67 12.807 117.974 12.8043ZM117.974 2.1929C117.235 2.19689 116.513 2.45821 115.901 2.94388C115.288 3.42954 114.811 4.11778 114.53 4.92173C114.25 5.72568 114.178 6.6093 114.325 7.46107C114.471 8.31285 114.828 9.09459 115.352 9.70763C115.876 10.3207 116.543 10.7375 117.268 10.9056C117.993 11.0736 118.744 10.9854 119.427 10.6519C120.109 10.3185 120.692 9.75479 121.103 9.03201C121.513 8.30922 121.732 7.45974 121.732 6.59078C121.73 6.01324 121.631 5.44189 121.441 4.90932C121.251 4.37676 120.973 3.89342 120.624 3.48692C120.275 3.08041 119.862 2.75868 119.407 2.54012C118.952 2.32155 118.465 2.21042 117.974 2.21308V2.1929Z" fill="url(#paint15_linear_1658_287)"/>
<path d="M100.248 254.204C99.1989 254.204 98.1731 253.838 97.3007 253.152C96.4284 252.466 95.7488 251.491 95.348 250.351C94.9472 249.211 94.8432 247.956 95.0492 246.746C95.2552 245.537 95.7619 244.426 96.5051 243.555C97.2484 242.684 98.1948 242.092 99.2244 241.854C100.254 241.615 101.321 241.742 102.289 242.217C103.258 242.692 104.085 243.494 104.665 244.521C105.246 245.549 105.554 246.756 105.551 247.99C105.546 249.64 104.985 251.22 103.992 252.385C102.998 253.55 101.652 254.204 100.248 254.204ZM100.248 243.572C99.5043 243.568 98.7761 243.824 98.1559 244.307C97.5356 244.79 97.0513 245.479 96.7642 246.285C96.4772 247.092 96.4003 247.981 96.5433 248.84C96.6864 249.698 97.0429 250.487 97.5678 251.107C98.0927 251.727 98.7622 252.15 99.4917 252.322C100.221 252.494 100.978 252.408 101.665 252.074C102.353 251.74 102.941 251.174 103.355 250.447C103.768 249.72 103.989 248.865 103.989 247.99C103.989 246.822 103.596 245.701 102.894 244.873C102.193 244.045 101.242 243.577 100.248 243.572Z" fill="url(#paint16_linear_1658_287)"/>
<path d="M120.874 284.424H119.33V150.45L137.056 129.59V51.9209H138.617V130.357L120.874 151.196V284.424Z" fill="url(#paint17_linear_1658_287)"/>
<path d="M120.102 295.419C119.053 295.419 118.028 295.053 117.156 294.368C116.284 293.683 115.605 292.709 115.203 291.57C114.802 290.431 114.697 289.178 114.902 287.969C115.106 286.76 115.611 285.649 116.353 284.777C117.094 283.905 118.039 283.311 119.068 283.071C120.096 282.83 121.162 282.954 122.131 283.426C123.1 283.898 123.928 284.696 124.511 285.722C125.093 286.747 125.404 287.952 125.404 289.185C125.4 290.837 124.84 292.419 123.846 293.587C122.853 294.755 121.507 295.413 120.102 295.419ZM120.102 284.787C119.362 284.787 118.639 285.045 118.024 285.528C117.409 286.011 116.929 286.698 116.646 287.502C116.363 288.305 116.289 289.19 116.433 290.043C116.578 290.896 116.934 291.68 117.457 292.295C117.98 292.91 118.647 293.329 119.372 293.498C120.098 293.668 120.85 293.581 121.534 293.248C122.217 292.915 122.801 292.351 123.212 291.628C123.623 290.905 123.843 290.055 123.843 289.185C123.838 288.02 123.443 286.905 122.742 286.081C122.042 285.257 121.093 284.792 120.102 284.787Z" fill="url(#paint18_linear_1658_287)"/>
<path d="M137.845 54.0192C136.796 54.0192 135.771 53.6536 134.899 52.9686C134.027 52.2836 133.347 51.31 132.946 50.171C132.545 49.0319 132.44 47.7785 132.644 46.5693C132.849 45.3601 133.354 44.2494 134.095 43.3776C134.837 42.5058 135.782 41.9121 136.81 41.6715C137.839 41.431 138.905 41.5545 139.874 42.0263C140.843 42.4981 141.671 43.2971 142.253 44.3222C142.836 45.3473 143.147 46.5525 143.147 47.7854C143.147 48.6041 143.01 49.4147 142.743 50.171C142.477 50.9273 142.086 51.6145 141.594 52.1934C141.102 52.7722 140.517 53.2314 139.874 53.5446C139.231 53.8579 138.541 54.0192 137.845 54.0192ZM137.845 43.3876C137.105 43.3876 136.382 43.6455 135.767 44.1288C135.151 44.612 134.672 45.2989 134.389 46.1025C134.106 46.9061 134.032 47.7903 134.176 48.6434C134.32 49.4965 134.676 50.2802 135.2 50.8952C135.723 51.5103 136.389 51.9291 137.115 52.0988C137.841 52.2685 138.593 52.1814 139.276 51.8486C139.96 51.5157 140.544 50.952 140.955 50.2288C141.366 49.5056 141.585 48.6553 141.585 47.7854C141.581 46.6207 141.185 45.5052 140.485 44.6816C139.784 43.8579 138.835 43.3929 137.845 43.3876Z" fill="url(#paint19_linear_1658_287)"/>
<path d="M45.956 545.513H44.3945V411.539L62.1374 390.699V313.01H63.6817V391.446L45.956 412.285V545.513Z" fill="url(#paint20_linear_1658_287)"/>
<path d="M45.1836 556.507C44.1349 556.507 43.1098 556.142 42.2378 555.457C41.3659 554.772 40.6863 553.798 40.285 552.659C39.8836 551.52 39.7786 550.267 39.9832 549.058C40.1878 547.848 40.6928 546.738 41.4343 545.866C42.1759 544.994 43.1207 544.4 44.1492 544.16C45.1777 543.919 46.2438 544.043 47.2127 544.515C48.1816 544.986 49.0097 545.785 49.5923 546.81C50.1749 547.836 50.4859 549.041 50.4859 550.274C50.4813 551.925 49.9213 553.508 48.9279 554.676C47.9345 555.844 46.5885 556.502 45.1836 556.507ZM45.1836 545.876C44.4438 545.876 43.7205 546.134 43.1054 546.617C42.4902 547.1 42.0107 547.787 41.7276 548.591C41.4445 549.394 41.3704 550.279 41.5147 551.132C41.6591 551.985 42.0153 552.768 42.5385 553.383C43.0617 553.999 43.7282 554.417 44.4538 554.587C45.1795 554.757 45.9316 554.67 46.6151 554.337C47.2987 554.004 47.8829 553.44 48.2939 552.717C48.705 551.994 48.9244 551.144 48.9244 550.274C48.9244 549.107 48.5302 547.989 47.8287 547.164C47.1272 546.339 46.1757 545.876 45.1836 545.876Z" fill="url(#paint21_linear_1658_287)"/>
<path d="M62.9094 315.108C61.8608 315.108 60.8356 314.742 59.9636 314.057C59.0917 313.372 58.4121 312.399 58.0108 311.26C57.6095 310.121 57.5045 308.867 57.7091 307.658C57.9136 306.449 58.4186 305.338 59.1602 304.466C59.9017 303.595 60.8465 303.001 61.875 302.76C62.9036 302.52 63.9697 302.643 64.9385 303.115C65.9074 303.587 66.7355 304.386 67.3181 305.411C67.9007 306.436 68.2117 307.641 68.2117 308.874C68.2117 310.528 67.6531 312.113 66.6587 313.282C65.6643 314.451 64.3157 315.108 62.9094 315.108ZM62.9094 304.476C62.1696 304.476 61.4463 304.734 60.8312 305.218C60.216 305.701 59.7366 306.388 59.4534 307.191C59.1703 307.995 59.0962 308.879 59.2406 309.732C59.3849 310.585 59.7412 311.369 60.2643 311.984C60.7875 312.599 61.454 313.018 62.1797 313.188C62.9053 313.357 63.6574 313.27 64.341 312.937C65.0245 312.605 65.6087 312.041 66.0198 311.318C66.4308 310.594 66.6502 309.744 66.6502 308.874C66.6457 307.71 66.2501 306.594 65.5496 305.77C64.849 304.947 63.9002 304.482 62.9094 304.476Z" fill="url(#paint22_linear_1658_287)"/>
<path d="M64.8659 636.254H63.3215V471.576L106.632 420.637V377.828H108.193V421.404L64.8659 472.322V636.254Z" fill="url(#paint23_linear_1658_287)"/>
<path d="M107.404 377.768C106.354 377.768 105.329 377.402 104.456 376.716C103.584 376.03 102.904 375.055 102.504 373.915C102.103 372.775 101.999 371.52 102.205 370.31C102.411 369.101 102.917 367.99 103.661 367.119C104.404 366.248 105.35 365.656 106.38 365.418C107.41 365.179 108.476 365.306 109.445 365.781C110.413 366.256 111.24 367.058 111.821 368.085C112.401 369.113 112.709 370.32 112.706 371.554C112.706 372.372 112.569 373.182 112.302 373.937C112.035 374.692 111.645 375.378 111.152 375.955C110.659 376.532 110.075 376.989 109.432 377.301C108.788 377.612 108.099 377.77 107.404 377.768ZM107.404 367.136C106.661 367.136 105.934 367.395 105.316 367.881C104.698 368.366 104.216 369.056 103.932 369.863C103.648 370.671 103.573 371.559 103.718 372.416C103.863 373.273 104.221 374.06 104.747 374.678C105.272 375.296 105.942 375.717 106.671 375.887C107.4 376.058 108.155 375.97 108.842 375.636C109.529 375.302 110.115 374.735 110.528 374.009C110.941 373.282 111.162 372.428 111.162 371.554C111.162 370.974 111.065 370.399 110.876 369.863C110.687 369.327 110.41 368.84 110.061 368.43C109.712 368.02 109.298 367.694 108.842 367.472C108.386 367.25 107.897 367.136 107.404 367.136Z" fill="url(#paint24_linear_1658_287)"/>
<path d="M2.98867 716.869H1.44434V535.305L31.7307 499.678V451.261H33.2751V500.445L2.98867 536.051V716.869Z" fill="url(#paint25_linear_1658_287)"/>
<path d="M32.5031 451.483C31.7211 451.487 30.9557 451.218 30.304 450.71C29.6524 450.201 29.1439 449.477 28.843 448.628C28.5422 447.78 28.4626 446.845 28.6143 445.943C28.766 445.041 29.1423 444.213 29.6953 443.562C30.2482 442.912 30.953 442.47 31.7202 442.292C32.4874 442.113 33.2823 442.207 34.0042 442.56C34.7261 442.914 35.3423 443.512 35.7746 444.278C36.207 445.044 36.436 445.944 36.4326 446.863C36.4281 448.087 36.0126 449.259 35.2767 450.124C34.5407 450.99 33.5439 451.478 32.5031 451.483ZM32.5031 444.059C32.0314 444.059 31.5702 444.224 31.178 444.532C30.7857 444.84 30.48 445.278 30.2995 445.79C30.119 446.303 30.0717 446.867 30.1638 447.411C30.2558 447.954 30.483 448.454 30.8165 448.846C31.1501 449.238 31.5751 449.506 32.0378 449.614C32.5004 449.722 32.98 449.666 33.4159 449.454C33.8517 449.242 34.2242 448.883 34.4863 448.421C34.7484 447.96 34.8883 447.418 34.8883 446.863C34.8928 446.492 34.8345 446.123 34.7166 445.778C34.5988 445.433 34.4239 445.119 34.2019 444.854C33.98 444.59 33.7155 444.38 33.4239 444.236C33.1322 444.093 32.8192 444.019 32.5031 444.019V444.059Z" fill="url(#paint26_linear_1658_287)"/>
<path d="M6.21478 355.698H4.67041V173.488L21.7097 153.456V109.82H23.2713V154.202L6.21478 174.255V355.698Z" fill="url(#paint27_linear_1658_287)"/>
<path d="M22.6193 109.779C21.6011 109.779 20.6059 109.424 19.7593 108.759C18.9127 108.094 18.2529 107.149 17.8633 106.043C17.4737 104.937 17.3717 103.72 17.5704 102.546C17.769 101.372 18.2593 100.294 18.9792 99.4475C19.6992 98.601 20.6164 98.0246 21.615 97.7911C22.6136 97.5576 23.6486 97.6774 24.5893 98.1355C25.5299 98.5936 26.3339 99.3693 26.8995 100.365C27.4652 101.36 27.7671 102.53 27.7671 103.727C27.7671 105.332 27.2247 106.871 26.2593 108.006C25.2939 109.141 23.9846 109.779 22.6193 109.779ZM22.6193 99.4501C21.9032 99.4501 21.2032 99.6998 20.6078 100.167C20.0124 100.635 19.5483 101.3 19.2743 102.078C19.0002 102.856 18.9285 103.711 19.0682 104.537C19.2079 105.363 19.5527 106.121 20.0591 106.717C20.5655 107.312 21.2106 107.717 21.9129 107.882C22.6153 108.046 23.3432 107.962 24.0048 107.639C24.6664 107.317 25.2319 106.772 25.6297 106.072C26.0276 105.372 26.2399 104.549 26.2399 103.707C26.2422 103.147 26.1501 102.592 25.9689 102.075C25.7878 101.557 25.5212 101.087 25.1845 100.691C24.8479 100.295 24.4478 99.9816 24.0075 99.7687C23.5672 99.5557 23.0954 99.4474 22.6193 99.4501Z" fill="url(#paint28_linear_1658_287)"/>
<path d="M5.44251 366.934C4.42436 366.934 3.4291 366.579 2.58254 365.914C1.73598 365.249 1.07616 364.304 0.686533 363.198C0.296906 362.092 0.194965 360.876 0.393595 359.702C0.592225 358.528 1.0825 357.449 1.80244 356.603C2.52237 355.756 3.43964 355.18 4.43822 354.946C5.4368 354.713 6.47186 354.833 7.4125 355.291C8.35315 355.749 9.15713 356.525 9.72278 357.52C10.2884 358.515 10.5903 359.685 10.5903 360.882C10.5903 362.487 10.048 364.027 9.08257 365.162C8.11717 366.297 6.8078 366.934 5.44251 366.934ZM5.44251 356.585C4.72641 356.585 4.02639 356.835 3.43098 357.303C2.83557 357.77 2.37151 358.435 2.09747 359.213C1.82343 359.991 1.75173 360.847 1.89143 361.672C2.03114 362.498 2.37598 363.256 2.88234 363.852C3.38869 364.447 4.03383 364.852 4.73616 365.017C5.4385 365.181 6.16648 365.097 6.82807 364.774C7.48966 364.452 8.05513 363.907 8.45297 363.207C8.85081 362.507 9.06315 361.684 9.06315 360.842C9.05863 359.715 8.67573 358.635 7.9977 357.838C7.31967 357.041 6.40137 356.59 5.44251 356.585Z" fill="url(#paint29_linear_1658_287)"/>
<path d="M138.789 161.021H137.227V304.214H138.789V161.021Z" fill="url(#paint30_linear_1658_287)"/>
</g>
<defs>
<linearGradient id="paint0_linear_1658_287" x1="107.575" y1="716.93" x2="107.575" y2="-22.2374" gradientUnits="userSpaceOnUse">
<stop stop-color="white"/>
<stop offset="0.52" stop-color="#F8F8F8" stop-opacity="0.47"/>
<stop offset="1" stop-color="#F2F2F2" stop-opacity="0"/>
</linearGradient>
<linearGradient id="paint1_linear_1658_287" x1="109.12" y1="716.889" x2="109.12" y2="-22.1168" gradientUnits="userSpaceOnUse">
<stop stop-color="white"/>
<stop offset="0.52" stop-color="#F8F8F8" stop-opacity="0.47"/>
<stop offset="1" stop-color="#F2F2F2" stop-opacity="0"/>
</linearGradient>
<linearGradient id="paint2_linear_1658_287" x1="77.1348" y1="716.928" x2="77.1348" y2="-22.258" gradientUnits="userSpaceOnUse">
<stop stop-color="white"/>
<stop offset="0.52" stop-color="#F8F8F8" stop-opacity="0.47"/>
<stop offset="1" stop-color="#F2F2F2" stop-opacity="0"/>
</linearGradient>
<linearGradient id="paint3_linear_1658_287" x1="92.8011" y1="716.929" x2="92.8011" y2="-22.2376" gradientUnits="userSpaceOnUse">
<stop stop-color="white"/>
<stop offset="0.52" stop-color="#F8F8F8" stop-opacity="0.47"/>
<stop offset="1" stop-color="#F2F2F2" stop-opacity="0"/>
</linearGradient>
<linearGradient id="paint4_linear_1658_287" x1="94.3457" y1="716.929" x2="94.3457" y2="-22.3158" gradientUnits="userSpaceOnUse">
<stop stop-color="white"/>
<stop offset="0.52" stop-color="#F8F8F8" stop-opacity="0.47"/>
<stop offset="1" stop-color="#F2F2F2" stop-opacity="0"/>
</linearGradient>
<linearGradient id="paint5_linear_1658_287" x1="62.3774" y1="716.929" x2="62.3774" y2="-22.2577" gradientUnits="userSpaceOnUse">
<stop stop-color="white"/>
<stop offset="0.52" stop-color="#F8F8F8" stop-opacity="0.47"/>
<stop offset="1" stop-color="#F2F2F2" stop-opacity="0"/>
</linearGradient>
<linearGradient id="paint6_linear_1658_287" x1="31.4048" y1="716.929" x2="31.4048" y2="-22.2377" gradientUnits="userSpaceOnUse">
<stop stop-color="white"/>
<stop offset="0.52" stop-color="#F8F8F8" stop-opacity="0.47"/>
<stop offset="1" stop-color="#F2F2F2" stop-opacity="0"/>
</linearGradient>
<linearGradient id="paint7_linear_1658_287" x1="45.9044" y1="716.889" x2="45.9044" y2="-22.2377" gradientUnits="userSpaceOnUse">
<stop stop-color="white"/>
<stop offset="0.52" stop-color="#F8F8F8" stop-opacity="0.47"/>
<stop offset="1" stop-color="#F2F2F2" stop-opacity="0"/>
</linearGradient>
<linearGradient id="paint8_linear_1658_287" x1="55.5823" y1="716.929" x2="55.5823" y2="-22.2378" gradientUnits="userSpaceOnUse">
<stop stop-color="white"/>
<stop offset="0.52" stop-color="#F8F8F8" stop-opacity="0.47"/>
<stop offset="1" stop-color="#F2F2F2" stop-opacity="0"/>
</linearGradient>
<linearGradient id="paint9_linear_1658_287" x1="54.0379" y1="716.869" x2="54.0379" y2="-22.2374" gradientUnits="userSpaceOnUse">
<stop stop-color="white"/>
<stop offset="0.52" stop-color="#F8F8F8" stop-opacity="0.47"/>
<stop offset="1" stop-color="#F2F2F2" stop-opacity="0"/>
</linearGradient>
<linearGradient id="paint10_linear_1658_287" x1="86.0232" y1="716.91" x2="86.0232" y2="-22.2181" gradientUnits="userSpaceOnUse">
<stop stop-color="white"/>
<stop offset="0.52" stop-color="#F8F8F8" stop-opacity="0.47"/>
<stop offset="1" stop-color="#F2F2F2" stop-opacity="0"/>
</linearGradient>
<linearGradient id="paint11_linear_1658_287" x1="131.788" y1="716.929" x2="131.788" y2="-22.2378" gradientUnits="userSpaceOnUse">
<stop stop-color="white"/>
<stop offset="0.52" stop-color="#F8F8F8" stop-opacity="0.47"/>
<stop offset="1" stop-color="#F2F2F2" stop-opacity="0"/>
</linearGradient>
<linearGradient id="paint12_linear_1658_287" x1="140.642" y1="716.908" x2="140.642" y2="-22.2157" gradientUnits="userSpaceOnUse">
<stop stop-color="white"/>
<stop offset="0.52" stop-color="#F8F8F8" stop-opacity="0.47"/>
<stop offset="1" stop-color="#F2F2F2" stop-opacity="0"/>
</linearGradient>
<linearGradient id="paint13_linear_1658_287" x1="122.916" y1="716.929" x2="122.916" y2="-22.1958" gradientUnits="userSpaceOnUse">
<stop stop-color="white"/>
<stop offset="0.52" stop-color="#F8F8F8" stop-opacity="0.47"/>
<stop offset="1" stop-color="#F2F2F2" stop-opacity="0"/>
</linearGradient>
<linearGradient id="paint14_linear_1658_287" x1="109.12" y1="716.93" x2="109.12" y2="-22.2374" gradientUnits="userSpaceOnUse">
<stop stop-color="white"/>
<stop offset="0.52" stop-color="#F8F8F8" stop-opacity="0.47"/>
<stop offset="1" stop-color="#F2F2F2" stop-opacity="0"/>
</linearGradient>
<linearGradient id="paint15_linear_1658_287" x1="117.974" y1="716.93" x2="117.974" y2="-22.2577" gradientUnits="userSpaceOnUse">
<stop stop-color="white"/>
<stop offset="0.52" stop-color="#F8F8F8" stop-opacity="0.47"/>
<stop offset="1" stop-color="#F2F2F2" stop-opacity="0"/>
</linearGradient>
<linearGradient id="paint16_linear_1658_287" x1="100.248" y1="716.93" x2="100.248" y2="-22.2577" gradientUnits="userSpaceOnUse">
<stop stop-color="white"/>
<stop offset="0.52" stop-color="#F8F8F8" stop-opacity="0.47"/>
<stop offset="1" stop-color="#F2F2F2" stop-opacity="0"/>
</linearGradient>
<linearGradient id="paint17_linear_1658_287" x1="128.973" y1="716.929" x2="128.973" y2="-22.2379" gradientUnits="userSpaceOnUse">
<stop stop-color="white"/>
<stop offset="0.52" stop-color="#F8F8F8" stop-opacity="0.47"/>
<stop offset="1" stop-color="#F2F2F2" stop-opacity="0"/>
</linearGradient>
<linearGradient id="paint18_linear_1658_287" x1="120.102" y1="716.889" x2="120.102" y2="-22.2373" gradientUnits="userSpaceOnUse">
<stop stop-color="white"/>
<stop offset="0.52" stop-color="#F8F8F8" stop-opacity="0.47"/>
<stop offset="1" stop-color="#F2F2F2" stop-opacity="0"/>
</linearGradient>
<linearGradient id="paint19_linear_1658_287" x1="137.828" y1="716.99" x2="137.828" y2="-22.2579" gradientUnits="userSpaceOnUse">
<stop stop-color="white"/>
<stop offset="0.52" stop-color="#F8F8F8" stop-opacity="0.47"/>
<stop offset="1" stop-color="#F2F2F2" stop-opacity="0"/>
</linearGradient>
<linearGradient id="paint20_linear_1658_287" x1="54.0381" y1="716.93" x2="54.0381" y2="-22.2375" gradientUnits="userSpaceOnUse">
<stop stop-color="white"/>
<stop offset="0.52" stop-color="#F8F8F8" stop-opacity="0.47"/>
<stop offset="1" stop-color="#F2F2F2" stop-opacity="0"/>
</linearGradient>
<linearGradient id="paint21_linear_1658_287" x1="45.1836" y1="716.909" x2="45.1836" y2="-22.2183" gradientUnits="userSpaceOnUse">
<stop stop-color="white"/>
<stop offset="0.52" stop-color="#F8F8F8" stop-opacity="0.47"/>
<stop offset="1" stop-color="#F2F2F2" stop-opacity="0"/>
</linearGradient>
<linearGradient id="paint22_linear_1658_287" x1="62.9094" y1="716.91" x2="62.9094" y2="-22.2382" gradientUnits="userSpaceOnUse">
<stop stop-color="white"/>
<stop offset="0.52" stop-color="#F8F8F8" stop-opacity="0.47"/>
<stop offset="1" stop-color="#F2F2F2" stop-opacity="0"/>
</linearGradient>
<linearGradient id="paint23_linear_1658_287" x1="85.7489" y1="716.929" x2="85.7489" y2="-22.2377" gradientUnits="userSpaceOnUse">
<stop stop-color="white"/>
<stop offset="0.52" stop-color="#F8F8F8" stop-opacity="0.47"/>
<stop offset="1" stop-color="#F2F2F2" stop-opacity="0"/>
</linearGradient>
<linearGradient id="paint24_linear_1658_287" x1="107.404" y1="716.97" x2="107.404" y2="-22.2995" gradientUnits="userSpaceOnUse">
<stop stop-color="white"/>
<stop offset="0.52" stop-color="#F8F8F8" stop-opacity="0.47"/>
<stop offset="1" stop-color="#F2F2F2" stop-opacity="0"/>
</linearGradient>
<linearGradient id="paint25_linear_1658_287" x1="17.3511" y1="793.388" x2="17.3511" y2="-158.491" gradientUnits="userSpaceOnUse">
<stop stop-color="white"/>
<stop offset="0.52" stop-color="#F8F8F8" stop-opacity="0.47"/>
<stop offset="1" stop-color="#F2F2F2" stop-opacity="0"/>
</linearGradient>
<linearGradient id="paint26_linear_1658_287" x1="32.5031" y1="716.91" x2="32.5031" y2="-22.238" gradientUnits="userSpaceOnUse">
<stop stop-color="white"/>
<stop offset="0.52" stop-color="#F8F8F8" stop-opacity="0.47"/>
<stop offset="1" stop-color="#F2F2F2" stop-opacity="0"/>
</linearGradient>
<linearGradient id="paint27_linear_1658_287" x1="13.9708" y1="716.929" x2="13.9708" y2="-22.2377" gradientUnits="userSpaceOnUse">
<stop stop-color="white"/>
<stop offset="0.52" stop-color="#F8F8F8" stop-opacity="0.47"/>
<stop offset="1" stop-color="#F2F2F2" stop-opacity="0"/>
</linearGradient>
<linearGradient id="paint28_linear_1658_287" x1="22.6193" y1="716.91" x2="22.6193" y2="-22.2585" gradientUnits="userSpaceOnUse">
<stop stop-color="white"/>
<stop offset="0.52" stop-color="#F8F8F8" stop-opacity="0.47"/>
<stop offset="1" stop-color="#F2F2F2" stop-opacity="0"/>
</linearGradient>
<linearGradient id="paint29_linear_1658_287" x1="5.44251" y1="716.909" x2="5.44251" y2="-22.2377" gradientUnits="userSpaceOnUse">
<stop stop-color="white"/>
<stop offset="0.52" stop-color="#F8F8F8" stop-opacity="0.47"/>
<stop offset="1" stop-color="#F2F2F2" stop-opacity="0"/>
</linearGradient>
<linearGradient id="paint30_linear_1658_287" x1="137.999" y1="716.929" x2="137.999" y2="-22.2375" gradientUnits="userSpaceOnUse">
<stop stop-color="white"/>
<stop offset="0.52" stop-color="#F8F8F8" stop-opacity="0.47"/>
<stop offset="1" stop-color="#F2F2F2" stop-opacity="0"/>
</linearGradient>
</defs>
</svg>
