<svg width="1242" height="83" viewBox="0 0 1242 83" fill="none" xmlns="http://www.w3.org/2000/svg">
<mask id="mask0_1658_319" style="mask-type:luminance" maskUnits="userSpaceOnUse" x="-23" y="0" width="1288" height="162">
<path d="M1264.12 0.89209H-22.8389V161.274H1264.12V0.89209Z" fill="white"/>
</mask>
<g mask="url(#mask0_1658_319)">
<g style="mix-blend-mode:color-dodge">
<g style="mix-blend-mode:overlay" opacity="0.7">
<path d="M305.147 -11.0508L267.482 29.3371L173.757 50.9029L131.356 88.9708L155.791 102.245L98.9761 157.521" stroke="#B17B1C" stroke-opacity="0.980392" stroke-width="0.94" stroke-miterlimit="10"/>
<path d="M301.097 10.5352L279.854 34.4612L185.511 56.612L111.657 125.667L137.533 141.261L72.7908 207.068" stroke="#B17B1C" stroke-opacity="0.980392" stroke-width="0.94" stroke-miterlimit="10"/>
<path d="M301.097 10.535C298.386 10.535 296.721 9.90964 297.408 9.16321C299.314 8.11221 301.416 7.64718 303.517 7.81161C306.211 7.81161 307.875 8.41679 307.223 9.16321C305.314 10.2271 303.205 10.6993 301.097 10.535Z" stroke="#B17B1C" stroke-opacity="0.980392" stroke-width="0.94" stroke-miterlimit="10"/>
<path d="M145.89 222.198L199.341 158.227L250.734 143.057L306.262 69.3012L279.459 57.8424L310.174 21.2271" stroke="#B17B1C" stroke-opacity="0.980392" stroke-width="0.94" stroke-miterlimit="10"/>
<path d="M312.474 18.3424C315.253 18.3424 316.987 18.988 316.317 19.7747C315.648 20.5615 312.885 21.2273 310.054 21.2273C307.223 21.2273 305.541 20.5817 306.228 19.7747C308.168 18.6652 310.321 18.1714 312.474 18.3424Z" stroke="#B17B1C" stroke-opacity="0.980392" stroke-width="0.94" stroke-miterlimit="10"/>
<path d="M164.422 126.211L223.622 64.4797L317.57 41.4816L341.37 10.8578L317.364 2.30412L341.319 -25.4348" stroke="#B17B1C" stroke-opacity="0.980392" stroke-width="0.94" stroke-miterlimit="10"/>
<path d="M284.126 -30.801L264.616 -12.3016L277.915 -7.50028L245.947 24.4348" stroke="#B17B1C" stroke-opacity="0.980392" stroke-width="0.94" stroke-miterlimit="10"/>
<path d="M243.287 27.0572C240.455 27.0572 238.825 26.3915 239.666 25.5643C241.734 24.4491 244.001 23.9436 246.272 24.0916C249.087 24.0916 250.717 24.7574 249.91 25.5643C247.842 26.7017 245.566 27.2148 243.287 27.0572Z" stroke="#B17B1C" stroke-opacity="0.980392" stroke-width="0.94" stroke-miterlimit="10"/>
<path d="M211.164 36.0552L249.19 0.206423L235.994 -4.79669L255.556 -22.3479" stroke="#B17B1C" stroke-opacity="0.980392" stroke-width="0.94" stroke-miterlimit="10"/>
<path d="M211.336 35.8936C214.253 35.8936 215.866 36.5997 214.957 37.4671C212.778 38.6522 210.387 39.199 207.99 39.0609C205.056 39.0609 203.443 38.3346 204.386 37.4671C206.561 36.293 208.945 35.7533 211.336 35.8936Z" stroke="#B17B1C" stroke-opacity="0.980392" stroke-width="0.94" stroke-miterlimit="10"/>
<path d="M217.994 132.203L263.552 77.754L247.285 70.3301L270.107 44.6892" stroke="#B17B1C" stroke-opacity="0.980392" stroke-width="0.94" stroke-miterlimit="10"/>
<path d="M272.681 41.7639C275.632 41.7639 277.4 42.4902 276.61 43.398C275.821 44.3058 272.767 45.0321 269.747 45.0321C266.727 45.0321 265.028 44.2856 265.834 43.398C266.641 42.5103 269.729 41.7639 272.681 41.7639Z" stroke="#B17B1C" stroke-opacity="0.980392" stroke-width="0.94" stroke-miterlimit="10"/>
<path d="M149.836 177.735L218.732 100.631L179.917 81.0829L195.583 65.771" stroke="#B17B1C" stroke-opacity="0.980392" stroke-width="0.94" stroke-miterlimit="10"/>
<path d="M199.599 61.817C202.688 61.817 204.404 62.6239 203.391 63.6124C202.379 64.6009 199.033 65.4281 195.91 65.4281C192.787 65.4281 191.088 64.6211 192.117 63.6124C194.444 62.2871 197.017 61.6698 199.599 61.817Z" stroke="#B17B1C" stroke-opacity="0.980392" stroke-width="0.94" stroke-miterlimit="10"/>
<path d="M328.758 58.3266L366.406 5.9151L351.906 0.932175L359.937 -9.51782" stroke="#B17B1C" stroke-opacity="0.980392" stroke-width="0.94" stroke-miterlimit="10"/>
<path d="M332.962 60.0211C332.293 60.9693 329.307 61.7561 326.287 61.7561C323.267 61.7561 321.396 60.9693 322.1 60.0211C322.804 59.073 325.772 58.3064 328.758 58.3064C331.744 58.3064 333.631 59.073 332.962 60.0211Z" stroke="#B17B1C" stroke-opacity="0.980392" stroke-width="0.94" stroke-miterlimit="10"/>
<path d="M227.449 2.70776L183.692 42.0063" stroke="#B17B1C" stroke-opacity="0.980392" stroke-width="0.94" stroke-miterlimit="10"/>
</g>
<g style="mix-blend-mode:overlay" opacity="0.7">
<path d="M463.116 -11.0508L444.052 29.3371L360.246 50.9029L335.365 88.9708L365.908 102.245L334.524 157.521" stroke="#B17B1C" stroke-opacity="0.980392" stroke-width="0.94" stroke-miterlimit="10"/>
<path d="M469.002 10.5354L458.775 34.4615L374.625 56.6123L332.533 125.667L365.599 141.261L331.126 207.068" stroke="#B17B1C" stroke-opacity="0.980392" stroke-width="0.94" stroke-miterlimit="10"/>
<path d="M469.002 10.5352C466.291 10.5352 464.352 9.90981 464.695 9.16338C465.038 8.41695 467.475 7.81177 470.169 7.81177C472.863 7.81177 474.802 8.41695 474.493 9.16338C474.184 9.90981 471.73 10.5352 469.002 10.5352Z" stroke="#B17B1C" stroke-opacity="0.980392" stroke-width="0.94" stroke-miterlimit="10"/>
<path d="M411.192 222.198L435.215 158.227L479.624 143.057L501.193 69.3014L469.139 57.8427L483.004 21.2273" stroke="#B17B1C" stroke-opacity="0.980392" stroke-width="0.94" stroke-miterlimit="10"/>
<path d="M483.982 18.3425C486.762 18.3425 488.769 18.9881 488.495 19.7748C488.22 20.5616 485.698 21.2274 482.884 21.2274C480.07 21.2274 478.079 20.5818 478.388 19.7748C478.697 18.9679 481.202 18.3425 483.982 18.3425Z" stroke="#B17B1C" stroke-opacity="0.980392" stroke-width="0.94" stroke-miterlimit="10"/>
<path d="M385.556 126.212L416.357 64.4799L499.718 41.4818L509.43 10.8581L481.494 2.30436L492.682 -25.4346" stroke="#B17B1C" stroke-opacity="0.980392" stroke-width="0.94" stroke-miterlimit="10"/>
<path d="M433.001 -30.8008L422.019 -12.3014L437.514 -7.50004L420.235 24.435" stroke="#B17B1C" stroke-opacity="0.980392" stroke-width="0.94" stroke-miterlimit="10"/>
<path d="M418.811 27.0576C415.962 27.0576 414.04 26.3919 414.486 25.5647C414.933 24.7376 417.592 24.092 420.424 24.092C423.255 24.092 425.177 24.7578 424.748 25.5647C424.319 26.3717 421.659 27.0576 418.811 27.0576Z" stroke="#B17B1C" stroke-opacity="0.980392" stroke-width="0.94" stroke-miterlimit="10"/>
<path d="M390.824 36.0549L412.342 0.206179L396.847 -4.79694L408.326 -22.3481" stroke="#B17B1C" stroke-opacity="0.980392" stroke-width="0.94" stroke-miterlimit="10"/>
<path d="M390.909 35.8936C393.827 35.8936 395.766 36.5996 395.251 37.4671C394.736 38.3346 391.956 39.0609 389.022 39.0609C386.088 39.0609 384.149 38.3346 384.681 37.4671C385.213 36.5996 388.01 35.8936 390.909 35.8936Z" stroke="#B17B1C" stroke-opacity="0.980392" stroke-width="0.94" stroke-miterlimit="10"/>
<path d="M441.89 132.203L462.396 77.7543L442.714 70.3303L453.73 44.6895" stroke="#B17B1C" stroke-opacity="0.980392" stroke-width="0.94" stroke-miterlimit="10"/>
<path d="M454.983 41.7642C457.934 41.7642 460.028 42.4904 459.65 43.3982C459.273 44.3061 456.561 45.0323 453.576 45.0323C450.59 45.0323 448.428 44.2859 448.925 43.3982C449.423 42.5106 452.031 41.7642 454.983 41.7642Z" stroke="#B17B1C" stroke-opacity="0.980392" stroke-width="0.94" stroke-miterlimit="10"/>
<path d="M394.684 177.735L428.094 100.631L380.288 81.0829L388.902 65.771" stroke="#B17B1C" stroke-opacity="0.980392" stroke-width="0.94" stroke-miterlimit="10"/>
<path d="M391.098 61.8171C394.204 61.8171 396.246 62.6241 395.731 63.6126C395.216 64.6011 392.213 65.4283 389.073 65.4283C385.933 65.4283 383.925 64.6213 384.457 63.6126C384.989 62.6039 388.009 61.8171 391.098 61.8171Z" stroke="#B17B1C" stroke-opacity="0.980392" stroke-width="0.94" stroke-miterlimit="10"/>
<path d="M518.661 58.3268L532.183 5.91534L515.401 0.932419L518.627 -9.51758" stroke="#B17B1C" stroke-opacity="0.980392" stroke-width="0.94" stroke-miterlimit="10"/>
<path d="M523.655 60.0214C523.415 60.9695 520.789 61.7563 517.769 61.7563C514.749 61.7563 512.518 60.9695 512.776 60.0214C513.033 59.0732 515.659 58.3066 518.662 58.3066C521.664 58.3066 523.878 59.0732 523.655 60.0214Z" stroke="#B17B1C" stroke-opacity="0.980392" stroke-width="0.94" stroke-miterlimit="10"/>
<path d="M391.767 2.70776L366.08 42.0063" stroke="#B17B1C" stroke-opacity="0.980392" stroke-width="0.94" stroke-miterlimit="10"/>
</g>
<g style="mix-blend-mode:overlay" opacity="0.7">
<path d="M621.086 -11.0508L620.606 29.3371L546.734 50.9029L539.373 88.9708L576.026 102.245L570.054 157.521" stroke="#B17B1C" stroke-opacity="0.980392" stroke-width="0.94" stroke-miterlimit="10"/>
<path d="M636.924 10.5354L637.679 34.4615L563.739 56.6123L553.409 125.667L593.665 141.261L589.461 207.068" stroke="#B17B1C" stroke-opacity="0.980392" stroke-width="0.94" stroke-miterlimit="10"/>
<path d="M636.924 10.5354C634.196 10.5354 631.982 9.91005 631.965 9.16362C631.948 8.41719 634.127 7.81201 636.838 7.81201C639.55 7.81201 641.746 8.41719 641.78 9.16362C641.815 9.91005 639.635 10.5354 636.924 10.5354Z" stroke="#B17B1C" stroke-opacity="0.980392" stroke-width="0.94" stroke-miterlimit="10"/>
<path d="M676.511 222.198L671.072 158.227L708.497 143.057L696.159 69.3014L658.82 57.8427L655.834 21.2273" stroke="#B17B1C" stroke-opacity="0.980392" stroke-width="0.94" stroke-miterlimit="10"/>
<path d="M655.491 18.3425C658.271 18.3425 660.639 18.9881 660.639 19.7748C660.639 20.5616 658.511 21.2274 655.697 21.2274C652.883 21.2274 650.549 20.5818 650.549 19.7748C650.549 18.9679 652.711 18.3425 655.491 18.3425Z" stroke="#B17B1C" stroke-opacity="0.980392" stroke-width="0.94" stroke-miterlimit="10"/>
<path d="M606.707 126.212L609.075 64.4799L681.865 41.4818L677.489 10.8581L645.624 2.30436L644.045 -25.4346" stroke="#B17B1C" stroke-opacity="0.980392" stroke-width="0.94" stroke-miterlimit="10"/>
<path d="M581.894 -30.8008L579.423 -12.3014L597.132 -7.50004L594.541 24.435" stroke="#B17B1C" stroke-opacity="0.980392" stroke-width="0.94" stroke-miterlimit="10"/>
<path d="M594.335 27.0576C591.486 27.0576 589.187 26.3919 589.324 25.5647C589.461 24.7376 591.761 24.092 594.575 24.092C597.389 24.092 599.723 24.7578 599.585 25.5647C599.448 26.3717 597.166 27.0576 594.335 27.0576Z" stroke="#B17B1C" stroke-opacity="0.980392" stroke-width="0.94" stroke-miterlimit="10"/>
<path d="M570.483 36.0549L575.511 0.206179L557.699 -4.79694L561.097 -22.3481" stroke="#B17B1C" stroke-opacity="0.980392" stroke-width="0.94" stroke-miterlimit="10"/>
<path d="M570.5 35.8938C573.4 35.8938 575.648 36.5999 575.562 37.4674C575.476 38.3348 572.988 39.0611 570.054 39.0611C567.12 39.0611 564.906 38.3348 564.992 37.4674C565.078 36.5999 567.583 35.8938 570.5 35.8938Z" stroke="#B17B1C" stroke-opacity="0.980392" stroke-width="0.94" stroke-miterlimit="10"/>
<path d="M665.786 132.203L661.239 77.7543L638.143 70.3303L637.37 44.6895" stroke="#B17B1C" stroke-opacity="0.980392" stroke-width="0.94" stroke-miterlimit="10"/>
<path d="M637.285 41.7642C640.236 41.7642 642.656 42.4904 642.69 43.3982C642.724 44.3061 640.356 45.0323 637.37 45.0323C634.385 45.0323 631.982 44.2859 631.965 43.3982C631.948 42.5106 634.333 41.7642 637.285 41.7642Z" stroke="#B17B1C" stroke-opacity="0.980392" stroke-width="0.94" stroke-miterlimit="10"/>
<path d="M639.532 177.736L637.473 100.632L580.658 81.0831L582.22 65.7712" stroke="#B17B1C" stroke-opacity="0.980392" stroke-width="0.94" stroke-miterlimit="10"/>
<path d="M582.615 61.8171C585.721 61.8171 588.157 62.6241 588.071 63.6126C587.986 64.6011 585.377 65.4283 582.254 65.4283C579.131 65.4283 576.678 64.6213 576.798 63.6126C576.918 62.6039 579.526 61.8171 582.615 61.8171Z" stroke="#B17B1C" stroke-opacity="0.980392" stroke-width="0.94" stroke-miterlimit="10"/>
<path d="M708.548 58.3268L697.978 5.91534L678.896 0.932419L677.318 -9.51758" stroke="#B17B1C" stroke-opacity="0.980392" stroke-width="0.94" stroke-miterlimit="10"/>
<path d="M714.331 60.0214C714.536 60.9695 712.254 61.7563 709.183 61.7563C706.111 61.7563 703.572 60.9695 703.4 60.0214C703.228 59.0732 705.493 58.3066 708.548 58.3066C711.602 58.3066 714.125 59.0732 714.331 60.0214Z" stroke="#B17B1C" stroke-opacity="0.980392" stroke-width="0.94" stroke-miterlimit="10"/>
<path d="M556.069 2.70801L548.468 42.0065" stroke="#B17B1C" stroke-opacity="0.980392" stroke-width="0.94" stroke-miterlimit="10"/>
</g>
<g style="mix-blend-mode:overlay" opacity="0.7">
<path d="M779.073 -11.0508L797.176 29.3371L733.223 50.9029L743.364 88.9708L786.126 102.245L805.619 157.521" stroke="#B17B1C" stroke-opacity="0.980392" stroke-width="0.94" stroke-miterlimit="10"/>
<path d="M804.829 10.5354L816.601 34.4615L752.854 56.6123L774.303 125.667L821.731 141.261L847.814 207.068" stroke="#B17B1C" stroke-opacity="0.980392" stroke-width="0.94" stroke-miterlimit="10"/>
<path d="M804.83 10.5354C802.101 10.5354 799.682 9.91005 799.253 9.16362C798.824 8.41719 800.797 7.81201 803.491 7.81201C806.185 7.81201 808.639 8.41719 809.051 9.16362C809.463 9.91005 807.524 10.5354 804.83 10.5354Z" stroke="#B17B1C" stroke-opacity="0.980392" stroke-width="0.94" stroke-miterlimit="10"/>
<path d="M941.813 222.198L906.945 158.227L937.386 143.057L891.107 69.3014L848.5 57.8427L828.664 21.2273" stroke="#B17B1C" stroke-opacity="0.980392" stroke-width="0.94" stroke-miterlimit="10"/>
<path d="M827 18.3425C829.762 18.3425 832.37 18.9881 832.817 19.7748C833.263 20.5616 831.358 21.2274 828.561 21.2274C825.764 21.2274 823.139 20.5818 822.727 19.7748C822.315 18.9679 824.22 18.3425 827 18.3425Z" stroke="#B17B1C" stroke-opacity="0.980392" stroke-width="0.94" stroke-miterlimit="10"/>
<path d="M827.84 126.212L801.81 64.4799L864.012 41.4818L845.549 10.8581L809.754 2.30436L795.392 -25.4346" stroke="#B17B1C" stroke-opacity="0.980392" stroke-width="0.94" stroke-miterlimit="10"/>
<path d="M730.786 -30.8008L736.827 -12.3014L756.749 -7.50004L768.846 24.435" stroke="#B17B1C" stroke-opacity="0.980392" stroke-width="0.94" stroke-miterlimit="10"/>
<path d="M769.859 27.0576C767.01 27.0576 764.453 26.3919 764.162 25.5647C763.87 24.7376 765.878 24.092 768.726 24.092C771.575 24.092 774.097 24.7578 774.406 25.5647C774.715 26.3717 772.69 27.0576 769.859 27.0576Z" stroke="#B17B1C" stroke-opacity="0.980392" stroke-width="0.94" stroke-miterlimit="10"/>
<path d="M750.125 36.0549L738.663 0.206179L718.552 -4.79694L713.867 -22.3481" stroke="#B17B1C" stroke-opacity="0.980392" stroke-width="0.94" stroke-miterlimit="10"/>
<path d="M750.074 35.8938C752.991 35.8938 755.582 36.5999 755.874 37.4674C756.165 38.3348 754.02 39.0611 751.086 39.0611C748.152 39.0611 745.561 38.3348 745.303 37.4674C745.046 36.5999 747.174 35.8938 750.074 35.8938Z" stroke="#B17B1C" stroke-opacity="0.980392" stroke-width="0.94" stroke-miterlimit="10"/>
<path d="M889.666 132.203L860.083 77.7543L833.571 70.3303L820.994 44.6895" stroke="#B17B1C" stroke-opacity="0.980392" stroke-width="0.94" stroke-miterlimit="10"/>
<path d="M819.535 41.7642C822.487 41.7642 825.249 42.4904 825.695 43.3982C826.142 44.3061 824.117 45.0323 821.131 45.0323C818.145 45.0323 815.4 44.2859 814.971 43.3982C814.542 42.5106 816.618 41.7642 819.535 41.7642Z" stroke="#B17B1C" stroke-opacity="0.980392" stroke-width="0.94" stroke-miterlimit="10"/>
<path d="M884.398 177.736L846.836 100.632L781.012 81.0831L775.538 65.7712" stroke="#B17B1C" stroke-opacity="0.980392" stroke-width="0.94" stroke-miterlimit="10"/>
<path d="M774.131 61.8171C777.237 61.8171 780.051 62.6241 780.412 63.6126C780.772 64.6011 778.541 65.4283 775.418 65.4283C772.295 65.4283 769.481 64.6213 769.138 63.6126C768.795 62.6039 771.025 61.8171 774.131 61.8171Z" stroke="#B17B1C" stroke-opacity="0.980392" stroke-width="0.94" stroke-miterlimit="10"/>
<path d="M898.452 58.3268L863.755 5.91534L842.392 0.932419L836.008 -9.51758" stroke="#B17B1C" stroke-opacity="0.980392" stroke-width="0.94" stroke-miterlimit="10"/>
<path d="M905.024 60.0214C905.659 60.9695 903.737 61.7563 900.734 61.7563C897.731 61.7563 894.762 60.9695 894.145 60.0214C893.527 59.0732 895.466 58.3066 898.452 58.3066C901.437 58.3066 904.372 59.0732 905.024 60.0214Z" stroke="#B17B1C" stroke-opacity="0.980392" stroke-width="0.94" stroke-miterlimit="10"/>
<path d="M720.371 2.70801L730.855 42.0065" stroke="#B17B1C" stroke-opacity="0.980392" stroke-width="0.94" stroke-miterlimit="10"/>
</g>
<g style="mix-blend-mode:overlay" opacity="0.7">
<path d="M937.043 -11.051L973.73 29.3369L919.712 50.9026L947.373 88.9706L996.243 102.245L1041.15 157.521" stroke="#B17B1C" stroke-opacity="0.980392" stroke-width="0.94" stroke-miterlimit="10"/>
<path d="M972.734 10.5349L995.522 34.461L941.968 56.6118L995.179 125.667L1049.78 141.261L1106.15 207.068" stroke="#B17B1C" stroke-opacity="0.980392" stroke-width="0.94" stroke-miterlimit="10"/>
<path d="M972.735 10.5349C970.605 10.6893 968.476 10.2178 966.54 9.16312C965.837 8.41669 967.45 7.81151 970.144 7.81151C972.272 7.65843 974.399 8.12256 976.338 9.16312C977.076 9.90955 975.463 10.5349 972.735 10.5349Z" stroke="#B17B1C" stroke-opacity="0.980392" stroke-width="0.94" stroke-miterlimit="10"/>
<path d="M1207.12 222.198L1142.82 158.227L1166.28 143.057L1086.06 69.3012L1038.18 57.8424L1001.49 21.2271" stroke="#B17B1C" stroke-opacity="0.980392" stroke-width="0.94" stroke-miterlimit="10"/>
<path d="M998.491 18.3422C1000.72 18.1924 1002.95 18.6841 1004.98 19.7745C1005.78 20.5815 1004.19 21.2271 1001.39 21.2271C999.154 21.3856 996.919 20.8863 994.887 19.7745C994.098 18.9878 995.711 18.3422 998.491 18.3422Z" stroke="#B17B1C" stroke-opacity="0.980392" stroke-width="0.94" stroke-miterlimit="10"/>
<path d="M1048.99 126.211L994.544 64.4797L1046.18 41.4816L1013.61 10.8578L973.884 2.30412L946.755 -25.4348" stroke="#B17B1C" stroke-opacity="0.980392" stroke-width="0.94" stroke-miterlimit="10"/>
<path d="M879.662 -30.8013L894.23 -12.3019L916.349 -7.50053L943.152 24.4345" stroke="#B17B1C" stroke-opacity="0.980392" stroke-width="0.94" stroke-miterlimit="10"/>
<path d="M945.365 27.0575C942.534 27.0575 939.668 26.3918 938.999 25.5646C938.33 24.7375 940.063 24.0919 942.877 24.0919C945.072 23.9189 947.268 24.4267 949.243 25.5646C949.947 26.3918 948.231 27.0575 945.365 27.0575Z" stroke="#B17B1C" stroke-opacity="0.980392" stroke-width="0.94" stroke-miterlimit="10"/>
<path d="M929.784 36.0549L901.814 0.206179L879.404 -4.79694L866.638 -22.3481" stroke="#B17B1C" stroke-opacity="0.980392" stroke-width="0.94" stroke-miterlimit="10"/>
<path d="M929.664 35.8933C932.564 35.8933 935.481 36.5994 936.168 37.4669C936.854 38.3343 935.052 39.0606 932.118 39.0606C929.184 39.0606 926.267 38.3343 925.598 37.4669C924.928 36.5994 926.747 35.8933 929.664 35.8933Z" stroke="#B17B1C" stroke-opacity="0.980392" stroke-width="0.94" stroke-miterlimit="10"/>
<path d="M1113.56 132.203L1058.91 77.7543L1029 70.3303L1004.62 44.6895" stroke="#B17B1C" stroke-opacity="0.980392" stroke-width="0.94" stroke-miterlimit="10"/>
<path d="M1001.87 41.7639C1004.82 41.7639 1007.91 42.4902 1008.74 43.398C1009.56 44.3058 1007.91 45.0321 1004.93 45.0321C1002.56 45.1832 1000.19 44.6208 998.062 43.398C997.204 42.5103 998.92 41.7639 1001.87 41.7639Z" stroke="#B17B1C" stroke-opacity="0.980392" stroke-width="0.94" stroke-miterlimit="10"/>
<path d="M1129.23 177.735L1056.2 100.631L981.383 81.0829L968.856 65.771" stroke="#B17B1C" stroke-opacity="0.980392" stroke-width="0.94" stroke-miterlimit="10"/>
<path d="M965.648 61.8167C968.754 61.8167 971.928 62.6236 972.752 63.6121C973.575 64.6006 971.722 65.4278 968.582 65.4278C965.442 65.4278 962.267 64.6208 961.478 63.6121C960.689 62.6034 962.542 61.8167 965.648 61.8167Z" stroke="#B17B1C" stroke-opacity="0.980392" stroke-width="0.94" stroke-miterlimit="10"/>
<path d="M1088.34 58.3268L1029.53 5.91534L1005.89 0.932419L994.681 -9.51758" stroke="#B17B1C" stroke-opacity="0.980392" stroke-width="0.94" stroke-miterlimit="10"/>
<path d="M1095.7 60.0214C1096.78 60.9696 1095.22 61.7564 1092.27 61.7564C1089.73 61.8849 1087.2 61.2896 1084.91 60.0214C1083.84 59.0733 1085.42 58.3067 1088.34 58.3067C1090.87 58.1759 1093.4 58.764 1095.7 60.0214Z" stroke="#B17B1C" stroke-opacity="0.980392" stroke-width="0.94" stroke-miterlimit="10"/>
<path d="M884.689 2.70776L913.225 42.0063" stroke="#B17B1C" stroke-opacity="0.980392" stroke-width="0.94" stroke-miterlimit="10"/>
</g>
</g>
</g>
</svg>
