<svg width="222" height="488" viewBox="0 0 222 488" fill="none" xmlns="http://www.w3.org/2000/svg">
<path d="M180.3 342.84L180.5 342.45L184.8 344.51C184.29 345.51 183.8 346.51 183.25 347.51C182.7 348.51 182.25 349.51 181.73 350.51L180.73 352.51L192.82 358.89L193.82 356.89L195.32 353.97C196.25 352.16 197.19 350.35 198.11 348.46L202.9 337.88L185.97 330.56C186.14 330.11 186.32 329.67 186.49 329.23L188.35 324.51C188.53 324.03 188.73 323.56 188.92 323.08C189.27 322.2 189.62 321.33 189.92 320.4L190.58 318.4L195.08 319.94L194.36 322.06C194.05 322.94 193.71 323.8 193.36 324.66C193.16 325.18 192.95 325.66 192.75 326.2L191.95 328.28L204.7 333.21L205.5 331.13L206.1 329.61C206.48 328.66 206.86 327.71 207.21 326.72L210.45 317.18C210.62 316.67 210.8 316.18 210.96 315.62L212.2 311.27L194.55 305.98L196.42 299.53L197.87 293.26L202.52 294.26L200.52 302.94L213.76 306.34L216.93 292.62L218.57 283.51L200.42 280.29L200.79 278.2C200.94 277.27 201.05 276.34 201.17 275.41C201.23 274.89 201.29 274.41 201.36 273.85L201.91 269.54C201.91 269.12 202.02 268.7 202.08 268.28C202.14 267.86 202.15 267.71 202.19 267.42L206.92 267.87C206.92 268.15 206.85 268.43 206.81 268.71C206.75 269.17 206.69 269.62 206.64 270.06L205.79 276.71L219.42 278.53L219.68 276.28C219.81 275.2 219.95 274.11 220.1 273.03C220.36 271.03 220.63 269.03 220.8 266.97L221.67 255.45L203.24 254.39C203.24 254.02 203.24 253.65 203.24 253.29C203.24 252.93 203.24 252.5 203.24 252.1L203.46 243.39V241.25L208.21 241.16L208.27 243.33L208.1 250.07L221.77 250.32L221.93 243.32L221.68 233.32C221.68 231.95 221.62 230.53 221.48 229.1L221.27 226.96L202.92 228.03L202.42 221.63C202.26 219.78 202.01 217.92 201.77 216.13C201.77 215.81 201.69 215.49 201.64 215.13L206.36 214.49C206.36 214.83 206.44 215.16 206.49 215.49C206.73 217.33 206.98 219.24 207.15 221.1L207.35 223.33L220.96 222.01L220.76 219.81C220.58 217.81 220.31 215.75 220.05 213.81C219.91 212.73 219.76 211.64 219.63 210.51C219.56 209.98 219.49 209.45 219.43 208.91C219.3 207.91 219.17 206.86 219 205.82L217.79 199.07L199.65 202.25C198.97 198.41 198.09 194.6 197.23 190.9C197.12 190.41 197 189.9 196.89 189.43L201.49 188.24L203.49 196.92L216.85 194.02L214.2 182.6L211.02 171.43L193.37 176.73L189.87 166.4L189.11 164.46L193.55 162.74L194.34 164.74L196.5 171.13L209.42 166.72L207.19 160.16C206.84 159.22 206.47 158.28 206.09 157.35L203.75 151.41C203.19 149.98 202.62 148.51 201.93 147.06L201.01 145.12L184.14 152.43L181.42 146.34L178.42 140.6L182.62 138.38L186.62 146.31L198.94 140.39L196.8 136.18C194.37 131.39 191.86 126.43 189.02 121.72L187.89 119.84L171.99 129.06L170.92 127.2C170.44 126.41 169.92 125.64 169.44 124.86C169.15 124.42 168.86 123.97 168.58 123.52L165.08 118.06L168.99 115.36L173.8 122.86L185.42 115.53L181.71 109.75C180.9 108.47 180.02 107.1 179.06 105.8L172.35 96.38L157.51 107.53L152.03 100.53L149.24 97.3L152.81 94.17L155.7 97.5L158.48 101.05L169.11 92.45L166.24 88.81L158.51 79.89L153.75 74.89L140.36 87.53L137.36 84.36L131.11 78.41L134.3 74.89L140.76 81.04L150.33 71.28L141.89 63.28L133.16 55.72L121.28 69.79C120.67 69.3 120.06 68.79 119.47 68.37L116.07 65.69C115.66 65.38 115.26 65.06 114.86 64.69C114.12 64.1 113.38 63.51 112.58 62.92L110.88 61.72L113.65 57.85L115.47 59.15C116.22 59.7 116.95 60.28 117.69 60.87C118.11 61.21 118.54 61.55 118.98 61.87L120.74 63.24L129.12 52.53L127.36 51.16L126.05 50.16C125.25 49.52 124.45 48.89 123.59 48.25L119.76 45.53L117.57 43.97C115.77 42.68 113.91 41.34 111.95 40.15L110.11 39.02L100 54.32L99.07 53.72C97.56 52.72 96.07 51.78 94.48 50.8L88.89 47.58L91.19 43.42L98.91 47.87L105.99 36.18L95.99 30.43C94.75 29.68 93.47 29.03 92.24 28.43L85.64 25.04L77.34 41.49C76.66 41.14 75.98 40.79 75.27 40.49L71.32 38.7C70.56 38.37 69.81 38.02 69.05 37.7C67.86 37.15 66.65 36.6 65.41 36.08L67.21 31.68C68.45 32.19 69.68 32.76 70.95 33.34L73.33 34.42L75.33 35.31L80.97 22.93L78.97 21.98C74.05 19.64 68.97 17.65 63.97 15.73L59.4 13.95L53.06 31.36L46.99 29.3C45.5 28.76 43.99 28.3 42.71 27.99L40.71 27.41L41.98 22.83L44.17 23.45C45.67 23.87 47.01 24.25 48.3 24.72L50.48 25.51L54.65 12.51L52.65 11.78C51.14 11.24 49.65 10.78 48.07 10.37L39.07 7.8L32.42 6.17L28.17 24.09L23.9 23.09L15.26 21.53L15.99 16.84L24.76 18.41L27.42 5.01L15.86 2.95C13.86 2.67 11.86 2.41 9.85999 2.16L6.59003 1.74L4.34998 1.45L2.23999 19.76C0.72998 19.59 -0.759979 19.48 -2.23999 19.38L-4.23999 19.22L-6.34003 19.06C-7.77002 18.95 -9.24002 18.83 -10.72 18.76L-10.54 14.01C-9.06 14.08 -7.53998 14.2 -6.03998 14.32L-3.85999 14.49L-1.65002 14.64L-0.650024 1.08L-2.82001 0.86C-7.51001 0.4 -12.26 0.29 -16.82 0.19C-18.37 0.19 -19.93 0.12 -21.48 0.0700002L-23.78 0V18.53L-26.05 18.59C-29.61 18.67 -33.26 18.75 -36.91 19.03L-37.27 14.32H-36.86C-34.73 14.15 -32.72 13.99 -30.69 13.99H-28.37L-28.9 0.32H-31.08C-33.39 0.32 -35.69 0.51 -37.91 0.69L-40.58 0.89L-41.82 0.98C-44.51 1.18 -47.3 1.39 -50.05 1.8L-52.19 2.12L-50.05 20.37L-51.12 20.5C-52.91 20.73 -54.7 20.95 -56.54 21.23L-62.89 22.37L-63.81 17.7L-55.03 16.13L-57.15 2.63L-69.32 4.81C-69.85 4.9 -70.37 4.99 -70.92 5.11L-79.92 7.18L-75.58 25.1L-77.74 25.59L-88.23 28.59L-89.69 24.06L-81.12 21.63L-84.8 8.46L-93.8 11.03L-107.09 15.53L-100.73 32.93L-101.6 33.27C-105.27 34.71 -109.05 36.19 -112.75 37.86L-114.75 33.57L-114.11 33.27C-112.26 32.42 -110.51 31.62 -108.7 30.95L-106.52 30.15L-111.72 17.5L-113.72 18.25C-115.78 19 -117.77 19.92 -119.72 20.8L-122.41 22.02L-126.58 23.92C-127.5 24.36 -128.41 24.83 -129.32 25.3L-130.76 26.04L-132.76 27.04L-124.49 43.53L-126.49 44.53C-127.77 45.17 -129.13 45.86 -130.41 46.64L-136.01 49.86L-138.47 45.79L-130.75 41.35L-137.38 29.35L-147.54 35.2L-157.3 41.53L-147.14 56.9C-147.53 57.16 -147.91 57.43 -148.29 57.71L-156.04 63.22L-157.68 64.53L-160.58 60.73L-158.87 59.38L-153.38 55.48L-161.38 44.37L-167.05 48.37L-176.22 55.57C-176.62 55.9 -177.01 56.24 -177.4 56.57L-179.69 58.57L-167.83 72.68L-172.83 77.06L-177.58 81.53L-180.91 78.14L-174.46 71.99L-183.58 61.88L-193.76 71.6L-200.15 78.3L-186.78 90.94L-188.29 92.53L-191.14 95.82C-191.73 96.53 -192.34 97.22 -192.95 97.91C-193.75 98.83 -194.56 99.76 -195.36 100.72L-199.06 97.72C-198.27 96.72 -197.44 95.82 -196.58 94.84C-195.94 94.11 -195.3 93.38 -194.67 92.63L-193.25 90.96L-203.5 82.03L-204.97 83.66C-208.62 87.71 -211.97 92.05 -215.27 96.24L-218.18 99.97L-203.33 111.05L-207.13 116.38C-207.94 117.48 -208.66 118.61 -209.36 119.71L-210.76 121.88L-214.76 119.34L-213.27 117.01C-212.56 115.89 -211.88 114.84 -211.14 113.83L-209.76 111.98L-221.03 104.23L-222.31 105.96C-223.18 107.14 -223.96 108.36 -224.71 109.54L-227.58 113.93C-227.87 114.39 -228.16 114.85 -228.46 115.3C-229.02 116.17 -229.59 117.04 -230.12 117.95L-233.57 123.95L-217.58 133.15C-219.68 136.81 -221.58 140.58 -223.44 144.25L-223.64 144.64L-227.94 142.58C-227.43 141.58 -226.94 140.58 -226.38 139.58C-225.82 138.58 -225.38 137.63 -224.87 136.64L-223.87 134.69L-235.96 128.31L-236.96 130.31L-238.45 133.2C-239.38 135 -240.3 136.79 -241.22 138.67L-245.98 149.19L-229.1 156.53C-229.3 157.01 -229.49 157.53 -229.68 157.98L-231.58 162.66C-231.76 163.14 -231.95 163.66 -232.14 164.09C-232.5 164.97 -232.85 165.85 -233.14 166.77L-233.8 168.77L-238.3 167.23L-237.58 165.11C-237.27 164.23 -236.92 163.37 -236.58 162.51C-236.37 162 -236.17 161.51 -235.97 160.98L-235.17 158.9L-247.92 153.97L-248.72 156.05L-249.32 157.57C-249.7 158.57 -250.09 159.49 -250.45 160.5L-251.96 164.95C-252.25 165.86 -252.57 166.77 -252.88 167.68C-253.58 169.68 -254.31 171.82 -254.88 173.98L-255.42 176.06L-237.82 181.33L-239.6 187.63L-241.05 193.9L-245.7 192.9L-243.7 184.22L-256.94 180.81L-260.09 194.44L-261.72 203.5L-243.58 206.66L-243.98 208.89C-244.13 209.82 -244.24 210.75 -244.36 211.68C-244.42 212.2 -244.48 212.68 -244.55 213.23L-245.08 217.53C-245.13 217.95 -245.19 218.37 -245.24 218.79L-245.36 219.65L-250.09 219.2C-250.09 218.92 -250.02 218.64 -249.98 218.35C-249.92 217.9 -249.86 217.45 -249.81 217.02L-248.96 210.36L-262.5 208.53L-263.38 215.42C-263.44 215.87 -263.49 216.31 -263.55 216.76C-263.7 217.87 -263.85 219.02 -263.91 220.16L-264.8 231.75L-246.36 232.8C-246.36 233.13 -246.36 233.45 -246.36 233.8V235.01L-246.58 243.71L-246.52 245.85L-251.28 245.94L-251.34 243.77L-251.17 237.03L-264.84 236.77L-265 243.77L-264.74 254.01C-264.74 255.26 -264.69 256.54 -264.56 257.85L-264.35 259.97L-246 258.92L-245.5 265.51C-245.33 267.37 -245.09 269.22 -244.85 271.02C-244.85 271.34 -244.77 271.66 -244.72 272.02L-249.44 272.66C-249.44 272.33 -249.52 271.99 -249.57 271.66C-249.81 269.82 -250.06 267.91 -250.23 266.05L-250.43 263.81L-264.04 265.13L-263.84 267.34C-263.65 269.39 -263.38 271.44 -263.12 273.42C-262.98 274.51 -262.83 275.6 -262.7 276.73C-262.62 277.27 -262.56 277.81 -262.49 278.35C-262.37 279.35 -262.24 280.35 -262.06 281.45L-260.84 288.25L-242.72 285.05C-242.04 288.85 -241.16 292.61 -240.31 296.26C-240.2 296.75 -240.08 297.26 -239.97 297.74L-244.58 298.83L-246.58 290.15L-259.94 293.05L-257.31 304.4L-254.15 315.5L-236.58 310.21V310.34L-233.09 320.67L-232.32 322.6L-236.76 324.32L-237.55 322.32L-239.71 315.94L-252.58 320.36L-250.33 326.99L-246.91 335.69C-246.35 337.13 -245.74 338.69 -245.03 340.16L-244.1 342.1L-227.24 334.79L-224.54 340.79L-221.58 346.53L-225.78 348.76L-229.83 340.82L-242.15 346.74L-239.87 351.22C-237.51 355.88 -235.06 360.7 -232.3 365.28L-231.17 367.16L-215.27 357.95L-214.14 359.95C-213.65 360.74 -213.14 361.52 -212.64 362.3C-212.35 362.74 -212.07 363.18 -211.79 363.62L-208.29 369.09L-212.2 371.78L-217.01 364.28L-228.58 371.53L-223.58 379.35C-223.29 379.79 -222.98 380.22 -222.67 380.65L-215.45 390.8L-200.58 379.72L-195.18 386.59L-192.38 389.82L-195.96 392.95L-198.85 389.62L-201.63 386.07L-212.26 394.67L-209.4 398.3L-201.73 407.15L-197 412.15L-183.58 399.47L-180.47 402.73L-174.22 408.68L-177.41 412.2L-183.87 406.06L-193.44 415.82L-184.94 423.9L-176.16 431.51L-164.3 417.38C-163.74 417.84 -163.17 418.28 -162.6 418.72L-159.19 421.4L-157.97 422.4C-157.23 422.99 -156.5 423.57 -155.71 424.16L-154.01 425.36L-156.77 429.23L-158.59 427.93C-159.34 427.38 -160.07 426.8 -160.79 426.23L-162.11 425.23L-163.87 423.86L-172.24 434.66L-170.48 436.02L-169.21 437.02C-168.41 437.65 -167.61 438.28 -166.75 438.92L-162.95 441.63C-162.17 442.17 -161.41 442.72 -160.64 443.27C-158.9 444.52 -157.1 445.81 -155.2 446.97L-153.36 448.09L-143.25 432.76L-142.25 433.43C-140.75 434.43 -139.25 435.37 -137.66 436.35L-132.07 439.56L-134.37 443.72L-142.09 439.28L-149.17 450.97L-139.12 456.75C-137.96 457.45 -136.77 458.06 -135.62 458.65L-128.71 462.19L-120.42 445.74C-119.78 446.08 -119.13 446.4 -118.47 446.74L-114.47 448.53C-113.71 448.86 -112.96 449.21 -112.2 449.53C-111.02 450.07 -109.81 450.62 -108.57 451.14L-110.37 455.54C-111.61 455.02 -112.85 454.46 -114.13 453.87L-116.49 452.8L-118.49 451.91L-124.13 464.29L-122.13 465.23C-117.37 467.51 -112.41 469.44 -107.61 471.3L-102.71 473.22L-96.36 455.82L-90.16 457.91C-88.78 458.42 -87.4 458.81 -85.88 459.23L-83.88 459.8L-85.16 464.39L-87.34 463.76C-88.63 463.4 -90.1 463 -91.47 462.5L-93.65 461.71L-97.82 474.71L-95.82 475.44C-94.22 476.02 -92.54 476.49 -91.2 476.86L-82.09 479.44L-75.38 480.99L-71.14 463.07L-67 464.07L-58.4 465.61L-59.13 470.31L-67.9 468.74L-70.58 482.07L-59.14 484.07C-57.14 484.36 -55.14 484.61 -53.14 484.86L-49.91 485.27L-47.67 485.57L-45.54 467.26C-43.98 467.43 -42.44 467.55 -40.92 467.66L-38.92 467.81L-36.8 467.98C-35.37 468.09 -33.92 468.21 -32.45 468.27L-32.62 473.02C-34.1 472.96 -35.62 472.84 -37.12 472.72L-39.3 472.55L-41.51 472.39L-42.51 485.96L-40.34 486.18C-35.53 486.65 -30.65 486.76 -25.94 486.86C-24.46 486.86 -22.94 486.92 -21.5 486.97L-19.2 487.03V468.53L-17.08 468.48C-13.52 468.4 -9.86002 468.31 -6.21002 468.04L-5.84003 472.75H-6.26001C-8.39001 472.93 -10.4 473.09 -12.43 473.09H-14.75L-14.22 486.75H-12.07C-9.76999 486.75 -7.49002 486.56 -5.28003 486.38L-2.64001 486.18L-1.03003 486.06C1.51996 485.87 4.15002 485.68 6.76001 485.29L8.89001 484.97L6.77002 466.72L7.94 466.57C9.73999 466.35 11.54 466.12 13.39 465.84L19.74 464.7L20.65 469.37L11.88 470.94L14 484.44L25.41 482.44C27 482.18 28.56 481.83 30.13 481.44L36.88 479.88L32.62 461.96L34.62 461.49L45.11 458.49L46.57 463.01L38 465.45L41.68 478.61L50.68 476.06L63.84 471.61L57.42 454.23L58.42 453.85C62.1 452.41 65.88 450.93 69.57 449.25L71.57 453.55L70.93 453.85C69.08 454.7 67.33 455.5 65.52 456.17L63.34 456.96L68.54 469.62L70.54 468.87C72.61 468.11 74.61 467.19 76.54 466.3L79.26 465.07L83.58 463.07C84.49 462.62 85.39 462.16 86.29 461.7L87.78 460.93L89.78 459.93L81.42 443.53L83.28 442.58C84.55 441.94 85.9 441.25 87.19 440.47L92.79 437.25L95.26 441.31L87.53 445.76L94.16 457.71L104.26 451.9L113.99 445.68L103.84 430.3H103.9L105.11 429.45L112.85 423.94L114.49 422.65L117.41 426.4L115.7 427.75L110.21 431.65L118.21 442.76L123.91 438.69L133.19 431.4L136.62 428.4L124.76 414.3L129.76 410L134.42 405.53L137.75 408.92L131.3 415.08L140.5 425.19L150.58 415.53L156.93 408.87L143.53 396.22L145.13 394.54L147.97 391.25C148.57 390.537 149.18 389.837 149.8 389.15C150.59 388.24 151.41 387.31 152.2 386.35L155.9 389.35C155.11 390.35 154.28 391.25 153.42 392.23C152.78 392.96 152.14 393.69 151.51 394.44L150.09 396.11L160.34 405.05L161.81 403.42C165.58 399.24 169.06 394.75 172.43 390.42L175.1 386.99L160.25 375.93L163.97 370.7C164.78 369.61 165.5 368.48 166.2 367.39L167.6 365.2L171.6 367.74L170.11 370.07C169.39 371.19 168.72 372.25 167.97 373.25L166.59 375.11L177.86 382.85L179.14 381.13C180.01 379.95 180.8 378.72 181.55 377.54L184.32 373.23C184.6 372.78 184.89 372.33 185.18 371.88C185.74 371.02 186.3 370.15 186.85 369.23L190.27 363.28L174.34 354.05C176.49 350.35 178.42 346.53 180.3 342.84ZM183.03 366.97C182.52 367.82 182.03 368.64 181.46 369.46C181.16 369.92 180.86 370.38 180.58 370.83L177.82 375.14C177.47 375.67 177.14 376.2 176.82 376.71L172.9 374.02C173.25 373.5 173.58 373.02 173.9 372.46L177.81 366.37L166.26 359.07L162.46 365C161.77 366.07 161.13 367.08 160.39 368.08L154.12 376.9L168.81 387.85C165.97 391.5 163.04 395.26 159.97 398.85L156.37 395.7L156.8 395.21C158.15 393.68 159.54 392.08 160.8 390.38L162.09 388.66L151.42 380.03L150.04 381.89C148.93 383.37 147.71 384.76 146.43 386.23C145.8 386.94 145.17 387.66 144.57 388.37L141.81 391.57L140.27 393.19L137.21 396.43L150.62 409.09L147.42 412.4L140.67 418.83L137.48 415.32L144.05 409.05L134.48 399.29L126.71 406.71L118.51 413.81L130.42 427.9L121.28 435.08L119.28 436.51L116.51 432.65L118.43 431.28L123.72 427.13L115.33 416.34L110.26 420.34L102.58 425.8C102.22 426.05 101.87 426.31 101.53 426.53H101.42V426.48L97.94 428.78L97.84 428.85L97.7 428.94L107.85 444.31L102.02 448.04L95.93 451.54L93.63 447.38L101.5 442.85L94.42 431.2L85 436.62C83.8 437.34 82.54 437.99 81.33 438.62L75.52 441.62L83.82 458.07C83.11 458.44 82.4 458.8 81.72 459.13L77.42 461L74.65 462.25C73.39 462.83 72.18 463.39 70.97 463.9L69.16 459.5C70.39 458.98 71.58 458.43 72.75 457.89C73.63 457.49 74.5 457.09 75.38 456.71L77.45 455.8L71.74 443.3L69.74 444.3C65.56 446.3 61.12 448.04 56.84 449.71L55.23 450.35L51.77 451.61L58.08 468.9L49.35 471.85L44.81 473.14L43.5 468.53L47.96 467.26L52.17 465.84L47.98 452.84L43.9 454.22L33.57 457.16L27.24 458.63L31.49 476.53L29.11 477.08C27.61 477.44 26.11 477.78 24.65 478.02L17.65 479.26L16.91 474.57L25.85 472.96L23.25 459.53L12.66 461.43C10.9 461.7 9.14001 461.92 7.38 462.14L6.25 462.28L1.82001 462.79L3.95001 481.15C2.18002 481.34 0.390015 481.48 -1.35999 481.61L-2.97003 481.73L-5.65002 481.93C-7.12003 482.05 -8.53998 482.16 -9.93999 482.23L-10.13 477.48C-8.69998 477.41 -7.28998 477.3 -5.90997 477.18C-5.03998 477.12 -4.17999 477.04 -3.31 476.99L-1.06 476.84L-2.13 463.13L-4.39001 463.36C-8.62003 463.79 -12.98 463.89 -17.19 463.99C-18.63 463.99 -20.07 464.05 -21.52 464.1L-23.67 464.17V482.53L-25.85 482.48C-29.76 482.4 -33.79 482.31 -37.74 482.01L-37.38 477.25C-35.13 477.43 -32.8 477.61 -30.45 477.61H-28.3L-27.79 463.94H-30.1C-32.18 463.94 -34.24 463.78 -36.41 463.6L-38.55 463.44L-40.55 463.29C-42.07 463.18 -43.55 463.05 -44.97 462.89L-47.84 462.56L-49.18 462.35V462.4H-49.39L-51.51 480.7L-52.51 480.57C-54.51 480.32 -56.51 480.08 -58.36 479.8L-65.3 478.53L-64.39 473.86L-55.44 475.46L-53.35 461.96L-66.06 459.68L-74.48 457.68L-78.71 475.61L-81.01 475.08L-90.01 472.53L-92.29 471.88L-90.84 467.35C-90.05 467.59 -89.29 467.8 -88.58 468L-82.1 469.84L-78.44 456.67L-84.74 454.88C-86.23 454.47 -87.47 454.11 -88.74 453.65L-95.88 451.23L-99.07 450.06L-105.38 467.35L-106.04 467.09C-110.04 465.51 -114.26 463.89 -118.28 462.09L-116.28 457.74L-115.98 457.88C-114.03 458.78 -111.98 459.7 -109.91 460.47L-107.91 461.22L-102.73 448.53L-104.91 447.74C-106.74 447.07 -108.5 446.26 -110.36 445.4C-111.14 445.05 -111.91 444.69 -112.67 444.4L-116.58 442.6C-117.39 442.23 -118.17 441.82 -118.95 441.41L-120.37 440.68L-122.37 439.68L-130.65 456.12L-133.58 454.62C-134.71 454.04 -135.78 453.49 -136.84 452.85L-142.98 449.32L-140.52 445.25L-132.64 449.79L-126.03 437.79L-135.36 432.43C-136.86 431.5 -138.36 430.55 -139.81 429.59L-140.89 428.9L-144.58 426.53L-154.76 441.96C-155.87 441.21 -156.97 440.42 -158.11 439.6L-160.45 437.93L-164.2 435.27C-164.83 434.8 -165.45 434.27 -166.07 433.82L-163.16 430.07C-162.55 430.55 -161.93 431.07 -161.28 431.51L-155.8 435.41L-147.8 424.29L-153.12 420.53C-153.83 420 -154.53 419.45 -155.23 418.89L-156.48 417.89L-159.89 415.21C-161.01 414.34 -162.09 413.49 -163.1 412.58L-164.82 411.03L-176.69 425.17L-181.98 420.6L-187.12 415.71L-183.79 412.31L-177.21 418.58L-168.02 408.45L-177.36 399.58L-180.36 396.41L-183.42 393.17L-196.85 405.83L-198.45 404.15L-205.97 395.46L-206.05 395.37L-202.35 392.37L-196.41 399.24L-186.12 390.24L-191.75 383.75L-199.75 373.54L-214.42 384.54L-219.01 378.1C-219.29 377.71 -219.57 377.32 -219.81 376.95L-222.39 372.95L-218.39 370.41L-215.93 374.25C-215.64 374.68 -215.35 375.09 -215.05 375.5L-213.33 377.95L-202.07 370.19L-203.83 367.7C-204.09 367.35 -204.34 367 -204.56 366.7L-208.05 361.24C-208.34 360.8 -208.63 360.35 -208.91 359.9C-209.4 359.15 -209.91 358.4 -210.33 357.69L-211.44 355.75L-213.67 351.89L-229.67 361.15C-231.91 357.26 -233.96 353.2 -235.96 349.26L-236.18 348.83L-231.89 346.77L-227.76 354.86L-215.68 348.46L-220.56 338.91L-225.03 329.04L-241.91 336.37C-242.22 335.63 -242.51 334.88 -242.79 334.16L-246.18 325.56L-246.97 323.23L-242.48 321.68L-241.72 323.92L-239.26 330.17L-226.52 325.23L-228.88 319.23L-232.31 309.11V309.02H-232.25L-233.39 305.22L-233.47 304.91L-233.52 304.75L-251.16 310.04L-253.05 303.4L-254.58 296.44L-249.93 295.44L-247.88 304.29L-234.65 300.87L-235.13 298.76L-235.97 295.15C-236.97 290.85 -237.97 286.42 -238.7 282.02L-239.05 279.78L-257.24 282.99L-257.67 280.57C-257.83 279.64 -257.95 278.7 -258.07 277.71C-258.14 277.14 -258.21 276.58 -258.28 276.06C-258.41 274.95 -258.56 273.85 -258.7 272.74C-258.84 271.63 -259.03 270.28 -259.17 269.04L-254.44 268.58C-254.3 269.78 -254.14 270.97 -253.99 272.14C-253.84 273.31 -253.7 274.27 -253.58 275.34L-253.31 277.59L-239.77 275.74L-240.08 273.53C-240.2 272.46 -240.34 271.4 -240.48 270.33C-240.72 268.59 -240.95 266.78 -241.11 265.05L-241.66 257.79L-241.87 254.11L-260.3 255.18C-260.3 254.73 -260.3 254.27 -260.3 253.81L-260.58 243.71L-260.52 241.28L-255.77 241.37V243.74L-255.6 250.46L-241.93 250.19L-242.1 243.68L-241.89 235.11V233.86C-241.89 232.86 -241.89 231.86 -241.75 230.94L-241.51 228.62L-260.01 227.53L-259.46 220.41C-259.46 219.41 -259.28 218.41 -259.13 217.31C-259.07 216.85 -259.01 216.38 -258.96 215.93L-258.65 213.52L-253.94 214.16L-254.23 216.44C-254.23 216.88 -254.34 217.31 -254.4 217.74C-254.54 218.81 -254.69 219.92 -254.75 221.06L-254.85 223.19L-241.24 224.53L-241.13 222.19C-241.08 221.28 -240.96 220.35 -240.83 219.38C-240.77 218.93 -240.71 218.49 -240.66 218.07L-240.11 213.8C-240.04 213.27 -239.98 212.75 -239.91 212.22C-239.8 211.33 -239.7 210.45 -239.57 209.62L-239.17 207.42L-238.4 203.03L-256.57 199.84L-255.75 195.3L-253.65 186.22L-249.04 187.4L-251.09 196.25L-237.73 199.13L-235.32 188.69L-232.32 178.27L-249.97 172.99C-249.57 171.7 -249.13 170.41 -248.67 169.08C-248.35 168.15 -248.03 167.22 -247.73 166.31L-246.24 161.91C-245.97 161.16 -245.68 160.42 -245.38 159.68L-240.95 161.39C-241.24 162.11 -241.52 162.84 -241.79 163.6L-243.94 169.96L-231.01 174.39L-228.93 168.21C-228.63 167.38 -228.3 166.55 -227.93 165.73C-227.73 165.24 -227.53 164.73 -227.35 164.26L-225.49 159.55L-224.97 158.25L-223.86 155.69L-223.23 154.39H-223.28L-223.2 154.19L-240.09 146.88L-237.23 140.55C-236.35 138.76 -235.44 136.99 -234.53 135.22L-234.06 134.32L-229.86 136.54L-230.35 137.54C-231.23 139.25 -232.11 140.95 -232.96 142.68L-233.96 144.68L-221.67 150.58L-219.49 146.29C-217.35 142.04 -215.13 137.64 -212.64 133.53L-211.47 131.58L-227.47 122.33L-226.25 120.23C-225.76 119.39 -225.25 118.57 -224.7 117.76L-223.8 116.35L-220.99 111.97C-220.65 111.43 -220.32 110.97 -219.99 110.41L-216.07 113.1L-217.07 114.65L-220.98 120.75L-209.42 128.04L-205.63 122.13C-204.95 121.05 -204.3 120.04 -203.56 119.04L-199.18 112.89L-197.18 110.16L-211.92 99.16L-211.81 99.02C-209.03 95.46 -206.17 91.79 -203.17 88.32L-199.57 91.46C-199.71 91.63 -199.85 91.79 -200 91.95C-201.35 93.49 -202.74 95.09 -204 96.79L-205.28 98.51L-194.58 107.06L-193.2 105.2C-192.09 103.71 -190.87 102.32 -189.58 100.85C-188.95 100.14 -188.33 99.42 -187.73 98.72L-184.97 95.53L-180.45 90.77L-193.85 78.14L-190.63 74.75L-183.82 68.25L-180.63 71.77L-187.2 78.04L-177.62 87.79L-169.86 80.38L-164.64 75.86L-161.58 73.24L-173.43 59.1L-164.43 52L-162.43 50.6L-159.58 54.44L-161.58 55.81L-166.86 59.96L-158.47 70.75L-153.4 66.75L-145.71 61.28L-144.71 60.56L-140.98 58.17L-151.09 42.81L-145.2 39.05L-139.05 35.53L-136.75 39.69L-144.58 44.2L-137.49 55.88L-128.07 50.46C-126.9 49.75 -125.62 49.1 -124.41 48.46L-122.41 47.46L-118.41 45.46L-126.72 28.97C-126.02 28.61 -125.33 28.25 -124.65 27.97L-120.44 26.07L-117.71 24.83C-116.46 24.26 -115.26 23.71 -114.06 23.2L-112.25 27.6C-113.47 28.11 -114.67 28.66 -115.84 29.2C-116.71 29.6 -117.59 30.01 -118.47 30.39L-120.55 31.3L-114.83 43.8L-112.83 42.8C-108.64 40.8 -104.21 39.06 -99.92 37.38L-95 35.45L-101.29 18.25L-92.48 15.25L-87.89 13.95L-86.66 18.53L-91.11 19.79L-95.33 21.22L-91.14 34.22L-87.06 32.83L-76.73 29.89L-74.58 29.43L-70.24 28.43L-74.49 10.43L-69.92 9.43C-69.46 9.33 -69 9.25 -68.54 9.17L-60.83 7.79L-60.09 12.48L-69.03 14.08L-66.42 27.53L-55.82 25.63C-54.07 25.37 -52.32 25.15 -50.57 24.93L-47.29 24.52L-45.12 24.22L-47.25 5.94C-45.34 5.72 -43.39 5.58 -41.5 5.44L-40.26 5.34L-37.55 5.14C-36.06 5.02 -34.64 4.9 -33.22 4.84L-33.03 9.59C-34.46 9.66 -35.87 9.77 -37.25 9.88L-39.85 10.08L-42.09 10.23L-41.03 23.93L-38.76 23.7C-34.54 23.28 -30.19 23.18 -25.98 23.08C-24.8533 23.08 -23.7233 23.05 -22.59 22.99H-19.35V4.59H-16.95C-13.16 4.68 -9.25999 4.76 -5.42999 5.06L-5.78998 9.82C-8.04999 9.64 -10.37 9.46 -12.72 9.45H-14.87L-15.38 23.11H-13.07C-10.98 23.11 -8.91998 23.27 -6.72998 23.45L-4.62 23.61L-2.62 23.76C-0.389984 23.92 1.69998 24.08 3.79999 24.4L6.09003 24.75L8.21002 6.39L9.21002 6.52C11.21 6.77 13.21 7.02 15.1 7.29L22.1 8.54L21.19 13.21L12.25 11.61L10.15 25.11L22.86 27.39L27.07 28.39L31.41 29.39L35.66 11.39L37.92 11.91L46.89 14.53C47.67 14.75 48.41 14.95 49.13 15.17L47.67 19.7C46.95 19.48 46.2 19.27 45.42 19.05L38.94 17.21L35.28 30.38L41.58 32.17C43.07 32.58 44.31 32.93 45.58 33.4L55.82 36.87L62.1 19.65L62.43 19.78C66.63 21.41 70.96 23.09 75.13 24.98L73.13 29.32L72.81 29.18C70.81 28.29 68.81 27.36 66.75 26.59L64.75 25.85L59.58 38.53L61.75 39.32C63.59 39.99 65.35 40.8 67.21 41.66C67.99 42.01 68.76 42.37 69.52 42.66L73.42 44.53C74.07 44.83 74.7 45.16 75.34 45.53L79.34 47.53L87.64 31.06L90.25 32.41C91.47 33.03 92.62 33.61 93.76 34.3L99.83 37.8L97.37 41.86L89.5 37.33L82.88 49.33L92.21 54.7C93.71 55.62 95.21 56.58 96.67 57.53C97.61 58.14 98.54 58.74 99.48 59.33L101.33 60.5L111.42 45.06C112.59 45.85 113.75 46.68 114.95 47.54L117.17 49.12L120.95 51.81C121.59 52.29 122.22 52.81 122.85 53.28L119.94 57.03C119.33 56.55 118.72 56.03 118.07 55.59L112.59 51.7L104.59 62.81L109.9 66.58C110.62 67.11 111.32 67.67 112.03 68.23C112.44 68.56 112.85 68.89 113.26 69.23L116.67 71.91C117.24 72.35 117.8 72.79 118.35 73.24L120.57 75.11L121.57 76.01L121.73 76.15L133.58 62.05L138.87 66.53L143.96 71.37L140.63 74.76L134.04 68.53L124.86 78.63L134.19 87.53L140.19 93.82L153.58 81.17L155.2 82.87L162.79 91.63L162.88 91.74L159.18 94.74L153.24 87.87L142.95 96.87L148.58 103.36L154.43 110.81L156.61 113.73L171.36 102.73L175.42 108.43C176.32 109.65 177.15 110.94 177.92 112.17L179.22 114.17L175.22 116.71L172.75 112.86C172.47 112.43 172.17 112.02 171.87 111.6L170.16 109.17L158.9 116.92L160.66 119.41L161.39 120.41L164.88 125.87C165.17 126.32 165.46 126.78 165.76 127.23C166.24 127.98 166.76 128.72 167.15 129.42L170.42 135.11L186.42 125.85C188.74 129.85 190.87 134.07 192.93 138.14L193.01 138.3L188.72 140.36L184.59 132.27L172.51 138.67L177.4 148.22L180.33 154.7L181.86 158.23L198.8 150.9C199.09 151.59 199.37 152.31 199.66 153.07L201.98 158.94C202.34 159.85 202.7 160.76 202.98 161.61L203.76 163.9L199.27 165.53L198.51 163.28L196.05 157.03L183.31 161.98L185.67 167.98L189.1 178.09L190.3 182.35L207.95 177.05L209.86 183.76L211.47 190.68L206.82 191.68L204.82 182.84L191.59 186.25L192.08 188.36C192.35 189.56 192.63 190.76 192.91 191.96C193.76 195.6 194.62 199.34 195.28 203.08L195.88 206.46L196.01 207.3V207.47L214.18 204.28L214.61 206.64C214.77 207.59 214.88 208.55 215 209.51C215.07 210.06 215.14 210.61 215.21 211.13C215.34 212.23 215.49 213.34 215.63 214.45C215.77 215.56 215.95 216.86 216.09 218.08L211.36 218.54C211.22 217.34 211.06 216.14 210.91 214.98C210.76 213.82 210.62 212.84 210.5 211.77L210.23 209.52L196.69 211.37L196.95 213.54C197.07 214.61 197.21 215.68 197.36 216.75C197.59 218.49 197.83 220.3 197.98 222.03L198.8 232.83L217.17 231.76C217.17 232.33 217.17 232.92 217.17 233.51L217.42 243.38L217.36 245.84L212.61 245.75V243.38L212.44 236.67L198.77 236.94L198.94 243.44L198.73 252.02V253.25V254.19L198.58 256.92L198.42 258.41H198.49V258.64L216.87 259.7L216.33 266.7C216.17 268.63 215.91 270.61 215.66 272.53C215.61 272.88 215.56 273.23 215.52 273.59L210.81 272.95L211.1 270.66C211.15 270.22 211.21 269.79 211.27 269.36C211.41 268.29 211.56 267.18 211.62 266.04L211.73 263.91L198.08 262.53L197.97 264.86C197.97 265.77 197.8 266.7 197.67 267.67C197.61 268.12 197.55 268.56 197.5 268.98L196.96 273.25C196.88 273.78 196.82 274.32 196.75 274.85C196.64 275.73 196.54 276.61 196.41 277.43L195.24 283.89L213.42 287.09L212.6 291.68L210.42 300.85L205.81 299.67L207.86 290.82L194.5 287.94L192.09 298.39L190.21 305L189.04 308.91L206.74 314.22V314.31C206.6 314.77 206.45 315.22 206.29 315.67L203.07 325.19C202.8 325.93 202.51 326.66 202.22 327.39L197.79 325.68C198.08 324.95 198.36 324.22 198.63 323.47L200.79 317.1L187.85 312.67L185.77 318.85C185.47 319.69 185.14 320.51 184.77 321.33C184.57 321.82 184.37 322.33 184.19 322.8L182.42 327.53C181.99 328.63 181.58 329.67 181.1 330.67L180.1 332.76L197.1 340.09L194.21 346.49C193.33 348.29 192.41 350.07 191.49 351.85L191.01 352.78L186.81 350.56L187.31 349.56C188.19 347.86 189.07 346.16 189.9 344.44L190.9 342.44L178.6 336.54L176.43 340.83C174.59 344.48 172.68 348.22 170.61 351.83L168.82 354.91L168.45 355.53L168.37 355.68L184.37 364.93L183.03 366.97Z" fill="#FFA80F" fill-opacity="0.1"/>
</svg>
