<svg width="222" height="488" viewBox="0 0 222 488" fill="none" xmlns="http://www.w3.org/2000/svg">
<path d="M445.3 342.84L445.5 342.45L449.8 344.51C449.29 345.51 448.8 346.51 448.25 347.51C447.7 348.51 447.25 349.51 446.73 350.51L445.73 352.51L457.82 358.89L458.82 356.89L460.32 353.97C461.25 352.16 462.19 350.35 463.11 348.46L467.9 337.88L450.97 330.56C451.14 330.11 451.32 329.67 451.49 329.23L453.35 324.51C453.53 324.03 453.73 323.56 453.92 323.08C454.27 322.2 454.62 321.33 454.92 320.4L455.58 318.4L460.08 319.94L459.36 322.06C459.05 322.94 458.71 323.8 458.36 324.66C458.16 325.18 457.95 325.66 457.75 326.2L456.95 328.28L469.7 333.21L470.5 331.13L471.1 329.61C471.48 328.66 471.86 327.71 472.21 326.72L475.45 317.18C475.62 316.67 475.8 316.18 475.96 315.62L477.2 311.27L459.55 305.98L461.42 299.53L462.87 293.26L467.52 294.26L465.52 302.94L478.76 306.34L481.93 292.62L483.57 283.51L465.42 280.29L465.79 278.2C465.94 277.27 466.05 276.34 466.17 275.41C466.23 274.89 466.29 274.41 466.36 273.85L466.91 269.54C466.91 269.12 467.02 268.7 467.08 268.28C467.14 267.86 467.15 267.71 467.19 267.42L471.92 267.87C471.92 268.15 471.85 268.43 471.81 268.71C471.75 269.17 471.69 269.62 471.64 270.06L470.79 276.71L484.42 278.53L484.68 276.28C484.81 275.2 484.95 274.11 485.1 273.03C485.36 271.03 485.63 269.03 485.8 266.97L486.67 255.45L468.24 254.39C468.24 254.02 468.24 253.65 468.24 253.29C468.24 252.93 468.24 252.5 468.24 252.1L468.46 243.39V241.25L473.21 241.16L473.27 243.33L473.1 250.07L486.77 250.32L486.93 243.32L486.68 233.32C486.68 231.95 486.62 230.53 486.48 229.1L486.27 226.96L467.92 228.03L467.42 221.63C467.26 219.78 467.01 217.92 466.77 216.13C466.77 215.81 466.69 215.49 466.64 215.13L471.36 214.49C471.36 214.83 471.44 215.16 471.49 215.49C471.73 217.33 471.98 219.24 472.15 221.1L472.35 223.33L485.96 222.01L485.76 219.81C485.58 217.81 485.31 215.75 485.05 213.81C484.91 212.73 484.76 211.64 484.63 210.51C484.56 209.98 484.49 209.45 484.43 208.91C484.3 207.91 484.17 206.86 484 205.82L482.79 199.07L464.65 202.25C463.97 198.41 463.09 194.6 462.23 190.9C462.12 190.41 462 189.9 461.89 189.43L466.49 188.24L468.49 196.92L481.85 194.02L479.2 182.6L476.02 171.43L458.37 176.73L454.87 166.4L454.11 164.46L458.55 162.74L459.34 164.74L461.5 171.13L474.42 166.72L472.19 160.16C471.84 159.22 471.47 158.28 471.09 157.35L468.75 151.41C468.19 149.98 467.62 148.51 466.93 147.06L466.01 145.12L449.14 152.43L446.42 146.34L443.42 140.6L447.62 138.38L451.62 146.31L463.94 140.39L461.8 136.18C459.37 131.39 456.86 126.43 454.02 121.72L452.89 119.84L436.99 129.06L435.92 127.2C435.44 126.41 434.92 125.64 434.44 124.86C434.15 124.42 433.86 123.97 433.58 123.52L430.08 118.06L433.99 115.36L438.8 122.86L450.42 115.53L446.71 109.75C445.9 108.47 445.02 107.1 444.06 105.8L437.35 96.38L422.51 107.53L417.03 100.53L414.24 97.3L417.81 94.17L420.7 97.5L423.48 101.05L434.11 92.45L431.24 88.81L423.51 79.89L418.75 74.89L405.36 87.53L402.36 84.36L396.11 78.41L399.3 74.89L405.76 81.04L415.33 71.28L406.89 63.28L398.16 55.72L386.28 69.79C385.67 69.3 385.06 68.79 384.47 68.37L381.07 65.69C380.66 65.38 380.26 65.06 379.86 64.69C379.12 64.1 378.38 63.51 377.58 62.92L375.88 61.72L378.65 57.85L380.47 59.15C381.22 59.7 381.95 60.28 382.69 60.87C383.11 61.21 383.54 61.55 383.98 61.87L385.74 63.24L394.12 52.53L392.36 51.16L391.05 50.16C390.25 49.52 389.45 48.89 388.59 48.25L384.76 45.53L382.57 43.97C380.77 42.68 378.91 41.34 376.95 40.15L375.11 39.02L365 54.32L364.07 53.72C362.56 52.72 361.07 51.78 359.48 50.8L353.89 47.58L356.19 43.42L363.91 47.87L370.99 36.18L360.99 30.43C359.75 29.68 358.47 29.03 357.24 28.43L350.64 25.04L342.34 41.49C341.66 41.14 340.98 40.79 340.27 40.49L336.32 38.7C335.56 38.37 334.81 38.02 334.05 37.7C332.86 37.15 331.65 36.6 330.41 36.08L332.21 31.68C333.45 32.19 334.68 32.76 335.95 33.34L338.33 34.42L340.33 35.31L345.97 22.93L343.97 21.98C339.05 19.64 333.97 17.65 328.97 15.73L324.4 13.95L318.06 31.36L311.99 29.3C310.5 28.76 308.99 28.3 307.71 27.99L305.71 27.41L306.98 22.83L309.17 23.45C310.67 23.87 312.01 24.25 313.3 24.72L315.48 25.51L319.65 12.51L317.65 11.78C316.14 11.24 314.65 10.78 313.07 10.37L304.07 7.8L297.42 6.17L293.17 24.09L288.9 23.09L280.26 21.53L280.99 16.84L289.76 18.41L292.42 5.01L280.86 2.95C278.86 2.67 276.86 2.41 274.86 2.16L271.59 1.74L269.35 1.45L267.24 19.76C265.73 19.59 264.24 19.48 262.76 19.38L260.76 19.22L258.66 19.06C257.23 18.95 255.76 18.83 254.28 18.76L254.46 14.01C255.94 14.08 257.46 14.2 258.96 14.32L261.14 14.49L263.35 14.64L264.35 1.08L262.18 0.86C257.49 0.4 252.74 0.29 248.18 0.19C246.63 0.19 245.07 0.12 243.52 0.0700002L241.22 0V18.53L238.95 18.59C235.39 18.67 231.74 18.75 228.09 19.03L227.73 14.32H228.14C230.27 14.15 232.28 13.99 234.31 13.99H236.63L236.1 0.32H233.92C231.61 0.32 229.31 0.51 227.09 0.69L224.42 0.89L223.18 0.98C220.49 1.18 217.7 1.39 214.95 1.8L212.81 2.12L214.95 20.37L213.88 20.5C212.09 20.73 210.3 20.95 208.46 21.23L202.11 22.37L201.19 17.7L209.97 16.13L207.85 2.63L195.68 4.81C195.15 4.9 194.63 4.99 194.08 5.11L185.08 7.18L189.42 25.1L187.26 25.59L176.77 28.59L175.31 24.06L183.88 21.63L180.2 8.46L171.2 11.03L157.91 15.53L164.27 32.93L163.4 33.27C159.73 34.71 155.95 36.19 152.25 37.86L150.25 33.57L150.89 33.27C152.74 32.42 154.49 31.62 156.3 30.95L158.48 30.15L153.28 17.5L151.28 18.25C149.22 19 147.23 19.92 145.28 20.8L142.59 22.02L138.42 23.92C137.5 24.36 136.59 24.83 135.68 25.3L134.24 26.04L132.24 27.04L140.51 43.53L138.51 44.53C137.23 45.17 135.87 45.86 134.59 46.64L128.99 49.86L126.53 45.79L134.25 41.35L127.62 29.35L117.46 35.2L107.7 41.53L117.86 56.9C117.47 57.16 117.09 57.43 116.71 57.71L108.96 63.22L107.32 64.53L104.42 60.73L106.13 59.38L111.62 55.48L103.62 44.37L97.95 48.37L88.78 55.57C88.38 55.9 87.99 56.24 87.6 56.57L85.31 58.57L97.17 72.68L92.17 77.06L87.42 81.53L84.09 78.14L90.54 71.99L81.42 61.88L71.24 71.6L64.85 78.3L78.22 90.94L76.71 92.53L73.86 95.82C73.27 96.53 72.66 97.22 72.05 97.91C71.25 98.83 70.44 99.76 69.64 100.72L65.94 97.72C66.73 96.72 67.56 95.82 68.42 94.84C69.06 94.11 69.7 93.38 70.33 92.63L71.75 90.96L61.5 82.03L60.03 83.66C56.38 87.71 53.03 92.05 49.73 96.24L46.82 99.97L61.67 111.05L57.87 116.38C57.06 117.48 56.34 118.61 55.64 119.71L54.24 121.88L50.24 119.34L51.73 117.01C52.44 115.89 53.12 114.84 53.86 113.83L55.24 111.98L43.97 104.23L42.69 105.96C41.82 107.14 41.04 108.36 40.29 109.54L37.42 113.93C37.13 114.39 36.84 114.85 36.54 115.3C35.98 116.17 35.41 117.04 34.88 117.95L31.43 123.95L47.42 133.15C45.32 136.81 43.42 140.58 41.56 144.25L41.36 144.64L37.06 142.58C37.57 141.58 38.06 140.58 38.62 139.58C39.18 138.58 39.62 137.63 40.13 136.64L41.13 134.69L29.04 128.31L28.04 130.31L26.55 133.2C25.62 135 24.7 136.79 23.78 138.67L19.02 149.19L35.9 156.53C35.7 157.01 35.51 157.53 35.32 157.98L33.42 162.66C33.24 163.14 33.05 163.66 32.86 164.09C32.5 164.97 32.15 165.85 31.86 166.77L31.2 168.77L26.7 167.23L27.42 165.11C27.73 164.23 28.08 163.37 28.42 162.51C28.63 162 28.83 161.51 29.03 160.98L29.83 158.9L17.08 153.97L16.28 156.05L15.68 157.57C15.3 158.57 14.91 159.49 14.55 160.5L13.04 164.95C12.75 165.86 12.43 166.77 12.12 167.68C11.42 169.68 10.69 171.82 10.12 173.98L9.58 176.06L27.18 181.33L25.4 187.63L23.95 193.9L19.3 192.9L21.3 184.22L8.06 180.81L4.91 194.44L3.28 203.5L21.42 206.66L21.02 208.89C20.87 209.82 20.76 210.75 20.64 211.68C20.58 212.2 20.52 212.68 20.45 213.23L19.92 217.53C19.87 217.95 19.81 218.37 19.76 218.79L19.64 219.65L14.91 219.2C14.91 218.92 14.98 218.64 15.02 218.35C15.08 217.9 15.14 217.45 15.19 217.02L16.04 210.36L2.5 208.53L1.62 215.42C1.56 215.87 1.51 216.31 1.45 216.76C1.3 217.87 1.15 219.02 1.09 220.16L0.199997 231.75L18.64 232.8C18.64 233.13 18.64 233.45 18.64 233.8V235.01L18.42 243.71L18.48 245.85L13.72 245.94L13.66 243.77L13.83 237.03L0.160004 236.77L0 243.77L0.259995 254.01C0.259995 255.26 0.310002 256.54 0.440002 257.85L0.649994 259.97L19 258.92L19.5 265.51C19.67 267.37 19.91 269.22 20.15 271.02C20.15 271.34 20.23 271.66 20.28 272.02L15.56 272.66C15.56 272.33 15.48 271.99 15.43 271.66C15.19 269.82 14.94 267.91 14.77 266.05L14.57 263.81L0.959991 265.13L1.16 267.34C1.35 269.39 1.62 271.44 1.88 273.42C2.02 274.51 2.17 275.6 2.3 276.73C2.38 277.27 2.43999 277.81 2.50999 278.35C2.62999 279.35 2.76 280.35 2.94 281.45L4.16 288.25L22.28 285.05C22.96 288.85 23.84 292.61 24.69 296.26C24.8 296.75 24.92 297.26 25.03 297.74L20.42 298.83L18.42 290.15L5.06 293.05L7.69 304.4L10.85 315.5L28.42 310.21V310.34L31.91 320.67L32.68 322.6L28.24 324.32L27.45 322.32L25.29 315.94L12.42 320.36L14.67 326.99L18.09 335.69C18.65 337.13 19.26 338.69 19.97 340.16L20.9 342.1L37.76 334.79L40.46 340.79L43.42 346.53L39.22 348.76L35.17 340.82L22.85 346.74L25.13 351.22C27.49 355.88 29.94 360.7 32.7 365.28L33.83 367.16L49.73 357.95L50.86 359.95C51.35 360.74 51.86 361.52 52.36 362.3C52.65 362.74 52.93 363.18 53.21 363.62L56.71 369.09L52.8 371.78L47.99 364.28L36.42 371.53L41.42 379.35C41.71 379.79 42.02 380.22 42.33 380.65L49.55 390.8L64.42 379.72L69.82 386.59L72.62 389.82L69.04 392.95L66.15 389.62L63.37 386.07L52.74 394.67L55.6 398.3L63.27 407.15L68 412.15L81.42 399.47L84.53 402.73L90.78 408.68L87.59 412.2L81.13 406.06L71.56 415.82L80.06 423.9L88.84 431.51L100.7 417.38C101.26 417.84 101.83 418.28 102.4 418.72L105.81 421.4L107.03 422.4C107.77 422.99 108.5 423.57 109.29 424.16L110.99 425.36L108.23 429.23L106.41 427.93C105.66 427.38 104.93 426.8 104.21 426.23L102.89 425.23L101.13 423.86L92.76 434.66L94.52 436.02L95.79 437.02C96.59 437.65 97.39 438.28 98.25 438.92L102.05 441.63C102.83 442.17 103.59 442.72 104.36 443.27C106.1 444.52 107.9 445.81 109.8 446.97L111.64 448.09L121.75 432.76L122.75 433.43C124.25 434.43 125.75 435.37 127.34 436.35L132.93 439.56L130.63 443.72L122.91 439.28L115.83 450.97L125.88 456.75C127.04 457.45 128.23 458.06 129.38 458.65L136.29 462.19L144.58 445.74C145.22 446.08 145.87 446.4 146.53 446.74L150.53 448.53C151.29 448.86 152.04 449.21 152.8 449.53C153.98 450.07 155.19 450.62 156.43 451.14L154.63 455.54C153.39 455.02 152.15 454.46 150.87 453.87L148.51 452.8L146.51 451.91L140.87 464.29L142.87 465.23C147.63 467.51 152.59 469.44 157.39 471.3L162.29 473.22L168.64 455.82L174.84 457.91C176.22 458.42 177.6 458.81 179.12 459.23L181.12 459.8L179.84 464.39L177.66 463.76C176.37 463.4 174.9 463 173.53 462.5L171.35 461.71L167.18 474.71L169.18 475.44C170.78 476.02 172.46 476.49 173.8 476.86L182.91 479.44L189.62 480.99L193.86 463.07L198 464.07L206.6 465.61L205.87 470.31L197.1 468.74L194.42 482.07L205.86 484.07C207.86 484.36 209.86 484.61 211.86 484.86L215.09 485.27L217.33 485.57L219.46 467.26C221.02 467.43 222.56 467.55 224.08 467.66L226.08 467.81L228.2 467.98C229.63 468.09 231.08 468.21 232.55 468.27L232.38 473.02C230.9 472.96 229.38 472.84 227.88 472.72L225.7 472.55L223.49 472.39L222.49 485.96L224.66 486.18C229.47 486.65 234.35 486.76 239.06 486.86C240.54 486.86 242.06 486.92 243.5 486.97L245.8 487.03V468.53L247.92 468.48C251.48 468.4 255.14 468.31 258.79 468.04L259.16 472.75H258.74C256.61 472.93 254.6 473.09 252.57 473.09H250.25L250.78 486.75H252.93C255.23 486.75 257.51 486.56 259.72 486.38L262.36 486.18L263.97 486.06C266.52 485.87 269.15 485.68 271.76 485.29L273.89 484.97L271.77 466.72L272.94 466.57C274.74 466.35 276.54 466.12 278.39 465.84L284.74 464.7L285.65 469.37L276.88 470.94L279 484.44L290.41 482.44C292 482.18 293.56 481.83 295.13 481.44L301.88 479.88L297.62 461.96L299.62 461.49L310.11 458.49L311.57 463.01L303 465.45L306.68 478.61L315.68 476.06L328.84 471.61L322.42 454.23L323.42 453.85C327.1 452.41 330.88 450.93 334.57 449.25L336.57 453.55L335.93 453.85C334.08 454.7 332.33 455.5 330.52 456.17L328.34 456.96L333.54 469.62L335.54 468.87C337.61 468.11 339.61 467.19 341.54 466.3L344.26 465.07L348.58 463.07C349.49 462.62 350.39 462.16 351.29 461.7L352.78 460.93L354.78 459.93L346.42 443.53L348.28 442.58C349.55 441.94 350.9 441.25 352.19 440.47L357.79 437.25L360.26 441.31L352.53 445.76L359.16 457.71L369.26 451.9L378.99 445.68L368.84 430.3H368.9L370.11 429.45L377.85 423.94L379.49 422.65L382.41 426.4L380.7 427.75L375.21 431.65L383.21 442.76L388.91 438.69L398.19 431.4L401.62 428.4L389.76 414.3L394.76 410L399.42 405.53L402.75 408.92L396.3 415.08L405.5 425.19L415.58 415.53L421.93 408.87L408.53 396.22L410.13 394.54L412.97 391.25C413.57 390.537 414.18 389.837 414.8 389.15C415.59 388.24 416.41 387.31 417.2 386.35L420.9 389.35C420.11 390.35 419.28 391.25 418.42 392.23C417.78 392.96 417.14 393.69 416.51 394.44L415.09 396.11L425.34 405.05L426.81 403.42C430.58 399.24 434.06 394.75 437.43 390.42L440.1 386.99L425.25 375.93L428.97 370.7C429.78 369.61 430.5 368.48 431.2 367.39L432.6 365.2L436.6 367.74L435.11 370.07C434.39 371.19 433.72 372.25 432.97 373.25L431.59 375.11L442.86 382.85L444.14 381.13C445.01 379.95 445.8 378.72 446.55 377.54L449.32 373.23C449.6 372.78 449.89 372.33 450.18 371.88C450.74 371.02 451.3 370.15 451.85 369.23L455.27 363.28L439.34 354.05C441.49 350.35 443.42 346.53 445.3 342.84ZM448.03 366.97C447.52 367.82 447.03 368.64 446.46 369.46C446.16 369.92 445.86 370.38 445.58 370.83L442.82 375.14C442.47 375.67 442.14 376.2 441.82 376.71L437.9 374.02C438.25 373.5 438.58 373.02 438.9 372.46L442.81 366.37L431.26 359.07L427.46 365C426.77 366.07 426.13 367.08 425.39 368.08L419.12 376.9L433.81 387.85C430.97 391.5 428.04 395.26 424.97 398.85L421.37 395.7L421.8 395.21C423.15 393.68 424.54 392.08 425.8 390.38L427.09 388.66L416.42 380.03L415.04 381.89C413.93 383.37 412.71 384.76 411.43 386.23C410.8 386.94 410.17 387.66 409.57 388.37L406.81 391.57L405.27 393.19L402.21 396.43L415.62 409.09L412.42 412.4L405.67 418.83L402.48 415.32L409.05 409.05L399.48 399.29L391.71 406.71L383.51 413.81L395.42 427.9L386.28 435.08L384.28 436.51L381.51 432.65L383.43 431.28L388.72 427.13L380.33 416.34L375.26 420.34L367.58 425.8C367.22 426.05 366.87 426.31 366.53 426.53H366.42V426.48L362.94 428.78L362.84 428.85L362.7 428.94L372.85 444.31L367.02 448.04L360.93 451.54L358.63 447.38L366.5 442.85L359.42 431.2L350 436.62C348.8 437.34 347.54 437.99 346.33 438.62L340.52 441.62L348.82 458.07C348.11 458.44 347.4 458.8 346.72 459.13L342.42 461L339.65 462.25C338.39 462.83 337.18 463.39 335.97 463.9L334.16 459.5C335.39 458.98 336.58 458.43 337.75 457.89C338.63 457.49 339.5 457.09 340.38 456.71L342.45 455.8L336.74 443.3L334.74 444.3C330.56 446.3 326.12 448.04 321.84 449.71L320.23 450.35L316.77 451.61L323.08 468.9L314.35 471.85L309.81 473.14L308.5 468.53L312.96 467.26L317.17 465.84L312.98 452.84L308.9 454.22L298.57 457.16L292.24 458.63L296.49 476.53L294.11 477.08C292.61 477.44 291.11 477.78 289.65 478.02L282.65 479.26L281.91 474.57L290.85 472.96L288.25 459.53L277.66 461.43C275.9 461.7 274.14 461.92 272.38 462.14L271.25 462.28L266.82 462.79L268.95 481.15C267.18 481.34 265.39 481.48 263.64 481.61L262.03 481.73L259.35 481.93C257.88 482.05 256.46 482.16 255.06 482.23L254.87 477.48C256.3 477.41 257.71 477.3 259.09 477.18C259.96 477.12 260.82 477.04 261.69 476.99L263.94 476.84L262.87 463.13L260.61 463.36C256.38 463.79 252.02 463.89 247.81 463.99C246.37 463.99 244.93 464.05 243.48 464.1L241.33 464.17V482.53L239.15 482.48C235.24 482.4 231.21 482.31 227.26 482.01L227.62 477.25C229.87 477.43 232.2 477.61 234.55 477.61H236.7L237.21 463.94H234.9C232.82 463.94 230.76 463.78 228.59 463.6L226.45 463.44L224.45 463.29C222.93 463.18 221.45 463.05 220.03 462.89L217.16 462.56L215.82 462.35V462.4H215.61L213.49 480.7L212.49 480.57C210.49 480.32 208.49 480.08 206.64 479.8L199.7 478.53L200.61 473.86L209.56 475.46L211.65 461.96L198.94 459.68L190.52 457.68L186.29 475.61L183.99 475.08L174.99 472.53L172.71 471.88L174.16 467.35C174.95 467.59 175.71 467.8 176.42 468L182.9 469.84L186.56 456.67L180.26 454.88C178.77 454.47 177.53 454.11 176.26 453.65L169.12 451.23L165.93 450.06L159.62 467.35L158.96 467.09C154.96 465.51 150.74 463.89 146.72 462.09L148.72 457.74L149.02 457.88C150.97 458.78 153.02 459.7 155.09 460.47L157.09 461.22L162.27 448.53L160.09 447.74C158.26 447.07 156.5 446.26 154.64 445.4C153.86 445.05 153.09 444.69 152.33 444.4L148.42 442.6C147.61 442.23 146.83 441.82 146.05 441.41L144.63 440.68L142.63 439.68L134.35 456.12L131.42 454.62C130.29 454.04 129.22 453.49 128.16 452.85L122.02 449.32L124.48 445.25L132.36 449.79L138.97 437.79L129.64 432.43C128.14 431.5 126.64 430.55 125.19 429.59L124.11 428.9L120.42 426.53L110.24 441.96C109.13 441.21 108.03 440.42 106.89 439.6L104.55 437.93L100.8 435.27C100.17 434.8 99.55 434.27 98.93 433.82L101.84 430.07C102.45 430.55 103.07 431.07 103.72 431.51L109.2 435.41L117.2 424.29L111.88 420.53C111.17 420 110.47 419.45 109.77 418.89L108.52 417.89L105.11 415.21C103.99 414.34 102.91 413.49 101.9 412.58L100.18 411.03L88.31 425.17L83.02 420.6L77.88 415.71L81.21 412.31L87.79 418.58L96.98 408.45L87.64 399.58L84.64 396.41L81.58 393.17L68.15 405.83L66.55 404.15L59.03 395.46L58.95 395.37L62.65 392.37L68.59 399.24L78.88 390.24L73.25 383.75L65.25 373.54L50.58 384.54L45.99 378.1C45.71 377.71 45.43 377.32 45.19 376.95L42.61 372.95L46.61 370.41L49.07 374.25C49.36 374.68 49.65 375.09 49.95 375.5L51.67 377.95L62.93 370.19L61.17 367.7C60.91 367.35 60.66 367 60.44 366.7L56.95 361.24C56.66 360.8 56.37 360.35 56.09 359.9C55.6 359.15 55.09 358.4 54.67 357.69L53.56 355.75L51.33 351.89L35.33 361.15C33.09 357.26 31.04 353.2 29.04 349.26L28.82 348.83L33.11 346.77L37.24 354.86L49.32 348.46L44.44 338.91L39.97 329.04L23.09 336.37C22.78 335.63 22.49 334.88 22.21 334.16L18.82 325.56L18.03 323.23L22.52 321.68L23.28 323.92L25.74 330.17L38.48 325.23L36.12 319.23L32.69 309.11V309.02H32.75L31.61 305.22L31.53 304.91L31.48 304.75L13.84 310.04L11.95 303.4L10.42 296.44L15.07 295.44L17.12 304.29L30.35 300.87L29.87 298.76L29.03 295.15C28.03 290.85 27.03 286.42 26.3 282.02L25.95 279.78L7.75999 282.99L7.33 280.57C7.17 279.64 7.04999 278.7 6.92999 277.71C6.85999 277.14 6.79 276.58 6.72 276.06C6.59 274.95 6.44 273.85 6.3 272.74C6.16 271.63 5.97 270.28 5.83 269.04L10.56 268.58C10.7 269.78 10.86 270.97 11.01 272.14C11.16 273.31 11.3 274.27 11.42 275.34L11.69 277.59L25.23 275.74L24.92 273.53C24.8 272.46 24.66 271.4 24.52 270.33C24.28 268.59 24.05 266.78 23.89 265.05L23.34 257.79L23.13 254.11L4.7 255.18C4.7 254.73 4.7 254.27 4.7 253.81L4.42 243.71L4.48 241.28L9.23 241.37V243.74L9.39999 250.46L23.07 250.19L22.9 243.68L23.11 235.11V233.86C23.11 232.86 23.11 231.86 23.25 230.94L23.49 228.62L4.99001 227.53L5.53999 220.41C5.53999 219.41 5.72 218.41 5.87 217.31C5.93 216.85 5.98999 216.38 6.03999 215.93L6.34999 213.52L11.06 214.16L10.77 216.44C10.77 216.88 10.66 217.31 10.6 217.74C10.46 218.81 10.31 219.92 10.25 221.06L10.15 223.19L23.76 224.53L23.87 222.19C23.92 221.28 24.04 220.35 24.17 219.38C24.23 218.93 24.29 218.49 24.34 218.07L24.89 213.8C24.96 213.27 25.02 212.75 25.09 212.22C25.2 211.33 25.3 210.45 25.43 209.62L25.83 207.42L26.6 203.03L8.42999 199.84L9.25 195.3L11.35 186.22L15.96 187.4L13.91 196.25L27.27 199.13L29.68 188.69L32.68 178.27L15.03 172.99C15.43 171.7 15.87 170.41 16.33 169.08C16.65 168.15 16.97 167.22 17.27 166.31L18.76 161.91C19.03 161.16 19.32 160.42 19.62 159.68L24.05 161.39C23.76 162.11 23.48 162.84 23.21 163.6L21.06 169.96L33.99 174.39L36.07 168.21C36.37 167.38 36.7 166.55 37.07 165.73C37.27 165.24 37.47 164.73 37.65 164.26L39.51 159.55L40.03 158.25L41.14 155.69L41.77 154.39H41.72L41.8 154.19L24.91 146.88L27.77 140.55C28.65 138.76 29.56 136.99 30.47 135.22L30.94 134.32L35.14 136.54L34.65 137.54C33.77 139.25 32.89 140.95 32.04 142.68L31.04 144.68L43.33 150.58L45.51 146.29C47.65 142.04 49.87 137.64 52.36 133.53L53.53 131.58L37.53 122.33L38.75 120.23C39.24 119.39 39.75 118.57 40.3 117.76L41.2 116.35L44.01 111.97C44.35 111.43 44.68 110.97 45.01 110.41L48.93 113.1L47.93 114.65L44.02 120.75L55.58 128.04L59.37 122.13C60.05 121.05 60.7 120.04 61.44 119.04L65.82 112.89L67.82 110.16L53.08 99.16L53.19 99.02C55.97 95.46 58.83 91.79 61.83 88.32L65.43 91.46C65.29 91.63 65.15 91.79 65 91.95C63.65 93.49 62.26 95.09 61 96.79L59.72 98.51L70.42 107.06L71.8 105.2C72.91 103.71 74.13 102.32 75.42 100.85C76.05 100.14 76.67 99.42 77.27 98.72L80.03 95.53L84.55 90.77L71.15 78.14L74.37 74.75L81.18 68.25L84.37 71.77L77.8 78.04L87.38 87.79L95.14 80.38L100.36 75.86L103.42 73.24L91.57 59.1L100.57 52L102.57 50.6L105.42 54.44L103.42 55.81L98.14 59.96L106.53 70.75L111.6 66.75L119.29 61.28L120.29 60.56L124.02 58.17L113.91 42.81L119.8 39.05L125.95 35.53L128.25 39.69L120.42 44.2L127.51 55.88L136.93 50.46C138.1 49.75 139.38 49.1 140.59 48.46L142.59 47.46L146.59 45.46L138.28 28.97C138.98 28.61 139.67 28.25 140.35 27.97L144.56 26.07L147.29 24.83C148.54 24.26 149.74 23.71 150.94 23.2L152.75 27.6C151.53 28.11 150.33 28.66 149.16 29.2C148.29 29.6 147.41 30.01 146.53 30.39L144.45 31.3L150.17 43.8L152.17 42.8C156.36 40.8 160.79 39.06 165.08 37.38L170 35.45L163.71 18.25L172.52 15.25L177.11 13.95L178.34 18.53L173.89 19.79L169.67 21.22L173.86 34.22L177.94 32.83L188.27 29.89L190.42 29.43L194.76 28.43L190.51 10.43L195.08 9.43C195.54 9.33 196 9.25 196.46 9.17L204.17 7.79L204.91 12.48L195.97 14.08L198.58 27.53L209.18 25.63C210.93 25.37 212.68 25.15 214.43 24.93L217.71 24.52L219.88 24.22L217.75 5.94C219.66 5.72 221.61 5.58 223.5 5.44L224.74 5.34L227.45 5.14C228.94 5.02 230.36 4.9 231.78 4.84L231.97 9.59C230.54 9.66 229.13 9.77 227.75 9.88L225.15 10.08L222.91 10.23L223.97 23.93L226.24 23.7C230.46 23.28 234.81 23.18 239.02 23.08C240.147 23.08 241.277 23.05 242.41 22.99H245.65V4.59H248.05C251.84 4.68 255.74 4.76 259.57 5.06L259.21 9.82C256.95 9.64 254.63 9.46 252.28 9.45H250.13L249.62 23.11H251.93C254.02 23.11 256.08 23.27 258.27 23.45L260.38 23.61L262.38 23.76C264.61 23.92 266.7 24.08 268.8 24.4L271.09 24.75L273.21 6.39L274.21 6.52C276.21 6.77 278.21 7.02 280.1 7.29L287.1 8.54L286.19 13.21L277.25 11.61L275.15 25.11L287.86 27.39L292.07 28.39L296.41 29.39L300.66 11.39L302.92 11.91L311.89 14.53C312.67 14.75 313.41 14.95 314.13 15.17L312.67 19.7C311.95 19.48 311.2 19.27 310.42 19.05L303.94 17.21L300.28 30.38L306.58 32.17C308.07 32.58 309.31 32.93 310.58 33.4L320.82 36.87L327.1 19.65L327.43 19.78C331.63 21.41 335.96 23.09 340.13 24.98L338.13 29.32L337.81 29.18C335.81 28.29 333.81 27.36 331.75 26.59L329.75 25.85L324.58 38.53L326.75 39.32C328.59 39.99 330.35 40.8 332.21 41.66C332.99 42.01 333.76 42.37 334.52 42.66L338.42 44.53C339.07 44.83 339.7 45.16 340.34 45.53L344.34 47.53L352.64 31.06L355.25 32.41C356.47 33.03 357.62 33.61 358.76 34.3L364.83 37.8L362.37 41.86L354.5 37.33L347.88 49.33L357.21 54.7C358.71 55.62 360.21 56.58 361.67 57.53C362.61 58.14 363.54 58.74 364.48 59.33L366.33 60.5L376.42 45.06C377.59 45.85 378.75 46.68 379.95 47.54L382.17 49.12L385.95 51.81C386.59 52.29 387.22 52.81 387.85 53.28L384.94 57.03C384.33 56.55 383.72 56.03 383.07 55.59L377.59 51.7L369.59 62.81L374.9 66.58C375.62 67.11 376.32 67.67 377.03 68.23C377.44 68.56 377.85 68.89 378.26 69.23L381.67 71.91C382.24 72.35 382.8 72.79 383.35 73.24L385.57 75.11L386.57 76.01L386.73 76.15L398.58 62.05L403.87 66.53L408.96 71.37L405.63 74.76L399.04 68.53L389.86 78.63L399.19 87.53L405.19 93.82L418.58 81.17L420.2 82.87L427.79 91.63L427.88 91.74L424.18 94.74L418.24 87.87L407.95 96.87L413.58 103.36L419.43 110.81L421.61 113.73L436.36 102.73L440.42 108.43C441.32 109.65 442.15 110.94 442.92 112.17L444.22 114.17L440.22 116.71L437.75 112.86C437.47 112.43 437.17 112.02 436.87 111.6L435.16 109.17L423.9 116.92L425.66 119.41L426.39 120.41L429.88 125.87C430.17 126.32 430.46 126.78 430.76 127.23C431.24 127.98 431.76 128.72 432.15 129.42L435.42 135.11L451.42 125.85C453.74 129.85 455.87 134.07 457.93 138.14L458.01 138.3L453.72 140.36L449.59 132.27L437.51 138.67L442.4 148.22L445.33 154.7L446.86 158.23L463.8 150.9C464.09 151.59 464.37 152.31 464.66 153.07L466.98 158.94C467.34 159.85 467.7 160.76 467.98 161.61L468.76 163.9L464.27 165.53L463.51 163.28L461.05 157.03L448.31 161.98L450.67 167.98L454.1 178.09L455.3 182.35L472.95 177.05L474.86 183.76L476.47 190.68L471.82 191.68L469.82 182.84L456.59 186.25L457.08 188.36C457.35 189.56 457.63 190.76 457.91 191.96C458.76 195.6 459.62 199.34 460.28 203.08L460.88 206.46L461.01 207.3V207.47L479.18 204.28L479.61 206.64C479.77 207.59 479.88 208.55 480 209.51C480.07 210.06 480.14 210.61 480.21 211.13C480.34 212.23 480.49 213.34 480.63 214.45C480.77 215.56 480.95 216.86 481.09 218.08L476.36 218.54C476.22 217.34 476.06 216.14 475.91 214.98C475.76 213.82 475.62 212.84 475.5 211.77L475.23 209.52L461.69 211.37L461.95 213.54C462.07 214.61 462.21 215.68 462.36 216.75C462.59 218.49 462.83 220.3 462.98 222.03L463.8 232.83L482.17 231.76C482.17 232.33 482.17 232.92 482.17 233.51L482.42 243.38L482.36 245.84L477.61 245.75V243.38L477.44 236.67L463.77 236.94L463.94 243.44L463.73 252.02V253.25V254.19L463.58 256.92L463.42 258.41H463.49V258.64L481.87 259.7L481.33 266.7C481.17 268.63 480.91 270.61 480.66 272.53C480.61 272.88 480.56 273.23 480.52 273.59L475.81 272.95L476.1 270.66C476.15 270.22 476.21 269.79 476.27 269.36C476.41 268.29 476.56 267.18 476.62 266.04L476.73 263.91L463.08 262.53L462.97 264.86C462.97 265.77 462.8 266.7 462.67 267.67C462.61 268.12 462.55 268.56 462.5 268.98L461.96 273.25C461.88 273.78 461.82 274.32 461.75 274.85C461.64 275.73 461.54 276.61 461.41 277.43L460.24 283.89L478.42 287.09L477.6 291.68L475.42 300.85L470.81 299.67L472.86 290.82L459.5 287.94L457.09 298.39L455.21 305L454.04 308.91L471.74 314.22V314.31C471.6 314.77 471.45 315.22 471.29 315.67L468.07 325.19C467.8 325.93 467.51 326.66 467.22 327.39L462.79 325.68C463.08 324.95 463.36 324.22 463.63 323.47L465.79 317.1L452.85 312.67L450.77 318.85C450.47 319.69 450.14 320.51 449.77 321.33C449.57 321.82 449.37 322.33 449.19 322.8L447.42 327.53C446.99 328.63 446.58 329.67 446.1 330.67L445.1 332.76L462.1 340.09L459.21 346.49C458.33 348.29 457.41 350.07 456.49 351.85L456.01 352.78L451.81 350.56L452.31 349.56C453.19 347.86 454.07 346.16 454.9 344.44L455.9 342.44L443.6 336.54L441.43 340.83C439.59 344.48 437.68 348.22 435.61 351.83L433.82 354.91L433.45 355.53L433.37 355.68L449.37 364.93L448.03 366.97Z" fill="#FFA80F" fill-opacity="0.1"/>
</svg>
