<svg width="401" height="472" viewBox="0 0 401 472" fill="none" xmlns="http://www.w3.org/2000/svg">
<path d="M208.296 205.461C198.611 212.854 185.542 214.871 173.538 212.807C154.568 209.546 137.392 195.826 131.38 177.541C125.369 159.255 131.633 137.217 147.2 125.905C178.113 103.45 218.785 132.326 223.305 165.615C225.302 180.355 220.114 196.438 208.296 205.461ZM265.314 165.239C256.7 101.829 179.242 46.8387 120.369 89.6004C90.7047 111.144 78.7877 153.118 90.2356 187.949C101.694 222.776 134.403 248.911 170.533 255.126C193.396 259.057 218.279 255.213 236.725 241.137C259.241 223.942 269.126 193.309 265.314 165.239Z" fill="#2E2516"/>
<path d="M-110.369 322.214L-111.032 321.997C-120.409 318.938 -125.04 308.41 -120.967 299.429L-91.729 234.963C-86.8001 219.855 -70.5013 211.567 -55.3872 216.498L94.0199 265.241C94.7135 265.467 95.4532 265.091 95.6795 264.397L112.751 212.069L137.363 220.099L120.292 272.427C115.631 286.713 100.274 294.516 85.9896 289.855L-63.4176 241.113C-64.9629 240.609 -66.6149 241.454 -67.1167 242.992L-89.5032 311.612C-92.339 320.305 -101.685 325.047 -110.369 322.214Z" fill="#2E2516"/>
<path d="M330.948 466.189C322.257 463.353 317.513 454.015 320.349 445.322L342.736 376.702C343.237 375.164 342.394 373.505 340.857 373.003L191.449 324.261C177.165 319.6 169.364 304.243 174.024 289.957L191.096 237.628L215.708 245.658L198.637 297.986C198.41 298.68 198.786 299.419 199.48 299.646L348.887 348.388C363.993 353.317 372.277 369.624 367.348 384.732L352.247 453.977C350.157 463.555 340.258 469.226 330.948 466.189Z" fill="#2E2516"/>
<path d="M287.128 451.893L262.516 443.864L273.968 408.762C276.481 401.057 272.276 392.779 264.565 390.263L-19.422 297.615C-27.1261 295.102 -35.4117 299.305 -37.9254 307.01L-49.3769 342.112L-73.9892 334.082L-54.0819 273.062C-51.8019 266.073 -44.2961 262.266 -37.3157 264.543L298.519 374.105C305.499 376.383 309.316 383.884 307.036 390.872L287.128 451.893Z" fill="#2E2516"/>
<path d="M343.883 330.823L246.532 291.656C239.999 289.033 236.623 281.792 238.807 275.097C241.099 268.071 248.647 264.236 255.673 266.528L355.207 299C362.233 301.292 366.075 308.843 363.783 315.869L361.601 322.557C359.2 329.915 351.073 333.711 343.883 330.823Z" fill="#2E2516"/>
<path d="M57.4519 229.971L-44.2667 204.194C-51.7688 202.288 -56.0941 194.429 -53.6936 187.071L-51.512 180.384C-49.2197 173.358 -41.6715 169.522 -34.6459 171.815L64.8885 204.287C71.9141 206.579 75.7562 214.13 73.4639 221.156C71.2799 227.851 64.2758 231.705 57.4519 229.971Z" fill="#2E2516"/>
<path d="M47.2108 177.199L-27.4098 152.855C-34.164 150.651 -37.8511 143.393 -35.6474 136.638L1.00188 24.2992C3.20561 17.5442 10.4639 13.8563 17.2182 16.0598L100.274 43.156C107.028 45.3595 110.716 52.6182 108.512 59.3731L108.46 59.5314C106.256 66.2864 98.9981 69.9743 92.2439 67.7708L33.8002 48.7042C27.0459 46.5007 19.7876 50.1886 17.5839 56.9435L-3.00474 120.052C-5.20847 126.807 -1.52139 134.066 5.23283 136.27L30.629 144.555C37.3832 146.758 44.6491 143.073 46.8528 136.318L49.1426 129.299C51.3464 122.544 47.6517 115.283 40.8975 113.08C34.1508 110.879 30.4562 103.617 32.6599 96.8624L32.7116 96.7041C34.9153 89.9491 42.1811 86.2637 48.9278 88.4648L73.54 96.4942C80.2942 98.6977 83.9813 105.956 81.7776 112.711L63.4271 168.96C61.2234 175.715 53.9651 179.403 47.2108 177.199Z" fill="#2E2516"/>
<path d="M65.0464 359.113C61.9105 358.09 58.5312 359.807 57.5081 362.944L51.0174 382.839C49.9943 385.975 51.7109 389.355 54.8468 390.378L146.119 420.154C149.248 421.175 152.635 419.46 153.658 416.324L160.148 396.429C161.172 393.293 159.447 389.911 156.319 388.89L65.0464 359.113ZM138.089 444.769L46.8165 414.992C30.1118 409.543 20.955 391.516 26.4053 374.809L32.8959 354.914C38.3462 338.208 56.3721 329.049 73.0768 334.498L164.349 364.275C181.054 369.725 190.211 387.752 184.761 404.458L178.27 424.354C172.82 441.06 154.794 450.219 138.089 444.769Z" fill="#2E2516"/>
<path d="M1.82882 371.988C-4.9631 369.772 -8.67546 362.463 -6.45698 355.663L-0.595984 337.698C1.6225 330.898 8.92826 327.192 15.7202 329.408C22.5196 331.626 26.2347 338.927 24.0162 345.727L18.1552 363.693C15.9367 370.493 8.62828 374.206 1.82882 371.988Z" fill="#2E2516"/>
<path d="M199.262 436.398C192.462 434.18 188.75 426.871 190.968 420.071L196.829 402.106C199.048 395.306 206.354 391.6 213.153 393.818C219.945 396.034 223.66 403.335 221.441 410.135L215.58 428.1C213.362 434.901 206.054 438.614 199.262 436.398Z" fill="#2E2516"/>
<path d="M234.609 447.93C227.809 445.711 224.097 438.403 226.315 431.603L232.176 413.637C234.395 406.837 241.701 403.131 248.5 405.349C255.292 407.565 259.007 414.867 256.789 421.667L250.928 439.632C248.709 446.432 241.401 450.146 234.609 447.93Z" fill="#2E2516"/>
<path d="M99.258 322.712L137.696 295.98L153.925 340.546L99.258 322.712Z" fill="#2E2516"/>
<path d="M215.451 11.9316C187.732 23.1163 176.84 38.9649 171.905 46.9311C169.713 50.7369 172.455 55.2432 177.158 56.6273C194.202 61.0617 217.385 67.6158 229.589 73.3904C234.072 75.3201 239.119 73.2464 239.745 68.746C242.846 44.6167 236.177 26.7093 230.796 17.3299C228.211 12.6495 220.474 9.93324 215.451 11.9316Z" fill="#2E2516"/>
</svg>
